<?xml version="1.0" encoding="utf-8" ?>
<svg xmlns="http://www.w3.org/2000/svg" xmlns:xlink="http://www.w3.org/1999/xlink" width="450" height="300">
	<rect fill="white" width="450" height="300"/>
	<path fill="none" stroke="#010101" stroke-width="1" stroke-miterlimit="4" stroke-opacity="0.098039217" d="M58.2771 270.039L58.2771 46.2813M83.5435 270.039L83.5435 46.2813M108.81 270.039L108.81 46.2813M134.076 270.039L134.076 46.2813M159.343 270.039L159.343 46.2813M184.609 270.039L184.609 46.2813M209.876 270.039L209.876 46.2813M235.142 270.039L235.142 46.2813M260.409 270.039L260.409 46.2813M285.675 270.039L285.675 46.2813M310.942 270.039L310.942 46.2813M336.208 270.039L336.208 46.2813M361.475 270.039L361.475 46.2813M386.741 270.039L386.741 46.2813M412.008 270.039L412.008 46.2813"/>
	<path fill="none" stroke="#010101" stroke-width="1" stroke-miterlimit="4" stroke-opacity="0.098039217" d="M40.3379 234.965L435 234.965M40.3379 194.002L435 194.002M40.3379 153.04L435 153.04M40.3379 112.077L435 112.077M40.3379 71.1148L435 71.1148"/>
	<clipPath id="cl_1e7">
		<rect x="40.337891" y="46.28125" width="394.66211" height="223.75781"/>
	</clipPath>
	<g clip-path="url(#cl_1e7)">
		<path fill="none" stroke="red" stroke-width="2" stroke-miterlimit="4" d="M58.2771 234.965L58.2771 234.965L63.3304 71.1148L68.3837 234.965L73.437 71.1148L78.4902 234.965L83.5435 71.1148L88.5968 146.895L93.6501 234.965L98.7034 249.302L103.757 114.125L108.81 234.965L113.863 200.147L118.917 89.5479L123.97 69.0667L129.023 114.125L134.076 120.27L139.13 255.446L144.183 216.532L149.236 196.051L154.29 101.837L159.343 116.174L164.396 251.35L169.45 173.521L174.503 75.211L179.556 93.6442L184.609 230.869L189.663 169.425L194.716 196.051L199.769 83.4035L204.823 150.992L209.876 247.254L214.929 95.6923L219.982 251.35L225.036 130.51L230.089 148.944L235.142 228.821L240.196 114.125L245.249 194.002L250.302 132.559L255.355 103.885L260.409 136.655L265.462 198.099L270.515 177.617L275.569 122.318L280.622 79.3073L285.675 241.109L290.729 159.184L295.782 218.58L300.835 60.8741L305.888 255.446L310.942 161.232L315.995 161.232L321.048 169.425L326.102 189.906L331.155 126.414L336.208 220.628L341.261 191.954L346.315 79.3073L351.368 232.917L356.421 112.077L361.475 216.532L366.528 95.6923L371.581 179.665L376.634 167.377L381.688 212.436L386.741 77.2592L391.794 146.895L396.848 204.243L401.901 165.329L406.954 214.484L412.008 169.425L417.061 171.473"/>
		<ellipse fill="red" cx="58.277077" cy="234.9649" rx="0.40212631" ry="0.40213013"/>
		<ellipse fill="red" cx="63.330368" cy="71.114777" rx="0.40212631" ry="0.4021225"/>
		<ellipse fill="red" cx="68.383659" cy="234.9649" rx="0.4021225" ry="0.40213013"/>
		<ellipse fill="red" cx="73.436951" cy="71.114777" rx="0.4021225" ry="0.4021225"/>
		<ellipse fill="red" cx="78.49025" cy="234.9649" rx="0.4021225" ry="0.40213013"/>
		<ellipse fill="red" cx="83.543533" cy="71.114777" rx="0.4021225" ry="0.4021225"/>
		<ellipse fill="red" cx="88.596832" cy="146.89546" rx="0.4021225" ry="0.40213013"/>
		<ellipse fill="red" cx="93.650124" cy="234.9649" rx="0.4021225" ry="0.40213013"/>
		<ellipse fill="red" cx="98.703415" cy="249.30179" rx="0.4021225" ry="0.40213013"/>
		<ellipse fill="red" cx="103.75671" cy="114.12544" rx="0.4021225" ry="0.4021225"/>
		<ellipse fill="red" cx="108.81" cy="234.9649" rx="0.4021225" ry="0.40213013"/>
		<ellipse fill="red" cx="113.86329" cy="200.14676" rx="0.4021225" ry="0.40213013"/>
		<ellipse fill="red" cx="118.91658" cy="89.547928" rx="0.4021225" ry="0.4021225"/>
		<ellipse fill="red" cx="123.96987" cy="69.06665" rx="0.4021225" ry="0.4021225"/>
		<ellipse fill="red" cx="129.02316" cy="114.12544" rx="0.40213013" ry="0.4021225"/>
		<ellipse fill="red" cx="134.07646" cy="120.26982" rx="0.40213013" ry="0.4021225"/>
		<ellipse fill="red" cx="139.12976" cy="255.44617" rx="0.40213013" ry="0.40213013"/>
		<ellipse fill="red" cx="144.18304" cy="216.53177" rx="0.40213013" ry="0.40213013"/>
		<ellipse fill="red" cx="149.23633" cy="196.05051" rx="0.40213013" ry="0.40213013"/>
		<ellipse fill="red" cx="154.28963" cy="101.83669" rx="0.40213013" ry="0.4021225"/>
		<ellipse fill="red" cx="159.34293" cy="116.17357" rx="0.40213013" ry="0.4021225"/>
		<ellipse fill="red" cx="164.39621" cy="251.34991" rx="0.40213013" ry="0.40213013"/>
		<ellipse fill="red" cx="169.44951" cy="173.5211" rx="0.40213013" ry="0.40213013"/>
		<ellipse fill="red" cx="174.50279" cy="75.211029" rx="0.40213013" ry="0.4021225"/>
		<ellipse fill="red" cx="179.55609" cy="93.64418" rx="0.40213013" ry="0.4021225"/>
		<ellipse fill="red" cx="184.60938" cy="230.86865" rx="0.40213013" ry="0.40213013"/>
		<ellipse fill="red" cx="189.66267" cy="169.42485" rx="0.40213013" ry="0.40213013"/>
		<ellipse fill="red" cx="194.71596" cy="196.05051" rx="0.40213013" ry="0.40213013"/>
		<ellipse fill="red" cx="199.76926" cy="83.403534" rx="0.40213013" ry="0.4021225"/>
		<ellipse fill="red" cx="204.82254" cy="150.99171" rx="0.40213013" ry="0.40213013"/>
		<ellipse fill="red" cx="209.87584" cy="247.25366" rx="0.40213013" ry="0.40213013"/>
		<ellipse fill="red" cx="214.92914" cy="95.692307" rx="0.40213013" ry="0.4021225"/>
		<ellipse fill="red" cx="219.98242" cy="251.34991" rx="0.40213013" ry="0.40213013"/>
		<ellipse fill="red" cx="225.03572" cy="130.51045" rx="0.40213013" ry="0.40213013"/>
		<ellipse fill="red" cx="230.089" cy="148.94359" rx="0.40213013" ry="0.40213013"/>
		<ellipse fill="red" cx="235.1423" cy="228.82053" rx="0.40213013" ry="0.40213013"/>
		<ellipse fill="red" cx="240.19559" cy="114.12544" rx="0.40213013" ry="0.4021225"/>
		<ellipse fill="red" cx="245.24889" cy="194.00237" rx="0.40213013" ry="0.40213013"/>
		<ellipse fill="red" cx="250.30217" cy="132.55858" rx="0.40213013" ry="0.40213013"/>
		<ellipse fill="red" cx="255.35547" cy="103.88481" rx="0.40213013" ry="0.4021225"/>
		<ellipse fill="red" cx="260.40875" cy="136.65483" rx="0.40213013" ry="0.40213013"/>
		<ellipse fill="red" cx="265.46204" cy="198.09863" rx="0.40213013" ry="0.40213013"/>
		<ellipse fill="red" cx="270.51535" cy="177.61736" rx="0.40213013" ry="0.40213013"/>
		<ellipse fill="red" cx="275.56863" cy="122.31795" rx="0.40213013" ry="0.4021225"/>
		<ellipse fill="red" cx="280.62195" cy="79.307281" rx="0.40213013" ry="0.4021225"/>
		<ellipse fill="red" cx="285.67523" cy="241.10928" rx="0.40213013" ry="0.40213013"/>
		<ellipse fill="red" cx="290.72852" cy="159.18422" rx="0.40213013" ry="0.40213013"/>
		<ellipse fill="red" cx="295.7818" cy="218.5799" rx="0.40213013" ry="0.40213013"/>
		<ellipse fill="red" cx="300.83508" cy="60.874146" rx="0.40213013" ry="0.40212631"/>
		<ellipse fill="red" cx="305.8884" cy="255.44617" rx="0.40213013" ry="0.40213013"/>
		<ellipse fill="red" cx="310.94168" cy="161.23235" rx="0.40213013" ry="0.40213013"/>
		<ellipse fill="red" cx="315.99496" cy="161.23235" rx="0.40213013" ry="0.40213013"/>
		<ellipse fill="red" cx="321.04828" cy="169.42485" rx="0.40213013" ry="0.40213013"/>
		<ellipse fill="red" cx="326.10156" cy="189.90611" rx="0.40213013" ry="0.40213013"/>
		<ellipse fill="red" cx="331.15485" cy="126.4142" rx="0.40213013" ry="0.4021225"/>
		<ellipse fill="red" cx="336.20813" cy="220.62802" rx="0.40213013" ry="0.40213013"/>
		<ellipse fill="red" cx="341.26144" cy="191.95424" rx="0.40213013" ry="0.40213013"/>
		<ellipse fill="red" cx="346.31473" cy="79.307281" rx="0.40213013" ry="0.4021225"/>
		<ellipse fill="red" cx="351.36801" cy="232.91678" rx="0.40213013" ry="0.40213013"/>
		<ellipse fill="red" cx="356.4213" cy="112.07732" rx="0.40213013" ry="0.4021225"/>
		<ellipse fill="red" cx="361.47461" cy="216.53177" rx="0.40213013" ry="0.40213013"/>
		<ellipse fill="red" cx="366.52789" cy="95.692307" rx="0.40213013" ry="0.4021225"/>
		<ellipse fill="red" cx="371.58118" cy="179.66548" rx="0.40213013" ry="0.40213013"/>
		<ellipse fill="red" cx="376.63449" cy="167.37672" rx="0.40213013" ry="0.40213013"/>
		<ellipse fill="red" cx="381.68777" cy="212.4355" rx="0.40213013" ry="0.40213013"/>
		<ellipse fill="red" cx="386.74106" cy="77.259155" rx="0.40213013" ry="0.4021225"/>
		<ellipse fill="red" cx="391.79434" cy="146.89546" rx="0.40213013" ry="0.40213013"/>
		<ellipse fill="red" cx="396.84766" cy="204.24301" rx="0.40213013" ry="0.40213013"/>
		<ellipse fill="red" cx="401.90094" cy="165.3286" rx="0.40213013" ry="0.40213013"/>
		<ellipse fill="red" cx="406.95422" cy="214.48364" rx="0.40213013" ry="0.40213013"/>
		<ellipse fill="red" cx="412.00751" cy="169.42485" rx="0.40213013" ry="0.40213013"/>
		<ellipse fill="red" cx="417.06082" cy="171.47298" rx="0.40213013" ry="0.40213013"/>
	</g>
	<clipPath id="cl_1e8">
		<rect x="40.337891" y="46.28125" width="394.66211" height="223.75781"/>
	</clipPath>
	<g clip-path="url(#cl_1e8)">
		<path fill="none" stroke="blue" stroke-width="4" stroke-miterlimit="4" d="M58.2771 173.521L58.2771 173.521L63.3304 132.559L68.3837 173.521L73.437 132.559L78.4902 173.521L83.5435 132.559L88.5968 144.396L93.6501 192.711L98.7034 178.828L103.757 152.423L108.81 185.584L113.863 180.822L118.917 132.302L123.97 144.979L129.023 146.146L134.076 148.886L139.13 203.297L144.183 169.124L149.236 172.768L154.29 138.792L159.343 144.082L164.396 193.635L169.45 162.391L174.503 126.771L179.556 150.867L184.609 192.21L189.663 163.233L194.716 170.93L199.769 125.24L204.823 153.715L209.876 198.569L214.929 136.963L219.982 183.597L225.036 159.465L230.089 168.67L235.142 195.172L240.196 150.195L245.249 169.683L250.302 160.969L255.355 146.285L260.409 152.427L265.462 178.019L270.515 156.614L275.569 139.203L280.622 126.663L285.675 179.882L290.729 154.834L295.782 180.2L300.835 120.794L305.888 188.916L310.942 166.853L315.995 163.483L321.048 164.555L326.102 177.843L331.155 158.289L336.208 185.535L341.261 176.334L346.315 123.029L351.368 193.204L356.421 153.375L361.475 180.215L366.528 144.085L371.581 166.754L376.634 162.3L381.688 191.392L386.741 128.986L391.794 151.669L396.848 179.328L401.901 158.547L406.954 186.584L412.008 164.002L417.061 170.952"/>
		<ellipse fill="blue" cx="58.277077" cy="173.5211" rx="0.40212631" ry="0.40213013"/>
		<ellipse fill="blue" cx="63.330368" cy="132.55858" rx="0.40212631" ry="0.40213013"/>
		<ellipse fill="blue" cx="68.383659" cy="173.5211" rx="0.4021225" ry="0.40213013"/>
		<ellipse fill="blue" cx="73.436951" cy="132.55858" rx="0.4021225" ry="0.40213013"/>
		<ellipse fill="blue" cx="78.49025" cy="173.5211" rx="0.4021225" ry="0.40213013"/>
		<ellipse fill="blue" cx="83.543533" cy="132.55858" rx="0.4021225" ry="0.40213013"/>
		<ellipse fill="blue" cx="88.596832" cy="144.39639" rx="0.4021225" ry="0.40213013"/>
		<ellipse fill="blue" cx="93.650124" cy="192.71109" rx="0.4021225" ry="0.40213013"/>
		<ellipse fill="blue" cx="98.703415" cy="178.82782" rx="0.4021225" ry="0.40213013"/>
		<ellipse fill="blue" cx="103.75671" cy="152.42267" rx="0.4021225" ry="0.40213013"/>
		<ellipse fill="blue" cx="108.81" cy="185.58395" rx="0.4021225" ry="0.40213013"/>
		<ellipse fill="blue" cx="113.86329" cy="180.82236" rx="0.4021225" ry="0.40213013"/>
		<ellipse fill="blue" cx="118.91658" cy="132.30234" rx="0.4021225" ry="0.40213013"/>
		<ellipse fill="blue" cx="123.96987" cy="144.97864" rx="0.4021225" ry="0.40213013"/>
		<ellipse fill="blue" cx="129.02316" cy="146.14583" rx="0.40213013" ry="0.40213013"/>
		<ellipse fill="blue" cx="134.07646" cy="148.88626" rx="0.40213013" ry="0.40213013"/>
		<ellipse fill="blue" cx="139.12976" cy="203.29736" rx="0.40213013" ry="0.40213013"/>
		<ellipse fill="blue" cx="144.18304" cy="169.12445" rx="0.40213013" ry="0.40213013"/>
		<ellipse fill="blue" cx="149.23633" cy="172.76831" rx="0.40213013" ry="0.40213013"/>
		<ellipse fill="blue" cx="154.28963" cy="138.79193" rx="0.40213013" ry="0.40213013"/>
		<ellipse fill="blue" cx="159.34293" cy="144.08179" rx="0.40213013" ry="0.40213013"/>
		<ellipse fill="blue" cx="164.39621" cy="193.63504" rx="0.40213013" ry="0.40213013"/>
		<ellipse fill="blue" cx="169.44951" cy="162.3912" rx="0.40213013" ry="0.40213013"/>
		<ellipse fill="blue" cx="174.50279" cy="126.77112" rx="0.40213013" ry="0.4021225"/>
		<ellipse fill="blue" cx="179.55609" cy="150.86734" rx="0.40213013" ry="0.40213013"/>
		<ellipse fill="blue" cx="184.60938" cy="192.20972" rx="0.40213013" ry="0.40213013"/>
		<ellipse fill="blue" cx="189.66267" cy="163.23305" rx="0.40213013" ry="0.40213013"/>
		<ellipse fill="blue" cx="194.71596" cy="170.92999" rx="0.40213013" ry="0.40213013"/>
		<ellipse fill="blue" cx="199.76926" cy="125.24019" rx="0.40213013" ry="0.4021225"/>
		<ellipse fill="blue" cx="204.82254" cy="153.71469" rx="0.40213013" ry="0.40213013"/>
		<ellipse fill="blue" cx="209.87584" cy="198.56906" rx="0.40213013" ry="0.40213013"/>
		<ellipse fill="blue" cx="214.92914" cy="136.96313" rx="0.40213013" ry="0.40213013"/>
		<ellipse fill="blue" cx="219.98242" cy="183.5972" rx="0.40213013" ry="0.40213013"/>
		<ellipse fill="blue" cx="225.03572" cy="159.46545" rx="0.40213013" ry="0.40213013"/>
		<ellipse fill="blue" cx="230.089" cy="168.67026" rx="0.40213013" ry="0.40213013"/>
		<ellipse fill="blue" cx="235.1423" cy="195.1718" rx="0.40213013" ry="0.40213013"/>
		<ellipse fill="blue" cx="240.19559" cy="150.19528" rx="0.40213013" ry="0.40213013"/>
		<ellipse fill="blue" cx="245.24889" cy="169.68343" rx="0.40213013" ry="0.40213013"/>
		<ellipse fill="blue" cx="250.30217" cy="160.96927" rx="0.40213013" ry="0.40213013"/>
		<ellipse fill="blue" cx="255.35547" cy="146.28493" rx="0.40213013" ry="0.40213013"/>
		<ellipse fill="blue" cx="260.40875" cy="152.42737" rx="0.40213013" ry="0.40213013"/>
		<ellipse fill="blue" cx="265.46204" cy="178.01868" rx="0.40213013" ry="0.40213013"/>
		<ellipse fill="blue" cx="270.51535" cy="156.61353" rx="0.40213013" ry="0.40213013"/>
		<ellipse fill="blue" cx="275.56863" cy="139.20325" rx="0.40213013" ry="0.40213013"/>
		<ellipse fill="blue" cx="280.62195" cy="126.66319" rx="0.40213013" ry="0.4021225"/>
		<ellipse fill="blue" cx="285.67523" cy="179.88242" rx="0.40213013" ry="0.40213013"/>
		<ellipse fill="blue" cx="290.72852" cy="154.83426" rx="0.40213013" ry="0.40213013"/>
		<ellipse fill="blue" cx="295.7818" cy="180.20016" rx="0.40213013" ry="0.40213013"/>
		<ellipse fill="blue" cx="300.83508" cy="120.79404" rx="0.40213013" ry="0.4021225"/>
		<ellipse fill="blue" cx="305.8884" cy="188.91647" rx="0.40213013" ry="0.40213013"/>
		<ellipse fill="blue" cx="310.94168" cy="166.85281" rx="0.40213013" ry="0.40213013"/>
		<ellipse fill="blue" cx="315.99496" cy="163.48271" rx="0.40213013" ry="0.40213013"/>
		<ellipse fill="blue" cx="321.04828" cy="164.55493" rx="0.40213013" ry="0.40213013"/>
		<ellipse fill="blue" cx="326.10156" cy="177.84279" rx="0.40213013" ry="0.40213013"/>
		<ellipse fill="blue" cx="331.15485" cy="158.28941" rx="0.40213013" ry="0.40213013"/>
		<ellipse fill="blue" cx="336.20813" cy="185.535" rx="0.40213013" ry="0.40213013"/>
		<ellipse fill="blue" cx="341.26144" cy="176.33408" rx="0.40213013" ry="0.40213013"/>
		<ellipse fill="blue" cx="346.31473" cy="123.02924" rx="0.40213013" ry="0.4021225"/>
		<ellipse fill="blue" cx="351.36801" cy="193.20406" rx="0.40213013" ry="0.40213013"/>
		<ellipse fill="blue" cx="356.4213" cy="153.375" rx="0.40213013" ry="0.40213013"/>
		<ellipse fill="blue" cx="361.47461" cy="180.21478" rx="0.40213013" ry="0.40213013"/>
		<ellipse fill="blue" cx="366.52789" cy="144.08502" rx="0.40213013" ry="0.40213013"/>
		<ellipse fill="blue" cx="371.58118" cy="166.75435" rx="0.40213013" ry="0.40213013"/>
		<ellipse fill="blue" cx="376.63449" cy="162.30042" rx="0.40213013" ry="0.40213013"/>
		<ellipse fill="blue" cx="381.68777" cy="191.39212" rx="0.40213013" ry="0.40213013"/>
		<ellipse fill="blue" cx="386.74106" cy="128.98598" rx="0.40213013" ry="0.40213013"/>
		<ellipse fill="blue" cx="391.79434" cy="151.66853" rx="0.40213013" ry="0.40213013"/>
		<ellipse fill="blue" cx="396.84766" cy="179.32816" rx="0.40213013" ry="0.40213013"/>
		<ellipse fill="blue" cx="401.90094" cy="158.5473" rx="0.40213013" ry="0.40213013"/>
		<ellipse fill="blue" cx="406.95422" cy="186.58405" rx="0.40213013" ry="0.40213013"/>
		<ellipse fill="blue" cx="412.00751" cy="164.00168" rx="0.40213013" ry="0.40213013"/>
		<ellipse fill="blue" cx="417.06082" cy="170.95172" rx="0.40213013" ry="0.40213013"/>
	</g>
	<path fill="none" stroke="black" stroke-width="1" stroke-miterlimit="4" d="M58.2771 270.039L58.2771 274.039"/>
	<text transform="translate(58.2771 276.039)" font-size="12" font-family="Segoe UI" x="-3.234375, " y="11.027344, ">
			0
	</text>
	<path fill="none" stroke="black" stroke-width="1" stroke-miterlimit="4" d="M83.5435 270.039L83.5435 274.039"/>
	<text transform="translate(83.5435 276.039)" font-size="12" font-family="Segoe UI" x="-3.234375, " y="11.027344, ">
			5
	</text>
	<path fill="none" stroke="black" stroke-width="1" stroke-miterlimit="4" d="M108.81 270.039L108.81 274.039"/>
	<text transform="translate(108.81 276.039)" font-size="12" font-family="Segoe UI" x="-6.46875, 0, " y="11.027344, ">
			10
	</text>
	<path fill="none" stroke="black" stroke-width="1" stroke-miterlimit="4" d="M134.076 270.039L134.076 274.039"/>
	<text transform="translate(134.076 276.039)" font-size="12" font-family="Segoe UI" x="-6.46875, 0, " y="11.027344, ">
			15
	</text>
	<path fill="none" stroke="black" stroke-width="1" stroke-miterlimit="4" d="M159.343 270.039L159.343 274.039"/>
	<text transform="translate(159.343 276.039)" font-size="12" font-family="Segoe UI" x="-6.46875, 0, " y="11.027344, ">
			20
	</text>
	<path fill="none" stroke="black" stroke-width="1" stroke-miterlimit="4" d="M184.609 270.039L184.609 274.039"/>
	<text transform="translate(184.609 276.039)" font-size="12" font-family="Segoe UI" x="-6.46875, 0, " y="11.027344, ">
			25
	</text>
	<path fill="none" stroke="black" stroke-width="1" stroke-miterlimit="4" d="M209.876 270.039L209.876 274.039"/>
	<text transform="translate(209.876 276.039)" font-size="12" font-family="Segoe UI" x="-6.46875, 0, " y="11.027344, ">
			30
	</text>
	<path fill="none" stroke="black" stroke-width="1" stroke-miterlimit="4" d="M235.142 270.039L235.142 274.039"/>
	<text transform="translate(235.142 276.039)" font-size="12" font-family="Segoe UI" x="-6.46875, 0, " y="11.027344, ">
			35
	</text>
	<path fill="none" stroke="black" stroke-width="1" stroke-miterlimit="4" d="M260.409 270.039L260.409 274.039"/>
	<text transform="translate(260.409 276.039)" font-size="12" font-family="Segoe UI" x="-6.46875, 0, " y="11.027344, ">
			40
	</text>
	<path fill="none" stroke="black" stroke-width="1" stroke-miterlimit="4" d="M285.675 270.039L285.675 274.039"/>
	<text transform="translate(285.675 276.039)" font-size="12" font-family="Segoe UI" x="-6.46875, 0, " y="11.027344, ">
			45
	</text>
	<path fill="none" stroke="black" stroke-width="1" stroke-miterlimit="4" d="M310.942 270.039L310.942 274.039"/>
	<text transform="translate(310.942 276.039)" font-size="12" font-family="Segoe UI" x="-6.46875, 0, " y="11.027344, ">
			50
	</text>
	<path fill="none" stroke="black" stroke-width="1" stroke-miterlimit="4" d="M336.208 270.039L336.208 274.039"/>
	<text transform="translate(336.208 276.039)" font-size="12" font-family="Segoe UI" x="-6.46875, 0, " y="11.027344, ">
			55
	</text>
	<path fill="none" stroke="black" stroke-width="1" stroke-miterlimit="4" d="M361.475 270.039L361.475 274.039"/>
	<text transform="translate(361.475 276.039)" font-size="12" font-family="Segoe UI" x="-6.46875, 0, " y="11.027344, ">
			60
	</text>
	<path fill="none" stroke="black" stroke-width="1" stroke-miterlimit="4" d="M386.741 270.039L386.741 274.039"/>
	<text transform="translate(386.741 276.039)" font-size="12" font-family="Segoe UI" x="-6.46875, 0, " y="11.027344, ">
			65
	</text>
	<path fill="none" stroke="black" stroke-width="1" stroke-miterlimit="4" d="M412.008 270.039L412.008 274.039"/>
	<text transform="translate(412.008 276.039)" font-size="12" font-family="Segoe UI" x="-6.46875, 0, " y="11.027344, ">
			70
	</text>
	<path fill="none" stroke="black" stroke-width="1" stroke-miterlimit="4" d="M43.1172 270.039L43.1172 272.039"/>
	<path fill="none" stroke="black" stroke-width="1" stroke-miterlimit="4" d="M48.1705 270.039L48.1705 272.039"/>
	<path fill="none" stroke="black" stroke-width="1" stroke-miterlimit="4" d="M53.2238 270.039L53.2238 272.039"/>
	<path fill="none" stroke="black" stroke-width="1" stroke-miterlimit="4" d="M63.3304 270.039L63.3304 272.039"/>
	<path fill="none" stroke="black" stroke-width="1" stroke-miterlimit="4" d="M68.3837 270.039L68.3837 272.039"/>
	<path fill="none" stroke="black" stroke-width="1" stroke-miterlimit="4" d="M73.437 270.039L73.437 272.039"/>
	<path fill="none" stroke="black" stroke-width="1" stroke-miterlimit="4" d="M78.4902 270.039L78.4902 272.039"/>
	<path fill="none" stroke="black" stroke-width="1" stroke-miterlimit="4" d="M88.5968 270.039L88.5968 272.039"/>
	<path fill="none" stroke="black" stroke-width="1" stroke-miterlimit="4" d="M93.6501 270.039L93.6501 272.039"/>
	<path fill="none" stroke="black" stroke-width="1" stroke-miterlimit="4" d="M98.7034 270.039L98.7034 272.039"/>
	<path fill="none" stroke="black" stroke-width="1" stroke-miterlimit="4" d="M103.757 270.039L103.757 272.039"/>
	<path fill="none" stroke="black" stroke-width="1" stroke-miterlimit="4" d="M113.863 270.039L113.863 272.039"/>
	<path fill="none" stroke="black" stroke-width="1" stroke-miterlimit="4" d="M118.917 270.039L118.917 272.039"/>
	<path fill="none" stroke="black" stroke-width="1" stroke-miterlimit="4" d="M123.97 270.039L123.97 272.039"/>
	<path fill="none" stroke="black" stroke-width="1" stroke-miterlimit="4" d="M129.023 270.039L129.023 272.039"/>
	<path fill="none" stroke="black" stroke-width="1" stroke-miterlimit="4" d="M139.13 270.039L139.13 272.039"/>
	<path fill="none" stroke="black" stroke-width="1" stroke-miterlimit="4" d="M144.183 270.039L144.183 272.039"/>
	<path fill="none" stroke="black" stroke-width="1" stroke-miterlimit="4" d="M149.236 270.039L149.236 272.039"/>
	<path fill="none" stroke="black" stroke-width="1" stroke-miterlimit="4" d="M154.29 270.039L154.29 272.039"/>
	<path fill="none" stroke="black" stroke-width="1" stroke-miterlimit="4" d="M164.396 270.039L164.396 272.039"/>
	<path fill="none" stroke="black" stroke-width="1" stroke-miterlimit="4" d="M169.45 270.039L169.45 272.039"/>
	<path fill="none" stroke="black" stroke-width="1" stroke-miterlimit="4" d="M174.503 270.039L174.503 272.039"/>
	<path fill="none" stroke="black" stroke-width="1" stroke-miterlimit="4" d="M179.556 270.039L179.556 272.039"/>
	<path fill="none" stroke="black" stroke-width="1" stroke-miterlimit="4" d="M189.663 270.039L189.663 272.039"/>
	<path fill="none" stroke="black" stroke-width="1" stroke-miterlimit="4" d="M194.716 270.039L194.716 272.039"/>
	<path fill="none" stroke="black" stroke-width="1" stroke-miterlimit="4" d="M199.769 270.039L199.769 272.039"/>
	<path fill="none" stroke="black" stroke-width="1" stroke-miterlimit="4" d="M204.823 270.039L204.823 272.039"/>
	<path fill="none" stroke="black" stroke-width="1" stroke-miterlimit="4" d="M214.929 270.039L214.929 272.039"/>
	<path fill="none" stroke="black" stroke-width="1" stroke-miterlimit="4" d="M219.982 270.039L219.982 272.039"/>
	<path fill="none" stroke="black" stroke-width="1" stroke-miterlimit="4" d="M225.036 270.039L225.036 272.039"/>
	<path fill="none" stroke="black" stroke-width="1" stroke-miterlimit="4" d="M230.089 270.039L230.089 272.039"/>
	<path fill="none" stroke="black" stroke-width="1" stroke-miterlimit="4" d="M240.196 270.039L240.196 272.039"/>
	<path fill="none" stroke="black" stroke-width="1" stroke-miterlimit="4" d="M245.249 270.039L245.249 272.039"/>
	<path fill="none" stroke="black" stroke-width="1" stroke-miterlimit="4" d="M250.302 270.039L250.302 272.039"/>
	<path fill="none" stroke="black" stroke-width="1" stroke-miterlimit="4" d="M255.355 270.039L255.355 272.039"/>
	<path fill="none" stroke="black" stroke-width="1" stroke-miterlimit="4" d="M265.462 270.039L265.462 272.039"/>
	<path fill="none" stroke="black" stroke-width="1" stroke-miterlimit="4" d="M270.515 270.039L270.515 272.039"/>
	<path fill="none" stroke="black" stroke-width="1" stroke-miterlimit="4" d="M275.569 270.039L275.569 272.039"/>
	<path fill="none" stroke="black" stroke-width="1" stroke-miterlimit="4" d="M280.622 270.039L280.622 272.039"/>
	<path fill="none" stroke="black" stroke-width="1" stroke-miterlimit="4" d="M290.729 270.039L290.729 272.039"/>
	<path fill="none" stroke="black" stroke-width="1" stroke-miterlimit="4" d="M295.782 270.039L295.782 272.039"/>
	<path fill="none" stroke="black" stroke-width="1" stroke-miterlimit="4" d="M300.835 270.039L300.835 272.039"/>
	<path fill="none" stroke="black" stroke-width="1" stroke-miterlimit="4" d="M305.888 270.039L305.888 272.039"/>
	<path fill="none" stroke="black" stroke-width="1" stroke-miterlimit="4" d="M315.995 270.039L315.995 272.039"/>
	<path fill="none" stroke="black" stroke-width="1" stroke-miterlimit="4" d="M321.048 270.039L321.048 272.039"/>
	<path fill="none" stroke="black" stroke-width="1" stroke-miterlimit="4" d="M326.102 270.039L326.102 272.039"/>
	<path fill="none" stroke="black" stroke-width="1" stroke-miterlimit="4" d="M331.155 270.039L331.155 272.039"/>
	<path fill="none" stroke="black" stroke-width="1" stroke-miterlimit="4" d="M341.261 270.039L341.261 272.039"/>
	<path fill="none" stroke="black" stroke-width="1" stroke-miterlimit="4" d="M346.315 270.039L346.315 272.039"/>
	<path fill="none" stroke="black" stroke-width="1" stroke-miterlimit="4" d="M351.368 270.039L351.368 272.039"/>
	<path fill="none" stroke="black" stroke-width="1" stroke-miterlimit="4" d="M356.421 270.039L356.421 272.039"/>
	<path fill="none" stroke="black" stroke-width="1" stroke-miterlimit="4" d="M366.528 270.039L366.528 272.039"/>
	<path fill="none" stroke="black" stroke-width="1" stroke-miterlimit="4" d="M371.581 270.039L371.581 272.039"/>
	<path fill="none" stroke="black" stroke-width="1" stroke-miterlimit="4" d="M376.634 270.039L376.634 272.039"/>
	<path fill="none" stroke="black" stroke-width="1" stroke-miterlimit="4" d="M381.688 270.039L381.688 272.039"/>
	<path fill="none" stroke="black" stroke-width="1" stroke-miterlimit="4" d="M391.794 270.039L391.794 272.039"/>
	<path fill="none" stroke="black" stroke-width="1" stroke-miterlimit="4" d="M396.848 270.039L396.848 272.039"/>
	<path fill="none" stroke="black" stroke-width="1" stroke-miterlimit="4" d="M401.901 270.039L401.901 272.039"/>
	<path fill="none" stroke="black" stroke-width="1" stroke-miterlimit="4" d="M406.954 270.039L406.954 272.039"/>
	<path fill="none" stroke="black" stroke-width="1" stroke-miterlimit="4" d="M417.061 270.039L417.061 272.039"/>
	<path fill="none" stroke="black" stroke-width="1" stroke-miterlimit="4" d="M422.114 270.039L422.114 272.039"/>
	<path fill="none" stroke="black" stroke-width="1" stroke-miterlimit="4" d="M427.167 270.039L427.167 272.039"/>
	<path fill="none" stroke="black" stroke-width="1" stroke-miterlimit="4" d="M432.221 270.039L432.221 272.039"/>
	<path fill="none" stroke="black" stroke-width="1" stroke-miterlimit="4" d="M40.3379 270.039L435 270.039"/>
	<path fill="none" stroke="black" stroke-width="1" stroke-miterlimit="4" d="M40.3379 46.3812L435 46.3812"/>
	<path fill="none" stroke="black" stroke-width="1" stroke-miterlimit="4" d="M40.3379 234.965L36.3379 234.965"/>
	<text transform="translate(31.3379 234.965)" font-size="12" font-family="Segoe UI" x="-20.337891, -15.539063, -9.0703125, -6.46875, " y="3.046875, ">
			-0.4
	</text>
	<path fill="none" stroke="black" stroke-width="1" stroke-miterlimit="4" d="M40.3379 194.002L36.3379 194.002"/>
	<text transform="translate(31.3379 194.002)" font-size="12" font-family="Segoe UI" x="-20.337891, -15.539063, -9.0703125, -6.46875, " y="3.046875, ">
			-0.2
	</text>
	<path fill="none" stroke="black" stroke-width="1" stroke-miterlimit="4" d="M40.3379 153.04L36.3379 153.04"/>
	<text transform="translate(31.3379 153.04)" font-size="12" font-family="Segoe UI" x="-6.46875, " y="3.046875, ">
			0
	</text>
	<path fill="none" stroke="black" stroke-width="1" stroke-miterlimit="4" d="M40.3379 112.077L36.3379 112.077"/>
	<text transform="translate(31.3379 112.077)" font-size="12" font-family="Segoe UI" x="-15.539063, -9.0703125, -6.46875, " y="3.046875, ">
			0.2
	</text>
	<path fill="none" stroke="black" stroke-width="1" stroke-miterlimit="4" d="M40.3379 71.1148L36.3379 71.1148"/>
	<text transform="translate(31.3379 71.1148)" font-size="12" font-family="Segoe UI" x="-15.539063, -9.0703125, -6.46875, " y="3.046875, ">
			0.4
	</text>
	<path fill="none" stroke="black" stroke-width="1" stroke-miterlimit="4" d="M40.3379 267.735L38.3379 267.735"/>
	<path fill="none" stroke="black" stroke-width="1" stroke-miterlimit="4" d="M40.3379 259.542L38.3379 259.542"/>
	<path fill="none" stroke="black" stroke-width="1" stroke-miterlimit="4" d="M40.3379 251.35L38.3379 251.35"/>
	<path fill="none" stroke="black" stroke-width="1" stroke-miterlimit="4" d="M40.3379 243.157L38.3379 243.157"/>
	<path fill="none" stroke="black" stroke-width="1" stroke-miterlimit="4" d="M40.3379 226.772L38.3379 226.772"/>
	<path fill="none" stroke="black" stroke-width="1" stroke-miterlimit="4" d="M40.3379 218.58L38.3379 218.58"/>
	<path fill="none" stroke="black" stroke-width="1" stroke-miterlimit="4" d="M40.3379 210.387L38.3379 210.387"/>
	<path fill="none" stroke="black" stroke-width="1" stroke-miterlimit="4" d="M40.3379 202.195L38.3379 202.195"/>
	<path fill="none" stroke="black" stroke-width="1" stroke-miterlimit="4" d="M40.3379 185.81L38.3379 185.81"/>
	<path fill="none" stroke="black" stroke-width="1" stroke-miterlimit="4" d="M40.3379 177.617L38.3379 177.617"/>
	<path fill="none" stroke="black" stroke-width="1" stroke-miterlimit="4" d="M40.3379 169.425L38.3379 169.425"/>
	<path fill="none" stroke="black" stroke-width="1" stroke-miterlimit="4" d="M40.3379 161.232L38.3379 161.232"/>
	<path fill="none" stroke="black" stroke-width="1" stroke-miterlimit="4" d="M40.3379 144.847L38.3379 144.847"/>
	<path fill="none" stroke="black" stroke-width="1" stroke-miterlimit="4" d="M40.3379 136.655L38.3379 136.655"/>
	<path fill="none" stroke="black" stroke-width="1" stroke-miterlimit="4" d="M40.3379 128.462L38.3379 128.462"/>
	<path fill="none" stroke="black" stroke-width="1" stroke-miterlimit="4" d="M40.3379 120.27L38.3379 120.27"/>
	<path fill="none" stroke="black" stroke-width="1" stroke-miterlimit="4" d="M40.3379 103.885L38.3379 103.885"/>
	<path fill="none" stroke="black" stroke-width="1" stroke-miterlimit="4" d="M40.3379 95.6923L38.3379 95.6923"/>
	<path fill="none" stroke="black" stroke-width="1" stroke-miterlimit="4" d="M40.3379 87.4998L38.3379 87.4998"/>
	<path fill="none" stroke="black" stroke-width="1" stroke-miterlimit="4" d="M40.3379 79.3073L38.3379 79.3073"/>
	<path fill="none" stroke="black" stroke-width="1" stroke-miterlimit="4" d="M40.3379 62.9223L38.3379 62.9223"/>
	<path fill="none" stroke="black" stroke-width="1" stroke-miterlimit="4" d="M40.3379 54.7298L38.3379 54.7298"/>
	<path fill="none" stroke="black" stroke-width="1" stroke-miterlimit="4" d="M40.3379 46.5373L38.3379 46.5373"/>
	<path fill="none" stroke="black" stroke-width="1" stroke-miterlimit="4" d="M40.3379 270.039L40.3379 46.2813"/>
	<path fill="none" stroke="black" stroke-width="1" stroke-miterlimit="4" d="M435 270.039L435 46.2813"/>
	<text transform="translate(237.669 31.2813)" font-size="16" font-weight="600" font-family="Segoe UI" x="-91.898438, -75.820313, -66.1875, -61.640625, -55.414063, -46.757813, -42.34375, -35.875, -31.460938, -20.210938, -11.890625, -6.8203125, 3.625, 18.9375, 30.1875, 36.09375, 45.296875, 54.5, 58.835938, 63.25, 72.453125, 76.789063, 85.992188, " y="-6.890625, ">
			White - AFIRMA(10, 0.5)
	</text>
</svg>
