<?xml version="1.0" encoding="utf-8" ?>
<svg xmlns="http://www.w3.org/2000/svg" xmlns:xlink="http://www.w3.org/1999/xlink" width="450" height="300">
	<rect fill="white" width="450" height="300"/>
	<path fill="none" stroke="#010101" stroke-width="1" stroke-miterlimit="4" stroke-opacity="0.098039217" d="M51.2131 270.039L51.2131 46.2813M76.9533 270.039L76.9533 46.2813M102.694 270.039L102.694 46.2813M128.434 270.039L128.434 46.2813M154.174 270.039L154.174 46.2813M179.914 270.039L179.914 46.2813M205.654 270.039L205.654 46.2813M231.395 270.039L231.395 46.2813M257.135 270.039L257.135 46.2813M282.875 270.039L282.875 46.2813M308.615 270.039L308.615 46.2813M334.356 270.039L334.356 46.2813M360.096 270.039L360.096 46.2813M385.836 270.039L385.836 46.2813M411.576 270.039L411.576 46.2813"/>
	<path fill="none" stroke="#010101" stroke-width="1" stroke-miterlimit="4" stroke-opacity="0.098039217" d="M32.9375 251.972L435 251.972M32.9375 224.176L435 224.176M32.9375 196.38L435 196.38M32.9375 168.584L435 168.584M32.9375 140.788L435 140.788M32.9375 112.992L435 112.992M32.9375 85.1956L435 85.1956M32.9375 57.3997L435 57.3997"/>
	<clipPath id="cl_21d">
		<rect x="32.9375" y="46.28125" width="402.0625" height="223.75781"/>
	</clipPath>
	<g clip-path="url(#cl_21d)">
		<path fill="none" stroke="red" stroke-width="2" stroke-miterlimit="4" d="M51.2131 185.956L51.2131 185.956L56.3611 192.905L61.5092 185.956L66.6572 192.905L71.8053 185.956L76.9533 192.905L82.1013 185.956L87.2494 192.905L92.3974 199.854L97.5455 199.854L102.694 130.364L107.842 102.568L112.99 137.313L118.138 151.211L123.286 144.262L128.434 130.364L133.582 60.8741L138.73 85.1956L143.878 85.1956L149.026 85.1956L154.174 102.568L159.322 92.1447L164.47 102.568L169.618 116.466L174.766 112.992L179.914 102.568L185.062 137.313L190.21 133.839L195.358 137.313L200.506 106.043L205.654 102.568L210.803 88.6702L215.951 88.6702L221.099 88.6702L226.247 109.517L231.395 116.466L236.543 102.568L241.691 140.788L246.839 144.262L251.987 133.839L257.135 137.313L262.283 154.686L267.431 140.788L272.579 144.262L277.727 144.262L282.875 123.415L288.023 133.839L293.171 116.466L298.319 112.992L303.467 74.7722L308.615 88.6702L313.763 99.0937L318.912 88.6702L324.06 106.043L329.208 109.517L334.356 119.941L339.504 144.262L344.652 161.635L349.8 182.482L354.948 161.635L360.096 168.584L365.244 185.956L370.392 206.803L375.54 189.431L380.688 158.16L385.836 168.584L390.984 161.635L396.132 192.905L401.28 192.905L406.428 192.905L411.576 255.446L416.724 248.497"/>
		<ellipse fill="red" cx="51.213066" cy="185.95616" rx="0.40587997" ry="0.40588379"/>
		<ellipse fill="red" cx="56.361115" cy="192.90515" rx="0.40587997" ry="0.40588379"/>
		<ellipse fill="red" cx="61.509163" cy="185.95616" rx="0.40587997" ry="0.40588379"/>
		<ellipse fill="red" cx="66.657211" cy="192.90515" rx="0.40587616" ry="0.40588379"/>
		<ellipse fill="red" cx="71.805252" cy="185.95616" rx="0.40587616" ry="0.40588379"/>
		<ellipse fill="red" cx="76.953308" cy="192.90515" rx="0.40587616" ry="0.40588379"/>
		<ellipse fill="red" cx="82.101349" cy="185.95616" rx="0.40587616" ry="0.40588379"/>
		<ellipse fill="red" cx="87.249405" cy="192.90515" rx="0.40587616" ry="0.40588379"/>
		<ellipse fill="red" cx="92.397446" cy="199.85416" rx="0.40587616" ry="0.40588379"/>
		<ellipse fill="red" cx="97.545494" cy="199.85416" rx="0.40587616" ry="0.40588379"/>
		<ellipse fill="red" cx="102.69354" cy="130.36415" rx="0.40587616" ry="0.40588379"/>
		<ellipse fill="red" cx="107.84159" cy="102.56815" rx="0.40587616" ry="0.40587616"/>
		<ellipse fill="red" cx="112.98964" cy="137.31316" rx="0.40587616" ry="0.40588379"/>
		<ellipse fill="red" cx="118.13769" cy="151.21115" rx="0.40587616" ry="0.40588379"/>
		<ellipse fill="red" cx="123.28573" cy="144.26215" rx="0.40587616" ry="0.40588379"/>
		<ellipse fill="red" cx="128.43378" cy="130.36415" rx="0.40588379" ry="0.40588379"/>
		<ellipse fill="red" cx="133.58182" cy="60.874146" rx="0.40588379" ry="0.40587997"/>
		<ellipse fill="red" cx="138.72987" cy="85.195648" rx="0.40588379" ry="0.40587616"/>
		<ellipse fill="red" cx="143.87793" cy="85.195648" rx="0.40588379" ry="0.40587616"/>
		<ellipse fill="red" cx="149.02597" cy="85.195648" rx="0.40588379" ry="0.40587616"/>
		<ellipse fill="red" cx="154.17401" cy="102.56815" rx="0.40588379" ry="0.40587616"/>
		<ellipse fill="red" cx="159.32205" cy="92.144653" rx="0.40588379" ry="0.40587616"/>
		<ellipse fill="red" cx="164.47011" cy="102.56815" rx="0.40588379" ry="0.40587616"/>
		<ellipse fill="red" cx="169.61816" cy="116.46616" rx="0.40588379" ry="0.40587616"/>
		<ellipse fill="red" cx="174.7662" cy="112.99165" rx="0.40588379" ry="0.40587616"/>
		<ellipse fill="red" cx="179.91425" cy="102.56815" rx="0.40588379" ry="0.40587616"/>
		<ellipse fill="red" cx="185.0623" cy="137.31316" rx="0.40588379" ry="0.40588379"/>
		<ellipse fill="red" cx="190.21034" cy="133.83865" rx="0.40588379" ry="0.40588379"/>
		<ellipse fill="red" cx="195.3584" cy="137.31316" rx="0.40588379" ry="0.40588379"/>
		<ellipse fill="red" cx="200.50644" cy="106.04265" rx="0.40588379" ry="0.40587616"/>
		<ellipse fill="red" cx="205.6545" cy="102.56815" rx="0.40588379" ry="0.40587616"/>
		<ellipse fill="red" cx="210.80254" cy="88.670151" rx="0.40588379" ry="0.40587616"/>
		<ellipse fill="red" cx="215.95058" cy="88.670151" rx="0.40588379" ry="0.40587616"/>
		<ellipse fill="red" cx="221.09863" cy="88.670151" rx="0.40588379" ry="0.40587616"/>
		<ellipse fill="red" cx="226.24667" cy="109.51715" rx="0.40588379" ry="0.40587616"/>
		<ellipse fill="red" cx="231.39473" cy="116.46616" rx="0.40588379" ry="0.40587616"/>
		<ellipse fill="red" cx="236.54277" cy="102.56815" rx="0.40588379" ry="0.40587616"/>
		<ellipse fill="red" cx="241.69083" cy="140.78766" rx="0.40588379" ry="0.40588379"/>
		<ellipse fill="red" cx="246.83887" cy="144.26215" rx="0.40588379" ry="0.40588379"/>
		<ellipse fill="red" cx="251.98692" cy="133.83865" rx="0.40588379" ry="0.40588379"/>
		<ellipse fill="red" cx="257.13495" cy="137.31316" rx="0.40588379" ry="0.40588379"/>
		<ellipse fill="red" cx="262.28302" cy="154.68565" rx="0.40588379" ry="0.40588379"/>
		<ellipse fill="red" cx="267.43106" cy="140.78766" rx="0.40588379" ry="0.40588379"/>
		<ellipse fill="red" cx="272.5791" cy="144.26215" rx="0.40588379" ry="0.40588379"/>
		<ellipse fill="red" cx="277.72717" cy="144.26215" rx="0.40588379" ry="0.40588379"/>
		<ellipse fill="red" cx="282.87518" cy="123.41516" rx="0.40588379" ry="0.40587616"/>
		<ellipse fill="red" cx="288.02325" cy="133.83865" rx="0.40588379" ry="0.40588379"/>
		<ellipse fill="red" cx="293.1713" cy="116.46616" rx="0.40588379" ry="0.40587616"/>
		<ellipse fill="red" cx="298.31934" cy="112.99165" rx="0.40588379" ry="0.40587616"/>
		<ellipse fill="red" cx="303.46738" cy="74.772156" rx="0.40588379" ry="0.40587616"/>
		<ellipse fill="red" cx="308.61545" cy="88.670151" rx="0.40588379" ry="0.40587616"/>
		<ellipse fill="red" cx="313.76349" cy="99.093658" rx="0.40588379" ry="0.40587616"/>
		<ellipse fill="red" cx="318.91153" cy="88.670151" rx="0.40588379" ry="0.40587616"/>
		<ellipse fill="red" cx="324.05957" cy="106.04265" rx="0.40588379" ry="0.40587616"/>
		<ellipse fill="red" cx="329.20764" cy="109.51715" rx="0.40588379" ry="0.40587616"/>
		<ellipse fill="red" cx="334.35568" cy="119.94066" rx="0.40588379" ry="0.40587616"/>
		<ellipse fill="red" cx="339.50372" cy="144.26215" rx="0.40588379" ry="0.40588379"/>
		<ellipse fill="red" cx="344.65176" cy="161.63466" rx="0.40588379" ry="0.40588379"/>
		<ellipse fill="red" cx="349.7998" cy="182.48166" rx="0.40588379" ry="0.40588379"/>
		<ellipse fill="red" cx="354.94788" cy="161.63466" rx="0.40588379" ry="0.40588379"/>
		<ellipse fill="red" cx="360.09592" cy="168.58365" rx="0.40588379" ry="0.40588379"/>
		<ellipse fill="red" cx="365.24396" cy="185.95616" rx="0.40588379" ry="0.40588379"/>
		<ellipse fill="red" cx="370.392" cy="206.80316" rx="0.40588379" ry="0.40588379"/>
		<ellipse fill="red" cx="375.54004" cy="189.43066" rx="0.40588379" ry="0.40588379"/>
		<ellipse fill="red" cx="380.68811" cy="158.16016" rx="0.40588379" ry="0.40588379"/>
		<ellipse fill="red" cx="385.83615" cy="168.58365" rx="0.40588379" ry="0.40588379"/>
		<ellipse fill="red" cx="390.98419" cy="161.63466" rx="0.40588379" ry="0.40588379"/>
		<ellipse fill="red" cx="396.13223" cy="192.90515" rx="0.40588379" ry="0.40588379"/>
		<ellipse fill="red" cx="401.2803" cy="192.90515" rx="0.40588379" ry="0.40588379"/>
		<ellipse fill="red" cx="406.42834" cy="192.90515" rx="0.40588379" ry="0.40588379"/>
		<ellipse fill="red" cx="411.57639" cy="255.44617" rx="0.40588379" ry="0.40588379"/>
		<ellipse fill="red" cx="416.72443" cy="248.49716" rx="0.40588379" ry="0.40588379"/>
	</g>
	<clipPath id="cl_21e">
		<rect x="32.9375" y="46.28125" width="402.0625" height="223.75781"/>
	</clipPath>
	<g clip-path="url(#cl_21e)">
		<path fill="none" stroke="blue" stroke-width="4" stroke-miterlimit="4" d="M51.2131 188.562L51.2131 188.562L56.3611 190.299L61.5092 188.562L66.6572 190.299L71.8053 188.562L76.9533 190.299L82.1013 188.562L87.2494 190.299L92.3974 193.926L97.5455 193.112L102.694 160.56L107.842 159.066L112.99 167.319L118.138 164.341L123.286 158.321L128.434 149.579L133.582 112.991L138.73 128.342L143.878 111.309L149.026 106.342L154.174 108.102L159.322 101.251L164.47 103.905L169.618 107.716L174.766 99.6686L179.914 95.994L185.062 118.616L190.21 110.686L195.358 120.255L200.506 112.93L205.654 111.891L210.803 105.265L215.951 107.648L221.099 104.211L226.247 109.517L231.395 112.483L236.543 106.003L241.691 120.835L246.839 115.953L251.987 116.415L257.135 121.067L262.283 131.855L267.431 128.348L272.579 136.232L277.727 137.322L282.875 132.433L288.023 139.474L293.171 127.49L298.319 130.09L303.467 107.082L308.615 119.077L313.763 112.973L318.912 106.066L324.06 108.821L329.208 107.365L334.356 112.079L339.504 119.783L344.652 124.996L349.8 136.308L354.948 131.614L360.096 144.393L365.244 154.273L370.392 169.234L375.54 166.691L380.688 166.444L385.836 172.335L390.984 169.133L396.132 182.889L401.28 180.771L406.428 184.832L411.576 218.196L416.724 204.499"/>
		<ellipse fill="blue" cx="51.213066" cy="188.56204" rx="0.40587997" ry="0.40588379"/>
		<ellipse fill="blue" cx="56.361115" cy="190.29929" rx="0.40587997" ry="0.40588379"/>
		<ellipse fill="blue" cx="61.509163" cy="188.56204" rx="0.40587997" ry="0.40588379"/>
		<ellipse fill="blue" cx="66.657211" cy="190.29929" rx="0.40587616" ry="0.40588379"/>
		<ellipse fill="blue" cx="71.805252" cy="188.56204" rx="0.40587616" ry="0.40588379"/>
		<ellipse fill="blue" cx="76.953308" cy="190.29929" rx="0.40587616" ry="0.40588379"/>
		<ellipse fill="blue" cx="82.101349" cy="188.56204" rx="0.40587616" ry="0.40588379"/>
		<ellipse fill="blue" cx="87.249405" cy="190.29929" rx="0.40587616" ry="0.40588379"/>
		<ellipse fill="blue" cx="92.397446" cy="193.92578" rx="0.40587616" ry="0.40588379"/>
		<ellipse fill="blue" cx="97.545494" cy="193.11179" rx="0.40587616" ry="0.40588379"/>
		<ellipse fill="blue" cx="102.69354" cy="160.5596" rx="0.40587616" ry="0.40588379"/>
		<ellipse fill="blue" cx="107.84159" cy="159.06613" rx="0.40587616" ry="0.40588379"/>
		<ellipse fill="blue" cx="112.98964" cy="167.31921" rx="0.40587616" ry="0.40588379"/>
		<ellipse fill="blue" cx="118.13769" cy="164.341" rx="0.40587616" ry="0.40588379"/>
		<ellipse fill="blue" cx="123.28573" cy="158.32129" rx="0.40587616" ry="0.40588379"/>
		<ellipse fill="blue" cx="128.43378" cy="149.57878" rx="0.40588379" ry="0.40588379"/>
		<ellipse fill="blue" cx="133.58182" cy="112.99052" rx="0.40588379" ry="0.40587616"/>
		<ellipse fill="blue" cx="138.72987" cy="128.34195" rx="0.40588379" ry="0.40587997"/>
		<ellipse fill="blue" cx="143.87793" cy="111.30905" rx="0.40588379" ry="0.40587616"/>
		<ellipse fill="blue" cx="149.02597" cy="106.34186" rx="0.40588379" ry="0.40587616"/>
		<ellipse fill="blue" cx="154.17401" cy="108.1019" rx="0.40588379" ry="0.40587616"/>
		<ellipse fill="blue" cx="159.32205" cy="101.25052" rx="0.40588379" ry="0.40587616"/>
		<ellipse fill="blue" cx="164.47011" cy="103.90495" rx="0.40588379" ry="0.40587616"/>
		<ellipse fill="blue" cx="169.61816" cy="107.71611" rx="0.40588379" ry="0.40587616"/>
		<ellipse fill="blue" cx="174.7662" cy="99.66861" rx="0.40588379" ry="0.40587616"/>
		<ellipse fill="blue" cx="179.91425" cy="95.993988" rx="0.40588379" ry="0.40587616"/>
		<ellipse fill="blue" cx="185.0623" cy="118.61638" rx="0.40588379" ry="0.40587616"/>
		<ellipse fill="blue" cx="190.21034" cy="110.68636" rx="0.40588379" ry="0.40587616"/>
		<ellipse fill="blue" cx="195.3584" cy="120.25519" rx="0.40588379" ry="0.40587616"/>
		<ellipse fill="blue" cx="200.50644" cy="112.93045" rx="0.40588379" ry="0.40587616"/>
		<ellipse fill="blue" cx="205.6545" cy="111.89084" rx="0.40588379" ry="0.40587616"/>
		<ellipse fill="blue" cx="210.80254" cy="105.26518" rx="0.40588379" ry="0.40587616"/>
		<ellipse fill="blue" cx="215.95058" cy="107.64806" rx="0.40588379" ry="0.40587616"/>
		<ellipse fill="blue" cx="221.09863" cy="104.21106" rx="0.40588379" ry="0.40587616"/>
		<ellipse fill="blue" cx="226.24667" cy="109.51715" rx="0.40588379" ry="0.40587616"/>
		<ellipse fill="blue" cx="231.39473" cy="112.48306" rx="0.40588379" ry="0.40587616"/>
		<ellipse fill="blue" cx="236.54277" cy="106.0025" rx="0.40588379" ry="0.40587616"/>
		<ellipse fill="blue" cx="241.69083" cy="120.83531" rx="0.40588379" ry="0.40587616"/>
		<ellipse fill="blue" cx="246.83887" cy="115.95348" rx="0.40588379" ry="0.40587616"/>
		<ellipse fill="blue" cx="251.98692" cy="116.41533" rx="0.40588379" ry="0.40587616"/>
		<ellipse fill="blue" cx="257.13495" cy="121.06738" rx="0.40588379" ry="0.40587616"/>
		<ellipse fill="blue" cx="262.28302" cy="131.8553" rx="0.40588379" ry="0.40588379"/>
		<ellipse fill="blue" cx="267.43106" cy="128.3484" rx="0.40588379" ry="0.40587997"/>
		<ellipse fill="blue" cx="272.5791" cy="136.23203" rx="0.40588379" ry="0.40588379"/>
		<ellipse fill="blue" cx="277.72717" cy="137.32166" rx="0.40588379" ry="0.40588379"/>
		<ellipse fill="blue" cx="282.87518" cy="132.43327" rx="0.40588379" ry="0.40588379"/>
		<ellipse fill="blue" cx="288.02325" cy="139.47424" rx="0.40588379" ry="0.40588379"/>
		<ellipse fill="blue" cx="293.1713" cy="127.4897" rx="0.40588379" ry="0.40587616"/>
		<ellipse fill="blue" cx="298.31934" cy="130.08974" rx="0.40588379" ry="0.40588379"/>
		<ellipse fill="blue" cx="303.46738" cy="107.08151" rx="0.40588379" ry="0.40587616"/>
		<ellipse fill="blue" cx="308.61545" cy="119.07695" rx="0.40588379" ry="0.40587616"/>
		<ellipse fill="blue" cx="313.76349" cy="112.97334" rx="0.40588379" ry="0.40587616"/>
		<ellipse fill="blue" cx="318.91153" cy="106.06606" rx="0.40588379" ry="0.40587616"/>
		<ellipse fill="blue" cx="324.05957" cy="108.82092" rx="0.40588379" ry="0.40587616"/>
		<ellipse fill="blue" cx="329.20764" cy="107.36465" rx="0.40588379" ry="0.40587616"/>
		<ellipse fill="blue" cx="334.35568" cy="112.07861" rx="0.40588379" ry="0.40587616"/>
		<ellipse fill="blue" cx="339.50372" cy="119.78317" rx="0.40588379" ry="0.40587616"/>
		<ellipse fill="blue" cx="344.65176" cy="124.99571" rx="0.40588379" ry="0.40587616"/>
		<ellipse fill="blue" cx="349.7998" cy="136.30829" rx="0.40588379" ry="0.40588379"/>
		<ellipse fill="blue" cx="354.94788" cy="131.61403" rx="0.40588379" ry="0.40588379"/>
		<ellipse fill="blue" cx="360.09592" cy="144.39273" rx="0.40588379" ry="0.40588379"/>
		<ellipse fill="blue" cx="365.24396" cy="154.27335" rx="0.40588379" ry="0.40588379"/>
		<ellipse fill="blue" cx="370.392" cy="169.23358" rx="0.40588379" ry="0.40588379"/>
		<ellipse fill="blue" cx="375.54004" cy="166.6911" rx="0.40588379" ry="0.40588379"/>
		<ellipse fill="blue" cx="380.68811" cy="166.44427" rx="0.40588379" ry="0.40588379"/>
		<ellipse fill="blue" cx="385.83615" cy="172.33508" rx="0.40588379" ry="0.40588379"/>
		<ellipse fill="blue" cx="390.98419" cy="169.13348" rx="0.40588379" ry="0.40588379"/>
		<ellipse fill="blue" cx="396.13223" cy="182.88852" rx="0.40588379" ry="0.40588379"/>
		<ellipse fill="blue" cx="401.2803" cy="180.77126" rx="0.40588379" ry="0.40588379"/>
		<ellipse fill="blue" cx="406.42834" cy="184.83205" rx="0.40588379" ry="0.40588379"/>
		<ellipse fill="blue" cx="411.57639" cy="218.19586" rx="0.40588379" ry="0.40588379"/>
		<ellipse fill="blue" cx="416.72443" cy="204.49945" rx="0.40588379" ry="0.40588379"/>
	</g>
	<path fill="none" stroke="black" stroke-width="1" stroke-miterlimit="4" d="M51.2131 270.039L51.2131 274.039"/>
	<text transform="translate(51.2131 276.039)" font-size="12" font-family="Segoe UI" x="-3.234375, " y="11.027344, ">
			0
	</text>
	<path fill="none" stroke="black" stroke-width="1" stroke-miterlimit="4" d="M76.9533 270.039L76.9533 274.039"/>
	<text transform="translate(76.9533 276.039)" font-size="12" font-family="Segoe UI" x="-3.234375, " y="11.027344, ">
			5
	</text>
	<path fill="none" stroke="black" stroke-width="1" stroke-miterlimit="4" d="M102.694 270.039L102.694 274.039"/>
	<text transform="translate(102.694 276.039)" font-size="12" font-family="Segoe UI" x="-6.46875, 0, " y="11.027344, ">
			10
	</text>
	<path fill="none" stroke="black" stroke-width="1" stroke-miterlimit="4" d="M128.434 270.039L128.434 274.039"/>
	<text transform="translate(128.434 276.039)" font-size="12" font-family="Segoe UI" x="-6.46875, 0, " y="11.027344, ">
			15
	</text>
	<path fill="none" stroke="black" stroke-width="1" stroke-miterlimit="4" d="M154.174 270.039L154.174 274.039"/>
	<text transform="translate(154.174 276.039)" font-size="12" font-family="Segoe UI" x="-6.46875, 0, " y="11.027344, ">
			20
	</text>
	<path fill="none" stroke="black" stroke-width="1" stroke-miterlimit="4" d="M179.914 270.039L179.914 274.039"/>
	<text transform="translate(179.914 276.039)" font-size="12" font-family="Segoe UI" x="-6.46875, 0, " y="11.027344, ">
			25
	</text>
	<path fill="none" stroke="black" stroke-width="1" stroke-miterlimit="4" d="M205.654 270.039L205.654 274.039"/>
	<text transform="translate(205.654 276.039)" font-size="12" font-family="Segoe UI" x="-6.46875, 0, " y="11.027344, ">
			30
	</text>
	<path fill="none" stroke="black" stroke-width="1" stroke-miterlimit="4" d="M231.395 270.039L231.395 274.039"/>
	<text transform="translate(231.395 276.039)" font-size="12" font-family="Segoe UI" x="-6.46875, 0, " y="11.027344, ">
			35
	</text>
	<path fill="none" stroke="black" stroke-width="1" stroke-miterlimit="4" d="M257.135 270.039L257.135 274.039"/>
	<text transform="translate(257.135 276.039)" font-size="12" font-family="Segoe UI" x="-6.46875, 0, " y="11.027344, ">
			40
	</text>
	<path fill="none" stroke="black" stroke-width="1" stroke-miterlimit="4" d="M282.875 270.039L282.875 274.039"/>
	<text transform="translate(282.875 276.039)" font-size="12" font-family="Segoe UI" x="-6.46875, 0, " y="11.027344, ">
			45
	</text>
	<path fill="none" stroke="black" stroke-width="1" stroke-miterlimit="4" d="M308.615 270.039L308.615 274.039"/>
	<text transform="translate(308.615 276.039)" font-size="12" font-family="Segoe UI" x="-6.46875, 0, " y="11.027344, ">
			50
	</text>
	<path fill="none" stroke="black" stroke-width="1" stroke-miterlimit="4" d="M334.356 270.039L334.356 274.039"/>
	<text transform="translate(334.356 276.039)" font-size="12" font-family="Segoe UI" x="-6.46875, 0, " y="11.027344, ">
			55
	</text>
	<path fill="none" stroke="black" stroke-width="1" stroke-miterlimit="4" d="M360.096 270.039L360.096 274.039"/>
	<text transform="translate(360.096 276.039)" font-size="12" font-family="Segoe UI" x="-6.46875, 0, " y="11.027344, ">
			60
	</text>
	<path fill="none" stroke="black" stroke-width="1" stroke-miterlimit="4" d="M385.836 270.039L385.836 274.039"/>
	<text transform="translate(385.836 276.039)" font-size="12" font-family="Segoe UI" x="-6.46875, 0, " y="11.027344, ">
			65
	</text>
	<path fill="none" stroke="black" stroke-width="1" stroke-miterlimit="4" d="M411.576 270.039L411.576 274.039"/>
	<text transform="translate(411.576 276.039)" font-size="12" font-family="Segoe UI" x="-6.46875, 0, " y="11.027344, ">
			70
	</text>
	<path fill="none" stroke="black" stroke-width="1" stroke-miterlimit="4" d="M35.7689 270.039L35.7689 272.039"/>
	<path fill="none" stroke="black" stroke-width="1" stroke-miterlimit="4" d="M40.917 270.039L40.917 272.039"/>
	<path fill="none" stroke="black" stroke-width="1" stroke-miterlimit="4" d="M46.065 270.039L46.065 272.039"/>
	<path fill="none" stroke="black" stroke-width="1" stroke-miterlimit="4" d="M56.3611 270.039L56.3611 272.039"/>
	<path fill="none" stroke="black" stroke-width="1" stroke-miterlimit="4" d="M61.5092 270.039L61.5092 272.039"/>
	<path fill="none" stroke="black" stroke-width="1" stroke-miterlimit="4" d="M66.6572 270.039L66.6572 272.039"/>
	<path fill="none" stroke="black" stroke-width="1" stroke-miterlimit="4" d="M71.8053 270.039L71.8053 272.039"/>
	<path fill="none" stroke="black" stroke-width="1" stroke-miterlimit="4" d="M82.1013 270.039L82.1013 272.039"/>
	<path fill="none" stroke="black" stroke-width="1" stroke-miterlimit="4" d="M87.2494 270.039L87.2494 272.039"/>
	<path fill="none" stroke="black" stroke-width="1" stroke-miterlimit="4" d="M92.3974 270.039L92.3974 272.039"/>
	<path fill="none" stroke="black" stroke-width="1" stroke-miterlimit="4" d="M97.5455 270.039L97.5455 272.039"/>
	<path fill="none" stroke="black" stroke-width="1" stroke-miterlimit="4" d="M107.842 270.039L107.842 272.039"/>
	<path fill="none" stroke="black" stroke-width="1" stroke-miterlimit="4" d="M112.99 270.039L112.99 272.039"/>
	<path fill="none" stroke="black" stroke-width="1" stroke-miterlimit="4" d="M118.138 270.039L118.138 272.039"/>
	<path fill="none" stroke="black" stroke-width="1" stroke-miterlimit="4" d="M123.286 270.039L123.286 272.039"/>
	<path fill="none" stroke="black" stroke-width="1" stroke-miterlimit="4" d="M133.582 270.039L133.582 272.039"/>
	<path fill="none" stroke="black" stroke-width="1" stroke-miterlimit="4" d="M138.73 270.039L138.73 272.039"/>
	<path fill="none" stroke="black" stroke-width="1" stroke-miterlimit="4" d="M143.878 270.039L143.878 272.039"/>
	<path fill="none" stroke="black" stroke-width="1" stroke-miterlimit="4" d="M149.026 270.039L149.026 272.039"/>
	<path fill="none" stroke="black" stroke-width="1" stroke-miterlimit="4" d="M159.322 270.039L159.322 272.039"/>
	<path fill="none" stroke="black" stroke-width="1" stroke-miterlimit="4" d="M164.47 270.039L164.47 272.039"/>
	<path fill="none" stroke="black" stroke-width="1" stroke-miterlimit="4" d="M169.618 270.039L169.618 272.039"/>
	<path fill="none" stroke="black" stroke-width="1" stroke-miterlimit="4" d="M174.766 270.039L174.766 272.039"/>
	<path fill="none" stroke="black" stroke-width="1" stroke-miterlimit="4" d="M185.062 270.039L185.062 272.039"/>
	<path fill="none" stroke="black" stroke-width="1" stroke-miterlimit="4" d="M190.21 270.039L190.21 272.039"/>
	<path fill="none" stroke="black" stroke-width="1" stroke-miterlimit="4" d="M195.358 270.039L195.358 272.039"/>
	<path fill="none" stroke="black" stroke-width="1" stroke-miterlimit="4" d="M200.506 270.039L200.506 272.039"/>
	<path fill="none" stroke="black" stroke-width="1" stroke-miterlimit="4" d="M210.803 270.039L210.803 272.039"/>
	<path fill="none" stroke="black" stroke-width="1" stroke-miterlimit="4" d="M215.951 270.039L215.951 272.039"/>
	<path fill="none" stroke="black" stroke-width="1" stroke-miterlimit="4" d="M221.099 270.039L221.099 272.039"/>
	<path fill="none" stroke="black" stroke-width="1" stroke-miterlimit="4" d="M226.247 270.039L226.247 272.039"/>
	<path fill="none" stroke="black" stroke-width="1" stroke-miterlimit="4" d="M236.543 270.039L236.543 272.039"/>
	<path fill="none" stroke="black" stroke-width="1" stroke-miterlimit="4" d="M241.691 270.039L241.691 272.039"/>
	<path fill="none" stroke="black" stroke-width="1" stroke-miterlimit="4" d="M246.839 270.039L246.839 272.039"/>
	<path fill="none" stroke="black" stroke-width="1" stroke-miterlimit="4" d="M251.987 270.039L251.987 272.039"/>
	<path fill="none" stroke="black" stroke-width="1" stroke-miterlimit="4" d="M262.283 270.039L262.283 272.039"/>
	<path fill="none" stroke="black" stroke-width="1" stroke-miterlimit="4" d="M267.431 270.039L267.431 272.039"/>
	<path fill="none" stroke="black" stroke-width="1" stroke-miterlimit="4" d="M272.579 270.039L272.579 272.039"/>
	<path fill="none" stroke="black" stroke-width="1" stroke-miterlimit="4" d="M277.727 270.039L277.727 272.039"/>
	<path fill="none" stroke="black" stroke-width="1" stroke-miterlimit="4" d="M288.023 270.039L288.023 272.039"/>
	<path fill="none" stroke="black" stroke-width="1" stroke-miterlimit="4" d="M293.171 270.039L293.171 272.039"/>
	<path fill="none" stroke="black" stroke-width="1" stroke-miterlimit="4" d="M298.319 270.039L298.319 272.039"/>
	<path fill="none" stroke="black" stroke-width="1" stroke-miterlimit="4" d="M303.467 270.039L303.467 272.039"/>
	<path fill="none" stroke="black" stroke-width="1" stroke-miterlimit="4" d="M313.763 270.039L313.763 272.039"/>
	<path fill="none" stroke="black" stroke-width="1" stroke-miterlimit="4" d="M318.912 270.039L318.912 272.039"/>
	<path fill="none" stroke="black" stroke-width="1" stroke-miterlimit="4" d="M324.06 270.039L324.06 272.039"/>
	<path fill="none" stroke="black" stroke-width="1" stroke-miterlimit="4" d="M329.208 270.039L329.208 272.039"/>
	<path fill="none" stroke="black" stroke-width="1" stroke-miterlimit="4" d="M339.504 270.039L339.504 272.039"/>
	<path fill="none" stroke="black" stroke-width="1" stroke-miterlimit="4" d="M344.652 270.039L344.652 272.039"/>
	<path fill="none" stroke="black" stroke-width="1" stroke-miterlimit="4" d="M349.8 270.039L349.8 272.039"/>
	<path fill="none" stroke="black" stroke-width="1" stroke-miterlimit="4" d="M354.948 270.039L354.948 272.039"/>
	<path fill="none" stroke="black" stroke-width="1" stroke-miterlimit="4" d="M365.244 270.039L365.244 272.039"/>
	<path fill="none" stroke="black" stroke-width="1" stroke-miterlimit="4" d="M370.392 270.039L370.392 272.039"/>
	<path fill="none" stroke="black" stroke-width="1" stroke-miterlimit="4" d="M375.54 270.039L375.54 272.039"/>
	<path fill="none" stroke="black" stroke-width="1" stroke-miterlimit="4" d="M380.688 270.039L380.688 272.039"/>
	<path fill="none" stroke="black" stroke-width="1" stroke-miterlimit="4" d="M390.984 270.039L390.984 272.039"/>
	<path fill="none" stroke="black" stroke-width="1" stroke-miterlimit="4" d="M396.132 270.039L396.132 272.039"/>
	<path fill="none" stroke="black" stroke-width="1" stroke-miterlimit="4" d="M401.28 270.039L401.28 272.039"/>
	<path fill="none" stroke="black" stroke-width="1" stroke-miterlimit="4" d="M406.428 270.039L406.428 272.039"/>
	<path fill="none" stroke="black" stroke-width="1" stroke-miterlimit="4" d="M416.724 270.039L416.724 272.039"/>
	<path fill="none" stroke="black" stroke-width="1" stroke-miterlimit="4" d="M421.872 270.039L421.872 272.039"/>
	<path fill="none" stroke="black" stroke-width="1" stroke-miterlimit="4" d="M427.021 270.039L427.021 272.039"/>
	<path fill="none" stroke="black" stroke-width="1" stroke-miterlimit="4" d="M432.169 270.039L432.169 272.039"/>
	<path fill="none" stroke="black" stroke-width="1" stroke-miterlimit="4" d="M32.9375 270.039L435 270.039"/>
	<path fill="none" stroke="black" stroke-width="1" stroke-miterlimit="4" d="M32.9375 46.3812L435 46.3812"/>
	<path fill="none" stroke="black" stroke-width="1" stroke-miterlimit="4" d="M32.9375 251.972L28.9375 251.972"/>
	<text transform="translate(23.9375 251.972)" font-size="12" font-family="Segoe UI" x="-12.9375, -6.46875, " y="3.046875, ">
			64
	</text>
	<path fill="none" stroke="black" stroke-width="1" stroke-miterlimit="4" d="M32.9375 224.176L28.9375 224.176"/>
	<text transform="translate(23.9375 224.176)" font-size="12" font-family="Segoe UI" x="-12.9375, -6.46875, " y="3.046875, ">
			66
	</text>
	<path fill="none" stroke="black" stroke-width="1" stroke-miterlimit="4" d="M32.9375 196.38L28.9375 196.38"/>
	<text transform="translate(23.9375 196.38)" font-size="12" font-family="Segoe UI" x="-12.9375, -6.46875, " y="3.046875, ">
			68
	</text>
	<path fill="none" stroke="black" stroke-width="1" stroke-miterlimit="4" d="M32.9375 168.584L28.9375 168.584"/>
	<text transform="translate(23.9375 168.584)" font-size="12" font-family="Segoe UI" x="-12.9375, -6.46875, " y="3.046875, ">
			70
	</text>
	<path fill="none" stroke="black" stroke-width="1" stroke-miterlimit="4" d="M32.9375 140.788L28.9375 140.788"/>
	<text transform="translate(23.9375 140.788)" font-size="12" font-family="Segoe UI" x="-12.9375, -6.46875, " y="3.046875, ">
			72
	</text>
	<path fill="none" stroke="black" stroke-width="1" stroke-miterlimit="4" d="M32.9375 112.992L28.9375 112.992"/>
	<text transform="translate(23.9375 112.992)" font-size="12" font-family="Segoe UI" x="-12.9375, -6.46875, " y="3.046875, ">
			74
	</text>
	<path fill="none" stroke="black" stroke-width="1" stroke-miterlimit="4" d="M32.9375 85.1956L28.9375 85.1956"/>
	<text transform="translate(23.9375 85.1956)" font-size="12" font-family="Segoe UI" x="-12.9375, -6.46875, " y="3.046875, ">
			76
	</text>
	<path fill="none" stroke="black" stroke-width="1" stroke-miterlimit="4" d="M32.9375 57.3997L28.9375 57.3997"/>
	<text transform="translate(23.9375 57.3997)" font-size="12" font-family="Segoe UI" x="-12.9375, -6.46875, " y="3.046875, ">
			78
	</text>
	<path fill="none" stroke="black" stroke-width="1" stroke-miterlimit="4" d="M32.9375 268.649L30.9375 268.649"/>
	<path fill="none" stroke="black" stroke-width="1" stroke-miterlimit="4" d="M32.9375 263.09L30.9375 263.09"/>
	<path fill="none" stroke="black" stroke-width="1" stroke-miterlimit="4" d="M32.9375 257.531L30.9375 257.531"/>
	<path fill="none" stroke="black" stroke-width="1" stroke-miterlimit="4" d="M32.9375 246.412L30.9375 246.412"/>
	<path fill="none" stroke="black" stroke-width="1" stroke-miterlimit="4" d="M32.9375 240.853L30.9375 240.853"/>
	<path fill="none" stroke="black" stroke-width="1" stroke-miterlimit="4" d="M32.9375 235.294L30.9375 235.294"/>
	<path fill="none" stroke="black" stroke-width="1" stroke-miterlimit="4" d="M32.9375 229.735L30.9375 229.735"/>
	<path fill="none" stroke="black" stroke-width="1" stroke-miterlimit="4" d="M32.9375 218.616L30.9375 218.616"/>
	<path fill="none" stroke="black" stroke-width="1" stroke-miterlimit="4" d="M32.9375 213.057L30.9375 213.057"/>
	<path fill="none" stroke="black" stroke-width="1" stroke-miterlimit="4" d="M32.9375 207.498L30.9375 207.498"/>
	<path fill="none" stroke="black" stroke-width="1" stroke-miterlimit="4" d="M32.9375 201.939L30.9375 201.939"/>
	<path fill="none" stroke="black" stroke-width="1" stroke-miterlimit="4" d="M32.9375 190.82L30.9375 190.82"/>
	<path fill="none" stroke="black" stroke-width="1" stroke-miterlimit="4" d="M32.9375 185.261L30.9375 185.261"/>
	<path fill="none" stroke="black" stroke-width="1" stroke-miterlimit="4" d="M32.9375 179.702L30.9375 179.702"/>
	<path fill="none" stroke="black" stroke-width="1" stroke-miterlimit="4" d="M32.9375 174.143L30.9375 174.143"/>
	<path fill="none" stroke="black" stroke-width="1" stroke-miterlimit="4" d="M32.9375 163.024L30.9375 163.024"/>
	<path fill="none" stroke="black" stroke-width="1" stroke-miterlimit="4" d="M32.9375 157.465L30.9375 157.465"/>
	<path fill="none" stroke="black" stroke-width="1" stroke-miterlimit="4" d="M32.9375 151.906L30.9375 151.906"/>
	<path fill="none" stroke="black" stroke-width="1" stroke-miterlimit="4" d="M32.9375 146.347L30.9375 146.347"/>
	<path fill="none" stroke="black" stroke-width="1" stroke-miterlimit="4" d="M32.9375 135.228L30.9375 135.228"/>
	<path fill="none" stroke="black" stroke-width="1" stroke-miterlimit="4" d="M32.9375 129.669L30.9375 129.669"/>
	<path fill="none" stroke="black" stroke-width="1" stroke-miterlimit="4" d="M32.9375 124.11L30.9375 124.11"/>
	<path fill="none" stroke="black" stroke-width="1" stroke-miterlimit="4" d="M32.9375 118.551L30.9375 118.551"/>
	<path fill="none" stroke="black" stroke-width="1" stroke-miterlimit="4" d="M32.9375 107.432L30.9375 107.432"/>
	<path fill="none" stroke="black" stroke-width="1" stroke-miterlimit="4" d="M32.9375 101.873L30.9375 101.873"/>
	<path fill="none" stroke="black" stroke-width="1" stroke-miterlimit="4" d="M32.9375 96.3141L30.9375 96.3141"/>
	<path fill="none" stroke="black" stroke-width="1" stroke-miterlimit="4" d="M32.9375 90.7549L30.9375 90.7549"/>
	<path fill="none" stroke="black" stroke-width="1" stroke-miterlimit="4" d="M32.9375 79.6365L30.9375 79.6365"/>
	<path fill="none" stroke="black" stroke-width="1" stroke-miterlimit="4" d="M32.9375 74.0773L30.9375 74.0773"/>
	<path fill="none" stroke="black" stroke-width="1" stroke-miterlimit="4" d="M32.9375 68.5181L30.9375 68.5181"/>
	<path fill="none" stroke="black" stroke-width="1" stroke-miterlimit="4" d="M32.9375 62.9588L30.9375 62.9588"/>
	<path fill="none" stroke="black" stroke-width="1" stroke-miterlimit="4" d="M32.9375 51.8405L30.9375 51.8405"/>
	<path fill="none" stroke="black" stroke-width="1" stroke-miterlimit="4" d="M32.9375 46.2813L30.9375 46.2813"/>
	<path fill="none" stroke="black" stroke-width="1" stroke-miterlimit="4" d="M32.9375 270.039L32.9375 46.2813"/>
	<path fill="none" stroke="black" stroke-width="1" stroke-miterlimit="4" d="M435 270.039L435 46.2813"/>
	<text transform="translate(233.969 31.2813)" font-size="16" font-weight="600" font-family="Segoe UI" x="-96.386719, -81.074219, -72.464844, -66.097656, -57.152344, -48.496094, -42.269531, -37.855469, -31.386719, -26.972656, -15.722656, -7.4023438, -2.3320313, 8.1132813, 23.425781, 34.675781, 40.582031, 49.785156, 58.988281, 63.324219, 67.738281, 76.941406, 81.277344, 90.480469, " y="-6.890625, ">
			Market - AFIRMA(10, 0.5)
	</text>
</svg>
