<?xml version="1.0" encoding="utf-8" ?>
<svg xmlns="http://www.w3.org/2000/svg" xmlns:xlink="http://www.w3.org/1999/xlink" width="450" height="300">
	<rect fill="white" width="450" height="300"/>
	<path fill="none" stroke="#010101" stroke-width="1" stroke-miterlimit="4" stroke-opacity="0.098039217" d="M58.2771 270.039L58.2771 46.2813M83.5435 270.039L83.5435 46.2813M108.81 270.039L108.81 46.2813M134.076 270.039L134.076 46.2813M159.343 270.039L159.343 46.2813M184.609 270.039L184.609 46.2813M209.876 270.039L209.876 46.2813M235.142 270.039L235.142 46.2813M260.409 270.039L260.409 46.2813M285.675 270.039L285.675 46.2813M310.942 270.039L310.942 46.2813M336.208 270.039L336.208 46.2813M361.475 270.039L361.475 46.2813M386.741 270.039L386.741 46.2813M412.008 270.039L412.008 46.2813"/>
	<path fill="none" stroke="#010101" stroke-width="1" stroke-miterlimit="4" stroke-opacity="0.098039217" d="M40.3379 264.922L435 264.922M40.3379 233.336L435 233.336M40.3379 201.749L435 201.749M40.3379 170.163L435 170.163M40.3379 138.577L435 138.577M40.3379 106.99L435 106.99M40.3379 75.4039L435 75.4039"/>
	<clipPath id="cl_b5">
		<rect x="40.337891" y="46.28125" width="394.66211" height="223.75781"/>
	</clipPath>
	<g clip-path="url(#cl_b5)">
		<path fill="none" stroke="red" stroke-width="2" stroke-miterlimit="4" d="M58.2771 170.163L58.2771 170.163L63.3304 169.531L68.3837 170.163L73.437 169.531L78.4902 170.163L83.5435 169.531L88.5968 88.0384L93.6501 151.211L98.7034 200.486L103.757 239.653L108.81 242.18L113.863 172.058L118.917 100.041L123.97 109.517L129.023 130.364L134.076 183.429L139.13 231.441L144.183 216.279L149.236 211.225L154.29 173.953L159.343 137.945L164.396 101.936L169.45 107.622L174.503 124.679L179.556 162.582L184.609 192.273L189.663 240.916L194.716 246.602L199.769 234.599L204.823 225.123L209.876 162.582L214.929 161.951L219.982 155.002L225.036 90.5653L230.089 79.1942L235.142 133.523L240.196 110.149L245.249 221.965L250.302 213.12L255.355 232.072L260.409 238.39L265.462 244.075L270.515 212.489L275.569 173.953L280.622 166.373L285.675 132.259L290.729 126.574L295.782 196.064L300.835 86.1432L305.888 91.8288L310.942 108.254L315.995 106.359L321.048 118.993L326.102 141.735L331.155 189.115L336.208 187.851L341.261 247.234L346.315 189.747L351.368 255.446L356.421 218.806L361.475 241.548L366.528 201.749L371.581 178.375L376.634 178.375L381.688 190.378L386.741 188.483L391.794 151.211L396.848 93.0922L401.901 122.783L406.954 60.8741L412.008 69.7183L417.061 70.3501"/>
		<ellipse fill="red" cx="58.277077" cy="170.16296" rx="0.40212631" ry="0.40213013"/>
		<ellipse fill="red" cx="63.330368" cy="169.53125" rx="0.40212631" ry="0.40213013"/>
		<ellipse fill="red" cx="68.383659" cy="170.16296" rx="0.4021225" ry="0.40213013"/>
		<ellipse fill="red" cx="73.436951" cy="169.53125" rx="0.4021225" ry="0.40213013"/>
		<ellipse fill="red" cx="78.49025" cy="170.16296" rx="0.4021225" ry="0.40213013"/>
		<ellipse fill="red" cx="83.543533" cy="169.53125" rx="0.4021225" ry="0.40213013"/>
		<ellipse fill="red" cx="88.596832" cy="88.038422" rx="0.4021225" ry="0.4021225"/>
		<ellipse fill="red" cx="93.650124" cy="151.21115" rx="0.4021225" ry="0.40213013"/>
		<ellipse fill="red" cx="98.703415" cy="200.48589" rx="0.4021225" ry="0.40213013"/>
		<ellipse fill="red" cx="103.75671" cy="239.65298" rx="0.4021225" ry="0.40213013"/>
		<ellipse fill="red" cx="108.81" cy="242.17989" rx="0.4021225" ry="0.40213013"/>
		<ellipse fill="red" cx="113.86329" cy="172.05817" rx="0.4021225" ry="0.40213013"/>
		<ellipse fill="red" cx="118.91658" cy="100.04124" rx="0.4021225" ry="0.4021225"/>
		<ellipse fill="red" cx="123.96987" cy="109.51715" rx="0.4021225" ry="0.4021225"/>
		<ellipse fill="red" cx="129.02316" cy="130.36415" rx="0.40213013" ry="0.40213013"/>
		<ellipse fill="red" cx="134.07646" cy="183.42924" rx="0.40213013" ry="0.40213013"/>
		<ellipse fill="red" cx="139.12976" cy="231.44052" rx="0.40213013" ry="0.40213013"/>
		<ellipse fill="red" cx="144.18304" cy="216.27907" rx="0.40213013" ry="0.40213013"/>
		<ellipse fill="red" cx="149.23633" cy="211.22525" rx="0.40213013" ry="0.40213013"/>
		<ellipse fill="red" cx="154.28963" cy="173.95334" rx="0.40213013" ry="0.40213013"/>
		<ellipse fill="red" cx="159.34293" cy="137.94489" rx="0.40213013" ry="0.40213013"/>
		<ellipse fill="red" cx="164.39621" cy="101.93643" rx="0.40213013" ry="0.4021225"/>
		<ellipse fill="red" cx="169.44951" cy="107.62198" rx="0.40213013" ry="0.4021225"/>
		<ellipse fill="red" cx="174.50279" cy="124.6786" rx="0.40213013" ry="0.4021225"/>
		<ellipse fill="red" cx="179.55609" cy="162.58224" rx="0.40213013" ry="0.40213013"/>
		<ellipse fill="red" cx="184.60938" cy="192.27344" rx="0.40213013" ry="0.40213013"/>
		<ellipse fill="red" cx="189.66267" cy="240.91643" rx="0.40213013" ry="0.40213013"/>
		<ellipse fill="red" cx="194.71596" cy="246.60197" rx="0.40213013" ry="0.40213013"/>
		<ellipse fill="red" cx="199.76926" cy="234.59915" rx="0.40213013" ry="0.40213013"/>
		<ellipse fill="red" cx="204.82254" cy="225.12325" rx="0.40213013" ry="0.40213013"/>
		<ellipse fill="red" cx="209.87584" cy="162.58224" rx="0.40213013" ry="0.40213013"/>
		<ellipse fill="red" cx="214.92914" cy="161.95053" rx="0.40213013" ry="0.40213013"/>
		<ellipse fill="red" cx="219.98242" cy="155.00153" rx="0.40213013" ry="0.40213013"/>
		<ellipse fill="red" cx="225.03572" cy="90.565338" rx="0.40213013" ry="0.4021225"/>
		<ellipse fill="red" cx="230.089" cy="79.194244" rx="0.40213013" ry="0.4021225"/>
		<ellipse fill="red" cx="235.1423" cy="133.5228" rx="0.40213013" ry="0.40213013"/>
		<ellipse fill="red" cx="240.19559" cy="110.14888" rx="0.40213013" ry="0.4021225"/>
		<ellipse fill="red" cx="245.24889" cy="221.96461" rx="0.40213013" ry="0.40213013"/>
		<ellipse fill="red" cx="250.30217" cy="213.12044" rx="0.40213013" ry="0.40213013"/>
		<ellipse fill="red" cx="255.35547" cy="232.07225" rx="0.40213013" ry="0.40213013"/>
		<ellipse fill="red" cx="260.40875" cy="238.38953" rx="0.40213013" ry="0.40213013"/>
		<ellipse fill="red" cx="265.46204" cy="244.07507" rx="0.40213013" ry="0.40213013"/>
		<ellipse fill="red" cx="270.51535" cy="212.48871" rx="0.40213013" ry="0.40213013"/>
		<ellipse fill="red" cx="275.56863" cy="173.95334" rx="0.40213013" ry="0.40213013"/>
		<ellipse fill="red" cx="280.62195" cy="166.37262" rx="0.40213013" ry="0.40213013"/>
		<ellipse fill="red" cx="285.67523" cy="132.25934" rx="0.40213013" ry="0.40213013"/>
		<ellipse fill="red" cx="290.72852" cy="126.57379" rx="0.40213013" ry="0.4021225"/>
		<ellipse fill="red" cx="295.7818" cy="196.0638" rx="0.40213013" ry="0.40213013"/>
		<ellipse fill="red" cx="300.83508" cy="86.14325" rx="0.40213013" ry="0.4021225"/>
		<ellipse fill="red" cx="305.8884" cy="91.828796" rx="0.40213013" ry="0.4021225"/>
		<ellipse fill="red" cx="310.94168" cy="108.25369" rx="0.40213013" ry="0.4021225"/>
		<ellipse fill="red" cx="315.99496" cy="106.35852" rx="0.40213013" ry="0.4021225"/>
		<ellipse fill="red" cx="321.04828" cy="118.99306" rx="0.40213013" ry="0.4021225"/>
		<ellipse fill="red" cx="326.10156" cy="141.73524" rx="0.40213013" ry="0.40213013"/>
		<ellipse fill="red" cx="331.15485" cy="189.11479" rx="0.40213013" ry="0.40213013"/>
		<ellipse fill="red" cx="336.20813" cy="187.85135" rx="0.40213013" ry="0.40213013"/>
		<ellipse fill="red" cx="341.26144" cy="247.2337" rx="0.40213013" ry="0.40213013"/>
		<ellipse fill="red" cx="346.31473" cy="189.74652" rx="0.40213013" ry="0.40213013"/>
		<ellipse fill="red" cx="351.36801" cy="255.44617" rx="0.40213013" ry="0.40213013"/>
		<ellipse fill="red" cx="356.4213" cy="218.80597" rx="0.40213013" ry="0.40213013"/>
		<ellipse fill="red" cx="361.47461" cy="241.54816" rx="0.40213013" ry="0.40213013"/>
		<ellipse fill="red" cx="366.52789" cy="201.74934" rx="0.40213013" ry="0.40213013"/>
		<ellipse fill="red" cx="371.58118" cy="178.37543" rx="0.40213013" ry="0.40213013"/>
		<ellipse fill="red" cx="376.63449" cy="178.37543" rx="0.40213013" ry="0.40213013"/>
		<ellipse fill="red" cx="381.68777" cy="190.37825" rx="0.40213013" ry="0.40213013"/>
		<ellipse fill="red" cx="386.74106" cy="188.48306" rx="0.40213013" ry="0.40213013"/>
		<ellipse fill="red" cx="391.79434" cy="151.21115" rx="0.40213013" ry="0.40213013"/>
		<ellipse fill="red" cx="396.84766" cy="93.092239" rx="0.40213013" ry="0.4021225"/>
		<ellipse fill="red" cx="401.90094" cy="122.78343" rx="0.40213013" ry="0.4021225"/>
		<ellipse fill="red" cx="406.95422" cy="60.874146" rx="0.40213013" ry="0.40212631"/>
		<ellipse fill="red" cx="412.00751" cy="69.718338" rx="0.40213013" ry="0.4021225"/>
		<ellipse fill="red" cx="417.06082" cy="70.350067" rx="0.40213013" ry="0.4021225"/>
	</g>
	<clipPath id="cl_b6">
		<rect x="40.337891" y="46.28125" width="394.66211" height="223.75781"/>
	</clipPath>
	<g clip-path="url(#cl_b6)">
		<path fill="none" stroke="blue" stroke-width="4" stroke-miterlimit="4" d="M58.2771 169.847L58.2771 169.847L63.3304 169.847L68.3837 169.847L73.437 169.847L78.4902 169.847L83.5435 169.847L88.5968 169.845L93.6501 165.507L98.7034 132.159L103.757 126.539L108.81 174.582L113.863 217.595L118.917 235.136L123.97 203.178L129.023 140.258L134.076 109.692L139.13 122.248L144.183 158.332L149.236 203.827L154.29 221.052L159.343 212.581L164.396 190.952L169.45 156.016L174.503 122.146L179.556 107.586L184.609 117.855L189.663 144.299L194.716 177.995L199.769 215.325L204.823 240.552L209.876 239.796L214.929 227.189L219.982 194.32L225.036 165.204L230.089 155.104L235.142 122.551L240.196 91.1579L245.249 105.728L250.302 124.875L255.355 166.824L260.409 212.634L265.462 223.395L270.515 234.529L275.569 239.227L280.622 225.944L285.675 194.489L290.729 170.397L295.782 149.419L300.835 134.891L305.888 155.809L310.942 137.731L315.995 95.6635L321.048 99.6436L326.102 107.106L331.155 113.979L336.208 132.201L341.261 164.157L346.315 189.116L351.368 214.571L356.421 218.823L361.475 223.697L366.528 234.856L371.581 230.008L376.634 219.212L381.688 192.166L386.741 180.247L391.794 184.276L396.848 186.824L401.901 166.875L406.954 125.69L412.008 107.739L417.061 90.7282"/>
		<ellipse fill="blue" cx="58.277077" cy="169.84711" rx="0.40212631" ry="0.40213013"/>
		<ellipse fill="blue" cx="63.330368" cy="169.84711" rx="0.40212631" ry="0.40213013"/>
		<ellipse fill="blue" cx="68.383659" cy="169.84711" rx="0.4021225" ry="0.40213013"/>
		<ellipse fill="blue" cx="73.436951" cy="169.84711" rx="0.4021225" ry="0.40213013"/>
		<ellipse fill="blue" cx="78.49025" cy="169.84711" rx="0.4021225" ry="0.40213013"/>
		<ellipse fill="blue" cx="83.543533" cy="169.84711" rx="0.4021225" ry="0.40213013"/>
		<ellipse fill="blue" cx="88.596832" cy="169.84503" rx="0.4021225" ry="0.40213013"/>
		<ellipse fill="blue" cx="93.650124" cy="165.5072" rx="0.4021225" ry="0.40213013"/>
		<ellipse fill="blue" cx="98.703415" cy="132.1591" rx="0.4021225" ry="0.40213013"/>
		<ellipse fill="blue" cx="103.75671" cy="126.53885" rx="0.4021225" ry="0.4021225"/>
		<ellipse fill="blue" cx="108.81" cy="174.58157" rx="0.4021225" ry="0.40213013"/>
		<ellipse fill="blue" cx="113.86329" cy="217.59474" rx="0.4021225" ry="0.40213013"/>
		<ellipse fill="blue" cx="118.91658" cy="235.1358" rx="0.4021225" ry="0.40213013"/>
		<ellipse fill="blue" cx="123.96987" cy="203.17751" rx="0.4021225" ry="0.40213013"/>
		<ellipse fill="blue" cx="129.02316" cy="140.2581" rx="0.40213013" ry="0.40213013"/>
		<ellipse fill="blue" cx="134.07646" cy="109.69157" rx="0.40213013" ry="0.4021225"/>
		<ellipse fill="blue" cx="139.12976" cy="122.24803" rx="0.40213013" ry="0.4021225"/>
		<ellipse fill="blue" cx="144.18304" cy="158.33212" rx="0.40213013" ry="0.40213013"/>
		<ellipse fill="blue" cx="149.23633" cy="203.82742" rx="0.40213013" ry="0.40213013"/>
		<ellipse fill="blue" cx="154.28963" cy="221.05222" rx="0.40213013" ry="0.40213013"/>
		<ellipse fill="blue" cx="159.34293" cy="212.58116" rx="0.40213013" ry="0.40213013"/>
		<ellipse fill="blue" cx="164.39621" cy="190.95235" rx="0.40213013" ry="0.40213013"/>
		<ellipse fill="blue" cx="169.44951" cy="156.01617" rx="0.40213013" ry="0.40213013"/>
		<ellipse fill="blue" cx="174.50279" cy="122.14618" rx="0.40213013" ry="0.4021225"/>
		<ellipse fill="blue" cx="179.55609" cy="107.58636" rx="0.40213013" ry="0.4021225"/>
		<ellipse fill="blue" cx="184.60938" cy="117.85516" rx="0.40213013" ry="0.4021225"/>
		<ellipse fill="blue" cx="189.66267" cy="144.29944" rx="0.40213013" ry="0.40213013"/>
		<ellipse fill="blue" cx="194.71596" cy="177.9953" rx="0.40213013" ry="0.40213013"/>
		<ellipse fill="blue" cx="199.76926" cy="215.32462" rx="0.40213013" ry="0.40213013"/>
		<ellipse fill="blue" cx="204.82254" cy="240.55217" rx="0.40213013" ry="0.40213013"/>
		<ellipse fill="blue" cx="209.87584" cy="239.79625" rx="0.40213013" ry="0.40213013"/>
		<ellipse fill="blue" cx="214.92914" cy="227.18933" rx="0.40213013" ry="0.40213013"/>
		<ellipse fill="blue" cx="219.98242" cy="194.32043" rx="0.40213013" ry="0.40213013"/>
		<ellipse fill="blue" cx="225.03572" cy="165.20389" rx="0.40213013" ry="0.40213013"/>
		<ellipse fill="blue" cx="230.089" cy="155.10428" rx="0.40213013" ry="0.40213013"/>
		<ellipse fill="blue" cx="235.1423" cy="122.55104" rx="0.40213013" ry="0.4021225"/>
		<ellipse fill="blue" cx="240.19559" cy="91.157898" rx="0.40213013" ry="0.4021225"/>
		<ellipse fill="blue" cx="245.24889" cy="105.72844" rx="0.40213013" ry="0.4021225"/>
		<ellipse fill="blue" cx="250.30217" cy="124.87497" rx="0.40213013" ry="0.4021225"/>
		<ellipse fill="blue" cx="255.35547" cy="166.82397" rx="0.40213013" ry="0.40213013"/>
		<ellipse fill="blue" cx="260.40875" cy="212.634" rx="0.40213013" ry="0.40213013"/>
		<ellipse fill="blue" cx="265.46204" cy="223.39517" rx="0.40213013" ry="0.40213013"/>
		<ellipse fill="blue" cx="270.51535" cy="234.52899" rx="0.40213013" ry="0.40213013"/>
		<ellipse fill="blue" cx="275.56863" cy="239.22707" rx="0.40213013" ry="0.40213013"/>
		<ellipse fill="blue" cx="280.62195" cy="225.94379" rx="0.40213013" ry="0.40213013"/>
		<ellipse fill="blue" cx="285.67523" cy="194.48907" rx="0.40213013" ry="0.40213013"/>
		<ellipse fill="blue" cx="290.72852" cy="170.3974" rx="0.40213013" ry="0.40213013"/>
		<ellipse fill="blue" cx="295.7818" cy="149.41888" rx="0.40213013" ry="0.40213013"/>
		<ellipse fill="blue" cx="300.83508" cy="134.89099" rx="0.40213013" ry="0.40213013"/>
		<ellipse fill="blue" cx="305.8884" cy="155.80939" rx="0.40213013" ry="0.40213013"/>
		<ellipse fill="blue" cx="310.94168" cy="137.73105" rx="0.40213013" ry="0.40213013"/>
		<ellipse fill="blue" cx="315.99496" cy="95.663483" rx="0.40213013" ry="0.4021225"/>
		<ellipse fill="blue" cx="321.04828" cy="99.643585" rx="0.40213013" ry="0.4021225"/>
		<ellipse fill="blue" cx="326.10156" cy="107.10616" rx="0.40213013" ry="0.4021225"/>
		<ellipse fill="blue" cx="331.15485" cy="113.97903" rx="0.40213013" ry="0.4021225"/>
		<ellipse fill="blue" cx="336.20813" cy="132.20097" rx="0.40213013" ry="0.40213013"/>
		<ellipse fill="blue" cx="341.26144" cy="164.15714" rx="0.40213013" ry="0.40213013"/>
		<ellipse fill="blue" cx="346.31473" cy="189.11557" rx="0.40213013" ry="0.40213013"/>
		<ellipse fill="blue" cx="351.36801" cy="214.57071" rx="0.40213013" ry="0.40213013"/>
		<ellipse fill="blue" cx="356.4213" cy="218.82318" rx="0.40213013" ry="0.40213013"/>
		<ellipse fill="blue" cx="361.47461" cy="223.69749" rx="0.40213013" ry="0.40213013"/>
		<ellipse fill="blue" cx="366.52789" cy="234.85556" rx="0.40213013" ry="0.40213013"/>
		<ellipse fill="blue" cx="371.58118" cy="230.00784" rx="0.40213013" ry="0.40213013"/>
		<ellipse fill="blue" cx="376.63449" cy="219.21173" rx="0.40213013" ry="0.40213013"/>
		<ellipse fill="blue" cx="381.68777" cy="192.16608" rx="0.40213013" ry="0.40213013"/>
		<ellipse fill="blue" cx="386.74106" cy="180.24658" rx="0.40213013" ry="0.40213013"/>
		<ellipse fill="blue" cx="391.79434" cy="184.27631" rx="0.40213013" ry="0.40213013"/>
		<ellipse fill="blue" cx="396.84766" cy="186.82428" rx="0.40213013" ry="0.40213013"/>
		<ellipse fill="blue" cx="401.90094" cy="166.87527" rx="0.40213013" ry="0.40213013"/>
		<ellipse fill="blue" cx="406.95422" cy="125.6902" rx="0.40213013" ry="0.4021225"/>
		<ellipse fill="blue" cx="412.00751" cy="107.73862" rx="0.40213013" ry="0.4021225"/>
		<ellipse fill="blue" cx="417.06082" cy="90.728195" rx="0.40213013" ry="0.4021225"/>
	</g>
	<path fill="none" stroke="black" stroke-width="1" stroke-miterlimit="4" d="M58.2771 270.039L58.2771 274.039"/>
	<text transform="translate(58.2771 276.039)" font-size="12" font-family="Segoe UI" x="-3.234375, " y="11.027344, ">
			0
	</text>
	<path fill="none" stroke="black" stroke-width="1" stroke-miterlimit="4" d="M83.5435 270.039L83.5435 274.039"/>
	<text transform="translate(83.5435 276.039)" font-size="12" font-family="Segoe UI" x="-3.234375, " y="11.027344, ">
			5
	</text>
	<path fill="none" stroke="black" stroke-width="1" stroke-miterlimit="4" d="M108.81 270.039L108.81 274.039"/>
	<text transform="translate(108.81 276.039)" font-size="12" font-family="Segoe UI" x="-6.46875, 0, " y="11.027344, ">
			10
	</text>
	<path fill="none" stroke="black" stroke-width="1" stroke-miterlimit="4" d="M134.076 270.039L134.076 274.039"/>
	<text transform="translate(134.076 276.039)" font-size="12" font-family="Segoe UI" x="-6.46875, 0, " y="11.027344, ">
			15
	</text>
	<path fill="none" stroke="black" stroke-width="1" stroke-miterlimit="4" d="M159.343 270.039L159.343 274.039"/>
	<text transform="translate(159.343 276.039)" font-size="12" font-family="Segoe UI" x="-6.46875, 0, " y="11.027344, ">
			20
	</text>
	<path fill="none" stroke="black" stroke-width="1" stroke-miterlimit="4" d="M184.609 270.039L184.609 274.039"/>
	<text transform="translate(184.609 276.039)" font-size="12" font-family="Segoe UI" x="-6.46875, 0, " y="11.027344, ">
			25
	</text>
	<path fill="none" stroke="black" stroke-width="1" stroke-miterlimit="4" d="M209.876 270.039L209.876 274.039"/>
	<text transform="translate(209.876 276.039)" font-size="12" font-family="Segoe UI" x="-6.46875, 0, " y="11.027344, ">
			30
	</text>
	<path fill="none" stroke="black" stroke-width="1" stroke-miterlimit="4" d="M235.142 270.039L235.142 274.039"/>
	<text transform="translate(235.142 276.039)" font-size="12" font-family="Segoe UI" x="-6.46875, 0, " y="11.027344, ">
			35
	</text>
	<path fill="none" stroke="black" stroke-width="1" stroke-miterlimit="4" d="M260.409 270.039L260.409 274.039"/>
	<text transform="translate(260.409 276.039)" font-size="12" font-family="Segoe UI" x="-6.46875, 0, " y="11.027344, ">
			40
	</text>
	<path fill="none" stroke="black" stroke-width="1" stroke-miterlimit="4" d="M285.675 270.039L285.675 274.039"/>
	<text transform="translate(285.675 276.039)" font-size="12" font-family="Segoe UI" x="-6.46875, 0, " y="11.027344, ">
			45
	</text>
	<path fill="none" stroke="black" stroke-width="1" stroke-miterlimit="4" d="M310.942 270.039L310.942 274.039"/>
	<text transform="translate(310.942 276.039)" font-size="12" font-family="Segoe UI" x="-6.46875, 0, " y="11.027344, ">
			50
	</text>
	<path fill="none" stroke="black" stroke-width="1" stroke-miterlimit="4" d="M336.208 270.039L336.208 274.039"/>
	<text transform="translate(336.208 276.039)" font-size="12" font-family="Segoe UI" x="-6.46875, 0, " y="11.027344, ">
			55
	</text>
	<path fill="none" stroke="black" stroke-width="1" stroke-miterlimit="4" d="M361.475 270.039L361.475 274.039"/>
	<text transform="translate(361.475 276.039)" font-size="12" font-family="Segoe UI" x="-6.46875, 0, " y="11.027344, ">
			60
	</text>
	<path fill="none" stroke="black" stroke-width="1" stroke-miterlimit="4" d="M386.741 270.039L386.741 274.039"/>
	<text transform="translate(386.741 276.039)" font-size="12" font-family="Segoe UI" x="-6.46875, 0, " y="11.027344, ">
			65
	</text>
	<path fill="none" stroke="black" stroke-width="1" stroke-miterlimit="4" d="M412.008 270.039L412.008 274.039"/>
	<text transform="translate(412.008 276.039)" font-size="12" font-family="Segoe UI" x="-6.46875, 0, " y="11.027344, ">
			70
	</text>
	<path fill="none" stroke="black" stroke-width="1" stroke-miterlimit="4" d="M43.1172 270.039L43.1172 272.039"/>
	<path fill="none" stroke="black" stroke-width="1" stroke-miterlimit="4" d="M48.1705 270.039L48.1705 272.039"/>
	<path fill="none" stroke="black" stroke-width="1" stroke-miterlimit="4" d="M53.2238 270.039L53.2238 272.039"/>
	<path fill="none" stroke="black" stroke-width="1" stroke-miterlimit="4" d="M63.3304 270.039L63.3304 272.039"/>
	<path fill="none" stroke="black" stroke-width="1" stroke-miterlimit="4" d="M68.3837 270.039L68.3837 272.039"/>
	<path fill="none" stroke="black" stroke-width="1" stroke-miterlimit="4" d="M73.437 270.039L73.437 272.039"/>
	<path fill="none" stroke="black" stroke-width="1" stroke-miterlimit="4" d="M78.4902 270.039L78.4902 272.039"/>
	<path fill="none" stroke="black" stroke-width="1" stroke-miterlimit="4" d="M88.5968 270.039L88.5968 272.039"/>
	<path fill="none" stroke="black" stroke-width="1" stroke-miterlimit="4" d="M93.6501 270.039L93.6501 272.039"/>
	<path fill="none" stroke="black" stroke-width="1" stroke-miterlimit="4" d="M98.7034 270.039L98.7034 272.039"/>
	<path fill="none" stroke="black" stroke-width="1" stroke-miterlimit="4" d="M103.757 270.039L103.757 272.039"/>
	<path fill="none" stroke="black" stroke-width="1" stroke-miterlimit="4" d="M113.863 270.039L113.863 272.039"/>
	<path fill="none" stroke="black" stroke-width="1" stroke-miterlimit="4" d="M118.917 270.039L118.917 272.039"/>
	<path fill="none" stroke="black" stroke-width="1" stroke-miterlimit="4" d="M123.97 270.039L123.97 272.039"/>
	<path fill="none" stroke="black" stroke-width="1" stroke-miterlimit="4" d="M129.023 270.039L129.023 272.039"/>
	<path fill="none" stroke="black" stroke-width="1" stroke-miterlimit="4" d="M139.13 270.039L139.13 272.039"/>
	<path fill="none" stroke="black" stroke-width="1" stroke-miterlimit="4" d="M144.183 270.039L144.183 272.039"/>
	<path fill="none" stroke="black" stroke-width="1" stroke-miterlimit="4" d="M149.236 270.039L149.236 272.039"/>
	<path fill="none" stroke="black" stroke-width="1" stroke-miterlimit="4" d="M154.29 270.039L154.29 272.039"/>
	<path fill="none" stroke="black" stroke-width="1" stroke-miterlimit="4" d="M164.396 270.039L164.396 272.039"/>
	<path fill="none" stroke="black" stroke-width="1" stroke-miterlimit="4" d="M169.45 270.039L169.45 272.039"/>
	<path fill="none" stroke="black" stroke-width="1" stroke-miterlimit="4" d="M174.503 270.039L174.503 272.039"/>
	<path fill="none" stroke="black" stroke-width="1" stroke-miterlimit="4" d="M179.556 270.039L179.556 272.039"/>
	<path fill="none" stroke="black" stroke-width="1" stroke-miterlimit="4" d="M189.663 270.039L189.663 272.039"/>
	<path fill="none" stroke="black" stroke-width="1" stroke-miterlimit="4" d="M194.716 270.039L194.716 272.039"/>
	<path fill="none" stroke="black" stroke-width="1" stroke-miterlimit="4" d="M199.769 270.039L199.769 272.039"/>
	<path fill="none" stroke="black" stroke-width="1" stroke-miterlimit="4" d="M204.823 270.039L204.823 272.039"/>
	<path fill="none" stroke="black" stroke-width="1" stroke-miterlimit="4" d="M214.929 270.039L214.929 272.039"/>
	<path fill="none" stroke="black" stroke-width="1" stroke-miterlimit="4" d="M219.982 270.039L219.982 272.039"/>
	<path fill="none" stroke="black" stroke-width="1" stroke-miterlimit="4" d="M225.036 270.039L225.036 272.039"/>
	<path fill="none" stroke="black" stroke-width="1" stroke-miterlimit="4" d="M230.089 270.039L230.089 272.039"/>
	<path fill="none" stroke="black" stroke-width="1" stroke-miterlimit="4" d="M240.196 270.039L240.196 272.039"/>
	<path fill="none" stroke="black" stroke-width="1" stroke-miterlimit="4" d="M245.249 270.039L245.249 272.039"/>
	<path fill="none" stroke="black" stroke-width="1" stroke-miterlimit="4" d="M250.302 270.039L250.302 272.039"/>
	<path fill="none" stroke="black" stroke-width="1" stroke-miterlimit="4" d="M255.355 270.039L255.355 272.039"/>
	<path fill="none" stroke="black" stroke-width="1" stroke-miterlimit="4" d="M265.462 270.039L265.462 272.039"/>
	<path fill="none" stroke="black" stroke-width="1" stroke-miterlimit="4" d="M270.515 270.039L270.515 272.039"/>
	<path fill="none" stroke="black" stroke-width="1" stroke-miterlimit="4" d="M275.569 270.039L275.569 272.039"/>
	<path fill="none" stroke="black" stroke-width="1" stroke-miterlimit="4" d="M280.622 270.039L280.622 272.039"/>
	<path fill="none" stroke="black" stroke-width="1" stroke-miterlimit="4" d="M290.729 270.039L290.729 272.039"/>
	<path fill="none" stroke="black" stroke-width="1" stroke-miterlimit="4" d="M295.782 270.039L295.782 272.039"/>
	<path fill="none" stroke="black" stroke-width="1" stroke-miterlimit="4" d="M300.835 270.039L300.835 272.039"/>
	<path fill="none" stroke="black" stroke-width="1" stroke-miterlimit="4" d="M305.888 270.039L305.888 272.039"/>
	<path fill="none" stroke="black" stroke-width="1" stroke-miterlimit="4" d="M315.995 270.039L315.995 272.039"/>
	<path fill="none" stroke="black" stroke-width="1" stroke-miterlimit="4" d="M321.048 270.039L321.048 272.039"/>
	<path fill="none" stroke="black" stroke-width="1" stroke-miterlimit="4" d="M326.102 270.039L326.102 272.039"/>
	<path fill="none" stroke="black" stroke-width="1" stroke-miterlimit="4" d="M331.155 270.039L331.155 272.039"/>
	<path fill="none" stroke="black" stroke-width="1" stroke-miterlimit="4" d="M341.261 270.039L341.261 272.039"/>
	<path fill="none" stroke="black" stroke-width="1" stroke-miterlimit="4" d="M346.315 270.039L346.315 272.039"/>
	<path fill="none" stroke="black" stroke-width="1" stroke-miterlimit="4" d="M351.368 270.039L351.368 272.039"/>
	<path fill="none" stroke="black" stroke-width="1" stroke-miterlimit="4" d="M356.421 270.039L356.421 272.039"/>
	<path fill="none" stroke="black" stroke-width="1" stroke-miterlimit="4" d="M366.528 270.039L366.528 272.039"/>
	<path fill="none" stroke="black" stroke-width="1" stroke-miterlimit="4" d="M371.581 270.039L371.581 272.039"/>
	<path fill="none" stroke="black" stroke-width="1" stroke-miterlimit="4" d="M376.634 270.039L376.634 272.039"/>
	<path fill="none" stroke="black" stroke-width="1" stroke-miterlimit="4" d="M381.688 270.039L381.688 272.039"/>
	<path fill="none" stroke="black" stroke-width="1" stroke-miterlimit="4" d="M391.794 270.039L391.794 272.039"/>
	<path fill="none" stroke="black" stroke-width="1" stroke-miterlimit="4" d="M396.848 270.039L396.848 272.039"/>
	<path fill="none" stroke="black" stroke-width="1" stroke-miterlimit="4" d="M401.901 270.039L401.901 272.039"/>
	<path fill="none" stroke="black" stroke-width="1" stroke-miterlimit="4" d="M406.954 270.039L406.954 272.039"/>
	<path fill="none" stroke="black" stroke-width="1" stroke-miterlimit="4" d="M417.061 270.039L417.061 272.039"/>
	<path fill="none" stroke="black" stroke-width="1" stroke-miterlimit="4" d="M422.114 270.039L422.114 272.039"/>
	<path fill="none" stroke="black" stroke-width="1" stroke-miterlimit="4" d="M427.167 270.039L427.167 272.039"/>
	<path fill="none" stroke="black" stroke-width="1" stroke-miterlimit="4" d="M432.221 270.039L432.221 272.039"/>
	<path fill="none" stroke="black" stroke-width="1" stroke-miterlimit="4" d="M40.3379 270.039L435 270.039"/>
	<path fill="none" stroke="black" stroke-width="1" stroke-miterlimit="4" d="M40.3379 46.3812L435 46.3812"/>
	<path fill="none" stroke="black" stroke-width="1" stroke-miterlimit="4" d="M40.3379 264.922L36.3379 264.922"/>
	<text transform="translate(31.3379 264.922)" font-size="12" font-family="Segoe UI" x="-20.337891, -15.539063, -9.0703125, -6.46875, " y="3.046875, ">
			-1.5
	</text>
	<path fill="none" stroke="black" stroke-width="1" stroke-miterlimit="4" d="M40.3379 233.336L36.3379 233.336"/>
	<text transform="translate(31.3379 233.336)" font-size="12" font-family="Segoe UI" x="-11.267578, -6.46875, " y="3.046875, ">
			-1
	</text>
	<path fill="none" stroke="black" stroke-width="1" stroke-miterlimit="4" d="M40.3379 201.749L36.3379 201.749"/>
	<text transform="translate(31.3379 201.749)" font-size="12" font-family="Segoe UI" x="-20.337891, -15.539063, -9.0703125, -6.46875, " y="3.046875, ">
			-0.5
	</text>
	<path fill="none" stroke="black" stroke-width="1" stroke-miterlimit="4" d="M40.3379 170.163L36.3379 170.163"/>
	<text transform="translate(31.3379 170.163)" font-size="12" font-family="Segoe UI" x="-6.46875, " y="3.046875, ">
			0
	</text>
	<path fill="none" stroke="black" stroke-width="1" stroke-miterlimit="4" d="M40.3379 138.577L36.3379 138.577"/>
	<text transform="translate(31.3379 138.577)" font-size="12" font-family="Segoe UI" x="-15.539063, -9.0703125, -6.46875, " y="3.046875, ">
			0.5
	</text>
	<path fill="none" stroke="black" stroke-width="1" stroke-miterlimit="4" d="M40.3379 106.99L36.3379 106.99"/>
	<text transform="translate(31.3379 106.99)" font-size="12" font-family="Segoe UI" x="-6.46875, " y="3.046875, ">
			1
	</text>
	<path fill="none" stroke="black" stroke-width="1" stroke-miterlimit="4" d="M40.3379 75.4039L36.3379 75.4039"/>
	<text transform="translate(31.3379 75.4039)" font-size="12" font-family="Segoe UI" x="-15.539063, -9.0703125, -6.46875, " y="3.046875, ">
			1.5
	</text>
	<path fill="none" stroke="black" stroke-width="1" stroke-miterlimit="4" d="M40.3379 258.605L38.3379 258.605"/>
	<path fill="none" stroke="black" stroke-width="1" stroke-miterlimit="4" d="M40.3379 252.288L38.3379 252.288"/>
	<path fill="none" stroke="black" stroke-width="1" stroke-miterlimit="4" d="M40.3379 245.97L38.3379 245.97"/>
	<path fill="none" stroke="black" stroke-width="1" stroke-miterlimit="4" d="M40.3379 239.653L38.3379 239.653"/>
	<path fill="none" stroke="black" stroke-width="1" stroke-miterlimit="4" d="M40.3379 227.018L38.3379 227.018"/>
	<path fill="none" stroke="black" stroke-width="1" stroke-miterlimit="4" d="M40.3379 220.701L38.3379 220.701"/>
	<path fill="none" stroke="black" stroke-width="1" stroke-miterlimit="4" d="M40.3379 214.384L38.3379 214.384"/>
	<path fill="none" stroke="black" stroke-width="1" stroke-miterlimit="4" d="M40.3379 208.067L38.3379 208.067"/>
	<path fill="none" stroke="black" stroke-width="1" stroke-miterlimit="4" d="M40.3379 195.432L38.3379 195.432"/>
	<path fill="none" stroke="black" stroke-width="1" stroke-miterlimit="4" d="M40.3379 189.115L38.3379 189.115"/>
	<path fill="none" stroke="black" stroke-width="1" stroke-miterlimit="4" d="M40.3379 182.798L38.3379 182.798"/>
	<path fill="none" stroke="black" stroke-width="1" stroke-miterlimit="4" d="M40.3379 176.48L38.3379 176.48"/>
	<path fill="none" stroke="black" stroke-width="1" stroke-miterlimit="4" d="M40.3379 163.846L38.3379 163.846"/>
	<path fill="none" stroke="black" stroke-width="1" stroke-miterlimit="4" d="M40.3379 157.528L38.3379 157.528"/>
	<path fill="none" stroke="black" stroke-width="1" stroke-miterlimit="4" d="M40.3379 151.211L38.3379 151.211"/>
	<path fill="none" stroke="black" stroke-width="1" stroke-miterlimit="4" d="M40.3379 144.894L38.3379 144.894"/>
	<path fill="none" stroke="black" stroke-width="1" stroke-miterlimit="4" d="M40.3379 132.259L38.3379 132.259"/>
	<path fill="none" stroke="black" stroke-width="1" stroke-miterlimit="4" d="M40.3379 125.942L38.3379 125.942"/>
	<path fill="none" stroke="black" stroke-width="1" stroke-miterlimit="4" d="M40.3379 119.625L38.3379 119.625"/>
	<path fill="none" stroke="black" stroke-width="1" stroke-miterlimit="4" d="M40.3379 113.308L38.3379 113.308"/>
	<path fill="none" stroke="black" stroke-width="1" stroke-miterlimit="4" d="M40.3379 100.673L38.3379 100.673"/>
	<path fill="none" stroke="black" stroke-width="1" stroke-miterlimit="4" d="M40.3379 94.3557L38.3379 94.3557"/>
	<path fill="none" stroke="black" stroke-width="1" stroke-miterlimit="4" d="M40.3379 88.0384L38.3379 88.0384"/>
	<path fill="none" stroke="black" stroke-width="1" stroke-miterlimit="4" d="M40.3379 81.7211L38.3379 81.7211"/>
	<path fill="none" stroke="black" stroke-width="1" stroke-miterlimit="4" d="M40.3379 69.0866L38.3379 69.0866"/>
	<path fill="none" stroke="black" stroke-width="1" stroke-miterlimit="4" d="M40.3379 62.7693L38.3379 62.7693"/>
	<path fill="none" stroke="black" stroke-width="1" stroke-miterlimit="4" d="M40.3379 56.4521L38.3379 56.4521"/>
	<path fill="none" stroke="black" stroke-width="1" stroke-miterlimit="4" d="M40.3379 50.1348L38.3379 50.1348"/>
	<path fill="none" stroke="black" stroke-width="1" stroke-miterlimit="4" d="M40.3379 270.039L40.3379 46.2813"/>
	<path fill="none" stroke="black" stroke-width="1" stroke-miterlimit="4" d="M435 270.039L435 46.2813"/>
	<text transform="translate(237.669 31.2813)" font-size="16" font-weight="600" font-family="Segoe UI" x="-147.33203, -137.34766, -127.71484, -123.16797, -116.80078, -106.87891, -95.503906, -91.089844, -84.621094, -80.207031, -68.957031, -60.636719, -55.566406, -45.121094, -29.808594, -18.558594, -12.652344, -3.4492188, 0.88671875, 5.3007813, 14.503906, 18.839844, 23.253906, 33.511719, 38.058594, 46.667969, 54.347656, 63.292969, 77.949219, 86.558594, 96.238281, 108.49609, 117.10547, 123.47266, 129.83984, 134.38672, 141.42578, " y="-6.890625, ">
			ChirpG - AFIRMA(6, 6, BlackmanHarris)
	</text>
</svg>
