<?xml version="1.0" encoding="utf-8" ?>
<svg xmlns="http://www.w3.org/2000/svg" xmlns:xlink="http://www.w3.org/1999/xlink" width="450" height="300">
	<rect fill="white" width="450" height="300"/>
	<path fill="none" stroke="#010101" stroke-width="1" stroke-miterlimit="4" stroke-opacity="0.098039217" d="M58.2771 270.039L58.2771 46.2813M83.5435 270.039L83.5435 46.2813M108.81 270.039L108.81 46.2813M134.076 270.039L134.076 46.2813M159.343 270.039L159.343 46.2813M184.609 270.039L184.609 46.2813M209.876 270.039L209.876 46.2813M235.142 270.039L235.142 46.2813M260.409 270.039L260.409 46.2813M285.675 270.039L285.675 46.2813M310.942 270.039L310.942 46.2813M336.208 270.039L336.208 46.2813M361.475 270.039L361.475 46.2813M386.741 270.039L386.741 46.2813M412.008 270.039L412.008 46.2813"/>
	<path fill="none" stroke="#010101" stroke-width="1" stroke-miterlimit="4" stroke-opacity="0.098039217" d="M40.3379 259.917L435 259.917M40.3379 227.522L435 227.522M40.3379 195.127L435 195.127M40.3379 162.732L435 162.732M40.3379 130.337L435 130.337M40.3379 97.9418L435 97.9418M40.3379 65.5467L435 65.5467"/>
	<clipPath id="cl_bb">
		<rect x="40.337891" y="46.28125" width="394.66211" height="223.75781"/>
	</clipPath>
	<g clip-path="url(#cl_bb)">
		<path fill="none" stroke="red" stroke-width="2" stroke-miterlimit="4" d="M58.2771 175.69L58.2771 175.69L63.3304 149.774L68.3837 175.69L73.437 149.774L78.4902 175.69L83.5435 162.732L88.5968 162.732L93.6501 124.506L98.7034 108.956L103.757 114.787L108.81 130.337L113.863 103.773L118.917 74.6173L123.97 102.477L129.023 106.365L134.076 123.858L139.13 138.112L144.183 112.196L149.236 128.393L154.29 135.52L159.343 153.661L164.396 162.084L169.45 191.888L174.503 208.733L179.556 226.874L184.609 227.522L189.663 250.847L194.716 241.776L199.769 232.058L204.823 238.537L209.876 199.015L214.929 224.283L219.982 234.649L225.036 173.098L230.089 151.07L235.142 180.873L240.196 121.266L245.249 195.127L250.302 147.182L255.355 133.576L260.409 119.323L265.462 116.083L270.515 88.2233L275.569 64.2509L280.622 79.8005L285.675 73.3215L290.729 95.9981L295.782 193.183L300.835 100.533L305.888 120.618L310.942 144.591L315.995 143.295L321.048 151.718L326.102 167.267L331.155 206.141L336.208 195.775L341.261 248.903L346.315 184.113L351.368 249.551L356.421 213.268L361.475 241.128L366.528 206.789L371.581 190.592L376.634 199.015L381.688 219.1L386.741 222.987L391.794 188.648L396.848 129.041L401.901 156.253L406.954 86.2796L412.008 86.2796L417.061 75.2652"/>
		<ellipse fill="red" cx="58.277077" cy="175.69008" rx="0.40212631" ry="0.40213013"/>
		<ellipse fill="red" cx="63.330368" cy="149.77399" rx="0.40212631" ry="0.40213013"/>
		<ellipse fill="red" cx="68.383659" cy="175.69008" rx="0.4021225" ry="0.40213013"/>
		<ellipse fill="red" cx="73.436951" cy="149.77399" rx="0.4021225" ry="0.40213013"/>
		<ellipse fill="red" cx="78.49025" cy="175.69008" rx="0.4021225" ry="0.40213013"/>
		<ellipse fill="red" cx="83.543533" cy="162.73203" rx="0.4021225" ry="0.40213013"/>
		<ellipse fill="red" cx="88.596832" cy="162.73203" rx="0.4021225" ry="0.40213013"/>
		<ellipse fill="red" cx="93.650124" cy="124.5058" rx="0.4021225" ry="0.4021225"/>
		<ellipse fill="red" cx="98.703415" cy="108.95613" rx="0.4021225" ry="0.4021225"/>
		<ellipse fill="red" cx="103.75671" cy="114.78726" rx="0.4021225" ry="0.4021225"/>
		<ellipse fill="red" cx="108.81" cy="130.33691" rx="0.4021225" ry="0.40213013"/>
		<ellipse fill="red" cx="113.86329" cy="103.77292" rx="0.4021225" ry="0.4021225"/>
		<ellipse fill="red" cx="118.91658" cy="74.61731" rx="0.4021225" ry="0.4021225"/>
		<ellipse fill="red" cx="123.96987" cy="102.47711" rx="0.4021225" ry="0.4021225"/>
		<ellipse fill="red" cx="129.02316" cy="106.36453" rx="0.40213013" ry="0.4021225"/>
		<ellipse fill="red" cx="134.07646" cy="123.85789" rx="0.40213013" ry="0.4021225"/>
		<ellipse fill="red" cx="139.12976" cy="138.11174" rx="0.40213013" ry="0.40213013"/>
		<ellipse fill="red" cx="144.18304" cy="112.19565" rx="0.40213013" ry="0.4021225"/>
		<ellipse fill="red" cx="149.23633" cy="128.3932" rx="0.40213013" ry="0.40212631"/>
		<ellipse fill="red" cx="154.28963" cy="135.52013" rx="0.40213013" ry="0.40213013"/>
		<ellipse fill="red" cx="159.34293" cy="153.66141" rx="0.40213013" ry="0.40213013"/>
		<ellipse fill="red" cx="164.39621" cy="162.08414" rx="0.40213013" ry="0.40213013"/>
		<ellipse fill="red" cx="169.44951" cy="191.88763" rx="0.40213013" ry="0.40213013"/>
		<ellipse fill="red" cx="174.50279" cy="208.73311" rx="0.40213013" ry="0.40213013"/>
		<ellipse fill="red" cx="179.55609" cy="226.87437" rx="0.40213013" ry="0.40213013"/>
		<ellipse fill="red" cx="184.60938" cy="227.52228" rx="0.40213013" ry="0.40213013"/>
		<ellipse fill="red" cx="189.66267" cy="250.84676" rx="0.40213013" ry="0.40213013"/>
		<ellipse fill="red" cx="194.71596" cy="241.77612" rx="0.40213013" ry="0.40213013"/>
		<ellipse fill="red" cx="199.76926" cy="232.05759" rx="0.40213013" ry="0.40213013"/>
		<ellipse fill="red" cx="204.82254" cy="238.53662" rx="0.40213013" ry="0.40213013"/>
		<ellipse fill="red" cx="209.87584" cy="199.01456" rx="0.40213013" ry="0.40213013"/>
		<ellipse fill="red" cx="214.92914" cy="224.28276" rx="0.40213013" ry="0.40213013"/>
		<ellipse fill="red" cx="219.98242" cy="234.6492" rx="0.40213013" ry="0.40213013"/>
		<ellipse fill="red" cx="225.03572" cy="173.09848" rx="0.40213013" ry="0.40213013"/>
		<ellipse fill="red" cx="230.089" cy="151.06979" rx="0.40213013" ry="0.40213013"/>
		<ellipse fill="red" cx="235.1423" cy="180.87329" rx="0.40213013" ry="0.40213013"/>
		<ellipse fill="red" cx="240.19559" cy="121.26628" rx="0.40213013" ry="0.4021225"/>
		<ellipse fill="red" cx="245.24889" cy="195.12715" rx="0.40213013" ry="0.40213013"/>
		<ellipse fill="red" cx="250.30217" cy="147.18237" rx="0.40213013" ry="0.40213013"/>
		<ellipse fill="red" cx="255.35547" cy="133.57643" rx="0.40213013" ry="0.40213013"/>
		<ellipse fill="red" cx="260.40875" cy="119.32257" rx="0.40213013" ry="0.4021225"/>
		<ellipse fill="red" cx="265.46204" cy="116.08307" rx="0.40213013" ry="0.4021225"/>
		<ellipse fill="red" cx="270.51535" cy="88.223267" rx="0.40213013" ry="0.4021225"/>
		<ellipse fill="red" cx="275.56863" cy="64.25087" rx="0.40213013" ry="0.4021244"/>
		<ellipse fill="red" cx="280.62195" cy="79.800522" rx="0.40213013" ry="0.4021225"/>
		<ellipse fill="red" cx="285.67523" cy="73.321503" rx="0.40213013" ry="0.4021225"/>
		<ellipse fill="red" cx="290.72852" cy="95.998093" rx="0.40213013" ry="0.4021225"/>
		<ellipse fill="red" cx="295.7818" cy="193.18344" rx="0.40213013" ry="0.40213013"/>
		<ellipse fill="red" cx="300.83508" cy="100.5334" rx="0.40213013" ry="0.4021225"/>
		<ellipse fill="red" cx="305.8884" cy="120.61838" rx="0.40213013" ry="0.4021225"/>
		<ellipse fill="red" cx="310.94168" cy="144.59076" rx="0.40213013" ry="0.40213013"/>
		<ellipse fill="red" cx="315.99496" cy="143.29495" rx="0.40213013" ry="0.40213013"/>
		<ellipse fill="red" cx="321.04828" cy="151.7177" rx="0.40213013" ry="0.40213013"/>
		<ellipse fill="red" cx="326.10156" cy="167.26735" rx="0.40213013" ry="0.40213013"/>
		<ellipse fill="red" cx="331.15485" cy="206.14149" rx="0.40213013" ry="0.40213013"/>
		<ellipse fill="red" cx="336.20813" cy="195.77505" rx="0.40213013" ry="0.40213013"/>
		<ellipse fill="red" cx="341.26144" cy="248.90305" rx="0.40213013" ry="0.40213013"/>
		<ellipse fill="red" cx="346.31473" cy="184.11282" rx="0.40213013" ry="0.40213013"/>
		<ellipse fill="red" cx="351.36801" cy="249.55095" rx="0.40213013" ry="0.40213013"/>
		<ellipse fill="red" cx="356.4213" cy="213.26842" rx="0.40213013" ry="0.40213013"/>
		<ellipse fill="red" cx="361.47461" cy="241.12822" rx="0.40213013" ry="0.40213013"/>
		<ellipse fill="red" cx="366.52789" cy="206.7894" rx="0.40213013" ry="0.40213013"/>
		<ellipse fill="red" cx="371.58118" cy="190.59183" rx="0.40213013" ry="0.40213013"/>
		<ellipse fill="red" cx="376.63449" cy="199.01456" rx="0.40213013" ry="0.40213013"/>
		<ellipse fill="red" cx="381.68777" cy="219.09955" rx="0.40213013" ry="0.40213013"/>
		<ellipse fill="red" cx="386.74106" cy="222.98695" rx="0.40213013" ry="0.40213013"/>
		<ellipse fill="red" cx="391.79434" cy="188.64813" rx="0.40213013" ry="0.40213013"/>
		<ellipse fill="red" cx="396.84766" cy="129.04111" rx="0.40213013" ry="0.40213013"/>
		<ellipse fill="red" cx="401.90094" cy="156.25302" rx="0.40213013" ry="0.40213013"/>
		<ellipse fill="red" cx="406.95422" cy="86.279556" rx="0.40213013" ry="0.4021225"/>
		<ellipse fill="red" cx="412.00751" cy="86.279556" rx="0.40213013" ry="0.4021225"/>
		<ellipse fill="red" cx="417.06082" cy="75.265213" rx="0.40213013" ry="0.4021225"/>
	</g>
	<clipPath id="cl_bc">
		<rect x="40.337891" y="46.28125" width="394.66211" height="223.75781"/>
	</clipPath>
	<g clip-path="url(#cl_bc)">
		<path fill="none" stroke="blue" stroke-width="4" stroke-miterlimit="4" d="M58.2771 166.344L58.2771 166.344L63.3304 159.274L68.3837 166.32L73.437 159.264L78.4902 166.302L83.5435 165.128L88.5968 164.293L93.6501 146.394L98.7034 127.524L103.757 117.98L108.81 119.26L113.863 108.716L118.917 89.0997L123.97 89.3964L129.023 92.2306L134.076 102.786L139.13 116.836L144.183 114.772L149.236 120.841L154.29 128.189L159.343 141.243L164.396 153.546L169.45 174.82L174.503 195.993L179.556 217.396L184.609 230.785L189.663 248.912L194.716 255.446L199.769 253.895L204.823 254.4L209.876 235.649L214.929 233.626L219.982 236.347L225.036 209.795L230.089 181.815L235.142 176.829L240.196 147.055L245.249 161.315L250.302 149.999L255.355 136.997L260.409 122.704L265.462 112.671L270.515 94.446L275.569 72.6165L280.622 66.451L285.675 60.8741L290.729 68.8028L295.782 119.277L300.835 111.708L305.888 115.855L310.942 129.595L315.995 138.143L321.048 147.415L326.102 160.259L331.155 185.887L336.208 197.523L341.261 228.284L346.315 218.26L351.368 239.821L356.421 236.556L361.475 245.688L366.528 235.082L371.581 219.632L376.634 212.425L381.688 216.289L386.741 220.322L391.794 207.16L396.848 171.196L401.901 159.696L406.954 120.992L412.008 96.1036L417.061 75.9097"/>
		<ellipse fill="blue" cx="58.277077" cy="166.34406" rx="0.40212631" ry="0.40213013"/>
		<ellipse fill="blue" cx="63.330368" cy="159.27362" rx="0.40212631" ry="0.40213013"/>
		<ellipse fill="blue" cx="68.383659" cy="166.32045" rx="0.4021225" ry="0.40213013"/>
		<ellipse fill="blue" cx="73.436951" cy="159.26422" rx="0.4021225" ry="0.40213013"/>
		<ellipse fill="blue" cx="78.49025" cy="166.302" rx="0.4021225" ry="0.40213013"/>
		<ellipse fill="blue" cx="83.543533" cy="165.12796" rx="0.4021225" ry="0.40213013"/>
		<ellipse fill="blue" cx="88.596832" cy="164.29257" rx="0.4021225" ry="0.40213013"/>
		<ellipse fill="blue" cx="93.650124" cy="146.39377" rx="0.4021225" ry="0.40213013"/>
		<ellipse fill="blue" cx="98.703415" cy="127.52426" rx="0.4021225" ry="0.4021225"/>
		<ellipse fill="blue" cx="103.75671" cy="117.98048" rx="0.4021225" ry="0.4021225"/>
		<ellipse fill="blue" cx="108.81" cy="119.26025" rx="0.4021225" ry="0.4021225"/>
		<ellipse fill="blue" cx="113.86329" cy="108.71579" rx="0.4021225" ry="0.4021225"/>
		<ellipse fill="blue" cx="118.91658" cy="89.099701" rx="0.4021225" ry="0.4021225"/>
		<ellipse fill="blue" cx="123.96987" cy="89.396393" rx="0.4021225" ry="0.4021225"/>
		<ellipse fill="blue" cx="129.02316" cy="92.23056" rx="0.40213013" ry="0.4021225"/>
		<ellipse fill="blue" cx="134.07646" cy="102.78625" rx="0.40213013" ry="0.4021225"/>
		<ellipse fill="blue" cx="139.12976" cy="116.8358" rx="0.40213013" ry="0.4021225"/>
		<ellipse fill="blue" cx="144.18304" cy="114.77245" rx="0.40213013" ry="0.4021225"/>
		<ellipse fill="blue" cx="149.23633" cy="120.84132" rx="0.40213013" ry="0.4021225"/>
		<ellipse fill="blue" cx="154.28963" cy="128.1888" rx="0.40213013" ry="0.40212631"/>
		<ellipse fill="blue" cx="159.34293" cy="141.24348" rx="0.40213013" ry="0.40213013"/>
		<ellipse fill="blue" cx="164.39621" cy="153.54578" rx="0.40213013" ry="0.40213013"/>
		<ellipse fill="blue" cx="169.44951" cy="174.82016" rx="0.40213013" ry="0.40213013"/>
		<ellipse fill="blue" cx="174.50279" cy="195.99316" rx="0.40213013" ry="0.40213013"/>
		<ellipse fill="blue" cx="179.55609" cy="217.39615" rx="0.40213013" ry="0.40213013"/>
		<ellipse fill="blue" cx="184.60938" cy="230.7854" rx="0.40213013" ry="0.40213013"/>
		<ellipse fill="blue" cx="189.66267" cy="248.91228" rx="0.40213013" ry="0.40213013"/>
		<ellipse fill="blue" cx="194.71596" cy="255.44617" rx="0.40213013" ry="0.40213013"/>
		<ellipse fill="blue" cx="199.76926" cy="253.89542" rx="0.40213013" ry="0.40213013"/>
		<ellipse fill="blue" cx="204.82254" cy="254.39977" rx="0.40213013" ry="0.40213013"/>
		<ellipse fill="blue" cx="209.87584" cy="235.64891" rx="0.40213013" ry="0.40213013"/>
		<ellipse fill="blue" cx="214.92914" cy="233.62585" rx="0.40213013" ry="0.40213013"/>
		<ellipse fill="blue" cx="219.98242" cy="236.34705" rx="0.40213013" ry="0.40213013"/>
		<ellipse fill="blue" cx="225.03572" cy="209.79503" rx="0.40213013" ry="0.40213013"/>
		<ellipse fill="blue" cx="230.089" cy="181.81471" rx="0.40213013" ry="0.40213013"/>
		<ellipse fill="blue" cx="235.1423" cy="176.82941" rx="0.40213013" ry="0.40213013"/>
		<ellipse fill="blue" cx="240.19559" cy="147.05505" rx="0.40213013" ry="0.40213013"/>
		<ellipse fill="blue" cx="245.24889" cy="161.31519" rx="0.40213013" ry="0.40213013"/>
		<ellipse fill="blue" cx="250.30217" cy="149.99907" rx="0.40213013" ry="0.40213013"/>
		<ellipse fill="blue" cx="255.35547" cy="136.99666" rx="0.40213013" ry="0.40213013"/>
		<ellipse fill="blue" cx="260.40875" cy="122.70444" rx="0.40213013" ry="0.4021225"/>
		<ellipse fill="blue" cx="265.46204" cy="112.6705" rx="0.40213013" ry="0.4021225"/>
		<ellipse fill="blue" cx="270.51535" cy="94.445953" rx="0.40213013" ry="0.4021225"/>
		<ellipse fill="blue" cx="275.56863" cy="72.61647" rx="0.40213013" ry="0.4021225"/>
		<ellipse fill="blue" cx="280.62195" cy="66.450974" rx="0.40213013" ry="0.4021225"/>
		<ellipse fill="blue" cx="285.67523" cy="60.874146" rx="0.40213013" ry="0.40212631"/>
		<ellipse fill="blue" cx="290.72852" cy="68.80278" rx="0.40213013" ry="0.4021225"/>
		<ellipse fill="blue" cx="295.7818" cy="119.27693" rx="0.40213013" ry="0.4021225"/>
		<ellipse fill="blue" cx="300.83508" cy="111.70787" rx="0.40213013" ry="0.4021225"/>
		<ellipse fill="blue" cx="305.8884" cy="115.85497" rx="0.40213013" ry="0.4021225"/>
		<ellipse fill="blue" cx="310.94168" cy="129.59502" rx="0.40213013" ry="0.40213013"/>
		<ellipse fill="blue" cx="315.99496" cy="138.1425" rx="0.40213013" ry="0.40213013"/>
		<ellipse fill="blue" cx="321.04828" cy="147.4147" rx="0.40213013" ry="0.40213013"/>
		<ellipse fill="blue" cx="326.10156" cy="160.25912" rx="0.40213013" ry="0.40213013"/>
		<ellipse fill="blue" cx="331.15485" cy="185.88742" rx="0.40213013" ry="0.40213013"/>
		<ellipse fill="blue" cx="336.20813" cy="197.52261" rx="0.40213013" ry="0.40213013"/>
		<ellipse fill="blue" cx="341.26144" cy="228.28366" rx="0.40213013" ry="0.40213013"/>
		<ellipse fill="blue" cx="346.31473" cy="218.25993" rx="0.40213013" ry="0.40213013"/>
		<ellipse fill="blue" cx="351.36801" cy="239.82097" rx="0.40213013" ry="0.40213013"/>
		<ellipse fill="blue" cx="356.4213" cy="236.55632" rx="0.40213013" ry="0.40213013"/>
		<ellipse fill="blue" cx="361.47461" cy="245.68791" rx="0.40213013" ry="0.40213013"/>
		<ellipse fill="blue" cx="366.52789" cy="235.08192" rx="0.40213013" ry="0.40213013"/>
		<ellipse fill="blue" cx="371.58118" cy="219.6322" rx="0.40213013" ry="0.40213013"/>
		<ellipse fill="blue" cx="376.63449" cy="212.42534" rx="0.40213013" ry="0.40213013"/>
		<ellipse fill="blue" cx="381.68777" cy="216.28946" rx="0.40213013" ry="0.40213013"/>
		<ellipse fill="blue" cx="386.74106" cy="220.32182" rx="0.40213013" ry="0.40213013"/>
		<ellipse fill="blue" cx="391.79434" cy="207.16029" rx="0.40213013" ry="0.40213013"/>
		<ellipse fill="blue" cx="396.84766" cy="171.19601" rx="0.40213013" ry="0.40213013"/>
		<ellipse fill="blue" cx="401.90094" cy="159.69606" rx="0.40213013" ry="0.40213013"/>
		<ellipse fill="blue" cx="406.95422" cy="120.99243" rx="0.40213013" ry="0.4021225"/>
		<ellipse fill="blue" cx="412.00751" cy="96.103638" rx="0.40213013" ry="0.4021225"/>
		<ellipse fill="blue" cx="417.06082" cy="75.909729" rx="0.40213013" ry="0.4021225"/>
	</g>
	<path fill="none" stroke="black" stroke-width="1" stroke-miterlimit="4" d="M58.2771 270.039L58.2771 274.039"/>
	<text transform="translate(58.2771 276.039)" font-size="12" font-family="Segoe UI" x="-3.234375, " y="11.027344, ">
			0
	</text>
	<path fill="none" stroke="black" stroke-width="1" stroke-miterlimit="4" d="M83.5435 270.039L83.5435 274.039"/>
	<text transform="translate(83.5435 276.039)" font-size="12" font-family="Segoe UI" x="-3.234375, " y="11.027344, ">
			5
	</text>
	<path fill="none" stroke="black" stroke-width="1" stroke-miterlimit="4" d="M108.81 270.039L108.81 274.039"/>
	<text transform="translate(108.81 276.039)" font-size="12" font-family="Segoe UI" x="-6.46875, 0, " y="11.027344, ">
			10
	</text>
	<path fill="none" stroke="black" stroke-width="1" stroke-miterlimit="4" d="M134.076 270.039L134.076 274.039"/>
	<text transform="translate(134.076 276.039)" font-size="12" font-family="Segoe UI" x="-6.46875, 0, " y="11.027344, ">
			15
	</text>
	<path fill="none" stroke="black" stroke-width="1" stroke-miterlimit="4" d="M159.343 270.039L159.343 274.039"/>
	<text transform="translate(159.343 276.039)" font-size="12" font-family="Segoe UI" x="-6.46875, 0, " y="11.027344, ">
			20
	</text>
	<path fill="none" stroke="black" stroke-width="1" stroke-miterlimit="4" d="M184.609 270.039L184.609 274.039"/>
	<text transform="translate(184.609 276.039)" font-size="12" font-family="Segoe UI" x="-6.46875, 0, " y="11.027344, ">
			25
	</text>
	<path fill="none" stroke="black" stroke-width="1" stroke-miterlimit="4" d="M209.876 270.039L209.876 274.039"/>
	<text transform="translate(209.876 276.039)" font-size="12" font-family="Segoe UI" x="-6.46875, 0, " y="11.027344, ">
			30
	</text>
	<path fill="none" stroke="black" stroke-width="1" stroke-miterlimit="4" d="M235.142 270.039L235.142 274.039"/>
	<text transform="translate(235.142 276.039)" font-size="12" font-family="Segoe UI" x="-6.46875, 0, " y="11.027344, ">
			35
	</text>
	<path fill="none" stroke="black" stroke-width="1" stroke-miterlimit="4" d="M260.409 270.039L260.409 274.039"/>
	<text transform="translate(260.409 276.039)" font-size="12" font-family="Segoe UI" x="-6.46875, 0, " y="11.027344, ">
			40
	</text>
	<path fill="none" stroke="black" stroke-width="1" stroke-miterlimit="4" d="M285.675 270.039L285.675 274.039"/>
	<text transform="translate(285.675 276.039)" font-size="12" font-family="Segoe UI" x="-6.46875, 0, " y="11.027344, ">
			45
	</text>
	<path fill="none" stroke="black" stroke-width="1" stroke-miterlimit="4" d="M310.942 270.039L310.942 274.039"/>
	<text transform="translate(310.942 276.039)" font-size="12" font-family="Segoe UI" x="-6.46875, 0, " y="11.027344, ">
			50
	</text>
	<path fill="none" stroke="black" stroke-width="1" stroke-miterlimit="4" d="M336.208 270.039L336.208 274.039"/>
	<text transform="translate(336.208 276.039)" font-size="12" font-family="Segoe UI" x="-6.46875, 0, " y="11.027344, ">
			55
	</text>
	<path fill="none" stroke="black" stroke-width="1" stroke-miterlimit="4" d="M361.475 270.039L361.475 274.039"/>
	<text transform="translate(361.475 276.039)" font-size="12" font-family="Segoe UI" x="-6.46875, 0, " y="11.027344, ">
			60
	</text>
	<path fill="none" stroke="black" stroke-width="1" stroke-miterlimit="4" d="M386.741 270.039L386.741 274.039"/>
	<text transform="translate(386.741 276.039)" font-size="12" font-family="Segoe UI" x="-6.46875, 0, " y="11.027344, ">
			65
	</text>
	<path fill="none" stroke="black" stroke-width="1" stroke-miterlimit="4" d="M412.008 270.039L412.008 274.039"/>
	<text transform="translate(412.008 276.039)" font-size="12" font-family="Segoe UI" x="-6.46875, 0, " y="11.027344, ">
			70
	</text>
	<path fill="none" stroke="black" stroke-width="1" stroke-miterlimit="4" d="M43.1172 270.039L43.1172 272.039"/>
	<path fill="none" stroke="black" stroke-width="1" stroke-miterlimit="4" d="M48.1705 270.039L48.1705 272.039"/>
	<path fill="none" stroke="black" stroke-width="1" stroke-miterlimit="4" d="M53.2238 270.039L53.2238 272.039"/>
	<path fill="none" stroke="black" stroke-width="1" stroke-miterlimit="4" d="M63.3304 270.039L63.3304 272.039"/>
	<path fill="none" stroke="black" stroke-width="1" stroke-miterlimit="4" d="M68.3837 270.039L68.3837 272.039"/>
	<path fill="none" stroke="black" stroke-width="1" stroke-miterlimit="4" d="M73.437 270.039L73.437 272.039"/>
	<path fill="none" stroke="black" stroke-width="1" stroke-miterlimit="4" d="M78.4902 270.039L78.4902 272.039"/>
	<path fill="none" stroke="black" stroke-width="1" stroke-miterlimit="4" d="M88.5968 270.039L88.5968 272.039"/>
	<path fill="none" stroke="black" stroke-width="1" stroke-miterlimit="4" d="M93.6501 270.039L93.6501 272.039"/>
	<path fill="none" stroke="black" stroke-width="1" stroke-miterlimit="4" d="M98.7034 270.039L98.7034 272.039"/>
	<path fill="none" stroke="black" stroke-width="1" stroke-miterlimit="4" d="M103.757 270.039L103.757 272.039"/>
	<path fill="none" stroke="black" stroke-width="1" stroke-miterlimit="4" d="M113.863 270.039L113.863 272.039"/>
	<path fill="none" stroke="black" stroke-width="1" stroke-miterlimit="4" d="M118.917 270.039L118.917 272.039"/>
	<path fill="none" stroke="black" stroke-width="1" stroke-miterlimit="4" d="M123.97 270.039L123.97 272.039"/>
	<path fill="none" stroke="black" stroke-width="1" stroke-miterlimit="4" d="M129.023 270.039L129.023 272.039"/>
	<path fill="none" stroke="black" stroke-width="1" stroke-miterlimit="4" d="M139.13 270.039L139.13 272.039"/>
	<path fill="none" stroke="black" stroke-width="1" stroke-miterlimit="4" d="M144.183 270.039L144.183 272.039"/>
	<path fill="none" stroke="black" stroke-width="1" stroke-miterlimit="4" d="M149.236 270.039L149.236 272.039"/>
	<path fill="none" stroke="black" stroke-width="1" stroke-miterlimit="4" d="M154.29 270.039L154.29 272.039"/>
	<path fill="none" stroke="black" stroke-width="1" stroke-miterlimit="4" d="M164.396 270.039L164.396 272.039"/>
	<path fill="none" stroke="black" stroke-width="1" stroke-miterlimit="4" d="M169.45 270.039L169.45 272.039"/>
	<path fill="none" stroke="black" stroke-width="1" stroke-miterlimit="4" d="M174.503 270.039L174.503 272.039"/>
	<path fill="none" stroke="black" stroke-width="1" stroke-miterlimit="4" d="M179.556 270.039L179.556 272.039"/>
	<path fill="none" stroke="black" stroke-width="1" stroke-miterlimit="4" d="M189.663 270.039L189.663 272.039"/>
	<path fill="none" stroke="black" stroke-width="1" stroke-miterlimit="4" d="M194.716 270.039L194.716 272.039"/>
	<path fill="none" stroke="black" stroke-width="1" stroke-miterlimit="4" d="M199.769 270.039L199.769 272.039"/>
	<path fill="none" stroke="black" stroke-width="1" stroke-miterlimit="4" d="M204.823 270.039L204.823 272.039"/>
	<path fill="none" stroke="black" stroke-width="1" stroke-miterlimit="4" d="M214.929 270.039L214.929 272.039"/>
	<path fill="none" stroke="black" stroke-width="1" stroke-miterlimit="4" d="M219.982 270.039L219.982 272.039"/>
	<path fill="none" stroke="black" stroke-width="1" stroke-miterlimit="4" d="M225.036 270.039L225.036 272.039"/>
	<path fill="none" stroke="black" stroke-width="1" stroke-miterlimit="4" d="M230.089 270.039L230.089 272.039"/>
	<path fill="none" stroke="black" stroke-width="1" stroke-miterlimit="4" d="M240.196 270.039L240.196 272.039"/>
	<path fill="none" stroke="black" stroke-width="1" stroke-miterlimit="4" d="M245.249 270.039L245.249 272.039"/>
	<path fill="none" stroke="black" stroke-width="1" stroke-miterlimit="4" d="M250.302 270.039L250.302 272.039"/>
	<path fill="none" stroke="black" stroke-width="1" stroke-miterlimit="4" d="M255.355 270.039L255.355 272.039"/>
	<path fill="none" stroke="black" stroke-width="1" stroke-miterlimit="4" d="M265.462 270.039L265.462 272.039"/>
	<path fill="none" stroke="black" stroke-width="1" stroke-miterlimit="4" d="M270.515 270.039L270.515 272.039"/>
	<path fill="none" stroke="black" stroke-width="1" stroke-miterlimit="4" d="M275.569 270.039L275.569 272.039"/>
	<path fill="none" stroke="black" stroke-width="1" stroke-miterlimit="4" d="M280.622 270.039L280.622 272.039"/>
	<path fill="none" stroke="black" stroke-width="1" stroke-miterlimit="4" d="M290.729 270.039L290.729 272.039"/>
	<path fill="none" stroke="black" stroke-width="1" stroke-miterlimit="4" d="M295.782 270.039L295.782 272.039"/>
	<path fill="none" stroke="black" stroke-width="1" stroke-miterlimit="4" d="M300.835 270.039L300.835 272.039"/>
	<path fill="none" stroke="black" stroke-width="1" stroke-miterlimit="4" d="M305.888 270.039L305.888 272.039"/>
	<path fill="none" stroke="black" stroke-width="1" stroke-miterlimit="4" d="M315.995 270.039L315.995 272.039"/>
	<path fill="none" stroke="black" stroke-width="1" stroke-miterlimit="4" d="M321.048 270.039L321.048 272.039"/>
	<path fill="none" stroke="black" stroke-width="1" stroke-miterlimit="4" d="M326.102 270.039L326.102 272.039"/>
	<path fill="none" stroke="black" stroke-width="1" stroke-miterlimit="4" d="M331.155 270.039L331.155 272.039"/>
	<path fill="none" stroke="black" stroke-width="1" stroke-miterlimit="4" d="M341.261 270.039L341.261 272.039"/>
	<path fill="none" stroke="black" stroke-width="1" stroke-miterlimit="4" d="M346.315 270.039L346.315 272.039"/>
	<path fill="none" stroke="black" stroke-width="1" stroke-miterlimit="4" d="M351.368 270.039L351.368 272.039"/>
	<path fill="none" stroke="black" stroke-width="1" stroke-miterlimit="4" d="M356.421 270.039L356.421 272.039"/>
	<path fill="none" stroke="black" stroke-width="1" stroke-miterlimit="4" d="M366.528 270.039L366.528 272.039"/>
	<path fill="none" stroke="black" stroke-width="1" stroke-miterlimit="4" d="M371.581 270.039L371.581 272.039"/>
	<path fill="none" stroke="black" stroke-width="1" stroke-miterlimit="4" d="M376.634 270.039L376.634 272.039"/>
	<path fill="none" stroke="black" stroke-width="1" stroke-miterlimit="4" d="M381.688 270.039L381.688 272.039"/>
	<path fill="none" stroke="black" stroke-width="1" stroke-miterlimit="4" d="M391.794 270.039L391.794 272.039"/>
	<path fill="none" stroke="black" stroke-width="1" stroke-miterlimit="4" d="M396.848 270.039L396.848 272.039"/>
	<path fill="none" stroke="black" stroke-width="1" stroke-miterlimit="4" d="M401.901 270.039L401.901 272.039"/>
	<path fill="none" stroke="black" stroke-width="1" stroke-miterlimit="4" d="M406.954 270.039L406.954 272.039"/>
	<path fill="none" stroke="black" stroke-width="1" stroke-miterlimit="4" d="M417.061 270.039L417.061 272.039"/>
	<path fill="none" stroke="black" stroke-width="1" stroke-miterlimit="4" d="M422.114 270.039L422.114 272.039"/>
	<path fill="none" stroke="black" stroke-width="1" stroke-miterlimit="4" d="M427.167 270.039L427.167 272.039"/>
	<path fill="none" stroke="black" stroke-width="1" stroke-miterlimit="4" d="M432.221 270.039L432.221 272.039"/>
	<path fill="none" stroke="black" stroke-width="1" stroke-miterlimit="4" d="M40.3379 270.039L435 270.039"/>
	<path fill="none" stroke="black" stroke-width="1" stroke-miterlimit="4" d="M40.3379 46.3812L435 46.3812"/>
	<path fill="none" stroke="black" stroke-width="1" stroke-miterlimit="4" d="M40.3379 259.917L36.3379 259.917"/>
	<text transform="translate(31.3379 259.917)" font-size="12" font-family="Segoe UI" x="-20.337891, -15.539063, -9.0703125, -6.46875, " y="3.046875, ">
			-1.5
	</text>
	<path fill="none" stroke="black" stroke-width="1" stroke-miterlimit="4" d="M40.3379 227.522L36.3379 227.522"/>
	<text transform="translate(31.3379 227.522)" font-size="12" font-family="Segoe UI" x="-11.267578, -6.46875, " y="3.046875, ">
			-1
	</text>
	<path fill="none" stroke="black" stroke-width="1" stroke-miterlimit="4" d="M40.3379 195.127L36.3379 195.127"/>
	<text transform="translate(31.3379 195.127)" font-size="12" font-family="Segoe UI" x="-20.337891, -15.539063, -9.0703125, -6.46875, " y="3.046875, ">
			-0.5
	</text>
	<path fill="none" stroke="black" stroke-width="1" stroke-miterlimit="4" d="M40.3379 162.732L36.3379 162.732"/>
	<text transform="translate(31.3379 162.732)" font-size="12" font-family="Segoe UI" x="-6.46875, " y="3.046875, ">
			0
	</text>
	<path fill="none" stroke="black" stroke-width="1" stroke-miterlimit="4" d="M40.3379 130.337L36.3379 130.337"/>
	<text transform="translate(31.3379 130.337)" font-size="12" font-family="Segoe UI" x="-15.539063, -9.0703125, -6.46875, " y="3.046875, ">
			0.5
	</text>
	<path fill="none" stroke="black" stroke-width="1" stroke-miterlimit="4" d="M40.3379 97.9418L36.3379 97.9418"/>
	<text transform="translate(31.3379 97.9418)" font-size="12" font-family="Segoe UI" x="-6.46875, " y="3.046875, ">
			1
	</text>
	<path fill="none" stroke="black" stroke-width="1" stroke-miterlimit="4" d="M40.3379 65.5467L36.3379 65.5467"/>
	<text transform="translate(31.3379 65.5467)" font-size="12" font-family="Segoe UI" x="-15.539063, -9.0703125, -6.46875, " y="3.046875, ">
			1.5
	</text>
	<path fill="none" stroke="black" stroke-width="1" stroke-miterlimit="4" d="M40.3379 266.396L38.3379 266.396"/>
	<path fill="none" stroke="black" stroke-width="1" stroke-miterlimit="4" d="M40.3379 253.438L38.3379 253.438"/>
	<path fill="none" stroke="black" stroke-width="1" stroke-miterlimit="4" d="M40.3379 246.959L38.3379 246.959"/>
	<path fill="none" stroke="black" stroke-width="1" stroke-miterlimit="4" d="M40.3379 240.48L38.3379 240.48"/>
	<path fill="none" stroke="black" stroke-width="1" stroke-miterlimit="4" d="M40.3379 234.001L38.3379 234.001"/>
	<path fill="none" stroke="black" stroke-width="1" stroke-miterlimit="4" d="M40.3379 221.043L38.3379 221.043"/>
	<path fill="none" stroke="black" stroke-width="1" stroke-miterlimit="4" d="M40.3379 214.564L38.3379 214.564"/>
	<path fill="none" stroke="black" stroke-width="1" stroke-miterlimit="4" d="M40.3379 208.085L38.3379 208.085"/>
	<path fill="none" stroke="black" stroke-width="1" stroke-miterlimit="4" d="M40.3379 201.606L38.3379 201.606"/>
	<path fill="none" stroke="black" stroke-width="1" stroke-miterlimit="4" d="M40.3379 188.648L38.3379 188.648"/>
	<path fill="none" stroke="black" stroke-width="1" stroke-miterlimit="4" d="M40.3379 182.169L38.3379 182.169"/>
	<path fill="none" stroke="black" stroke-width="1" stroke-miterlimit="4" d="M40.3379 175.69L38.3379 175.69"/>
	<path fill="none" stroke="black" stroke-width="1" stroke-miterlimit="4" d="M40.3379 169.211L38.3379 169.211"/>
	<path fill="none" stroke="black" stroke-width="1" stroke-miterlimit="4" d="M40.3379 156.253L38.3379 156.253"/>
	<path fill="none" stroke="black" stroke-width="1" stroke-miterlimit="4" d="M40.3379 149.774L38.3379 149.774"/>
	<path fill="none" stroke="black" stroke-width="1" stroke-miterlimit="4" d="M40.3379 143.295L38.3379 143.295"/>
	<path fill="none" stroke="black" stroke-width="1" stroke-miterlimit="4" d="M40.3379 136.816L38.3379 136.816"/>
	<path fill="none" stroke="black" stroke-width="1" stroke-miterlimit="4" d="M40.3379 123.858L38.3379 123.858"/>
	<path fill="none" stroke="black" stroke-width="1" stroke-miterlimit="4" d="M40.3379 117.379L38.3379 117.379"/>
	<path fill="none" stroke="black" stroke-width="1" stroke-miterlimit="4" d="M40.3379 110.9L38.3379 110.9"/>
	<path fill="none" stroke="black" stroke-width="1" stroke-miterlimit="4" d="M40.3379 104.421L38.3379 104.421"/>
	<path fill="none" stroke="black" stroke-width="1" stroke-miterlimit="4" d="M40.3379 91.4628L38.3379 91.4628"/>
	<path fill="none" stroke="black" stroke-width="1" stroke-miterlimit="4" d="M40.3379 84.9837L38.3379 84.9837"/>
	<path fill="none" stroke="black" stroke-width="1" stroke-miterlimit="4" d="M40.3379 78.5047L38.3379 78.5047"/>
	<path fill="none" stroke="black" stroke-width="1" stroke-miterlimit="4" d="M40.3379 72.0257L38.3379 72.0257"/>
	<path fill="none" stroke="black" stroke-width="1" stroke-miterlimit="4" d="M40.3379 59.0677L38.3379 59.0677"/>
	<path fill="none" stroke="black" stroke-width="1" stroke-miterlimit="4" d="M40.3379 52.5886L38.3379 52.5886"/>
	<path fill="none" stroke="black" stroke-width="1" stroke-miterlimit="4" d="M40.3379 270.039L40.3379 46.2813"/>
	<path fill="none" stroke="black" stroke-width="1" stroke-miterlimit="4" d="M435 270.039L435 46.2813"/>
	<text transform="translate(237.669 31.2813)" font-size="16" font-weight="600" font-family="Segoe UI" x="-66.597656, -57.628906, -53.082031, -43.402344, -34.746094, -23.371094, -18.957031, -12.488281, -8.0742188, 1.3007813, 9.8164063, 25.128906, 36.378906, 42.285156, 51.488281, 60.691406, " y="-6.890625, ">
			SineG - TEMA(10)
	</text>
</svg>
