<?xml version="1.0" encoding="utf-8" ?>
<svg xmlns="http://www.w3.org/2000/svg" xmlns:xlink="http://www.w3.org/1999/xlink" width="450" height="300">
	<rect fill="white" width="450" height="300"/>
	<path fill="none" stroke="#010101" stroke-width="1" stroke-miterlimit="4" stroke-opacity="0.098039217" d="M58.2771 270.039L58.2771 46.2813M83.5435 270.039L83.5435 46.2813M108.81 270.039L108.81 46.2813M134.076 270.039L134.076 46.2813M159.343 270.039L159.343 46.2813M184.609 270.039L184.609 46.2813M209.876 270.039L209.876 46.2813M235.142 270.039L235.142 46.2813M260.409 270.039L260.409 46.2813M285.675 270.039L285.675 46.2813M310.942 270.039L310.942 46.2813M336.208 270.039L336.208 46.2813M361.475 270.039L361.475 46.2813M386.741 270.039L386.741 46.2813M412.008 270.039L412.008 46.2813"/>
	<path fill="none" stroke="#010101" stroke-width="1" stroke-miterlimit="4" stroke-opacity="0.098039217" d="M40.3379 234.965L435 234.965M40.3379 194.002L435 194.002M40.3379 153.04L435 153.04M40.3379 112.077L435 112.077M40.3379 71.1148L435 71.1148"/>
	<clipPath id="cl_97">
		<rect x="40.337891" y="46.28125" width="394.66211" height="223.75781"/>
	</clipPath>
	<g clip-path="url(#cl_97)">
		<path fill="none" stroke="red" stroke-width="2" stroke-miterlimit="4" d="M58.2771 234.965L58.2771 234.965L63.3304 71.1148L68.3837 234.965L73.437 71.1148L78.4902 234.965L83.5435 71.1148L88.5968 146.895L93.6501 234.965L98.7034 249.302L103.757 114.125L108.81 234.965L113.863 200.147L118.917 89.5479L123.97 69.0667L129.023 114.125L134.076 120.27L139.13 255.446L144.183 216.532L149.236 196.051L154.29 101.837L159.343 116.174L164.396 251.35L169.45 173.521L174.503 75.211L179.556 93.6442L184.609 230.869L189.663 169.425L194.716 196.051L199.769 83.4035L204.823 150.992L209.876 247.254L214.929 95.6923L219.982 251.35L225.036 130.51L230.089 148.944L235.142 228.821L240.196 114.125L245.249 194.002L250.302 132.559L255.355 103.885L260.409 136.655L265.462 198.099L270.515 177.617L275.569 122.318L280.622 79.3073L285.675 241.109L290.729 159.184L295.782 218.58L300.835 60.8741L305.888 255.446L310.942 161.232L315.995 161.232L321.048 169.425L326.102 189.906L331.155 126.414L336.208 220.628L341.261 191.954L346.315 79.3073L351.368 232.917L356.421 112.077L361.475 216.532L366.528 95.6923L371.581 179.665L376.634 167.377L381.688 212.436L386.741 77.2592L391.794 146.895L396.848 204.243L401.901 165.329L406.954 214.484L412.008 169.425L417.061 171.473"/>
		<ellipse fill="red" cx="58.277077" cy="234.9649" rx="0.40212631" ry="0.40213013"/>
		<ellipse fill="red" cx="63.330368" cy="71.114777" rx="0.40212631" ry="0.4021225"/>
		<ellipse fill="red" cx="68.383659" cy="234.9649" rx="0.4021225" ry="0.40213013"/>
		<ellipse fill="red" cx="73.436951" cy="71.114777" rx="0.4021225" ry="0.4021225"/>
		<ellipse fill="red" cx="78.49025" cy="234.9649" rx="0.4021225" ry="0.40213013"/>
		<ellipse fill="red" cx="83.543533" cy="71.114777" rx="0.4021225" ry="0.4021225"/>
		<ellipse fill="red" cx="88.596832" cy="146.89546" rx="0.4021225" ry="0.40213013"/>
		<ellipse fill="red" cx="93.650124" cy="234.9649" rx="0.4021225" ry="0.40213013"/>
		<ellipse fill="red" cx="98.703415" cy="249.30179" rx="0.4021225" ry="0.40213013"/>
		<ellipse fill="red" cx="103.75671" cy="114.12544" rx="0.4021225" ry="0.4021225"/>
		<ellipse fill="red" cx="108.81" cy="234.9649" rx="0.4021225" ry="0.40213013"/>
		<ellipse fill="red" cx="113.86329" cy="200.14676" rx="0.4021225" ry="0.40213013"/>
		<ellipse fill="red" cx="118.91658" cy="89.547928" rx="0.4021225" ry="0.4021225"/>
		<ellipse fill="red" cx="123.96987" cy="69.06665" rx="0.4021225" ry="0.4021225"/>
		<ellipse fill="red" cx="129.02316" cy="114.12544" rx="0.40213013" ry="0.4021225"/>
		<ellipse fill="red" cx="134.07646" cy="120.26982" rx="0.40213013" ry="0.4021225"/>
		<ellipse fill="red" cx="139.12976" cy="255.44617" rx="0.40213013" ry="0.40213013"/>
		<ellipse fill="red" cx="144.18304" cy="216.53177" rx="0.40213013" ry="0.40213013"/>
		<ellipse fill="red" cx="149.23633" cy="196.05051" rx="0.40213013" ry="0.40213013"/>
		<ellipse fill="red" cx="154.28963" cy="101.83669" rx="0.40213013" ry="0.4021225"/>
		<ellipse fill="red" cx="159.34293" cy="116.17357" rx="0.40213013" ry="0.4021225"/>
		<ellipse fill="red" cx="164.39621" cy="251.34991" rx="0.40213013" ry="0.40213013"/>
		<ellipse fill="red" cx="169.44951" cy="173.5211" rx="0.40213013" ry="0.40213013"/>
		<ellipse fill="red" cx="174.50279" cy="75.211029" rx="0.40213013" ry="0.4021225"/>
		<ellipse fill="red" cx="179.55609" cy="93.64418" rx="0.40213013" ry="0.4021225"/>
		<ellipse fill="red" cx="184.60938" cy="230.86865" rx="0.40213013" ry="0.40213013"/>
		<ellipse fill="red" cx="189.66267" cy="169.42485" rx="0.40213013" ry="0.40213013"/>
		<ellipse fill="red" cx="194.71596" cy="196.05051" rx="0.40213013" ry="0.40213013"/>
		<ellipse fill="red" cx="199.76926" cy="83.403534" rx="0.40213013" ry="0.4021225"/>
		<ellipse fill="red" cx="204.82254" cy="150.99171" rx="0.40213013" ry="0.40213013"/>
		<ellipse fill="red" cx="209.87584" cy="247.25366" rx="0.40213013" ry="0.40213013"/>
		<ellipse fill="red" cx="214.92914" cy="95.692307" rx="0.40213013" ry="0.4021225"/>
		<ellipse fill="red" cx="219.98242" cy="251.34991" rx="0.40213013" ry="0.40213013"/>
		<ellipse fill="red" cx="225.03572" cy="130.51045" rx="0.40213013" ry="0.40213013"/>
		<ellipse fill="red" cx="230.089" cy="148.94359" rx="0.40213013" ry="0.40213013"/>
		<ellipse fill="red" cx="235.1423" cy="228.82053" rx="0.40213013" ry="0.40213013"/>
		<ellipse fill="red" cx="240.19559" cy="114.12544" rx="0.40213013" ry="0.4021225"/>
		<ellipse fill="red" cx="245.24889" cy="194.00237" rx="0.40213013" ry="0.40213013"/>
		<ellipse fill="red" cx="250.30217" cy="132.55858" rx="0.40213013" ry="0.40213013"/>
		<ellipse fill="red" cx="255.35547" cy="103.88481" rx="0.40213013" ry="0.4021225"/>
		<ellipse fill="red" cx="260.40875" cy="136.65483" rx="0.40213013" ry="0.40213013"/>
		<ellipse fill="red" cx="265.46204" cy="198.09863" rx="0.40213013" ry="0.40213013"/>
		<ellipse fill="red" cx="270.51535" cy="177.61736" rx="0.40213013" ry="0.40213013"/>
		<ellipse fill="red" cx="275.56863" cy="122.31795" rx="0.40213013" ry="0.4021225"/>
		<ellipse fill="red" cx="280.62195" cy="79.307281" rx="0.40213013" ry="0.4021225"/>
		<ellipse fill="red" cx="285.67523" cy="241.10928" rx="0.40213013" ry="0.40213013"/>
		<ellipse fill="red" cx="290.72852" cy="159.18422" rx="0.40213013" ry="0.40213013"/>
		<ellipse fill="red" cx="295.7818" cy="218.5799" rx="0.40213013" ry="0.40213013"/>
		<ellipse fill="red" cx="300.83508" cy="60.874146" rx="0.40213013" ry="0.40212631"/>
		<ellipse fill="red" cx="305.8884" cy="255.44617" rx="0.40213013" ry="0.40213013"/>
		<ellipse fill="red" cx="310.94168" cy="161.23235" rx="0.40213013" ry="0.40213013"/>
		<ellipse fill="red" cx="315.99496" cy="161.23235" rx="0.40213013" ry="0.40213013"/>
		<ellipse fill="red" cx="321.04828" cy="169.42485" rx="0.40213013" ry="0.40213013"/>
		<ellipse fill="red" cx="326.10156" cy="189.90611" rx="0.40213013" ry="0.40213013"/>
		<ellipse fill="red" cx="331.15485" cy="126.4142" rx="0.40213013" ry="0.4021225"/>
		<ellipse fill="red" cx="336.20813" cy="220.62802" rx="0.40213013" ry="0.40213013"/>
		<ellipse fill="red" cx="341.26144" cy="191.95424" rx="0.40213013" ry="0.40213013"/>
		<ellipse fill="red" cx="346.31473" cy="79.307281" rx="0.40213013" ry="0.4021225"/>
		<ellipse fill="red" cx="351.36801" cy="232.91678" rx="0.40213013" ry="0.40213013"/>
		<ellipse fill="red" cx="356.4213" cy="112.07732" rx="0.40213013" ry="0.4021225"/>
		<ellipse fill="red" cx="361.47461" cy="216.53177" rx="0.40213013" ry="0.40213013"/>
		<ellipse fill="red" cx="366.52789" cy="95.692307" rx="0.40213013" ry="0.4021225"/>
		<ellipse fill="red" cx="371.58118" cy="179.66548" rx="0.40213013" ry="0.40213013"/>
		<ellipse fill="red" cx="376.63449" cy="167.37672" rx="0.40213013" ry="0.40213013"/>
		<ellipse fill="red" cx="381.68777" cy="212.4355" rx="0.40213013" ry="0.40213013"/>
		<ellipse fill="red" cx="386.74106" cy="77.259155" rx="0.40213013" ry="0.4021225"/>
		<ellipse fill="red" cx="391.79434" cy="146.89546" rx="0.40213013" ry="0.40213013"/>
		<ellipse fill="red" cx="396.84766" cy="204.24301" rx="0.40213013" ry="0.40213013"/>
		<ellipse fill="red" cx="401.90094" cy="165.3286" rx="0.40213013" ry="0.40213013"/>
		<ellipse fill="red" cx="406.95422" cy="214.48364" rx="0.40213013" ry="0.40213013"/>
		<ellipse fill="red" cx="412.00751" cy="169.42485" rx="0.40213013" ry="0.40213013"/>
		<ellipse fill="red" cx="417.06082" cy="171.47298" rx="0.40213013" ry="0.40213013"/>
	</g>
	<clipPath id="cl_98">
		<rect x="40.337891" y="46.28125" width="394.66211" height="223.75781"/>
	</clipPath>
	<g clip-path="url(#cl_98)">
		<path fill="none" stroke="blue" stroke-width="4" stroke-miterlimit="4" d="M58.2771 175.876L58.2771 175.876L63.3304 131.175L68.3837 175.727L73.437 131.115L78.4902 175.61L83.5435 131.061L88.5968 135.623L93.6501 178.887L98.7034 214.182L103.757 175.816L108.81 204.206L113.863 206.934L118.917 158.009L123.97 115.795L129.023 108.521L134.076 107.368L139.13 168.653L144.183 192.338L149.236 198.459L154.29 159.276L159.343 139.243L164.396 187.213L169.45 184.065L174.503 137.085L179.556 114.058L184.609 161.371L189.663 165.603L194.716 180.373L199.769 139.05L204.823 141.973L209.876 187.79L214.929 149.764L219.982 194.55L225.036 169.639L230.089 160.952L235.142 191.231L240.196 159.399L245.249 174.057L250.302 156.063L255.355 131.08L260.409 129.574L265.462 156.925L270.515 166.246L275.569 147.415L280.622 115.394L285.675 167.609L290.729 165.718L295.782 191.095L300.835 136.346L305.888 187.615L310.942 179.233L315.995 173.204L321.048 172.622L326.102 181.327L331.155 158.216L336.208 185.298L341.261 190.352L346.315 142.433L351.368 179.903L356.421 150.452L361.475 178.051L366.528 141.927L371.581 155.876L376.634 159.957L381.688 183.19L386.741 137.471L391.794 138.463L396.848 165.515L401.901 166.174L406.954 188.757L412.008 183.206L417.061 180.026"/>
		<ellipse fill="blue" cx="58.277077" cy="175.87622" rx="0.40212631" ry="0.40213013"/>
		<ellipse fill="blue" cx="63.330368" cy="131.17461" rx="0.40212631" ry="0.40213013"/>
		<ellipse fill="blue" cx="68.383659" cy="175.72699" rx="0.4021225" ry="0.40213013"/>
		<ellipse fill="blue" cx="73.436951" cy="131.11519" rx="0.4021225" ry="0.40213013"/>
		<ellipse fill="blue" cx="78.49025" cy="175.61035" rx="0.4021225" ry="0.40213013"/>
		<ellipse fill="blue" cx="83.543533" cy="131.06091" rx="0.4021225" ry="0.40213013"/>
		<ellipse fill="blue" cx="88.596832" cy="135.62286" rx="0.4021225" ry="0.40213013"/>
		<ellipse fill="blue" cx="93.650124" cy="178.88702" rx="0.4021225" ry="0.40213013"/>
		<ellipse fill="blue" cx="98.703415" cy="214.18155" rx="0.4021225" ry="0.40213013"/>
		<ellipse fill="blue" cx="103.75671" cy="175.81586" rx="0.4021225" ry="0.40213013"/>
		<ellipse fill="blue" cx="108.81" cy="204.20563" rx="0.4021225" ry="0.40213013"/>
		<ellipse fill="blue" cx="113.86329" cy="206.93358" rx="0.4021225" ry="0.40213013"/>
		<ellipse fill="blue" cx="118.91658" cy="158.00888" rx="0.4021225" ry="0.40213013"/>
		<ellipse fill="blue" cx="123.96987" cy="115.79456" rx="0.4021225" ry="0.4021225"/>
		<ellipse fill="blue" cx="129.02316" cy="108.52065" rx="0.40213013" ry="0.4021225"/>
		<ellipse fill="blue" cx="134.07646" cy="107.36801" rx="0.40213013" ry="0.4021225"/>
		<ellipse fill="blue" cx="139.12976" cy="168.6534" rx="0.40213013" ry="0.40213013"/>
		<ellipse fill="blue" cx="144.18304" cy="192.33786" rx="0.40213013" ry="0.40213013"/>
		<ellipse fill="blue" cx="149.23633" cy="198.45911" rx="0.40213013" ry="0.40213013"/>
		<ellipse fill="blue" cx="154.28963" cy="159.27647" rx="0.40213013" ry="0.40213013"/>
		<ellipse fill="blue" cx="159.34293" cy="139.24307" rx="0.40213013" ry="0.40213013"/>
		<ellipse fill="blue" cx="164.39621" cy="187.21284" rx="0.40213013" ry="0.40213013"/>
		<ellipse fill="blue" cx="169.44951" cy="184.06509" rx="0.40213013" ry="0.40213013"/>
		<ellipse fill="blue" cx="174.50279" cy="137.08534" rx="0.40213013" ry="0.40213013"/>
		<ellipse fill="blue" cx="179.55609" cy="114.05835" rx="0.40213013" ry="0.4021225"/>
		<ellipse fill="blue" cx="184.60938" cy="161.37091" rx="0.40213013" ry="0.40213013"/>
		<ellipse fill="blue" cx="189.66267" cy="165.60303" rx="0.40213013" ry="0.40213013"/>
		<ellipse fill="blue" cx="194.71596" cy="180.37335" rx="0.40213013" ry="0.40213013"/>
		<ellipse fill="blue" cx="199.76926" cy="139.04984" rx="0.40213013" ry="0.40213013"/>
		<ellipse fill="blue" cx="204.82254" cy="141.97339" rx="0.40213013" ry="0.40213013"/>
		<ellipse fill="blue" cx="209.87584" cy="187.79008" rx="0.40213013" ry="0.40213013"/>
		<ellipse fill="blue" cx="214.92914" cy="149.7637" rx="0.40213013" ry="0.40213013"/>
		<ellipse fill="blue" cx="219.98242" cy="194.55008" rx="0.40213013" ry="0.40213013"/>
		<ellipse fill="blue" cx="225.03572" cy="169.6393" rx="0.40213013" ry="0.40213013"/>
		<ellipse fill="blue" cx="230.089" cy="160.95158" rx="0.40213013" ry="0.40213013"/>
		<ellipse fill="blue" cx="235.1423" cy="191.23146" rx="0.40213013" ry="0.40213013"/>
		<ellipse fill="blue" cx="240.19559" cy="159.39896" rx="0.40213013" ry="0.40213013"/>
		<ellipse fill="blue" cx="245.24889" cy="174.05682" rx="0.40213013" ry="0.40213013"/>
		<ellipse fill="blue" cx="250.30217" cy="156.06339" rx="0.40213013" ry="0.40213013"/>
		<ellipse fill="blue" cx="255.35547" cy="131.08011" rx="0.40213013" ry="0.40213013"/>
		<ellipse fill="blue" cx="260.40875" cy="129.57391" rx="0.40213013" ry="0.40213013"/>
		<ellipse fill="blue" cx="265.46204" cy="156.92505" rx="0.40213013" ry="0.40213013"/>
		<ellipse fill="blue" cx="270.51535" cy="166.24625" rx="0.40213013" ry="0.40213013"/>
		<ellipse fill="blue" cx="275.56863" cy="147.41531" rx="0.40213013" ry="0.40213013"/>
		<ellipse fill="blue" cx="280.62195" cy="115.39418" rx="0.40213013" ry="0.4021225"/>
		<ellipse fill="blue" cx="285.67523" cy="167.60907" rx="0.40213013" ry="0.40213013"/>
		<ellipse fill="blue" cx="290.72852" cy="165.71756" rx="0.40213013" ry="0.40213013"/>
		<ellipse fill="blue" cx="295.7818" cy="191.09534" rx="0.40213013" ry="0.40213013"/>
		<ellipse fill="blue" cx="300.83508" cy="136.3455" rx="0.40213013" ry="0.40213013"/>
		<ellipse fill="blue" cx="305.8884" cy="187.6149" rx="0.40213013" ry="0.40213013"/>
		<ellipse fill="blue" cx="310.94168" cy="179.2334" rx="0.40213013" ry="0.40213013"/>
		<ellipse fill="blue" cx="315.99496" cy="173.20401" rx="0.40213013" ry="0.40213013"/>
		<ellipse fill="blue" cx="321.04828" cy="172.62183" rx="0.40213013" ry="0.40213013"/>
		<ellipse fill="blue" cx="326.10156" cy="181.32672" rx="0.40213013" ry="0.40213013"/>
		<ellipse fill="blue" cx="331.15485" cy="158.21581" rx="0.40213013" ry="0.40213013"/>
		<ellipse fill="blue" cx="336.20813" cy="185.29761" rx="0.40213013" ry="0.40213013"/>
		<ellipse fill="blue" cx="341.26144" cy="190.35245" rx="0.40213013" ry="0.40213013"/>
		<ellipse fill="blue" cx="346.31473" cy="142.43266" rx="0.40213013" ry="0.40213013"/>
		<ellipse fill="blue" cx="351.36801" cy="179.90321" rx="0.40213013" ry="0.40213013"/>
		<ellipse fill="blue" cx="356.4213" cy="150.45229" rx="0.40213013" ry="0.40213013"/>
		<ellipse fill="blue" cx="361.47461" cy="178.05103" rx="0.40213013" ry="0.40213013"/>
		<ellipse fill="blue" cx="366.52789" cy="141.92728" rx="0.40213013" ry="0.40213013"/>
		<ellipse fill="blue" cx="371.58118" cy="155.87613" rx="0.40213013" ry="0.40213013"/>
		<ellipse fill="blue" cx="376.63449" cy="159.95749" rx="0.40213013" ry="0.40213013"/>
		<ellipse fill="blue" cx="381.68777" cy="183.19003" rx="0.40213013" ry="0.40213013"/>
		<ellipse fill="blue" cx="386.74106" cy="137.47104" rx="0.40213013" ry="0.40213013"/>
		<ellipse fill="blue" cx="391.79434" cy="138.46336" rx="0.40213013" ry="0.40213013"/>
		<ellipse fill="blue" cx="396.84766" cy="165.51495" rx="0.40213013" ry="0.40213013"/>
		<ellipse fill="blue" cx="401.90094" cy="166.17412" rx="0.40213013" ry="0.40213013"/>
		<ellipse fill="blue" cx="406.95422" cy="188.75696" rx="0.40213013" ry="0.40213013"/>
		<ellipse fill="blue" cx="412.00751" cy="183.20593" rx="0.40213013" ry="0.40213013"/>
		<ellipse fill="blue" cx="417.06082" cy="180.02579" rx="0.40213013" ry="0.40213013"/>
	</g>
	<path fill="none" stroke="black" stroke-width="1" stroke-miterlimit="4" d="M58.2771 270.039L58.2771 274.039"/>
	<text transform="translate(58.2771 276.039)" font-size="12" font-family="Segoe UI" x="-3.234375, " y="11.027344, ">
			0
	</text>
	<path fill="none" stroke="black" stroke-width="1" stroke-miterlimit="4" d="M83.5435 270.039L83.5435 274.039"/>
	<text transform="translate(83.5435 276.039)" font-size="12" font-family="Segoe UI" x="-3.234375, " y="11.027344, ">
			5
	</text>
	<path fill="none" stroke="black" stroke-width="1" stroke-miterlimit="4" d="M108.81 270.039L108.81 274.039"/>
	<text transform="translate(108.81 276.039)" font-size="12" font-family="Segoe UI" x="-6.46875, 0, " y="11.027344, ">
			10
	</text>
	<path fill="none" stroke="black" stroke-width="1" stroke-miterlimit="4" d="M134.076 270.039L134.076 274.039"/>
	<text transform="translate(134.076 276.039)" font-size="12" font-family="Segoe UI" x="-6.46875, 0, " y="11.027344, ">
			15
	</text>
	<path fill="none" stroke="black" stroke-width="1" stroke-miterlimit="4" d="M159.343 270.039L159.343 274.039"/>
	<text transform="translate(159.343 276.039)" font-size="12" font-family="Segoe UI" x="-6.46875, 0, " y="11.027344, ">
			20
	</text>
	<path fill="none" stroke="black" stroke-width="1" stroke-miterlimit="4" d="M184.609 270.039L184.609 274.039"/>
	<text transform="translate(184.609 276.039)" font-size="12" font-family="Segoe UI" x="-6.46875, 0, " y="11.027344, ">
			25
	</text>
	<path fill="none" stroke="black" stroke-width="1" stroke-miterlimit="4" d="M209.876 270.039L209.876 274.039"/>
	<text transform="translate(209.876 276.039)" font-size="12" font-family="Segoe UI" x="-6.46875, 0, " y="11.027344, ">
			30
	</text>
	<path fill="none" stroke="black" stroke-width="1" stroke-miterlimit="4" d="M235.142 270.039L235.142 274.039"/>
	<text transform="translate(235.142 276.039)" font-size="12" font-family="Segoe UI" x="-6.46875, 0, " y="11.027344, ">
			35
	</text>
	<path fill="none" stroke="black" stroke-width="1" stroke-miterlimit="4" d="M260.409 270.039L260.409 274.039"/>
	<text transform="translate(260.409 276.039)" font-size="12" font-family="Segoe UI" x="-6.46875, 0, " y="11.027344, ">
			40
	</text>
	<path fill="none" stroke="black" stroke-width="1" stroke-miterlimit="4" d="M285.675 270.039L285.675 274.039"/>
	<text transform="translate(285.675 276.039)" font-size="12" font-family="Segoe UI" x="-6.46875, 0, " y="11.027344, ">
			45
	</text>
	<path fill="none" stroke="black" stroke-width="1" stroke-miterlimit="4" d="M310.942 270.039L310.942 274.039"/>
	<text transform="translate(310.942 276.039)" font-size="12" font-family="Segoe UI" x="-6.46875, 0, " y="11.027344, ">
			50
	</text>
	<path fill="none" stroke="black" stroke-width="1" stroke-miterlimit="4" d="M336.208 270.039L336.208 274.039"/>
	<text transform="translate(336.208 276.039)" font-size="12" font-family="Segoe UI" x="-6.46875, 0, " y="11.027344, ">
			55
	</text>
	<path fill="none" stroke="black" stroke-width="1" stroke-miterlimit="4" d="M361.475 270.039L361.475 274.039"/>
	<text transform="translate(361.475 276.039)" font-size="12" font-family="Segoe UI" x="-6.46875, 0, " y="11.027344, ">
			60
	</text>
	<path fill="none" stroke="black" stroke-width="1" stroke-miterlimit="4" d="M386.741 270.039L386.741 274.039"/>
	<text transform="translate(386.741 276.039)" font-size="12" font-family="Segoe UI" x="-6.46875, 0, " y="11.027344, ">
			65
	</text>
	<path fill="none" stroke="black" stroke-width="1" stroke-miterlimit="4" d="M412.008 270.039L412.008 274.039"/>
	<text transform="translate(412.008 276.039)" font-size="12" font-family="Segoe UI" x="-6.46875, 0, " y="11.027344, ">
			70
	</text>
	<path fill="none" stroke="black" stroke-width="1" stroke-miterlimit="4" d="M43.1172 270.039L43.1172 272.039"/>
	<path fill="none" stroke="black" stroke-width="1" stroke-miterlimit="4" d="M48.1705 270.039L48.1705 272.039"/>
	<path fill="none" stroke="black" stroke-width="1" stroke-miterlimit="4" d="M53.2238 270.039L53.2238 272.039"/>
	<path fill="none" stroke="black" stroke-width="1" stroke-miterlimit="4" d="M63.3304 270.039L63.3304 272.039"/>
	<path fill="none" stroke="black" stroke-width="1" stroke-miterlimit="4" d="M68.3837 270.039L68.3837 272.039"/>
	<path fill="none" stroke="black" stroke-width="1" stroke-miterlimit="4" d="M73.437 270.039L73.437 272.039"/>
	<path fill="none" stroke="black" stroke-width="1" stroke-miterlimit="4" d="M78.4902 270.039L78.4902 272.039"/>
	<path fill="none" stroke="black" stroke-width="1" stroke-miterlimit="4" d="M88.5968 270.039L88.5968 272.039"/>
	<path fill="none" stroke="black" stroke-width="1" stroke-miterlimit="4" d="M93.6501 270.039L93.6501 272.039"/>
	<path fill="none" stroke="black" stroke-width="1" stroke-miterlimit="4" d="M98.7034 270.039L98.7034 272.039"/>
	<path fill="none" stroke="black" stroke-width="1" stroke-miterlimit="4" d="M103.757 270.039L103.757 272.039"/>
	<path fill="none" stroke="black" stroke-width="1" stroke-miterlimit="4" d="M113.863 270.039L113.863 272.039"/>
	<path fill="none" stroke="black" stroke-width="1" stroke-miterlimit="4" d="M118.917 270.039L118.917 272.039"/>
	<path fill="none" stroke="black" stroke-width="1" stroke-miterlimit="4" d="M123.97 270.039L123.97 272.039"/>
	<path fill="none" stroke="black" stroke-width="1" stroke-miterlimit="4" d="M129.023 270.039L129.023 272.039"/>
	<path fill="none" stroke="black" stroke-width="1" stroke-miterlimit="4" d="M139.13 270.039L139.13 272.039"/>
	<path fill="none" stroke="black" stroke-width="1" stroke-miterlimit="4" d="M144.183 270.039L144.183 272.039"/>
	<path fill="none" stroke="black" stroke-width="1" stroke-miterlimit="4" d="M149.236 270.039L149.236 272.039"/>
	<path fill="none" stroke="black" stroke-width="1" stroke-miterlimit="4" d="M154.29 270.039L154.29 272.039"/>
	<path fill="none" stroke="black" stroke-width="1" stroke-miterlimit="4" d="M164.396 270.039L164.396 272.039"/>
	<path fill="none" stroke="black" stroke-width="1" stroke-miterlimit="4" d="M169.45 270.039L169.45 272.039"/>
	<path fill="none" stroke="black" stroke-width="1" stroke-miterlimit="4" d="M174.503 270.039L174.503 272.039"/>
	<path fill="none" stroke="black" stroke-width="1" stroke-miterlimit="4" d="M179.556 270.039L179.556 272.039"/>
	<path fill="none" stroke="black" stroke-width="1" stroke-miterlimit="4" d="M189.663 270.039L189.663 272.039"/>
	<path fill="none" stroke="black" stroke-width="1" stroke-miterlimit="4" d="M194.716 270.039L194.716 272.039"/>
	<path fill="none" stroke="black" stroke-width="1" stroke-miterlimit="4" d="M199.769 270.039L199.769 272.039"/>
	<path fill="none" stroke="black" stroke-width="1" stroke-miterlimit="4" d="M204.823 270.039L204.823 272.039"/>
	<path fill="none" stroke="black" stroke-width="1" stroke-miterlimit="4" d="M214.929 270.039L214.929 272.039"/>
	<path fill="none" stroke="black" stroke-width="1" stroke-miterlimit="4" d="M219.982 270.039L219.982 272.039"/>
	<path fill="none" stroke="black" stroke-width="1" stroke-miterlimit="4" d="M225.036 270.039L225.036 272.039"/>
	<path fill="none" stroke="black" stroke-width="1" stroke-miterlimit="4" d="M230.089 270.039L230.089 272.039"/>
	<path fill="none" stroke="black" stroke-width="1" stroke-miterlimit="4" d="M240.196 270.039L240.196 272.039"/>
	<path fill="none" stroke="black" stroke-width="1" stroke-miterlimit="4" d="M245.249 270.039L245.249 272.039"/>
	<path fill="none" stroke="black" stroke-width="1" stroke-miterlimit="4" d="M250.302 270.039L250.302 272.039"/>
	<path fill="none" stroke="black" stroke-width="1" stroke-miterlimit="4" d="M255.355 270.039L255.355 272.039"/>
	<path fill="none" stroke="black" stroke-width="1" stroke-miterlimit="4" d="M265.462 270.039L265.462 272.039"/>
	<path fill="none" stroke="black" stroke-width="1" stroke-miterlimit="4" d="M270.515 270.039L270.515 272.039"/>
	<path fill="none" stroke="black" stroke-width="1" stroke-miterlimit="4" d="M275.569 270.039L275.569 272.039"/>
	<path fill="none" stroke="black" stroke-width="1" stroke-miterlimit="4" d="M280.622 270.039L280.622 272.039"/>
	<path fill="none" stroke="black" stroke-width="1" stroke-miterlimit="4" d="M290.729 270.039L290.729 272.039"/>
	<path fill="none" stroke="black" stroke-width="1" stroke-miterlimit="4" d="M295.782 270.039L295.782 272.039"/>
	<path fill="none" stroke="black" stroke-width="1" stroke-miterlimit="4" d="M300.835 270.039L300.835 272.039"/>
	<path fill="none" stroke="black" stroke-width="1" stroke-miterlimit="4" d="M305.888 270.039L305.888 272.039"/>
	<path fill="none" stroke="black" stroke-width="1" stroke-miterlimit="4" d="M315.995 270.039L315.995 272.039"/>
	<path fill="none" stroke="black" stroke-width="1" stroke-miterlimit="4" d="M321.048 270.039L321.048 272.039"/>
	<path fill="none" stroke="black" stroke-width="1" stroke-miterlimit="4" d="M326.102 270.039L326.102 272.039"/>
	<path fill="none" stroke="black" stroke-width="1" stroke-miterlimit="4" d="M331.155 270.039L331.155 272.039"/>
	<path fill="none" stroke="black" stroke-width="1" stroke-miterlimit="4" d="M341.261 270.039L341.261 272.039"/>
	<path fill="none" stroke="black" stroke-width="1" stroke-miterlimit="4" d="M346.315 270.039L346.315 272.039"/>
	<path fill="none" stroke="black" stroke-width="1" stroke-miterlimit="4" d="M351.368 270.039L351.368 272.039"/>
	<path fill="none" stroke="black" stroke-width="1" stroke-miterlimit="4" d="M356.421 270.039L356.421 272.039"/>
	<path fill="none" stroke="black" stroke-width="1" stroke-miterlimit="4" d="M366.528 270.039L366.528 272.039"/>
	<path fill="none" stroke="black" stroke-width="1" stroke-miterlimit="4" d="M371.581 270.039L371.581 272.039"/>
	<path fill="none" stroke="black" stroke-width="1" stroke-miterlimit="4" d="M376.634 270.039L376.634 272.039"/>
	<path fill="none" stroke="black" stroke-width="1" stroke-miterlimit="4" d="M381.688 270.039L381.688 272.039"/>
	<path fill="none" stroke="black" stroke-width="1" stroke-miterlimit="4" d="M391.794 270.039L391.794 272.039"/>
	<path fill="none" stroke="black" stroke-width="1" stroke-miterlimit="4" d="M396.848 270.039L396.848 272.039"/>
	<path fill="none" stroke="black" stroke-width="1" stroke-miterlimit="4" d="M401.901 270.039L401.901 272.039"/>
	<path fill="none" stroke="black" stroke-width="1" stroke-miterlimit="4" d="M406.954 270.039L406.954 272.039"/>
	<path fill="none" stroke="black" stroke-width="1" stroke-miterlimit="4" d="M417.061 270.039L417.061 272.039"/>
	<path fill="none" stroke="black" stroke-width="1" stroke-miterlimit="4" d="M422.114 270.039L422.114 272.039"/>
	<path fill="none" stroke="black" stroke-width="1" stroke-miterlimit="4" d="M427.167 270.039L427.167 272.039"/>
	<path fill="none" stroke="black" stroke-width="1" stroke-miterlimit="4" d="M432.221 270.039L432.221 272.039"/>
	<path fill="none" stroke="black" stroke-width="1" stroke-miterlimit="4" d="M40.3379 270.039L435 270.039"/>
	<path fill="none" stroke="black" stroke-width="1" stroke-miterlimit="4" d="M40.3379 46.3812L435 46.3812"/>
	<path fill="none" stroke="black" stroke-width="1" stroke-miterlimit="4" d="M40.3379 234.965L36.3379 234.965"/>
	<text transform="translate(31.3379 234.965)" font-size="12" font-family="Segoe UI" x="-20.337891, -15.539063, -9.0703125, -6.46875, " y="3.046875, ">
			-0.4
	</text>
	<path fill="none" stroke="black" stroke-width="1" stroke-miterlimit="4" d="M40.3379 194.002L36.3379 194.002"/>
	<text transform="translate(31.3379 194.002)" font-size="12" font-family="Segoe UI" x="-20.337891, -15.539063, -9.0703125, -6.46875, " y="3.046875, ">
			-0.2
	</text>
	<path fill="none" stroke="black" stroke-width="1" stroke-miterlimit="4" d="M40.3379 153.04L36.3379 153.04"/>
	<text transform="translate(31.3379 153.04)" font-size="12" font-family="Segoe UI" x="-6.46875, " y="3.046875, ">
			0
	</text>
	<path fill="none" stroke="black" stroke-width="1" stroke-miterlimit="4" d="M40.3379 112.077L36.3379 112.077"/>
	<text transform="translate(31.3379 112.077)" font-size="12" font-family="Segoe UI" x="-15.539063, -9.0703125, -6.46875, " y="3.046875, ">
			0.2
	</text>
	<path fill="none" stroke="black" stroke-width="1" stroke-miterlimit="4" d="M40.3379 71.1148L36.3379 71.1148"/>
	<text transform="translate(31.3379 71.1148)" font-size="12" font-family="Segoe UI" x="-15.539063, -9.0703125, -6.46875, " y="3.046875, ">
			0.4
	</text>
	<path fill="none" stroke="black" stroke-width="1" stroke-miterlimit="4" d="M40.3379 267.735L38.3379 267.735"/>
	<path fill="none" stroke="black" stroke-width="1" stroke-miterlimit="4" d="M40.3379 259.542L38.3379 259.542"/>
	<path fill="none" stroke="black" stroke-width="1" stroke-miterlimit="4" d="M40.3379 251.35L38.3379 251.35"/>
	<path fill="none" stroke="black" stroke-width="1" stroke-miterlimit="4" d="M40.3379 243.157L38.3379 243.157"/>
	<path fill="none" stroke="black" stroke-width="1" stroke-miterlimit="4" d="M40.3379 226.772L38.3379 226.772"/>
	<path fill="none" stroke="black" stroke-width="1" stroke-miterlimit="4" d="M40.3379 218.58L38.3379 218.58"/>
	<path fill="none" stroke="black" stroke-width="1" stroke-miterlimit="4" d="M40.3379 210.387L38.3379 210.387"/>
	<path fill="none" stroke="black" stroke-width="1" stroke-miterlimit="4" d="M40.3379 202.195L38.3379 202.195"/>
	<path fill="none" stroke="black" stroke-width="1" stroke-miterlimit="4" d="M40.3379 185.81L38.3379 185.81"/>
	<path fill="none" stroke="black" stroke-width="1" stroke-miterlimit="4" d="M40.3379 177.617L38.3379 177.617"/>
	<path fill="none" stroke="black" stroke-width="1" stroke-miterlimit="4" d="M40.3379 169.425L38.3379 169.425"/>
	<path fill="none" stroke="black" stroke-width="1" stroke-miterlimit="4" d="M40.3379 161.232L38.3379 161.232"/>
	<path fill="none" stroke="black" stroke-width="1" stroke-miterlimit="4" d="M40.3379 144.847L38.3379 144.847"/>
	<path fill="none" stroke="black" stroke-width="1" stroke-miterlimit="4" d="M40.3379 136.655L38.3379 136.655"/>
	<path fill="none" stroke="black" stroke-width="1" stroke-miterlimit="4" d="M40.3379 128.462L38.3379 128.462"/>
	<path fill="none" stroke="black" stroke-width="1" stroke-miterlimit="4" d="M40.3379 120.27L38.3379 120.27"/>
	<path fill="none" stroke="black" stroke-width="1" stroke-miterlimit="4" d="M40.3379 103.885L38.3379 103.885"/>
	<path fill="none" stroke="black" stroke-width="1" stroke-miterlimit="4" d="M40.3379 95.6923L38.3379 95.6923"/>
	<path fill="none" stroke="black" stroke-width="1" stroke-miterlimit="4" d="M40.3379 87.4998L38.3379 87.4998"/>
	<path fill="none" stroke="black" stroke-width="1" stroke-miterlimit="4" d="M40.3379 79.3073L38.3379 79.3073"/>
	<path fill="none" stroke="black" stroke-width="1" stroke-miterlimit="4" d="M40.3379 62.9223L38.3379 62.9223"/>
	<path fill="none" stroke="black" stroke-width="1" stroke-miterlimit="4" d="M40.3379 54.7298L38.3379 54.7298"/>
	<path fill="none" stroke="black" stroke-width="1" stroke-miterlimit="4" d="M40.3379 46.5373L38.3379 46.5373"/>
	<path fill="none" stroke="black" stroke-width="1" stroke-miterlimit="4" d="M40.3379 270.039L40.3379 46.2813"/>
	<path fill="none" stroke="black" stroke-width="1" stroke-miterlimit="4" d="M435 270.039L435 46.2813"/>
	<text transform="translate(237.669 31.2813)" font-size="16" font-weight="600" font-family="Segoe UI" x="-67.554688, -51.476563, -41.84375, -37.296875, -31.070313, -22.414063, -18, -11.53125, -7.1171875, 2.2578125, 10.773438, 26.085938, 37.335938, 43.242188, 52.445313, 61.648438, " y="-6.890625, ">
			White - TEMA(10)
	</text>
</svg>
