<?xml version="1.0" encoding="utf-8" ?>
<svg xmlns="http://www.w3.org/2000/svg" xmlns:xlink="http://www.w3.org/1999/xlink" width="450" height="300">
	<rect fill="white" width="450" height="300"/>
	<path fill="none" stroke="#010101" stroke-width="1" stroke-miterlimit="4" stroke-opacity="0.098039217" d="M58.2771 270.039L58.2771 46.2813M83.5435 270.039L83.5435 46.2813M108.81 270.039L108.81 46.2813M134.076 270.039L134.076 46.2813M159.343 270.039L159.343 46.2813M184.609 270.039L184.609 46.2813M209.876 270.039L209.876 46.2813M235.142 270.039L235.142 46.2813M260.409 270.039L260.409 46.2813M285.675 270.039L285.675 46.2813M310.942 270.039L310.942 46.2813M336.208 270.039L336.208 46.2813M361.475 270.039L361.475 46.2813M386.741 270.039L386.741 46.2813M412.008 270.039L412.008 46.2813"/>
	<path fill="none" stroke="#010101" stroke-width="1" stroke-miterlimit="4" stroke-opacity="0.098039217" d="M40.3379 264.804L435 264.804M40.3379 233.612L435 233.612M40.3379 202.421L435 202.421M40.3379 171.23L435 171.23M40.3379 140.039L435 140.039M40.3379 108.848L435 108.848M40.3379 77.6564L435 77.6564M40.3379 46.4652L435 46.4652"/>
	<clipPath id="cl_c1">
		<rect x="40.337891" y="46.28125" width="394.66211" height="223.75781"/>
	</clipPath>
	<g clip-path="url(#cl_c1)">
		<path fill="none" stroke="red" stroke-width="2" stroke-miterlimit="4" d="M58.2771 171.23L58.2771 171.23L63.3304 170.606L68.3837 171.23L73.437 170.606L78.4902 171.23L83.5435 170.606L88.5968 90.1328L93.6501 152.515L98.7034 201.173L103.757 239.851L108.81 242.346L113.863 173.101L118.917 101.986L123.97 111.343L129.023 131.929L134.076 184.33L139.13 231.741L144.183 216.769L149.236 211.779L154.29 174.973L159.343 139.415L164.396 103.857L169.45 109.471L174.503 126.315L179.556 163.744L184.609 193.064L189.663 241.098L194.716 246.713L199.769 234.86L204.823 225.503L209.876 163.744L214.929 163.12L219.982 156.258L225.036 92.6281L230.089 81.3993L235.142 135.048L240.196 111.967L245.249 222.383L250.302 213.65L255.355 232.365L260.409 238.603L265.462 244.217L270.515 213.026L275.569 174.973L280.622 167.487L285.675 133.801L290.729 128.186L295.782 196.807L300.835 88.2614L305.888 93.8758L310.942 110.095L315.995 108.224L321.048 120.7L326.102 143.158L331.155 189.945L336.208 188.697L341.261 247.336L346.315 190.568L351.368 255.446L356.421 219.264L361.475 241.722L366.528 202.421L371.581 179.34L376.634 179.34L381.688 191.192L386.741 189.321L391.794 152.515L396.848 95.1234L401.901 124.443L406.954 63.3084L412.008 72.042L417.061 72.6658"/>
		<ellipse fill="red" cx="58.277077" cy="171.22995" rx="0.40212631" ry="0.40213013"/>
		<ellipse fill="red" cx="63.330368" cy="170.60612" rx="0.40212631" ry="0.40213013"/>
		<ellipse fill="red" cx="68.383659" cy="171.22995" rx="0.4021225" ry="0.40213013"/>
		<ellipse fill="red" cx="73.436951" cy="170.60612" rx="0.4021225" ry="0.40213013"/>
		<ellipse fill="red" cx="78.49025" cy="171.22995" rx="0.4021225" ry="0.40213013"/>
		<ellipse fill="red" cx="83.543533" cy="170.60612" rx="0.4021225" ry="0.40213013"/>
		<ellipse fill="red" cx="88.596832" cy="90.132843" rx="0.4021225" ry="0.4021225"/>
		<ellipse fill="red" cx="93.650124" cy="152.51523" rx="0.4021225" ry="0.40213013"/>
		<ellipse fill="red" cx="98.703415" cy="201.17349" rx="0.4021225" ry="0.40213013"/>
		<ellipse fill="red" cx="103.75671" cy="239.85057" rx="0.4021225" ry="0.40213013"/>
		<ellipse fill="red" cx="108.81" cy="242.34586" rx="0.4021225" ry="0.40213013"/>
		<ellipse fill="red" cx="113.86329" cy="173.10141" rx="0.4021225" ry="0.40213013"/>
		<ellipse fill="red" cx="118.91658" cy="101.9855" rx="0.4021225" ry="0.4021225"/>
		<ellipse fill="red" cx="123.96987" cy="111.34286" rx="0.4021225" ry="0.4021225"/>
		<ellipse fill="red" cx="129.02316" cy="131.92905" rx="0.40213013" ry="0.40213013"/>
		<ellipse fill="red" cx="134.07646" cy="184.33025" rx="0.40213013" ry="0.40213013"/>
		<ellipse fill="red" cx="139.12976" cy="231.74086" rx="0.40213013" ry="0.40213013"/>
		<ellipse fill="red" cx="144.18304" cy="216.76909" rx="0.40213013" ry="0.40213013"/>
		<ellipse fill="red" cx="149.23633" cy="211.7785" rx="0.40213013" ry="0.40213013"/>
		<ellipse fill="red" cx="154.28963" cy="174.9729" rx="0.40213013" ry="0.40213013"/>
		<ellipse fill="red" cx="159.34293" cy="139.41493" rx="0.40213013" ry="0.40213013"/>
		<ellipse fill="red" cx="164.39621" cy="103.85698" rx="0.40213013" ry="0.4021225"/>
		<ellipse fill="red" cx="169.44951" cy="109.47139" rx="0.40213013" ry="0.4021225"/>
		<ellipse fill="red" cx="174.50279" cy="126.31464" rx="0.40213013" ry="0.4021225"/>
		<ellipse fill="red" cx="179.55609" cy="163.74406" rx="0.40213013" ry="0.40213013"/>
		<ellipse fill="red" cx="184.60938" cy="193.06378" rx="0.40213013" ry="0.40213013"/>
		<ellipse fill="red" cx="189.66267" cy="241.09821" rx="0.40213013" ry="0.40213013"/>
		<ellipse fill="red" cx="194.71596" cy="246.71263" rx="0.40213013" ry="0.40213013"/>
		<ellipse fill="red" cx="199.76926" cy="234.85997" rx="0.40213013" ry="0.40213013"/>
		<ellipse fill="red" cx="204.82254" cy="225.50262" rx="0.40213013" ry="0.40213013"/>
		<ellipse fill="red" cx="209.87584" cy="163.74406" rx="0.40213013" ry="0.40213013"/>
		<ellipse fill="red" cx="214.92914" cy="163.12024" rx="0.40213013" ry="0.40213013"/>
		<ellipse fill="red" cx="219.98242" cy="156.25818" rx="0.40213013" ry="0.40213013"/>
		<ellipse fill="red" cx="225.03572" cy="92.628143" rx="0.40213013" ry="0.4021225"/>
		<ellipse fill="red" cx="230.089" cy="81.399323" rx="0.40213013" ry="0.4021225"/>
		<ellipse fill="red" cx="235.1423" cy="135.04817" rx="0.40213013" ry="0.40213013"/>
		<ellipse fill="red" cx="240.19559" cy="111.96669" rx="0.40213013" ry="0.4021225"/>
		<ellipse fill="red" cx="245.24889" cy="222.3835" rx="0.40213013" ry="0.40213013"/>
		<ellipse fill="red" cx="250.30217" cy="213.64996" rx="0.40213013" ry="0.40213013"/>
		<ellipse fill="red" cx="255.35547" cy="232.36469" rx="0.40213013" ry="0.40213013"/>
		<ellipse fill="red" cx="260.40875" cy="238.60292" rx="0.40213013" ry="0.40213013"/>
		<ellipse fill="red" cx="265.46204" cy="244.21733" rx="0.40213013" ry="0.40213013"/>
		<ellipse fill="red" cx="270.51535" cy="213.02614" rx="0.40213013" ry="0.40213013"/>
		<ellipse fill="red" cx="275.56863" cy="174.9729" rx="0.40213013" ry="0.40213013"/>
		<ellipse fill="red" cx="280.62195" cy="167.487" rx="0.40213013" ry="0.40213013"/>
		<ellipse fill="red" cx="285.67523" cy="133.80052" rx="0.40213013" ry="0.40213013"/>
		<ellipse fill="red" cx="290.72852" cy="128.1861" rx="0.40213013" ry="0.40212631"/>
		<ellipse fill="red" cx="295.7818" cy="196.80673" rx="0.40213013" ry="0.40213013"/>
		<ellipse fill="red" cx="300.83508" cy="88.261383" rx="0.40213013" ry="0.4021225"/>
		<ellipse fill="red" cx="305.8884" cy="93.875793" rx="0.40213013" ry="0.4021225"/>
		<ellipse fill="red" cx="310.94168" cy="110.09521" rx="0.40213013" ry="0.4021225"/>
		<ellipse fill="red" cx="315.99496" cy="108.22374" rx="0.40213013" ry="0.4021225"/>
		<ellipse fill="red" cx="321.04828" cy="120.70021" rx="0.40213013" ry="0.4021225"/>
		<ellipse fill="red" cx="326.10156" cy="143.15787" rx="0.40213013" ry="0.40213013"/>
		<ellipse fill="red" cx="331.15485" cy="189.94467" rx="0.40213013" ry="0.40213013"/>
		<ellipse fill="red" cx="336.20813" cy="188.69702" rx="0.40213013" ry="0.40213013"/>
		<ellipse fill="red" cx="341.26144" cy="247.33646" rx="0.40213013" ry="0.40213013"/>
		<ellipse fill="red" cx="346.31473" cy="190.56848" rx="0.40213013" ry="0.40213013"/>
		<ellipse fill="red" cx="351.36801" cy="255.44617" rx="0.40213013" ry="0.40213013"/>
		<ellipse fill="red" cx="356.4213" cy="219.26437" rx="0.40213013" ry="0.40213013"/>
		<ellipse fill="red" cx="361.47461" cy="241.72205" rx="0.40213013" ry="0.40213013"/>
		<ellipse fill="red" cx="366.52789" cy="202.42114" rx="0.40213013" ry="0.40213013"/>
		<ellipse fill="red" cx="371.58118" cy="179.33966" rx="0.40213013" ry="0.40213013"/>
		<ellipse fill="red" cx="376.63449" cy="179.33966" rx="0.40213013" ry="0.40213013"/>
		<ellipse fill="red" cx="381.68777" cy="191.19231" rx="0.40213013" ry="0.40213013"/>
		<ellipse fill="red" cx="386.74106" cy="189.32083" rx="0.40213013" ry="0.40213013"/>
		<ellipse fill="red" cx="391.79434" cy="152.51523" rx="0.40213013" ry="0.40213013"/>
		<ellipse fill="red" cx="396.84766" cy="95.123444" rx="0.40213013" ry="0.4021225"/>
		<ellipse fill="red" cx="401.90094" cy="124.44316" rx="0.40213013" ry="0.4021225"/>
		<ellipse fill="red" cx="406.95422" cy="63.308426" rx="0.40213013" ry="0.40212631"/>
		<ellipse fill="red" cx="412.00751" cy="72.041962" rx="0.40213013" ry="0.4021225"/>
		<ellipse fill="red" cx="417.06082" cy="72.665787" rx="0.40213013" ry="0.4021225"/>
	</g>
	<clipPath id="cl_c2">
		<rect x="40.337891" y="46.28125" width="394.66211" height="223.75781"/>
	</clipPath>
	<g clip-path="url(#cl_c2)">
		<path fill="none" stroke="blue" stroke-width="4" stroke-miterlimit="4" d="M58.2771 171.005L58.2771 171.005L63.3304 170.835L68.3837 171.004L73.437 170.835L78.4902 171.004L83.5435 170.834L88.5968 134.265L93.6501 138.393L98.7034 163.735L103.757 198.423L108.81 222.445L113.863 206.407L118.917 162.753L123.97 137.635L129.023 130.592L134.076 150.257L139.13 185.345L144.183 202.013L149.236 210.439L154.29 198.799L159.343 174.397L164.396 141.825L169.45 122.912L174.503 118.615L179.556 133.525L184.609 157.429L189.663 195.41L194.716 223.065L199.769 235.386L204.823 238.327L209.876 211.28L214.929 192.15L219.982 175.971L225.036 136.428L230.089 105.426L235.142 110.024L240.196 103.841L245.249 150.711L250.302 178.715L255.355 205.81L260.409 226.193L265.462 241.459L270.515 236.452L275.569 214.813L280.622 196.222L285.675 168.244L290.729 147.117L295.782 164.557L300.835 127.643L305.888 106.114L310.942 100.1L315.995 96.3982L321.048 100.684L326.102 114.692L331.155 145.937L336.208 166.516L341.261 206.571L346.315 206.96L351.368 235.563L356.421 237.192L361.475 247.165L366.528 234.832L371.581 215.071L376.634 201.179L381.688 196.94L386.741 193.15L391.794 173.948L396.848 135.333L401.901 123.424L406.954 88.8309L412.008 70.9473L417.061 60.8741"/>
		<ellipse fill="blue" cx="58.277077" cy="171.00497" rx="0.40212631" ry="0.40213013"/>
		<ellipse fill="blue" cx="63.330368" cy="170.83478" rx="0.40212631" ry="0.40213013"/>
		<ellipse fill="blue" cx="68.383659" cy="171.00441" rx="0.4021225" ry="0.40213013"/>
		<ellipse fill="blue" cx="73.436951" cy="170.83456" rx="0.4021225" ry="0.40213013"/>
		<ellipse fill="blue" cx="78.49025" cy="171.00397" rx="0.4021225" ry="0.40213013"/>
		<ellipse fill="blue" cx="83.543533" cy="170.83435" rx="0.4021225" ry="0.40213013"/>
		<ellipse fill="blue" cx="88.596832" cy="134.26515" rx="0.4021225" ry="0.40213013"/>
		<ellipse fill="blue" cx="93.650124" cy="138.39336" rx="0.4021225" ry="0.40213013"/>
		<ellipse fill="blue" cx="98.703415" cy="163.73485" rx="0.4021225" ry="0.40213013"/>
		<ellipse fill="blue" cx="103.75671" cy="198.42258" rx="0.4021225" ry="0.40213013"/>
		<ellipse fill="blue" cx="108.81" cy="222.44513" rx="0.4021225" ry="0.40213013"/>
		<ellipse fill="blue" cx="113.86329" cy="206.40662" rx="0.4021225" ry="0.40213013"/>
		<ellipse fill="blue" cx="118.91658" cy="162.75348" rx="0.4021225" ry="0.40213013"/>
		<ellipse fill="blue" cx="123.96987" cy="137.63522" rx="0.4021225" ry="0.40213013"/>
		<ellipse fill="blue" cx="129.02316" cy="130.59245" rx="0.40213013" ry="0.40213013"/>
		<ellipse fill="blue" cx="134.07646" cy="150.25652" rx="0.40213013" ry="0.40213013"/>
		<ellipse fill="blue" cx="139.12976" cy="185.34497" rx="0.40213013" ry="0.40213013"/>
		<ellipse fill="blue" cx="144.18304" cy="202.01256" rx="0.40213013" ry="0.40213013"/>
		<ellipse fill="blue" cx="149.23633" cy="210.43863" rx="0.40213013" ry="0.40213013"/>
		<ellipse fill="blue" cx="154.28963" cy="198.79868" rx="0.40213013" ry="0.40213013"/>
		<ellipse fill="blue" cx="159.34293" cy="174.39746" rx="0.40213013" ry="0.40213013"/>
		<ellipse fill="blue" cx="164.39621" cy="141.82483" rx="0.40213013" ry="0.40213013"/>
		<ellipse fill="blue" cx="169.44951" cy="122.9117" rx="0.40213013" ry="0.4021225"/>
		<ellipse fill="blue" cx="174.50279" cy="118.61545" rx="0.40213013" ry="0.4021225"/>
		<ellipse fill="blue" cx="179.55609" cy="133.5246" rx="0.40213013" ry="0.40213013"/>
		<ellipse fill="blue" cx="184.60938" cy="157.42857" rx="0.40213013" ry="0.40213013"/>
		<ellipse fill="blue" cx="189.66267" cy="195.40985" rx="0.40213013" ry="0.40213013"/>
		<ellipse fill="blue" cx="194.71596" cy="223.06525" rx="0.40213013" ry="0.40213013"/>
		<ellipse fill="blue" cx="199.76926" cy="235.38605" rx="0.40213013" ry="0.40213013"/>
		<ellipse fill="blue" cx="204.82254" cy="238.32678" rx="0.40213013" ry="0.40213013"/>
		<ellipse fill="blue" cx="209.87584" cy="211.28021" rx="0.40213013" ry="0.40213013"/>
		<ellipse fill="blue" cx="214.92914" cy="192.1496" rx="0.40213013" ry="0.40213013"/>
		<ellipse fill="blue" cx="219.98242" cy="175.9715" rx="0.40213013" ry="0.40213013"/>
		<ellipse fill="blue" cx="225.03572" cy="136.42809" rx="0.40213013" ry="0.40213013"/>
		<ellipse fill="blue" cx="230.089" cy="105.42566" rx="0.40213013" ry="0.4021225"/>
		<ellipse fill="blue" cx="235.1423" cy="110.02385" rx="0.40213013" ry="0.4021225"/>
		<ellipse fill="blue" cx="240.19559" cy="103.84142" rx="0.40213013" ry="0.4021225"/>
		<ellipse fill="blue" cx="245.24889" cy="150.71072" rx="0.40213013" ry="0.40213013"/>
		<ellipse fill="blue" cx="250.30217" cy="178.71513" rx="0.40213013" ry="0.40213013"/>
		<ellipse fill="blue" cx="255.35547" cy="205.80991" rx="0.40213013" ry="0.40213013"/>
		<ellipse fill="blue" cx="260.40875" cy="226.19272" rx="0.40213013" ry="0.40213013"/>
		<ellipse fill="blue" cx="265.46204" cy="241.45905" rx="0.40213013" ry="0.40213013"/>
		<ellipse fill="blue" cx="270.51535" cy="236.45152" rx="0.40213013" ry="0.40213013"/>
		<ellipse fill="blue" cx="275.56863" cy="214.81345" rx="0.40213013" ry="0.40213013"/>
		<ellipse fill="blue" cx="280.62195" cy="196.22195" rx="0.40213013" ry="0.40213013"/>
		<ellipse fill="blue" cx="285.67523" cy="168.24396" rx="0.40213013" ry="0.40213013"/>
		<ellipse fill="blue" cx="290.72852" cy="147.11714" rx="0.40213013" ry="0.40213013"/>
		<ellipse fill="blue" cx="295.7818" cy="164.55681" rx="0.40213013" ry="0.40213013"/>
		<ellipse fill="blue" cx="300.83508" cy="127.64337" rx="0.40213013" ry="0.40212631"/>
		<ellipse fill="blue" cx="305.8884" cy="106.11417" rx="0.40213013" ry="0.4021225"/>
		<ellipse fill="blue" cx="310.94168" cy="100.09967" rx="0.40213013" ry="0.4021225"/>
		<ellipse fill="blue" cx="315.99496" cy="96.398178" rx="0.40213013" ry="0.4021225"/>
		<ellipse fill="blue" cx="321.04828" cy="100.68356" rx="0.40213013" ry="0.4021225"/>
		<ellipse fill="blue" cx="326.10156" cy="114.692" rx="0.40213013" ry="0.4021225"/>
		<ellipse fill="blue" cx="331.15485" cy="145.93718" rx="0.40213013" ry="0.40213013"/>
		<ellipse fill="blue" cx="336.20813" cy="166.51648" rx="0.40213013" ry="0.40213013"/>
		<ellipse fill="blue" cx="341.26144" cy="206.57147" rx="0.40213013" ry="0.40213013"/>
		<ellipse fill="blue" cx="346.31473" cy="206.96036" rx="0.40213013" ry="0.40213013"/>
		<ellipse fill="blue" cx="351.36801" cy="235.5632" rx="0.40213013" ry="0.40213013"/>
		<ellipse fill="blue" cx="356.4213" cy="237.19168" rx="0.40213013" ry="0.40213013"/>
		<ellipse fill="blue" cx="361.47461" cy="247.16516" rx="0.40213013" ry="0.40213013"/>
		<ellipse fill="blue" cx="366.52789" cy="234.83173" rx="0.40213013" ry="0.40213013"/>
		<ellipse fill="blue" cx="371.58118" cy="215.07143" rx="0.40213013" ry="0.40213013"/>
		<ellipse fill="blue" cx="376.63449" cy="201.17871" rx="0.40213013" ry="0.40213013"/>
		<ellipse fill="blue" cx="381.68777" cy="196.94009" rx="0.40213013" ry="0.40213013"/>
		<ellipse fill="blue" cx="386.74106" cy="193.14963" rx="0.40213013" ry="0.40213013"/>
		<ellipse fill="blue" cx="391.79434" cy="173.94849" rx="0.40213013" ry="0.40213013"/>
		<ellipse fill="blue" cx="396.84766" cy="135.33269" rx="0.40213013" ry="0.40213013"/>
		<ellipse fill="blue" cx="401.90094" cy="123.42416" rx="0.40213013" ry="0.4021225"/>
		<ellipse fill="blue" cx="406.95422" cy="88.830933" rx="0.40213013" ry="0.4021225"/>
		<ellipse fill="blue" cx="412.00751" cy="70.947342" rx="0.40213013" ry="0.4021225"/>
		<ellipse fill="blue" cx="417.06082" cy="60.874146" rx="0.40213013" ry="0.40212631"/>
	</g>
	<path fill="none" stroke="black" stroke-width="1" stroke-miterlimit="4" d="M58.2771 270.039L58.2771 274.039"/>
	<text transform="translate(58.2771 276.039)" font-size="12" font-family="Segoe UI" x="-3.234375, " y="11.027344, ">
			0
	</text>
	<path fill="none" stroke="black" stroke-width="1" stroke-miterlimit="4" d="M83.5435 270.039L83.5435 274.039"/>
	<text transform="translate(83.5435 276.039)" font-size="12" font-family="Segoe UI" x="-3.234375, " y="11.027344, ">
			5
	</text>
	<path fill="none" stroke="black" stroke-width="1" stroke-miterlimit="4" d="M108.81 270.039L108.81 274.039"/>
	<text transform="translate(108.81 276.039)" font-size="12" font-family="Segoe UI" x="-6.46875, 0, " y="11.027344, ">
			10
	</text>
	<path fill="none" stroke="black" stroke-width="1" stroke-miterlimit="4" d="M134.076 270.039L134.076 274.039"/>
	<text transform="translate(134.076 276.039)" font-size="12" font-family="Segoe UI" x="-6.46875, 0, " y="11.027344, ">
			15
	</text>
	<path fill="none" stroke="black" stroke-width="1" stroke-miterlimit="4" d="M159.343 270.039L159.343 274.039"/>
	<text transform="translate(159.343 276.039)" font-size="12" font-family="Segoe UI" x="-6.46875, 0, " y="11.027344, ">
			20
	</text>
	<path fill="none" stroke="black" stroke-width="1" stroke-miterlimit="4" d="M184.609 270.039L184.609 274.039"/>
	<text transform="translate(184.609 276.039)" font-size="12" font-family="Segoe UI" x="-6.46875, 0, " y="11.027344, ">
			25
	</text>
	<path fill="none" stroke="black" stroke-width="1" stroke-miterlimit="4" d="M209.876 270.039L209.876 274.039"/>
	<text transform="translate(209.876 276.039)" font-size="12" font-family="Segoe UI" x="-6.46875, 0, " y="11.027344, ">
			30
	</text>
	<path fill="none" stroke="black" stroke-width="1" stroke-miterlimit="4" d="M235.142 270.039L235.142 274.039"/>
	<text transform="translate(235.142 276.039)" font-size="12" font-family="Segoe UI" x="-6.46875, 0, " y="11.027344, ">
			35
	</text>
	<path fill="none" stroke="black" stroke-width="1" stroke-miterlimit="4" d="M260.409 270.039L260.409 274.039"/>
	<text transform="translate(260.409 276.039)" font-size="12" font-family="Segoe UI" x="-6.46875, 0, " y="11.027344, ">
			40
	</text>
	<path fill="none" stroke="black" stroke-width="1" stroke-miterlimit="4" d="M285.675 270.039L285.675 274.039"/>
	<text transform="translate(285.675 276.039)" font-size="12" font-family="Segoe UI" x="-6.46875, 0, " y="11.027344, ">
			45
	</text>
	<path fill="none" stroke="black" stroke-width="1" stroke-miterlimit="4" d="M310.942 270.039L310.942 274.039"/>
	<text transform="translate(310.942 276.039)" font-size="12" font-family="Segoe UI" x="-6.46875, 0, " y="11.027344, ">
			50
	</text>
	<path fill="none" stroke="black" stroke-width="1" stroke-miterlimit="4" d="M336.208 270.039L336.208 274.039"/>
	<text transform="translate(336.208 276.039)" font-size="12" font-family="Segoe UI" x="-6.46875, 0, " y="11.027344, ">
			55
	</text>
	<path fill="none" stroke="black" stroke-width="1" stroke-miterlimit="4" d="M361.475 270.039L361.475 274.039"/>
	<text transform="translate(361.475 276.039)" font-size="12" font-family="Segoe UI" x="-6.46875, 0, " y="11.027344, ">
			60
	</text>
	<path fill="none" stroke="black" stroke-width="1" stroke-miterlimit="4" d="M386.741 270.039L386.741 274.039"/>
	<text transform="translate(386.741 276.039)" font-size="12" font-family="Segoe UI" x="-6.46875, 0, " y="11.027344, ">
			65
	</text>
	<path fill="none" stroke="black" stroke-width="1" stroke-miterlimit="4" d="M412.008 270.039L412.008 274.039"/>
	<text transform="translate(412.008 276.039)" font-size="12" font-family="Segoe UI" x="-6.46875, 0, " y="11.027344, ">
			70
	</text>
	<path fill="none" stroke="black" stroke-width="1" stroke-miterlimit="4" d="M43.1172 270.039L43.1172 272.039"/>
	<path fill="none" stroke="black" stroke-width="1" stroke-miterlimit="4" d="M48.1705 270.039L48.1705 272.039"/>
	<path fill="none" stroke="black" stroke-width="1" stroke-miterlimit="4" d="M53.2238 270.039L53.2238 272.039"/>
	<path fill="none" stroke="black" stroke-width="1" stroke-miterlimit="4" d="M63.3304 270.039L63.3304 272.039"/>
	<path fill="none" stroke="black" stroke-width="1" stroke-miterlimit="4" d="M68.3837 270.039L68.3837 272.039"/>
	<path fill="none" stroke="black" stroke-width="1" stroke-miterlimit="4" d="M73.437 270.039L73.437 272.039"/>
	<path fill="none" stroke="black" stroke-width="1" stroke-miterlimit="4" d="M78.4902 270.039L78.4902 272.039"/>
	<path fill="none" stroke="black" stroke-width="1" stroke-miterlimit="4" d="M88.5968 270.039L88.5968 272.039"/>
	<path fill="none" stroke="black" stroke-width="1" stroke-miterlimit="4" d="M93.6501 270.039L93.6501 272.039"/>
	<path fill="none" stroke="black" stroke-width="1" stroke-miterlimit="4" d="M98.7034 270.039L98.7034 272.039"/>
	<path fill="none" stroke="black" stroke-width="1" stroke-miterlimit="4" d="M103.757 270.039L103.757 272.039"/>
	<path fill="none" stroke="black" stroke-width="1" stroke-miterlimit="4" d="M113.863 270.039L113.863 272.039"/>
	<path fill="none" stroke="black" stroke-width="1" stroke-miterlimit="4" d="M118.917 270.039L118.917 272.039"/>
	<path fill="none" stroke="black" stroke-width="1" stroke-miterlimit="4" d="M123.97 270.039L123.97 272.039"/>
	<path fill="none" stroke="black" stroke-width="1" stroke-miterlimit="4" d="M129.023 270.039L129.023 272.039"/>
	<path fill="none" stroke="black" stroke-width="1" stroke-miterlimit="4" d="M139.13 270.039L139.13 272.039"/>
	<path fill="none" stroke="black" stroke-width="1" stroke-miterlimit="4" d="M144.183 270.039L144.183 272.039"/>
	<path fill="none" stroke="black" stroke-width="1" stroke-miterlimit="4" d="M149.236 270.039L149.236 272.039"/>
	<path fill="none" stroke="black" stroke-width="1" stroke-miterlimit="4" d="M154.29 270.039L154.29 272.039"/>
	<path fill="none" stroke="black" stroke-width="1" stroke-miterlimit="4" d="M164.396 270.039L164.396 272.039"/>
	<path fill="none" stroke="black" stroke-width="1" stroke-miterlimit="4" d="M169.45 270.039L169.45 272.039"/>
	<path fill="none" stroke="black" stroke-width="1" stroke-miterlimit="4" d="M174.503 270.039L174.503 272.039"/>
	<path fill="none" stroke="black" stroke-width="1" stroke-miterlimit="4" d="M179.556 270.039L179.556 272.039"/>
	<path fill="none" stroke="black" stroke-width="1" stroke-miterlimit="4" d="M189.663 270.039L189.663 272.039"/>
	<path fill="none" stroke="black" stroke-width="1" stroke-miterlimit="4" d="M194.716 270.039L194.716 272.039"/>
	<path fill="none" stroke="black" stroke-width="1" stroke-miterlimit="4" d="M199.769 270.039L199.769 272.039"/>
	<path fill="none" stroke="black" stroke-width="1" stroke-miterlimit="4" d="M204.823 270.039L204.823 272.039"/>
	<path fill="none" stroke="black" stroke-width="1" stroke-miterlimit="4" d="M214.929 270.039L214.929 272.039"/>
	<path fill="none" stroke="black" stroke-width="1" stroke-miterlimit="4" d="M219.982 270.039L219.982 272.039"/>
	<path fill="none" stroke="black" stroke-width="1" stroke-miterlimit="4" d="M225.036 270.039L225.036 272.039"/>
	<path fill="none" stroke="black" stroke-width="1" stroke-miterlimit="4" d="M230.089 270.039L230.089 272.039"/>
	<path fill="none" stroke="black" stroke-width="1" stroke-miterlimit="4" d="M240.196 270.039L240.196 272.039"/>
	<path fill="none" stroke="black" stroke-width="1" stroke-miterlimit="4" d="M245.249 270.039L245.249 272.039"/>
	<path fill="none" stroke="black" stroke-width="1" stroke-miterlimit="4" d="M250.302 270.039L250.302 272.039"/>
	<path fill="none" stroke="black" stroke-width="1" stroke-miterlimit="4" d="M255.355 270.039L255.355 272.039"/>
	<path fill="none" stroke="black" stroke-width="1" stroke-miterlimit="4" d="M265.462 270.039L265.462 272.039"/>
	<path fill="none" stroke="black" stroke-width="1" stroke-miterlimit="4" d="M270.515 270.039L270.515 272.039"/>
	<path fill="none" stroke="black" stroke-width="1" stroke-miterlimit="4" d="M275.569 270.039L275.569 272.039"/>
	<path fill="none" stroke="black" stroke-width="1" stroke-miterlimit="4" d="M280.622 270.039L280.622 272.039"/>
	<path fill="none" stroke="black" stroke-width="1" stroke-miterlimit="4" d="M290.729 270.039L290.729 272.039"/>
	<path fill="none" stroke="black" stroke-width="1" stroke-miterlimit="4" d="M295.782 270.039L295.782 272.039"/>
	<path fill="none" stroke="black" stroke-width="1" stroke-miterlimit="4" d="M300.835 270.039L300.835 272.039"/>
	<path fill="none" stroke="black" stroke-width="1" stroke-miterlimit="4" d="M305.888 270.039L305.888 272.039"/>
	<path fill="none" stroke="black" stroke-width="1" stroke-miterlimit="4" d="M315.995 270.039L315.995 272.039"/>
	<path fill="none" stroke="black" stroke-width="1" stroke-miterlimit="4" d="M321.048 270.039L321.048 272.039"/>
	<path fill="none" stroke="black" stroke-width="1" stroke-miterlimit="4" d="M326.102 270.039L326.102 272.039"/>
	<path fill="none" stroke="black" stroke-width="1" stroke-miterlimit="4" d="M331.155 270.039L331.155 272.039"/>
	<path fill="none" stroke="black" stroke-width="1" stroke-miterlimit="4" d="M341.261 270.039L341.261 272.039"/>
	<path fill="none" stroke="black" stroke-width="1" stroke-miterlimit="4" d="M346.315 270.039L346.315 272.039"/>
	<path fill="none" stroke="black" stroke-width="1" stroke-miterlimit="4" d="M351.368 270.039L351.368 272.039"/>
	<path fill="none" stroke="black" stroke-width="1" stroke-miterlimit="4" d="M356.421 270.039L356.421 272.039"/>
	<path fill="none" stroke="black" stroke-width="1" stroke-miterlimit="4" d="M366.528 270.039L366.528 272.039"/>
	<path fill="none" stroke="black" stroke-width="1" stroke-miterlimit="4" d="M371.581 270.039L371.581 272.039"/>
	<path fill="none" stroke="black" stroke-width="1" stroke-miterlimit="4" d="M376.634 270.039L376.634 272.039"/>
	<path fill="none" stroke="black" stroke-width="1" stroke-miterlimit="4" d="M381.688 270.039L381.688 272.039"/>
	<path fill="none" stroke="black" stroke-width="1" stroke-miterlimit="4" d="M391.794 270.039L391.794 272.039"/>
	<path fill="none" stroke="black" stroke-width="1" stroke-miterlimit="4" d="M396.848 270.039L396.848 272.039"/>
	<path fill="none" stroke="black" stroke-width="1" stroke-miterlimit="4" d="M401.901 270.039L401.901 272.039"/>
	<path fill="none" stroke="black" stroke-width="1" stroke-miterlimit="4" d="M406.954 270.039L406.954 272.039"/>
	<path fill="none" stroke="black" stroke-width="1" stroke-miterlimit="4" d="M417.061 270.039L417.061 272.039"/>
	<path fill="none" stroke="black" stroke-width="1" stroke-miterlimit="4" d="M422.114 270.039L422.114 272.039"/>
	<path fill="none" stroke="black" stroke-width="1" stroke-miterlimit="4" d="M427.167 270.039L427.167 272.039"/>
	<path fill="none" stroke="black" stroke-width="1" stroke-miterlimit="4" d="M432.221 270.039L432.221 272.039"/>
	<path fill="none" stroke="black" stroke-width="1" stroke-miterlimit="4" d="M40.3379 270.039L435 270.039"/>
	<path fill="none" stroke="black" stroke-width="1" stroke-miterlimit="4" d="M40.3379 46.3812L435 46.3812"/>
	<path fill="none" stroke="black" stroke-width="1" stroke-miterlimit="4" d="M40.3379 264.804L36.3379 264.804"/>
	<text transform="translate(31.3379 264.804)" font-size="12" font-family="Segoe UI" x="-20.337891, -15.539063, -9.0703125, -6.46875, " y="3.046875, ">
			-1.5
	</text>
	<path fill="none" stroke="black" stroke-width="1" stroke-miterlimit="4" d="M40.3379 233.612L36.3379 233.612"/>
	<text transform="translate(31.3379 233.612)" font-size="12" font-family="Segoe UI" x="-11.267578, -6.46875, " y="3.046875, ">
			-1
	</text>
	<path fill="none" stroke="black" stroke-width="1" stroke-miterlimit="4" d="M40.3379 202.421L36.3379 202.421"/>
	<text transform="translate(31.3379 202.421)" font-size="12" font-family="Segoe UI" x="-20.337891, -15.539063, -9.0703125, -6.46875, " y="3.046875, ">
			-0.5
	</text>
	<path fill="none" stroke="black" stroke-width="1" stroke-miterlimit="4" d="M40.3379 171.23L36.3379 171.23"/>
	<text transform="translate(31.3379 171.23)" font-size="12" font-family="Segoe UI" x="-6.46875, " y="3.046875, ">
			0
	</text>
	<path fill="none" stroke="black" stroke-width="1" stroke-miterlimit="4" d="M40.3379 140.039L36.3379 140.039"/>
	<text transform="translate(31.3379 140.039)" font-size="12" font-family="Segoe UI" x="-15.539063, -9.0703125, -6.46875, " y="3.046875, ">
			0.5
	</text>
	<path fill="none" stroke="black" stroke-width="1" stroke-miterlimit="4" d="M40.3379 108.848L36.3379 108.848"/>
	<text transform="translate(31.3379 108.848)" font-size="12" font-family="Segoe UI" x="-6.46875, " y="3.046875, ">
			1
	</text>
	<path fill="none" stroke="black" stroke-width="1" stroke-miterlimit="4" d="M40.3379 77.6564L36.3379 77.6564"/>
	<text transform="translate(31.3379 77.6564)" font-size="12" font-family="Segoe UI" x="-15.539063, -9.0703125, -6.46875, " y="3.046875, ">
			1.5
	</text>
	<path fill="none" stroke="black" stroke-width="1" stroke-miterlimit="4" d="M40.3379 46.4652L36.3379 46.4652"/>
	<text transform="translate(31.3379 46.4652)" font-size="12" font-family="Segoe UI" x="-6.46875, " y="3.046875, ">
			2
	</text>
	<path fill="none" stroke="black" stroke-width="1" stroke-miterlimit="4" d="M40.3379 258.565L38.3379 258.565"/>
	<path fill="none" stroke="black" stroke-width="1" stroke-miterlimit="4" d="M40.3379 252.327L38.3379 252.327"/>
	<path fill="none" stroke="black" stroke-width="1" stroke-miterlimit="4" d="M40.3379 246.089L38.3379 246.089"/>
	<path fill="none" stroke="black" stroke-width="1" stroke-miterlimit="4" d="M40.3379 239.851L38.3379 239.851"/>
	<path fill="none" stroke="black" stroke-width="1" stroke-miterlimit="4" d="M40.3379 227.374L38.3379 227.374"/>
	<path fill="none" stroke="black" stroke-width="1" stroke-miterlimit="4" d="M40.3379 221.136L38.3379 221.136"/>
	<path fill="none" stroke="black" stroke-width="1" stroke-miterlimit="4" d="M40.3379 214.898L38.3379 214.898"/>
	<path fill="none" stroke="black" stroke-width="1" stroke-miterlimit="4" d="M40.3379 208.659L38.3379 208.659"/>
	<path fill="none" stroke="black" stroke-width="1" stroke-miterlimit="4" d="M40.3379 196.183L38.3379 196.183"/>
	<path fill="none" stroke="black" stroke-width="1" stroke-miterlimit="4" d="M40.3379 189.945L38.3379 189.945"/>
	<path fill="none" stroke="black" stroke-width="1" stroke-miterlimit="4" d="M40.3379 183.706L38.3379 183.706"/>
	<path fill="none" stroke="black" stroke-width="1" stroke-miterlimit="4" d="M40.3379 177.468L38.3379 177.468"/>
	<path fill="none" stroke="black" stroke-width="1" stroke-miterlimit="4" d="M40.3379 164.992L38.3379 164.992"/>
	<path fill="none" stroke="black" stroke-width="1" stroke-miterlimit="4" d="M40.3379 158.753L38.3379 158.753"/>
	<path fill="none" stroke="black" stroke-width="1" stroke-miterlimit="4" d="M40.3379 152.515L38.3379 152.515"/>
	<path fill="none" stroke="black" stroke-width="1" stroke-miterlimit="4" d="M40.3379 146.277L38.3379 146.277"/>
	<path fill="none" stroke="black" stroke-width="1" stroke-miterlimit="4" d="M40.3379 133.801L38.3379 133.801"/>
	<path fill="none" stroke="black" stroke-width="1" stroke-miterlimit="4" d="M40.3379 127.562L38.3379 127.562"/>
	<path fill="none" stroke="black" stroke-width="1" stroke-miterlimit="4" d="M40.3379 121.324L38.3379 121.324"/>
	<path fill="none" stroke="black" stroke-width="1" stroke-miterlimit="4" d="M40.3379 115.086L38.3379 115.086"/>
	<path fill="none" stroke="black" stroke-width="1" stroke-miterlimit="4" d="M40.3379 102.609L38.3379 102.609"/>
	<path fill="none" stroke="black" stroke-width="1" stroke-miterlimit="4" d="M40.3379 96.3711L38.3379 96.3711"/>
	<path fill="none" stroke="black" stroke-width="1" stroke-miterlimit="4" d="M40.3379 90.1328L38.3379 90.1328"/>
	<path fill="none" stroke="black" stroke-width="1" stroke-miterlimit="4" d="M40.3379 83.8946L38.3379 83.8946"/>
	<path fill="none" stroke="black" stroke-width="1" stroke-miterlimit="4" d="M40.3379 71.4181L38.3379 71.4181"/>
	<path fill="none" stroke="black" stroke-width="1" stroke-miterlimit="4" d="M40.3379 65.1799L38.3379 65.1799"/>
	<path fill="none" stroke="black" stroke-width="1" stroke-miterlimit="4" d="M40.3379 58.9417L38.3379 58.9417"/>
	<path fill="none" stroke="black" stroke-width="1" stroke-miterlimit="4" d="M40.3379 52.7034L38.3379 52.7034"/>
	<path fill="none" stroke="black" stroke-width="1" stroke-miterlimit="4" d="M40.3379 270.039L40.3379 46.2813"/>
	<path fill="none" stroke="black" stroke-width="1" stroke-miterlimit="4" d="M435 270.039L435 46.2813"/>
	<text transform="translate(237.669 31.2813)" font-size="16" font-weight="600" font-family="Segoe UI" x="-70.898438, -60.914063, -51.28125, -46.734375, -40.367188, -30.445313, -19.070313, -14.65625, -8.1875, -3.7734375, 5.6015625, 14.117188, 29.429688, 40.679688, 46.585938, 55.789063, 64.992188, " y="-6.890625, ">
			ChirpG - TEMA(10)
	</text>
</svg>
