<?xml version="1.0" encoding="utf-8" ?>
<svg xmlns="http://www.w3.org/2000/svg" xmlns:xlink="http://www.w3.org/1999/xlink" width="450" height="300">
	<rect fill="white" width="450" height="300"/>
	<path fill="none" stroke="#010101" stroke-width="1" stroke-miterlimit="4" stroke-opacity="0.098039217" d="M53.6964 270.039L53.6964 46.2813M79.2701 270.039L79.2701 46.2813M104.844 270.039L104.844 46.2813M130.417 270.039L130.417 46.2813M155.991 270.039L155.991 46.2813M181.565 270.039L181.565 46.2813M207.138 270.039L207.138 46.2813M232.712 270.039L232.712 46.2813M258.286 270.039L258.286 46.2813M283.86 270.039L283.86 46.2813M309.433 270.039L309.433 46.2813M335.007 270.039L335.007 46.2813M360.581 270.039L360.581 46.2813M386.154 270.039L386.154 46.2813M411.728 270.039L411.728 46.2813"/>
	<path fill="none" stroke="#010101" stroke-width="1" stroke-miterlimit="4" stroke-opacity="0.098039217" d="M35.5391 251.634L435 251.634M35.5391 213.482L435 213.482M35.5391 175.33L435 175.33M35.5391 137.178L435 137.178M35.5391 99.0261L435 99.0261M35.5391 60.8741L435 60.8741"/>
	<clipPath id="cl_73">
		<rect x="35.539063" y="46.28125" width="399.46094" height="223.75781"/>
	</clipPath>
	<g clip-path="url(#cl_73)">
		<path fill="none" stroke="red" stroke-width="2" stroke-miterlimit="4" d="M53.6964 251.634L53.6964 251.634L58.8111 249.726L63.9258 251.634L69.0406 249.726L74.1553 251.634L79.2701 249.726L84.3848 251.634L89.4995 251.634L94.6143 251.634L99.729 251.634L104.844 251.634L109.958 251.634L115.073 251.634L120.188 251.634L125.303 251.634L130.417 251.634L135.532 251.634L140.647 251.634L145.762 251.634L150.876 251.634L155.991 251.634L161.106 251.634L166.221 251.634L171.335 251.634L176.45 251.634L181.565 251.634L186.68 251.634L191.794 251.634L196.909 251.634L202.024 251.634L207.138 251.634L212.253 251.634L217.368 251.634L222.483 251.634L227.597 251.634L232.712 251.634L237.827 251.634L242.942 251.634L248.056 251.634L253.171 60.8741L258.286 251.634L263.401 251.634L268.515 251.634L273.63 251.634L278.745 251.634L283.86 251.634L288.974 251.634L294.089 251.634L299.204 251.634L304.318 251.634L309.433 251.634L314.548 251.634L319.663 251.634L324.777 251.634L329.892 251.634L335.007 251.634L340.122 251.634L345.236 251.634L350.351 251.634L355.466 251.634L360.581 251.634L365.695 251.634L370.81 251.634L375.925 251.634L381.04 251.634L386.154 251.634L391.269 251.634L396.384 251.634L401.498 251.634L406.613 251.634L411.728 251.634L416.843 251.634"/>
		<ellipse fill="red" cx="53.696381" cy="251.63399" rx="0.4045639" ry="0.40455627"/>
		<ellipse fill="red" cx="58.811115" cy="249.72638" rx="0.4045639" ry="0.40455627"/>
		<ellipse fill="red" cx="63.92585" cy="251.63399" rx="0.4045639" ry="0.40455627"/>
		<ellipse fill="red" cx="69.040588" cy="249.72638" rx="0.4045639" ry="0.40455627"/>
		<ellipse fill="red" cx="74.155319" cy="251.63399" rx="0.4045639" ry="0.40455627"/>
		<ellipse fill="red" cx="79.270065" cy="249.72638" rx="0.4045639" ry="0.40455627"/>
		<ellipse fill="red" cx="84.384796" cy="251.63399" rx="0.4045639" ry="0.40455627"/>
		<ellipse fill="red" cx="89.499535" cy="251.63399" rx="0.4045639" ry="0.40455627"/>
		<ellipse fill="red" cx="94.614273" cy="251.63399" rx="0.4045639" ry="0.40455627"/>
		<ellipse fill="red" cx="99.729012" cy="251.63399" rx="0.4045639" ry="0.40455627"/>
		<ellipse fill="red" cx="104.84374" cy="251.63399" rx="0.4045639" ry="0.40455627"/>
		<ellipse fill="red" cx="109.95848" cy="251.63399" rx="0.4045639" ry="0.40455627"/>
		<ellipse fill="red" cx="115.07322" cy="251.63399" rx="0.4045639" ry="0.40455627"/>
		<ellipse fill="red" cx="120.18796" cy="251.63399" rx="0.4045639" ry="0.40455627"/>
		<ellipse fill="red" cx="125.30269" cy="251.63399" rx="0.4045639" ry="0.40455627"/>
		<ellipse fill="red" cx="130.41742" cy="251.63399" rx="0.40455627" ry="0.40455627"/>
		<ellipse fill="red" cx="135.53217" cy="251.63399" rx="0.40455627" ry="0.40455627"/>
		<ellipse fill="red" cx="140.64691" cy="251.63399" rx="0.40455627" ry="0.40455627"/>
		<ellipse fill="red" cx="145.76164" cy="251.63399" rx="0.40455627" ry="0.40455627"/>
		<ellipse fill="red" cx="150.87637" cy="251.63399" rx="0.40455627" ry="0.40455627"/>
		<ellipse fill="red" cx="155.99112" cy="251.63399" rx="0.40455627" ry="0.40455627"/>
		<ellipse fill="red" cx="161.10585" cy="251.63399" rx="0.40455627" ry="0.40455627"/>
		<ellipse fill="red" cx="166.22058" cy="251.63399" rx="0.40455627" ry="0.40455627"/>
		<ellipse fill="red" cx="171.33533" cy="251.63399" rx="0.40455627" ry="0.40455627"/>
		<ellipse fill="red" cx="176.45006" cy="251.63399" rx="0.40455627" ry="0.40455627"/>
		<ellipse fill="red" cx="181.56479" cy="251.63399" rx="0.40455627" ry="0.40455627"/>
		<ellipse fill="red" cx="186.67953" cy="251.63399" rx="0.40455627" ry="0.40455627"/>
		<ellipse fill="red" cx="191.79427" cy="251.63399" rx="0.40455627" ry="0.40455627"/>
		<ellipse fill="red" cx="196.90901" cy="251.63399" rx="0.40455627" ry="0.40455627"/>
		<ellipse fill="red" cx="202.02374" cy="251.63399" rx="0.40455627" ry="0.40455627"/>
		<ellipse fill="red" cx="207.13847" cy="251.63399" rx="0.40455627" ry="0.40455627"/>
		<ellipse fill="red" cx="212.25322" cy="251.63399" rx="0.40455627" ry="0.40455627"/>
		<ellipse fill="red" cx="217.36795" cy="251.63399" rx="0.40455627" ry="0.40455627"/>
		<ellipse fill="red" cx="222.4827" cy="251.63399" rx="0.40455627" ry="0.40455627"/>
		<ellipse fill="red" cx="227.59743" cy="251.63399" rx="0.40455627" ry="0.40455627"/>
		<ellipse fill="red" cx="232.71216" cy="251.63399" rx="0.40455627" ry="0.40455627"/>
		<ellipse fill="red" cx="237.8269" cy="251.63399" rx="0.40455627" ry="0.40455627"/>
		<ellipse fill="red" cx="242.94164" cy="251.63399" rx="0.40455627" ry="0.40455627"/>
		<ellipse fill="red" cx="248.05637" cy="251.63399" rx="0.40455627" ry="0.40455627"/>
		<ellipse fill="red" cx="253.17111" cy="60.874146" rx="0.40455627" ry="0.4045639"/>
		<ellipse fill="red" cx="258.28583" cy="251.63399" rx="0.40457153" ry="0.40455627"/>
		<ellipse fill="red" cx="263.40057" cy="251.63399" rx="0.40457153" ry="0.40455627"/>
		<ellipse fill="red" cx="268.51532" cy="251.63399" rx="0.40457153" ry="0.40455627"/>
		<ellipse fill="red" cx="273.63007" cy="251.63399" rx="0.40457153" ry="0.40455627"/>
		<ellipse fill="red" cx="278.74481" cy="251.63399" rx="0.40457153" ry="0.40455627"/>
		<ellipse fill="red" cx="283.85953" cy="251.63399" rx="0.40457153" ry="0.40455627"/>
		<ellipse fill="red" cx="288.97427" cy="251.63399" rx="0.40457153" ry="0.40455627"/>
		<ellipse fill="red" cx="294.08899" cy="251.63399" rx="0.40457153" ry="0.40455627"/>
		<ellipse fill="red" cx="299.20374" cy="251.63399" rx="0.40457153" ry="0.40455627"/>
		<ellipse fill="red" cx="304.31848" cy="251.63399" rx="0.40457153" ry="0.40455627"/>
		<ellipse fill="red" cx="309.43323" cy="251.63399" rx="0.40457153" ry="0.40455627"/>
		<ellipse fill="red" cx="314.54794" cy="251.63399" rx="0.40457153" ry="0.40455627"/>
		<ellipse fill="red" cx="319.66269" cy="251.63399" rx="0.40457153" ry="0.40455627"/>
		<ellipse fill="red" cx="324.77744" cy="251.63399" rx="0.40457153" ry="0.40455627"/>
		<ellipse fill="red" cx="329.89215" cy="251.63399" rx="0.40457153" ry="0.40455627"/>
		<ellipse fill="red" cx="335.0069" cy="251.63399" rx="0.40457153" ry="0.40455627"/>
		<ellipse fill="red" cx="340.12164" cy="251.63399" rx="0.40457153" ry="0.40455627"/>
		<ellipse fill="red" cx="345.23636" cy="251.63399" rx="0.40457153" ry="0.40455627"/>
		<ellipse fill="red" cx="350.3511" cy="251.63399" rx="0.40457153" ry="0.40455627"/>
		<ellipse fill="red" cx="355.46585" cy="251.63399" rx="0.40457153" ry="0.40455627"/>
		<ellipse fill="red" cx="360.58057" cy="251.63399" rx="0.40457153" ry="0.40455627"/>
		<ellipse fill="red" cx="365.69531" cy="251.63399" rx="0.40457153" ry="0.40455627"/>
		<ellipse fill="red" cx="370.81006" cy="251.63399" rx="0.40457153" ry="0.40455627"/>
		<ellipse fill="red" cx="375.9248" cy="251.63399" rx="0.40457153" ry="0.40455627"/>
		<ellipse fill="red" cx="381.03952" cy="251.63399" rx="0.40457153" ry="0.40455627"/>
		<ellipse fill="red" cx="386.15427" cy="251.63399" rx="0.40457153" ry="0.40455627"/>
		<ellipse fill="red" cx="391.26901" cy="251.63399" rx="0.40457153" ry="0.40455627"/>
		<ellipse fill="red" cx="396.38373" cy="251.63399" rx="0.40457153" ry="0.40455627"/>
		<ellipse fill="red" cx="401.49847" cy="251.63399" rx="0.40457153" ry="0.40455627"/>
		<ellipse fill="red" cx="406.61322" cy="251.63399" rx="0.40457153" ry="0.40455627"/>
		<ellipse fill="red" cx="411.72794" cy="251.63399" rx="0.40457153" ry="0.40455627"/>
		<ellipse fill="red" cx="416.84268" cy="251.63399" rx="0.40457153" ry="0.40455627"/>
	</g>
	<clipPath id="cl_74">
		<rect x="35.539063" y="46.28125" width="399.46094" height="223.75781"/>
	</clipPath>
	<g clip-path="url(#cl_74)">
		<path fill="none" stroke="blue" stroke-width="4" stroke-miterlimit="4" d="M53.6964 250.946L53.6964 250.946L58.8111 250.426L63.9258 250.944L69.0406 250.425L74.1553 250.943L79.2701 250.424L84.3848 250.942L89.4995 251.288L94.6143 251.511L99.729 251.65L104.844 251.729L109.958 251.768L115.073 251.782L120.188 251.779L125.303 251.766L130.417 251.749L135.532 251.73L140.647 251.711L145.762 251.693L150.876 251.677L155.991 251.663L161.106 251.651L166.221 251.642L171.335 251.634L176.45 251.628L181.565 251.624L186.68 251.621L191.794 251.619L196.909 251.618L202.024 251.617L207.138 251.617L212.253 251.617L217.368 251.618L222.483 251.619L227.597 251.62L232.712 251.621L237.827 251.622L242.942 251.623L248.056 251.624L253.171 165.346L258.286 194.636L263.401 215.361L268.515 229.805L273.63 239.682L278.745 246.269L283.86 250.512L288.974 253.107L294.089 254.566L299.204 255.257L304.318 255.446L309.433 255.32L314.548 255.011L319.663 254.608L324.777 254.171L329.892 253.738L335.007 253.332L340.122 252.967L345.236 252.647L350.351 252.374L355.466 252.146L360.581 251.96L365.695 251.81L370.81 251.693L375.925 251.603L381.04 251.537L386.154 251.489L391.269 251.457L396.384 251.437L401.498 251.427L406.613 251.424L411.728 251.427L416.843 251.434"/>
		<ellipse fill="blue" cx="53.696381" cy="250.94606" rx="0.4045639" ry="0.40455627"/>
		<ellipse fill="blue" cx="58.811115" cy="250.42563" rx="0.4045639" ry="0.40455627"/>
		<ellipse fill="blue" cx="63.92585" cy="250.94432" rx="0.4045639" ry="0.40455627"/>
		<ellipse fill="blue" cx="69.040588" cy="250.42493" rx="0.4045639" ry="0.40455627"/>
		<ellipse fill="blue" cx="74.155319" cy="250.94296" rx="0.4045639" ry="0.40455627"/>
		<ellipse fill="blue" cx="79.270065" cy="250.4243" rx="0.4045639" ry="0.40455627"/>
		<ellipse fill="blue" cx="84.384796" cy="250.94191" rx="0.4045639" ry="0.40455627"/>
		<ellipse fill="blue" cx="89.499535" cy="251.28767" rx="0.4045639" ry="0.40455627"/>
		<ellipse fill="blue" cx="94.614273" cy="251.51138" rx="0.4045639" ry="0.40455627"/>
		<ellipse fill="blue" cx="99.729012" cy="251.64952" rx="0.4045639" ry="0.40455627"/>
		<ellipse fill="blue" cx="104.84374" cy="251.7287" rx="0.4045639" ry="0.40455627"/>
		<ellipse fill="blue" cx="109.95848" cy="251.76813" rx="0.4045639" ry="0.40455627"/>
		<ellipse fill="blue" cx="115.07322" cy="251.78157" rx="0.4045639" ry="0.40455627"/>
		<ellipse fill="blue" cx="120.18796" cy="251.77873" rx="0.4045639" ry="0.40455627"/>
		<ellipse fill="blue" cx="125.30269" cy="251.76634" rx="0.4045639" ry="0.40455627"/>
		<ellipse fill="blue" cx="130.41742" cy="251.74902" rx="0.40455627" ry="0.40455627"/>
		<ellipse fill="blue" cx="135.53217" cy="251.72981" rx="0.40455627" ry="0.40455627"/>
		<ellipse fill="blue" cx="140.64691" cy="251.71068" rx="0.40455627" ry="0.40455627"/>
		<ellipse fill="blue" cx="145.76164" cy="251.69278" rx="0.40455627" ry="0.40455627"/>
		<ellipse fill="blue" cx="150.87637" cy="251.67677" rx="0.40455627" ry="0.40455627"/>
		<ellipse fill="blue" cx="155.99112" cy="251.66293" rx="0.40455627" ry="0.40455627"/>
		<ellipse fill="blue" cx="161.10585" cy="251.65132" rx="0.40455627" ry="0.40455627"/>
		<ellipse fill="blue" cx="166.22058" cy="251.64183" rx="0.40455627" ry="0.40455627"/>
		<ellipse fill="blue" cx="171.33533" cy="251.63428" rx="0.40455627" ry="0.40455627"/>
		<ellipse fill="blue" cx="176.45006" cy="251.62846" rx="0.40455627" ry="0.40455627"/>
		<ellipse fill="blue" cx="181.56479" cy="251.62411" rx="0.40455627" ry="0.40455627"/>
		<ellipse fill="blue" cx="186.67953" cy="251.62102" rx="0.40455627" ry="0.40455627"/>
		<ellipse fill="blue" cx="191.79427" cy="251.61896" rx="0.40455627" ry="0.40455627"/>
		<ellipse fill="blue" cx="196.90901" cy="251.61774" rx="0.40455627" ry="0.40455627"/>
		<ellipse fill="blue" cx="202.02374" cy="251.61717" rx="0.40455627" ry="0.40455627"/>
		<ellipse fill="blue" cx="207.13847" cy="251.61713" rx="0.40455627" ry="0.40455627"/>
		<ellipse fill="blue" cx="212.25322" cy="251.61746" rx="0.40455627" ry="0.40455627"/>
		<ellipse fill="blue" cx="217.36795" cy="251.61807" rx="0.40455627" ry="0.40455627"/>
		<ellipse fill="blue" cx="222.4827" cy="251.6189" rx="0.40455627" ry="0.40455627"/>
		<ellipse fill="blue" cx="227.59743" cy="251.61983" rx="0.40455627" ry="0.40455627"/>
		<ellipse fill="blue" cx="232.71216" cy="251.62085" rx="0.40455627" ry="0.40455627"/>
		<ellipse fill="blue" cx="237.8269" cy="251.62189" rx="0.40455627" ry="0.40455627"/>
		<ellipse fill="blue" cx="242.94164" cy="251.62294" rx="0.40455627" ry="0.40455627"/>
		<ellipse fill="blue" cx="248.05637" cy="251.62395" rx="0.40455627" ry="0.40455627"/>
		<ellipse fill="blue" cx="253.17111" cy="165.34569" rx="0.40455627" ry="0.40455627"/>
		<ellipse fill="blue" cx="258.28583" cy="194.63626" rx="0.40457153" ry="0.40455627"/>
		<ellipse fill="blue" cx="263.40057" cy="215.36066" rx="0.40457153" ry="0.40455627"/>
		<ellipse fill="blue" cx="268.51532" cy="229.8051" rx="0.40457153" ry="0.40455627"/>
		<ellipse fill="blue" cx="273.63007" cy="239.68231" rx="0.40457153" ry="0.40455627"/>
		<ellipse fill="blue" cx="278.74481" cy="246.26901" rx="0.40457153" ry="0.40455627"/>
		<ellipse fill="blue" cx="283.85953" cy="250.51169" rx="0.40457153" ry="0.40455627"/>
		<ellipse fill="blue" cx="288.97427" cy="253.1075" rx="0.40457153" ry="0.40455627"/>
		<ellipse fill="blue" cx="294.08899" cy="254.56622" rx="0.40457153" ry="0.40455627"/>
		<ellipse fill="blue" cx="299.20374" cy="255.2574" rx="0.40457153" ry="0.40455627"/>
		<ellipse fill="blue" cx="304.31848" cy="255.44617" rx="0.40457153" ry="0.40455627"/>
		<ellipse fill="blue" cx="309.43323" cy="255.32039" rx="0.40457153" ry="0.40455627"/>
		<ellipse fill="blue" cx="314.54794" cy="255.01114" rx="0.40457153" ry="0.40455627"/>
		<ellipse fill="blue" cx="319.66269" cy="254.60806" rx="0.40457153" ry="0.40455627"/>
		<ellipse fill="blue" cx="324.77744" cy="254.17085" rx="0.40457153" ry="0.40455627"/>
		<ellipse fill="blue" cx="329.89215" cy="253.73779" rx="0.40457153" ry="0.40455627"/>
		<ellipse fill="blue" cx="335.0069" cy="253.33209" rx="0.40457153" ry="0.40455627"/>
		<ellipse fill="blue" cx="340.12164" cy="252.96655" rx="0.40457153" ry="0.40455627"/>
		<ellipse fill="blue" cx="345.23636" cy="252.64685" rx="0.40457153" ry="0.40455627"/>
		<ellipse fill="blue" cx="350.3511" cy="252.37402" rx="0.40457153" ry="0.40455627"/>
		<ellipse fill="blue" cx="355.46585" cy="252.14619" rx="0.40457153" ry="0.40455627"/>
		<ellipse fill="blue" cx="360.58057" cy="251.95981" rx="0.40457153" ry="0.40455627"/>
		<ellipse fill="blue" cx="365.69531" cy="251.81038" rx="0.40457153" ry="0.40455627"/>
		<ellipse fill="blue" cx="370.81006" cy="251.69318" rx="0.40457153" ry="0.40455627"/>
		<ellipse fill="blue" cx="375.9248" cy="251.60347" rx="0.40457153" ry="0.40455627"/>
		<ellipse fill="blue" cx="381.03952" cy="251.53683" rx="0.40457153" ry="0.40455627"/>
		<ellipse fill="blue" cx="386.15427" cy="251.48923" rx="0.40457153" ry="0.40455627"/>
		<ellipse fill="blue" cx="391.26901" cy="251.45706" rx="0.40457153" ry="0.40455627"/>
		<ellipse fill="blue" cx="396.38373" cy="251.43721" rx="0.40457153" ry="0.40455627"/>
		<ellipse fill="blue" cx="401.49847" cy="251.42702" rx="0.40457153" ry="0.40455627"/>
		<ellipse fill="blue" cx="406.61322" cy="251.42426" rx="0.40457153" ry="0.40455627"/>
		<ellipse fill="blue" cx="411.72794" cy="251.42706" rx="0.40457153" ry="0.40455627"/>
		<ellipse fill="blue" cx="416.84268" cy="251.43391" rx="0.40457153" ry="0.40455627"/>
	</g>
	<path fill="none" stroke="black" stroke-width="1" stroke-miterlimit="4" d="M53.6964 270.039L53.6964 274.039"/>
	<text transform="translate(53.6964 276.039)" font-size="12" font-family="Segoe UI" x="-3.234375, " y="11.027344, ">
			0
	</text>
	<path fill="none" stroke="black" stroke-width="1" stroke-miterlimit="4" d="M79.2701 270.039L79.2701 274.039"/>
	<text transform="translate(79.2701 276.039)" font-size="12" font-family="Segoe UI" x="-3.234375, " y="11.027344, ">
			5
	</text>
	<path fill="none" stroke="black" stroke-width="1" stroke-miterlimit="4" d="M104.844 270.039L104.844 274.039"/>
	<text transform="translate(104.844 276.039)" font-size="12" font-family="Segoe UI" x="-6.46875, 0, " y="11.027344, ">
			10
	</text>
	<path fill="none" stroke="black" stroke-width="1" stroke-miterlimit="4" d="M130.417 270.039L130.417 274.039"/>
	<text transform="translate(130.417 276.039)" font-size="12" font-family="Segoe UI" x="-6.46875, 0, " y="11.027344, ">
			15
	</text>
	<path fill="none" stroke="black" stroke-width="1" stroke-miterlimit="4" d="M155.991 270.039L155.991 274.039"/>
	<text transform="translate(155.991 276.039)" font-size="12" font-family="Segoe UI" x="-6.46875, 0, " y="11.027344, ">
			20
	</text>
	<path fill="none" stroke="black" stroke-width="1" stroke-miterlimit="4" d="M181.565 270.039L181.565 274.039"/>
	<text transform="translate(181.565 276.039)" font-size="12" font-family="Segoe UI" x="-6.46875, 0, " y="11.027344, ">
			25
	</text>
	<path fill="none" stroke="black" stroke-width="1" stroke-miterlimit="4" d="M207.138 270.039L207.138 274.039"/>
	<text transform="translate(207.138 276.039)" font-size="12" font-family="Segoe UI" x="-6.46875, 0, " y="11.027344, ">
			30
	</text>
	<path fill="none" stroke="black" stroke-width="1" stroke-miterlimit="4" d="M232.712 270.039L232.712 274.039"/>
	<text transform="translate(232.712 276.039)" font-size="12" font-family="Segoe UI" x="-6.46875, 0, " y="11.027344, ">
			35
	</text>
	<path fill="none" stroke="black" stroke-width="1" stroke-miterlimit="4" d="M258.286 270.039L258.286 274.039"/>
	<text transform="translate(258.286 276.039)" font-size="12" font-family="Segoe UI" x="-6.46875, 0, " y="11.027344, ">
			40
	</text>
	<path fill="none" stroke="black" stroke-width="1" stroke-miterlimit="4" d="M283.86 270.039L283.86 274.039"/>
	<text transform="translate(283.86 276.039)" font-size="12" font-family="Segoe UI" x="-6.46875, 0, " y="11.027344, ">
			45
	</text>
	<path fill="none" stroke="black" stroke-width="1" stroke-miterlimit="4" d="M309.433 270.039L309.433 274.039"/>
	<text transform="translate(309.433 276.039)" font-size="12" font-family="Segoe UI" x="-6.46875, 0, " y="11.027344, ">
			50
	</text>
	<path fill="none" stroke="black" stroke-width="1" stroke-miterlimit="4" d="M335.007 270.039L335.007 274.039"/>
	<text transform="translate(335.007 276.039)" font-size="12" font-family="Segoe UI" x="-6.46875, 0, " y="11.027344, ">
			55
	</text>
	<path fill="none" stroke="black" stroke-width="1" stroke-miterlimit="4" d="M360.581 270.039L360.581 274.039"/>
	<text transform="translate(360.581 276.039)" font-size="12" font-family="Segoe UI" x="-6.46875, 0, " y="11.027344, ">
			60
	</text>
	<path fill="none" stroke="black" stroke-width="1" stroke-miterlimit="4" d="M386.154 270.039L386.154 274.039"/>
	<text transform="translate(386.154 276.039)" font-size="12" font-family="Segoe UI" x="-6.46875, 0, " y="11.027344, ">
			65
	</text>
	<path fill="none" stroke="black" stroke-width="1" stroke-miterlimit="4" d="M411.728 270.039L411.728 274.039"/>
	<text transform="translate(411.728 276.039)" font-size="12" font-family="Segoe UI" x="-6.46875, 0, " y="11.027344, ">
			70
	</text>
	<path fill="none" stroke="black" stroke-width="1" stroke-miterlimit="4" d="M38.3522 270.039L38.3522 272.039"/>
	<path fill="none" stroke="black" stroke-width="1" stroke-miterlimit="4" d="M43.4669 270.039L43.4669 272.039"/>
	<path fill="none" stroke="black" stroke-width="1" stroke-miterlimit="4" d="M48.5816 270.039L48.5816 272.039"/>
	<path fill="none" stroke="black" stroke-width="1" stroke-miterlimit="4" d="M58.8111 270.039L58.8111 272.039"/>
	<path fill="none" stroke="black" stroke-width="1" stroke-miterlimit="4" d="M63.9258 270.039L63.9258 272.039"/>
	<path fill="none" stroke="black" stroke-width="1" stroke-miterlimit="4" d="M69.0406 270.039L69.0406 272.039"/>
	<path fill="none" stroke="black" stroke-width="1" stroke-miterlimit="4" d="M74.1553 270.039L74.1553 272.039"/>
	<path fill="none" stroke="black" stroke-width="1" stroke-miterlimit="4" d="M84.3848 270.039L84.3848 272.039"/>
	<path fill="none" stroke="black" stroke-width="1" stroke-miterlimit="4" d="M89.4995 270.039L89.4995 272.039"/>
	<path fill="none" stroke="black" stroke-width="1" stroke-miterlimit="4" d="M94.6143 270.039L94.6143 272.039"/>
	<path fill="none" stroke="black" stroke-width="1" stroke-miterlimit="4" d="M99.729 270.039L99.729 272.039"/>
	<path fill="none" stroke="black" stroke-width="1" stroke-miterlimit="4" d="M109.958 270.039L109.958 272.039"/>
	<path fill="none" stroke="black" stroke-width="1" stroke-miterlimit="4" d="M115.073 270.039L115.073 272.039"/>
	<path fill="none" stroke="black" stroke-width="1" stroke-miterlimit="4" d="M120.188 270.039L120.188 272.039"/>
	<path fill="none" stroke="black" stroke-width="1" stroke-miterlimit="4" d="M125.303 270.039L125.303 272.039"/>
	<path fill="none" stroke="black" stroke-width="1" stroke-miterlimit="4" d="M135.532 270.039L135.532 272.039"/>
	<path fill="none" stroke="black" stroke-width="1" stroke-miterlimit="4" d="M140.647 270.039L140.647 272.039"/>
	<path fill="none" stroke="black" stroke-width="1" stroke-miterlimit="4" d="M145.762 270.039L145.762 272.039"/>
	<path fill="none" stroke="black" stroke-width="1" stroke-miterlimit="4" d="M150.876 270.039L150.876 272.039"/>
	<path fill="none" stroke="black" stroke-width="1" stroke-miterlimit="4" d="M161.106 270.039L161.106 272.039"/>
	<path fill="none" stroke="black" stroke-width="1" stroke-miterlimit="4" d="M166.221 270.039L166.221 272.039"/>
	<path fill="none" stroke="black" stroke-width="1" stroke-miterlimit="4" d="M171.335 270.039L171.335 272.039"/>
	<path fill="none" stroke="black" stroke-width="1" stroke-miterlimit="4" d="M176.45 270.039L176.45 272.039"/>
	<path fill="none" stroke="black" stroke-width="1" stroke-miterlimit="4" d="M186.68 270.039L186.68 272.039"/>
	<path fill="none" stroke="black" stroke-width="1" stroke-miterlimit="4" d="M191.794 270.039L191.794 272.039"/>
	<path fill="none" stroke="black" stroke-width="1" stroke-miterlimit="4" d="M196.909 270.039L196.909 272.039"/>
	<path fill="none" stroke="black" stroke-width="1" stroke-miterlimit="4" d="M202.024 270.039L202.024 272.039"/>
	<path fill="none" stroke="black" stroke-width="1" stroke-miterlimit="4" d="M212.253 270.039L212.253 272.039"/>
	<path fill="none" stroke="black" stroke-width="1" stroke-miterlimit="4" d="M217.368 270.039L217.368 272.039"/>
	<path fill="none" stroke="black" stroke-width="1" stroke-miterlimit="4" d="M222.483 270.039L222.483 272.039"/>
	<path fill="none" stroke="black" stroke-width="1" stroke-miterlimit="4" d="M227.597 270.039L227.597 272.039"/>
	<path fill="none" stroke="black" stroke-width="1" stroke-miterlimit="4" d="M237.827 270.039L237.827 272.039"/>
	<path fill="none" stroke="black" stroke-width="1" stroke-miterlimit="4" d="M242.942 270.039L242.942 272.039"/>
	<path fill="none" stroke="black" stroke-width="1" stroke-miterlimit="4" d="M248.056 270.039L248.056 272.039"/>
	<path fill="none" stroke="black" stroke-width="1" stroke-miterlimit="4" d="M253.171 270.039L253.171 272.039"/>
	<path fill="none" stroke="black" stroke-width="1" stroke-miterlimit="4" d="M263.401 270.039L263.401 272.039"/>
	<path fill="none" stroke="black" stroke-width="1" stroke-miterlimit="4" d="M268.515 270.039L268.515 272.039"/>
	<path fill="none" stroke="black" stroke-width="1" stroke-miterlimit="4" d="M273.63 270.039L273.63 272.039"/>
	<path fill="none" stroke="black" stroke-width="1" stroke-miterlimit="4" d="M278.745 270.039L278.745 272.039"/>
	<path fill="none" stroke="black" stroke-width="1" stroke-miterlimit="4" d="M288.974 270.039L288.974 272.039"/>
	<path fill="none" stroke="black" stroke-width="1" stroke-miterlimit="4" d="M294.089 270.039L294.089 272.039"/>
	<path fill="none" stroke="black" stroke-width="1" stroke-miterlimit="4" d="M299.204 270.039L299.204 272.039"/>
	<path fill="none" stroke="black" stroke-width="1" stroke-miterlimit="4" d="M304.318 270.039L304.318 272.039"/>
	<path fill="none" stroke="black" stroke-width="1" stroke-miterlimit="4" d="M314.548 270.039L314.548 272.039"/>
	<path fill="none" stroke="black" stroke-width="1" stroke-miterlimit="4" d="M319.663 270.039L319.663 272.039"/>
	<path fill="none" stroke="black" stroke-width="1" stroke-miterlimit="4" d="M324.777 270.039L324.777 272.039"/>
	<path fill="none" stroke="black" stroke-width="1" stroke-miterlimit="4" d="M329.892 270.039L329.892 272.039"/>
	<path fill="none" stroke="black" stroke-width="1" stroke-miterlimit="4" d="M340.122 270.039L340.122 272.039"/>
	<path fill="none" stroke="black" stroke-width="1" stroke-miterlimit="4" d="M345.236 270.039L345.236 272.039"/>
	<path fill="none" stroke="black" stroke-width="1" stroke-miterlimit="4" d="M350.351 270.039L350.351 272.039"/>
	<path fill="none" stroke="black" stroke-width="1" stroke-miterlimit="4" d="M355.466 270.039L355.466 272.039"/>
	<path fill="none" stroke="black" stroke-width="1" stroke-miterlimit="4" d="M365.695 270.039L365.695 272.039"/>
	<path fill="none" stroke="black" stroke-width="1" stroke-miterlimit="4" d="M370.81 270.039L370.81 272.039"/>
	<path fill="none" stroke="black" stroke-width="1" stroke-miterlimit="4" d="M375.925 270.039L375.925 272.039"/>
	<path fill="none" stroke="black" stroke-width="1" stroke-miterlimit="4" d="M381.04 270.039L381.04 272.039"/>
	<path fill="none" stroke="black" stroke-width="1" stroke-miterlimit="4" d="M391.269 270.039L391.269 272.039"/>
	<path fill="none" stroke="black" stroke-width="1" stroke-miterlimit="4" d="M396.384 270.039L396.384 272.039"/>
	<path fill="none" stroke="black" stroke-width="1" stroke-miterlimit="4" d="M401.498 270.039L401.498 272.039"/>
	<path fill="none" stroke="black" stroke-width="1" stroke-miterlimit="4" d="M406.613 270.039L406.613 272.039"/>
	<path fill="none" stroke="black" stroke-width="1" stroke-miterlimit="4" d="M416.843 270.039L416.843 272.039"/>
	<path fill="none" stroke="black" stroke-width="1" stroke-miterlimit="4" d="M421.957 270.039L421.957 272.039"/>
	<path fill="none" stroke="black" stroke-width="1" stroke-miterlimit="4" d="M427.072 270.039L427.072 272.039"/>
	<path fill="none" stroke="black" stroke-width="1" stroke-miterlimit="4" d="M432.187 270.039L432.187 272.039"/>
	<path fill="none" stroke="black" stroke-width="1" stroke-miterlimit="4" d="M35.5391 270.039L435 270.039"/>
	<path fill="none" stroke="black" stroke-width="1" stroke-miterlimit="4" d="M35.5391 46.3812L435 46.3812"/>
	<path fill="none" stroke="black" stroke-width="1" stroke-miterlimit="4" d="M35.5391 251.634L31.5391 251.634"/>
	<text transform="translate(26.5391 251.634)" font-size="12" font-family="Segoe UI" x="-6.46875, " y="3.046875, ">
			0
	</text>
	<path fill="none" stroke="black" stroke-width="1" stroke-miterlimit="4" d="M35.5391 213.482L31.5391 213.482"/>
	<text transform="translate(26.5391 213.482)" font-size="12" font-family="Segoe UI" x="-15.539063, -9.0703125, -6.46875, " y="3.046875, ">
			0.2
	</text>
	<path fill="none" stroke="black" stroke-width="1" stroke-miterlimit="4" d="M35.5391 175.33L31.5391 175.33"/>
	<text transform="translate(26.5391 175.33)" font-size="12" font-family="Segoe UI" x="-15.539063, -9.0703125, -6.46875, " y="3.046875, ">
			0.4
	</text>
	<path fill="none" stroke="black" stroke-width="1" stroke-miterlimit="4" d="M35.5391 137.178L31.5391 137.178"/>
	<text transform="translate(26.5391 137.178)" font-size="12" font-family="Segoe UI" x="-15.539063, -9.0703125, -6.46875, " y="3.046875, ">
			0.6
	</text>
	<path fill="none" stroke="black" stroke-width="1" stroke-miterlimit="4" d="M35.5391 99.0261L31.5391 99.0261"/>
	<text transform="translate(26.5391 99.0261)" font-size="12" font-family="Segoe UI" x="-15.539063, -9.0703125, -6.46875, " y="3.046875, ">
			0.8
	</text>
	<path fill="none" stroke="black" stroke-width="1" stroke-miterlimit="4" d="M35.5391 60.8741L31.5391 60.8741"/>
	<text transform="translate(26.5391 60.8741)" font-size="12" font-family="Segoe UI" x="-6.46875, " y="3.046875, ">
			1
	</text>
	<path fill="none" stroke="black" stroke-width="1" stroke-miterlimit="4" d="M35.5391 266.895L33.5391 266.895"/>
	<path fill="none" stroke="black" stroke-width="1" stroke-miterlimit="4" d="M35.5391 259.264L33.5391 259.264"/>
	<path fill="none" stroke="black" stroke-width="1" stroke-miterlimit="4" d="M35.5391 244.004L33.5391 244.004"/>
	<path fill="none" stroke="black" stroke-width="1" stroke-miterlimit="4" d="M35.5391 236.373L33.5391 236.373"/>
	<path fill="none" stroke="black" stroke-width="1" stroke-miterlimit="4" d="M35.5391 228.743L33.5391 228.743"/>
	<path fill="none" stroke="black" stroke-width="1" stroke-miterlimit="4" d="M35.5391 221.112L33.5391 221.112"/>
	<path fill="none" stroke="black" stroke-width="1" stroke-miterlimit="4" d="M35.5391 205.852L33.5391 205.852"/>
	<path fill="none" stroke="black" stroke-width="1" stroke-miterlimit="4" d="M35.5391 198.221L33.5391 198.221"/>
	<path fill="none" stroke="black" stroke-width="1" stroke-miterlimit="4" d="M35.5391 190.591L33.5391 190.591"/>
	<path fill="none" stroke="black" stroke-width="1" stroke-miterlimit="4" d="M35.5391 182.96L33.5391 182.96"/>
	<path fill="none" stroke="black" stroke-width="1" stroke-miterlimit="4" d="M35.5391 167.7L33.5391 167.7"/>
	<path fill="none" stroke="black" stroke-width="1" stroke-miterlimit="4" d="M35.5391 160.069L33.5391 160.069"/>
	<path fill="none" stroke="black" stroke-width="1" stroke-miterlimit="4" d="M35.5391 152.439L33.5391 152.439"/>
	<path fill="none" stroke="black" stroke-width="1" stroke-miterlimit="4" d="M35.5391 144.808L33.5391 144.808"/>
	<path fill="none" stroke="black" stroke-width="1" stroke-miterlimit="4" d="M35.5391 129.548L33.5391 129.548"/>
	<path fill="none" stroke="black" stroke-width="1" stroke-miterlimit="4" d="M35.5391 121.917L33.5391 121.917"/>
	<path fill="none" stroke="black" stroke-width="1" stroke-miterlimit="4" d="M35.5391 114.287L33.5391 114.287"/>
	<path fill="none" stroke="black" stroke-width="1" stroke-miterlimit="4" d="M35.5391 106.657L33.5391 106.657"/>
	<path fill="none" stroke="black" stroke-width="1" stroke-miterlimit="4" d="M35.5391 91.3957L33.5391 91.3957"/>
	<path fill="none" stroke="black" stroke-width="1" stroke-miterlimit="4" d="M35.5391 83.7653L33.5391 83.7653"/>
	<path fill="none" stroke="black" stroke-width="1" stroke-miterlimit="4" d="M35.5391 76.1349L33.5391 76.1349"/>
	<path fill="none" stroke="black" stroke-width="1" stroke-miterlimit="4" d="M35.5391 68.5045L33.5391 68.5045"/>
	<path fill="none" stroke="black" stroke-width="1" stroke-miterlimit="4" d="M35.5391 53.2438L33.5391 53.2438"/>
	<path fill="none" stroke="black" stroke-width="1" stroke-miterlimit="4" d="M35.5391 270.039L35.5391 46.2813"/>
	<path fill="none" stroke="black" stroke-width="1" stroke-miterlimit="4" d="M435 270.039L435 46.2813"/>
	<text transform="translate(235.27 31.2813)" font-size="16" font-weight="600" font-family="Segoe UI" x="-65.503906, -56.535156, -46.613281, -42.066406, -33.121094, -24.464844, -20.050781, -13.582031, -9.1679688, 0.20703125, 8.7226563, 24.035156, 35.285156, 41.191406, 50.394531, 59.597656, " y="-6.890625, ">
			Spike - TEMA(10)
	</text>
</svg>
