<?xml version="1.0" encoding="utf-8" ?>
<svg xmlns="http://www.w3.org/2000/svg" xmlns:xlink="http://www.w3.org/1999/xlink" width="450" height="300">
	<rect fill="white" width="450" height="300"/>
	<path fill="none" stroke="#010101" stroke-width="1" stroke-miterlimit="4" stroke-opacity="0.098039217" d="M58.2771 270.039L58.2771 46.2813M83.5435 270.039L83.5435 46.2813M108.81 270.039L108.81 46.2813M134.076 270.039L134.076 46.2813M159.343 270.039L159.343 46.2813M184.609 270.039L184.609 46.2813M209.876 270.039L209.876 46.2813M235.142 270.039L235.142 46.2813M260.409 270.039L260.409 46.2813M285.675 270.039L285.675 46.2813M310.942 270.039L310.942 46.2813M336.208 270.039L336.208 46.2813M361.475 270.039L361.475 46.2813M386.741 270.039L386.741 46.2813M412.008 270.039L412.008 46.2813"/>
	<path fill="none" stroke="#010101" stroke-width="1" stroke-miterlimit="4" stroke-opacity="0.098039217" d="M40.3379 244.382L435 244.382M40.3379 202.276L435 202.276M40.3379 160.17L435 160.17M40.3379 118.064L435 118.064M40.3379 75.9585L435 75.9585"/>
	<clipPath id="cl_91">
		<rect x="40.337891" y="46.28125" width="394.66211" height="223.75781"/>
	</clipPath>
	<g clip-path="url(#cl_91)">
		<path fill="none" stroke="red" stroke-width="2" stroke-miterlimit="4" d="M58.2771 160.17L58.2771 160.17L63.3304 159.328L68.3837 160.17L73.437 159.328L78.4902 160.17L83.5435 159.328L88.5968 81.8533L93.6501 137.433L98.7034 209.855L103.757 244.382L108.81 219.96L113.863 155.959L118.917 97.0114L123.97 75.9585L129.023 103.748L134.076 160.17L139.13 216.592L144.183 243.539L149.236 231.75L154.29 188.802L159.343 134.064L164.396 91.9587L169.45 75.9585L174.503 91.1166L179.556 130.696L184.609 178.697L189.663 219.96L194.716 242.697L199.769 240.171L204.823 215.75L209.876 177.012L214.929 134.064L219.982 99.5378L225.036 79.327L230.089 77.6428L235.142 94.4851L240.196 123.959L245.249 161.012L250.302 196.381L255.355 225.013L260.409 241.013L265.462 243.539L270.515 231.75L275.569 209.013L280.622 179.539L285.675 146.696L290.729 117.222L295.782 93.643L300.835 80.1691L305.888 75.9585L310.942 82.6955L315.995 98.6956L321.048 120.591L326.102 147.538L331.155 174.486L336.208 199.749L341.261 220.802L346.315 235.96L351.368 243.539L356.421 243.539L361.475 235.96L366.528 222.487L371.581 203.96L376.634 182.065L381.688 159.328L386.741 136.591L391.794 115.538L396.848 98.6956L401.901 86.0639L406.954 78.4849L412.008 75.9585L417.061 78.4849"/>
		<ellipse fill="red" cx="58.277077" cy="160.17006" rx="0.40212631" ry="0.40213013"/>
		<ellipse fill="red" cx="63.330368" cy="159.32794" rx="0.40212631" ry="0.40213013"/>
		<ellipse fill="red" cx="68.383659" cy="160.17006" rx="0.4021225" ry="0.40213013"/>
		<ellipse fill="red" cx="73.436951" cy="159.32794" rx="0.4021225" ry="0.40213013"/>
		<ellipse fill="red" cx="78.49025" cy="160.17006" rx="0.4021225" ry="0.40213013"/>
		<ellipse fill="red" cx="83.543533" cy="159.32794" rx="0.4021225" ry="0.40213013"/>
		<ellipse fill="red" cx="88.596832" cy="81.853348" rx="0.4021225" ry="0.4021225"/>
		<ellipse fill="red" cx="93.650124" cy="137.43295" rx="0.4021225" ry="0.40213013"/>
		<ellipse fill="red" cx="98.703415" cy="209.85486" rx="0.4021225" ry="0.40213013"/>
		<ellipse fill="red" cx="103.75671" cy="244.38158" rx="0.4021225" ry="0.40213013"/>
		<ellipse fill="red" cx="108.81" cy="219.96024" rx="0.4021225" ry="0.40213013"/>
		<ellipse fill="red" cx="113.86329" cy="155.95947" rx="0.4021225" ry="0.40213013"/>
		<ellipse fill="red" cx="118.91658" cy="97.011429" rx="0.4021225" ry="0.4021225"/>
		<ellipse fill="red" cx="123.96987" cy="75.958542" rx="0.4021225" ry="0.4021225"/>
		<ellipse fill="red" cx="129.02316" cy="103.74835" rx="0.40213013" ry="0.4021225"/>
		<ellipse fill="red" cx="134.07646" cy="160.17006" rx="0.40213013" ry="0.40213013"/>
		<ellipse fill="red" cx="139.12976" cy="216.59177" rx="0.40213013" ry="0.40213013"/>
		<ellipse fill="red" cx="144.18304" cy="243.53946" rx="0.40213013" ry="0.40213013"/>
		<ellipse fill="red" cx="149.23633" cy="231.74985" rx="0.40213013" ry="0.40213013"/>
		<ellipse fill="red" cx="154.28963" cy="188.80197" rx="0.40213013" ry="0.40213013"/>
		<ellipse fill="red" cx="159.34293" cy="134.06448" rx="0.40213013" ry="0.40213013"/>
		<ellipse fill="red" cx="164.39621" cy="91.95874" rx="0.40213013" ry="0.4021225"/>
		<ellipse fill="red" cx="169.44951" cy="75.958542" rx="0.40213013" ry="0.4021225"/>
		<ellipse fill="red" cx="174.50279" cy="91.116623" rx="0.40213013" ry="0.4021225"/>
		<ellipse fill="red" cx="179.55609" cy="130.69603" rx="0.40213013" ry="0.40213013"/>
		<ellipse fill="red" cx="184.60938" cy="178.69659" rx="0.40213013" ry="0.40213013"/>
		<ellipse fill="red" cx="189.66267" cy="219.96024" rx="0.40213013" ry="0.40213013"/>
		<ellipse fill="red" cx="194.71596" cy="242.69734" rx="0.40213013" ry="0.40213013"/>
		<ellipse fill="red" cx="199.76926" cy="240.17099" rx="0.40213013" ry="0.40213013"/>
		<ellipse fill="red" cx="204.82254" cy="215.74966" rx="0.40213013" ry="0.40213013"/>
		<ellipse fill="red" cx="209.87584" cy="177.01236" rx="0.40213013" ry="0.40213013"/>
		<ellipse fill="red" cx="214.92914" cy="134.06448" rx="0.40213013" ry="0.40213013"/>
		<ellipse fill="red" cx="219.98242" cy="99.537766" rx="0.40213013" ry="0.4021225"/>
		<ellipse fill="red" cx="225.03572" cy="79.327011" rx="0.40213013" ry="0.4021225"/>
		<ellipse fill="red" cx="230.089" cy="77.642776" rx="0.40213013" ry="0.4021225"/>
		<ellipse fill="red" cx="235.1423" cy="94.485077" rx="0.40213013" ry="0.4021225"/>
		<ellipse fill="red" cx="240.19559" cy="123.95911" rx="0.40213013" ry="0.4021225"/>
		<ellipse fill="red" cx="245.24889" cy="161.01218" rx="0.40213013" ry="0.40213013"/>
		<ellipse fill="red" cx="250.30217" cy="196.38101" rx="0.40213013" ry="0.40213013"/>
		<ellipse fill="red" cx="255.35547" cy="225.01292" rx="0.40213013" ry="0.40213013"/>
		<ellipse fill="red" cx="260.40875" cy="241.01311" rx="0.40213013" ry="0.40213013"/>
		<ellipse fill="red" cx="265.46204" cy="243.53946" rx="0.40213013" ry="0.40213013"/>
		<ellipse fill="red" cx="270.51535" cy="231.74985" rx="0.40213013" ry="0.40213013"/>
		<ellipse fill="red" cx="275.56863" cy="209.01274" rx="0.40213013" ry="0.40213013"/>
		<ellipse fill="red" cx="280.62195" cy="179.5387" rx="0.40213013" ry="0.40213013"/>
		<ellipse fill="red" cx="285.67523" cy="146.69623" rx="0.40213013" ry="0.40213013"/>
		<ellipse fill="red" cx="290.72852" cy="117.22218" rx="0.40213013" ry="0.4021225"/>
		<ellipse fill="red" cx="295.7818" cy="93.64296" rx="0.40213013" ry="0.4021225"/>
		<ellipse fill="red" cx="300.83508" cy="80.169128" rx="0.40213013" ry="0.4021225"/>
		<ellipse fill="red" cx="305.8884" cy="75.958542" rx="0.40213013" ry="0.4021225"/>
		<ellipse fill="red" cx="310.94168" cy="82.695465" rx="0.40213013" ry="0.4021225"/>
		<ellipse fill="red" cx="315.99496" cy="98.695648" rx="0.40213013" ry="0.4021225"/>
		<ellipse fill="red" cx="321.04828" cy="120.59065" rx="0.40213013" ry="0.4021225"/>
		<ellipse fill="red" cx="326.10156" cy="147.53833" rx="0.40213013" ry="0.40213013"/>
		<ellipse fill="red" cx="331.15485" cy="174.48602" rx="0.40213013" ry="0.40213013"/>
		<ellipse fill="red" cx="336.20813" cy="199.74948" rx="0.40213013" ry="0.40213013"/>
		<ellipse fill="red" cx="341.26144" cy="220.80235" rx="0.40213013" ry="0.40213013"/>
		<ellipse fill="red" cx="346.31473" cy="235.96042" rx="0.40213013" ry="0.40213013"/>
		<ellipse fill="red" cx="351.36801" cy="243.53946" rx="0.40213013" ry="0.40213013"/>
		<ellipse fill="red" cx="356.4213" cy="243.53946" rx="0.40213013" ry="0.40213013"/>
		<ellipse fill="red" cx="361.47461" cy="235.96042" rx="0.40213013" ry="0.40213013"/>
		<ellipse fill="red" cx="366.52789" cy="222.48657" rx="0.40213013" ry="0.40213013"/>
		<ellipse fill="red" cx="371.58118" cy="203.96005" rx="0.40213013" ry="0.40213013"/>
		<ellipse fill="red" cx="376.63449" cy="182.06506" rx="0.40213013" ry="0.40213013"/>
		<ellipse fill="red" cx="381.68777" cy="159.32794" rx="0.40213013" ry="0.40213013"/>
		<ellipse fill="red" cx="386.74106" cy="136.59084" rx="0.40213013" ry="0.40213013"/>
		<ellipse fill="red" cx="391.79434" cy="115.53796" rx="0.40213013" ry="0.4021225"/>
		<ellipse fill="red" cx="396.84766" cy="98.695648" rx="0.40213013" ry="0.4021225"/>
		<ellipse fill="red" cx="401.90094" cy="86.063934" rx="0.40213013" ry="0.4021225"/>
		<ellipse fill="red" cx="406.95422" cy="78.484894" rx="0.40213013" ry="0.4021225"/>
		<ellipse fill="red" cx="412.00751" cy="75.958542" rx="0.40213013" ry="0.4021225"/>
		<ellipse fill="red" cx="417.06082" cy="78.484894" rx="0.40213013" ry="0.4021225"/>
	</g>
	<clipPath id="cl_92">
		<rect x="40.337891" y="46.28125" width="394.66211" height="223.75781"/>
	</clipPath>
	<g clip-path="url(#cl_92)">
		<path fill="none" stroke="blue" stroke-width="4" stroke-miterlimit="4" d="M58.2771 159.866L58.2771 159.866L63.3304 159.637L68.3837 159.866L73.437 159.636L78.4902 159.865L83.5435 159.636L88.5968 124.386L93.6501 126.303L98.7034 160.925L103.757 199.876L108.81 214.397L113.863 194.272L118.917 153.414L123.97 116.436L129.023 104.826L134.076 123.486L139.13 162.234L144.183 200.515L149.236 220.289L154.29 213.151L159.343 182.674L164.396 142.723L169.45 108.899L174.503 93.878L179.556 102.816L184.609 131.522L189.663 169.974L194.716 205.928L199.769 228.158L204.823 230.882L209.876 213.991L214.929 182.326L219.982 145.105L225.036 111.276L230.089 88.6806L235.142 82.3724L240.196 92.7887L245.249 117.641L250.302 150.963L255.355 186.328L260.409 216.744L265.462 237.245L270.515 244.312L275.569 237.351L280.622 218.113L285.675 189.505L290.729 156.661L295.782 124.221L300.835 97.1599L305.888 78.3173L310.942 70.1885L315.995 73.4882L321.048 86.9718L326.102 109.254L331.155 136.991L336.208 167.112L341.261 196.406L346.315 222.01L351.368 241.337L356.421 252.789L361.475 255.446L366.528 249.61L371.581 236.009L376.634 216.009L381.688 191.754L386.741 165.107L391.794 138.08L396.848 113.134L401.901 91.8532L406.954 75.5831L412.008 65.1178L417.061 60.8741"/>
		<ellipse fill="blue" cx="58.277077" cy="159.86636" rx="0.40212631" ry="0.40213013"/>
		<ellipse fill="blue" cx="63.330368" cy="159.63663" rx="0.40212631" ry="0.40213013"/>
		<ellipse fill="blue" cx="68.383659" cy="159.8656" rx="0.4021225" ry="0.40213013"/>
		<ellipse fill="blue" cx="73.436951" cy="159.63632" rx="0.4021225" ry="0.40213013"/>
		<ellipse fill="blue" cx="78.49025" cy="159.86501" rx="0.4021225" ry="0.40213013"/>
		<ellipse fill="blue" cx="83.543533" cy="159.63605" rx="0.4021225" ry="0.40213013"/>
		<ellipse fill="blue" cx="88.596832" cy="124.38564" rx="0.4021225" ry="0.4021225"/>
		<ellipse fill="blue" cx="93.650124" cy="126.30348" rx="0.4021225" ry="0.4021225"/>
		<ellipse fill="blue" cx="98.703415" cy="160.92543" rx="0.4021225" ry="0.40213013"/>
		<ellipse fill="blue" cx="103.75671" cy="199.87631" rx="0.4021225" ry="0.40213013"/>
		<ellipse fill="blue" cx="108.81" cy="214.39679" rx="0.4021225" ry="0.40213013"/>
		<ellipse fill="blue" cx="113.86329" cy="194.27214" rx="0.4021225" ry="0.40213013"/>
		<ellipse fill="blue" cx="118.91658" cy="153.41406" rx="0.4021225" ry="0.40213013"/>
		<ellipse fill="blue" cx="123.96987" cy="116.43604" rx="0.4021225" ry="0.4021225"/>
		<ellipse fill="blue" cx="129.02316" cy="104.82556" rx="0.40213013" ry="0.4021225"/>
		<ellipse fill="blue" cx="134.07646" cy="123.48611" rx="0.40213013" ry="0.4021225"/>
		<ellipse fill="blue" cx="139.12976" cy="162.23398" rx="0.40213013" ry="0.40213013"/>
		<ellipse fill="blue" cx="144.18304" cy="200.51547" rx="0.40213013" ry="0.40213013"/>
		<ellipse fill="blue" cx="149.23633" cy="220.28917" rx="0.40213013" ry="0.40213013"/>
		<ellipse fill="blue" cx="154.28963" cy="213.15097" rx="0.40213013" ry="0.40213013"/>
		<ellipse fill="blue" cx="159.34293" cy="182.67432" rx="0.40213013" ry="0.40213013"/>
		<ellipse fill="blue" cx="164.39621" cy="142.72324" rx="0.40213013" ry="0.40213013"/>
		<ellipse fill="blue" cx="169.44951" cy="108.89853" rx="0.40213013" ry="0.4021225"/>
		<ellipse fill="blue" cx="174.50279" cy="93.87796" rx="0.40213013" ry="0.4021225"/>
		<ellipse fill="blue" cx="179.55609" cy="102.81572" rx="0.40213013" ry="0.4021225"/>
		<ellipse fill="blue" cx="184.60938" cy="131.52219" rx="0.40213013" ry="0.40213013"/>
		<ellipse fill="blue" cx="189.66267" cy="169.97371" rx="0.40213013" ry="0.40213013"/>
		<ellipse fill="blue" cx="194.71596" cy="205.92847" rx="0.40213013" ry="0.40213013"/>
		<ellipse fill="blue" cx="199.76926" cy="228.15811" rx="0.40213013" ry="0.40213013"/>
		<ellipse fill="blue" cx="204.82254" cy="230.8821" rx="0.40213013" ry="0.40213013"/>
		<ellipse fill="blue" cx="209.87584" cy="213.99101" rx="0.40213013" ry="0.40213013"/>
		<ellipse fill="blue" cx="214.92914" cy="182.32607" rx="0.40213013" ry="0.40213013"/>
		<ellipse fill="blue" cx="219.98242" cy="145.10487" rx="0.40213013" ry="0.40213013"/>
		<ellipse fill="blue" cx="225.03572" cy="111.27649" rx="0.40213013" ry="0.4021225"/>
		<ellipse fill="blue" cx="230.089" cy="88.680573" rx="0.40213013" ry="0.4021225"/>
		<ellipse fill="blue" cx="235.1423" cy="82.37236" rx="0.40213013" ry="0.4021225"/>
		<ellipse fill="blue" cx="240.19559" cy="92.788696" rx="0.40213013" ry="0.4021225"/>
		<ellipse fill="blue" cx="245.24889" cy="117.64139" rx="0.40213013" ry="0.4021225"/>
		<ellipse fill="blue" cx="250.30217" cy="150.96318" rx="0.40213013" ry="0.40213013"/>
		<ellipse fill="blue" cx="255.35547" cy="186.3279" rx="0.40213013" ry="0.40213013"/>
		<ellipse fill="blue" cx="260.40875" cy="216.74403" rx="0.40213013" ry="0.40213013"/>
		<ellipse fill="blue" cx="265.46204" cy="237.24518" rx="0.40213013" ry="0.40213013"/>
		<ellipse fill="blue" cx="270.51535" cy="244.31207" rx="0.40213013" ry="0.40213013"/>
		<ellipse fill="blue" cx="275.56863" cy="237.35057" rx="0.40213013" ry="0.40213013"/>
		<ellipse fill="blue" cx="280.62195" cy="218.11334" rx="0.40213013" ry="0.40213013"/>
		<ellipse fill="blue" cx="285.67523" cy="189.50507" rx="0.40213013" ry="0.40213013"/>
		<ellipse fill="blue" cx="290.72852" cy="156.66136" rx="0.40213013" ry="0.40213013"/>
		<ellipse fill="blue" cx="295.7818" cy="124.2207" rx="0.40213013" ry="0.4021225"/>
		<ellipse fill="blue" cx="300.83508" cy="97.159866" rx="0.40213013" ry="0.4021225"/>
		<ellipse fill="blue" cx="305.8884" cy="78.317337" rx="0.40213013" ry="0.4021225"/>
		<ellipse fill="blue" cx="310.94168" cy="70.188522" rx="0.40213013" ry="0.4021225"/>
		<ellipse fill="blue" cx="315.99496" cy="73.488159" rx="0.40213013" ry="0.4021225"/>
		<ellipse fill="blue" cx="321.04828" cy="86.971832" rx="0.40213013" ry="0.4021225"/>
		<ellipse fill="blue" cx="326.10156" cy="109.2538" rx="0.40213013" ry="0.4021225"/>
		<ellipse fill="blue" cx="331.15485" cy="136.99141" rx="0.40213013" ry="0.40213013"/>
		<ellipse fill="blue" cx="336.20813" cy="167.11188" rx="0.40213013" ry="0.40213013"/>
		<ellipse fill="blue" cx="341.26144" cy="196.40591" rx="0.40213013" ry="0.40213013"/>
		<ellipse fill="blue" cx="346.31473" cy="222.00954" rx="0.40213013" ry="0.40213013"/>
		<ellipse fill="blue" cx="351.36801" cy="241.33745" rx="0.40213013" ry="0.40213013"/>
		<ellipse fill="blue" cx="356.4213" cy="252.78946" rx="0.40213013" ry="0.40213013"/>
		<ellipse fill="blue" cx="361.47461" cy="255.44617" rx="0.40213013" ry="0.40213013"/>
		<ellipse fill="blue" cx="366.52789" cy="249.61024" rx="0.40213013" ry="0.40213013"/>
		<ellipse fill="blue" cx="371.58118" cy="236.00888" rx="0.40213013" ry="0.40213013"/>
		<ellipse fill="blue" cx="376.63449" cy="216.0089" rx="0.40213013" ry="0.40213013"/>
		<ellipse fill="blue" cx="381.68777" cy="191.75427" rx="0.40213013" ry="0.40213013"/>
		<ellipse fill="blue" cx="386.74106" cy="165.10674" rx="0.40213013" ry="0.40213013"/>
		<ellipse fill="blue" cx="391.79434" cy="138.07973" rx="0.40213013" ry="0.40213013"/>
		<ellipse fill="blue" cx="396.84766" cy="113.13446" rx="0.40213013" ry="0.4021225"/>
		<ellipse fill="blue" cx="401.90094" cy="91.85321" rx="0.40213013" ry="0.4021225"/>
		<ellipse fill="blue" cx="406.95422" cy="75.583069" rx="0.40213013" ry="0.4021225"/>
		<ellipse fill="blue" cx="412.00751" cy="65.117767" rx="0.40213013" ry="0.4021225"/>
		<ellipse fill="blue" cx="417.06082" cy="60.874146" rx="0.40213013" ry="0.40212631"/>
	</g>
	<path fill="none" stroke="black" stroke-width="1" stroke-miterlimit="4" d="M58.2771 270.039L58.2771 274.039"/>
	<text transform="translate(58.2771 276.039)" font-size="12" font-family="Segoe UI" x="-3.234375, " y="11.027344, ">
			0
	</text>
	<path fill="none" stroke="black" stroke-width="1" stroke-miterlimit="4" d="M83.5435 270.039L83.5435 274.039"/>
	<text transform="translate(83.5435 276.039)" font-size="12" font-family="Segoe UI" x="-3.234375, " y="11.027344, ">
			5
	</text>
	<path fill="none" stroke="black" stroke-width="1" stroke-miterlimit="4" d="M108.81 270.039L108.81 274.039"/>
	<text transform="translate(108.81 276.039)" font-size="12" font-family="Segoe UI" x="-6.46875, 0, " y="11.027344, ">
			10
	</text>
	<path fill="none" stroke="black" stroke-width="1" stroke-miterlimit="4" d="M134.076 270.039L134.076 274.039"/>
	<text transform="translate(134.076 276.039)" font-size="12" font-family="Segoe UI" x="-6.46875, 0, " y="11.027344, ">
			15
	</text>
	<path fill="none" stroke="black" stroke-width="1" stroke-miterlimit="4" d="M159.343 270.039L159.343 274.039"/>
	<text transform="translate(159.343 276.039)" font-size="12" font-family="Segoe UI" x="-6.46875, 0, " y="11.027344, ">
			20
	</text>
	<path fill="none" stroke="black" stroke-width="1" stroke-miterlimit="4" d="M184.609 270.039L184.609 274.039"/>
	<text transform="translate(184.609 276.039)" font-size="12" font-family="Segoe UI" x="-6.46875, 0, " y="11.027344, ">
			25
	</text>
	<path fill="none" stroke="black" stroke-width="1" stroke-miterlimit="4" d="M209.876 270.039L209.876 274.039"/>
	<text transform="translate(209.876 276.039)" font-size="12" font-family="Segoe UI" x="-6.46875, 0, " y="11.027344, ">
			30
	</text>
	<path fill="none" stroke="black" stroke-width="1" stroke-miterlimit="4" d="M235.142 270.039L235.142 274.039"/>
	<text transform="translate(235.142 276.039)" font-size="12" font-family="Segoe UI" x="-6.46875, 0, " y="11.027344, ">
			35
	</text>
	<path fill="none" stroke="black" stroke-width="1" stroke-miterlimit="4" d="M260.409 270.039L260.409 274.039"/>
	<text transform="translate(260.409 276.039)" font-size="12" font-family="Segoe UI" x="-6.46875, 0, " y="11.027344, ">
			40
	</text>
	<path fill="none" stroke="black" stroke-width="1" stroke-miterlimit="4" d="M285.675 270.039L285.675 274.039"/>
	<text transform="translate(285.675 276.039)" font-size="12" font-family="Segoe UI" x="-6.46875, 0, " y="11.027344, ">
			45
	</text>
	<path fill="none" stroke="black" stroke-width="1" stroke-miterlimit="4" d="M310.942 270.039L310.942 274.039"/>
	<text transform="translate(310.942 276.039)" font-size="12" font-family="Segoe UI" x="-6.46875, 0, " y="11.027344, ">
			50
	</text>
	<path fill="none" stroke="black" stroke-width="1" stroke-miterlimit="4" d="M336.208 270.039L336.208 274.039"/>
	<text transform="translate(336.208 276.039)" font-size="12" font-family="Segoe UI" x="-6.46875, 0, " y="11.027344, ">
			55
	</text>
	<path fill="none" stroke="black" stroke-width="1" stroke-miterlimit="4" d="M361.475 270.039L361.475 274.039"/>
	<text transform="translate(361.475 276.039)" font-size="12" font-family="Segoe UI" x="-6.46875, 0, " y="11.027344, ">
			60
	</text>
	<path fill="none" stroke="black" stroke-width="1" stroke-miterlimit="4" d="M386.741 270.039L386.741 274.039"/>
	<text transform="translate(386.741 276.039)" font-size="12" font-family="Segoe UI" x="-6.46875, 0, " y="11.027344, ">
			65
	</text>
	<path fill="none" stroke="black" stroke-width="1" stroke-miterlimit="4" d="M412.008 270.039L412.008 274.039"/>
	<text transform="translate(412.008 276.039)" font-size="12" font-family="Segoe UI" x="-6.46875, 0, " y="11.027344, ">
			70
	</text>
	<path fill="none" stroke="black" stroke-width="1" stroke-miterlimit="4" d="M43.1172 270.039L43.1172 272.039"/>
	<path fill="none" stroke="black" stroke-width="1" stroke-miterlimit="4" d="M48.1705 270.039L48.1705 272.039"/>
	<path fill="none" stroke="black" stroke-width="1" stroke-miterlimit="4" d="M53.2238 270.039L53.2238 272.039"/>
	<path fill="none" stroke="black" stroke-width="1" stroke-miterlimit="4" d="M63.3304 270.039L63.3304 272.039"/>
	<path fill="none" stroke="black" stroke-width="1" stroke-miterlimit="4" d="M68.3837 270.039L68.3837 272.039"/>
	<path fill="none" stroke="black" stroke-width="1" stroke-miterlimit="4" d="M73.437 270.039L73.437 272.039"/>
	<path fill="none" stroke="black" stroke-width="1" stroke-miterlimit="4" d="M78.4902 270.039L78.4902 272.039"/>
	<path fill="none" stroke="black" stroke-width="1" stroke-miterlimit="4" d="M88.5968 270.039L88.5968 272.039"/>
	<path fill="none" stroke="black" stroke-width="1" stroke-miterlimit="4" d="M93.6501 270.039L93.6501 272.039"/>
	<path fill="none" stroke="black" stroke-width="1" stroke-miterlimit="4" d="M98.7034 270.039L98.7034 272.039"/>
	<path fill="none" stroke="black" stroke-width="1" stroke-miterlimit="4" d="M103.757 270.039L103.757 272.039"/>
	<path fill="none" stroke="black" stroke-width="1" stroke-miterlimit="4" d="M113.863 270.039L113.863 272.039"/>
	<path fill="none" stroke="black" stroke-width="1" stroke-miterlimit="4" d="M118.917 270.039L118.917 272.039"/>
	<path fill="none" stroke="black" stroke-width="1" stroke-miterlimit="4" d="M123.97 270.039L123.97 272.039"/>
	<path fill="none" stroke="black" stroke-width="1" stroke-miterlimit="4" d="M129.023 270.039L129.023 272.039"/>
	<path fill="none" stroke="black" stroke-width="1" stroke-miterlimit="4" d="M139.13 270.039L139.13 272.039"/>
	<path fill="none" stroke="black" stroke-width="1" stroke-miterlimit="4" d="M144.183 270.039L144.183 272.039"/>
	<path fill="none" stroke="black" stroke-width="1" stroke-miterlimit="4" d="M149.236 270.039L149.236 272.039"/>
	<path fill="none" stroke="black" stroke-width="1" stroke-miterlimit="4" d="M154.29 270.039L154.29 272.039"/>
	<path fill="none" stroke="black" stroke-width="1" stroke-miterlimit="4" d="M164.396 270.039L164.396 272.039"/>
	<path fill="none" stroke="black" stroke-width="1" stroke-miterlimit="4" d="M169.45 270.039L169.45 272.039"/>
	<path fill="none" stroke="black" stroke-width="1" stroke-miterlimit="4" d="M174.503 270.039L174.503 272.039"/>
	<path fill="none" stroke="black" stroke-width="1" stroke-miterlimit="4" d="M179.556 270.039L179.556 272.039"/>
	<path fill="none" stroke="black" stroke-width="1" stroke-miterlimit="4" d="M189.663 270.039L189.663 272.039"/>
	<path fill="none" stroke="black" stroke-width="1" stroke-miterlimit="4" d="M194.716 270.039L194.716 272.039"/>
	<path fill="none" stroke="black" stroke-width="1" stroke-miterlimit="4" d="M199.769 270.039L199.769 272.039"/>
	<path fill="none" stroke="black" stroke-width="1" stroke-miterlimit="4" d="M204.823 270.039L204.823 272.039"/>
	<path fill="none" stroke="black" stroke-width="1" stroke-miterlimit="4" d="M214.929 270.039L214.929 272.039"/>
	<path fill="none" stroke="black" stroke-width="1" stroke-miterlimit="4" d="M219.982 270.039L219.982 272.039"/>
	<path fill="none" stroke="black" stroke-width="1" stroke-miterlimit="4" d="M225.036 270.039L225.036 272.039"/>
	<path fill="none" stroke="black" stroke-width="1" stroke-miterlimit="4" d="M230.089 270.039L230.089 272.039"/>
	<path fill="none" stroke="black" stroke-width="1" stroke-miterlimit="4" d="M240.196 270.039L240.196 272.039"/>
	<path fill="none" stroke="black" stroke-width="1" stroke-miterlimit="4" d="M245.249 270.039L245.249 272.039"/>
	<path fill="none" stroke="black" stroke-width="1" stroke-miterlimit="4" d="M250.302 270.039L250.302 272.039"/>
	<path fill="none" stroke="black" stroke-width="1" stroke-miterlimit="4" d="M255.355 270.039L255.355 272.039"/>
	<path fill="none" stroke="black" stroke-width="1" stroke-miterlimit="4" d="M265.462 270.039L265.462 272.039"/>
	<path fill="none" stroke="black" stroke-width="1" stroke-miterlimit="4" d="M270.515 270.039L270.515 272.039"/>
	<path fill="none" stroke="black" stroke-width="1" stroke-miterlimit="4" d="M275.569 270.039L275.569 272.039"/>
	<path fill="none" stroke="black" stroke-width="1" stroke-miterlimit="4" d="M280.622 270.039L280.622 272.039"/>
	<path fill="none" stroke="black" stroke-width="1" stroke-miterlimit="4" d="M290.729 270.039L290.729 272.039"/>
	<path fill="none" stroke="black" stroke-width="1" stroke-miterlimit="4" d="M295.782 270.039L295.782 272.039"/>
	<path fill="none" stroke="black" stroke-width="1" stroke-miterlimit="4" d="M300.835 270.039L300.835 272.039"/>
	<path fill="none" stroke="black" stroke-width="1" stroke-miterlimit="4" d="M305.888 270.039L305.888 272.039"/>
	<path fill="none" stroke="black" stroke-width="1" stroke-miterlimit="4" d="M315.995 270.039L315.995 272.039"/>
	<path fill="none" stroke="black" stroke-width="1" stroke-miterlimit="4" d="M321.048 270.039L321.048 272.039"/>
	<path fill="none" stroke="black" stroke-width="1" stroke-miterlimit="4" d="M326.102 270.039L326.102 272.039"/>
	<path fill="none" stroke="black" stroke-width="1" stroke-miterlimit="4" d="M331.155 270.039L331.155 272.039"/>
	<path fill="none" stroke="black" stroke-width="1" stroke-miterlimit="4" d="M341.261 270.039L341.261 272.039"/>
	<path fill="none" stroke="black" stroke-width="1" stroke-miterlimit="4" d="M346.315 270.039L346.315 272.039"/>
	<path fill="none" stroke="black" stroke-width="1" stroke-miterlimit="4" d="M351.368 270.039L351.368 272.039"/>
	<path fill="none" stroke="black" stroke-width="1" stroke-miterlimit="4" d="M356.421 270.039L356.421 272.039"/>
	<path fill="none" stroke="black" stroke-width="1" stroke-miterlimit="4" d="M366.528 270.039L366.528 272.039"/>
	<path fill="none" stroke="black" stroke-width="1" stroke-miterlimit="4" d="M371.581 270.039L371.581 272.039"/>
	<path fill="none" stroke="black" stroke-width="1" stroke-miterlimit="4" d="M376.634 270.039L376.634 272.039"/>
	<path fill="none" stroke="black" stroke-width="1" stroke-miterlimit="4" d="M381.688 270.039L381.688 272.039"/>
	<path fill="none" stroke="black" stroke-width="1" stroke-miterlimit="4" d="M391.794 270.039L391.794 272.039"/>
	<path fill="none" stroke="black" stroke-width="1" stroke-miterlimit="4" d="M396.848 270.039L396.848 272.039"/>
	<path fill="none" stroke="black" stroke-width="1" stroke-miterlimit="4" d="M401.901 270.039L401.901 272.039"/>
	<path fill="none" stroke="black" stroke-width="1" stroke-miterlimit="4" d="M406.954 270.039L406.954 272.039"/>
	<path fill="none" stroke="black" stroke-width="1" stroke-miterlimit="4" d="M417.061 270.039L417.061 272.039"/>
	<path fill="none" stroke="black" stroke-width="1" stroke-miterlimit="4" d="M422.114 270.039L422.114 272.039"/>
	<path fill="none" stroke="black" stroke-width="1" stroke-miterlimit="4" d="M427.167 270.039L427.167 272.039"/>
	<path fill="none" stroke="black" stroke-width="1" stroke-miterlimit="4" d="M432.221 270.039L432.221 272.039"/>
	<path fill="none" stroke="black" stroke-width="1" stroke-miterlimit="4" d="M40.3379 270.039L435 270.039"/>
	<path fill="none" stroke="black" stroke-width="1" stroke-miterlimit="4" d="M40.3379 46.3812L435 46.3812"/>
	<path fill="none" stroke="black" stroke-width="1" stroke-miterlimit="4" d="M40.3379 244.382L36.3379 244.382"/>
	<text transform="translate(31.3379 244.382)" font-size="12" font-family="Segoe UI" x="-11.267578, -6.46875, " y="3.046875, ">
			-1
	</text>
	<path fill="none" stroke="black" stroke-width="1" stroke-miterlimit="4" d="M40.3379 202.276L36.3379 202.276"/>
	<text transform="translate(31.3379 202.276)" font-size="12" font-family="Segoe UI" x="-20.337891, -15.539063, -9.0703125, -6.46875, " y="3.046875, ">
			-0.5
	</text>
	<path fill="none" stroke="black" stroke-width="1" stroke-miterlimit="4" d="M40.3379 160.17L36.3379 160.17"/>
	<text transform="translate(31.3379 160.17)" font-size="12" font-family="Segoe UI" x="-6.46875, " y="3.046875, ">
			0
	</text>
	<path fill="none" stroke="black" stroke-width="1" stroke-miterlimit="4" d="M40.3379 118.064L36.3379 118.064"/>
	<text transform="translate(31.3379 118.064)" font-size="12" font-family="Segoe UI" x="-15.539063, -9.0703125, -6.46875, " y="3.046875, ">
			0.5
	</text>
	<path fill="none" stroke="black" stroke-width="1" stroke-miterlimit="4" d="M40.3379 75.9585L36.3379 75.9585"/>
	<text transform="translate(31.3379 75.9585)" font-size="12" font-family="Segoe UI" x="-6.46875, " y="3.046875, ">
			1
	</text>
	<path fill="none" stroke="black" stroke-width="1" stroke-miterlimit="4" d="M40.3379 269.645L38.3379 269.645"/>
	<path fill="none" stroke="black" stroke-width="1" stroke-miterlimit="4" d="M40.3379 261.224L38.3379 261.224"/>
	<path fill="none" stroke="black" stroke-width="1" stroke-miterlimit="4" d="M40.3379 252.803L38.3379 252.803"/>
	<path fill="none" stroke="black" stroke-width="1" stroke-miterlimit="4" d="M40.3379 235.96L38.3379 235.96"/>
	<path fill="none" stroke="black" stroke-width="1" stroke-miterlimit="4" d="M40.3379 227.539L38.3379 227.539"/>
	<path fill="none" stroke="black" stroke-width="1" stroke-miterlimit="4" d="M40.3379 219.118L38.3379 219.118"/>
	<path fill="none" stroke="black" stroke-width="1" stroke-miterlimit="4" d="M40.3379 210.697L38.3379 210.697"/>
	<path fill="none" stroke="black" stroke-width="1" stroke-miterlimit="4" d="M40.3379 193.855L38.3379 193.855"/>
	<path fill="none" stroke="black" stroke-width="1" stroke-miterlimit="4" d="M40.3379 185.434L38.3379 185.434"/>
	<path fill="none" stroke="black" stroke-width="1" stroke-miterlimit="4" d="M40.3379 177.012L38.3379 177.012"/>
	<path fill="none" stroke="black" stroke-width="1" stroke-miterlimit="4" d="M40.3379 168.591L38.3379 168.591"/>
	<path fill="none" stroke="black" stroke-width="1" stroke-miterlimit="4" d="M40.3379 151.749L38.3379 151.749"/>
	<path fill="none" stroke="black" stroke-width="1" stroke-miterlimit="4" d="M40.3379 143.328L38.3379 143.328"/>
	<path fill="none" stroke="black" stroke-width="1" stroke-miterlimit="4" d="M40.3379 134.907L38.3379 134.907"/>
	<path fill="none" stroke="black" stroke-width="1" stroke-miterlimit="4" d="M40.3379 126.485L38.3379 126.485"/>
	<path fill="none" stroke="black" stroke-width="1" stroke-miterlimit="4" d="M40.3379 109.643L38.3379 109.643"/>
	<path fill="none" stroke="black" stroke-width="1" stroke-miterlimit="4" d="M40.3379 101.222L38.3379 101.222"/>
	<path fill="none" stroke="black" stroke-width="1" stroke-miterlimit="4" d="M40.3379 92.8008L38.3379 92.8008"/>
	<path fill="none" stroke="black" stroke-width="1" stroke-miterlimit="4" d="M40.3379 84.3797L38.3379 84.3797"/>
	<path fill="none" stroke="black" stroke-width="1" stroke-miterlimit="4" d="M40.3379 67.5374L38.3379 67.5374"/>
	<path fill="none" stroke="black" stroke-width="1" stroke-miterlimit="4" d="M40.3379 59.1162L38.3379 59.1162"/>
	<path fill="none" stroke="black" stroke-width="1" stroke-miterlimit="4" d="M40.3379 50.6951L38.3379 50.6951"/>
	<path fill="none" stroke="black" stroke-width="1" stroke-miterlimit="4" d="M40.3379 270.039L40.3379 46.2813"/>
	<path fill="none" stroke="black" stroke-width="1" stroke-miterlimit="4" d="M435 270.039L435 46.2813"/>
	<text transform="translate(237.669 31.2813)" font-size="16" font-weight="600" font-family="Segoe UI" x="-65.210938, -55.226563, -45.59375, -41.046875, -34.679688, -24.757813, -20.34375, -13.875, -9.4609375, -0.0859375, 8.4296875, 23.742188, 34.992188, 40.898438, 50.101563, 59.304688, " y="-6.890625, ">
			Chirp - TEMA(10)
	</text>
</svg>
