<?xml version="1.0" encoding="utf-8" ?>
<svg xmlns="http://www.w3.org/2000/svg" xmlns:xlink="http://www.w3.org/1999/xlink" width="450" height="300">
	<rect fill="white" width="450" height="300"/>
	<path fill="none" stroke="#010101" stroke-width="1" stroke-miterlimit="4" stroke-opacity="0.098039217" d="M58.2771 270.039L58.2771 46.2813M83.5435 270.039L83.5435 46.2813M108.81 270.039L108.81 46.2813M134.076 270.039L134.076 46.2813M159.343 270.039L159.343 46.2813M184.609 270.039L184.609 46.2813M209.876 270.039L209.876 46.2813M235.142 270.039L235.142 46.2813M260.409 270.039L260.409 46.2813M285.675 270.039L285.675 46.2813M310.942 270.039L310.942 46.2813M336.208 270.039L336.208 46.2813M361.475 270.039L361.475 46.2813M386.741 270.039L386.741 46.2813M412.008 270.039L412.008 46.2813"/>
	<path fill="none" stroke="#010101" stroke-width="1" stroke-miterlimit="4" stroke-opacity="0.098039217" d="M40.3379 214.038L435 214.038M40.3379 156.458L435 156.458M40.3379 98.8773L435 98.8773"/>
	<clipPath id="cl_103">
		<rect x="40.337891" y="46.28125" width="394.66211" height="223.75781"/>
	</clipPath>
	<g clip-path="url(#cl_103)">
		<path fill="none" stroke="red" stroke-width="2" stroke-miterlimit="4" d="M58.2771 237.07L58.2771 237.07L63.3304 191.006L68.3837 237.07L73.437 191.006L78.4902 237.07L83.5435 214.038L88.5968 214.038L93.6501 208.28L98.7034 242.828L103.757 250.89L108.81 224.403L113.863 188.703L118.917 176.035L123.97 197.916L129.023 234.767L134.076 252.041L139.13 234.767L144.183 197.916L149.236 176.035L154.29 188.703L159.343 225.554L164.396 250.89L169.45 242.828L174.503 208.28L179.556 179.49L184.609 181.793L189.663 214.038L194.716 246.283L199.769 248.586L204.823 218.645L209.876 185.248L214.929 177.187L219.982 203.674L225.036 239.374L230.089 252.041L235.142 229.009L240.196 193.309L245.249 176.035L250.302 193.309L255.355 115L260.409 136.88L265.462 123.061L270.515 87.3612L275.569 62.0258L280.622 70.087L285.675 104.635L290.729 134.577L295.782 131.122L300.835 97.7256L305.888 66.6322L310.942 64.329L315.995 94.2708L321.048 128.819L326.102 135.729L331.155 109.242L336.208 73.5419L341.261 60.8741L346.315 83.9063L351.368 120.758L356.421 136.88L361.475 118.455L366.528 81.6031L371.581 60.8741L376.634 74.6935L381.688 110.393L386.741 135.729L391.794 127.667L396.848 91.9676L401.901 63.1774L406.954 66.6322L412.008 100.029L417.061 132.274"/>
		<ellipse fill="red" cx="58.277077" cy="237.07039" rx="0.40212631" ry="0.40213013"/>
		<ellipse fill="red" cx="63.330368" cy="191.00601" rx="0.40212631" ry="0.40213013"/>
		<ellipse fill="red" cx="68.383659" cy="237.07039" rx="0.4021225" ry="0.40213013"/>
		<ellipse fill="red" cx="73.436951" cy="191.00601" rx="0.4021225" ry="0.40213013"/>
		<ellipse fill="red" cx="78.49025" cy="237.07039" rx="0.4021225" ry="0.40213013"/>
		<ellipse fill="red" cx="83.543533" cy="214.03821" rx="0.4021225" ry="0.40213013"/>
		<ellipse fill="red" cx="88.596832" cy="214.03821" rx="0.4021225" ry="0.40213013"/>
		<ellipse fill="red" cx="93.650124" cy="208.28015" rx="0.4021225" ry="0.40213013"/>
		<ellipse fill="red" cx="98.703415" cy="242.82843" rx="0.4021225" ry="0.40213013"/>
		<ellipse fill="red" cx="103.75671" cy="250.88971" rx="0.4021225" ry="0.40213013"/>
		<ellipse fill="red" cx="108.81" cy="224.40268" rx="0.4021225" ry="0.40213013"/>
		<ellipse fill="red" cx="113.86329" cy="188.70279" rx="0.4021225" ry="0.40213013"/>
		<ellipse fill="red" cx="118.91658" cy="176.0351" rx="0.4021225" ry="0.40213013"/>
		<ellipse fill="red" cx="123.96987" cy="197.91568" rx="0.4021225" ry="0.40213013"/>
		<ellipse fill="red" cx="129.02316" cy="234.76717" rx="0.40213013" ry="0.40213013"/>
		<ellipse fill="red" cx="134.07646" cy="252.04132" rx="0.40213013" ry="0.40213013"/>
		<ellipse fill="red" cx="139.12976" cy="234.76717" rx="0.40213013" ry="0.40213013"/>
		<ellipse fill="red" cx="144.18304" cy="197.91568" rx="0.40213013" ry="0.40213013"/>
		<ellipse fill="red" cx="149.23633" cy="176.0351" rx="0.40213013" ry="0.40213013"/>
		<ellipse fill="red" cx="154.28963" cy="188.70279" rx="0.40213013" ry="0.40213013"/>
		<ellipse fill="red" cx="159.34293" cy="225.55429" rx="0.40213013" ry="0.40213013"/>
		<ellipse fill="red" cx="164.39621" cy="250.88971" rx="0.40213013" ry="0.40213013"/>
		<ellipse fill="red" cx="169.44951" cy="242.82843" rx="0.40213013" ry="0.40213013"/>
		<ellipse fill="red" cx="174.50279" cy="208.28015" rx="0.40213013" ry="0.40213013"/>
		<ellipse fill="red" cx="179.55609" cy="179.48993" rx="0.40213013" ry="0.40213013"/>
		<ellipse fill="red" cx="184.60938" cy="181.79314" rx="0.40213013" ry="0.40213013"/>
		<ellipse fill="red" cx="189.66267" cy="214.03821" rx="0.40213013" ry="0.40213013"/>
		<ellipse fill="red" cx="194.71596" cy="246.28326" rx="0.40213013" ry="0.40213013"/>
		<ellipse fill="red" cx="199.76926" cy="248.58649" rx="0.40213013" ry="0.40213013"/>
		<ellipse fill="red" cx="204.82254" cy="218.64464" rx="0.40213013" ry="0.40213013"/>
		<ellipse fill="red" cx="209.87584" cy="185.24797" rx="0.40213013" ry="0.40213013"/>
		<ellipse fill="red" cx="214.92914" cy="177.18671" rx="0.40213013" ry="0.40213013"/>
		<ellipse fill="red" cx="219.98242" cy="203.67372" rx="0.40213013" ry="0.40213013"/>
		<ellipse fill="red" cx="225.03572" cy="239.37361" rx="0.40213013" ry="0.40213013"/>
		<ellipse fill="red" cx="230.089" cy="252.04132" rx="0.40213013" ry="0.40213013"/>
		<ellipse fill="red" cx="235.1423" cy="229.00912" rx="0.40213013" ry="0.40213013"/>
		<ellipse fill="red" cx="240.19559" cy="193.30923" rx="0.40213013" ry="0.40213013"/>
		<ellipse fill="red" cx="245.24889" cy="176.0351" rx="0.40213013" ry="0.40213013"/>
		<ellipse fill="red" cx="250.30217" cy="193.30923" rx="0.40213013" ry="0.40213013"/>
		<ellipse fill="red" cx="255.35547" cy="114.99979" rx="0.40213013" ry="0.4021225"/>
		<ellipse fill="red" cx="260.40875" cy="136.88037" rx="0.40213013" ry="0.40213013"/>
		<ellipse fill="red" cx="265.46204" cy="123.06107" rx="0.40213013" ry="0.4021225"/>
		<ellipse fill="red" cx="270.51535" cy="87.36116" rx="0.40213013" ry="0.4021225"/>
		<ellipse fill="red" cx="275.56863" cy="62.025757" rx="0.40213013" ry="0.40212631"/>
		<ellipse fill="red" cx="280.62195" cy="70.087021" rx="0.40213013" ry="0.4021225"/>
		<ellipse fill="red" cx="285.67523" cy="104.63531" rx="0.40213013" ry="0.4021225"/>
		<ellipse fill="red" cx="290.72852" cy="134.57715" rx="0.40213013" ry="0.40213013"/>
		<ellipse fill="red" cx="295.7818" cy="131.12233" rx="0.40213013" ry="0.40213013"/>
		<ellipse fill="red" cx="300.83508" cy="97.725647" rx="0.40213013" ry="0.4021225"/>
		<ellipse fill="red" cx="305.8884" cy="66.632202" rx="0.40213013" ry="0.4021225"/>
		<ellipse fill="red" cx="310.94168" cy="64.328979" rx="0.40213013" ry="0.4021244"/>
		<ellipse fill="red" cx="315.99496" cy="94.270828" rx="0.40213013" ry="0.4021225"/>
		<ellipse fill="red" cx="321.04828" cy="128.81911" rx="0.40213013" ry="0.40213013"/>
		<ellipse fill="red" cx="326.10156" cy="135.72876" rx="0.40213013" ry="0.40213013"/>
		<ellipse fill="red" cx="331.15485" cy="109.24174" rx="0.40213013" ry="0.4021225"/>
		<ellipse fill="red" cx="336.20813" cy="73.541855" rx="0.40213013" ry="0.4021225"/>
		<ellipse fill="red" cx="341.26144" cy="60.874146" rx="0.40213013" ry="0.40212631"/>
		<ellipse fill="red" cx="346.31473" cy="83.906342" rx="0.40213013" ry="0.4021225"/>
		<ellipse fill="red" cx="351.36801" cy="120.75784" rx="0.40213013" ry="0.4021225"/>
		<ellipse fill="red" cx="356.4213" cy="136.88037" rx="0.40213013" ry="0.40213013"/>
		<ellipse fill="red" cx="361.47461" cy="118.45462" rx="0.40213013" ry="0.4021225"/>
		<ellipse fill="red" cx="366.52789" cy="81.603119" rx="0.40213013" ry="0.4021225"/>
		<ellipse fill="red" cx="371.58118" cy="60.874146" rx="0.40213013" ry="0.40212631"/>
		<ellipse fill="red" cx="376.63449" cy="74.693466" rx="0.40213013" ry="0.4021225"/>
		<ellipse fill="red" cx="381.68777" cy="110.39336" rx="0.40213013" ry="0.4021225"/>
		<ellipse fill="red" cx="386.74106" cy="135.72876" rx="0.40213013" ry="0.40213013"/>
		<ellipse fill="red" cx="391.79434" cy="127.6675" rx="0.40213013" ry="0.40212631"/>
		<ellipse fill="red" cx="396.84766" cy="91.967606" rx="0.40213013" ry="0.4021225"/>
		<ellipse fill="red" cx="401.90094" cy="63.177368" rx="0.40213013" ry="0.40212631"/>
		<ellipse fill="red" cx="406.95422" cy="66.632202" rx="0.40213013" ry="0.4021225"/>
		<ellipse fill="red" cx="412.00751" cy="100.02887" rx="0.40213013" ry="0.4021225"/>
		<ellipse fill="red" cx="417.06082" cy="132.27394" rx="0.40213013" ry="0.40213013"/>
	</g>
	<clipPath id="cl_104">
		<rect x="40.337891" y="46.28125" width="394.66211" height="223.75781"/>
	</clipPath>
	<g clip-path="url(#cl_104)">
		<path fill="none" stroke="blue" stroke-width="4" stroke-miterlimit="4" d="M58.2771 255.446L58.2771 255.446L63.3304 247.065L68.3837 233.474L73.437 185.446L78.4902 201.437L83.5435 210.274L88.5968 212.334L93.6501 211.649L98.7034 219.727L103.757 240.076L108.81 233.308L113.863 215.333L118.917 179.823L123.97 190.611L129.023 205.981L134.076 246.509L139.13 239.305L144.183 231.976L149.236 190.185L154.29 189.206L159.343 190.283L164.396 226.983L169.45 238.14L174.503 232.238L179.556 208.975L184.609 190.901L189.663 197.83L194.716 213.705L199.769 236.272L204.823 229.448L209.876 218.662L214.929 192.084L219.982 197.652L225.036 204.656L230.089 235.244L235.142 231.774L240.196 228.631L245.249 195.514L250.302 194.132L255.355 143.83L260.409 139.416L265.462 133.497L270.515 115.037L275.569 82.5651L280.622 75.4442L285.675 78.8552L290.729 103.864L295.782 121.249L300.835 114.516L305.888 98.5719L310.942 76.1775L315.995 82.816L321.048 94.7809L326.102 121.98L331.155 115.989L336.208 108.34L341.261 77.5454L346.315 81.0796L351.368 84.6173L356.421 117.718L361.475 118.171L366.528 117.761L371.581 83.7366L376.634 77.7058L381.688 81.7038L386.741 109.457L391.794 121.599L396.848 115.406L401.901 92.0707L406.954 75.0138L412.008 82.3039L417.061 101.044"/>
		<ellipse fill="blue" cx="58.277077" cy="255.44617" rx="0.40212631" ry="0.40213013"/>
		<ellipse fill="blue" cx="63.330368" cy="247.06485" rx="0.40212631" ry="0.40213013"/>
		<ellipse fill="blue" cx="68.383659" cy="233.47446" rx="0.4021225" ry="0.40213013"/>
		<ellipse fill="blue" cx="73.436951" cy="185.44553" rx="0.4021225" ry="0.40213013"/>
		<ellipse fill="blue" cx="78.49025" cy="201.43707" rx="0.4021225" ry="0.40213013"/>
		<ellipse fill="blue" cx="83.543533" cy="210.27403" rx="0.4021225" ry="0.40213013"/>
		<ellipse fill="blue" cx="88.596832" cy="212.3344" rx="0.4021225" ry="0.40213013"/>
		<ellipse fill="blue" cx="93.650124" cy="211.64935" rx="0.4021225" ry="0.40213013"/>
		<ellipse fill="blue" cx="98.703415" cy="219.72748" rx="0.4021225" ry="0.40213013"/>
		<ellipse fill="blue" cx="103.75671" cy="240.07637" rx="0.4021225" ry="0.40213013"/>
		<ellipse fill="blue" cx="108.81" cy="233.30759" rx="0.4021225" ry="0.40213013"/>
		<ellipse fill="blue" cx="113.86329" cy="215.3325" rx="0.4021225" ry="0.40213013"/>
		<ellipse fill="blue" cx="118.91658" cy="179.82271" rx="0.4021225" ry="0.40213013"/>
		<ellipse fill="blue" cx="123.96987" cy="190.61086" rx="0.4021225" ry="0.40213013"/>
		<ellipse fill="blue" cx="129.02316" cy="205.98102" rx="0.40213013" ry="0.40213013"/>
		<ellipse fill="blue" cx="134.07646" cy="246.50943" rx="0.40213013" ry="0.40213013"/>
		<ellipse fill="blue" cx="139.12976" cy="239.30466" rx="0.40213013" ry="0.40213013"/>
		<ellipse fill="blue" cx="144.18304" cy="231.97557" rx="0.40213013" ry="0.40213013"/>
		<ellipse fill="blue" cx="149.23633" cy="190.18495" rx="0.40213013" ry="0.40213013"/>
		<ellipse fill="blue" cx="154.28963" cy="189.20572" rx="0.40213013" ry="0.40213013"/>
		<ellipse fill="blue" cx="159.34293" cy="190.28342" rx="0.40213013" ry="0.40213013"/>
		<ellipse fill="blue" cx="164.39621" cy="226.9826" rx="0.40213013" ry="0.40213013"/>
		<ellipse fill="blue" cx="169.44951" cy="238.14046" rx="0.40213013" ry="0.40213013"/>
		<ellipse fill="blue" cx="174.50279" cy="232.23772" rx="0.40213013" ry="0.40213013"/>
		<ellipse fill="blue" cx="179.55609" cy="208.97461" rx="0.40213013" ry="0.40213013"/>
		<ellipse fill="blue" cx="184.60938" cy="190.90132" rx="0.40213013" ry="0.40213013"/>
		<ellipse fill="blue" cx="189.66267" cy="197.82999" rx="0.40213013" ry="0.40213013"/>
		<ellipse fill="blue" cx="194.71596" cy="213.7052" rx="0.40213013" ry="0.40213013"/>
		<ellipse fill="blue" cx="199.76926" cy="236.27173" rx="0.40213013" ry="0.40213013"/>
		<ellipse fill="blue" cx="204.82254" cy="229.44778" rx="0.40213013" ry="0.40213013"/>
		<ellipse fill="blue" cx="209.87584" cy="218.66156" rx="0.40213013" ry="0.40213013"/>
		<ellipse fill="blue" cx="214.92914" cy="192.08423" rx="0.40213013" ry="0.40213013"/>
		<ellipse fill="blue" cx="219.98242" cy="197.65201" rx="0.40213013" ry="0.40213013"/>
		<ellipse fill="blue" cx="225.03572" cy="204.65561" rx="0.40213013" ry="0.40213013"/>
		<ellipse fill="blue" cx="230.089" cy="235.24361" rx="0.40213013" ry="0.40213013"/>
		<ellipse fill="blue" cx="235.1423" cy="231.77426" rx="0.40213013" ry="0.40213013"/>
		<ellipse fill="blue" cx="240.19559" cy="228.63107" rx="0.40213013" ry="0.40213013"/>
		<ellipse fill="blue" cx="245.24889" cy="195.5141" rx="0.40213013" ry="0.40213013"/>
		<ellipse fill="blue" cx="250.30217" cy="194.13223" rx="0.40213013" ry="0.40213013"/>
		<ellipse fill="blue" cx="255.35547" cy="143.82985" rx="0.40213013" ry="0.40213013"/>
		<ellipse fill="blue" cx="260.40875" cy="139.41592" rx="0.40213013" ry="0.40213013"/>
		<ellipse fill="blue" cx="265.46204" cy="133.4975" rx="0.40213013" ry="0.40213013"/>
		<ellipse fill="blue" cx="270.51535" cy="115.03716" rx="0.40213013" ry="0.4021225"/>
		<ellipse fill="blue" cx="275.56863" cy="82.56514" rx="0.40213013" ry="0.4021225"/>
		<ellipse fill="blue" cx="280.62195" cy="75.444229" rx="0.40213013" ry="0.4021225"/>
		<ellipse fill="blue" cx="285.67523" cy="78.85524" rx="0.40213013" ry="0.4021225"/>
		<ellipse fill="blue" cx="290.72852" cy="103.86427" rx="0.40213013" ry="0.4021225"/>
		<ellipse fill="blue" cx="295.7818" cy="121.24933" rx="0.40213013" ry="0.4021225"/>
		<ellipse fill="blue" cx="300.83508" cy="114.5159" rx="0.40213013" ry="0.4021225"/>
		<ellipse fill="blue" cx="305.8884" cy="98.571899" rx="0.40213013" ry="0.4021225"/>
		<ellipse fill="blue" cx="310.94168" cy="76.177475" rx="0.40213013" ry="0.4021225"/>
		<ellipse fill="blue" cx="315.99496" cy="82.81604" rx="0.40213013" ry="0.4021225"/>
		<ellipse fill="blue" cx="321.04828" cy="94.780869" rx="0.40213013" ry="0.4021225"/>
		<ellipse fill="blue" cx="326.10156" cy="121.97955" rx="0.40213013" ry="0.4021225"/>
		<ellipse fill="blue" cx="331.15485" cy="115.98921" rx="0.40213013" ry="0.4021225"/>
		<ellipse fill="blue" cx="336.20813" cy="108.34007" rx="0.40213013" ry="0.4021225"/>
		<ellipse fill="blue" cx="341.26144" cy="77.545364" rx="0.40213013" ry="0.4021225"/>
		<ellipse fill="blue" cx="346.31473" cy="81.079605" rx="0.40213013" ry="0.4021225"/>
		<ellipse fill="blue" cx="351.36801" cy="84.617294" rx="0.40213013" ry="0.4021225"/>
		<ellipse fill="blue" cx="356.4213" cy="117.71819" rx="0.40213013" ry="0.4021225"/>
		<ellipse fill="blue" cx="361.47461" cy="118.17081" rx="0.40213013" ry="0.4021225"/>
		<ellipse fill="blue" cx="366.52789" cy="117.76141" rx="0.40213013" ry="0.4021225"/>
		<ellipse fill="blue" cx="371.58118" cy="83.736588" rx="0.40213013" ry="0.4021225"/>
		<ellipse fill="blue" cx="376.63449" cy="77.705765" rx="0.40213013" ry="0.4021225"/>
		<ellipse fill="blue" cx="381.68777" cy="81.703812" rx="0.40213013" ry="0.4021225"/>
		<ellipse fill="blue" cx="386.74106" cy="109.45699" rx="0.40213013" ry="0.4021225"/>
		<ellipse fill="blue" cx="391.79434" cy="121.59879" rx="0.40213013" ry="0.4021225"/>
		<ellipse fill="blue" cx="396.84766" cy="115.40553" rx="0.40213013" ry="0.4021225"/>
		<ellipse fill="blue" cx="401.90094" cy="92.070663" rx="0.40213013" ry="0.4021225"/>
		<ellipse fill="blue" cx="406.95422" cy="75.013809" rx="0.40213013" ry="0.4021225"/>
		<ellipse fill="blue" cx="412.00751" cy="82.30394" rx="0.40213013" ry="0.4021225"/>
		<ellipse fill="blue" cx="417.06082" cy="101.04417" rx="0.40213013" ry="0.4021225"/>
	</g>
	<path fill="none" stroke="black" stroke-width="1" stroke-miterlimit="4" d="M58.2771 270.039L58.2771 274.039"/>
	<text transform="translate(58.2771 276.039)" font-size="12" font-family="Segoe UI" x="-3.234375, " y="11.027344, ">
			0
	</text>
	<path fill="none" stroke="black" stroke-width="1" stroke-miterlimit="4" d="M83.5435 270.039L83.5435 274.039"/>
	<text transform="translate(83.5435 276.039)" font-size="12" font-family="Segoe UI" x="-3.234375, " y="11.027344, ">
			5
	</text>
	<path fill="none" stroke="black" stroke-width="1" stroke-miterlimit="4" d="M108.81 270.039L108.81 274.039"/>
	<text transform="translate(108.81 276.039)" font-size="12" font-family="Segoe UI" x="-6.46875, 0, " y="11.027344, ">
			10
	</text>
	<path fill="none" stroke="black" stroke-width="1" stroke-miterlimit="4" d="M134.076 270.039L134.076 274.039"/>
	<text transform="translate(134.076 276.039)" font-size="12" font-family="Segoe UI" x="-6.46875, 0, " y="11.027344, ">
			15
	</text>
	<path fill="none" stroke="black" stroke-width="1" stroke-miterlimit="4" d="M159.343 270.039L159.343 274.039"/>
	<text transform="translate(159.343 276.039)" font-size="12" font-family="Segoe UI" x="-6.46875, 0, " y="11.027344, ">
			20
	</text>
	<path fill="none" stroke="black" stroke-width="1" stroke-miterlimit="4" d="M184.609 270.039L184.609 274.039"/>
	<text transform="translate(184.609 276.039)" font-size="12" font-family="Segoe UI" x="-6.46875, 0, " y="11.027344, ">
			25
	</text>
	<path fill="none" stroke="black" stroke-width="1" stroke-miterlimit="4" d="M209.876 270.039L209.876 274.039"/>
	<text transform="translate(209.876 276.039)" font-size="12" font-family="Segoe UI" x="-6.46875, 0, " y="11.027344, ">
			30
	</text>
	<path fill="none" stroke="black" stroke-width="1" stroke-miterlimit="4" d="M235.142 270.039L235.142 274.039"/>
	<text transform="translate(235.142 276.039)" font-size="12" font-family="Segoe UI" x="-6.46875, 0, " y="11.027344, ">
			35
	</text>
	<path fill="none" stroke="black" stroke-width="1" stroke-miterlimit="4" d="M260.409 270.039L260.409 274.039"/>
	<text transform="translate(260.409 276.039)" font-size="12" font-family="Segoe UI" x="-6.46875, 0, " y="11.027344, ">
			40
	</text>
	<path fill="none" stroke="black" stroke-width="1" stroke-miterlimit="4" d="M285.675 270.039L285.675 274.039"/>
	<text transform="translate(285.675 276.039)" font-size="12" font-family="Segoe UI" x="-6.46875, 0, " y="11.027344, ">
			45
	</text>
	<path fill="none" stroke="black" stroke-width="1" stroke-miterlimit="4" d="M310.942 270.039L310.942 274.039"/>
	<text transform="translate(310.942 276.039)" font-size="12" font-family="Segoe UI" x="-6.46875, 0, " y="11.027344, ">
			50
	</text>
	<path fill="none" stroke="black" stroke-width="1" stroke-miterlimit="4" d="M336.208 270.039L336.208 274.039"/>
	<text transform="translate(336.208 276.039)" font-size="12" font-family="Segoe UI" x="-6.46875, 0, " y="11.027344, ">
			55
	</text>
	<path fill="none" stroke="black" stroke-width="1" stroke-miterlimit="4" d="M361.475 270.039L361.475 274.039"/>
	<text transform="translate(361.475 276.039)" font-size="12" font-family="Segoe UI" x="-6.46875, 0, " y="11.027344, ">
			60
	</text>
	<path fill="none" stroke="black" stroke-width="1" stroke-miterlimit="4" d="M386.741 270.039L386.741 274.039"/>
	<text transform="translate(386.741 276.039)" font-size="12" font-family="Segoe UI" x="-6.46875, 0, " y="11.027344, ">
			65
	</text>
	<path fill="none" stroke="black" stroke-width="1" stroke-miterlimit="4" d="M412.008 270.039L412.008 274.039"/>
	<text transform="translate(412.008 276.039)" font-size="12" font-family="Segoe UI" x="-6.46875, 0, " y="11.027344, ">
			70
	</text>
	<path fill="none" stroke="black" stroke-width="1" stroke-miterlimit="4" d="M43.1172 270.039L43.1172 272.039"/>
	<path fill="none" stroke="black" stroke-width="1" stroke-miterlimit="4" d="M48.1705 270.039L48.1705 272.039"/>
	<path fill="none" stroke="black" stroke-width="1" stroke-miterlimit="4" d="M53.2238 270.039L53.2238 272.039"/>
	<path fill="none" stroke="black" stroke-width="1" stroke-miterlimit="4" d="M63.3304 270.039L63.3304 272.039"/>
	<path fill="none" stroke="black" stroke-width="1" stroke-miterlimit="4" d="M68.3837 270.039L68.3837 272.039"/>
	<path fill="none" stroke="black" stroke-width="1" stroke-miterlimit="4" d="M73.437 270.039L73.437 272.039"/>
	<path fill="none" stroke="black" stroke-width="1" stroke-miterlimit="4" d="M78.4902 270.039L78.4902 272.039"/>
	<path fill="none" stroke="black" stroke-width="1" stroke-miterlimit="4" d="M88.5968 270.039L88.5968 272.039"/>
	<path fill="none" stroke="black" stroke-width="1" stroke-miterlimit="4" d="M93.6501 270.039L93.6501 272.039"/>
	<path fill="none" stroke="black" stroke-width="1" stroke-miterlimit="4" d="M98.7034 270.039L98.7034 272.039"/>
	<path fill="none" stroke="black" stroke-width="1" stroke-miterlimit="4" d="M103.757 270.039L103.757 272.039"/>
	<path fill="none" stroke="black" stroke-width="1" stroke-miterlimit="4" d="M113.863 270.039L113.863 272.039"/>
	<path fill="none" stroke="black" stroke-width="1" stroke-miterlimit="4" d="M118.917 270.039L118.917 272.039"/>
	<path fill="none" stroke="black" stroke-width="1" stroke-miterlimit="4" d="M123.97 270.039L123.97 272.039"/>
	<path fill="none" stroke="black" stroke-width="1" stroke-miterlimit="4" d="M129.023 270.039L129.023 272.039"/>
	<path fill="none" stroke="black" stroke-width="1" stroke-miterlimit="4" d="M139.13 270.039L139.13 272.039"/>
	<path fill="none" stroke="black" stroke-width="1" stroke-miterlimit="4" d="M144.183 270.039L144.183 272.039"/>
	<path fill="none" stroke="black" stroke-width="1" stroke-miterlimit="4" d="M149.236 270.039L149.236 272.039"/>
	<path fill="none" stroke="black" stroke-width="1" stroke-miterlimit="4" d="M154.29 270.039L154.29 272.039"/>
	<path fill="none" stroke="black" stroke-width="1" stroke-miterlimit="4" d="M164.396 270.039L164.396 272.039"/>
	<path fill="none" stroke="black" stroke-width="1" stroke-miterlimit="4" d="M169.45 270.039L169.45 272.039"/>
	<path fill="none" stroke="black" stroke-width="1" stroke-miterlimit="4" d="M174.503 270.039L174.503 272.039"/>
	<path fill="none" stroke="black" stroke-width="1" stroke-miterlimit="4" d="M179.556 270.039L179.556 272.039"/>
	<path fill="none" stroke="black" stroke-width="1" stroke-miterlimit="4" d="M189.663 270.039L189.663 272.039"/>
	<path fill="none" stroke="black" stroke-width="1" stroke-miterlimit="4" d="M194.716 270.039L194.716 272.039"/>
	<path fill="none" stroke="black" stroke-width="1" stroke-miterlimit="4" d="M199.769 270.039L199.769 272.039"/>
	<path fill="none" stroke="black" stroke-width="1" stroke-miterlimit="4" d="M204.823 270.039L204.823 272.039"/>
	<path fill="none" stroke="black" stroke-width="1" stroke-miterlimit="4" d="M214.929 270.039L214.929 272.039"/>
	<path fill="none" stroke="black" stroke-width="1" stroke-miterlimit="4" d="M219.982 270.039L219.982 272.039"/>
	<path fill="none" stroke="black" stroke-width="1" stroke-miterlimit="4" d="M225.036 270.039L225.036 272.039"/>
	<path fill="none" stroke="black" stroke-width="1" stroke-miterlimit="4" d="M230.089 270.039L230.089 272.039"/>
	<path fill="none" stroke="black" stroke-width="1" stroke-miterlimit="4" d="M240.196 270.039L240.196 272.039"/>
	<path fill="none" stroke="black" stroke-width="1" stroke-miterlimit="4" d="M245.249 270.039L245.249 272.039"/>
	<path fill="none" stroke="black" stroke-width="1" stroke-miterlimit="4" d="M250.302 270.039L250.302 272.039"/>
	<path fill="none" stroke="black" stroke-width="1" stroke-miterlimit="4" d="M255.355 270.039L255.355 272.039"/>
	<path fill="none" stroke="black" stroke-width="1" stroke-miterlimit="4" d="M265.462 270.039L265.462 272.039"/>
	<path fill="none" stroke="black" stroke-width="1" stroke-miterlimit="4" d="M270.515 270.039L270.515 272.039"/>
	<path fill="none" stroke="black" stroke-width="1" stroke-miterlimit="4" d="M275.569 270.039L275.569 272.039"/>
	<path fill="none" stroke="black" stroke-width="1" stroke-miterlimit="4" d="M280.622 270.039L280.622 272.039"/>
	<path fill="none" stroke="black" stroke-width="1" stroke-miterlimit="4" d="M290.729 270.039L290.729 272.039"/>
	<path fill="none" stroke="black" stroke-width="1" stroke-miterlimit="4" d="M295.782 270.039L295.782 272.039"/>
	<path fill="none" stroke="black" stroke-width="1" stroke-miterlimit="4" d="M300.835 270.039L300.835 272.039"/>
	<path fill="none" stroke="black" stroke-width="1" stroke-miterlimit="4" d="M305.888 270.039L305.888 272.039"/>
	<path fill="none" stroke="black" stroke-width="1" stroke-miterlimit="4" d="M315.995 270.039L315.995 272.039"/>
	<path fill="none" stroke="black" stroke-width="1" stroke-miterlimit="4" d="M321.048 270.039L321.048 272.039"/>
	<path fill="none" stroke="black" stroke-width="1" stroke-miterlimit="4" d="M326.102 270.039L326.102 272.039"/>
	<path fill="none" stroke="black" stroke-width="1" stroke-miterlimit="4" d="M331.155 270.039L331.155 272.039"/>
	<path fill="none" stroke="black" stroke-width="1" stroke-miterlimit="4" d="M341.261 270.039L341.261 272.039"/>
	<path fill="none" stroke="black" stroke-width="1" stroke-miterlimit="4" d="M346.315 270.039L346.315 272.039"/>
	<path fill="none" stroke="black" stroke-width="1" stroke-miterlimit="4" d="M351.368 270.039L351.368 272.039"/>
	<path fill="none" stroke="black" stroke-width="1" stroke-miterlimit="4" d="M356.421 270.039L356.421 272.039"/>
	<path fill="none" stroke="black" stroke-width="1" stroke-miterlimit="4" d="M366.528 270.039L366.528 272.039"/>
	<path fill="none" stroke="black" stroke-width="1" stroke-miterlimit="4" d="M371.581 270.039L371.581 272.039"/>
	<path fill="none" stroke="black" stroke-width="1" stroke-miterlimit="4" d="M376.634 270.039L376.634 272.039"/>
	<path fill="none" stroke="black" stroke-width="1" stroke-miterlimit="4" d="M381.688 270.039L381.688 272.039"/>
	<path fill="none" stroke="black" stroke-width="1" stroke-miterlimit="4" d="M391.794 270.039L391.794 272.039"/>
	<path fill="none" stroke="black" stroke-width="1" stroke-miterlimit="4" d="M396.848 270.039L396.848 272.039"/>
	<path fill="none" stroke="black" stroke-width="1" stroke-miterlimit="4" d="M401.901 270.039L401.901 272.039"/>
	<path fill="none" stroke="black" stroke-width="1" stroke-miterlimit="4" d="M406.954 270.039L406.954 272.039"/>
	<path fill="none" stroke="black" stroke-width="1" stroke-miterlimit="4" d="M417.061 270.039L417.061 272.039"/>
	<path fill="none" stroke="black" stroke-width="1" stroke-miterlimit="4" d="M422.114 270.039L422.114 272.039"/>
	<path fill="none" stroke="black" stroke-width="1" stroke-miterlimit="4" d="M427.167 270.039L427.167 272.039"/>
	<path fill="none" stroke="black" stroke-width="1" stroke-miterlimit="4" d="M432.221 270.039L432.221 272.039"/>
	<path fill="none" stroke="black" stroke-width="1" stroke-miterlimit="4" d="M40.3379 270.039L435 270.039"/>
	<path fill="none" stroke="black" stroke-width="1" stroke-miterlimit="4" d="M40.3379 46.3812L435 46.3812"/>
	<path fill="none" stroke="black" stroke-width="1" stroke-miterlimit="4" d="M40.3379 214.038L36.3379 214.038"/>
	<text transform="translate(31.3379 214.038)" font-size="12" font-family="Segoe UI" x="-6.46875, " y="3.046875, ">
			0
	</text>
	<path fill="none" stroke="black" stroke-width="1" stroke-miterlimit="4" d="M40.3379 156.458L36.3379 156.458"/>
	<text transform="translate(31.3379 156.458)" font-size="12" font-family="Segoe UI" x="-15.539063, -9.0703125, -6.46875, " y="3.046875, ">
			0.5
	</text>
	<path fill="none" stroke="black" stroke-width="1" stroke-miterlimit="4" d="M40.3379 98.8773L36.3379 98.8773"/>
	<text transform="translate(31.3379 98.8773)" font-size="12" font-family="Segoe UI" x="-6.46875, " y="3.046875, ">
			1
	</text>
	<path fill="none" stroke="black" stroke-width="1" stroke-miterlimit="4" d="M40.3379 260.103L38.3379 260.103"/>
	<path fill="none" stroke="black" stroke-width="1" stroke-miterlimit="4" d="M40.3379 248.586L38.3379 248.586"/>
	<path fill="none" stroke="black" stroke-width="1" stroke-miterlimit="4" d="M40.3379 237.07L38.3379 237.07"/>
	<path fill="none" stroke="black" stroke-width="1" stroke-miterlimit="4" d="M40.3379 225.554L38.3379 225.554"/>
	<path fill="none" stroke="black" stroke-width="1" stroke-miterlimit="4" d="M40.3379 202.522L38.3379 202.522"/>
	<path fill="none" stroke="black" stroke-width="1" stroke-miterlimit="4" d="M40.3379 191.006L38.3379 191.006"/>
	<path fill="none" stroke="black" stroke-width="1" stroke-miterlimit="4" d="M40.3379 179.49L38.3379 179.49"/>
	<path fill="none" stroke="black" stroke-width="1" stroke-miterlimit="4" d="M40.3379 167.974L38.3379 167.974"/>
	<path fill="none" stroke="black" stroke-width="1" stroke-miterlimit="4" d="M40.3379 144.942L38.3379 144.942"/>
	<path fill="none" stroke="black" stroke-width="1" stroke-miterlimit="4" d="M40.3379 133.426L38.3379 133.426"/>
	<path fill="none" stroke="black" stroke-width="1" stroke-miterlimit="4" d="M40.3379 121.909L38.3379 121.909"/>
	<path fill="none" stroke="black" stroke-width="1" stroke-miterlimit="4" d="M40.3379 110.393L38.3379 110.393"/>
	<path fill="none" stroke="black" stroke-width="1" stroke-miterlimit="4" d="M40.3379 87.3612L38.3379 87.3612"/>
	<path fill="none" stroke="black" stroke-width="1" stroke-miterlimit="4" d="M40.3379 75.8451L38.3379 75.8451"/>
	<path fill="none" stroke="black" stroke-width="1" stroke-miterlimit="4" d="M40.3379 64.329L38.3379 64.329"/>
	<path fill="none" stroke="black" stroke-width="1" stroke-miterlimit="4" d="M40.3379 52.8129L38.3379 52.8129"/>
	<path fill="none" stroke="black" stroke-width="1" stroke-miterlimit="4" d="M40.3379 270.039L40.3379 46.2813"/>
	<path fill="none" stroke="black" stroke-width="1" stroke-miterlimit="4" d="M435 270.039L435 46.2813"/>
	<text transform="translate(237.669 31.2813)" font-size="16" font-weight="600" font-family="Segoe UI" x="-86.496094, -81.425781, -66.769531, -56.847656, -47.167969, -42.621094, -35.582031, -26.925781, -14.667969, -6.3476563, -1.9335938, 4.5351563, 8.9492188, 20.746094, 29.714844, 45.027344, 56.277344, 62.183594, 71.386719, 80.589844, " y="-6.890625, ">
			ImpulseHF - DSMA(10)
	</text>
</svg>
