<?xml version="1.0" encoding="utf-8" ?>
<svg xmlns="http://www.w3.org/2000/svg" xmlns:xlink="http://www.w3.org/1999/xlink" width="450" height="300">
	<rect fill="white" width="450" height="300"/>
	<path fill="none" stroke="#010101" stroke-width="1" stroke-miterlimit="4" stroke-opacity="0.098039217" d="M58.2771 270.039L58.2771 46.2813M83.5435 270.039L83.5435 46.2813M108.81 270.039L108.81 46.2813M134.076 270.039L134.076 46.2813M159.343 270.039L159.343 46.2813M184.609 270.039L184.609 46.2813M209.876 270.039L209.876 46.2813M235.142 270.039L235.142 46.2813M260.409 270.039L260.409 46.2813M285.675 270.039L285.675 46.2813M310.942 270.039L310.942 46.2813M336.208 270.039L336.208 46.2813M361.475 270.039L361.475 46.2813M386.741 270.039L386.741 46.2813M412.008 270.039L412.008 46.2813"/>
	<path fill="none" stroke="#010101" stroke-width="1" stroke-miterlimit="4" stroke-opacity="0.098039217" d="M40.3379 236.394L435 236.394M40.3379 194.225L435 194.225M40.3379 152.056L435 152.056M40.3379 109.886L435 109.886M40.3379 67.7171L435 67.7171"/>
	<clipPath id="cl_c7">
		<rect x="40.337891" y="46.28125" width="394.66211" height="223.75781"/>
	</clipPath>
	<g clip-path="url(#cl_c7)">
		<path fill="none" stroke="red" stroke-width="2" stroke-miterlimit="4" d="M58.2771 194.225L58.2771 194.225L63.3304 193.382L68.3837 194.225L73.437 193.382L78.4902 194.225L83.5435 193.382L88.5968 194.225L93.6501 194.225L98.7034 194.225L103.757 194.225L108.81 194.225L113.863 194.225L118.917 194.225L123.97 194.225L129.023 194.225L134.076 194.225L139.13 194.225L144.183 194.225L149.236 194.225L154.29 194.225L159.343 194.225L164.396 194.225L169.45 194.225L174.503 194.225L179.556 194.225L184.609 194.225L189.663 194.225L194.716 194.225L199.769 194.225L204.823 194.225L209.876 194.225L214.929 194.225L219.982 194.225L225.036 194.225L230.089 194.225L235.142 194.225L240.196 194.225L245.249 194.225L250.302 194.225L255.355 109.886L260.409 194.225L265.462 194.225L270.515 194.225L275.569 194.225L280.622 194.225L285.675 194.225L290.729 194.225L295.782 194.225L300.835 194.225L305.888 194.225L310.942 194.225L315.995 194.225L321.048 194.225L326.102 194.225L331.155 194.225L336.208 194.225L341.261 194.225L346.315 194.225L351.368 194.225L356.421 194.225L361.475 194.225L366.528 194.225L371.581 194.225L376.634 194.225L381.688 194.225L386.741 194.225L391.794 194.225L396.848 194.225L401.901 194.225L406.954 194.225L412.008 194.225L417.061 194.225"/>
		<ellipse fill="red" cx="58.277077" cy="194.22498" rx="0.40212631" ry="0.40213013"/>
		<ellipse fill="red" cx="63.330368" cy="193.38158" rx="0.40212631" ry="0.40213013"/>
		<ellipse fill="red" cx="68.383659" cy="194.22498" rx="0.4021225" ry="0.40213013"/>
		<ellipse fill="red" cx="73.436951" cy="193.38158" rx="0.4021225" ry="0.40213013"/>
		<ellipse fill="red" cx="78.49025" cy="194.22498" rx="0.4021225" ry="0.40213013"/>
		<ellipse fill="red" cx="83.543533" cy="193.38158" rx="0.4021225" ry="0.40213013"/>
		<ellipse fill="red" cx="88.596832" cy="194.22498" rx="0.4021225" ry="0.40213013"/>
		<ellipse fill="red" cx="93.650124" cy="194.22498" rx="0.4021225" ry="0.40213013"/>
		<ellipse fill="red" cx="98.703415" cy="194.22498" rx="0.4021225" ry="0.40213013"/>
		<ellipse fill="red" cx="103.75671" cy="194.22498" rx="0.4021225" ry="0.40213013"/>
		<ellipse fill="red" cx="108.81" cy="194.22498" rx="0.4021225" ry="0.40213013"/>
		<ellipse fill="red" cx="113.86329" cy="194.22498" rx="0.4021225" ry="0.40213013"/>
		<ellipse fill="red" cx="118.91658" cy="194.22498" rx="0.4021225" ry="0.40213013"/>
		<ellipse fill="red" cx="123.96987" cy="194.22498" rx="0.4021225" ry="0.40213013"/>
		<ellipse fill="red" cx="129.02316" cy="194.22498" rx="0.40213013" ry="0.40213013"/>
		<ellipse fill="red" cx="134.07646" cy="194.22498" rx="0.40213013" ry="0.40213013"/>
		<ellipse fill="red" cx="139.12976" cy="194.22498" rx="0.40213013" ry="0.40213013"/>
		<ellipse fill="red" cx="144.18304" cy="194.22498" rx="0.40213013" ry="0.40213013"/>
		<ellipse fill="red" cx="149.23633" cy="194.22498" rx="0.40213013" ry="0.40213013"/>
		<ellipse fill="red" cx="154.28963" cy="194.22498" rx="0.40213013" ry="0.40213013"/>
		<ellipse fill="red" cx="159.34293" cy="194.22498" rx="0.40213013" ry="0.40213013"/>
		<ellipse fill="red" cx="164.39621" cy="194.22498" rx="0.40213013" ry="0.40213013"/>
		<ellipse fill="red" cx="169.44951" cy="194.22498" rx="0.40213013" ry="0.40213013"/>
		<ellipse fill="red" cx="174.50279" cy="194.22498" rx="0.40213013" ry="0.40213013"/>
		<ellipse fill="red" cx="179.55609" cy="194.22498" rx="0.40213013" ry="0.40213013"/>
		<ellipse fill="red" cx="184.60938" cy="194.22498" rx="0.40213013" ry="0.40213013"/>
		<ellipse fill="red" cx="189.66267" cy="194.22498" rx="0.40213013" ry="0.40213013"/>
		<ellipse fill="red" cx="194.71596" cy="194.22498" rx="0.40213013" ry="0.40213013"/>
		<ellipse fill="red" cx="199.76926" cy="194.22498" rx="0.40213013" ry="0.40213013"/>
		<ellipse fill="red" cx="204.82254" cy="194.22498" rx="0.40213013" ry="0.40213013"/>
		<ellipse fill="red" cx="209.87584" cy="194.22498" rx="0.40213013" ry="0.40213013"/>
		<ellipse fill="red" cx="214.92914" cy="194.22498" rx="0.40213013" ry="0.40213013"/>
		<ellipse fill="red" cx="219.98242" cy="194.22498" rx="0.40213013" ry="0.40213013"/>
		<ellipse fill="red" cx="225.03572" cy="194.22498" rx="0.40213013" ry="0.40213013"/>
		<ellipse fill="red" cx="230.089" cy="194.22498" rx="0.40213013" ry="0.40213013"/>
		<ellipse fill="red" cx="235.1423" cy="194.22498" rx="0.40213013" ry="0.40213013"/>
		<ellipse fill="red" cx="240.19559" cy="194.22498" rx="0.40213013" ry="0.40213013"/>
		<ellipse fill="red" cx="245.24889" cy="194.22498" rx="0.40213013" ry="0.40213013"/>
		<ellipse fill="red" cx="250.30217" cy="194.22498" rx="0.40213013" ry="0.40213013"/>
		<ellipse fill="red" cx="255.35547" cy="109.8864" rx="0.40213013" ry="0.4021225"/>
		<ellipse fill="red" cx="260.40875" cy="194.22498" rx="0.40213013" ry="0.40213013"/>
		<ellipse fill="red" cx="265.46204" cy="194.22498" rx="0.40213013" ry="0.40213013"/>
		<ellipse fill="red" cx="270.51535" cy="194.22498" rx="0.40213013" ry="0.40213013"/>
		<ellipse fill="red" cx="275.56863" cy="194.22498" rx="0.40213013" ry="0.40213013"/>
		<ellipse fill="red" cx="280.62195" cy="194.22498" rx="0.40213013" ry="0.40213013"/>
		<ellipse fill="red" cx="285.67523" cy="194.22498" rx="0.40213013" ry="0.40213013"/>
		<ellipse fill="red" cx="290.72852" cy="194.22498" rx="0.40213013" ry="0.40213013"/>
		<ellipse fill="red" cx="295.7818" cy="194.22498" rx="0.40213013" ry="0.40213013"/>
		<ellipse fill="red" cx="300.83508" cy="194.22498" rx="0.40213013" ry="0.40213013"/>
		<ellipse fill="red" cx="305.8884" cy="194.22498" rx="0.40213013" ry="0.40213013"/>
		<ellipse fill="red" cx="310.94168" cy="194.22498" rx="0.40213013" ry="0.40213013"/>
		<ellipse fill="red" cx="315.99496" cy="194.22498" rx="0.40213013" ry="0.40213013"/>
		<ellipse fill="red" cx="321.04828" cy="194.22498" rx="0.40213013" ry="0.40213013"/>
		<ellipse fill="red" cx="326.10156" cy="194.22498" rx="0.40213013" ry="0.40213013"/>
		<ellipse fill="red" cx="331.15485" cy="194.22498" rx="0.40213013" ry="0.40213013"/>
		<ellipse fill="red" cx="336.20813" cy="194.22498" rx="0.40213013" ry="0.40213013"/>
		<ellipse fill="red" cx="341.26144" cy="194.22498" rx="0.40213013" ry="0.40213013"/>
		<ellipse fill="red" cx="346.31473" cy="194.22498" rx="0.40213013" ry="0.40213013"/>
		<ellipse fill="red" cx="351.36801" cy="194.22498" rx="0.40213013" ry="0.40213013"/>
		<ellipse fill="red" cx="356.4213" cy="194.22498" rx="0.40213013" ry="0.40213013"/>
		<ellipse fill="red" cx="361.47461" cy="194.22498" rx="0.40213013" ry="0.40213013"/>
		<ellipse fill="red" cx="366.52789" cy="194.22498" rx="0.40213013" ry="0.40213013"/>
		<ellipse fill="red" cx="371.58118" cy="194.22498" rx="0.40213013" ry="0.40213013"/>
		<ellipse fill="red" cx="376.63449" cy="194.22498" rx="0.40213013" ry="0.40213013"/>
		<ellipse fill="red" cx="381.68777" cy="194.22498" rx="0.40213013" ry="0.40213013"/>
		<ellipse fill="red" cx="386.74106" cy="194.22498" rx="0.40213013" ry="0.40213013"/>
		<ellipse fill="red" cx="391.79434" cy="194.22498" rx="0.40213013" ry="0.40213013"/>
		<ellipse fill="red" cx="396.84766" cy="194.22498" rx="0.40213013" ry="0.40213013"/>
		<ellipse fill="red" cx="401.90094" cy="194.22498" rx="0.40213013" ry="0.40213013"/>
		<ellipse fill="red" cx="406.95422" cy="194.22498" rx="0.40213013" ry="0.40213013"/>
		<ellipse fill="red" cx="412.00751" cy="194.22498" rx="0.40213013" ry="0.40213013"/>
		<ellipse fill="red" cx="417.06082" cy="194.22498" rx="0.40213013" ry="0.40213013"/>
	</g>
	<clipPath id="cl_c8">
		<rect x="40.337891" y="46.28125" width="394.66211" height="223.75781"/>
	</clipPath>
	<g clip-path="url(#cl_c8)">
		<path fill="none" stroke="blue" stroke-width="4" stroke-miterlimit="4" d="M58.2771 194.561L58.2771 194.561L63.3304 194.408L68.3837 194.159L73.437 193.28L78.4902 193.573L83.5435 193.48L88.5968 193.923L93.6501 194.144L98.7034 194.182L103.757 194.189L108.81 194.191L113.863 194.192L118.917 194.194L123.97 194.196L129.023 194.198L134.076 194.2L139.13 194.202L144.183 194.204L149.236 194.209L154.29 194.215L159.343 194.218L164.396 194.219L169.45 194.22L174.503 194.221L179.556 194.221L184.609 194.222L189.663 194.222L194.716 194.223L199.769 194.223L204.823 194.223L209.876 194.224L214.929 194.224L219.982 194.224L225.036 194.224L230.089 194.224L235.142 194.224L240.196 194.225L245.249 194.225L250.302 194.225L255.355 60.8741L260.409 74.0056L265.462 255.446L270.515 199.927L275.569 199.673L280.622 198.447L285.675 197.804L290.729 197.532L295.782 197.384L300.835 197.26L305.888 197.133L310.942 197.009L315.995 196.822L321.048 196.304L326.102 195.932L331.155 195.556L336.208 195.204L341.261 194.966L346.315 194.821L351.368 194.726L356.421 194.656L361.475 194.599L366.528 194.549L371.581 194.504L376.634 194.462L381.688 194.422L386.741 194.387L391.794 194.356L396.848 194.331L401.901 194.311L406.954 194.296L412.008 194.284L417.061 194.275"/>
		<ellipse fill="blue" cx="58.277077" cy="194.5614" rx="0.40212631" ry="0.40213013"/>
		<ellipse fill="blue" cx="63.330368" cy="194.40796" rx="0.40212631" ry="0.40213013"/>
		<ellipse fill="blue" cx="68.383659" cy="194.15912" rx="0.4021225" ry="0.40213013"/>
		<ellipse fill="blue" cx="73.436951" cy="193.27977" rx="0.4021225" ry="0.40213013"/>
		<ellipse fill="blue" cx="78.49025" cy="193.57257" rx="0.4021225" ry="0.40213013"/>
		<ellipse fill="blue" cx="83.543533" cy="193.47961" rx="0.4021225" ry="0.40213013"/>
		<ellipse fill="blue" cx="88.596832" cy="193.92261" rx="0.4021225" ry="0.40213013"/>
		<ellipse fill="blue" cx="93.650124" cy="194.14412" rx="0.4021225" ry="0.40213013"/>
		<ellipse fill="blue" cx="98.703415" cy="194.1815" rx="0.4021225" ry="0.40213013"/>
		<ellipse fill="blue" cx="103.75671" cy="194.18936" rx="0.4021225" ry="0.40213013"/>
		<ellipse fill="blue" cx="108.81" cy="194.19133" rx="0.4021225" ry="0.40213013"/>
		<ellipse fill="blue" cx="113.86329" cy="194.19238" rx="0.4021225" ry="0.40213013"/>
		<ellipse fill="blue" cx="118.91658" cy="194.19383" rx="0.4021225" ry="0.40213013"/>
		<ellipse fill="blue" cx="123.96987" cy="194.19588" rx="0.4021225" ry="0.40213013"/>
		<ellipse fill="blue" cx="129.02316" cy="194.19785" rx="0.40213013" ry="0.40213013"/>
		<ellipse fill="blue" cx="134.07646" cy="194.19971" rx="0.40213013" ry="0.40213013"/>
		<ellipse fill="blue" cx="139.12976" cy="194.20154" rx="0.40213013" ry="0.40213013"/>
		<ellipse fill="blue" cx="144.18304" cy="194.20419" rx="0.40213013" ry="0.40213013"/>
		<ellipse fill="blue" cx="149.23633" cy="194.20923" rx="0.40213013" ry="0.40213013"/>
		<ellipse fill="blue" cx="154.28963" cy="194.21484" rx="0.40213013" ry="0.40213013"/>
		<ellipse fill="blue" cx="159.34293" cy="194.21779" rx="0.40213013" ry="0.40213013"/>
		<ellipse fill="blue" cx="164.39621" cy="194.21924" rx="0.40213013" ry="0.40213013"/>
		<ellipse fill="blue" cx="169.44951" cy="194.22009" rx="0.40213013" ry="0.40213013"/>
		<ellipse fill="blue" cx="174.50279" cy="194.2207" rx="0.40213013" ry="0.40213013"/>
		<ellipse fill="blue" cx="179.55609" cy="194.22122" rx="0.40213013" ry="0.40213013"/>
		<ellipse fill="blue" cx="184.60938" cy="194.22169" rx="0.40213013" ry="0.40213013"/>
		<ellipse fill="blue" cx="189.66267" cy="194.22211" rx="0.40213013" ry="0.40213013"/>
		<ellipse fill="blue" cx="194.71596" cy="194.2225" rx="0.40213013" ry="0.40213013"/>
		<ellipse fill="blue" cx="199.76926" cy="194.22287" rx="0.40213013" ry="0.40213013"/>
		<ellipse fill="blue" cx="204.82254" cy="194.22324" rx="0.40213013" ry="0.40213013"/>
		<ellipse fill="blue" cx="209.87584" cy="194.22359" rx="0.40213013" ry="0.40213013"/>
		<ellipse fill="blue" cx="214.92914" cy="194.22388" rx="0.40213013" ry="0.40213013"/>
		<ellipse fill="blue" cx="219.98242" cy="194.22409" rx="0.40213013" ry="0.40213013"/>
		<ellipse fill="blue" cx="225.03572" cy="194.22424" rx="0.40213013" ry="0.40213013"/>
		<ellipse fill="blue" cx="230.089" cy="194.22437" rx="0.40213013" ry="0.40213013"/>
		<ellipse fill="blue" cx="235.1423" cy="194.22446" rx="0.40213013" ry="0.40213013"/>
		<ellipse fill="blue" cx="240.19559" cy="194.22455" rx="0.40213013" ry="0.40213013"/>
		<ellipse fill="blue" cx="245.24889" cy="194.22461" rx="0.40213013" ry="0.40213013"/>
		<ellipse fill="blue" cx="250.30217" cy="194.22467" rx="0.40213013" ry="0.40213013"/>
		<ellipse fill="blue" cx="255.35547" cy="60.874146" rx="0.40213013" ry="0.40212631"/>
		<ellipse fill="blue" cx="260.40875" cy="74.005615" rx="0.40213013" ry="0.4021225"/>
		<ellipse fill="blue" cx="265.46204" cy="255.44617" rx="0.40213013" ry="0.40213013"/>
		<ellipse fill="blue" cx="270.51535" cy="199.92719" rx="0.40213013" ry="0.40213013"/>
		<ellipse fill="blue" cx="275.56863" cy="199.67343" rx="0.40213013" ry="0.40213013"/>
		<ellipse fill="blue" cx="280.62195" cy="198.44727" rx="0.40213013" ry="0.40213013"/>
		<ellipse fill="blue" cx="285.67523" cy="197.8042" rx="0.40213013" ry="0.40213013"/>
		<ellipse fill="blue" cx="290.72852" cy="197.53171" rx="0.40213013" ry="0.40213013"/>
		<ellipse fill="blue" cx="295.7818" cy="197.38393" rx="0.40213013" ry="0.40213013"/>
		<ellipse fill="blue" cx="300.83508" cy="197.25961" rx="0.40213013" ry="0.40213013"/>
		<ellipse fill="blue" cx="305.8884" cy="197.13254" rx="0.40213013" ry="0.40213013"/>
		<ellipse fill="blue" cx="310.94168" cy="197.00943" rx="0.40213013" ry="0.40213013"/>
		<ellipse fill="blue" cx="315.99496" cy="196.82199" rx="0.40213013" ry="0.40213013"/>
		<ellipse fill="blue" cx="321.04828" cy="196.30432" rx="0.40213013" ry="0.40213013"/>
		<ellipse fill="blue" cx="326.10156" cy="195.93237" rx="0.40213013" ry="0.40213013"/>
		<ellipse fill="blue" cx="331.15485" cy="195.55554" rx="0.40213013" ry="0.40213013"/>
		<ellipse fill="blue" cx="336.20813" cy="195.20401" rx="0.40213013" ry="0.40213013"/>
		<ellipse fill="blue" cx="341.26144" cy="194.96637" rx="0.40213013" ry="0.40213013"/>
		<ellipse fill="blue" cx="346.31473" cy="194.82138" rx="0.40213013" ry="0.40213013"/>
		<ellipse fill="blue" cx="351.36801" cy="194.72638" rx="0.40213013" ry="0.40213013"/>
		<ellipse fill="blue" cx="356.4213" cy="194.65625" rx="0.40213013" ry="0.40213013"/>
		<ellipse fill="blue" cx="361.47461" cy="194.59898" rx="0.40213013" ry="0.40213013"/>
		<ellipse fill="blue" cx="366.52789" cy="194.54912" rx="0.40213013" ry="0.40213013"/>
		<ellipse fill="blue" cx="371.58118" cy="194.50378" rx="0.40213013" ry="0.40213013"/>
		<ellipse fill="blue" cx="376.63449" cy="194.46158" rx="0.40213013" ry="0.40213013"/>
		<ellipse fill="blue" cx="381.68777" cy="194.42245" rx="0.40213013" ry="0.40213013"/>
		<ellipse fill="blue" cx="386.74106" cy="194.38693" rx="0.40213013" ry="0.40213013"/>
		<ellipse fill="blue" cx="391.79434" cy="194.35611" rx="0.40213013" ry="0.40213013"/>
		<ellipse fill="blue" cx="396.84766" cy="194.33093" rx="0.40213013" ry="0.40213013"/>
		<ellipse fill="blue" cx="401.90094" cy="194.31131" rx="0.40213013" ry="0.40213013"/>
		<ellipse fill="blue" cx="406.95422" cy="194.29617" rx="0.40213013" ry="0.40213013"/>
		<ellipse fill="blue" cx="412.00751" cy="194.28433" rx="0.40213013" ry="0.40213013"/>
		<ellipse fill="blue" cx="417.06082" cy="194.2748" rx="0.40213013" ry="0.40213013"/>
	</g>
	<path fill="none" stroke="black" stroke-width="1" stroke-miterlimit="4" d="M58.2771 270.039L58.2771 274.039"/>
	<text transform="translate(58.2771 276.039)" font-size="12" font-family="Segoe UI" x="-3.234375, " y="11.027344, ">
			0
	</text>
	<path fill="none" stroke="black" stroke-width="1" stroke-miterlimit="4" d="M83.5435 270.039L83.5435 274.039"/>
	<text transform="translate(83.5435 276.039)" font-size="12" font-family="Segoe UI" x="-3.234375, " y="11.027344, ">
			5
	</text>
	<path fill="none" stroke="black" stroke-width="1" stroke-miterlimit="4" d="M108.81 270.039L108.81 274.039"/>
	<text transform="translate(108.81 276.039)" font-size="12" font-family="Segoe UI" x="-6.46875, 0, " y="11.027344, ">
			10
	</text>
	<path fill="none" stroke="black" stroke-width="1" stroke-miterlimit="4" d="M134.076 270.039L134.076 274.039"/>
	<text transform="translate(134.076 276.039)" font-size="12" font-family="Segoe UI" x="-6.46875, 0, " y="11.027344, ">
			15
	</text>
	<path fill="none" stroke="black" stroke-width="1" stroke-miterlimit="4" d="M159.343 270.039L159.343 274.039"/>
	<text transform="translate(159.343 276.039)" font-size="12" font-family="Segoe UI" x="-6.46875, 0, " y="11.027344, ">
			20
	</text>
	<path fill="none" stroke="black" stroke-width="1" stroke-miterlimit="4" d="M184.609 270.039L184.609 274.039"/>
	<text transform="translate(184.609 276.039)" font-size="12" font-family="Segoe UI" x="-6.46875, 0, " y="11.027344, ">
			25
	</text>
	<path fill="none" stroke="black" stroke-width="1" stroke-miterlimit="4" d="M209.876 270.039L209.876 274.039"/>
	<text transform="translate(209.876 276.039)" font-size="12" font-family="Segoe UI" x="-6.46875, 0, " y="11.027344, ">
			30
	</text>
	<path fill="none" stroke="black" stroke-width="1" stroke-miterlimit="4" d="M235.142 270.039L235.142 274.039"/>
	<text transform="translate(235.142 276.039)" font-size="12" font-family="Segoe UI" x="-6.46875, 0, " y="11.027344, ">
			35
	</text>
	<path fill="none" stroke="black" stroke-width="1" stroke-miterlimit="4" d="M260.409 270.039L260.409 274.039"/>
	<text transform="translate(260.409 276.039)" font-size="12" font-family="Segoe UI" x="-6.46875, 0, " y="11.027344, ">
			40
	</text>
	<path fill="none" stroke="black" stroke-width="1" stroke-miterlimit="4" d="M285.675 270.039L285.675 274.039"/>
	<text transform="translate(285.675 276.039)" font-size="12" font-family="Segoe UI" x="-6.46875, 0, " y="11.027344, ">
			45
	</text>
	<path fill="none" stroke="black" stroke-width="1" stroke-miterlimit="4" d="M310.942 270.039L310.942 274.039"/>
	<text transform="translate(310.942 276.039)" font-size="12" font-family="Segoe UI" x="-6.46875, 0, " y="11.027344, ">
			50
	</text>
	<path fill="none" stroke="black" stroke-width="1" stroke-miterlimit="4" d="M336.208 270.039L336.208 274.039"/>
	<text transform="translate(336.208 276.039)" font-size="12" font-family="Segoe UI" x="-6.46875, 0, " y="11.027344, ">
			55
	</text>
	<path fill="none" stroke="black" stroke-width="1" stroke-miterlimit="4" d="M361.475 270.039L361.475 274.039"/>
	<text transform="translate(361.475 276.039)" font-size="12" font-family="Segoe UI" x="-6.46875, 0, " y="11.027344, ">
			60
	</text>
	<path fill="none" stroke="black" stroke-width="1" stroke-miterlimit="4" d="M386.741 270.039L386.741 274.039"/>
	<text transform="translate(386.741 276.039)" font-size="12" font-family="Segoe UI" x="-6.46875, 0, " y="11.027344, ">
			65
	</text>
	<path fill="none" stroke="black" stroke-width="1" stroke-miterlimit="4" d="M412.008 270.039L412.008 274.039"/>
	<text transform="translate(412.008 276.039)" font-size="12" font-family="Segoe UI" x="-6.46875, 0, " y="11.027344, ">
			70
	</text>
	<path fill="none" stroke="black" stroke-width="1" stroke-miterlimit="4" d="M43.1172 270.039L43.1172 272.039"/>
	<path fill="none" stroke="black" stroke-width="1" stroke-miterlimit="4" d="M48.1705 270.039L48.1705 272.039"/>
	<path fill="none" stroke="black" stroke-width="1" stroke-miterlimit="4" d="M53.2238 270.039L53.2238 272.039"/>
	<path fill="none" stroke="black" stroke-width="1" stroke-miterlimit="4" d="M63.3304 270.039L63.3304 272.039"/>
	<path fill="none" stroke="black" stroke-width="1" stroke-miterlimit="4" d="M68.3837 270.039L68.3837 272.039"/>
	<path fill="none" stroke="black" stroke-width="1" stroke-miterlimit="4" d="M73.437 270.039L73.437 272.039"/>
	<path fill="none" stroke="black" stroke-width="1" stroke-miterlimit="4" d="M78.4902 270.039L78.4902 272.039"/>
	<path fill="none" stroke="black" stroke-width="1" stroke-miterlimit="4" d="M88.5968 270.039L88.5968 272.039"/>
	<path fill="none" stroke="black" stroke-width="1" stroke-miterlimit="4" d="M93.6501 270.039L93.6501 272.039"/>
	<path fill="none" stroke="black" stroke-width="1" stroke-miterlimit="4" d="M98.7034 270.039L98.7034 272.039"/>
	<path fill="none" stroke="black" stroke-width="1" stroke-miterlimit="4" d="M103.757 270.039L103.757 272.039"/>
	<path fill="none" stroke="black" stroke-width="1" stroke-miterlimit="4" d="M113.863 270.039L113.863 272.039"/>
	<path fill="none" stroke="black" stroke-width="1" stroke-miterlimit="4" d="M118.917 270.039L118.917 272.039"/>
	<path fill="none" stroke="black" stroke-width="1" stroke-miterlimit="4" d="M123.97 270.039L123.97 272.039"/>
	<path fill="none" stroke="black" stroke-width="1" stroke-miterlimit="4" d="M129.023 270.039L129.023 272.039"/>
	<path fill="none" stroke="black" stroke-width="1" stroke-miterlimit="4" d="M139.13 270.039L139.13 272.039"/>
	<path fill="none" stroke="black" stroke-width="1" stroke-miterlimit="4" d="M144.183 270.039L144.183 272.039"/>
	<path fill="none" stroke="black" stroke-width="1" stroke-miterlimit="4" d="M149.236 270.039L149.236 272.039"/>
	<path fill="none" stroke="black" stroke-width="1" stroke-miterlimit="4" d="M154.29 270.039L154.29 272.039"/>
	<path fill="none" stroke="black" stroke-width="1" stroke-miterlimit="4" d="M164.396 270.039L164.396 272.039"/>
	<path fill="none" stroke="black" stroke-width="1" stroke-miterlimit="4" d="M169.45 270.039L169.45 272.039"/>
	<path fill="none" stroke="black" stroke-width="1" stroke-miterlimit="4" d="M174.503 270.039L174.503 272.039"/>
	<path fill="none" stroke="black" stroke-width="1" stroke-miterlimit="4" d="M179.556 270.039L179.556 272.039"/>
	<path fill="none" stroke="black" stroke-width="1" stroke-miterlimit="4" d="M189.663 270.039L189.663 272.039"/>
	<path fill="none" stroke="black" stroke-width="1" stroke-miterlimit="4" d="M194.716 270.039L194.716 272.039"/>
	<path fill="none" stroke="black" stroke-width="1" stroke-miterlimit="4" d="M199.769 270.039L199.769 272.039"/>
	<path fill="none" stroke="black" stroke-width="1" stroke-miterlimit="4" d="M204.823 270.039L204.823 272.039"/>
	<path fill="none" stroke="black" stroke-width="1" stroke-miterlimit="4" d="M214.929 270.039L214.929 272.039"/>
	<path fill="none" stroke="black" stroke-width="1" stroke-miterlimit="4" d="M219.982 270.039L219.982 272.039"/>
	<path fill="none" stroke="black" stroke-width="1" stroke-miterlimit="4" d="M225.036 270.039L225.036 272.039"/>
	<path fill="none" stroke="black" stroke-width="1" stroke-miterlimit="4" d="M230.089 270.039L230.089 272.039"/>
	<path fill="none" stroke="black" stroke-width="1" stroke-miterlimit="4" d="M240.196 270.039L240.196 272.039"/>
	<path fill="none" stroke="black" stroke-width="1" stroke-miterlimit="4" d="M245.249 270.039L245.249 272.039"/>
	<path fill="none" stroke="black" stroke-width="1" stroke-miterlimit="4" d="M250.302 270.039L250.302 272.039"/>
	<path fill="none" stroke="black" stroke-width="1" stroke-miterlimit="4" d="M255.355 270.039L255.355 272.039"/>
	<path fill="none" stroke="black" stroke-width="1" stroke-miterlimit="4" d="M265.462 270.039L265.462 272.039"/>
	<path fill="none" stroke="black" stroke-width="1" stroke-miterlimit="4" d="M270.515 270.039L270.515 272.039"/>
	<path fill="none" stroke="black" stroke-width="1" stroke-miterlimit="4" d="M275.569 270.039L275.569 272.039"/>
	<path fill="none" stroke="black" stroke-width="1" stroke-miterlimit="4" d="M280.622 270.039L280.622 272.039"/>
	<path fill="none" stroke="black" stroke-width="1" stroke-miterlimit="4" d="M290.729 270.039L290.729 272.039"/>
	<path fill="none" stroke="black" stroke-width="1" stroke-miterlimit="4" d="M295.782 270.039L295.782 272.039"/>
	<path fill="none" stroke="black" stroke-width="1" stroke-miterlimit="4" d="M300.835 270.039L300.835 272.039"/>
	<path fill="none" stroke="black" stroke-width="1" stroke-miterlimit="4" d="M305.888 270.039L305.888 272.039"/>
	<path fill="none" stroke="black" stroke-width="1" stroke-miterlimit="4" d="M315.995 270.039L315.995 272.039"/>
	<path fill="none" stroke="black" stroke-width="1" stroke-miterlimit="4" d="M321.048 270.039L321.048 272.039"/>
	<path fill="none" stroke="black" stroke-width="1" stroke-miterlimit="4" d="M326.102 270.039L326.102 272.039"/>
	<path fill="none" stroke="black" stroke-width="1" stroke-miterlimit="4" d="M331.155 270.039L331.155 272.039"/>
	<path fill="none" stroke="black" stroke-width="1" stroke-miterlimit="4" d="M341.261 270.039L341.261 272.039"/>
	<path fill="none" stroke="black" stroke-width="1" stroke-miterlimit="4" d="M346.315 270.039L346.315 272.039"/>
	<path fill="none" stroke="black" stroke-width="1" stroke-miterlimit="4" d="M351.368 270.039L351.368 272.039"/>
	<path fill="none" stroke="black" stroke-width="1" stroke-miterlimit="4" d="M356.421 270.039L356.421 272.039"/>
	<path fill="none" stroke="black" stroke-width="1" stroke-miterlimit="4" d="M366.528 270.039L366.528 272.039"/>
	<path fill="none" stroke="black" stroke-width="1" stroke-miterlimit="4" d="M371.581 270.039L371.581 272.039"/>
	<path fill="none" stroke="black" stroke-width="1" stroke-miterlimit="4" d="M376.634 270.039L376.634 272.039"/>
	<path fill="none" stroke="black" stroke-width="1" stroke-miterlimit="4" d="M381.688 270.039L381.688 272.039"/>
	<path fill="none" stroke="black" stroke-width="1" stroke-miterlimit="4" d="M391.794 270.039L391.794 272.039"/>
	<path fill="none" stroke="black" stroke-width="1" stroke-miterlimit="4" d="M396.848 270.039L396.848 272.039"/>
	<path fill="none" stroke="black" stroke-width="1" stroke-miterlimit="4" d="M401.901 270.039L401.901 272.039"/>
	<path fill="none" stroke="black" stroke-width="1" stroke-miterlimit="4" d="M406.954 270.039L406.954 272.039"/>
	<path fill="none" stroke="black" stroke-width="1" stroke-miterlimit="4" d="M417.061 270.039L417.061 272.039"/>
	<path fill="none" stroke="black" stroke-width="1" stroke-miterlimit="4" d="M422.114 270.039L422.114 272.039"/>
	<path fill="none" stroke="black" stroke-width="1" stroke-miterlimit="4" d="M427.167 270.039L427.167 272.039"/>
	<path fill="none" stroke="black" stroke-width="1" stroke-miterlimit="4" d="M432.221 270.039L432.221 272.039"/>
	<path fill="none" stroke="black" stroke-width="1" stroke-miterlimit="4" d="M40.3379 270.039L435 270.039"/>
	<path fill="none" stroke="black" stroke-width="1" stroke-miterlimit="4" d="M40.3379 46.3812L435 46.3812"/>
	<path fill="none" stroke="black" stroke-width="1" stroke-miterlimit="4" d="M40.3379 236.394L36.3379 236.394"/>
	<text transform="translate(31.3379 236.394)" font-size="12" font-family="Segoe UI" x="-20.337891, -15.539063, -9.0703125, -6.46875, " y="3.046875, ">
			-0.5
	</text>
	<path fill="none" stroke="black" stroke-width="1" stroke-miterlimit="4" d="M40.3379 194.225L36.3379 194.225"/>
	<text transform="translate(31.3379 194.225)" font-size="12" font-family="Segoe UI" x="-6.46875, " y="3.046875, ">
			0
	</text>
	<path fill="none" stroke="black" stroke-width="1" stroke-miterlimit="4" d="M40.3379 152.056L36.3379 152.056"/>
	<text transform="translate(31.3379 152.056)" font-size="12" font-family="Segoe UI" x="-15.539063, -9.0703125, -6.46875, " y="3.046875, ">
			0.5
	</text>
	<path fill="none" stroke="black" stroke-width="1" stroke-miterlimit="4" d="M40.3379 109.886L36.3379 109.886"/>
	<text transform="translate(31.3379 109.886)" font-size="12" font-family="Segoe UI" x="-6.46875, " y="3.046875, ">
			1
	</text>
	<path fill="none" stroke="black" stroke-width="1" stroke-miterlimit="4" d="M40.3379 67.7171L36.3379 67.7171"/>
	<text transform="translate(31.3379 67.7171)" font-size="12" font-family="Segoe UI" x="-15.539063, -9.0703125, -6.46875, " y="3.046875, ">
			1.5
	</text>
	<path fill="none" stroke="black" stroke-width="1" stroke-miterlimit="4" d="M40.3379 261.696L38.3379 261.696"/>
	<path fill="none" stroke="black" stroke-width="1" stroke-miterlimit="4" d="M40.3379 253.262L38.3379 253.262"/>
	<path fill="none" stroke="black" stroke-width="1" stroke-miterlimit="4" d="M40.3379 244.828L38.3379 244.828"/>
	<path fill="none" stroke="black" stroke-width="1" stroke-miterlimit="4" d="M40.3379 227.96L38.3379 227.96"/>
	<path fill="none" stroke="black" stroke-width="1" stroke-miterlimit="4" d="M40.3379 219.527L38.3379 219.527"/>
	<path fill="none" stroke="black" stroke-width="1" stroke-miterlimit="4" d="M40.3379 211.093L38.3379 211.093"/>
	<path fill="none" stroke="black" stroke-width="1" stroke-miterlimit="4" d="M40.3379 202.659L38.3379 202.659"/>
	<path fill="none" stroke="black" stroke-width="1" stroke-miterlimit="4" d="M40.3379 185.791L38.3379 185.791"/>
	<path fill="none" stroke="black" stroke-width="1" stroke-miterlimit="4" d="M40.3379 177.357L38.3379 177.357"/>
	<path fill="none" stroke="black" stroke-width="1" stroke-miterlimit="4" d="M40.3379 168.923L38.3379 168.923"/>
	<path fill="none" stroke="black" stroke-width="1" stroke-miterlimit="4" d="M40.3379 160.49L38.3379 160.49"/>
	<path fill="none" stroke="black" stroke-width="1" stroke-miterlimit="4" d="M40.3379 143.622L38.3379 143.622"/>
	<path fill="none" stroke="black" stroke-width="1" stroke-miterlimit="4" d="M40.3379 135.188L38.3379 135.188"/>
	<path fill="none" stroke="black" stroke-width="1" stroke-miterlimit="4" d="M40.3379 126.754L38.3379 126.754"/>
	<path fill="none" stroke="black" stroke-width="1" stroke-miterlimit="4" d="M40.3379 118.32L38.3379 118.32"/>
	<path fill="none" stroke="black" stroke-width="1" stroke-miterlimit="4" d="M40.3379 101.453L38.3379 101.453"/>
	<path fill="none" stroke="black" stroke-width="1" stroke-miterlimit="4" d="M40.3379 93.0187L38.3379 93.0187"/>
	<path fill="none" stroke="black" stroke-width="1" stroke-miterlimit="4" d="M40.3379 84.5848L38.3379 84.5848"/>
	<path fill="none" stroke="black" stroke-width="1" stroke-miterlimit="4" d="M40.3379 76.151L38.3379 76.151"/>
	<path fill="none" stroke="black" stroke-width="1" stroke-miterlimit="4" d="M40.3379 59.2832L38.3379 59.2832"/>
	<path fill="none" stroke="black" stroke-width="1" stroke-miterlimit="4" d="M40.3379 50.8494L38.3379 50.8494"/>
	<path fill="none" stroke="black" stroke-width="1" stroke-miterlimit="4" d="M40.3379 270.039L40.3379 46.2813"/>
	<path fill="none" stroke="black" stroke-width="1" stroke-miterlimit="4" d="M435 270.039L435 46.2813"/>
	<text transform="translate(237.669 31.2813)" font-size="16" font-weight="600" font-family="Segoe UI" x="-66.941406, -57.972656, -48.050781, -43.503906, -34.558594, -25.902344, -21.488281, -15.019531, -10.605469, 1.1914063, 10.160156, 25.472656, 36.722656, 42.628906, 51.832031, 61.035156, " y="-6.890625, ">
			Spike - DSMA(10)
	</text>
</svg>
