<?xml version="1.0" encoding="utf-8" ?>
<svg xmlns="http://www.w3.org/2000/svg" xmlns:xlink="http://www.w3.org/1999/xlink" width="450" height="300">
	<rect fill="white" width="450" height="300"/>
	<path fill="none" stroke="#010101" stroke-width="1" stroke-miterlimit="4" stroke-opacity="0.098039217" d="M53.6964 270.039L53.6964 46.2813M79.2701 270.039L79.2701 46.2813M104.844 270.039L104.844 46.2813M130.417 270.039L130.417 46.2813M155.991 270.039L155.991 46.2813M181.565 270.039L181.565 46.2813M207.138 270.039L207.138 46.2813M232.712 270.039L232.712 46.2813M258.286 270.039L258.286 46.2813M283.86 270.039L283.86 46.2813M309.433 270.039L309.433 46.2813M335.007 270.039L335.007 46.2813M360.581 270.039L360.581 46.2813M386.154 270.039L386.154 46.2813M411.728 270.039L411.728 46.2813"/>
	<path fill="none" stroke="#010101" stroke-width="1" stroke-miterlimit="4" stroke-opacity="0.098039217" d="M35.5391 254.956L435 254.956M35.5391 230.407L435 230.407M35.5391 205.857L435 205.857M35.5391 181.307L435 181.307M35.5391 156.758L435 156.758M35.5391 132.208L435 132.208M35.5391 107.658L435 107.658M35.5391 83.1084L435 83.1084M35.5391 58.5587L435 58.5587"/>
	<clipPath id="cl_cd">
		<rect x="35.539063" y="46.28125" width="399.46094" height="223.75781"/>
	</clipPath>
	<g clip-path="url(#cl_cd)">
		<path fill="none" stroke="red" stroke-width="2" stroke-miterlimit="4" d="M53.6964 254.956L53.6964 254.956L58.8111 253.729L63.9258 254.956L69.0406 253.729L74.1553 254.956L79.2701 253.729L84.3848 254.956L89.4995 254.956L94.6143 254.956L99.729 254.956L104.844 254.956L109.958 254.956L115.073 254.956L120.188 254.956L125.303 254.956L130.417 254.956L135.532 254.956L140.647 254.956L145.762 254.956L150.876 254.956L155.991 254.956L161.106 254.956L166.221 254.956L171.335 254.956L176.45 254.956L181.565 254.956L186.68 254.956L191.794 254.956L196.909 254.956L202.024 254.956L207.138 254.956L212.253 254.956L217.368 254.956L222.483 254.956L227.597 254.956L232.712 254.956L237.827 254.956L242.942 254.956L248.056 254.956L253.171 132.208L258.286 132.208L263.401 132.208L268.515 132.208L273.63 132.208L278.745 132.208L283.86 132.208L288.974 132.208L294.089 132.208L299.204 132.208L304.318 132.208L309.433 132.208L314.548 132.208L319.663 132.208L324.777 132.208L329.892 132.208L335.007 132.208L340.122 132.208L345.236 132.208L350.351 132.208L355.466 132.208L360.581 132.208L365.695 132.208L370.81 132.208L375.925 132.208L381.04 132.208L386.154 132.208L391.269 132.208L396.384 132.208L401.498 132.208L406.613 132.208L411.728 132.208L416.843 132.208"/>
		<ellipse fill="red" cx="53.696381" cy="254.9565" rx="0.4045639" ry="0.40455627"/>
		<ellipse fill="red" cx="58.811115" cy="253.72902" rx="0.4045639" ry="0.40455627"/>
		<ellipse fill="red" cx="63.92585" cy="254.9565" rx="0.4045639" ry="0.40455627"/>
		<ellipse fill="red" cx="69.040588" cy="253.72902" rx="0.4045639" ry="0.40455627"/>
		<ellipse fill="red" cx="74.155319" cy="254.9565" rx="0.4045639" ry="0.40455627"/>
		<ellipse fill="red" cx="79.270065" cy="253.72902" rx="0.4045639" ry="0.40455627"/>
		<ellipse fill="red" cx="84.384796" cy="254.9565" rx="0.4045639" ry="0.40455627"/>
		<ellipse fill="red" cx="89.499535" cy="254.9565" rx="0.4045639" ry="0.40455627"/>
		<ellipse fill="red" cx="94.614273" cy="254.9565" rx="0.4045639" ry="0.40455627"/>
		<ellipse fill="red" cx="99.729012" cy="254.9565" rx="0.4045639" ry="0.40455627"/>
		<ellipse fill="red" cx="104.84374" cy="254.9565" rx="0.4045639" ry="0.40455627"/>
		<ellipse fill="red" cx="109.95848" cy="254.9565" rx="0.4045639" ry="0.40455627"/>
		<ellipse fill="red" cx="115.07322" cy="254.9565" rx="0.4045639" ry="0.40455627"/>
		<ellipse fill="red" cx="120.18796" cy="254.9565" rx="0.4045639" ry="0.40455627"/>
		<ellipse fill="red" cx="125.30269" cy="254.9565" rx="0.4045639" ry="0.40455627"/>
		<ellipse fill="red" cx="130.41742" cy="254.9565" rx="0.40455627" ry="0.40455627"/>
		<ellipse fill="red" cx="135.53217" cy="254.9565" rx="0.40455627" ry="0.40455627"/>
		<ellipse fill="red" cx="140.64691" cy="254.9565" rx="0.40455627" ry="0.40455627"/>
		<ellipse fill="red" cx="145.76164" cy="254.9565" rx="0.40455627" ry="0.40455627"/>
		<ellipse fill="red" cx="150.87637" cy="254.9565" rx="0.40455627" ry="0.40455627"/>
		<ellipse fill="red" cx="155.99112" cy="254.9565" rx="0.40455627" ry="0.40455627"/>
		<ellipse fill="red" cx="161.10585" cy="254.9565" rx="0.40455627" ry="0.40455627"/>
		<ellipse fill="red" cx="166.22058" cy="254.9565" rx="0.40455627" ry="0.40455627"/>
		<ellipse fill="red" cx="171.33533" cy="254.9565" rx="0.40455627" ry="0.40455627"/>
		<ellipse fill="red" cx="176.45006" cy="254.9565" rx="0.40455627" ry="0.40455627"/>
		<ellipse fill="red" cx="181.56479" cy="254.9565" rx="0.40455627" ry="0.40455627"/>
		<ellipse fill="red" cx="186.67953" cy="254.9565" rx="0.40455627" ry="0.40455627"/>
		<ellipse fill="red" cx="191.79427" cy="254.9565" rx="0.40455627" ry="0.40455627"/>
		<ellipse fill="red" cx="196.90901" cy="254.9565" rx="0.40455627" ry="0.40455627"/>
		<ellipse fill="red" cx="202.02374" cy="254.9565" rx="0.40455627" ry="0.40455627"/>
		<ellipse fill="red" cx="207.13847" cy="254.9565" rx="0.40455627" ry="0.40455627"/>
		<ellipse fill="red" cx="212.25322" cy="254.9565" rx="0.40455627" ry="0.40455627"/>
		<ellipse fill="red" cx="217.36795" cy="254.9565" rx="0.40455627" ry="0.40455627"/>
		<ellipse fill="red" cx="222.4827" cy="254.9565" rx="0.40455627" ry="0.40455627"/>
		<ellipse fill="red" cx="227.59743" cy="254.9565" rx="0.40455627" ry="0.40455627"/>
		<ellipse fill="red" cx="232.71216" cy="254.9565" rx="0.40455627" ry="0.40455627"/>
		<ellipse fill="red" cx="237.8269" cy="254.9565" rx="0.40455627" ry="0.40455627"/>
		<ellipse fill="red" cx="242.94164" cy="254.9565" rx="0.40455627" ry="0.40455627"/>
		<ellipse fill="red" cx="248.05637" cy="254.9565" rx="0.40455627" ry="0.40455627"/>
		<ellipse fill="red" cx="253.17111" cy="132.20789" rx="0.40455627" ry="0.40455627"/>
		<ellipse fill="red" cx="258.28583" cy="132.20789" rx="0.40457153" ry="0.40455627"/>
		<ellipse fill="red" cx="263.40057" cy="132.20789" rx="0.40457153" ry="0.40455627"/>
		<ellipse fill="red" cx="268.51532" cy="132.20789" rx="0.40457153" ry="0.40455627"/>
		<ellipse fill="red" cx="273.63007" cy="132.20789" rx="0.40457153" ry="0.40455627"/>
		<ellipse fill="red" cx="278.74481" cy="132.20789" rx="0.40457153" ry="0.40455627"/>
		<ellipse fill="red" cx="283.85953" cy="132.20789" rx="0.40457153" ry="0.40455627"/>
		<ellipse fill="red" cx="288.97427" cy="132.20789" rx="0.40457153" ry="0.40455627"/>
		<ellipse fill="red" cx="294.08899" cy="132.20789" rx="0.40457153" ry="0.40455627"/>
		<ellipse fill="red" cx="299.20374" cy="132.20789" rx="0.40457153" ry="0.40455627"/>
		<ellipse fill="red" cx="304.31848" cy="132.20789" rx="0.40457153" ry="0.40455627"/>
		<ellipse fill="red" cx="309.43323" cy="132.20789" rx="0.40457153" ry="0.40455627"/>
		<ellipse fill="red" cx="314.54794" cy="132.20789" rx="0.40457153" ry="0.40455627"/>
		<ellipse fill="red" cx="319.66269" cy="132.20789" rx="0.40457153" ry="0.40455627"/>
		<ellipse fill="red" cx="324.77744" cy="132.20789" rx="0.40457153" ry="0.40455627"/>
		<ellipse fill="red" cx="329.89215" cy="132.20789" rx="0.40457153" ry="0.40455627"/>
		<ellipse fill="red" cx="335.0069" cy="132.20789" rx="0.40457153" ry="0.40455627"/>
		<ellipse fill="red" cx="340.12164" cy="132.20789" rx="0.40457153" ry="0.40455627"/>
		<ellipse fill="red" cx="345.23636" cy="132.20789" rx="0.40457153" ry="0.40455627"/>
		<ellipse fill="red" cx="350.3511" cy="132.20789" rx="0.40457153" ry="0.40455627"/>
		<ellipse fill="red" cx="355.46585" cy="132.20789" rx="0.40457153" ry="0.40455627"/>
		<ellipse fill="red" cx="360.58057" cy="132.20789" rx="0.40457153" ry="0.40455627"/>
		<ellipse fill="red" cx="365.69531" cy="132.20789" rx="0.40457153" ry="0.40455627"/>
		<ellipse fill="red" cx="370.81006" cy="132.20789" rx="0.40457153" ry="0.40455627"/>
		<ellipse fill="red" cx="375.9248" cy="132.20789" rx="0.40457153" ry="0.40455627"/>
		<ellipse fill="red" cx="381.03952" cy="132.20789" rx="0.40457153" ry="0.40455627"/>
		<ellipse fill="red" cx="386.15427" cy="132.20789" rx="0.40457153" ry="0.40455627"/>
		<ellipse fill="red" cx="391.26901" cy="132.20789" rx="0.40457153" ry="0.40455627"/>
		<ellipse fill="red" cx="396.38373" cy="132.20789" rx="0.40457153" ry="0.40455627"/>
		<ellipse fill="red" cx="401.49847" cy="132.20789" rx="0.40457153" ry="0.40455627"/>
		<ellipse fill="red" cx="406.61322" cy="132.20789" rx="0.40457153" ry="0.40455627"/>
		<ellipse fill="red" cx="411.72794" cy="132.20789" rx="0.40457153" ry="0.40455627"/>
		<ellipse fill="red" cx="416.84268" cy="132.20789" rx="0.40457153" ry="0.40455627"/>
	</g>
	<clipPath id="cl_ce">
		<rect x="35.539063" y="46.28125" width="399.46094" height="223.75781"/>
	</clipPath>
	<g clip-path="url(#cl_ce)">
		<path fill="none" stroke="blue" stroke-width="4" stroke-miterlimit="4" d="M53.6964 255.446L53.6964 255.446L58.8111 255.223L63.9258 254.861L69.0406 253.581L74.1553 254.007L79.2701 253.872L84.3848 254.516L89.4995 254.839L94.6143 254.893L99.729 254.905L104.844 254.908L109.958 254.909L115.073 254.911L120.188 254.914L125.303 254.917L130.417 254.92L135.532 254.922L140.647 254.926L145.762 254.934L150.876 254.942L155.991 254.946L161.106 254.948L166.221 254.949L171.335 254.95L176.45 254.951L181.565 254.952L186.68 254.952L191.794 254.953L196.909 254.953L202.024 254.954L207.138 254.954L212.253 254.955L217.368 254.955L222.483 254.955L227.597 254.956L232.712 254.956L237.827 254.956L242.942 254.956L248.056 254.956L253.171 60.8741L258.286 138.02L263.401 136.586L268.515 135.657L273.63 135.645L278.745 135.299L283.86 134.955L288.974 134.697L294.089 134.503L299.204 134.347L304.318 134.158L309.433 133.697L314.548 133.31L319.663 133.006L324.777 132.846L329.892 132.743L335.007 132.663L340.122 132.598L345.236 132.542L350.351 132.494L355.466 132.453L360.581 132.415L365.695 132.381L370.81 132.349L375.925 132.322L381.04 132.3L386.154 132.284L391.269 132.271L396.384 132.26L401.498 132.252L406.613 132.245L411.728 132.239L416.843 132.234"/>
		<ellipse fill="blue" cx="53.696381" cy="255.44617" rx="0.4045639" ry="0.40455627"/>
		<ellipse fill="blue" cx="58.811115" cy="255.22282" rx="0.4045639" ry="0.40455627"/>
		<ellipse fill="blue" cx="63.92585" cy="254.86067" rx="0.4045639" ry="0.40455627"/>
		<ellipse fill="blue" cx="69.040588" cy="253.58084" rx="0.4045639" ry="0.40455627"/>
		<ellipse fill="blue" cx="74.155319" cy="254.00697" rx="0.4045639" ry="0.40455627"/>
		<ellipse fill="blue" cx="79.270065" cy="253.87169" rx="0.4045639" ry="0.40455627"/>
		<ellipse fill="blue" cx="84.384796" cy="254.51645" rx="0.4045639" ry="0.40455627"/>
		<ellipse fill="blue" cx="89.499535" cy="254.83884" rx="0.4045639" ry="0.40455627"/>
		<ellipse fill="blue" cx="94.614273" cy="254.89323" rx="0.4045639" ry="0.40455627"/>
		<ellipse fill="blue" cx="99.729012" cy="254.90469" rx="0.4045639" ry="0.40455627"/>
		<ellipse fill="blue" cx="104.84374" cy="254.90755" rx="0.4045639" ry="0.40455627"/>
		<ellipse fill="blue" cx="109.95848" cy="254.90907" rx="0.4045639" ry="0.40455627"/>
		<ellipse fill="blue" cx="115.07322" cy="254.91118" rx="0.4045639" ry="0.40455627"/>
		<ellipse fill="blue" cx="120.18796" cy="254.91415" rx="0.4045639" ry="0.40455627"/>
		<ellipse fill="blue" cx="125.30269" cy="254.91704" rx="0.4045639" ry="0.40455627"/>
		<ellipse fill="blue" cx="130.41742" cy="254.91972" rx="0.40455627" ry="0.40455627"/>
		<ellipse fill="blue" cx="135.53217" cy="254.92239" rx="0.40455627" ry="0.40455627"/>
		<ellipse fill="blue" cx="140.64691" cy="254.92628" rx="0.40455627" ry="0.40455627"/>
		<ellipse fill="blue" cx="145.76164" cy="254.93359" rx="0.40455627" ry="0.40455627"/>
		<ellipse fill="blue" cx="150.87637" cy="254.94176" rx="0.40455627" ry="0.40455627"/>
		<ellipse fill="blue" cx="155.99112" cy="254.94604" rx="0.40455627" ry="0.40455627"/>
		<ellipse fill="blue" cx="161.10585" cy="254.94817" rx="0.40455627" ry="0.40455627"/>
		<ellipse fill="blue" cx="166.22058" cy="254.9494" rx="0.40455627" ry="0.40455627"/>
		<ellipse fill="blue" cx="171.33533" cy="254.9503" rx="0.40455627" ry="0.40455627"/>
		<ellipse fill="blue" cx="176.45006" cy="254.95107" rx="0.40455627" ry="0.40455627"/>
		<ellipse fill="blue" cx="181.56479" cy="254.95174" rx="0.40455627" ry="0.40455627"/>
		<ellipse fill="blue" cx="186.67953" cy="254.95236" rx="0.40455627" ry="0.40455627"/>
		<ellipse fill="blue" cx="191.79427" cy="254.95293" rx="0.40455627" ry="0.40455627"/>
		<ellipse fill="blue" cx="196.90901" cy="254.95346" rx="0.40455627" ry="0.40455627"/>
		<ellipse fill="blue" cx="202.02374" cy="254.95399" rx="0.40455627" ry="0.40455627"/>
		<ellipse fill="blue" cx="207.13847" cy="254.9545" rx="0.40455627" ry="0.40455627"/>
		<ellipse fill="blue" cx="212.25322" cy="254.95491" rx="0.40455627" ry="0.40455627"/>
		<ellipse fill="blue" cx="217.36795" cy="254.95523" rx="0.40455627" ry="0.40455627"/>
		<ellipse fill="blue" cx="222.4827" cy="254.95546" rx="0.40455627" ry="0.40455627"/>
		<ellipse fill="blue" cx="227.59743" cy="254.95563" rx="0.40455627" ry="0.40455627"/>
		<ellipse fill="blue" cx="232.71216" cy="254.95576" rx="0.40455627" ry="0.40455627"/>
		<ellipse fill="blue" cx="237.8269" cy="254.95587" rx="0.40455627" ry="0.40455627"/>
		<ellipse fill="blue" cx="242.94164" cy="254.95598" rx="0.40455627" ry="0.40455627"/>
		<ellipse fill="blue" cx="248.05637" cy="254.95605" rx="0.40455627" ry="0.40455627"/>
		<ellipse fill="blue" cx="253.17111" cy="60.874146" rx="0.40455627" ry="0.4045639"/>
		<ellipse fill="blue" cx="258.28583" cy="138.01976" rx="0.40457153" ry="0.40455627"/>
		<ellipse fill="blue" cx="263.40057" cy="136.58568" rx="0.40457153" ry="0.40455627"/>
		<ellipse fill="blue" cx="268.51532" cy="135.65675" rx="0.40457153" ry="0.40455627"/>
		<ellipse fill="blue" cx="273.63007" cy="135.64545" rx="0.40457153" ry="0.40455627"/>
		<ellipse fill="blue" cx="278.74481" cy="135.29918" rx="0.40457153" ry="0.40455627"/>
		<ellipse fill="blue" cx="283.85953" cy="134.95496" rx="0.40457153" ry="0.40455627"/>
		<ellipse fill="blue" cx="288.97427" cy="134.69658" rx="0.40457153" ry="0.40455627"/>
		<ellipse fill="blue" cx="294.08899" cy="134.50308" rx="0.40457153" ry="0.40455627"/>
		<ellipse fill="blue" cx="299.20374" cy="134.34689" rx="0.40457153" ry="0.40455627"/>
		<ellipse fill="blue" cx="304.31848" cy="134.15756" rx="0.40457153" ry="0.40455627"/>
		<ellipse fill="blue" cx="309.43323" cy="133.69722" rx="0.40457153" ry="0.40455627"/>
		<ellipse fill="blue" cx="314.54794" cy="133.30963" rx="0.40457153" ry="0.40455627"/>
		<ellipse fill="blue" cx="319.66269" cy="133.00616" rx="0.40457153" ry="0.40455627"/>
		<ellipse fill="blue" cx="324.77744" cy="132.84584" rx="0.40457153" ry="0.40455627"/>
		<ellipse fill="blue" cx="329.89215" cy="132.74257" rx="0.40457153" ry="0.40455627"/>
		<ellipse fill="blue" cx="335.0069" cy="132.66341" rx="0.40457153" ry="0.40455627"/>
		<ellipse fill="blue" cx="340.12164" cy="132.59767" rx="0.40457153" ry="0.40455627"/>
		<ellipse fill="blue" cx="345.23636" cy="132.5419" rx="0.40457153" ry="0.40455627"/>
		<ellipse fill="blue" cx="350.3511" cy="132.49425" rx="0.40457153" ry="0.40455627"/>
		<ellipse fill="blue" cx="355.46585" cy="132.45277" rx="0.40457153" ry="0.40455627"/>
		<ellipse fill="blue" cx="360.58057" cy="132.41534" rx="0.40457153" ry="0.40455627"/>
		<ellipse fill="blue" cx="365.69531" cy="132.38054" rx="0.40457153" ry="0.40455627"/>
		<ellipse fill="blue" cx="370.81006" cy="132.34877" rx="0.40457153" ry="0.40455627"/>
		<ellipse fill="blue" cx="375.9248" cy="132.32166" rx="0.40457153" ry="0.40455627"/>
		<ellipse fill="blue" cx="381.03952" cy="132.30013" rx="0.40457153" ry="0.40455627"/>
		<ellipse fill="blue" cx="386.15427" cy="132.28352" rx="0.40457153" ry="0.40455627"/>
		<ellipse fill="blue" cx="391.26901" cy="132.27063" rx="0.40457153" ry="0.40455627"/>
		<ellipse fill="blue" cx="396.38373" cy="132.26035" rx="0.40457153" ry="0.40455627"/>
		<ellipse fill="blue" cx="401.49847" cy="132.25194" rx="0.40457153" ry="0.40455627"/>
		<ellipse fill="blue" cx="406.61322" cy="132.2449" rx="0.40457153" ry="0.40455627"/>
		<ellipse fill="blue" cx="411.72794" cy="132.23897" rx="0.40457153" ry="0.40455627"/>
		<ellipse fill="blue" cx="416.84268" cy="132.2339" rx="0.40457153" ry="0.40455627"/>
	</g>
	<path fill="none" stroke="black" stroke-width="1" stroke-miterlimit="4" d="M53.6964 270.039L53.6964 274.039"/>
	<text transform="translate(53.6964 276.039)" font-size="12" font-family="Segoe UI" x="-3.234375, " y="11.027344, ">
			0
	</text>
	<path fill="none" stroke="black" stroke-width="1" stroke-miterlimit="4" d="M79.2701 270.039L79.2701 274.039"/>
	<text transform="translate(79.2701 276.039)" font-size="12" font-family="Segoe UI" x="-3.234375, " y="11.027344, ">
			5
	</text>
	<path fill="none" stroke="black" stroke-width="1" stroke-miterlimit="4" d="M104.844 270.039L104.844 274.039"/>
	<text transform="translate(104.844 276.039)" font-size="12" font-family="Segoe UI" x="-6.46875, 0, " y="11.027344, ">
			10
	</text>
	<path fill="none" stroke="black" stroke-width="1" stroke-miterlimit="4" d="M130.417 270.039L130.417 274.039"/>
	<text transform="translate(130.417 276.039)" font-size="12" font-family="Segoe UI" x="-6.46875, 0, " y="11.027344, ">
			15
	</text>
	<path fill="none" stroke="black" stroke-width="1" stroke-miterlimit="4" d="M155.991 270.039L155.991 274.039"/>
	<text transform="translate(155.991 276.039)" font-size="12" font-family="Segoe UI" x="-6.46875, 0, " y="11.027344, ">
			20
	</text>
	<path fill="none" stroke="black" stroke-width="1" stroke-miterlimit="4" d="M181.565 270.039L181.565 274.039"/>
	<text transform="translate(181.565 276.039)" font-size="12" font-family="Segoe UI" x="-6.46875, 0, " y="11.027344, ">
			25
	</text>
	<path fill="none" stroke="black" stroke-width="1" stroke-miterlimit="4" d="M207.138 270.039L207.138 274.039"/>
	<text transform="translate(207.138 276.039)" font-size="12" font-family="Segoe UI" x="-6.46875, 0, " y="11.027344, ">
			30
	</text>
	<path fill="none" stroke="black" stroke-width="1" stroke-miterlimit="4" d="M232.712 270.039L232.712 274.039"/>
	<text transform="translate(232.712 276.039)" font-size="12" font-family="Segoe UI" x="-6.46875, 0, " y="11.027344, ">
			35
	</text>
	<path fill="none" stroke="black" stroke-width="1" stroke-miterlimit="4" d="M258.286 270.039L258.286 274.039"/>
	<text transform="translate(258.286 276.039)" font-size="12" font-family="Segoe UI" x="-6.46875, 0, " y="11.027344, ">
			40
	</text>
	<path fill="none" stroke="black" stroke-width="1" stroke-miterlimit="4" d="M283.86 270.039L283.86 274.039"/>
	<text transform="translate(283.86 276.039)" font-size="12" font-family="Segoe UI" x="-6.46875, 0, " y="11.027344, ">
			45
	</text>
	<path fill="none" stroke="black" stroke-width="1" stroke-miterlimit="4" d="M309.433 270.039L309.433 274.039"/>
	<text transform="translate(309.433 276.039)" font-size="12" font-family="Segoe UI" x="-6.46875, 0, " y="11.027344, ">
			50
	</text>
	<path fill="none" stroke="black" stroke-width="1" stroke-miterlimit="4" d="M335.007 270.039L335.007 274.039"/>
	<text transform="translate(335.007 276.039)" font-size="12" font-family="Segoe UI" x="-6.46875, 0, " y="11.027344, ">
			55
	</text>
	<path fill="none" stroke="black" stroke-width="1" stroke-miterlimit="4" d="M360.581 270.039L360.581 274.039"/>
	<text transform="translate(360.581 276.039)" font-size="12" font-family="Segoe UI" x="-6.46875, 0, " y="11.027344, ">
			60
	</text>
	<path fill="none" stroke="black" stroke-width="1" stroke-miterlimit="4" d="M386.154 270.039L386.154 274.039"/>
	<text transform="translate(386.154 276.039)" font-size="12" font-family="Segoe UI" x="-6.46875, 0, " y="11.027344, ">
			65
	</text>
	<path fill="none" stroke="black" stroke-width="1" stroke-miterlimit="4" d="M411.728 270.039L411.728 274.039"/>
	<text transform="translate(411.728 276.039)" font-size="12" font-family="Segoe UI" x="-6.46875, 0, " y="11.027344, ">
			70
	</text>
	<path fill="none" stroke="black" stroke-width="1" stroke-miterlimit="4" d="M38.3522 270.039L38.3522 272.039"/>
	<path fill="none" stroke="black" stroke-width="1" stroke-miterlimit="4" d="M43.4669 270.039L43.4669 272.039"/>
	<path fill="none" stroke="black" stroke-width="1" stroke-miterlimit="4" d="M48.5816 270.039L48.5816 272.039"/>
	<path fill="none" stroke="black" stroke-width="1" stroke-miterlimit="4" d="M58.8111 270.039L58.8111 272.039"/>
	<path fill="none" stroke="black" stroke-width="1" stroke-miterlimit="4" d="M63.9258 270.039L63.9258 272.039"/>
	<path fill="none" stroke="black" stroke-width="1" stroke-miterlimit="4" d="M69.0406 270.039L69.0406 272.039"/>
	<path fill="none" stroke="black" stroke-width="1" stroke-miterlimit="4" d="M74.1553 270.039L74.1553 272.039"/>
	<path fill="none" stroke="black" stroke-width="1" stroke-miterlimit="4" d="M84.3848 270.039L84.3848 272.039"/>
	<path fill="none" stroke="black" stroke-width="1" stroke-miterlimit="4" d="M89.4995 270.039L89.4995 272.039"/>
	<path fill="none" stroke="black" stroke-width="1" stroke-miterlimit="4" d="M94.6143 270.039L94.6143 272.039"/>
	<path fill="none" stroke="black" stroke-width="1" stroke-miterlimit="4" d="M99.729 270.039L99.729 272.039"/>
	<path fill="none" stroke="black" stroke-width="1" stroke-miterlimit="4" d="M109.958 270.039L109.958 272.039"/>
	<path fill="none" stroke="black" stroke-width="1" stroke-miterlimit="4" d="M115.073 270.039L115.073 272.039"/>
	<path fill="none" stroke="black" stroke-width="1" stroke-miterlimit="4" d="M120.188 270.039L120.188 272.039"/>
	<path fill="none" stroke="black" stroke-width="1" stroke-miterlimit="4" d="M125.303 270.039L125.303 272.039"/>
	<path fill="none" stroke="black" stroke-width="1" stroke-miterlimit="4" d="M135.532 270.039L135.532 272.039"/>
	<path fill="none" stroke="black" stroke-width="1" stroke-miterlimit="4" d="M140.647 270.039L140.647 272.039"/>
	<path fill="none" stroke="black" stroke-width="1" stroke-miterlimit="4" d="M145.762 270.039L145.762 272.039"/>
	<path fill="none" stroke="black" stroke-width="1" stroke-miterlimit="4" d="M150.876 270.039L150.876 272.039"/>
	<path fill="none" stroke="black" stroke-width="1" stroke-miterlimit="4" d="M161.106 270.039L161.106 272.039"/>
	<path fill="none" stroke="black" stroke-width="1" stroke-miterlimit="4" d="M166.221 270.039L166.221 272.039"/>
	<path fill="none" stroke="black" stroke-width="1" stroke-miterlimit="4" d="M171.335 270.039L171.335 272.039"/>
	<path fill="none" stroke="black" stroke-width="1" stroke-miterlimit="4" d="M176.45 270.039L176.45 272.039"/>
	<path fill="none" stroke="black" stroke-width="1" stroke-miterlimit="4" d="M186.68 270.039L186.68 272.039"/>
	<path fill="none" stroke="black" stroke-width="1" stroke-miterlimit="4" d="M191.794 270.039L191.794 272.039"/>
	<path fill="none" stroke="black" stroke-width="1" stroke-miterlimit="4" d="M196.909 270.039L196.909 272.039"/>
	<path fill="none" stroke="black" stroke-width="1" stroke-miterlimit="4" d="M202.024 270.039L202.024 272.039"/>
	<path fill="none" stroke="black" stroke-width="1" stroke-miterlimit="4" d="M212.253 270.039L212.253 272.039"/>
	<path fill="none" stroke="black" stroke-width="1" stroke-miterlimit="4" d="M217.368 270.039L217.368 272.039"/>
	<path fill="none" stroke="black" stroke-width="1" stroke-miterlimit="4" d="M222.483 270.039L222.483 272.039"/>
	<path fill="none" stroke="black" stroke-width="1" stroke-miterlimit="4" d="M227.597 270.039L227.597 272.039"/>
	<path fill="none" stroke="black" stroke-width="1" stroke-miterlimit="4" d="M237.827 270.039L237.827 272.039"/>
	<path fill="none" stroke="black" stroke-width="1" stroke-miterlimit="4" d="M242.942 270.039L242.942 272.039"/>
	<path fill="none" stroke="black" stroke-width="1" stroke-miterlimit="4" d="M248.056 270.039L248.056 272.039"/>
	<path fill="none" stroke="black" stroke-width="1" stroke-miterlimit="4" d="M253.171 270.039L253.171 272.039"/>
	<path fill="none" stroke="black" stroke-width="1" stroke-miterlimit="4" d="M263.401 270.039L263.401 272.039"/>
	<path fill="none" stroke="black" stroke-width="1" stroke-miterlimit="4" d="M268.515 270.039L268.515 272.039"/>
	<path fill="none" stroke="black" stroke-width="1" stroke-miterlimit="4" d="M273.63 270.039L273.63 272.039"/>
	<path fill="none" stroke="black" stroke-width="1" stroke-miterlimit="4" d="M278.745 270.039L278.745 272.039"/>
	<path fill="none" stroke="black" stroke-width="1" stroke-miterlimit="4" d="M288.974 270.039L288.974 272.039"/>
	<path fill="none" stroke="black" stroke-width="1" stroke-miterlimit="4" d="M294.089 270.039L294.089 272.039"/>
	<path fill="none" stroke="black" stroke-width="1" stroke-miterlimit="4" d="M299.204 270.039L299.204 272.039"/>
	<path fill="none" stroke="black" stroke-width="1" stroke-miterlimit="4" d="M304.318 270.039L304.318 272.039"/>
	<path fill="none" stroke="black" stroke-width="1" stroke-miterlimit="4" d="M314.548 270.039L314.548 272.039"/>
	<path fill="none" stroke="black" stroke-width="1" stroke-miterlimit="4" d="M319.663 270.039L319.663 272.039"/>
	<path fill="none" stroke="black" stroke-width="1" stroke-miterlimit="4" d="M324.777 270.039L324.777 272.039"/>
	<path fill="none" stroke="black" stroke-width="1" stroke-miterlimit="4" d="M329.892 270.039L329.892 272.039"/>
	<path fill="none" stroke="black" stroke-width="1" stroke-miterlimit="4" d="M340.122 270.039L340.122 272.039"/>
	<path fill="none" stroke="black" stroke-width="1" stroke-miterlimit="4" d="M345.236 270.039L345.236 272.039"/>
	<path fill="none" stroke="black" stroke-width="1" stroke-miterlimit="4" d="M350.351 270.039L350.351 272.039"/>
	<path fill="none" stroke="black" stroke-width="1" stroke-miterlimit="4" d="M355.466 270.039L355.466 272.039"/>
	<path fill="none" stroke="black" stroke-width="1" stroke-miterlimit="4" d="M365.695 270.039L365.695 272.039"/>
	<path fill="none" stroke="black" stroke-width="1" stroke-miterlimit="4" d="M370.81 270.039L370.81 272.039"/>
	<path fill="none" stroke="black" stroke-width="1" stroke-miterlimit="4" d="M375.925 270.039L375.925 272.039"/>
	<path fill="none" stroke="black" stroke-width="1" stroke-miterlimit="4" d="M381.04 270.039L381.04 272.039"/>
	<path fill="none" stroke="black" stroke-width="1" stroke-miterlimit="4" d="M391.269 270.039L391.269 272.039"/>
	<path fill="none" stroke="black" stroke-width="1" stroke-miterlimit="4" d="M396.384 270.039L396.384 272.039"/>
	<path fill="none" stroke="black" stroke-width="1" stroke-miterlimit="4" d="M401.498 270.039L401.498 272.039"/>
	<path fill="none" stroke="black" stroke-width="1" stroke-miterlimit="4" d="M406.613 270.039L406.613 272.039"/>
	<path fill="none" stroke="black" stroke-width="1" stroke-miterlimit="4" d="M416.843 270.039L416.843 272.039"/>
	<path fill="none" stroke="black" stroke-width="1" stroke-miterlimit="4" d="M421.957 270.039L421.957 272.039"/>
	<path fill="none" stroke="black" stroke-width="1" stroke-miterlimit="4" d="M427.072 270.039L427.072 272.039"/>
	<path fill="none" stroke="black" stroke-width="1" stroke-miterlimit="4" d="M432.187 270.039L432.187 272.039"/>
	<path fill="none" stroke="black" stroke-width="1" stroke-miterlimit="4" d="M35.5391 270.039L435 270.039"/>
	<path fill="none" stroke="black" stroke-width="1" stroke-miterlimit="4" d="M35.5391 46.3812L435 46.3812"/>
	<path fill="none" stroke="black" stroke-width="1" stroke-miterlimit="4" d="M35.5391 254.956L31.5391 254.956"/>
	<text transform="translate(26.5391 254.956)" font-size="12" font-family="Segoe UI" x="-6.46875, " y="3.046875, ">
			0
	</text>
	<path fill="none" stroke="black" stroke-width="1" stroke-miterlimit="4" d="M35.5391 230.407L31.5391 230.407"/>
	<text transform="translate(26.5391 230.407)" font-size="12" font-family="Segoe UI" x="-15.539063, -9.0703125, -6.46875, " y="3.046875, ">
			0.2
	</text>
	<path fill="none" stroke="black" stroke-width="1" stroke-miterlimit="4" d="M35.5391 205.857L31.5391 205.857"/>
	<text transform="translate(26.5391 205.857)" font-size="12" font-family="Segoe UI" x="-15.539063, -9.0703125, -6.46875, " y="3.046875, ">
			0.4
	</text>
	<path fill="none" stroke="black" stroke-width="1" stroke-miterlimit="4" d="M35.5391 181.307L31.5391 181.307"/>
	<text transform="translate(26.5391 181.307)" font-size="12" font-family="Segoe UI" x="-15.539063, -9.0703125, -6.46875, " y="3.046875, ">
			0.6
	</text>
	<path fill="none" stroke="black" stroke-width="1" stroke-miterlimit="4" d="M35.5391 156.758L31.5391 156.758"/>
	<text transform="translate(26.5391 156.758)" font-size="12" font-family="Segoe UI" x="-15.539063, -9.0703125, -6.46875, " y="3.046875, ">
			0.8
	</text>
	<path fill="none" stroke="black" stroke-width="1" stroke-miterlimit="4" d="M35.5391 132.208L31.5391 132.208"/>
	<text transform="translate(26.5391 132.208)" font-size="12" font-family="Segoe UI" x="-6.46875, " y="3.046875, ">
			1
	</text>
	<path fill="none" stroke="black" stroke-width="1" stroke-miterlimit="4" d="M35.5391 107.658L31.5391 107.658"/>
	<text transform="translate(26.5391 107.658)" font-size="12" font-family="Segoe UI" x="-15.539063, -9.0703125, -6.46875, " y="3.046875, ">
			1.2
	</text>
	<path fill="none" stroke="black" stroke-width="1" stroke-miterlimit="4" d="M35.5391 83.1084L31.5391 83.1084"/>
	<text transform="translate(26.5391 83.1084)" font-size="12" font-family="Segoe UI" x="-15.539063, -9.0703125, -6.46875, " y="3.046875, ">
			1.4
	</text>
	<path fill="none" stroke="black" stroke-width="1" stroke-miterlimit="4" d="M35.5391 58.5587L31.5391 58.5587"/>
	<text transform="translate(26.5391 58.5587)" font-size="12" font-family="Segoe UI" x="-15.539063, -9.0703125, -6.46875, " y="3.046875, ">
			1.6
	</text>
	<path fill="none" stroke="black" stroke-width="1" stroke-miterlimit="4" d="M35.5391 269.686L33.5391 269.686"/>
	<path fill="none" stroke="black" stroke-width="1" stroke-miterlimit="4" d="M35.5391 264.776L33.5391 264.776"/>
	<path fill="none" stroke="black" stroke-width="1" stroke-miterlimit="4" d="M35.5391 259.866L33.5391 259.866"/>
	<path fill="none" stroke="black" stroke-width="1" stroke-miterlimit="4" d="M35.5391 250.047L33.5391 250.047"/>
	<path fill="none" stroke="black" stroke-width="1" stroke-miterlimit="4" d="M35.5391 245.137L33.5391 245.137"/>
	<path fill="none" stroke="black" stroke-width="1" stroke-miterlimit="4" d="M35.5391 240.227L33.5391 240.227"/>
	<path fill="none" stroke="black" stroke-width="1" stroke-miterlimit="4" d="M35.5391 235.317L33.5391 235.317"/>
	<path fill="none" stroke="black" stroke-width="1" stroke-miterlimit="4" d="M35.5391 225.497L33.5391 225.497"/>
	<path fill="none" stroke="black" stroke-width="1" stroke-miterlimit="4" d="M35.5391 220.587L33.5391 220.587"/>
	<path fill="none" stroke="black" stroke-width="1" stroke-miterlimit="4" d="M35.5391 215.677L33.5391 215.677"/>
	<path fill="none" stroke="black" stroke-width="1" stroke-miterlimit="4" d="M35.5391 210.767L33.5391 210.767"/>
	<path fill="none" stroke="black" stroke-width="1" stroke-miterlimit="4" d="M35.5391 200.947L33.5391 200.947"/>
	<path fill="none" stroke="black" stroke-width="1" stroke-miterlimit="4" d="M35.5391 196.037L33.5391 196.037"/>
	<path fill="none" stroke="black" stroke-width="1" stroke-miterlimit="4" d="M35.5391 191.127L33.5391 191.127"/>
	<path fill="none" stroke="black" stroke-width="1" stroke-miterlimit="4" d="M35.5391 186.217L33.5391 186.217"/>
	<path fill="none" stroke="black" stroke-width="1" stroke-miterlimit="4" d="M35.5391 176.397L33.5391 176.397"/>
	<path fill="none" stroke="black" stroke-width="1" stroke-miterlimit="4" d="M35.5391 171.487L33.5391 171.487"/>
	<path fill="none" stroke="black" stroke-width="1" stroke-miterlimit="4" d="M35.5391 166.577L33.5391 166.577"/>
	<path fill="none" stroke="black" stroke-width="1" stroke-miterlimit="4" d="M35.5391 161.668L33.5391 161.668"/>
	<path fill="none" stroke="black" stroke-width="1" stroke-miterlimit="4" d="M35.5391 151.848L33.5391 151.848"/>
	<path fill="none" stroke="black" stroke-width="1" stroke-miterlimit="4" d="M35.5391 146.938L33.5391 146.938"/>
	<path fill="none" stroke="black" stroke-width="1" stroke-miterlimit="4" d="M35.5391 142.028L33.5391 142.028"/>
	<path fill="none" stroke="black" stroke-width="1" stroke-miterlimit="4" d="M35.5391 137.118L33.5391 137.118"/>
	<path fill="none" stroke="black" stroke-width="1" stroke-miterlimit="4" d="M35.5391 127.298L33.5391 127.298"/>
	<path fill="none" stroke="black" stroke-width="1" stroke-miterlimit="4" d="M35.5391 122.388L33.5391 122.388"/>
	<path fill="none" stroke="black" stroke-width="1" stroke-miterlimit="4" d="M35.5391 117.478L33.5391 117.478"/>
	<path fill="none" stroke="black" stroke-width="1" stroke-miterlimit="4" d="M35.5391 112.568L33.5391 112.568"/>
	<path fill="none" stroke="black" stroke-width="1" stroke-miterlimit="4" d="M35.5391 102.748L33.5391 102.748"/>
	<path fill="none" stroke="black" stroke-width="1" stroke-miterlimit="4" d="M35.5391 97.8383L33.5391 97.8383"/>
	<path fill="none" stroke="black" stroke-width="1" stroke-miterlimit="4" d="M35.5391 92.9283L33.5391 92.9283"/>
	<path fill="none" stroke="black" stroke-width="1" stroke-miterlimit="4" d="M35.5391 88.0184L33.5391 88.0184"/>
	<path fill="none" stroke="black" stroke-width="1" stroke-miterlimit="4" d="M35.5391 78.1985L33.5391 78.1985"/>
	<path fill="none" stroke="black" stroke-width="1" stroke-miterlimit="4" d="M35.5391 73.2885L33.5391 73.2885"/>
	<path fill="none" stroke="black" stroke-width="1" stroke-miterlimit="4" d="M35.5391 68.3786L33.5391 68.3786"/>
	<path fill="none" stroke="black" stroke-width="1" stroke-miterlimit="4" d="M35.5391 63.4687L33.5391 63.4687"/>
	<path fill="none" stroke="black" stroke-width="1" stroke-miterlimit="4" d="M35.5391 53.6488L33.5391 53.6488"/>
	<path fill="none" stroke="black" stroke-width="1" stroke-miterlimit="4" d="M35.5391 48.7388L33.5391 48.7388"/>
	<path fill="none" stroke="black" stroke-width="1" stroke-miterlimit="4" d="M35.5391 270.039L35.5391 46.2813"/>
	<path fill="none" stroke="black" stroke-width="1" stroke-miterlimit="4" d="M435 270.039L435 46.2813"/>
	<text transform="translate(235.27 31.2813)" font-size="16" font-weight="600" font-family="Segoe UI" x="-76.207031, -71.136719, -56.480469, -46.558594, -36.878906, -32.332031, -25.292969, -16.636719, -12.222656, -5.7539063, -1.3398438, 10.457031, 19.425781, 34.738281, 45.988281, 51.894531, 61.097656, 70.300781, " y="-6.890625, ">
			Impulse - DSMA(10)
	</text>
</svg>
