<?xml version="1.0" encoding="utf-8" ?>
<svg xmlns="http://www.w3.org/2000/svg" xmlns:xlink="http://www.w3.org/1999/xlink" width="450" height="300">
	<rect fill="white" width="450" height="300"/>
	<path fill="none" stroke="#010101" stroke-width="1" stroke-miterlimit="4" stroke-opacity="0.098039217" d="M58.2771 270.039L58.2771 46.2813M83.5435 270.039L83.5435 46.2813M108.81 270.039L108.81 46.2813M134.076 270.039L134.076 46.2813M159.343 270.039L159.343 46.2813M184.609 270.039L184.609 46.2813M209.876 270.039L209.876 46.2813M235.142 270.039L235.142 46.2813M260.409 270.039L260.409 46.2813M285.675 270.039L285.675 46.2813M310.942 270.039L310.942 46.2813M336.208 270.039L336.208 46.2813M361.475 270.039L361.475 46.2813M386.741 270.039L386.741 46.2813M412.008 270.039L412.008 46.2813"/>
	<path fill="none" stroke="#010101" stroke-width="1" stroke-miterlimit="4" stroke-opacity="0.098039217" d="M40.3379 248.08L435 248.08M40.3379 201.278L435 201.278M40.3379 154.477L435 154.477M40.3379 107.676L435 107.676M40.3379 60.8741L435 60.8741"/>
	<clipPath id="cl_fd">
		<rect x="40.337891" y="46.28125" width="394.66211" height="223.75781"/>
	</clipPath>
	<g clip-path="url(#cl_fd)">
		<path fill="none" stroke="red" stroke-width="2" stroke-miterlimit="4" d="M58.2771 210.639L58.2771 210.639L63.3304 98.3153L68.3837 210.639L73.437 98.3153L78.4902 210.639L83.5435 98.3153L88.5968 154.477L93.6501 141.373L98.7034 225.615L103.757 244.336L108.81 180.686L113.863 92.6991L118.917 61.8102L123.97 116.1L129.023 205.023L134.076 248.08L139.13 205.023L144.183 115.164L149.236 61.8102L154.29 93.6351L159.343 181.622L164.396 244.336L169.45 224.679L174.503 140.437L179.556 69.2984L184.609 75.8506L189.663 155.413L194.716 234.039L199.769 239.656L204.823 166.645L209.876 83.3388L214.929 64.6183L219.982 129.204L225.036 216.255L230.089 247.144L235.142 191.918L240.196 102.995L245.249 60.8741L250.302 104.867L255.355 194.726L260.409 247.144L265.462 214.383L270.515 126.396L275.569 64.6183L280.622 84.2749L285.675 169.453L290.729 240.592L295.782 232.167L300.835 152.605L305.888 74.9146L310.942 70.2344L315.995 143.245L321.048 226.551L326.102 243.4L331.155 178.814L336.208 91.7631L341.261 61.8102L346.315 117.036L351.368 206.895L356.421 248.08L361.475 203.15L366.528 113.292L371.581 61.8102L376.634 94.5712L381.688 182.558L386.741 245.272L391.794 223.743L396.848 138.564L401.901 68.3624L406.954 76.7866L412.008 157.285L417.061 234.975"/>
		<ellipse fill="red" cx="58.277077" cy="210.63867" rx="0.40212631" ry="0.40213013"/>
		<ellipse fill="red" cx="63.330368" cy="98.315277" rx="0.40212631" ry="0.4021225"/>
		<ellipse fill="red" cx="68.383659" cy="210.63867" rx="0.4021225" ry="0.40213013"/>
		<ellipse fill="red" cx="73.436951" cy="98.315277" rx="0.4021225" ry="0.4021225"/>
		<ellipse fill="red" cx="78.49025" cy="210.63867" rx="0.4021225" ry="0.40213013"/>
		<ellipse fill="red" cx="83.543533" cy="98.315277" rx="0.4021225" ry="0.4021225"/>
		<ellipse fill="red" cx="88.596832" cy="154.47697" rx="0.4021225" ry="0.40213013"/>
		<ellipse fill="red" cx="93.650124" cy="141.37259" rx="0.4021225" ry="0.40213013"/>
		<ellipse fill="red" cx="98.703415" cy="225.61513" rx="0.4021225" ry="0.40213013"/>
		<ellipse fill="red" cx="103.75671" cy="244.33569" rx="0.4021225" ry="0.40213013"/>
		<ellipse fill="red" cx="108.81" cy="180.68576" rx="0.4021225" ry="0.40213013"/>
		<ellipse fill="red" cx="113.86329" cy="92.699112" rx="0.4021225" ry="0.4021225"/>
		<ellipse fill="red" cx="118.91658" cy="61.810181" rx="0.4021225" ry="0.40212631"/>
		<ellipse fill="red" cx="123.96987" cy="116.09982" rx="0.4021225" ry="0.4021225"/>
		<ellipse fill="red" cx="129.02316" cy="205.02251" rx="0.40213013" ry="0.40213013"/>
		<ellipse fill="red" cx="134.07646" cy="248.0798" rx="0.40213013" ry="0.40213013"/>
		<ellipse fill="red" cx="139.12976" cy="205.02251" rx="0.40213013" ry="0.40213013"/>
		<ellipse fill="red" cx="144.18304" cy="115.16379" rx="0.40213013" ry="0.4021225"/>
		<ellipse fill="red" cx="149.23633" cy="61.810181" rx="0.40213013" ry="0.40212631"/>
		<ellipse fill="red" cx="154.28963" cy="93.635147" rx="0.40213013" ry="0.4021225"/>
		<ellipse fill="red" cx="159.34293" cy="181.6218" rx="0.40213013" ry="0.40213013"/>
		<ellipse fill="red" cx="164.39621" cy="244.33569" rx="0.40213013" ry="0.40213013"/>
		<ellipse fill="red" cx="169.44951" cy="224.67911" rx="0.40213013" ry="0.40213013"/>
		<ellipse fill="red" cx="174.50279" cy="140.43655" rx="0.40213013" ry="0.40213013"/>
		<ellipse fill="red" cx="179.55609" cy="69.298401" rx="0.40213013" ry="0.4021225"/>
		<ellipse fill="red" cx="184.60938" cy="75.850601" rx="0.40213013" ry="0.4021225"/>
		<ellipse fill="red" cx="189.66267" cy="155.41301" rx="0.40213013" ry="0.40213013"/>
		<ellipse fill="red" cx="194.71596" cy="234.03938" rx="0.40213013" ry="0.40213013"/>
		<ellipse fill="red" cx="199.76926" cy="239.65555" rx="0.40213013" ry="0.40213013"/>
		<ellipse fill="red" cx="204.82254" cy="166.64536" rx="0.40213013" ry="0.40213013"/>
		<ellipse fill="red" cx="209.87584" cy="83.338837" rx="0.40213013" ry="0.4021225"/>
		<ellipse fill="red" cx="214.92914" cy="64.618271" rx="0.40213013" ry="0.4021225"/>
		<ellipse fill="red" cx="219.98242" cy="129.20421" rx="0.40213013" ry="0.40213013"/>
		<ellipse fill="red" cx="225.03572" cy="216.25485" rx="0.40213013" ry="0.40213013"/>
		<ellipse fill="red" cx="230.089" cy="247.14378" rx="0.40213013" ry="0.40213013"/>
		<ellipse fill="red" cx="235.1423" cy="191.91811" rx="0.40213013" ry="0.40213013"/>
		<ellipse fill="red" cx="240.19559" cy="102.99542" rx="0.40213013" ry="0.4021225"/>
		<ellipse fill="red" cx="245.24889" cy="60.874146" rx="0.40213013" ry="0.40212631"/>
		<ellipse fill="red" cx="250.30217" cy="104.86748" rx="0.40213013" ry="0.4021225"/>
		<ellipse fill="red" cx="255.35547" cy="194.7262" rx="0.40213013" ry="0.40213013"/>
		<ellipse fill="red" cx="260.40875" cy="247.14378" rx="0.40213013" ry="0.40213013"/>
		<ellipse fill="red" cx="265.46204" cy="214.38278" rx="0.40213013" ry="0.40213013"/>
		<ellipse fill="red" cx="270.51535" cy="126.39613" rx="0.40213013" ry="0.4021225"/>
		<ellipse fill="red" cx="275.56863" cy="64.618271" rx="0.40213013" ry="0.4021225"/>
		<ellipse fill="red" cx="280.62195" cy="84.274857" rx="0.40213013" ry="0.4021225"/>
		<ellipse fill="red" cx="285.67523" cy="169.45343" rx="0.40213013" ry="0.40213013"/>
		<ellipse fill="red" cx="290.72852" cy="240.59158" rx="0.40213013" ry="0.40213013"/>
		<ellipse fill="red" cx="295.7818" cy="232.16733" rx="0.40213013" ry="0.40213013"/>
		<ellipse fill="red" cx="300.83508" cy="152.60492" rx="0.40213013" ry="0.40213013"/>
		<ellipse fill="red" cx="305.8884" cy="74.914581" rx="0.40213013" ry="0.4021225"/>
		<ellipse fill="red" cx="310.94168" cy="70.234436" rx="0.40213013" ry="0.4021225"/>
		<ellipse fill="red" cx="315.99496" cy="143.24463" rx="0.40213013" ry="0.40213013"/>
		<ellipse fill="red" cx="321.04828" cy="226.55115" rx="0.40213013" ry="0.40213013"/>
		<ellipse fill="red" cx="326.10156" cy="243.39966" rx="0.40213013" ry="0.40213013"/>
		<ellipse fill="red" cx="331.15485" cy="178.81372" rx="0.40213013" ry="0.40213013"/>
		<ellipse fill="red" cx="336.20813" cy="91.763077" rx="0.40213013" ry="0.4021225"/>
		<ellipse fill="red" cx="341.26144" cy="61.810181" rx="0.40213013" ry="0.40212631"/>
		<ellipse fill="red" cx="346.31473" cy="117.03584" rx="0.40213013" ry="0.4021225"/>
		<ellipse fill="red" cx="351.36801" cy="206.89456" rx="0.40213013" ry="0.40213013"/>
		<ellipse fill="red" cx="356.4213" cy="248.0798" rx="0.40213013" ry="0.40213013"/>
		<ellipse fill="red" cx="361.47461" cy="203.15045" rx="0.40213013" ry="0.40213013"/>
		<ellipse fill="red" cx="366.52789" cy="113.29173" rx="0.40213013" ry="0.4021225"/>
		<ellipse fill="red" cx="371.58118" cy="61.810181" rx="0.40213013" ry="0.40212631"/>
		<ellipse fill="red" cx="376.63449" cy="94.571167" rx="0.40213013" ry="0.4021225"/>
		<ellipse fill="red" cx="381.68777" cy="182.55783" rx="0.40213013" ry="0.40213013"/>
		<ellipse fill="red" cx="386.74106" cy="245.27173" rx="0.40213013" ry="0.40213013"/>
		<ellipse fill="red" cx="391.79434" cy="223.74307" rx="0.40213013" ry="0.40213013"/>
		<ellipse fill="red" cx="396.84766" cy="138.5645" rx="0.40213013" ry="0.40213013"/>
		<ellipse fill="red" cx="401.90094" cy="68.362381" rx="0.40213013" ry="0.4021225"/>
		<ellipse fill="red" cx="406.95422" cy="76.786636" rx="0.40213013" ry="0.4021225"/>
		<ellipse fill="red" cx="412.00751" cy="157.28506" rx="0.40213013" ry="0.40213013"/>
		<ellipse fill="red" cx="417.06082" cy="234.9754" rx="0.40213013" ry="0.40213013"/>
	</g>
	<clipPath id="cl_fe">
		<rect x="40.337891" y="46.28125" width="394.66211" height="223.75781"/>
	</clipPath>
	<g clip-path="url(#cl_fe)">
		<path fill="none" stroke="blue" stroke-width="4" stroke-miterlimit="4" d="M58.2771 255.446L58.2771 255.446L63.3304 235.009L68.3837 201.87L73.437 84.7566L78.4902 123.75L83.5435 111.371L88.5968 127.438L93.6501 132.437L98.7034 184.002L103.757 229.684L108.81 212.462L113.863 149.671L118.917 68.4321L123.97 94.5056L129.023 136.027L134.076 230.852L139.13 215.887L144.183 200.264L149.236 100.803L154.29 96.0965L159.343 100.455L164.396 182.812L169.45 211.81L174.503 197.154L179.556 142.177L184.609 98.2122L189.663 115.322L194.716 154.871L199.769 210.243L204.823 193.24L209.876 165.347L214.929 99.8966L219.982 113.957L225.036 131.689L230.089 206.442L235.142 198.367L240.196 190.475L245.249 108.421L250.302 106.2L255.355 108.154L260.409 190.918L265.462 206.65L270.515 196.463L275.569 128.722L280.622 99.0913L285.675 114.112L290.729 169.518L295.782 211.269L300.835 193.795L305.888 150.891L310.942 97.1293L315.995 114.92L321.048 146.605L326.102 211.101L331.155 195.982L336.208 175.432L341.261 100.39L346.315 109.55L351.368 119.148L356.421 202.056L361.475 202.735L366.528 201.852L371.581 117.363L376.634 102.047L381.688 112.056L386.741 180.763L391.794 209.376L396.848 194.645L401.901 139.285L406.954 97.7826L412.008 115.256L417.061 158.833"/>
		<ellipse fill="blue" cx="58.277077" cy="255.44617" rx="0.40212631" ry="0.40213013"/>
		<ellipse fill="blue" cx="63.330368" cy="235.00917" rx="0.40212631" ry="0.40213013"/>
		<ellipse fill="blue" cx="68.383659" cy="201.87036" rx="0.4021225" ry="0.40213013"/>
		<ellipse fill="blue" cx="73.436951" cy="84.756577" rx="0.4021225" ry="0.4021225"/>
		<ellipse fill="blue" cx="78.49025" cy="123.7504" rx="0.4021225" ry="0.4021225"/>
		<ellipse fill="blue" cx="83.543533" cy="111.37131" rx="0.4021225" ry="0.4021225"/>
		<ellipse fill="blue" cx="88.596832" cy="127.43839" rx="0.4021225" ry="0.4021225"/>
		<ellipse fill="blue" cx="93.650124" cy="132.43698" rx="0.4021225" ry="0.40213013"/>
		<ellipse fill="blue" cx="98.703415" cy="184.00208" rx="0.4021225" ry="0.40213013"/>
		<ellipse fill="blue" cx="103.75671" cy="229.68381" rx="0.4021225" ry="0.40213013"/>
		<ellipse fill="blue" cx="108.81" cy="212.46222" rx="0.4021225" ry="0.40213013"/>
		<ellipse fill="blue" cx="113.86329" cy="149.6713" rx="0.4021225" ry="0.40213013"/>
		<ellipse fill="blue" cx="118.91658" cy="68.432083" rx="0.4021225" ry="0.4021225"/>
		<ellipse fill="blue" cx="123.96987" cy="94.505569" rx="0.4021225" ry="0.4021225"/>
		<ellipse fill="blue" cx="129.02316" cy="136.02678" rx="0.40213013" ry="0.40213013"/>
		<ellipse fill="blue" cx="134.07646" cy="230.85239" rx="0.40213013" ry="0.40213013"/>
		<ellipse fill="blue" cx="139.12976" cy="215.88651" rx="0.40213013" ry="0.40213013"/>
		<ellipse fill="blue" cx="144.18304" cy="200.26413" rx="0.40213013" ry="0.40213013"/>
		<ellipse fill="blue" cx="149.23633" cy="100.80334" rx="0.40213013" ry="0.4021225"/>
		<ellipse fill="blue" cx="154.28963" cy="96.096542" rx="0.40213013" ry="0.4021225"/>
		<ellipse fill="blue" cx="159.34293" cy="100.45546" rx="0.40213013" ry="0.4021225"/>
		<ellipse fill="blue" cx="164.39621" cy="182.81192" rx="0.40213013" ry="0.40213013"/>
		<ellipse fill="blue" cx="169.44951" cy="211.81039" rx="0.40213013" ry="0.40213013"/>
		<ellipse fill="blue" cx="174.50279" cy="197.15396" rx="0.40213013" ry="0.40213013"/>
		<ellipse fill="blue" cx="179.55609" cy="142.17744" rx="0.40213013" ry="0.40213013"/>
		<ellipse fill="blue" cx="184.60938" cy="98.21225" rx="0.40213013" ry="0.4021225"/>
		<ellipse fill="blue" cx="189.66267" cy="115.32178" rx="0.40213013" ry="0.4021225"/>
		<ellipse fill="blue" cx="194.71596" cy="154.87054" rx="0.40213013" ry="0.40213013"/>
		<ellipse fill="blue" cx="199.76926" cy="210.24289" rx="0.40213013" ry="0.40213013"/>
		<ellipse fill="blue" cx="204.82254" cy="193.24023" rx="0.40213013" ry="0.40213013"/>
		<ellipse fill="blue" cx="209.87584" cy="165.34683" rx="0.40213013" ry="0.40213013"/>
		<ellipse fill="blue" cx="214.92914" cy="99.896622" rx="0.40213013" ry="0.4021225"/>
		<ellipse fill="blue" cx="219.98242" cy="113.95723" rx="0.40213013" ry="0.4021225"/>
		<ellipse fill="blue" cx="225.03572" cy="131.68909" rx="0.40213013" ry="0.40213013"/>
		<ellipse fill="blue" cx="230.089" cy="206.44199" rx="0.40213013" ry="0.40213013"/>
		<ellipse fill="blue" cx="235.1423" cy="198.3667" rx="0.40213013" ry="0.40213013"/>
		<ellipse fill="blue" cx="240.19559" cy="190.47537" rx="0.40213013" ry="0.40213013"/>
		<ellipse fill="blue" cx="245.24889" cy="108.42113" rx="0.40213013" ry="0.4021225"/>
		<ellipse fill="blue" cx="250.30217" cy="106.19989" rx="0.40213013" ry="0.4021225"/>
		<ellipse fill="blue" cx="255.35547" cy="108.15367" rx="0.40213013" ry="0.4021225"/>
		<ellipse fill="blue" cx="260.40875" cy="190.91849" rx="0.40213013" ry="0.40213013"/>
		<ellipse fill="blue" cx="265.46204" cy="206.65041" rx="0.40213013" ry="0.40213013"/>
		<ellipse fill="blue" cx="270.51535" cy="196.46335" rx="0.40213013" ry="0.40213013"/>
		<ellipse fill="blue" cx="275.56863" cy="128.72162" rx="0.40213013" ry="0.40213013"/>
		<ellipse fill="blue" cx="280.62195" cy="99.091309" rx="0.40213013" ry="0.4021225"/>
		<ellipse fill="blue" cx="285.67523" cy="114.11186" rx="0.40213013" ry="0.4021225"/>
		<ellipse fill="blue" cx="290.72852" cy="169.51823" rx="0.40213013" ry="0.40213013"/>
		<ellipse fill="blue" cx="295.7818" cy="211.26901" rx="0.40213013" ry="0.40213013"/>
		<ellipse fill="blue" cx="300.83508" cy="193.79477" rx="0.40213013" ry="0.40213013"/>
		<ellipse fill="blue" cx="305.8884" cy="150.89063" rx="0.40213013" ry="0.40213013"/>
		<ellipse fill="blue" cx="310.94168" cy="97.129333" rx="0.40213013" ry="0.4021225"/>
		<ellipse fill="blue" cx="315.99496" cy="114.91978" rx="0.40213013" ry="0.4021225"/>
		<ellipse fill="blue" cx="321.04828" cy="146.60471" rx="0.40213013" ry="0.40213013"/>
		<ellipse fill="blue" cx="326.10156" cy="211.1012" rx="0.40213013" ry="0.40213013"/>
		<ellipse fill="blue" cx="331.15485" cy="195.98233" rx="0.40213013" ry="0.40213013"/>
		<ellipse fill="blue" cx="336.20813" cy="175.4317" rx="0.40213013" ry="0.40213013"/>
		<ellipse fill="blue" cx="341.26144" cy="100.39023" rx="0.40213013" ry="0.4021225"/>
		<ellipse fill="blue" cx="346.31473" cy="109.54988" rx="0.40213013" ry="0.4021225"/>
		<ellipse fill="blue" cx="351.36801" cy="119.1478" rx="0.40213013" ry="0.4021225"/>
		<ellipse fill="blue" cx="356.4213" cy="202.05603" rx="0.40213013" ry="0.40213013"/>
		<ellipse fill="blue" cx="361.47461" cy="202.73517" rx="0.40213013" ry="0.40213013"/>
		<ellipse fill="blue" cx="366.52789" cy="201.85165" rx="0.40213013" ry="0.40213013"/>
		<ellipse fill="blue" cx="371.58118" cy="117.36334" rx="0.40213013" ry="0.4021225"/>
		<ellipse fill="blue" cx="376.63449" cy="102.04694" rx="0.40213013" ry="0.4021225"/>
		<ellipse fill="blue" cx="381.68777" cy="112.05617" rx="0.40213013" ry="0.4021225"/>
		<ellipse fill="blue" cx="386.74106" cy="180.76276" rx="0.40213013" ry="0.40213013"/>
		<ellipse fill="blue" cx="391.79434" cy="209.37601" rx="0.40213013" ry="0.40213013"/>
		<ellipse fill="blue" cx="396.84766" cy="194.64502" rx="0.40213013" ry="0.40213013"/>
		<ellipse fill="blue" cx="401.90094" cy="139.28543" rx="0.40213013" ry="0.40213013"/>
		<ellipse fill="blue" cx="406.95422" cy="97.782608" rx="0.40213013" ry="0.4021225"/>
		<ellipse fill="blue" cx="412.00751" cy="115.25618" rx="0.40213013" ry="0.4021225"/>
		<ellipse fill="blue" cx="417.06082" cy="158.83279" rx="0.40213013" ry="0.40213013"/>
	</g>
	<path fill="none" stroke="black" stroke-width="1" stroke-miterlimit="4" d="M58.2771 270.039L58.2771 274.039"/>
	<text transform="translate(58.2771 276.039)" font-size="12" font-family="Segoe UI" x="-3.234375, " y="11.027344, ">
			0
	</text>
	<path fill="none" stroke="black" stroke-width="1" stroke-miterlimit="4" d="M83.5435 270.039L83.5435 274.039"/>
	<text transform="translate(83.5435 276.039)" font-size="12" font-family="Segoe UI" x="-3.234375, " y="11.027344, ">
			5
	</text>
	<path fill="none" stroke="black" stroke-width="1" stroke-miterlimit="4" d="M108.81 270.039L108.81 274.039"/>
	<text transform="translate(108.81 276.039)" font-size="12" font-family="Segoe UI" x="-6.46875, 0, " y="11.027344, ">
			10
	</text>
	<path fill="none" stroke="black" stroke-width="1" stroke-miterlimit="4" d="M134.076 270.039L134.076 274.039"/>
	<text transform="translate(134.076 276.039)" font-size="12" font-family="Segoe UI" x="-6.46875, 0, " y="11.027344, ">
			15
	</text>
	<path fill="none" stroke="black" stroke-width="1" stroke-miterlimit="4" d="M159.343 270.039L159.343 274.039"/>
	<text transform="translate(159.343 276.039)" font-size="12" font-family="Segoe UI" x="-6.46875, 0, " y="11.027344, ">
			20
	</text>
	<path fill="none" stroke="black" stroke-width="1" stroke-miterlimit="4" d="M184.609 270.039L184.609 274.039"/>
	<text transform="translate(184.609 276.039)" font-size="12" font-family="Segoe UI" x="-6.46875, 0, " y="11.027344, ">
			25
	</text>
	<path fill="none" stroke="black" stroke-width="1" stroke-miterlimit="4" d="M209.876 270.039L209.876 274.039"/>
	<text transform="translate(209.876 276.039)" font-size="12" font-family="Segoe UI" x="-6.46875, 0, " y="11.027344, ">
			30
	</text>
	<path fill="none" stroke="black" stroke-width="1" stroke-miterlimit="4" d="M235.142 270.039L235.142 274.039"/>
	<text transform="translate(235.142 276.039)" font-size="12" font-family="Segoe UI" x="-6.46875, 0, " y="11.027344, ">
			35
	</text>
	<path fill="none" stroke="black" stroke-width="1" stroke-miterlimit="4" d="M260.409 270.039L260.409 274.039"/>
	<text transform="translate(260.409 276.039)" font-size="12" font-family="Segoe UI" x="-6.46875, 0, " y="11.027344, ">
			40
	</text>
	<path fill="none" stroke="black" stroke-width="1" stroke-miterlimit="4" d="M285.675 270.039L285.675 274.039"/>
	<text transform="translate(285.675 276.039)" font-size="12" font-family="Segoe UI" x="-6.46875, 0, " y="11.027344, ">
			45
	</text>
	<path fill="none" stroke="black" stroke-width="1" stroke-miterlimit="4" d="M310.942 270.039L310.942 274.039"/>
	<text transform="translate(310.942 276.039)" font-size="12" font-family="Segoe UI" x="-6.46875, 0, " y="11.027344, ">
			50
	</text>
	<path fill="none" stroke="black" stroke-width="1" stroke-miterlimit="4" d="M336.208 270.039L336.208 274.039"/>
	<text transform="translate(336.208 276.039)" font-size="12" font-family="Segoe UI" x="-6.46875, 0, " y="11.027344, ">
			55
	</text>
	<path fill="none" stroke="black" stroke-width="1" stroke-miterlimit="4" d="M361.475 270.039L361.475 274.039"/>
	<text transform="translate(361.475 276.039)" font-size="12" font-family="Segoe UI" x="-6.46875, 0, " y="11.027344, ">
			60
	</text>
	<path fill="none" stroke="black" stroke-width="1" stroke-miterlimit="4" d="M386.741 270.039L386.741 274.039"/>
	<text transform="translate(386.741 276.039)" font-size="12" font-family="Segoe UI" x="-6.46875, 0, " y="11.027344, ">
			65
	</text>
	<path fill="none" stroke="black" stroke-width="1" stroke-miterlimit="4" d="M412.008 270.039L412.008 274.039"/>
	<text transform="translate(412.008 276.039)" font-size="12" font-family="Segoe UI" x="-6.46875, 0, " y="11.027344, ">
			70
	</text>
	<path fill="none" stroke="black" stroke-width="1" stroke-miterlimit="4" d="M43.1172 270.039L43.1172 272.039"/>
	<path fill="none" stroke="black" stroke-width="1" stroke-miterlimit="4" d="M48.1705 270.039L48.1705 272.039"/>
	<path fill="none" stroke="black" stroke-width="1" stroke-miterlimit="4" d="M53.2238 270.039L53.2238 272.039"/>
	<path fill="none" stroke="black" stroke-width="1" stroke-miterlimit="4" d="M63.3304 270.039L63.3304 272.039"/>
	<path fill="none" stroke="black" stroke-width="1" stroke-miterlimit="4" d="M68.3837 270.039L68.3837 272.039"/>
	<path fill="none" stroke="black" stroke-width="1" stroke-miterlimit="4" d="M73.437 270.039L73.437 272.039"/>
	<path fill="none" stroke="black" stroke-width="1" stroke-miterlimit="4" d="M78.4902 270.039L78.4902 272.039"/>
	<path fill="none" stroke="black" stroke-width="1" stroke-miterlimit="4" d="M88.5968 270.039L88.5968 272.039"/>
	<path fill="none" stroke="black" stroke-width="1" stroke-miterlimit="4" d="M93.6501 270.039L93.6501 272.039"/>
	<path fill="none" stroke="black" stroke-width="1" stroke-miterlimit="4" d="M98.7034 270.039L98.7034 272.039"/>
	<path fill="none" stroke="black" stroke-width="1" stroke-miterlimit="4" d="M103.757 270.039L103.757 272.039"/>
	<path fill="none" stroke="black" stroke-width="1" stroke-miterlimit="4" d="M113.863 270.039L113.863 272.039"/>
	<path fill="none" stroke="black" stroke-width="1" stroke-miterlimit="4" d="M118.917 270.039L118.917 272.039"/>
	<path fill="none" stroke="black" stroke-width="1" stroke-miterlimit="4" d="M123.97 270.039L123.97 272.039"/>
	<path fill="none" stroke="black" stroke-width="1" stroke-miterlimit="4" d="M129.023 270.039L129.023 272.039"/>
	<path fill="none" stroke="black" stroke-width="1" stroke-miterlimit="4" d="M139.13 270.039L139.13 272.039"/>
	<path fill="none" stroke="black" stroke-width="1" stroke-miterlimit="4" d="M144.183 270.039L144.183 272.039"/>
	<path fill="none" stroke="black" stroke-width="1" stroke-miterlimit="4" d="M149.236 270.039L149.236 272.039"/>
	<path fill="none" stroke="black" stroke-width="1" stroke-miterlimit="4" d="M154.29 270.039L154.29 272.039"/>
	<path fill="none" stroke="black" stroke-width="1" stroke-miterlimit="4" d="M164.396 270.039L164.396 272.039"/>
	<path fill="none" stroke="black" stroke-width="1" stroke-miterlimit="4" d="M169.45 270.039L169.45 272.039"/>
	<path fill="none" stroke="black" stroke-width="1" stroke-miterlimit="4" d="M174.503 270.039L174.503 272.039"/>
	<path fill="none" stroke="black" stroke-width="1" stroke-miterlimit="4" d="M179.556 270.039L179.556 272.039"/>
	<path fill="none" stroke="black" stroke-width="1" stroke-miterlimit="4" d="M189.663 270.039L189.663 272.039"/>
	<path fill="none" stroke="black" stroke-width="1" stroke-miterlimit="4" d="M194.716 270.039L194.716 272.039"/>
	<path fill="none" stroke="black" stroke-width="1" stroke-miterlimit="4" d="M199.769 270.039L199.769 272.039"/>
	<path fill="none" stroke="black" stroke-width="1" stroke-miterlimit="4" d="M204.823 270.039L204.823 272.039"/>
	<path fill="none" stroke="black" stroke-width="1" stroke-miterlimit="4" d="M214.929 270.039L214.929 272.039"/>
	<path fill="none" stroke="black" stroke-width="1" stroke-miterlimit="4" d="M219.982 270.039L219.982 272.039"/>
	<path fill="none" stroke="black" stroke-width="1" stroke-miterlimit="4" d="M225.036 270.039L225.036 272.039"/>
	<path fill="none" stroke="black" stroke-width="1" stroke-miterlimit="4" d="M230.089 270.039L230.089 272.039"/>
	<path fill="none" stroke="black" stroke-width="1" stroke-miterlimit="4" d="M240.196 270.039L240.196 272.039"/>
	<path fill="none" stroke="black" stroke-width="1" stroke-miterlimit="4" d="M245.249 270.039L245.249 272.039"/>
	<path fill="none" stroke="black" stroke-width="1" stroke-miterlimit="4" d="M250.302 270.039L250.302 272.039"/>
	<path fill="none" stroke="black" stroke-width="1" stroke-miterlimit="4" d="M255.355 270.039L255.355 272.039"/>
	<path fill="none" stroke="black" stroke-width="1" stroke-miterlimit="4" d="M265.462 270.039L265.462 272.039"/>
	<path fill="none" stroke="black" stroke-width="1" stroke-miterlimit="4" d="M270.515 270.039L270.515 272.039"/>
	<path fill="none" stroke="black" stroke-width="1" stroke-miterlimit="4" d="M275.569 270.039L275.569 272.039"/>
	<path fill="none" stroke="black" stroke-width="1" stroke-miterlimit="4" d="M280.622 270.039L280.622 272.039"/>
	<path fill="none" stroke="black" stroke-width="1" stroke-miterlimit="4" d="M290.729 270.039L290.729 272.039"/>
	<path fill="none" stroke="black" stroke-width="1" stroke-miterlimit="4" d="M295.782 270.039L295.782 272.039"/>
	<path fill="none" stroke="black" stroke-width="1" stroke-miterlimit="4" d="M300.835 270.039L300.835 272.039"/>
	<path fill="none" stroke="black" stroke-width="1" stroke-miterlimit="4" d="M305.888 270.039L305.888 272.039"/>
	<path fill="none" stroke="black" stroke-width="1" stroke-miterlimit="4" d="M315.995 270.039L315.995 272.039"/>
	<path fill="none" stroke="black" stroke-width="1" stroke-miterlimit="4" d="M321.048 270.039L321.048 272.039"/>
	<path fill="none" stroke="black" stroke-width="1" stroke-miterlimit="4" d="M326.102 270.039L326.102 272.039"/>
	<path fill="none" stroke="black" stroke-width="1" stroke-miterlimit="4" d="M331.155 270.039L331.155 272.039"/>
	<path fill="none" stroke="black" stroke-width="1" stroke-miterlimit="4" d="M341.261 270.039L341.261 272.039"/>
	<path fill="none" stroke="black" stroke-width="1" stroke-miterlimit="4" d="M346.315 270.039L346.315 272.039"/>
	<path fill="none" stroke="black" stroke-width="1" stroke-miterlimit="4" d="M351.368 270.039L351.368 272.039"/>
	<path fill="none" stroke="black" stroke-width="1" stroke-miterlimit="4" d="M356.421 270.039L356.421 272.039"/>
	<path fill="none" stroke="black" stroke-width="1" stroke-miterlimit="4" d="M366.528 270.039L366.528 272.039"/>
	<path fill="none" stroke="black" stroke-width="1" stroke-miterlimit="4" d="M371.581 270.039L371.581 272.039"/>
	<path fill="none" stroke="black" stroke-width="1" stroke-miterlimit="4" d="M376.634 270.039L376.634 272.039"/>
	<path fill="none" stroke="black" stroke-width="1" stroke-miterlimit="4" d="M381.688 270.039L381.688 272.039"/>
	<path fill="none" stroke="black" stroke-width="1" stroke-miterlimit="4" d="M391.794 270.039L391.794 272.039"/>
	<path fill="none" stroke="black" stroke-width="1" stroke-miterlimit="4" d="M396.848 270.039L396.848 272.039"/>
	<path fill="none" stroke="black" stroke-width="1" stroke-miterlimit="4" d="M401.901 270.039L401.901 272.039"/>
	<path fill="none" stroke="black" stroke-width="1" stroke-miterlimit="4" d="M406.954 270.039L406.954 272.039"/>
	<path fill="none" stroke="black" stroke-width="1" stroke-miterlimit="4" d="M417.061 270.039L417.061 272.039"/>
	<path fill="none" stroke="black" stroke-width="1" stroke-miterlimit="4" d="M422.114 270.039L422.114 272.039"/>
	<path fill="none" stroke="black" stroke-width="1" stroke-miterlimit="4" d="M427.167 270.039L427.167 272.039"/>
	<path fill="none" stroke="black" stroke-width="1" stroke-miterlimit="4" d="M432.221 270.039L432.221 272.039"/>
	<path fill="none" stroke="black" stroke-width="1" stroke-miterlimit="4" d="M40.3379 270.039L435 270.039"/>
	<path fill="none" stroke="black" stroke-width="1" stroke-miterlimit="4" d="M40.3379 46.3812L435 46.3812"/>
	<path fill="none" stroke="black" stroke-width="1" stroke-miterlimit="4" d="M40.3379 248.08L36.3379 248.08"/>
	<text transform="translate(31.3379 248.08)" font-size="12" font-family="Segoe UI" x="-11.267578, -6.46875, " y="3.046875, ">
			-1
	</text>
	<path fill="none" stroke="black" stroke-width="1" stroke-miterlimit="4" d="M40.3379 201.278L36.3379 201.278"/>
	<text transform="translate(31.3379 201.278)" font-size="12" font-family="Segoe UI" x="-20.337891, -15.539063, -9.0703125, -6.46875, " y="3.046875, ">
			-0.5
	</text>
	<path fill="none" stroke="black" stroke-width="1" stroke-miterlimit="4" d="M40.3379 154.477L36.3379 154.477"/>
	<text transform="translate(31.3379 154.477)" font-size="12" font-family="Segoe UI" x="-6.46875, " y="3.046875, ">
			0
	</text>
	<path fill="none" stroke="black" stroke-width="1" stroke-miterlimit="4" d="M40.3379 107.676L36.3379 107.676"/>
	<text transform="translate(31.3379 107.676)" font-size="12" font-family="Segoe UI" x="-15.539063, -9.0703125, -6.46875, " y="3.046875, ">
			0.5
	</text>
	<path fill="none" stroke="black" stroke-width="1" stroke-miterlimit="4" d="M40.3379 60.8741L36.3379 60.8741"/>
	<text transform="translate(31.3379 60.8741)" font-size="12" font-family="Segoe UI" x="-6.46875, " y="3.046875, ">
			1
	</text>
	<path fill="none" stroke="black" stroke-width="1" stroke-miterlimit="4" d="M40.3379 266.8L38.3379 266.8"/>
	<path fill="none" stroke="black" stroke-width="1" stroke-miterlimit="4" d="M40.3379 257.44L38.3379 257.44"/>
	<path fill="none" stroke="black" stroke-width="1" stroke-miterlimit="4" d="M40.3379 238.72L38.3379 238.72"/>
	<path fill="none" stroke="black" stroke-width="1" stroke-miterlimit="4" d="M40.3379 229.359L38.3379 229.359"/>
	<path fill="none" stroke="black" stroke-width="1" stroke-miterlimit="4" d="M40.3379 219.999L38.3379 219.999"/>
	<path fill="none" stroke="black" stroke-width="1" stroke-miterlimit="4" d="M40.3379 210.639L38.3379 210.639"/>
	<path fill="none" stroke="black" stroke-width="1" stroke-miterlimit="4" d="M40.3379 191.918L38.3379 191.918"/>
	<path fill="none" stroke="black" stroke-width="1" stroke-miterlimit="4" d="M40.3379 182.558L38.3379 182.558"/>
	<path fill="none" stroke="black" stroke-width="1" stroke-miterlimit="4" d="M40.3379 173.198L38.3379 173.198"/>
	<path fill="none" stroke="black" stroke-width="1" stroke-miterlimit="4" d="M40.3379 163.837L38.3379 163.837"/>
	<path fill="none" stroke="black" stroke-width="1" stroke-miterlimit="4" d="M40.3379 145.117L38.3379 145.117"/>
	<path fill="none" stroke="black" stroke-width="1" stroke-miterlimit="4" d="M40.3379 135.756L38.3379 135.756"/>
	<path fill="none" stroke="black" stroke-width="1" stroke-miterlimit="4" d="M40.3379 126.396L38.3379 126.396"/>
	<path fill="none" stroke="black" stroke-width="1" stroke-miterlimit="4" d="M40.3379 117.036L38.3379 117.036"/>
	<path fill="none" stroke="black" stroke-width="1" stroke-miterlimit="4" d="M40.3379 98.3153L38.3379 98.3153"/>
	<path fill="none" stroke="black" stroke-width="1" stroke-miterlimit="4" d="M40.3379 88.955L38.3379 88.955"/>
	<path fill="none" stroke="black" stroke-width="1" stroke-miterlimit="4" d="M40.3379 79.5947L38.3379 79.5947"/>
	<path fill="none" stroke="black" stroke-width="1" stroke-miterlimit="4" d="M40.3379 70.2344L38.3379 70.2344"/>
	<path fill="none" stroke="black" stroke-width="1" stroke-miterlimit="4" d="M40.3379 51.5139L38.3379 51.5139"/>
	<path fill="none" stroke="black" stroke-width="1" stroke-miterlimit="4" d="M40.3379 270.039L40.3379 46.2813"/>
	<path fill="none" stroke="black" stroke-width="1" stroke-miterlimit="4" d="M435 270.039L435 46.2813"/>
	<text transform="translate(237.669 31.2813)" font-size="16" font-weight="600" font-family="Segoe UI" x="-56.710938, -44.453125, -36.132813, -31.71875, -25.25, -20.835938, -9.0390625, -0.0703125, 15.242188, 26.492188, 32.398438, 41.601563, 50.804688, " y="-6.890625, ">
			HF - DSMA(10)
	</text>
</svg>
