<?xml version="1.0" encoding="utf-8" ?>
<svg xmlns="http://www.w3.org/2000/svg" xmlns:xlink="http://www.w3.org/1999/xlink" width="450" height="300">
	<rect fill="white" width="450" height="300"/>
	<path fill="none" stroke="#010101" stroke-width="1" stroke-miterlimit="4" stroke-opacity="0.098039217" d="M58.2771 270.039L58.2771 46.2813M83.5435 270.039L83.5435 46.2813M108.81 270.039L108.81 46.2813M134.076 270.039L134.076 46.2813M159.343 270.039L159.343 46.2813M184.609 270.039L184.609 46.2813M209.876 270.039L209.876 46.2813M235.142 270.039L235.142 46.2813M260.409 270.039L260.409 46.2813M285.675 270.039L285.675 46.2813M310.942 270.039L310.942 46.2813M336.208 270.039L336.208 46.2813M361.475 270.039L361.475 46.2813M386.741 270.039L386.741 46.2813M412.008 270.039L412.008 46.2813"/>
	<path fill="none" stroke="#010101" stroke-width="1" stroke-miterlimit="4" stroke-opacity="0.098039217" d="M40.3379 233.307L435 233.307M40.3379 184.32L435 184.32M40.3379 135.334L435 135.334M40.3379 86.3472L435 86.3472"/>
	<clipPath id="cl_f1">
		<rect x="40.337891" y="46.28125" width="394.66211" height="223.75781"/>
	</clipPath>
	<g clip-path="url(#cl_f1)">
		<path fill="none" stroke="red" stroke-width="2" stroke-miterlimit="4" d="M58.2771 174.523L58.2771 174.523L63.3304 96.1445L68.3837 174.523L73.437 96.1445L78.4902 174.523L83.5435 96.1445L88.5968 135.334L93.6501 132.395L98.7034 124.557L103.757 145.131L108.81 177.462L113.863 143.172L118.917 100.063L123.97 139.253L129.023 139.253L134.076 155.908L139.13 164.726L144.183 109.861L149.236 115.739L154.29 107.901L159.343 115.739L164.396 108.881L169.45 136.313L174.503 145.131L179.556 157.868L184.609 148.07L189.663 175.503L194.716 157.868L199.769 142.192L204.823 155.908L209.876 103.982L214.929 152.969L219.982 182.361L225.036 105.942L230.089 90.2661L235.142 154.928L240.196 84.3877L245.249 214.692L250.302 159.827L255.355 155.908L260.409 147.09L265.462 152.969L270.515 117.699L275.569 84.3877L280.622 106.922L285.675 92.2256L290.729 117.699L295.782 252.901L300.835 98.1039L305.888 111.82L310.942 129.455L315.995 107.901L321.048 102.023L326.102 105.942L331.155 148.07L336.208 116.719L341.261 184.32L346.315 77.5296L351.368 170.604L356.421 113.78L361.475 157.868L366.528 111.82L371.581 97.1242L376.634 122.597L381.688 167.665L386.741 191.178L391.794 157.868L396.848 87.3269L401.901 148.07L406.954 60.8741L412.008 77.5296L417.061 75.5701"/>
		<ellipse fill="red" cx="58.277077" cy="174.52296" rx="0.40212631" ry="0.40213013"/>
		<ellipse fill="red" cx="63.330368" cy="96.14447" rx="0.40212631" ry="0.4021225"/>
		<ellipse fill="red" cx="68.383659" cy="174.52296" rx="0.4021225" ry="0.40213013"/>
		<ellipse fill="red" cx="73.436951" cy="96.14447" rx="0.4021225" ry="0.4021225"/>
		<ellipse fill="red" cx="78.49025" cy="174.52296" rx="0.4021225" ry="0.40213013"/>
		<ellipse fill="red" cx="83.543533" cy="96.14447" rx="0.4021225" ry="0.4021225"/>
		<ellipse fill="red" cx="88.596832" cy="135.33372" rx="0.4021225" ry="0.40213013"/>
		<ellipse fill="red" cx="93.650124" cy="132.39453" rx="0.4021225" ry="0.40213013"/>
		<ellipse fill="red" cx="98.703415" cy="124.55667" rx="0.4021225" ry="0.4021225"/>
		<ellipse fill="red" cx="103.75671" cy="145.13104" rx="0.4021225" ry="0.40213013"/>
		<ellipse fill="red" cx="108.81" cy="177.46216" rx="0.4021225" ry="0.40213013"/>
		<ellipse fill="red" cx="113.86329" cy="143.17157" rx="0.4021225" ry="0.40213013"/>
		<ellipse fill="red" cx="118.91658" cy="100.0634" rx="0.4021225" ry="0.4021225"/>
		<ellipse fill="red" cx="123.96987" cy="139.25264" rx="0.4021225" ry="0.40213013"/>
		<ellipse fill="red" cx="129.02316" cy="139.25264" rx="0.40213013" ry="0.40213013"/>
		<ellipse fill="red" cx="134.07646" cy="155.90808" rx="0.40213013" ry="0.40213013"/>
		<ellipse fill="red" cx="139.12976" cy="164.72565" rx="0.40213013" ry="0.40213013"/>
		<ellipse fill="red" cx="144.18304" cy="109.8607" rx="0.40213013" ry="0.4021225"/>
		<ellipse fill="red" cx="149.23633" cy="115.73909" rx="0.40213013" ry="0.4021225"/>
		<ellipse fill="red" cx="154.28963" cy="107.90125" rx="0.40213013" ry="0.4021225"/>
		<ellipse fill="red" cx="159.34293" cy="115.73909" rx="0.40213013" ry="0.4021225"/>
		<ellipse fill="red" cx="164.39621" cy="108.88098" rx="0.40213013" ry="0.4021225"/>
		<ellipse fill="red" cx="169.44951" cy="136.31345" rx="0.40213013" ry="0.40213013"/>
		<ellipse fill="red" cx="174.50279" cy="145.13104" rx="0.40213013" ry="0.40213013"/>
		<ellipse fill="red" cx="179.55609" cy="157.86754" rx="0.40213013" ry="0.40213013"/>
		<ellipse fill="red" cx="184.60938" cy="148.07022" rx="0.40213013" ry="0.40213013"/>
		<ellipse fill="red" cx="189.66267" cy="175.5027" rx="0.40213013" ry="0.40213013"/>
		<ellipse fill="red" cx="194.71596" cy="157.86754" rx="0.40213013" ry="0.40213013"/>
		<ellipse fill="red" cx="199.76926" cy="142.19183" rx="0.40213013" ry="0.40213013"/>
		<ellipse fill="red" cx="204.82254" cy="155.90808" rx="0.40213013" ry="0.40213013"/>
		<ellipse fill="red" cx="209.87584" cy="103.98232" rx="0.40213013" ry="0.4021225"/>
		<ellipse fill="red" cx="214.92914" cy="152.96887" rx="0.40213013" ry="0.40213013"/>
		<ellipse fill="red" cx="219.98242" cy="182.36081" rx="0.40213013" ry="0.40213013"/>
		<ellipse fill="red" cx="225.03572" cy="105.94179" rx="0.40213013" ry="0.4021225"/>
		<ellipse fill="red" cx="230.089" cy="90.266083" rx="0.40213013" ry="0.4021225"/>
		<ellipse fill="red" cx="235.1423" cy="154.92834" rx="0.40213013" ry="0.40213013"/>
		<ellipse fill="red" cx="240.19559" cy="84.387695" rx="0.40213013" ry="0.4021225"/>
		<ellipse fill="red" cx="245.24889" cy="214.69194" rx="0.40213013" ry="0.40213013"/>
		<ellipse fill="red" cx="250.30217" cy="159.827" rx="0.40213013" ry="0.40213013"/>
		<ellipse fill="red" cx="255.35547" cy="155.90808" rx="0.40213013" ry="0.40213013"/>
		<ellipse fill="red" cx="260.40875" cy="147.09048" rx="0.40213013" ry="0.40213013"/>
		<ellipse fill="red" cx="265.46204" cy="152.96887" rx="0.40213013" ry="0.40213013"/>
		<ellipse fill="red" cx="270.51535" cy="117.69856" rx="0.40213013" ry="0.4021225"/>
		<ellipse fill="red" cx="275.56863" cy="84.387695" rx="0.40213013" ry="0.4021225"/>
		<ellipse fill="red" cx="280.62195" cy="106.92151" rx="0.40213013" ry="0.4021225"/>
		<ellipse fill="red" cx="285.67523" cy="92.225555" rx="0.40213013" ry="0.4021225"/>
		<ellipse fill="red" cx="290.72852" cy="117.69856" rx="0.40213013" ry="0.4021225"/>
		<ellipse fill="red" cx="295.7818" cy="252.90146" rx="0.40213013" ry="0.40213013"/>
		<ellipse fill="red" cx="300.83508" cy="98.103943" rx="0.40213013" ry="0.4021225"/>
		<ellipse fill="red" cx="305.8884" cy="111.82018" rx="0.40213013" ry="0.4021225"/>
		<ellipse fill="red" cx="310.94168" cy="129.45534" rx="0.40213013" ry="0.40213013"/>
		<ellipse fill="red" cx="315.99496" cy="107.90125" rx="0.40213013" ry="0.4021225"/>
		<ellipse fill="red" cx="321.04828" cy="102.02286" rx="0.40213013" ry="0.4021225"/>
		<ellipse fill="red" cx="326.10156" cy="105.94179" rx="0.40213013" ry="0.4021225"/>
		<ellipse fill="red" cx="331.15485" cy="148.07022" rx="0.40213013" ry="0.40213013"/>
		<ellipse fill="red" cx="336.20813" cy="116.71883" rx="0.40213013" ry="0.4021225"/>
		<ellipse fill="red" cx="341.26144" cy="184.32028" rx="0.40213013" ry="0.40213013"/>
		<ellipse fill="red" cx="346.31473" cy="77.529587" rx="0.40213013" ry="0.4021225"/>
		<ellipse fill="red" cx="351.36801" cy="170.60403" rx="0.40213013" ry="0.40213013"/>
		<ellipse fill="red" cx="356.4213" cy="113.77963" rx="0.40213013" ry="0.4021225"/>
		<ellipse fill="red" cx="361.47461" cy="157.86754" rx="0.40213013" ry="0.40213013"/>
		<ellipse fill="red" cx="366.52789" cy="111.82018" rx="0.40213013" ry="0.4021225"/>
		<ellipse fill="red" cx="371.58118" cy="97.124207" rx="0.40213013" ry="0.4021225"/>
		<ellipse fill="red" cx="376.63449" cy="122.59721" rx="0.40213013" ry="0.4021225"/>
		<ellipse fill="red" cx="381.68777" cy="167.66486" rx="0.40213013" ry="0.40213013"/>
		<ellipse fill="red" cx="386.74106" cy="191.17841" rx="0.40213013" ry="0.40213013"/>
		<ellipse fill="red" cx="391.79434" cy="157.86754" rx="0.40213013" ry="0.40213013"/>
		<ellipse fill="red" cx="396.84766" cy="87.326889" rx="0.40213013" ry="0.4021225"/>
		<ellipse fill="red" cx="401.90094" cy="148.07022" rx="0.40213013" ry="0.40213013"/>
		<ellipse fill="red" cx="406.95422" cy="60.874146" rx="0.40213013" ry="0.40212631"/>
		<ellipse fill="red" cx="412.00751" cy="77.529587" rx="0.40213013" ry="0.4021225"/>
		<ellipse fill="red" cx="417.06082" cy="75.570114" rx="0.40213013" ry="0.4021225"/>
	</g>
	<clipPath id="cl_f2">
		<rect x="40.337891" y="46.28125" width="394.66211" height="223.75781"/>
	</clipPath>
	<g clip-path="url(#cl_f2)">
		<path fill="none" stroke="blue" stroke-width="4" stroke-miterlimit="4" d="M58.2771 205.789L58.2771 205.789L63.3304 191.529L68.3837 168.405L73.437 86.6833L78.4902 113.893L83.5435 105.255L88.5968 116.466L93.6501 122.76L98.7034 123.21L103.757 127.793L108.81 152.494L113.863 148.32L118.917 138.306L123.97 138.899L129.023 138.996L134.076 140.969L139.13 152.355L144.183 149.648L149.236 124.944L154.29 112.107L159.343 113.599L164.396 113.149L169.45 117.768L174.503 134.529L179.556 151.017L184.609 149.733L189.663 157.778L194.716 157.806L199.769 157.356L204.823 156.947L209.876 118.592L214.929 135.968L219.982 165.443L225.036 147.516L230.089 89.3039L235.142 121.718L240.196 115.334L245.249 183.006L250.302 163.889L255.355 163.039L260.409 158.798L265.462 156.928L270.515 138.79L275.569 96.1883L280.622 103.15L285.675 100.911L290.729 101.698L295.782 255.446L300.835 175.721L305.888 113.081L310.942 124.829L315.995 121.019L321.048 118.192L326.102 115.985L331.155 116.701L336.208 116.704L341.261 143.393L346.315 129.738L351.368 133.834L356.421 133.22L361.475 136.162L366.528 134.641L371.581 106.886L376.634 116.841L381.688 144.041L386.741 195.681L391.794 172.92L396.848 102.168L401.901 135.597L406.954 103.46L412.008 85.7697L417.061 80.9134"/>
		<ellipse fill="blue" cx="58.277077" cy="205.78932" rx="0.40212631" ry="0.40213013"/>
		<ellipse fill="blue" cx="63.330368" cy="191.52853" rx="0.40212631" ry="0.40213013"/>
		<ellipse fill="blue" cx="68.383659" cy="168.40451" rx="0.4021225" ry="0.40213013"/>
		<ellipse fill="blue" cx="73.436951" cy="86.683304" rx="0.4021225" ry="0.4021225"/>
		<ellipse fill="blue" cx="78.49025" cy="113.89291" rx="0.4021225" ry="0.4021225"/>
		<ellipse fill="blue" cx="83.543533" cy="105.25488" rx="0.4021225" ry="0.4021225"/>
		<ellipse fill="blue" cx="88.596832" cy="116.46637" rx="0.4021225" ry="0.4021225"/>
		<ellipse fill="blue" cx="93.650124" cy="122.75987" rx="0.4021225" ry="0.4021225"/>
		<ellipse fill="blue" cx="98.703415" cy="123.21005" rx="0.4021225" ry="0.4021225"/>
		<ellipse fill="blue" cx="103.75671" cy="127.79254" rx="0.4021225" ry="0.40212631"/>
		<ellipse fill="blue" cx="108.81" cy="152.49365" rx="0.4021225" ry="0.40213013"/>
		<ellipse fill="blue" cx="113.86329" cy="148.32037" rx="0.4021225" ry="0.40213013"/>
		<ellipse fill="blue" cx="118.91658" cy="138.30609" rx="0.4021225" ry="0.40213013"/>
		<ellipse fill="blue" cx="123.96987" cy="138.89941" rx="0.4021225" ry="0.40213013"/>
		<ellipse fill="blue" cx="129.02316" cy="138.99635" rx="0.40213013" ry="0.40213013"/>
		<ellipse fill="blue" cx="134.07646" cy="140.96919" rx="0.40213013" ry="0.40213013"/>
		<ellipse fill="blue" cx="139.12976" cy="152.35483" rx="0.40213013" ry="0.40213013"/>
		<ellipse fill="blue" cx="144.18304" cy="149.64764" rx="0.40213013" ry="0.40213013"/>
		<ellipse fill="blue" cx="149.23633" cy="124.94357" rx="0.40213013" ry="0.4021225"/>
		<ellipse fill="blue" cx="154.28963" cy="112.10739" rx="0.40213013" ry="0.4021225"/>
		<ellipse fill="blue" cx="159.34293" cy="113.59943" rx="0.40213013" ry="0.4021225"/>
		<ellipse fill="blue" cx="164.39621" cy="113.14906" rx="0.40213013" ry="0.4021225"/>
		<ellipse fill="blue" cx="169.44951" cy="117.76787" rx="0.40213013" ry="0.4021225"/>
		<ellipse fill="blue" cx="174.50279" cy="134.52898" rx="0.40213013" ry="0.40213013"/>
		<ellipse fill="blue" cx="179.55609" cy="151.01672" rx="0.40213013" ry="0.40213013"/>
		<ellipse fill="blue" cx="184.60938" cy="149.73306" rx="0.40213013" ry="0.40213013"/>
		<ellipse fill="blue" cx="189.66267" cy="157.77831" rx="0.40213013" ry="0.40213013"/>
		<ellipse fill="blue" cx="194.71596" cy="157.80563" rx="0.40213013" ry="0.40213013"/>
		<ellipse fill="blue" cx="199.76926" cy="157.35599" rx="0.40213013" ry="0.40213013"/>
		<ellipse fill="blue" cx="204.82254" cy="156.9474" rx="0.40213013" ry="0.40213013"/>
		<ellipse fill="blue" cx="209.87584" cy="118.59225" rx="0.40213013" ry="0.4021225"/>
		<ellipse fill="blue" cx="214.92914" cy="135.96838" rx="0.40213013" ry="0.40213013"/>
		<ellipse fill="blue" cx="219.98242" cy="165.44272" rx="0.40213013" ry="0.40213013"/>
		<ellipse fill="blue" cx="225.03572" cy="147.51582" rx="0.40213013" ry="0.40213013"/>
		<ellipse fill="blue" cx="230.089" cy="89.303925" rx="0.40213013" ry="0.4021225"/>
		<ellipse fill="blue" cx="235.1423" cy="121.71823" rx="0.40213013" ry="0.4021225"/>
		<ellipse fill="blue" cx="240.19559" cy="115.33412" rx="0.40213013" ry="0.4021225"/>
		<ellipse fill="blue" cx="245.24889" cy="183.00647" rx="0.40213013" ry="0.40213013"/>
		<ellipse fill="blue" cx="250.30217" cy="163.88943" rx="0.40213013" ry="0.40213013"/>
		<ellipse fill="blue" cx="255.35547" cy="163.0387" rx="0.40213013" ry="0.40213013"/>
		<ellipse fill="blue" cx="260.40875" cy="158.79825" rx="0.40213013" ry="0.40213013"/>
		<ellipse fill="blue" cx="265.46204" cy="156.92839" rx="0.40213013" ry="0.40213013"/>
		<ellipse fill="blue" cx="270.51535" cy="138.78999" rx="0.40213013" ry="0.40213013"/>
		<ellipse fill="blue" cx="275.56863" cy="96.188263" rx="0.40213013" ry="0.4021225"/>
		<ellipse fill="blue" cx="280.62195" cy="103.14995" rx="0.40213013" ry="0.4021225"/>
		<ellipse fill="blue" cx="285.67523" cy="100.91074" rx="0.40213013" ry="0.4021225"/>
		<ellipse fill="blue" cx="290.72852" cy="101.69804" rx="0.40213013" ry="0.4021225"/>
		<ellipse fill="blue" cx="295.7818" cy="255.44617" rx="0.40213013" ry="0.40213013"/>
		<ellipse fill="blue" cx="300.83508" cy="175.72079" rx="0.40213013" ry="0.40213013"/>
		<ellipse fill="blue" cx="305.8884" cy="113.0808" rx="0.40213013" ry="0.4021225"/>
		<ellipse fill="blue" cx="310.94168" cy="124.82889" rx="0.40213013" ry="0.4021225"/>
		<ellipse fill="blue" cx="315.99496" cy="121.01874" rx="0.40213013" ry="0.4021225"/>
		<ellipse fill="blue" cx="321.04828" cy="118.19186" rx="0.40213013" ry="0.4021225"/>
		<ellipse fill="blue" cx="326.10156" cy="115.9854" rx="0.40213013" ry="0.4021225"/>
		<ellipse fill="blue" cx="331.15485" cy="116.70087" rx="0.40213013" ry="0.4021225"/>
		<ellipse fill="blue" cx="336.20813" cy="116.7043" rx="0.40213013" ry="0.4021225"/>
		<ellipse fill="blue" cx="341.26144" cy="143.39326" rx="0.40213013" ry="0.40213013"/>
		<ellipse fill="blue" cx="346.31473" cy="129.73848" rx="0.40213013" ry="0.40213013"/>
		<ellipse fill="blue" cx="351.36801" cy="133.83368" rx="0.40213013" ry="0.40213013"/>
		<ellipse fill="blue" cx="356.4213" cy="133.22009" rx="0.40213013" ry="0.40213013"/>
		<ellipse fill="blue" cx="361.47461" cy="136.16174" rx="0.40213013" ry="0.40213013"/>
		<ellipse fill="blue" cx="366.52789" cy="134.64124" rx="0.40213013" ry="0.40213013"/>
		<ellipse fill="blue" cx="371.58118" cy="106.88585" rx="0.40213013" ry="0.4021225"/>
		<ellipse fill="blue" cx="376.63449" cy="116.84061" rx="0.40213013" ry="0.4021225"/>
		<ellipse fill="blue" cx="381.68777" cy="144.04071" rx="0.40213013" ry="0.40213013"/>
		<ellipse fill="blue" cx="386.74106" cy="195.68134" rx="0.40213013" ry="0.40213013"/>
		<ellipse fill="blue" cx="391.79434" cy="172.92014" rx="0.40213013" ry="0.40213013"/>
		<ellipse fill="blue" cx="396.84766" cy="102.16847" rx="0.40213013" ry="0.4021225"/>
		<ellipse fill="blue" cx="401.90094" cy="135.59663" rx="0.40213013" ry="0.40213013"/>
		<ellipse fill="blue" cx="406.95422" cy="103.46025" rx="0.40213013" ry="0.4021225"/>
		<ellipse fill="blue" cx="412.00751" cy="85.76973" rx="0.40213013" ry="0.4021225"/>
		<ellipse fill="blue" cx="417.06082" cy="80.913422" rx="0.40213013" ry="0.4021225"/>
	</g>
	<path fill="none" stroke="black" stroke-width="1" stroke-miterlimit="4" d="M58.2771 270.039L58.2771 274.039"/>
	<text transform="translate(58.2771 276.039)" font-size="12" font-family="Segoe UI" x="-3.234375, " y="11.027344, ">
			0
	</text>
	<path fill="none" stroke="black" stroke-width="1" stroke-miterlimit="4" d="M83.5435 270.039L83.5435 274.039"/>
	<text transform="translate(83.5435 276.039)" font-size="12" font-family="Segoe UI" x="-3.234375, " y="11.027344, ">
			5
	</text>
	<path fill="none" stroke="black" stroke-width="1" stroke-miterlimit="4" d="M108.81 270.039L108.81 274.039"/>
	<text transform="translate(108.81 276.039)" font-size="12" font-family="Segoe UI" x="-6.46875, 0, " y="11.027344, ">
			10
	</text>
	<path fill="none" stroke="black" stroke-width="1" stroke-miterlimit="4" d="M134.076 270.039L134.076 274.039"/>
	<text transform="translate(134.076 276.039)" font-size="12" font-family="Segoe UI" x="-6.46875, 0, " y="11.027344, ">
			15
	</text>
	<path fill="none" stroke="black" stroke-width="1" stroke-miterlimit="4" d="M159.343 270.039L159.343 274.039"/>
	<text transform="translate(159.343 276.039)" font-size="12" font-family="Segoe UI" x="-6.46875, 0, " y="11.027344, ">
			20
	</text>
	<path fill="none" stroke="black" stroke-width="1" stroke-miterlimit="4" d="M184.609 270.039L184.609 274.039"/>
	<text transform="translate(184.609 276.039)" font-size="12" font-family="Segoe UI" x="-6.46875, 0, " y="11.027344, ">
			25
	</text>
	<path fill="none" stroke="black" stroke-width="1" stroke-miterlimit="4" d="M209.876 270.039L209.876 274.039"/>
	<text transform="translate(209.876 276.039)" font-size="12" font-family="Segoe UI" x="-6.46875, 0, " y="11.027344, ">
			30
	</text>
	<path fill="none" stroke="black" stroke-width="1" stroke-miterlimit="4" d="M235.142 270.039L235.142 274.039"/>
	<text transform="translate(235.142 276.039)" font-size="12" font-family="Segoe UI" x="-6.46875, 0, " y="11.027344, ">
			35
	</text>
	<path fill="none" stroke="black" stroke-width="1" stroke-miterlimit="4" d="M260.409 270.039L260.409 274.039"/>
	<text transform="translate(260.409 276.039)" font-size="12" font-family="Segoe UI" x="-6.46875, 0, " y="11.027344, ">
			40
	</text>
	<path fill="none" stroke="black" stroke-width="1" stroke-miterlimit="4" d="M285.675 270.039L285.675 274.039"/>
	<text transform="translate(285.675 276.039)" font-size="12" font-family="Segoe UI" x="-6.46875, 0, " y="11.027344, ">
			45
	</text>
	<path fill="none" stroke="black" stroke-width="1" stroke-miterlimit="4" d="M310.942 270.039L310.942 274.039"/>
	<text transform="translate(310.942 276.039)" font-size="12" font-family="Segoe UI" x="-6.46875, 0, " y="11.027344, ">
			50
	</text>
	<path fill="none" stroke="black" stroke-width="1" stroke-miterlimit="4" d="M336.208 270.039L336.208 274.039"/>
	<text transform="translate(336.208 276.039)" font-size="12" font-family="Segoe UI" x="-6.46875, 0, " y="11.027344, ">
			55
	</text>
	<path fill="none" stroke="black" stroke-width="1" stroke-miterlimit="4" d="M361.475 270.039L361.475 274.039"/>
	<text transform="translate(361.475 276.039)" font-size="12" font-family="Segoe UI" x="-6.46875, 0, " y="11.027344, ">
			60
	</text>
	<path fill="none" stroke="black" stroke-width="1" stroke-miterlimit="4" d="M386.741 270.039L386.741 274.039"/>
	<text transform="translate(386.741 276.039)" font-size="12" font-family="Segoe UI" x="-6.46875, 0, " y="11.027344, ">
			65
	</text>
	<path fill="none" stroke="black" stroke-width="1" stroke-miterlimit="4" d="M412.008 270.039L412.008 274.039"/>
	<text transform="translate(412.008 276.039)" font-size="12" font-family="Segoe UI" x="-6.46875, 0, " y="11.027344, ">
			70
	</text>
	<path fill="none" stroke="black" stroke-width="1" stroke-miterlimit="4" d="M43.1172 270.039L43.1172 272.039"/>
	<path fill="none" stroke="black" stroke-width="1" stroke-miterlimit="4" d="M48.1705 270.039L48.1705 272.039"/>
	<path fill="none" stroke="black" stroke-width="1" stroke-miterlimit="4" d="M53.2238 270.039L53.2238 272.039"/>
	<path fill="none" stroke="black" stroke-width="1" stroke-miterlimit="4" d="M63.3304 270.039L63.3304 272.039"/>
	<path fill="none" stroke="black" stroke-width="1" stroke-miterlimit="4" d="M68.3837 270.039L68.3837 272.039"/>
	<path fill="none" stroke="black" stroke-width="1" stroke-miterlimit="4" d="M73.437 270.039L73.437 272.039"/>
	<path fill="none" stroke="black" stroke-width="1" stroke-miterlimit="4" d="M78.4902 270.039L78.4902 272.039"/>
	<path fill="none" stroke="black" stroke-width="1" stroke-miterlimit="4" d="M88.5968 270.039L88.5968 272.039"/>
	<path fill="none" stroke="black" stroke-width="1" stroke-miterlimit="4" d="M93.6501 270.039L93.6501 272.039"/>
	<path fill="none" stroke="black" stroke-width="1" stroke-miterlimit="4" d="M98.7034 270.039L98.7034 272.039"/>
	<path fill="none" stroke="black" stroke-width="1" stroke-miterlimit="4" d="M103.757 270.039L103.757 272.039"/>
	<path fill="none" stroke="black" stroke-width="1" stroke-miterlimit="4" d="M113.863 270.039L113.863 272.039"/>
	<path fill="none" stroke="black" stroke-width="1" stroke-miterlimit="4" d="M118.917 270.039L118.917 272.039"/>
	<path fill="none" stroke="black" stroke-width="1" stroke-miterlimit="4" d="M123.97 270.039L123.97 272.039"/>
	<path fill="none" stroke="black" stroke-width="1" stroke-miterlimit="4" d="M129.023 270.039L129.023 272.039"/>
	<path fill="none" stroke="black" stroke-width="1" stroke-miterlimit="4" d="M139.13 270.039L139.13 272.039"/>
	<path fill="none" stroke="black" stroke-width="1" stroke-miterlimit="4" d="M144.183 270.039L144.183 272.039"/>
	<path fill="none" stroke="black" stroke-width="1" stroke-miterlimit="4" d="M149.236 270.039L149.236 272.039"/>
	<path fill="none" stroke="black" stroke-width="1" stroke-miterlimit="4" d="M154.29 270.039L154.29 272.039"/>
	<path fill="none" stroke="black" stroke-width="1" stroke-miterlimit="4" d="M164.396 270.039L164.396 272.039"/>
	<path fill="none" stroke="black" stroke-width="1" stroke-miterlimit="4" d="M169.45 270.039L169.45 272.039"/>
	<path fill="none" stroke="black" stroke-width="1" stroke-miterlimit="4" d="M174.503 270.039L174.503 272.039"/>
	<path fill="none" stroke="black" stroke-width="1" stroke-miterlimit="4" d="M179.556 270.039L179.556 272.039"/>
	<path fill="none" stroke="black" stroke-width="1" stroke-miterlimit="4" d="M189.663 270.039L189.663 272.039"/>
	<path fill="none" stroke="black" stroke-width="1" stroke-miterlimit="4" d="M194.716 270.039L194.716 272.039"/>
	<path fill="none" stroke="black" stroke-width="1" stroke-miterlimit="4" d="M199.769 270.039L199.769 272.039"/>
	<path fill="none" stroke="black" stroke-width="1" stroke-miterlimit="4" d="M204.823 270.039L204.823 272.039"/>
	<path fill="none" stroke="black" stroke-width="1" stroke-miterlimit="4" d="M214.929 270.039L214.929 272.039"/>
	<path fill="none" stroke="black" stroke-width="1" stroke-miterlimit="4" d="M219.982 270.039L219.982 272.039"/>
	<path fill="none" stroke="black" stroke-width="1" stroke-miterlimit="4" d="M225.036 270.039L225.036 272.039"/>
	<path fill="none" stroke="black" stroke-width="1" stroke-miterlimit="4" d="M230.089 270.039L230.089 272.039"/>
	<path fill="none" stroke="black" stroke-width="1" stroke-miterlimit="4" d="M240.196 270.039L240.196 272.039"/>
	<path fill="none" stroke="black" stroke-width="1" stroke-miterlimit="4" d="M245.249 270.039L245.249 272.039"/>
	<path fill="none" stroke="black" stroke-width="1" stroke-miterlimit="4" d="M250.302 270.039L250.302 272.039"/>
	<path fill="none" stroke="black" stroke-width="1" stroke-miterlimit="4" d="M255.355 270.039L255.355 272.039"/>
	<path fill="none" stroke="black" stroke-width="1" stroke-miterlimit="4" d="M265.462 270.039L265.462 272.039"/>
	<path fill="none" stroke="black" stroke-width="1" stroke-miterlimit="4" d="M270.515 270.039L270.515 272.039"/>
	<path fill="none" stroke="black" stroke-width="1" stroke-miterlimit="4" d="M275.569 270.039L275.569 272.039"/>
	<path fill="none" stroke="black" stroke-width="1" stroke-miterlimit="4" d="M280.622 270.039L280.622 272.039"/>
	<path fill="none" stroke="black" stroke-width="1" stroke-miterlimit="4" d="M290.729 270.039L290.729 272.039"/>
	<path fill="none" stroke="black" stroke-width="1" stroke-miterlimit="4" d="M295.782 270.039L295.782 272.039"/>
	<path fill="none" stroke="black" stroke-width="1" stroke-miterlimit="4" d="M300.835 270.039L300.835 272.039"/>
	<path fill="none" stroke="black" stroke-width="1" stroke-miterlimit="4" d="M305.888 270.039L305.888 272.039"/>
	<path fill="none" stroke="black" stroke-width="1" stroke-miterlimit="4" d="M315.995 270.039L315.995 272.039"/>
	<path fill="none" stroke="black" stroke-width="1" stroke-miterlimit="4" d="M321.048 270.039L321.048 272.039"/>
	<path fill="none" stroke="black" stroke-width="1" stroke-miterlimit="4" d="M326.102 270.039L326.102 272.039"/>
	<path fill="none" stroke="black" stroke-width="1" stroke-miterlimit="4" d="M331.155 270.039L331.155 272.039"/>
	<path fill="none" stroke="black" stroke-width="1" stroke-miterlimit="4" d="M341.261 270.039L341.261 272.039"/>
	<path fill="none" stroke="black" stroke-width="1" stroke-miterlimit="4" d="M346.315 270.039L346.315 272.039"/>
	<path fill="none" stroke="black" stroke-width="1" stroke-miterlimit="4" d="M351.368 270.039L351.368 272.039"/>
	<path fill="none" stroke="black" stroke-width="1" stroke-miterlimit="4" d="M356.421 270.039L356.421 272.039"/>
	<path fill="none" stroke="black" stroke-width="1" stroke-miterlimit="4" d="M366.528 270.039L366.528 272.039"/>
	<path fill="none" stroke="black" stroke-width="1" stroke-miterlimit="4" d="M371.581 270.039L371.581 272.039"/>
	<path fill="none" stroke="black" stroke-width="1" stroke-miterlimit="4" d="M376.634 270.039L376.634 272.039"/>
	<path fill="none" stroke="black" stroke-width="1" stroke-miterlimit="4" d="M381.688 270.039L381.688 272.039"/>
	<path fill="none" stroke="black" stroke-width="1" stroke-miterlimit="4" d="M391.794 270.039L391.794 272.039"/>
	<path fill="none" stroke="black" stroke-width="1" stroke-miterlimit="4" d="M396.848 270.039L396.848 272.039"/>
	<path fill="none" stroke="black" stroke-width="1" stroke-miterlimit="4" d="M401.901 270.039L401.901 272.039"/>
	<path fill="none" stroke="black" stroke-width="1" stroke-miterlimit="4" d="M406.954 270.039L406.954 272.039"/>
	<path fill="none" stroke="black" stroke-width="1" stroke-miterlimit="4" d="M417.061 270.039L417.061 272.039"/>
	<path fill="none" stroke="black" stroke-width="1" stroke-miterlimit="4" d="M422.114 270.039L422.114 272.039"/>
	<path fill="none" stroke="black" stroke-width="1" stroke-miterlimit="4" d="M427.167 270.039L427.167 272.039"/>
	<path fill="none" stroke="black" stroke-width="1" stroke-miterlimit="4" d="M432.221 270.039L432.221 272.039"/>
	<path fill="none" stroke="black" stroke-width="1" stroke-miterlimit="4" d="M40.3379 270.039L435 270.039"/>
	<path fill="none" stroke="black" stroke-width="1" stroke-miterlimit="4" d="M40.3379 46.3812L435 46.3812"/>
	<path fill="none" stroke="black" stroke-width="1" stroke-miterlimit="4" d="M40.3379 233.307L36.3379 233.307"/>
	<text transform="translate(31.3379 233.307)" font-size="12" font-family="Segoe UI" x="-11.267578, -6.46875, " y="3.046875, ">
			-1
	</text>
	<path fill="none" stroke="black" stroke-width="1" stroke-miterlimit="4" d="M40.3379 184.32L36.3379 184.32"/>
	<text transform="translate(31.3379 184.32)" font-size="12" font-family="Segoe UI" x="-20.337891, -15.539063, -9.0703125, -6.46875, " y="3.046875, ">
			-0.5
	</text>
	<path fill="none" stroke="black" stroke-width="1" stroke-miterlimit="4" d="M40.3379 135.334L36.3379 135.334"/>
	<text transform="translate(31.3379 135.334)" font-size="12" font-family="Segoe UI" x="-6.46875, " y="3.046875, ">
			0
	</text>
	<path fill="none" stroke="black" stroke-width="1" stroke-miterlimit="4" d="M40.3379 86.3472L36.3379 86.3472"/>
	<text transform="translate(31.3379 86.3472)" font-size="12" font-family="Segoe UI" x="-15.539063, -9.0703125, -6.46875, " y="3.046875, ">
			0.5
	</text>
	<path fill="none" stroke="black" stroke-width="1" stroke-miterlimit="4" d="M40.3379 262.699L38.3379 262.699"/>
	<path fill="none" stroke="black" stroke-width="1" stroke-miterlimit="4" d="M40.3379 252.901L38.3379 252.901"/>
	<path fill="none" stroke="black" stroke-width="1" stroke-miterlimit="4" d="M40.3379 243.104L38.3379 243.104"/>
	<path fill="none" stroke="black" stroke-width="1" stroke-miterlimit="4" d="M40.3379 223.51L38.3379 223.51"/>
	<path fill="none" stroke="black" stroke-width="1" stroke-miterlimit="4" d="M40.3379 213.712L38.3379 213.712"/>
	<path fill="none" stroke="black" stroke-width="1" stroke-miterlimit="4" d="M40.3379 203.915L38.3379 203.915"/>
	<path fill="none" stroke="black" stroke-width="1" stroke-miterlimit="4" d="M40.3379 194.118L38.3379 194.118"/>
	<path fill="none" stroke="black" stroke-width="1" stroke-miterlimit="4" d="M40.3379 174.523L38.3379 174.523"/>
	<path fill="none" stroke="black" stroke-width="1" stroke-miterlimit="4" d="M40.3379 164.726L38.3379 164.726"/>
	<path fill="none" stroke="black" stroke-width="1" stroke-miterlimit="4" d="M40.3379 154.928L38.3379 154.928"/>
	<path fill="none" stroke="black" stroke-width="1" stroke-miterlimit="4" d="M40.3379 145.131L38.3379 145.131"/>
	<path fill="none" stroke="black" stroke-width="1" stroke-miterlimit="4" d="M40.3379 125.536L38.3379 125.536"/>
	<path fill="none" stroke="black" stroke-width="1" stroke-miterlimit="4" d="M40.3379 115.739L38.3379 115.739"/>
	<path fill="none" stroke="black" stroke-width="1" stroke-miterlimit="4" d="M40.3379 105.942L38.3379 105.942"/>
	<path fill="none" stroke="black" stroke-width="1" stroke-miterlimit="4" d="M40.3379 96.1445L38.3379 96.1445"/>
	<path fill="none" stroke="black" stroke-width="1" stroke-miterlimit="4" d="M40.3379 76.5499L38.3379 76.5499"/>
	<path fill="none" stroke="black" stroke-width="1" stroke-miterlimit="4" d="M40.3379 66.7525L38.3379 66.7525"/>
	<path fill="none" stroke="black" stroke-width="1" stroke-miterlimit="4" d="M40.3379 56.9552L38.3379 56.9552"/>
	<path fill="none" stroke="black" stroke-width="1" stroke-miterlimit="4" d="M40.3379 47.1579L38.3379 47.1579"/>
	<path fill="none" stroke="black" stroke-width="1" stroke-miterlimit="4" d="M40.3379 270.039L40.3379 46.2813"/>
	<path fill="none" stroke="black" stroke-width="1" stroke-miterlimit="4" d="M435 270.039L435 46.2813"/>
	<text transform="translate(237.669 31.2813)" font-size="16" font-weight="600" font-family="Segoe UI" x="-68.292969, -56.917969, -48.308594, -38.628906, -31.589844, -24.550781, -20.136719, -13.667969, -9.2539063, 2.5429688, 11.511719, 26.824219, 38.074219, 43.980469, 53.183594, 62.386719, " y="-6.890625, ">
			Gauss - DSMA(10)
	</text>
</svg>
