<?xml version="1.0" encoding="utf-8" ?>
<svg xmlns="http://www.w3.org/2000/svg" xmlns:xlink="http://www.w3.org/1999/xlink" width="450" height="300">
	<rect fill="white" width="450" height="300"/>
	<path fill="none" stroke="#010101" stroke-width="1" stroke-miterlimit="4" stroke-opacity="0.098039217" d="M58.2771 270.039L58.2771 46.2813M83.5435 270.039L83.5435 46.2813M108.81 270.039L108.81 46.2813M134.076 270.039L134.076 46.2813M159.343 270.039L159.343 46.2813M184.609 270.039L184.609 46.2813M209.876 270.039L209.876 46.2813M235.142 270.039L235.142 46.2813M260.409 270.039L260.409 46.2813M285.675 270.039L285.675 46.2813M310.942 270.039L310.942 46.2813M336.208 270.039L336.208 46.2813M361.475 270.039L361.475 46.2813M386.741 270.039L386.741 46.2813M412.008 270.039L412.008 46.2813"/>
	<path fill="none" stroke="#010101" stroke-width="1" stroke-miterlimit="4" stroke-opacity="0.098039217" d="M40.3379 255.446L435 255.446M40.3379 206.803L435 206.803M40.3379 158.16L435 158.16M40.3379 109.517L435 109.517M40.3379 60.8741L435 60.8741"/>
	<clipPath id="cl_15d">
		<rect x="40.337891" y="46.28125" width="394.66211" height="223.75781"/>
	</clipPath>
	<g clip-path="url(#cl_15d)">
		<path fill="none" stroke="red" stroke-width="2" stroke-miterlimit="4" d="M58.2771 216.532L58.2771 216.532L63.3304 99.7886L68.3837 216.532L73.437 99.7886L78.4902 216.532L83.5435 99.7886L88.5968 158.16L93.6501 144.54L98.7034 232.098L103.757 251.555L108.81 185.4L113.863 93.9514L118.917 61.847L123.97 118.273L129.023 210.695L134.076 255.446L139.13 210.695L144.183 117.3L149.236 61.847L154.29 94.9243L159.343 186.373L164.396 251.555L169.45 231.125L174.503 143.567L179.556 69.6299L184.609 76.4399L189.663 159.133L194.716 240.853L199.769 246.69L204.823 170.807L209.876 84.2228L214.929 64.7656L219.982 131.893L225.036 222.369L230.089 254.473L235.142 197.075L240.196 104.653L245.249 60.8741L250.302 106.599L255.355 199.993L260.409 254.473L265.462 220.423L270.515 128.974L275.569 64.7656L280.622 85.1956L285.675 173.726L290.729 247.663L295.782 238.908L300.835 156.214L305.888 75.4671L310.942 70.6028L315.995 146.486L321.048 233.07L326.102 250.582L331.155 183.455L336.208 92.9785L341.261 61.847L346.315 119.246L351.368 212.64L356.421 255.446L361.475 208.749L366.528 115.354L371.581 61.847L376.634 95.8971L381.688 187.346L386.741 252.528L391.794 230.152L396.848 141.622L401.901 68.657L406.954 77.4128L412.008 161.079L417.061 241.826"/>
		<ellipse fill="red" cx="58.277077" cy="216.53177" rx="0.40212631" ry="0.40213013"/>
		<ellipse fill="red" cx="63.330368" cy="99.788559" rx="0.40212631" ry="0.4021225"/>
		<ellipse fill="red" cx="68.383659" cy="216.53177" rx="0.4021225" ry="0.40213013"/>
		<ellipse fill="red" cx="73.436951" cy="99.788559" rx="0.4021225" ry="0.4021225"/>
		<ellipse fill="red" cx="78.49025" cy="216.53177" rx="0.4021225" ry="0.40213013"/>
		<ellipse fill="red" cx="83.543533" cy="99.788559" rx="0.4021225" ry="0.4021225"/>
		<ellipse fill="red" cx="88.596832" cy="158.16016" rx="0.4021225" ry="0.40213013"/>
		<ellipse fill="red" cx="93.650124" cy="144.54012" rx="0.4021225" ry="0.40213013"/>
		<ellipse fill="red" cx="98.703415" cy="232.09752" rx="0.4021225" ry="0.40213013"/>
		<ellipse fill="red" cx="103.75671" cy="251.55472" rx="0.4021225" ry="0.40213013"/>
		<ellipse fill="red" cx="108.81" cy="185.40024" rx="0.4021225" ry="0.40213013"/>
		<ellipse fill="red" cx="113.86329" cy="93.951385" rx="0.4021225" ry="0.4021225"/>
		<ellipse fill="red" cx="118.91658" cy="61.847015" rx="0.4021225" ry="0.40212631"/>
		<ellipse fill="red" cx="123.96987" cy="118.27289" rx="0.4021225" ry="0.4021225"/>
		<ellipse fill="red" cx="129.02316" cy="210.6946" rx="0.40213013" ry="0.40213013"/>
		<ellipse fill="red" cx="134.07646" cy="255.44617" rx="0.40213013" ry="0.40213013"/>
		<ellipse fill="red" cx="139.12976" cy="210.6946" rx="0.40213013" ry="0.40213013"/>
		<ellipse fill="red" cx="144.18304" cy="117.30003" rx="0.40213013" ry="0.4021225"/>
		<ellipse fill="red" cx="149.23633" cy="61.847015" rx="0.40213013" ry="0.40212631"/>
		<ellipse fill="red" cx="154.28963" cy="94.924255" rx="0.40213013" ry="0.4021225"/>
		<ellipse fill="red" cx="159.34293" cy="186.37311" rx="0.40213013" ry="0.40213013"/>
		<ellipse fill="red" cx="164.39621" cy="251.55472" rx="0.40213013" ry="0.40213013"/>
		<ellipse fill="red" cx="169.44951" cy="231.12466" rx="0.40213013" ry="0.40213013"/>
		<ellipse fill="red" cx="174.50279" cy="143.56726" rx="0.40213013" ry="0.40213013"/>
		<ellipse fill="red" cx="179.55609" cy="69.629898" rx="0.40213013" ry="0.4021225"/>
		<ellipse fill="red" cx="184.60938" cy="76.439911" rx="0.40213013" ry="0.4021225"/>
		<ellipse fill="red" cx="189.66267" cy="159.13303" rx="0.40213013" ry="0.40213013"/>
		<ellipse fill="red" cx="194.71596" cy="240.85326" rx="0.40213013" ry="0.40213013"/>
		<ellipse fill="red" cx="199.76926" cy="246.69043" rx="0.40213013" ry="0.40213013"/>
		<ellipse fill="red" cx="204.82254" cy="170.80734" rx="0.40213013" ry="0.40213013"/>
		<ellipse fill="red" cx="209.87584" cy="84.222794" rx="0.40213013" ry="0.4021225"/>
		<ellipse fill="red" cx="214.92914" cy="64.765594" rx="0.40213013" ry="0.4021225"/>
		<ellipse fill="red" cx="219.98242" cy="131.89293" rx="0.40213013" ry="0.40213013"/>
		<ellipse fill="red" cx="225.03572" cy="222.36893" rx="0.40213013" ry="0.40213013"/>
		<ellipse fill="red" cx="230.089" cy="254.4733" rx="0.40213013" ry="0.40213013"/>
		<ellipse fill="red" cx="235.1423" cy="197.07455" rx="0.40213013" ry="0.40213013"/>
		<ellipse fill="red" cx="240.19559" cy="104.65285" rx="0.40213013" ry="0.4021225"/>
		<ellipse fill="red" cx="245.24889" cy="60.874146" rx="0.40213013" ry="0.40212631"/>
		<ellipse fill="red" cx="250.30217" cy="106.59857" rx="0.40213013" ry="0.4021225"/>
		<ellipse fill="red" cx="255.35547" cy="199.99313" rx="0.40213013" ry="0.40213013"/>
		<ellipse fill="red" cx="260.40875" cy="254.4733" rx="0.40213013" ry="0.40213013"/>
		<ellipse fill="red" cx="265.46204" cy="220.4232" rx="0.40213013" ry="0.40213013"/>
		<ellipse fill="red" cx="270.51535" cy="128.97435" rx="0.40213013" ry="0.40213013"/>
		<ellipse fill="red" cx="275.56863" cy="64.765594" rx="0.40213013" ry="0.4021225"/>
		<ellipse fill="red" cx="280.62195" cy="85.195648" rx="0.40213013" ry="0.4021225"/>
		<ellipse fill="red" cx="285.67523" cy="173.72592" rx="0.40213013" ry="0.40213013"/>
		<ellipse fill="red" cx="290.72852" cy="247.66328" rx="0.40213013" ry="0.40213013"/>
		<ellipse fill="red" cx="295.7818" cy="238.90755" rx="0.40213013" ry="0.40213013"/>
		<ellipse fill="red" cx="300.83508" cy="156.21445" rx="0.40213013" ry="0.40213013"/>
		<ellipse fill="red" cx="305.8884" cy="75.467056" rx="0.40213013" ry="0.4021225"/>
		<ellipse fill="red" cx="310.94168" cy="70.602753" rx="0.40213013" ry="0.4021225"/>
		<ellipse fill="red" cx="315.99496" cy="146.48584" rx="0.40213013" ry="0.40213013"/>
		<ellipse fill="red" cx="321.04828" cy="233.07037" rx="0.40213013" ry="0.40213013"/>
		<ellipse fill="red" cx="326.10156" cy="250.58186" rx="0.40213013" ry="0.40213013"/>
		<ellipse fill="red" cx="331.15485" cy="183.45453" rx="0.40213013" ry="0.40213013"/>
		<ellipse fill="red" cx="336.20813" cy="92.978531" rx="0.40213013" ry="0.4021225"/>
		<ellipse fill="red" cx="341.26144" cy="61.847015" rx="0.40213013" ry="0.40212631"/>
		<ellipse fill="red" cx="346.31473" cy="119.24576" rx="0.40213013" ry="0.4021225"/>
		<ellipse fill="red" cx="351.36801" cy="212.64032" rx="0.40213013" ry="0.40213013"/>
		<ellipse fill="red" cx="356.4213" cy="255.44617" rx="0.40213013" ry="0.40213013"/>
		<ellipse fill="red" cx="361.47461" cy="208.74887" rx="0.40213013" ry="0.40213013"/>
		<ellipse fill="red" cx="366.52789" cy="115.35431" rx="0.40213013" ry="0.4021225"/>
		<ellipse fill="red" cx="371.58118" cy="61.847015" rx="0.40213013" ry="0.40212631"/>
		<ellipse fill="red" cx="376.63449" cy="95.89711" rx="0.40213013" ry="0.4021225"/>
		<ellipse fill="red" cx="381.68777" cy="187.34595" rx="0.40213013" ry="0.40213013"/>
		<ellipse fill="red" cx="386.74106" cy="252.52759" rx="0.40213013" ry="0.40213013"/>
		<ellipse fill="red" cx="391.79434" cy="230.15179" rx="0.40213013" ry="0.40213013"/>
		<ellipse fill="red" cx="396.84766" cy="141.62154" rx="0.40213013" ry="0.40213013"/>
		<ellipse fill="red" cx="401.90094" cy="68.657028" rx="0.40213013" ry="0.4021225"/>
		<ellipse fill="red" cx="406.95422" cy="77.412766" rx="0.40213013" ry="0.4021225"/>
		<ellipse fill="red" cx="412.00751" cy="161.07874" rx="0.40213013" ry="0.40213013"/>
		<ellipse fill="red" cx="417.06082" cy="241.82613" rx="0.40213013" ry="0.40213013"/>
	</g>
	<clipPath id="cl_15e">
		<rect x="40.337891" y="46.28125" width="394.66211" height="223.75781"/>
	</clipPath>
	<g clip-path="url(#cl_15e)">
		<path fill="none" stroke="blue" stroke-width="4" stroke-miterlimit="4" d="M58.2771 160.673L58.2771 160.673L63.3304 154.584L68.3837 160.779L73.437 154.68L78.4902 160.865L83.5435 154.758L88.5968 156.93L93.6501 152.035L98.7034 191.53L103.757 233.811L108.81 217.474L113.863 161.441L118.917 101.123L123.97 107.504L129.023 117.823L134.076 177.173L139.13 190.302L144.183 183.001L149.236 153.581L154.29 134.309L159.343 141.492L164.396 159.044L169.45 181.426L174.503 174.768L179.556 161.704L184.609 134.816L189.663 140.408L194.716 150.452L199.769 181.473L204.823 178.593L209.876 169.156L214.929 136.293L219.982 134.984L225.036 143.723L230.089 176.557L235.142 183.097L240.196 175.252L245.249 144.385L250.302 131.76L255.355 138.583L260.409 166.13L265.462 184.774L270.515 176.728L275.569 154.847L280.622 131.05L285.675 139.053L290.729 155.806L295.782 183.967L300.835 177.615L305.888 166.731L310.942 135.004L315.995 138.079L321.048 147.578L326.102 179.72L331.155 180.811L336.208 172.028L341.261 139.508L346.315 133.088L351.368 141.043L356.421 172.084L361.475 184.317L366.528 177.42L371.581 149.719L376.634 131.25L381.688 139.248L386.741 161.669L391.794 185.124L396.848 177.077L401.901 160.15L406.954 132.134L412.008 138.688L417.061 150.07"/>
		<ellipse fill="blue" cx="58.277077" cy="160.67273" rx="0.40212631" ry="0.40213013"/>
		<ellipse fill="blue" cx="63.330368" cy="154.5843" rx="0.40212631" ry="0.40213013"/>
		<ellipse fill="blue" cx="68.383659" cy="160.77905" rx="0.4021225" ry="0.40213013"/>
		<ellipse fill="blue" cx="73.436951" cy="154.67999" rx="0.4021225" ry="0.40213013"/>
		<ellipse fill="blue" cx="78.49025" cy="160.86517" rx="0.4021225" ry="0.40213013"/>
		<ellipse fill="blue" cx="83.543533" cy="154.75751" rx="0.4021225" ry="0.40213013"/>
		<ellipse fill="blue" cx="88.596832" cy="156.92955" rx="0.4021225" ry="0.40213013"/>
		<ellipse fill="blue" cx="93.650124" cy="152.03497" rx="0.4021225" ry="0.40213013"/>
		<ellipse fill="blue" cx="98.703415" cy="191.52951" rx="0.4021225" ry="0.40213013"/>
		<ellipse fill="blue" cx="103.75671" cy="233.81114" rx="0.4021225" ry="0.40213013"/>
		<ellipse fill="blue" cx="108.81" cy="217.47418" rx="0.4021225" ry="0.40213013"/>
		<ellipse fill="blue" cx="113.86329" cy="161.44116" rx="0.4021225" ry="0.40213013"/>
		<ellipse fill="blue" cx="118.91658" cy="101.12308" rx="0.4021225" ry="0.4021225"/>
		<ellipse fill="blue" cx="123.96987" cy="107.50351" rx="0.4021225" ry="0.4021225"/>
		<ellipse fill="blue" cx="129.02316" cy="117.82263" rx="0.40213013" ry="0.4021225"/>
		<ellipse fill="blue" cx="134.07646" cy="177.17264" rx="0.40213013" ry="0.40213013"/>
		<ellipse fill="blue" cx="139.12976" cy="190.30164" rx="0.40213013" ry="0.40213013"/>
		<ellipse fill="blue" cx="144.18304" cy="183.00146" rx="0.40213013" ry="0.40213013"/>
		<ellipse fill="blue" cx="149.23633" cy="153.58096" rx="0.40213013" ry="0.40213013"/>
		<ellipse fill="blue" cx="154.28963" cy="134.30945" rx="0.40213013" ry="0.40213013"/>
		<ellipse fill="blue" cx="159.34293" cy="141.49237" rx="0.40213013" ry="0.40213013"/>
		<ellipse fill="blue" cx="164.39621" cy="159.0444" rx="0.40213013" ry="0.40213013"/>
		<ellipse fill="blue" cx="169.44951" cy="181.42648" rx="0.40213013" ry="0.40213013"/>
		<ellipse fill="blue" cx="174.50279" cy="174.76772" rx="0.40213013" ry="0.40213013"/>
		<ellipse fill="blue" cx="179.55609" cy="161.7045" rx="0.40213013" ry="0.40213013"/>
		<ellipse fill="blue" cx="184.60938" cy="134.81575" rx="0.40213013" ry="0.40213013"/>
		<ellipse fill="blue" cx="189.66267" cy="140.40758" rx="0.40213013" ry="0.40213013"/>
		<ellipse fill="blue" cx="194.71596" cy="150.45215" rx="0.40213013" ry="0.40213013"/>
		<ellipse fill="blue" cx="199.76926" cy="181.47314" rx="0.40213013" ry="0.40213013"/>
		<ellipse fill="blue" cx="204.82254" cy="178.59308" rx="0.40213013" ry="0.40213013"/>
		<ellipse fill="blue" cx="209.87584" cy="169.15605" rx="0.40213013" ry="0.40213013"/>
		<ellipse fill="blue" cx="214.92914" cy="136.29266" rx="0.40213013" ry="0.40213013"/>
		<ellipse fill="blue" cx="219.98242" cy="134.98405" rx="0.40213013" ry="0.40213013"/>
		<ellipse fill="blue" cx="225.03572" cy="143.72255" rx="0.40213013" ry="0.40213013"/>
		<ellipse fill="blue" cx="230.089" cy="176.55748" rx="0.40213013" ry="0.40213013"/>
		<ellipse fill="blue" cx="235.1423" cy="183.0968" rx="0.40213013" ry="0.40213013"/>
		<ellipse fill="blue" cx="240.19559" cy="175.25241" rx="0.40213013" ry="0.40213013"/>
		<ellipse fill="blue" cx="245.24889" cy="144.38458" rx="0.40213013" ry="0.40213013"/>
		<ellipse fill="blue" cx="250.30217" cy="131.7598" rx="0.40213013" ry="0.40213013"/>
		<ellipse fill="blue" cx="255.35547" cy="138.58313" rx="0.40213013" ry="0.40213013"/>
		<ellipse fill="blue" cx="260.40875" cy="166.13046" rx="0.40213013" ry="0.40213013"/>
		<ellipse fill="blue" cx="265.46204" cy="184.7739" rx="0.40213013" ry="0.40213013"/>
		<ellipse fill="blue" cx="270.51535" cy="176.72755" rx="0.40213013" ry="0.40213013"/>
		<ellipse fill="blue" cx="275.56863" cy="154.84686" rx="0.40213013" ry="0.40213013"/>
		<ellipse fill="blue" cx="280.62195" cy="131.04976" rx="0.40213013" ry="0.40213013"/>
		<ellipse fill="blue" cx="285.67523" cy="139.05289" rx="0.40213013" ry="0.40213013"/>
		<ellipse fill="blue" cx="290.72852" cy="155.8056" rx="0.40213013" ry="0.40213013"/>
		<ellipse fill="blue" cx="295.7818" cy="183.96709" rx="0.40213013" ry="0.40213013"/>
		<ellipse fill="blue" cx="300.83508" cy="177.61525" rx="0.40213013" ry="0.40213013"/>
		<ellipse fill="blue" cx="305.8884" cy="166.7309" rx="0.40213013" ry="0.40213013"/>
		<ellipse fill="blue" cx="310.94168" cy="135.00424" rx="0.40213013" ry="0.40213013"/>
		<ellipse fill="blue" cx="315.99496" cy="138.0789" rx="0.40213013" ry="0.40213013"/>
		<ellipse fill="blue" cx="321.04828" cy="147.57806" rx="0.40213013" ry="0.40213013"/>
		<ellipse fill="blue" cx="326.10156" cy="179.72" rx="0.40213013" ry="0.40213013"/>
		<ellipse fill="blue" cx="331.15485" cy="180.81139" rx="0.40213013" ry="0.40213013"/>
		<ellipse fill="blue" cx="336.20813" cy="172.02811" rx="0.40213013" ry="0.40213013"/>
		<ellipse fill="blue" cx="341.26144" cy="139.50813" rx="0.40213013" ry="0.40213013"/>
		<ellipse fill="blue" cx="346.31473" cy="133.08803" rx="0.40213013" ry="0.40213013"/>
		<ellipse fill="blue" cx="351.36801" cy="141.04326" rx="0.40213013" ry="0.40213013"/>
		<ellipse fill="blue" cx="356.4213" cy="172.08371" rx="0.40213013" ry="0.40213013"/>
		<ellipse fill="blue" cx="361.47461" cy="184.31659" rx="0.40213013" ry="0.40213013"/>
		<ellipse fill="blue" cx="366.52789" cy="177.42036" rx="0.40213013" ry="0.40213013"/>
		<ellipse fill="blue" cx="371.58118" cy="149.71869" rx="0.40213013" ry="0.40213013"/>
		<ellipse fill="blue" cx="376.63449" cy="131.25034" rx="0.40213013" ry="0.40213013"/>
		<ellipse fill="blue" cx="381.68777" cy="139.24838" rx="0.40213013" ry="0.40213013"/>
		<ellipse fill="blue" cx="386.74106" cy="161.66904" rx="0.40213013" ry="0.40213013"/>
		<ellipse fill="blue" cx="391.79434" cy="185.12352" rx="0.40213013" ry="0.40213013"/>
		<ellipse fill="blue" cx="396.84766" cy="177.07739" rx="0.40213013" ry="0.40213013"/>
		<ellipse fill="blue" cx="401.90094" cy="160.15042" rx="0.40213013" ry="0.40213013"/>
		<ellipse fill="blue" cx="406.95422" cy="132.13382" rx="0.40213013" ry="0.40213013"/>
		<ellipse fill="blue" cx="412.00751" cy="138.68817" rx="0.40213013" ry="0.40213013"/>
		<ellipse fill="blue" cx="417.06082" cy="150.07048" rx="0.40213013" ry="0.40213013"/>
	</g>
	<path fill="none" stroke="black" stroke-width="1" stroke-miterlimit="4" d="M58.2771 270.039L58.2771 274.039"/>
	<text transform="translate(58.2771 276.039)" font-size="12" font-family="Segoe UI" x="-3.234375, " y="11.027344, ">
			0
	</text>
	<path fill="none" stroke="black" stroke-width="1" stroke-miterlimit="4" d="M83.5435 270.039L83.5435 274.039"/>
	<text transform="translate(83.5435 276.039)" font-size="12" font-family="Segoe UI" x="-3.234375, " y="11.027344, ">
			5
	</text>
	<path fill="none" stroke="black" stroke-width="1" stroke-miterlimit="4" d="M108.81 270.039L108.81 274.039"/>
	<text transform="translate(108.81 276.039)" font-size="12" font-family="Segoe UI" x="-6.46875, 0, " y="11.027344, ">
			10
	</text>
	<path fill="none" stroke="black" stroke-width="1" stroke-miterlimit="4" d="M134.076 270.039L134.076 274.039"/>
	<text transform="translate(134.076 276.039)" font-size="12" font-family="Segoe UI" x="-6.46875, 0, " y="11.027344, ">
			15
	</text>
	<path fill="none" stroke="black" stroke-width="1" stroke-miterlimit="4" d="M159.343 270.039L159.343 274.039"/>
	<text transform="translate(159.343 276.039)" font-size="12" font-family="Segoe UI" x="-6.46875, 0, " y="11.027344, ">
			20
	</text>
	<path fill="none" stroke="black" stroke-width="1" stroke-miterlimit="4" d="M184.609 270.039L184.609 274.039"/>
	<text transform="translate(184.609 276.039)" font-size="12" font-family="Segoe UI" x="-6.46875, 0, " y="11.027344, ">
			25
	</text>
	<path fill="none" stroke="black" stroke-width="1" stroke-miterlimit="4" d="M209.876 270.039L209.876 274.039"/>
	<text transform="translate(209.876 276.039)" font-size="12" font-family="Segoe UI" x="-6.46875, 0, " y="11.027344, ">
			30
	</text>
	<path fill="none" stroke="black" stroke-width="1" stroke-miterlimit="4" d="M235.142 270.039L235.142 274.039"/>
	<text transform="translate(235.142 276.039)" font-size="12" font-family="Segoe UI" x="-6.46875, 0, " y="11.027344, ">
			35
	</text>
	<path fill="none" stroke="black" stroke-width="1" stroke-miterlimit="4" d="M260.409 270.039L260.409 274.039"/>
	<text transform="translate(260.409 276.039)" font-size="12" font-family="Segoe UI" x="-6.46875, 0, " y="11.027344, ">
			40
	</text>
	<path fill="none" stroke="black" stroke-width="1" stroke-miterlimit="4" d="M285.675 270.039L285.675 274.039"/>
	<text transform="translate(285.675 276.039)" font-size="12" font-family="Segoe UI" x="-6.46875, 0, " y="11.027344, ">
			45
	</text>
	<path fill="none" stroke="black" stroke-width="1" stroke-miterlimit="4" d="M310.942 270.039L310.942 274.039"/>
	<text transform="translate(310.942 276.039)" font-size="12" font-family="Segoe UI" x="-6.46875, 0, " y="11.027344, ">
			50
	</text>
	<path fill="none" stroke="black" stroke-width="1" stroke-miterlimit="4" d="M336.208 270.039L336.208 274.039"/>
	<text transform="translate(336.208 276.039)" font-size="12" font-family="Segoe UI" x="-6.46875, 0, " y="11.027344, ">
			55
	</text>
	<path fill="none" stroke="black" stroke-width="1" stroke-miterlimit="4" d="M361.475 270.039L361.475 274.039"/>
	<text transform="translate(361.475 276.039)" font-size="12" font-family="Segoe UI" x="-6.46875, 0, " y="11.027344, ">
			60
	</text>
	<path fill="none" stroke="black" stroke-width="1" stroke-miterlimit="4" d="M386.741 270.039L386.741 274.039"/>
	<text transform="translate(386.741 276.039)" font-size="12" font-family="Segoe UI" x="-6.46875, 0, " y="11.027344, ">
			65
	</text>
	<path fill="none" stroke="black" stroke-width="1" stroke-miterlimit="4" d="M412.008 270.039L412.008 274.039"/>
	<text transform="translate(412.008 276.039)" font-size="12" font-family="Segoe UI" x="-6.46875, 0, " y="11.027344, ">
			70
	</text>
	<path fill="none" stroke="black" stroke-width="1" stroke-miterlimit="4" d="M43.1172 270.039L43.1172 272.039"/>
	<path fill="none" stroke="black" stroke-width="1" stroke-miterlimit="4" d="M48.1705 270.039L48.1705 272.039"/>
	<path fill="none" stroke="black" stroke-width="1" stroke-miterlimit="4" d="M53.2238 270.039L53.2238 272.039"/>
	<path fill="none" stroke="black" stroke-width="1" stroke-miterlimit="4" d="M63.3304 270.039L63.3304 272.039"/>
	<path fill="none" stroke="black" stroke-width="1" stroke-miterlimit="4" d="M68.3837 270.039L68.3837 272.039"/>
	<path fill="none" stroke="black" stroke-width="1" stroke-miterlimit="4" d="M73.437 270.039L73.437 272.039"/>
	<path fill="none" stroke="black" stroke-width="1" stroke-miterlimit="4" d="M78.4902 270.039L78.4902 272.039"/>
	<path fill="none" stroke="black" stroke-width="1" stroke-miterlimit="4" d="M88.5968 270.039L88.5968 272.039"/>
	<path fill="none" stroke="black" stroke-width="1" stroke-miterlimit="4" d="M93.6501 270.039L93.6501 272.039"/>
	<path fill="none" stroke="black" stroke-width="1" stroke-miterlimit="4" d="M98.7034 270.039L98.7034 272.039"/>
	<path fill="none" stroke="black" stroke-width="1" stroke-miterlimit="4" d="M103.757 270.039L103.757 272.039"/>
	<path fill="none" stroke="black" stroke-width="1" stroke-miterlimit="4" d="M113.863 270.039L113.863 272.039"/>
	<path fill="none" stroke="black" stroke-width="1" stroke-miterlimit="4" d="M118.917 270.039L118.917 272.039"/>
	<path fill="none" stroke="black" stroke-width="1" stroke-miterlimit="4" d="M123.97 270.039L123.97 272.039"/>
	<path fill="none" stroke="black" stroke-width="1" stroke-miterlimit="4" d="M129.023 270.039L129.023 272.039"/>
	<path fill="none" stroke="black" stroke-width="1" stroke-miterlimit="4" d="M139.13 270.039L139.13 272.039"/>
	<path fill="none" stroke="black" stroke-width="1" stroke-miterlimit="4" d="M144.183 270.039L144.183 272.039"/>
	<path fill="none" stroke="black" stroke-width="1" stroke-miterlimit="4" d="M149.236 270.039L149.236 272.039"/>
	<path fill="none" stroke="black" stroke-width="1" stroke-miterlimit="4" d="M154.29 270.039L154.29 272.039"/>
	<path fill="none" stroke="black" stroke-width="1" stroke-miterlimit="4" d="M164.396 270.039L164.396 272.039"/>
	<path fill="none" stroke="black" stroke-width="1" stroke-miterlimit="4" d="M169.45 270.039L169.45 272.039"/>
	<path fill="none" stroke="black" stroke-width="1" stroke-miterlimit="4" d="M174.503 270.039L174.503 272.039"/>
	<path fill="none" stroke="black" stroke-width="1" stroke-miterlimit="4" d="M179.556 270.039L179.556 272.039"/>
	<path fill="none" stroke="black" stroke-width="1" stroke-miterlimit="4" d="M189.663 270.039L189.663 272.039"/>
	<path fill="none" stroke="black" stroke-width="1" stroke-miterlimit="4" d="M194.716 270.039L194.716 272.039"/>
	<path fill="none" stroke="black" stroke-width="1" stroke-miterlimit="4" d="M199.769 270.039L199.769 272.039"/>
	<path fill="none" stroke="black" stroke-width="1" stroke-miterlimit="4" d="M204.823 270.039L204.823 272.039"/>
	<path fill="none" stroke="black" stroke-width="1" stroke-miterlimit="4" d="M214.929 270.039L214.929 272.039"/>
	<path fill="none" stroke="black" stroke-width="1" stroke-miterlimit="4" d="M219.982 270.039L219.982 272.039"/>
	<path fill="none" stroke="black" stroke-width="1" stroke-miterlimit="4" d="M225.036 270.039L225.036 272.039"/>
	<path fill="none" stroke="black" stroke-width="1" stroke-miterlimit="4" d="M230.089 270.039L230.089 272.039"/>
	<path fill="none" stroke="black" stroke-width="1" stroke-miterlimit="4" d="M240.196 270.039L240.196 272.039"/>
	<path fill="none" stroke="black" stroke-width="1" stroke-miterlimit="4" d="M245.249 270.039L245.249 272.039"/>
	<path fill="none" stroke="black" stroke-width="1" stroke-miterlimit="4" d="M250.302 270.039L250.302 272.039"/>
	<path fill="none" stroke="black" stroke-width="1" stroke-miterlimit="4" d="M255.355 270.039L255.355 272.039"/>
	<path fill="none" stroke="black" stroke-width="1" stroke-miterlimit="4" d="M265.462 270.039L265.462 272.039"/>
	<path fill="none" stroke="black" stroke-width="1" stroke-miterlimit="4" d="M270.515 270.039L270.515 272.039"/>
	<path fill="none" stroke="black" stroke-width="1" stroke-miterlimit="4" d="M275.569 270.039L275.569 272.039"/>
	<path fill="none" stroke="black" stroke-width="1" stroke-miterlimit="4" d="M280.622 270.039L280.622 272.039"/>
	<path fill="none" stroke="black" stroke-width="1" stroke-miterlimit="4" d="M290.729 270.039L290.729 272.039"/>
	<path fill="none" stroke="black" stroke-width="1" stroke-miterlimit="4" d="M295.782 270.039L295.782 272.039"/>
	<path fill="none" stroke="black" stroke-width="1" stroke-miterlimit="4" d="M300.835 270.039L300.835 272.039"/>
	<path fill="none" stroke="black" stroke-width="1" stroke-miterlimit="4" d="M305.888 270.039L305.888 272.039"/>
	<path fill="none" stroke="black" stroke-width="1" stroke-miterlimit="4" d="M315.995 270.039L315.995 272.039"/>
	<path fill="none" stroke="black" stroke-width="1" stroke-miterlimit="4" d="M321.048 270.039L321.048 272.039"/>
	<path fill="none" stroke="black" stroke-width="1" stroke-miterlimit="4" d="M326.102 270.039L326.102 272.039"/>
	<path fill="none" stroke="black" stroke-width="1" stroke-miterlimit="4" d="M331.155 270.039L331.155 272.039"/>
	<path fill="none" stroke="black" stroke-width="1" stroke-miterlimit="4" d="M341.261 270.039L341.261 272.039"/>
	<path fill="none" stroke="black" stroke-width="1" stroke-miterlimit="4" d="M346.315 270.039L346.315 272.039"/>
	<path fill="none" stroke="black" stroke-width="1" stroke-miterlimit="4" d="M351.368 270.039L351.368 272.039"/>
	<path fill="none" stroke="black" stroke-width="1" stroke-miterlimit="4" d="M356.421 270.039L356.421 272.039"/>
	<path fill="none" stroke="black" stroke-width="1" stroke-miterlimit="4" d="M366.528 270.039L366.528 272.039"/>
	<path fill="none" stroke="black" stroke-width="1" stroke-miterlimit="4" d="M371.581 270.039L371.581 272.039"/>
	<path fill="none" stroke="black" stroke-width="1" stroke-miterlimit="4" d="M376.634 270.039L376.634 272.039"/>
	<path fill="none" stroke="black" stroke-width="1" stroke-miterlimit="4" d="M381.688 270.039L381.688 272.039"/>
	<path fill="none" stroke="black" stroke-width="1" stroke-miterlimit="4" d="M391.794 270.039L391.794 272.039"/>
	<path fill="none" stroke="black" stroke-width="1" stroke-miterlimit="4" d="M396.848 270.039L396.848 272.039"/>
	<path fill="none" stroke="black" stroke-width="1" stroke-miterlimit="4" d="M401.901 270.039L401.901 272.039"/>
	<path fill="none" stroke="black" stroke-width="1" stroke-miterlimit="4" d="M406.954 270.039L406.954 272.039"/>
	<path fill="none" stroke="black" stroke-width="1" stroke-miterlimit="4" d="M417.061 270.039L417.061 272.039"/>
	<path fill="none" stroke="black" stroke-width="1" stroke-miterlimit="4" d="M422.114 270.039L422.114 272.039"/>
	<path fill="none" stroke="black" stroke-width="1" stroke-miterlimit="4" d="M427.167 270.039L427.167 272.039"/>
	<path fill="none" stroke="black" stroke-width="1" stroke-miterlimit="4" d="M432.221 270.039L432.221 272.039"/>
	<path fill="none" stroke="black" stroke-width="1" stroke-miterlimit="4" d="M40.3379 270.039L435 270.039"/>
	<path fill="none" stroke="black" stroke-width="1" stroke-miterlimit="4" d="M40.3379 46.3812L435 46.3812"/>
	<path fill="none" stroke="black" stroke-width="1" stroke-miterlimit="4" d="M40.3379 255.446L36.3379 255.446"/>
	<text transform="translate(31.3379 255.446)" font-size="12" font-family="Segoe UI" x="-11.267578, -6.46875, " y="3.046875, ">
			-1
	</text>
	<path fill="none" stroke="black" stroke-width="1" stroke-miterlimit="4" d="M40.3379 206.803L36.3379 206.803"/>
	<text transform="translate(31.3379 206.803)" font-size="12" font-family="Segoe UI" x="-20.337891, -15.539063, -9.0703125, -6.46875, " y="3.046875, ">
			-0.5
	</text>
	<path fill="none" stroke="black" stroke-width="1" stroke-miterlimit="4" d="M40.3379 158.16L36.3379 158.16"/>
	<text transform="translate(31.3379 158.16)" font-size="12" font-family="Segoe UI" x="-6.46875, " y="3.046875, ">
			0
	</text>
	<path fill="none" stroke="black" stroke-width="1" stroke-miterlimit="4" d="M40.3379 109.517L36.3379 109.517"/>
	<text transform="translate(31.3379 109.517)" font-size="12" font-family="Segoe UI" x="-15.539063, -9.0703125, -6.46875, " y="3.046875, ">
			0.5
	</text>
	<path fill="none" stroke="black" stroke-width="1" stroke-miterlimit="4" d="M40.3379 60.8741L36.3379 60.8741"/>
	<text transform="translate(31.3379 60.8741)" font-size="12" font-family="Segoe UI" x="-6.46875, " y="3.046875, ">
			1
	</text>
	<path fill="none" stroke="black" stroke-width="1" stroke-miterlimit="4" d="M40.3379 265.175L38.3379 265.175"/>
	<path fill="none" stroke="black" stroke-width="1" stroke-miterlimit="4" d="M40.3379 245.718L38.3379 245.718"/>
	<path fill="none" stroke="black" stroke-width="1" stroke-miterlimit="4" d="M40.3379 235.989L38.3379 235.989"/>
	<path fill="none" stroke="black" stroke-width="1" stroke-miterlimit="4" d="M40.3379 226.26L38.3379 226.26"/>
	<path fill="none" stroke="black" stroke-width="1" stroke-miterlimit="4" d="M40.3379 216.532L38.3379 216.532"/>
	<path fill="none" stroke="black" stroke-width="1" stroke-miterlimit="4" d="M40.3379 197.075L38.3379 197.075"/>
	<path fill="none" stroke="black" stroke-width="1" stroke-miterlimit="4" d="M40.3379 187.346L38.3379 187.346"/>
	<path fill="none" stroke="black" stroke-width="1" stroke-miterlimit="4" d="M40.3379 177.617L38.3379 177.617"/>
	<path fill="none" stroke="black" stroke-width="1" stroke-miterlimit="4" d="M40.3379 167.889L38.3379 167.889"/>
	<path fill="none" stroke="black" stroke-width="1" stroke-miterlimit="4" d="M40.3379 148.432L38.3379 148.432"/>
	<path fill="none" stroke="black" stroke-width="1" stroke-miterlimit="4" d="M40.3379 138.703L38.3379 138.703"/>
	<path fill="none" stroke="black" stroke-width="1" stroke-miterlimit="4" d="M40.3379 128.974L38.3379 128.974"/>
	<path fill="none" stroke="black" stroke-width="1" stroke-miterlimit="4" d="M40.3379 119.246L38.3379 119.246"/>
	<path fill="none" stroke="black" stroke-width="1" stroke-miterlimit="4" d="M40.3379 99.7886L38.3379 99.7886"/>
	<path fill="none" stroke="black" stroke-width="1" stroke-miterlimit="4" d="M40.3379 90.06L38.3379 90.06"/>
	<path fill="none" stroke="black" stroke-width="1" stroke-miterlimit="4" d="M40.3379 80.3313L38.3379 80.3313"/>
	<path fill="none" stroke="black" stroke-width="1" stroke-miterlimit="4" d="M40.3379 70.6028L38.3379 70.6028"/>
	<path fill="none" stroke="black" stroke-width="1" stroke-miterlimit="4" d="M40.3379 51.1456L38.3379 51.1456"/>
	<path fill="none" stroke="black" stroke-width="1" stroke-miterlimit="4" d="M40.3379 270.039L40.3379 46.2813"/>
	<path fill="none" stroke="black" stroke-width="1" stroke-miterlimit="4" d="M435 270.039L435 46.2813"/>
	<text transform="translate(237.669 31.2813)" font-size="16" font-weight="600" font-family="Segoe UI" x="-77.058594, -64.800781, -56.480469, -52.066406, -45.597656, -41.183594, -29.386719, -20.417969, -5.1054688, 6.1445313, 12.050781, 21.253906, 30.457031, 34.792969, 39.207031, 48.410156, 52.746094, 61.949219, 71.152344, " y="-6.890625, ">
			HF - DSMA(10, 0.50)
	</text>
</svg>
