<?xml version="1.0" encoding="utf-8" ?>
<svg xmlns="http://www.w3.org/2000/svg" xmlns:xlink="http://www.w3.org/1999/xlink" width="450" height="300">
	<rect fill="white" width="450" height="300"/>
	<path fill="none" stroke="#010101" stroke-width="1" stroke-miterlimit="4" stroke-opacity="0.098039217" d="M51.2131 270.039L51.2131 46.2813M76.9533 270.039L76.9533 46.2813M102.694 270.039L102.694 46.2813M128.434 270.039L128.434 46.2813M154.174 270.039L154.174 46.2813M179.914 270.039L179.914 46.2813M205.654 270.039L205.654 46.2813M231.395 270.039L231.395 46.2813M257.135 270.039L257.135 46.2813M282.875 270.039L282.875 46.2813M308.615 270.039L308.615 46.2813M334.356 270.039L334.356 46.2813M360.096 270.039L360.096 46.2813M385.836 270.039L385.836 46.2813M411.576 270.039L411.576 46.2813"/>
	<path fill="none" stroke="#010101" stroke-width="1" stroke-miterlimit="4" stroke-opacity="0.098039217" d="M32.9375 255.423L435 255.423M32.9375 226.813L435 226.813M32.9375 198.203L435 198.203M32.9375 169.593L435 169.593M32.9375 140.983L435 140.983M32.9375 112.372L435 112.372M32.9375 83.7623L435 83.7623M32.9375 55.1521L435 55.1521"/>
	<clipPath id="cl_d3">
		<rect x="32.9375" y="46.28125" width="402.0625" height="223.75781"/>
	</clipPath>
	<g clip-path="url(#cl_d3)">
		<path fill="none" stroke="red" stroke-width="2" stroke-miterlimit="4" d="M51.2131 255.423L51.2131 255.423L56.3611 255.366L61.5092 255.423L66.6572 255.366L71.8053 255.423L76.9533 255.366L82.1013 249.701L87.2494 243.979L92.3974 238.257L97.5455 232.535L102.694 226.813L107.842 221.091L112.99 215.369L118.138 209.647L123.286 203.925L128.434 198.203L133.582 192.481L138.73 186.759L143.878 181.037L149.026 175.315L154.174 169.593L159.322 163.871L164.47 158.149L169.618 152.427L174.766 146.705L179.914 140.983L185.062 135.261L190.21 129.539L195.358 123.817L200.506 118.094L205.654 112.372L210.803 106.65L215.951 100.928L221.099 95.2064L226.247 89.4843L231.395 83.7623L236.543 78.0403L241.691 72.3182L246.839 66.5962L251.987 60.8741L257.135 66.5962L262.283 72.3182L267.431 78.0403L272.579 83.7623L277.727 89.4843L282.875 95.2064L288.023 100.928L293.171 106.65L298.319 112.372L303.467 118.094L308.615 123.817L313.763 129.539L318.912 135.261L324.06 140.983L329.208 146.705L334.356 152.427L339.504 158.149L344.652 163.871L349.8 169.593L354.948 175.315L360.096 181.037L365.244 186.759L370.392 192.481L375.54 198.203L380.688 203.925L385.836 209.647L390.984 215.369L396.132 221.091L401.28 226.813L406.428 232.535L411.576 238.257L416.724 243.979"/>
		<ellipse fill="red" cx="51.213066" cy="255.42334" rx="0.40587997" ry="0.40588379"/>
		<ellipse fill="red" cx="56.361115" cy="255.36612" rx="0.40587997" ry="0.40588379"/>
		<ellipse fill="red" cx="61.509163" cy="255.42334" rx="0.40587997" ry="0.40588379"/>
		<ellipse fill="red" cx="66.657211" cy="255.36612" rx="0.40587616" ry="0.40588379"/>
		<ellipse fill="red" cx="71.805252" cy="255.42334" rx="0.40587616" ry="0.40588379"/>
		<ellipse fill="red" cx="76.953308" cy="255.36612" rx="0.40587616" ry="0.40588379"/>
		<ellipse fill="red" cx="82.101349" cy="249.70129" rx="0.40587616" ry="0.40588379"/>
		<ellipse fill="red" cx="87.249405" cy="243.97926" rx="0.40587616" ry="0.40588379"/>
		<ellipse fill="red" cx="92.397446" cy="238.25723" rx="0.40587616" ry="0.40588379"/>
		<ellipse fill="red" cx="97.545494" cy="232.53519" rx="0.40587616" ry="0.40588379"/>
		<ellipse fill="red" cx="102.69354" cy="226.81316" rx="0.40587616" ry="0.40588379"/>
		<ellipse fill="red" cx="107.84159" cy="221.09113" rx="0.40587616" ry="0.40588379"/>
		<ellipse fill="red" cx="112.98964" cy="215.36909" rx="0.40587616" ry="0.40588379"/>
		<ellipse fill="red" cx="118.13769" cy="209.64706" rx="0.40587616" ry="0.40588379"/>
		<ellipse fill="red" cx="123.28573" cy="203.92502" rx="0.40587616" ry="0.40588379"/>
		<ellipse fill="red" cx="128.43378" cy="198.20299" rx="0.40588379" ry="0.40588379"/>
		<ellipse fill="red" cx="133.58182" cy="192.48096" rx="0.40588379" ry="0.40588379"/>
		<ellipse fill="red" cx="138.72987" cy="186.75891" rx="0.40588379" ry="0.40588379"/>
		<ellipse fill="red" cx="143.87793" cy="181.03688" rx="0.40588379" ry="0.40588379"/>
		<ellipse fill="red" cx="149.02597" cy="175.31485" rx="0.40588379" ry="0.40588379"/>
		<ellipse fill="red" cx="154.17401" cy="169.5928" rx="0.40588379" ry="0.40588379"/>
		<ellipse fill="red" cx="159.32205" cy="163.87079" rx="0.40588379" ry="0.40588379"/>
		<ellipse fill="red" cx="164.47011" cy="158.14874" rx="0.40588379" ry="0.40588379"/>
		<ellipse fill="red" cx="169.61816" cy="152.42671" rx="0.40588379" ry="0.40588379"/>
		<ellipse fill="red" cx="174.7662" cy="146.70468" rx="0.40588379" ry="0.40588379"/>
		<ellipse fill="red" cx="179.91425" cy="140.98264" rx="0.40588379" ry="0.40588379"/>
		<ellipse fill="red" cx="185.0623" cy="135.2606" rx="0.40588379" ry="0.40588379"/>
		<ellipse fill="red" cx="190.21034" cy="129.53857" rx="0.40588379" ry="0.40588379"/>
		<ellipse fill="red" cx="195.3584" cy="123.81653" rx="0.40588379" ry="0.40587616"/>
		<ellipse fill="red" cx="200.50644" cy="118.0945" rx="0.40588379" ry="0.40587616"/>
		<ellipse fill="red" cx="205.6545" cy="112.37247" rx="0.40588379" ry="0.40587616"/>
		<ellipse fill="red" cx="210.80254" cy="106.65044" rx="0.40588379" ry="0.40587616"/>
		<ellipse fill="red" cx="215.95058" cy="100.92839" rx="0.40588379" ry="0.40587616"/>
		<ellipse fill="red" cx="221.09863" cy="95.20636" rx="0.40588379" ry="0.40587616"/>
		<ellipse fill="red" cx="226.24667" cy="89.484329" rx="0.40588379" ry="0.40587616"/>
		<ellipse fill="red" cx="231.39473" cy="83.762283" rx="0.40588379" ry="0.40587616"/>
		<ellipse fill="red" cx="236.54277" cy="78.040253" rx="0.40588379" ry="0.40587616"/>
		<ellipse fill="red" cx="241.69083" cy="72.318222" rx="0.40588379" ry="0.40587616"/>
		<ellipse fill="red" cx="246.83887" cy="66.596191" rx="0.40588379" ry="0.40587616"/>
		<ellipse fill="red" cx="251.98692" cy="60.874146" rx="0.40588379" ry="0.40587997"/>
		<ellipse fill="red" cx="257.13495" cy="66.596191" rx="0.40588379" ry="0.40587616"/>
		<ellipse fill="red" cx="262.28302" cy="72.318222" rx="0.40588379" ry="0.40587616"/>
		<ellipse fill="red" cx="267.43106" cy="78.040253" rx="0.40588379" ry="0.40587616"/>
		<ellipse fill="red" cx="272.5791" cy="83.762283" rx="0.40588379" ry="0.40587616"/>
		<ellipse fill="red" cx="277.72717" cy="89.484329" rx="0.40588379" ry="0.40587616"/>
		<ellipse fill="red" cx="282.87518" cy="95.20636" rx="0.40588379" ry="0.40587616"/>
		<ellipse fill="red" cx="288.02325" cy="100.92839" rx="0.40588379" ry="0.40587616"/>
		<ellipse fill="red" cx="293.1713" cy="106.65044" rx="0.40588379" ry="0.40587616"/>
		<ellipse fill="red" cx="298.31934" cy="112.37247" rx="0.40588379" ry="0.40587616"/>
		<ellipse fill="red" cx="303.46738" cy="118.0945" rx="0.40588379" ry="0.40587616"/>
		<ellipse fill="red" cx="308.61545" cy="123.81653" rx="0.40588379" ry="0.40587616"/>
		<ellipse fill="red" cx="313.76349" cy="129.53857" rx="0.40588379" ry="0.40588379"/>
		<ellipse fill="red" cx="318.91153" cy="135.2606" rx="0.40588379" ry="0.40588379"/>
		<ellipse fill="red" cx="324.05957" cy="140.98264" rx="0.40588379" ry="0.40588379"/>
		<ellipse fill="red" cx="329.20764" cy="146.70468" rx="0.40588379" ry="0.40588379"/>
		<ellipse fill="red" cx="334.35568" cy="152.42671" rx="0.40588379" ry="0.40588379"/>
		<ellipse fill="red" cx="339.50372" cy="158.14874" rx="0.40588379" ry="0.40588379"/>
		<ellipse fill="red" cx="344.65176" cy="163.87079" rx="0.40588379" ry="0.40588379"/>
		<ellipse fill="red" cx="349.7998" cy="169.5928" rx="0.40588379" ry="0.40588379"/>
		<ellipse fill="red" cx="354.94788" cy="175.31485" rx="0.40588379" ry="0.40588379"/>
		<ellipse fill="red" cx="360.09592" cy="181.03688" rx="0.40588379" ry="0.40588379"/>
		<ellipse fill="red" cx="365.24396" cy="186.75891" rx="0.40588379" ry="0.40588379"/>
		<ellipse fill="red" cx="370.392" cy="192.48096" rx="0.40588379" ry="0.40588379"/>
		<ellipse fill="red" cx="375.54004" cy="198.20299" rx="0.40588379" ry="0.40588379"/>
		<ellipse fill="red" cx="380.68811" cy="203.92502" rx="0.40588379" ry="0.40588379"/>
		<ellipse fill="red" cx="385.83615" cy="209.64706" rx="0.40588379" ry="0.40588379"/>
		<ellipse fill="red" cx="390.98419" cy="215.36909" rx="0.40588379" ry="0.40588379"/>
		<ellipse fill="red" cx="396.13223" cy="221.09113" rx="0.40588379" ry="0.40588379"/>
		<ellipse fill="red" cx="401.2803" cy="226.81316" rx="0.40588379" ry="0.40588379"/>
		<ellipse fill="red" cx="406.42834" cy="232.53519" rx="0.40588379" ry="0.40588379"/>
		<ellipse fill="red" cx="411.57639" cy="238.25723" rx="0.40588379" ry="0.40588379"/>
		<ellipse fill="red" cx="416.72443" cy="243.97926" rx="0.40588379" ry="0.40588379"/>
	</g>
	<clipPath id="cl_d4">
		<rect x="32.9375" y="46.28125" width="402.0625" height="223.75781"/>
	</clipPath>
	<g clip-path="url(#cl_d4)">
		<path fill="none" stroke="blue" stroke-width="4" stroke-miterlimit="4" d="M51.2131 255.446L51.2131 255.446L56.3611 255.436L61.5092 255.419L66.6572 255.359L71.8053 255.379L76.9533 255.373L82.1013 246.41L87.2494 242.989L92.3974 237.802L97.5455 232.476L102.694 227.198L107.842 221.976L112.99 216.718L118.138 211.401L123.286 206.053L128.434 200.698L133.582 195.314L138.73 189.857L143.878 184.386L149.026 178.898L154.174 173.388L159.322 167.858L164.47 162.312L169.618 156.749L174.766 151.17L179.914 145.576L185.062 139.97L190.21 134.351L195.358 128.721L200.506 123.082L205.654 117.436L210.803 111.782L215.951 106.121L221.099 100.454L226.247 94.781L231.395 89.103L236.543 83.4204L241.691 77.7338L246.839 72.0435L251.987 66.3499L257.135 66.436L262.283 66.4394L267.431 70.5686L272.579 78.3763L277.727 85.4187L282.875 90.9502L288.023 96.0197L293.171 101.4L298.319 107.245L303.467 113.227L308.615 118.874L313.763 124.203L318.912 129.617L324.06 135.366L329.208 141.31L334.356 147.14L339.504 152.787L344.652 158.379L349.8 164.03L354.948 169.753L360.096 175.487L365.244 181.191L370.392 186.878L375.54 192.578L380.688 198.301L385.836 204.03L390.984 209.747L396.132 215.45L401.28 221.153L406.428 226.866L411.576 232.586L416.724 238.307"/>
		<ellipse fill="blue" cx="51.213066" cy="255.44617" rx="0.40587997" ry="0.40588379"/>
		<ellipse fill="blue" cx="56.361115" cy="255.43575" rx="0.40587997" ry="0.40588379"/>
		<ellipse fill="blue" cx="61.509163" cy="255.41887" rx="0.40587997" ry="0.40588379"/>
		<ellipse fill="blue" cx="66.657211" cy="255.35921" rx="0.40587616" ry="0.40588379"/>
		<ellipse fill="blue" cx="71.805252" cy="255.37907" rx="0.40587616" ry="0.40588379"/>
		<ellipse fill="blue" cx="76.953308" cy="255.37277" rx="0.40587616" ry="0.40588379"/>
		<ellipse fill="blue" cx="82.101349" cy="246.40971" rx="0.40587616" ry="0.40588379"/>
		<ellipse fill="blue" cx="87.249405" cy="242.98911" rx="0.40587616" ry="0.40588379"/>
		<ellipse fill="blue" cx="92.397446" cy="237.80205" rx="0.40587616" ry="0.40588379"/>
		<ellipse fill="blue" cx="97.545494" cy="232.47598" rx="0.40587616" ry="0.40588379"/>
		<ellipse fill="blue" cx="102.69354" cy="227.19818" rx="0.40587616" ry="0.40588379"/>
		<ellipse fill="blue" cx="107.84159" cy="221.97595" rx="0.40587616" ry="0.40588379"/>
		<ellipse fill="blue" cx="112.98964" cy="216.71823" rx="0.40587616" ry="0.40588379"/>
		<ellipse fill="blue" cx="118.13769" cy="211.40071" rx="0.40587616" ry="0.40588379"/>
		<ellipse fill="blue" cx="123.28573" cy="206.0528" rx="0.40587616" ry="0.40588379"/>
		<ellipse fill="blue" cx="128.43378" cy="200.69844" rx="0.40588379" ry="0.40588379"/>
		<ellipse fill="blue" cx="133.58182" cy="195.31354" rx="0.40588379" ry="0.40588379"/>
		<ellipse fill="blue" cx="138.72987" cy="189.85733" rx="0.40588379" ry="0.40588379"/>
		<ellipse fill="blue" cx="143.87793" cy="184.38638" rx="0.40588379" ry="0.40588379"/>
		<ellipse fill="blue" cx="149.02597" cy="178.89841" rx="0.40588379" ry="0.40588379"/>
		<ellipse fill="blue" cx="154.17401" cy="173.388" rx="0.40588379" ry="0.40588379"/>
		<ellipse fill="blue" cx="159.32205" cy="167.85803" rx="0.40588379" ry="0.40588379"/>
		<ellipse fill="blue" cx="164.47011" cy="162.31166" rx="0.40588379" ry="0.40588379"/>
		<ellipse fill="blue" cx="169.61816" cy="156.74893" rx="0.40588379" ry="0.40588379"/>
		<ellipse fill="blue" cx="174.7662" cy="151.16995" rx="0.40588379" ry="0.40588379"/>
		<ellipse fill="blue" cx="179.91425" cy="145.57632" rx="0.40588379" ry="0.40588379"/>
		<ellipse fill="blue" cx="185.0623" cy="139.9697" rx="0.40588379" ry="0.40588379"/>
		<ellipse fill="blue" cx="190.21034" cy="134.35085" rx="0.40588379" ry="0.40588379"/>
		<ellipse fill="blue" cx="195.3584" cy="128.7211" rx="0.40588379" ry="0.40588379"/>
		<ellipse fill="blue" cx="200.50644" cy="123.08238" rx="0.40588379" ry="0.40587616"/>
		<ellipse fill="blue" cx="205.6545" cy="117.43587" rx="0.40588379" ry="0.40587616"/>
		<ellipse fill="blue" cx="210.80254" cy="111.78201" rx="0.40588379" ry="0.40587616"/>
		<ellipse fill="blue" cx="215.95058" cy="106.1212" rx="0.40588379" ry="0.40587616"/>
		<ellipse fill="blue" cx="221.09863" cy="100.45398" rx="0.40588379" ry="0.40587616"/>
		<ellipse fill="blue" cx="226.24667" cy="94.781036" rx="0.40588379" ry="0.40587616"/>
		<ellipse fill="blue" cx="231.39473" cy="89.102997" rx="0.40588379" ry="0.40587616"/>
		<ellipse fill="blue" cx="236.54277" cy="83.420425" rx="0.40588379" ry="0.40587616"/>
		<ellipse fill="blue" cx="241.69083" cy="77.73378" rx="0.40588379" ry="0.40587616"/>
		<ellipse fill="blue" cx="246.83887" cy="72.043488" rx="0.40588379" ry="0.40587616"/>
		<ellipse fill="blue" cx="251.98692" cy="66.349945" rx="0.40588379" ry="0.40587616"/>
		<ellipse fill="blue" cx="257.13495" cy="66.436005" rx="0.40588379" ry="0.40587616"/>
		<ellipse fill="blue" cx="262.28302" cy="66.439362" rx="0.40588379" ry="0.40587616"/>
		<ellipse fill="blue" cx="267.43106" cy="70.568573" rx="0.40588379" ry="0.40587616"/>
		<ellipse fill="blue" cx="272.5791" cy="78.376312" rx="0.40588379" ry="0.40587616"/>
		<ellipse fill="blue" cx="277.72717" cy="85.418716" rx="0.40588379" ry="0.40587616"/>
		<ellipse fill="blue" cx="282.87518" cy="90.950211" rx="0.40588379" ry="0.40587616"/>
		<ellipse fill="blue" cx="288.02325" cy="96.01973" rx="0.40588379" ry="0.40587616"/>
		<ellipse fill="blue" cx="293.1713" cy="101.40044" rx="0.40588379" ry="0.40587616"/>
		<ellipse fill="blue" cx="298.31934" cy="107.24464" rx="0.40588379" ry="0.40587616"/>
		<ellipse fill="blue" cx="303.46738" cy="113.22691" rx="0.40588379" ry="0.40587616"/>
		<ellipse fill="blue" cx="308.61545" cy="118.8735" rx="0.40588379" ry="0.40587616"/>
		<ellipse fill="blue" cx="313.76349" cy="124.20328" rx="0.40588379" ry="0.40587616"/>
		<ellipse fill="blue" cx="318.91153" cy="129.61674" rx="0.40588379" ry="0.40588379"/>
		<ellipse fill="blue" cx="324.05957" cy="135.36626" rx="0.40588379" ry="0.40588379"/>
		<ellipse fill="blue" cx="329.20764" cy="141.30972" rx="0.40588379" ry="0.40588379"/>
		<ellipse fill="blue" cx="334.35568" cy="147.14005" rx="0.40588379" ry="0.40588379"/>
		<ellipse fill="blue" cx="339.50372" cy="152.78734" rx="0.40588379" ry="0.40588379"/>
		<ellipse fill="blue" cx="344.65176" cy="158.37859" rx="0.40588379" ry="0.40588379"/>
		<ellipse fill="blue" cx="349.7998" cy="164.03024" rx="0.40588379" ry="0.40588379"/>
		<ellipse fill="blue" cx="354.94788" cy="169.75256" rx="0.40588379" ry="0.40588379"/>
		<ellipse fill="blue" cx="360.09592" cy="175.48662" rx="0.40588379" ry="0.40588379"/>
		<ellipse fill="blue" cx="365.24396" cy="181.19136" rx="0.40588379" ry="0.40588379"/>
		<ellipse fill="blue" cx="370.392" cy="186.87802" rx="0.40588379" ry="0.40588379"/>
		<ellipse fill="blue" cx="375.54004" cy="192.57788" rx="0.40588379" ry="0.40588379"/>
		<ellipse fill="blue" cx="380.68811" cy="198.30109" rx="0.40588379" ry="0.40588379"/>
		<ellipse fill="blue" cx="385.83615" cy="204.03027" rx="0.40588379" ry="0.40588379"/>
		<ellipse fill="blue" cx="390.98419" cy="209.7466" rx="0.40588379" ry="0.40588379"/>
		<ellipse fill="blue" cx="396.13223" cy="215.45001" rx="0.40588379" ry="0.40588379"/>
		<ellipse fill="blue" cx="401.2803" cy="221.15346" rx="0.40588379" ry="0.40588379"/>
		<ellipse fill="blue" cx="406.42834" cy="226.86609" rx="0.40588379" ry="0.40588379"/>
		<ellipse fill="blue" cx="411.57639" cy="232.58618" rx="0.40588379" ry="0.40588379"/>
		<ellipse fill="blue" cx="416.72443" cy="238.30681" rx="0.40588379" ry="0.40588379"/>
	</g>
	<path fill="none" stroke="black" stroke-width="1" stroke-miterlimit="4" d="M51.2131 270.039L51.2131 274.039"/>
	<text transform="translate(51.2131 276.039)" font-size="12" font-family="Segoe UI" x="-3.234375, " y="11.027344, ">
			0
	</text>
	<path fill="none" stroke="black" stroke-width="1" stroke-miterlimit="4" d="M76.9533 270.039L76.9533 274.039"/>
	<text transform="translate(76.9533 276.039)" font-size="12" font-family="Segoe UI" x="-3.234375, " y="11.027344, ">
			5
	</text>
	<path fill="none" stroke="black" stroke-width="1" stroke-miterlimit="4" d="M102.694 270.039L102.694 274.039"/>
	<text transform="translate(102.694 276.039)" font-size="12" font-family="Segoe UI" x="-6.46875, 0, " y="11.027344, ">
			10
	</text>
	<path fill="none" stroke="black" stroke-width="1" stroke-miterlimit="4" d="M128.434 270.039L128.434 274.039"/>
	<text transform="translate(128.434 276.039)" font-size="12" font-family="Segoe UI" x="-6.46875, 0, " y="11.027344, ">
			15
	</text>
	<path fill="none" stroke="black" stroke-width="1" stroke-miterlimit="4" d="M154.174 270.039L154.174 274.039"/>
	<text transform="translate(154.174 276.039)" font-size="12" font-family="Segoe UI" x="-6.46875, 0, " y="11.027344, ">
			20
	</text>
	<path fill="none" stroke="black" stroke-width="1" stroke-miterlimit="4" d="M179.914 270.039L179.914 274.039"/>
	<text transform="translate(179.914 276.039)" font-size="12" font-family="Segoe UI" x="-6.46875, 0, " y="11.027344, ">
			25
	</text>
	<path fill="none" stroke="black" stroke-width="1" stroke-miterlimit="4" d="M205.654 270.039L205.654 274.039"/>
	<text transform="translate(205.654 276.039)" font-size="12" font-family="Segoe UI" x="-6.46875, 0, " y="11.027344, ">
			30
	</text>
	<path fill="none" stroke="black" stroke-width="1" stroke-miterlimit="4" d="M231.395 270.039L231.395 274.039"/>
	<text transform="translate(231.395 276.039)" font-size="12" font-family="Segoe UI" x="-6.46875, 0, " y="11.027344, ">
			35
	</text>
	<path fill="none" stroke="black" stroke-width="1" stroke-miterlimit="4" d="M257.135 270.039L257.135 274.039"/>
	<text transform="translate(257.135 276.039)" font-size="12" font-family="Segoe UI" x="-6.46875, 0, " y="11.027344, ">
			40
	</text>
	<path fill="none" stroke="black" stroke-width="1" stroke-miterlimit="4" d="M282.875 270.039L282.875 274.039"/>
	<text transform="translate(282.875 276.039)" font-size="12" font-family="Segoe UI" x="-6.46875, 0, " y="11.027344, ">
			45
	</text>
	<path fill="none" stroke="black" stroke-width="1" stroke-miterlimit="4" d="M308.615 270.039L308.615 274.039"/>
	<text transform="translate(308.615 276.039)" font-size="12" font-family="Segoe UI" x="-6.46875, 0, " y="11.027344, ">
			50
	</text>
	<path fill="none" stroke="black" stroke-width="1" stroke-miterlimit="4" d="M334.356 270.039L334.356 274.039"/>
	<text transform="translate(334.356 276.039)" font-size="12" font-family="Segoe UI" x="-6.46875, 0, " y="11.027344, ">
			55
	</text>
	<path fill="none" stroke="black" stroke-width="1" stroke-miterlimit="4" d="M360.096 270.039L360.096 274.039"/>
	<text transform="translate(360.096 276.039)" font-size="12" font-family="Segoe UI" x="-6.46875, 0, " y="11.027344, ">
			60
	</text>
	<path fill="none" stroke="black" stroke-width="1" stroke-miterlimit="4" d="M385.836 270.039L385.836 274.039"/>
	<text transform="translate(385.836 276.039)" font-size="12" font-family="Segoe UI" x="-6.46875, 0, " y="11.027344, ">
			65
	</text>
	<path fill="none" stroke="black" stroke-width="1" stroke-miterlimit="4" d="M411.576 270.039L411.576 274.039"/>
	<text transform="translate(411.576 276.039)" font-size="12" font-family="Segoe UI" x="-6.46875, 0, " y="11.027344, ">
			70
	</text>
	<path fill="none" stroke="black" stroke-width="1" stroke-miterlimit="4" d="M35.7689 270.039L35.7689 272.039"/>
	<path fill="none" stroke="black" stroke-width="1" stroke-miterlimit="4" d="M40.917 270.039L40.917 272.039"/>
	<path fill="none" stroke="black" stroke-width="1" stroke-miterlimit="4" d="M46.065 270.039L46.065 272.039"/>
	<path fill="none" stroke="black" stroke-width="1" stroke-miterlimit="4" d="M56.3611 270.039L56.3611 272.039"/>
	<path fill="none" stroke="black" stroke-width="1" stroke-miterlimit="4" d="M61.5092 270.039L61.5092 272.039"/>
	<path fill="none" stroke="black" stroke-width="1" stroke-miterlimit="4" d="M66.6572 270.039L66.6572 272.039"/>
	<path fill="none" stroke="black" stroke-width="1" stroke-miterlimit="4" d="M71.8053 270.039L71.8053 272.039"/>
	<path fill="none" stroke="black" stroke-width="1" stroke-miterlimit="4" d="M82.1013 270.039L82.1013 272.039"/>
	<path fill="none" stroke="black" stroke-width="1" stroke-miterlimit="4" d="M87.2494 270.039L87.2494 272.039"/>
	<path fill="none" stroke="black" stroke-width="1" stroke-miterlimit="4" d="M92.3974 270.039L92.3974 272.039"/>
	<path fill="none" stroke="black" stroke-width="1" stroke-miterlimit="4" d="M97.5455 270.039L97.5455 272.039"/>
	<path fill="none" stroke="black" stroke-width="1" stroke-miterlimit="4" d="M107.842 270.039L107.842 272.039"/>
	<path fill="none" stroke="black" stroke-width="1" stroke-miterlimit="4" d="M112.99 270.039L112.99 272.039"/>
	<path fill="none" stroke="black" stroke-width="1" stroke-miterlimit="4" d="M118.138 270.039L118.138 272.039"/>
	<path fill="none" stroke="black" stroke-width="1" stroke-miterlimit="4" d="M123.286 270.039L123.286 272.039"/>
	<path fill="none" stroke="black" stroke-width="1" stroke-miterlimit="4" d="M133.582 270.039L133.582 272.039"/>
	<path fill="none" stroke="black" stroke-width="1" stroke-miterlimit="4" d="M138.73 270.039L138.73 272.039"/>
	<path fill="none" stroke="black" stroke-width="1" stroke-miterlimit="4" d="M143.878 270.039L143.878 272.039"/>
	<path fill="none" stroke="black" stroke-width="1" stroke-miterlimit="4" d="M149.026 270.039L149.026 272.039"/>
	<path fill="none" stroke="black" stroke-width="1" stroke-miterlimit="4" d="M159.322 270.039L159.322 272.039"/>
	<path fill="none" stroke="black" stroke-width="1" stroke-miterlimit="4" d="M164.47 270.039L164.47 272.039"/>
	<path fill="none" stroke="black" stroke-width="1" stroke-miterlimit="4" d="M169.618 270.039L169.618 272.039"/>
	<path fill="none" stroke="black" stroke-width="1" stroke-miterlimit="4" d="M174.766 270.039L174.766 272.039"/>
	<path fill="none" stroke="black" stroke-width="1" stroke-miterlimit="4" d="M185.062 270.039L185.062 272.039"/>
	<path fill="none" stroke="black" stroke-width="1" stroke-miterlimit="4" d="M190.21 270.039L190.21 272.039"/>
	<path fill="none" stroke="black" stroke-width="1" stroke-miterlimit="4" d="M195.358 270.039L195.358 272.039"/>
	<path fill="none" stroke="black" stroke-width="1" stroke-miterlimit="4" d="M200.506 270.039L200.506 272.039"/>
	<path fill="none" stroke="black" stroke-width="1" stroke-miterlimit="4" d="M210.803 270.039L210.803 272.039"/>
	<path fill="none" stroke="black" stroke-width="1" stroke-miterlimit="4" d="M215.951 270.039L215.951 272.039"/>
	<path fill="none" stroke="black" stroke-width="1" stroke-miterlimit="4" d="M221.099 270.039L221.099 272.039"/>
	<path fill="none" stroke="black" stroke-width="1" stroke-miterlimit="4" d="M226.247 270.039L226.247 272.039"/>
	<path fill="none" stroke="black" stroke-width="1" stroke-miterlimit="4" d="M236.543 270.039L236.543 272.039"/>
	<path fill="none" stroke="black" stroke-width="1" stroke-miterlimit="4" d="M241.691 270.039L241.691 272.039"/>
	<path fill="none" stroke="black" stroke-width="1" stroke-miterlimit="4" d="M246.839 270.039L246.839 272.039"/>
	<path fill="none" stroke="black" stroke-width="1" stroke-miterlimit="4" d="M251.987 270.039L251.987 272.039"/>
	<path fill="none" stroke="black" stroke-width="1" stroke-miterlimit="4" d="M262.283 270.039L262.283 272.039"/>
	<path fill="none" stroke="black" stroke-width="1" stroke-miterlimit="4" d="M267.431 270.039L267.431 272.039"/>
	<path fill="none" stroke="black" stroke-width="1" stroke-miterlimit="4" d="M272.579 270.039L272.579 272.039"/>
	<path fill="none" stroke="black" stroke-width="1" stroke-miterlimit="4" d="M277.727 270.039L277.727 272.039"/>
	<path fill="none" stroke="black" stroke-width="1" stroke-miterlimit="4" d="M288.023 270.039L288.023 272.039"/>
	<path fill="none" stroke="black" stroke-width="1" stroke-miterlimit="4" d="M293.171 270.039L293.171 272.039"/>
	<path fill="none" stroke="black" stroke-width="1" stroke-miterlimit="4" d="M298.319 270.039L298.319 272.039"/>
	<path fill="none" stroke="black" stroke-width="1" stroke-miterlimit="4" d="M303.467 270.039L303.467 272.039"/>
	<path fill="none" stroke="black" stroke-width="1" stroke-miterlimit="4" d="M313.763 270.039L313.763 272.039"/>
	<path fill="none" stroke="black" stroke-width="1" stroke-miterlimit="4" d="M318.912 270.039L318.912 272.039"/>
	<path fill="none" stroke="black" stroke-width="1" stroke-miterlimit="4" d="M324.06 270.039L324.06 272.039"/>
	<path fill="none" stroke="black" stroke-width="1" stroke-miterlimit="4" d="M329.208 270.039L329.208 272.039"/>
	<path fill="none" stroke="black" stroke-width="1" stroke-miterlimit="4" d="M339.504 270.039L339.504 272.039"/>
	<path fill="none" stroke="black" stroke-width="1" stroke-miterlimit="4" d="M344.652 270.039L344.652 272.039"/>
	<path fill="none" stroke="black" stroke-width="1" stroke-miterlimit="4" d="M349.8 270.039L349.8 272.039"/>
	<path fill="none" stroke="black" stroke-width="1" stroke-miterlimit="4" d="M354.948 270.039L354.948 272.039"/>
	<path fill="none" stroke="black" stroke-width="1" stroke-miterlimit="4" d="M365.244 270.039L365.244 272.039"/>
	<path fill="none" stroke="black" stroke-width="1" stroke-miterlimit="4" d="M370.392 270.039L370.392 272.039"/>
	<path fill="none" stroke="black" stroke-width="1" stroke-miterlimit="4" d="M375.54 270.039L375.54 272.039"/>
	<path fill="none" stroke="black" stroke-width="1" stroke-miterlimit="4" d="M380.688 270.039L380.688 272.039"/>
	<path fill="none" stroke="black" stroke-width="1" stroke-miterlimit="4" d="M390.984 270.039L390.984 272.039"/>
	<path fill="none" stroke="black" stroke-width="1" stroke-miterlimit="4" d="M396.132 270.039L396.132 272.039"/>
	<path fill="none" stroke="black" stroke-width="1" stroke-miterlimit="4" d="M401.28 270.039L401.28 272.039"/>
	<path fill="none" stroke="black" stroke-width="1" stroke-miterlimit="4" d="M406.428 270.039L406.428 272.039"/>
	<path fill="none" stroke="black" stroke-width="1" stroke-miterlimit="4" d="M416.724 270.039L416.724 272.039"/>
	<path fill="none" stroke="black" stroke-width="1" stroke-miterlimit="4" d="M421.872 270.039L421.872 272.039"/>
	<path fill="none" stroke="black" stroke-width="1" stroke-miterlimit="4" d="M427.021 270.039L427.021 272.039"/>
	<path fill="none" stroke="black" stroke-width="1" stroke-miterlimit="4" d="M432.169 270.039L432.169 272.039"/>
	<path fill="none" stroke="black" stroke-width="1" stroke-miterlimit="4" d="M32.9375 270.039L435 270.039"/>
	<path fill="none" stroke="black" stroke-width="1" stroke-miterlimit="4" d="M32.9375 46.3812L435 46.3812"/>
	<path fill="none" stroke="black" stroke-width="1" stroke-miterlimit="4" d="M32.9375 255.423L28.9375 255.423"/>
	<text transform="translate(23.9375 255.423)" font-size="12" font-family="Segoe UI" x="-6.46875, " y="3.046875, ">
			0
	</text>
	<path fill="none" stroke="black" stroke-width="1" stroke-miterlimit="4" d="M32.9375 226.813L28.9375 226.813"/>
	<text transform="translate(23.9375 226.813)" font-size="12" font-family="Segoe UI" x="-6.46875, " y="3.046875, ">
			5
	</text>
	<path fill="none" stroke="black" stroke-width="1" stroke-miterlimit="4" d="M32.9375 198.203L28.9375 198.203"/>
	<text transform="translate(23.9375 198.203)" font-size="12" font-family="Segoe UI" x="-12.9375, -6.46875, " y="3.046875, ">
			10
	</text>
	<path fill="none" stroke="black" stroke-width="1" stroke-miterlimit="4" d="M32.9375 169.593L28.9375 169.593"/>
	<text transform="translate(23.9375 169.593)" font-size="12" font-family="Segoe UI" x="-12.9375, -6.46875, " y="3.046875, ">
			15
	</text>
	<path fill="none" stroke="black" stroke-width="1" stroke-miterlimit="4" d="M32.9375 140.983L28.9375 140.983"/>
	<text transform="translate(23.9375 140.983)" font-size="12" font-family="Segoe UI" x="-12.9375, -6.46875, " y="3.046875, ">
			20
	</text>
	<path fill="none" stroke="black" stroke-width="1" stroke-miterlimit="4" d="M32.9375 112.372L28.9375 112.372"/>
	<text transform="translate(23.9375 112.372)" font-size="12" font-family="Segoe UI" x="-12.9375, -6.46875, " y="3.046875, ">
			25
	</text>
	<path fill="none" stroke="black" stroke-width="1" stroke-miterlimit="4" d="M32.9375 83.7623L28.9375 83.7623"/>
	<text transform="translate(23.9375 83.7623)" font-size="12" font-family="Segoe UI" x="-12.9375, -6.46875, " y="3.046875, ">
			30
	</text>
	<path fill="none" stroke="black" stroke-width="1" stroke-miterlimit="4" d="M32.9375 55.1521L28.9375 55.1521"/>
	<text transform="translate(23.9375 55.1521)" font-size="12" font-family="Segoe UI" x="-12.9375, -6.46875, " y="3.046875, ">
			35
	</text>
	<path fill="none" stroke="black" stroke-width="1" stroke-miterlimit="4" d="M32.9375 266.867L30.9375 266.867"/>
	<path fill="none" stroke="black" stroke-width="1" stroke-miterlimit="4" d="M32.9375 261.145L30.9375 261.145"/>
	<path fill="none" stroke="black" stroke-width="1" stroke-miterlimit="4" d="M32.9375 249.701L30.9375 249.701"/>
	<path fill="none" stroke="black" stroke-width="1" stroke-miterlimit="4" d="M32.9375 243.979L30.9375 243.979"/>
	<path fill="none" stroke="black" stroke-width="1" stroke-miterlimit="4" d="M32.9375 238.257L30.9375 238.257"/>
	<path fill="none" stroke="black" stroke-width="1" stroke-miterlimit="4" d="M32.9375 232.535L30.9375 232.535"/>
	<path fill="none" stroke="black" stroke-width="1" stroke-miterlimit="4" d="M32.9375 221.091L30.9375 221.091"/>
	<path fill="none" stroke="black" stroke-width="1" stroke-miterlimit="4" d="M32.9375 215.369L30.9375 215.369"/>
	<path fill="none" stroke="black" stroke-width="1" stroke-miterlimit="4" d="M32.9375 209.647L30.9375 209.647"/>
	<path fill="none" stroke="black" stroke-width="1" stroke-miterlimit="4" d="M32.9375 203.925L30.9375 203.925"/>
	<path fill="none" stroke="black" stroke-width="1" stroke-miterlimit="4" d="M32.9375 192.481L30.9375 192.481"/>
	<path fill="none" stroke="black" stroke-width="1" stroke-miterlimit="4" d="M32.9375 186.759L30.9375 186.759"/>
	<path fill="none" stroke="black" stroke-width="1" stroke-miterlimit="4" d="M32.9375 181.037L30.9375 181.037"/>
	<path fill="none" stroke="black" stroke-width="1" stroke-miterlimit="4" d="M32.9375 175.315L30.9375 175.315"/>
	<path fill="none" stroke="black" stroke-width="1" stroke-miterlimit="4" d="M32.9375 163.871L30.9375 163.871"/>
	<path fill="none" stroke="black" stroke-width="1" stroke-miterlimit="4" d="M32.9375 158.149L30.9375 158.149"/>
	<path fill="none" stroke="black" stroke-width="1" stroke-miterlimit="4" d="M32.9375 152.427L30.9375 152.427"/>
	<path fill="none" stroke="black" stroke-width="1" stroke-miterlimit="4" d="M32.9375 146.705L30.9375 146.705"/>
	<path fill="none" stroke="black" stroke-width="1" stroke-miterlimit="4" d="M32.9375 135.261L30.9375 135.261"/>
	<path fill="none" stroke="black" stroke-width="1" stroke-miterlimit="4" d="M32.9375 129.539L30.9375 129.539"/>
	<path fill="none" stroke="black" stroke-width="1" stroke-miterlimit="4" d="M32.9375 123.817L30.9375 123.817"/>
	<path fill="none" stroke="black" stroke-width="1" stroke-miterlimit="4" d="M32.9375 118.094L30.9375 118.094"/>
	<path fill="none" stroke="black" stroke-width="1" stroke-miterlimit="4" d="M32.9375 106.65L30.9375 106.65"/>
	<path fill="none" stroke="black" stroke-width="1" stroke-miterlimit="4" d="M32.9375 100.928L30.9375 100.928"/>
	<path fill="none" stroke="black" stroke-width="1" stroke-miterlimit="4" d="M32.9375 95.2064L30.9375 95.2064"/>
	<path fill="none" stroke="black" stroke-width="1" stroke-miterlimit="4" d="M32.9375 89.4843L30.9375 89.4843"/>
	<path fill="none" stroke="black" stroke-width="1" stroke-miterlimit="4" d="M32.9375 78.0403L30.9375 78.0403"/>
	<path fill="none" stroke="black" stroke-width="1" stroke-miterlimit="4" d="M32.9375 72.3182L30.9375 72.3182"/>
	<path fill="none" stroke="black" stroke-width="1" stroke-miterlimit="4" d="M32.9375 66.5962L30.9375 66.5962"/>
	<path fill="none" stroke="black" stroke-width="1" stroke-miterlimit="4" d="M32.9375 60.8741L30.9375 60.8741"/>
	<path fill="none" stroke="black" stroke-width="1" stroke-miterlimit="4" d="M32.9375 49.4301L30.9375 49.4301"/>
	<path fill="none" stroke="black" stroke-width="1" stroke-miterlimit="4" d="M32.9375 270.039L32.9375 46.2813"/>
	<path fill="none" stroke="black" stroke-width="1" stroke-miterlimit="4" d="M435 270.039L435 46.2813"/>
	<text transform="translate(233.969 31.2813)" font-size="16" font-weight="600" font-family="Segoe UI" x="-77.265625, -67.890625, -61.523438, -56.976563, -48.367188, -38.6875, -28.78125, -24.234375, -15.578125, -11.164063, -4.6953125, -0.28125, 11.515625, 20.484375, 35.796875, 47.046875, 52.953125, 62.15625, 71.359375, " y="-6.890625, ">
			Triangle - DSMA(10)
	</text>
</svg>
