<?xml version="1.0" encoding="utf-8" ?>
<svg xmlns="http://www.w3.org/2000/svg" xmlns:xlink="http://www.w3.org/1999/xlink" width="450" height="300">
	<rect fill="white" width="450" height="300"/>
	<path fill="none" stroke="#010101" stroke-width="1" stroke-miterlimit="4" stroke-opacity="0.098039217" d="M58.2771 270.039L58.2771 46.2813M83.5435 270.039L83.5435 46.2813M108.81 270.039L108.81 46.2813M134.076 270.039L134.076 46.2813M159.343 270.039L159.343 46.2813M184.609 270.039L184.609 46.2813M209.876 270.039L209.876 46.2813M235.142 270.039L235.142 46.2813M260.409 270.039L260.409 46.2813M285.675 270.039L285.675 46.2813M310.942 270.039L310.942 46.2813M336.208 270.039L336.208 46.2813M361.475 270.039L361.475 46.2813M386.741 270.039L386.741 46.2813M412.008 270.039L412.008 46.2813"/>
	<path fill="none" stroke="#010101" stroke-width="1" stroke-miterlimit="4" stroke-opacity="0.098039217" d="M40.3379 255.446L435 255.446M40.3379 206.803L435 206.803M40.3379 158.16L435 158.16M40.3379 109.517L435 109.517M40.3379 60.8741L435 60.8741"/>
	<clipPath id="cl_157">
		<rect x="40.337891" y="46.28125" width="394.66211" height="223.75781"/>
	</clipPath>
	<g clip-path="url(#cl_157)">
		<path fill="none" stroke="red" stroke-width="2" stroke-miterlimit="4" d="M58.2771 197.075L58.2771 197.075L63.3304 119.246L68.3837 197.075L73.437 119.246L78.4902 197.075L83.5435 158.16L88.5968 185.4L93.6501 118.273L98.7034 210.695L103.757 94.9243L108.81 231.125L113.863 76.4399L118.917 246.69L123.97 64.7656L129.023 254.473L134.076 60.8741L139.13 254.473L144.183 64.7656L149.236 247.663L154.29 75.4671L159.343 233.07L164.396 92.9785L169.45 212.64L174.503 115.354L179.556 187.346L184.609 141.622L189.663 161.079L194.716 168.862L199.769 133.839L204.823 196.102L209.876 108.544L214.929 219.45L219.982 87.1414L225.036 237.935L230.089 71.5756L235.142 250.582L240.196 62.8199L245.249 255.446L250.302 61.847L255.355 252.528L260.409 67.6842L265.462 241.826L270.515 82.2771L275.569 225.288L280.622 101.734L285.675 202.912L290.729 126.056L295.782 176.645L300.835 153.296L305.888 149.404L310.942 180.536L315.995 123.137L321.048 205.83L326.102 98.8157L331.155 227.233L336.208 79.3585L341.261 243.772L346.315 66.7113L351.368 253.5L356.421 60.8741L361.475 255.446L366.528 62.8199L371.581 249.609L376.634 72.5485L381.688 235.989L386.741 89.0871L391.794 216.532L396.848 111.463L401.901 192.21L406.954 136.757L412.008 165.943L417.061 163.997"/>
		<ellipse fill="red" cx="58.277077" cy="197.07455" rx="0.40212631" ry="0.40213013"/>
		<ellipse fill="red" cx="63.330368" cy="119.24576" rx="0.40212631" ry="0.4021225"/>
		<ellipse fill="red" cx="68.383659" cy="197.07455" rx="0.4021225" ry="0.40213013"/>
		<ellipse fill="red" cx="73.436951" cy="119.24576" rx="0.4021225" ry="0.4021225"/>
		<ellipse fill="red" cx="78.49025" cy="197.07455" rx="0.4021225" ry="0.40213013"/>
		<ellipse fill="red" cx="83.543533" cy="158.16016" rx="0.4021225" ry="0.40213013"/>
		<ellipse fill="red" cx="88.596832" cy="185.40024" rx="0.4021225" ry="0.40213013"/>
		<ellipse fill="red" cx="93.650124" cy="118.27289" rx="0.4021225" ry="0.4021225"/>
		<ellipse fill="red" cx="98.703415" cy="210.6946" rx="0.4021225" ry="0.40213013"/>
		<ellipse fill="red" cx="103.75671" cy="94.924255" rx="0.4021225" ry="0.4021225"/>
		<ellipse fill="red" cx="108.81" cy="231.12466" rx="0.4021225" ry="0.40213013"/>
		<ellipse fill="red" cx="113.86329" cy="76.439911" rx="0.4021225" ry="0.4021225"/>
		<ellipse fill="red" cx="118.91658" cy="246.69043" rx="0.4021225" ry="0.40213013"/>
		<ellipse fill="red" cx="123.96987" cy="64.765594" rx="0.4021225" ry="0.4021225"/>
		<ellipse fill="red" cx="129.02316" cy="254.4733" rx="0.40213013" ry="0.40213013"/>
		<ellipse fill="red" cx="134.07646" cy="60.874146" rx="0.40213013" ry="0.40212631"/>
		<ellipse fill="red" cx="139.12976" cy="254.4733" rx="0.40213013" ry="0.40213013"/>
		<ellipse fill="red" cx="144.18304" cy="64.765594" rx="0.40213013" ry="0.4021225"/>
		<ellipse fill="red" cx="149.23633" cy="247.66328" rx="0.40213013" ry="0.40213013"/>
		<ellipse fill="red" cx="154.28963" cy="75.467056" rx="0.40213013" ry="0.4021225"/>
		<ellipse fill="red" cx="159.34293" cy="233.07037" rx="0.40213013" ry="0.40213013"/>
		<ellipse fill="red" cx="164.39621" cy="92.978531" rx="0.40213013" ry="0.4021225"/>
		<ellipse fill="red" cx="169.44951" cy="212.64032" rx="0.40213013" ry="0.40213013"/>
		<ellipse fill="red" cx="174.50279" cy="115.35431" rx="0.40213013" ry="0.4021225"/>
		<ellipse fill="red" cx="179.55609" cy="187.34595" rx="0.40213013" ry="0.40213013"/>
		<ellipse fill="red" cx="184.60938" cy="141.62154" rx="0.40213013" ry="0.40213013"/>
		<ellipse fill="red" cx="189.66267" cy="161.07874" rx="0.40213013" ry="0.40213013"/>
		<ellipse fill="red" cx="194.71596" cy="168.86162" rx="0.40213013" ry="0.40213013"/>
		<ellipse fill="red" cx="199.76926" cy="133.83865" rx="0.40213013" ry="0.40213013"/>
		<ellipse fill="red" cx="204.82254" cy="196.1017" rx="0.40213013" ry="0.40213013"/>
		<ellipse fill="red" cx="209.87584" cy="108.5443" rx="0.40213013" ry="0.4021225"/>
		<ellipse fill="red" cx="214.92914" cy="219.45035" rx="0.40213013" ry="0.40213013"/>
		<ellipse fill="red" cx="219.98242" cy="87.141373" rx="0.40213013" ry="0.4021225"/>
		<ellipse fill="red" cx="225.03572" cy="237.93468" rx="0.40213013" ry="0.40213013"/>
		<ellipse fill="red" cx="230.089" cy="71.575607" rx="0.40213013" ry="0.4021225"/>
		<ellipse fill="red" cx="235.1423" cy="250.58186" rx="0.40213013" ry="0.40213013"/>
		<ellipse fill="red" cx="240.19559" cy="62.81987" rx="0.40213013" ry="0.40212631"/>
		<ellipse fill="red" cx="245.24889" cy="255.44617" rx="0.40213013" ry="0.40213013"/>
		<ellipse fill="red" cx="250.30217" cy="61.847015" rx="0.40213013" ry="0.40212631"/>
		<ellipse fill="red" cx="255.35547" cy="252.52759" rx="0.40213013" ry="0.40213013"/>
		<ellipse fill="red" cx="260.40875" cy="67.684174" rx="0.40213013" ry="0.4021225"/>
		<ellipse fill="red" cx="265.46204" cy="241.82613" rx="0.40213013" ry="0.40213013"/>
		<ellipse fill="red" cx="270.51535" cy="82.277069" rx="0.40213013" ry="0.4021225"/>
		<ellipse fill="red" cx="275.56863" cy="225.28751" rx="0.40213013" ry="0.40213013"/>
		<ellipse fill="red" cx="280.62195" cy="101.73427" rx="0.40213013" ry="0.4021225"/>
		<ellipse fill="red" cx="285.67523" cy="202.91171" rx="0.40213013" ry="0.40213013"/>
		<ellipse fill="red" cx="290.72852" cy="126.05577" rx="0.40213013" ry="0.4021225"/>
		<ellipse fill="red" cx="295.7818" cy="176.6445" rx="0.40213013" ry="0.40213013"/>
		<ellipse fill="red" cx="300.83508" cy="153.29585" rx="0.40213013" ry="0.40213013"/>
		<ellipse fill="red" cx="305.8884" cy="149.40442" rx="0.40213013" ry="0.40213013"/>
		<ellipse fill="red" cx="310.94168" cy="180.53593" rx="0.40213013" ry="0.40213013"/>
		<ellipse fill="red" cx="315.99496" cy="123.13719" rx="0.40213013" ry="0.4021225"/>
		<ellipse fill="red" cx="321.04828" cy="205.83029" rx="0.40213013" ry="0.40213013"/>
		<ellipse fill="red" cx="326.10156" cy="98.815689" rx="0.40213013" ry="0.4021225"/>
		<ellipse fill="red" cx="331.15485" cy="227.23322" rx="0.40213013" ry="0.40213013"/>
		<ellipse fill="red" cx="336.20813" cy="79.35849" rx="0.40213013" ry="0.4021225"/>
		<ellipse fill="red" cx="341.26144" cy="243.77184" rx="0.40213013" ry="0.40213013"/>
		<ellipse fill="red" cx="346.31473" cy="66.711304" rx="0.40213013" ry="0.4021225"/>
		<ellipse fill="red" cx="351.36801" cy="253.50044" rx="0.40213013" ry="0.40213013"/>
		<ellipse fill="red" cx="356.4213" cy="60.874146" rx="0.40213013" ry="0.40212631"/>
		<ellipse fill="red" cx="361.47461" cy="255.44617" rx="0.40213013" ry="0.40213013"/>
		<ellipse fill="red" cx="366.52789" cy="62.81987" rx="0.40213013" ry="0.40212631"/>
		<ellipse fill="red" cx="371.58118" cy="249.60901" rx="0.40213013" ry="0.40213013"/>
		<ellipse fill="red" cx="376.63449" cy="72.548477" rx="0.40213013" ry="0.4021225"/>
		<ellipse fill="red" cx="381.68777" cy="235.98895" rx="0.40213013" ry="0.40213013"/>
		<ellipse fill="red" cx="386.74106" cy="89.087097" rx="0.40213013" ry="0.4021225"/>
		<ellipse fill="red" cx="391.79434" cy="216.53177" rx="0.40213013" ry="0.40213013"/>
		<ellipse fill="red" cx="396.84766" cy="111.46288" rx="0.40213013" ry="0.4021225"/>
		<ellipse fill="red" cx="401.90094" cy="192.21027" rx="0.40213013" ry="0.40213013"/>
		<ellipse fill="red" cx="406.95422" cy="136.75723" rx="0.40213013" ry="0.40213013"/>
		<ellipse fill="red" cx="412.00751" cy="165.94304" rx="0.40213013" ry="0.40213013"/>
		<ellipse fill="red" cx="417.06082" cy="163.99731" rx="0.40213013" ry="0.40213013"/>
	</g>
	<clipPath id="cl_158">
		<rect x="40.337891" y="46.28125" width="394.66211" height="223.75781"/>
	</clipPath>
	<g clip-path="url(#cl_158)">
		<path fill="none" stroke="blue" stroke-width="4" stroke-miterlimit="4" d="M58.2771 159.835L58.2771 159.835L63.3304 155.776L68.3837 159.906L73.437 155.84L78.4902 159.964L83.5435 158.862L88.5968 173.152L93.6501 165.489L98.7034 177.986L103.757 139.245L108.81 149.958L113.863 136.102L118.917 180.284L123.97 164.357L129.023 181.546L134.076 139.593L139.13 163.213L144.183 153.368L149.236 162.798L154.29 154.065L159.343 161.965L164.396 155.067L169.45 160.824L174.503 156.277L179.556 160.302L184.609 157.592L189.663 158.732L194.716 161.171L199.769 151.309L204.823 164.944L209.876 157.557L214.929 163.746L219.982 135.049L225.036 182.303L230.089 170.41L235.142 215.386L240.196 106.784L245.249 155.356L250.302 125.935L255.355 174.397L260.409 147.224L265.462 156.684L270.515 149.243L275.569 156.848L280.622 149.814L285.675 155.124L290.729 149.967L295.782 152.635L300.835 152.791L305.888 152.384L310.942 162.625L315.995 158.676L321.048 163.392L326.102 148.942L331.155 156.771L336.208 149.03L341.261 179.701L346.315 162.808L351.368 206.702L356.421 112.228L361.475 155.566L366.528 122.083L371.581 176.968L376.634 145.08L381.688 154.171L386.741 146.833L391.794 153.803L396.848 145.669L401.901 150.928L406.954 147.305L412.008 150.036L417.061 153.863"/>
		<ellipse fill="blue" cx="58.277077" cy="159.83521" rx="0.40212631" ry="0.40213013"/>
		<ellipse fill="blue" cx="63.330368" cy="155.77625" rx="0.40212631" ry="0.40213013"/>
		<ellipse fill="blue" cx="68.383659" cy="159.90608" rx="0.4021225" ry="0.40213013"/>
		<ellipse fill="blue" cx="73.436951" cy="155.84006" rx="0.4021225" ry="0.40213013"/>
		<ellipse fill="blue" cx="78.49025" cy="159.9635" rx="0.4021225" ry="0.40213013"/>
		<ellipse fill="blue" cx="83.543533" cy="158.86203" rx="0.4021225" ry="0.40213013"/>
		<ellipse fill="blue" cx="88.596832" cy="173.15236" rx="0.4021225" ry="0.40213013"/>
		<ellipse fill="blue" cx="93.650124" cy="165.48886" rx="0.4021225" ry="0.40213013"/>
		<ellipse fill="blue" cx="98.703415" cy="177.98596" rx="0.4021225" ry="0.40213013"/>
		<ellipse fill="blue" cx="103.75671" cy="139.24463" rx="0.4021225" ry="0.40213013"/>
		<ellipse fill="blue" cx="108.81" cy="149.95818" rx="0.4021225" ry="0.40213013"/>
		<ellipse fill="blue" cx="113.86329" cy="136.10242" rx="0.4021225" ry="0.40213013"/>
		<ellipse fill="blue" cx="118.91658" cy="180.28429" rx="0.4021225" ry="0.40213013"/>
		<ellipse fill="blue" cx="123.96987" cy="164.35698" rx="0.4021225" ry="0.40213013"/>
		<ellipse fill="blue" cx="129.02316" cy="181.54562" rx="0.40213013" ry="0.40213013"/>
		<ellipse fill="blue" cx="134.07646" cy="139.59256" rx="0.40213013" ry="0.40213013"/>
		<ellipse fill="blue" cx="139.12976" cy="163.21327" rx="0.40213013" ry="0.40213013"/>
		<ellipse fill="blue" cx="144.18304" cy="153.3685" rx="0.40213013" ry="0.40213013"/>
		<ellipse fill="blue" cx="149.23633" cy="162.79797" rx="0.40213013" ry="0.40213013"/>
		<ellipse fill="blue" cx="154.28963" cy="154.06488" rx="0.40213013" ry="0.40213013"/>
		<ellipse fill="blue" cx="159.34293" cy="161.96544" rx="0.40213013" ry="0.40213013"/>
		<ellipse fill="blue" cx="164.39621" cy="155.06674" rx="0.40213013" ry="0.40213013"/>
		<ellipse fill="blue" cx="169.44951" cy="160.8241" rx="0.40213013" ry="0.40213013"/>
		<ellipse fill="blue" cx="174.50279" cy="156.27713" rx="0.40213013" ry="0.40213013"/>
		<ellipse fill="blue" cx="179.55609" cy="160.30225" rx="0.40213013" ry="0.40213013"/>
		<ellipse fill="blue" cx="184.60938" cy="157.59241" rx="0.40213013" ry="0.40213013"/>
		<ellipse fill="blue" cx="189.66267" cy="158.73186" rx="0.40213013" ry="0.40213013"/>
		<ellipse fill="blue" cx="194.71596" cy="161.17068" rx="0.40213013" ry="0.40213013"/>
		<ellipse fill="blue" cx="199.76926" cy="151.30856" rx="0.40213013" ry="0.40213013"/>
		<ellipse fill="blue" cx="204.82254" cy="164.94397" rx="0.40213013" ry="0.40213013"/>
		<ellipse fill="blue" cx="209.87584" cy="157.55685" rx="0.40213013" ry="0.40213013"/>
		<ellipse fill="blue" cx="214.92914" cy="163.74619" rx="0.40213013" ry="0.40213013"/>
		<ellipse fill="blue" cx="219.98242" cy="135.04878" rx="0.40213013" ry="0.40213013"/>
		<ellipse fill="blue" cx="225.03572" cy="182.30276" rx="0.40213013" ry="0.40213013"/>
		<ellipse fill="blue" cx="230.089" cy="170.41048" rx="0.40213013" ry="0.40213013"/>
		<ellipse fill="blue" cx="235.1423" cy="215.38606" rx="0.40213013" ry="0.40213013"/>
		<ellipse fill="blue" cx="240.19559" cy="106.78397" rx="0.40213013" ry="0.4021225"/>
		<ellipse fill="blue" cx="245.24889" cy="155.35587" rx="0.40213013" ry="0.40213013"/>
		<ellipse fill="blue" cx="250.30217" cy="125.93489" rx="0.40213013" ry="0.4021225"/>
		<ellipse fill="blue" cx="255.35547" cy="174.39682" rx="0.40213013" ry="0.40213013"/>
		<ellipse fill="blue" cx="260.40875" cy="147.22356" rx="0.40213013" ry="0.40213013"/>
		<ellipse fill="blue" cx="265.46204" cy="156.68381" rx="0.40213013" ry="0.40213013"/>
		<ellipse fill="blue" cx="270.51535" cy="149.24313" rx="0.40213013" ry="0.40213013"/>
		<ellipse fill="blue" cx="275.56863" cy="156.84758" rx="0.40213013" ry="0.40213013"/>
		<ellipse fill="blue" cx="280.62195" cy="149.8143" rx="0.40213013" ry="0.40213013"/>
		<ellipse fill="blue" cx="285.67523" cy="155.12404" rx="0.40213013" ry="0.40213013"/>
		<ellipse fill="blue" cx="290.72852" cy="149.96692" rx="0.40213013" ry="0.40213013"/>
		<ellipse fill="blue" cx="295.7818" cy="152.63467" rx="0.40213013" ry="0.40213013"/>
		<ellipse fill="blue" cx="300.83508" cy="152.79132" rx="0.40213013" ry="0.40213013"/>
		<ellipse fill="blue" cx="305.8884" cy="152.38361" rx="0.40213013" ry="0.40213013"/>
		<ellipse fill="blue" cx="310.94168" cy="162.62494" rx="0.40213013" ry="0.40213013"/>
		<ellipse fill="blue" cx="315.99496" cy="158.67618" rx="0.40213013" ry="0.40213013"/>
		<ellipse fill="blue" cx="321.04828" cy="163.39159" rx="0.40213013" ry="0.40213013"/>
		<ellipse fill="blue" cx="326.10156" cy="148.94229" rx="0.40213013" ry="0.40213013"/>
		<ellipse fill="blue" cx="331.15485" cy="156.77138" rx="0.40213013" ry="0.40213013"/>
		<ellipse fill="blue" cx="336.20813" cy="149.03009" rx="0.40213013" ry="0.40213013"/>
		<ellipse fill="blue" cx="341.26144" cy="179.70055" rx="0.40213013" ry="0.40213013"/>
		<ellipse fill="blue" cx="346.31473" cy="162.80759" rx="0.40213013" ry="0.40213013"/>
		<ellipse fill="blue" cx="351.36801" cy="206.70192" rx="0.40213013" ry="0.40213013"/>
		<ellipse fill="blue" cx="356.4213" cy="112.22816" rx="0.40213013" ry="0.4021225"/>
		<ellipse fill="blue" cx="361.47461" cy="155.56633" rx="0.40213013" ry="0.40213013"/>
		<ellipse fill="blue" cx="366.52789" cy="122.0829" rx="0.40213013" ry="0.4021225"/>
		<ellipse fill="blue" cx="371.58118" cy="176.96844" rx="0.40213013" ry="0.40213013"/>
		<ellipse fill="blue" cx="376.63449" cy="145.07996" rx="0.40213013" ry="0.40213013"/>
		<ellipse fill="blue" cx="381.68777" cy="154.17087" rx="0.40213013" ry="0.40213013"/>
		<ellipse fill="blue" cx="386.74106" cy="146.83289" rx="0.40213013" ry="0.40213013"/>
		<ellipse fill="blue" cx="391.79434" cy="153.80276" rx="0.40213013" ry="0.40213013"/>
		<ellipse fill="blue" cx="396.84766" cy="145.66934" rx="0.40213013" ry="0.40213013"/>
		<ellipse fill="blue" cx="401.90094" cy="150.92845" rx="0.40213013" ry="0.40213013"/>
		<ellipse fill="blue" cx="406.95422" cy="147.3045" rx="0.40213013" ry="0.40213013"/>
		<ellipse fill="blue" cx="412.00751" cy="150.03552" rx="0.40213013" ry="0.40213013"/>
		<ellipse fill="blue" cx="417.06082" cy="153.86252" rx="0.40213013" ry="0.40213013"/>
	</g>
	<path fill="none" stroke="black" stroke-width="1" stroke-miterlimit="4" d="M58.2771 270.039L58.2771 274.039"/>
	<text transform="translate(58.2771 276.039)" font-size="12" font-family="Segoe UI" x="-3.234375, " y="11.027344, ">
			0
	</text>
	<path fill="none" stroke="black" stroke-width="1" stroke-miterlimit="4" d="M83.5435 270.039L83.5435 274.039"/>
	<text transform="translate(83.5435 276.039)" font-size="12" font-family="Segoe UI" x="-3.234375, " y="11.027344, ">
			5
	</text>
	<path fill="none" stroke="black" stroke-width="1" stroke-miterlimit="4" d="M108.81 270.039L108.81 274.039"/>
	<text transform="translate(108.81 276.039)" font-size="12" font-family="Segoe UI" x="-6.46875, 0, " y="11.027344, ">
			10
	</text>
	<path fill="none" stroke="black" stroke-width="1" stroke-miterlimit="4" d="M134.076 270.039L134.076 274.039"/>
	<text transform="translate(134.076 276.039)" font-size="12" font-family="Segoe UI" x="-6.46875, 0, " y="11.027344, ">
			15
	</text>
	<path fill="none" stroke="black" stroke-width="1" stroke-miterlimit="4" d="M159.343 270.039L159.343 274.039"/>
	<text transform="translate(159.343 276.039)" font-size="12" font-family="Segoe UI" x="-6.46875, 0, " y="11.027344, ">
			20
	</text>
	<path fill="none" stroke="black" stroke-width="1" stroke-miterlimit="4" d="M184.609 270.039L184.609 274.039"/>
	<text transform="translate(184.609 276.039)" font-size="12" font-family="Segoe UI" x="-6.46875, 0, " y="11.027344, ">
			25
	</text>
	<path fill="none" stroke="black" stroke-width="1" stroke-miterlimit="4" d="M209.876 270.039L209.876 274.039"/>
	<text transform="translate(209.876 276.039)" font-size="12" font-family="Segoe UI" x="-6.46875, 0, " y="11.027344, ">
			30
	</text>
	<path fill="none" stroke="black" stroke-width="1" stroke-miterlimit="4" d="M235.142 270.039L235.142 274.039"/>
	<text transform="translate(235.142 276.039)" font-size="12" font-family="Segoe UI" x="-6.46875, 0, " y="11.027344, ">
			35
	</text>
	<path fill="none" stroke="black" stroke-width="1" stroke-miterlimit="4" d="M260.409 270.039L260.409 274.039"/>
	<text transform="translate(260.409 276.039)" font-size="12" font-family="Segoe UI" x="-6.46875, 0, " y="11.027344, ">
			40
	</text>
	<path fill="none" stroke="black" stroke-width="1" stroke-miterlimit="4" d="M285.675 270.039L285.675 274.039"/>
	<text transform="translate(285.675 276.039)" font-size="12" font-family="Segoe UI" x="-6.46875, 0, " y="11.027344, ">
			45
	</text>
	<path fill="none" stroke="black" stroke-width="1" stroke-miterlimit="4" d="M310.942 270.039L310.942 274.039"/>
	<text transform="translate(310.942 276.039)" font-size="12" font-family="Segoe UI" x="-6.46875, 0, " y="11.027344, ">
			50
	</text>
	<path fill="none" stroke="black" stroke-width="1" stroke-miterlimit="4" d="M336.208 270.039L336.208 274.039"/>
	<text transform="translate(336.208 276.039)" font-size="12" font-family="Segoe UI" x="-6.46875, 0, " y="11.027344, ">
			55
	</text>
	<path fill="none" stroke="black" stroke-width="1" stroke-miterlimit="4" d="M361.475 270.039L361.475 274.039"/>
	<text transform="translate(361.475 276.039)" font-size="12" font-family="Segoe UI" x="-6.46875, 0, " y="11.027344, ">
			60
	</text>
	<path fill="none" stroke="black" stroke-width="1" stroke-miterlimit="4" d="M386.741 270.039L386.741 274.039"/>
	<text transform="translate(386.741 276.039)" font-size="12" font-family="Segoe UI" x="-6.46875, 0, " y="11.027344, ">
			65
	</text>
	<path fill="none" stroke="black" stroke-width="1" stroke-miterlimit="4" d="M412.008 270.039L412.008 274.039"/>
	<text transform="translate(412.008 276.039)" font-size="12" font-family="Segoe UI" x="-6.46875, 0, " y="11.027344, ">
			70
	</text>
	<path fill="none" stroke="black" stroke-width="1" stroke-miterlimit="4" d="M43.1172 270.039L43.1172 272.039"/>
	<path fill="none" stroke="black" stroke-width="1" stroke-miterlimit="4" d="M48.1705 270.039L48.1705 272.039"/>
	<path fill="none" stroke="black" stroke-width="1" stroke-miterlimit="4" d="M53.2238 270.039L53.2238 272.039"/>
	<path fill="none" stroke="black" stroke-width="1" stroke-miterlimit="4" d="M63.3304 270.039L63.3304 272.039"/>
	<path fill="none" stroke="black" stroke-width="1" stroke-miterlimit="4" d="M68.3837 270.039L68.3837 272.039"/>
	<path fill="none" stroke="black" stroke-width="1" stroke-miterlimit="4" d="M73.437 270.039L73.437 272.039"/>
	<path fill="none" stroke="black" stroke-width="1" stroke-miterlimit="4" d="M78.4902 270.039L78.4902 272.039"/>
	<path fill="none" stroke="black" stroke-width="1" stroke-miterlimit="4" d="M88.5968 270.039L88.5968 272.039"/>
	<path fill="none" stroke="black" stroke-width="1" stroke-miterlimit="4" d="M93.6501 270.039L93.6501 272.039"/>
	<path fill="none" stroke="black" stroke-width="1" stroke-miterlimit="4" d="M98.7034 270.039L98.7034 272.039"/>
	<path fill="none" stroke="black" stroke-width="1" stroke-miterlimit="4" d="M103.757 270.039L103.757 272.039"/>
	<path fill="none" stroke="black" stroke-width="1" stroke-miterlimit="4" d="M113.863 270.039L113.863 272.039"/>
	<path fill="none" stroke="black" stroke-width="1" stroke-miterlimit="4" d="M118.917 270.039L118.917 272.039"/>
	<path fill="none" stroke="black" stroke-width="1" stroke-miterlimit="4" d="M123.97 270.039L123.97 272.039"/>
	<path fill="none" stroke="black" stroke-width="1" stroke-miterlimit="4" d="M129.023 270.039L129.023 272.039"/>
	<path fill="none" stroke="black" stroke-width="1" stroke-miterlimit="4" d="M139.13 270.039L139.13 272.039"/>
	<path fill="none" stroke="black" stroke-width="1" stroke-miterlimit="4" d="M144.183 270.039L144.183 272.039"/>
	<path fill="none" stroke="black" stroke-width="1" stroke-miterlimit="4" d="M149.236 270.039L149.236 272.039"/>
	<path fill="none" stroke="black" stroke-width="1" stroke-miterlimit="4" d="M154.29 270.039L154.29 272.039"/>
	<path fill="none" stroke="black" stroke-width="1" stroke-miterlimit="4" d="M164.396 270.039L164.396 272.039"/>
	<path fill="none" stroke="black" stroke-width="1" stroke-miterlimit="4" d="M169.45 270.039L169.45 272.039"/>
	<path fill="none" stroke="black" stroke-width="1" stroke-miterlimit="4" d="M174.503 270.039L174.503 272.039"/>
	<path fill="none" stroke="black" stroke-width="1" stroke-miterlimit="4" d="M179.556 270.039L179.556 272.039"/>
	<path fill="none" stroke="black" stroke-width="1" stroke-miterlimit="4" d="M189.663 270.039L189.663 272.039"/>
	<path fill="none" stroke="black" stroke-width="1" stroke-miterlimit="4" d="M194.716 270.039L194.716 272.039"/>
	<path fill="none" stroke="black" stroke-width="1" stroke-miterlimit="4" d="M199.769 270.039L199.769 272.039"/>
	<path fill="none" stroke="black" stroke-width="1" stroke-miterlimit="4" d="M204.823 270.039L204.823 272.039"/>
	<path fill="none" stroke="black" stroke-width="1" stroke-miterlimit="4" d="M214.929 270.039L214.929 272.039"/>
	<path fill="none" stroke="black" stroke-width="1" stroke-miterlimit="4" d="M219.982 270.039L219.982 272.039"/>
	<path fill="none" stroke="black" stroke-width="1" stroke-miterlimit="4" d="M225.036 270.039L225.036 272.039"/>
	<path fill="none" stroke="black" stroke-width="1" stroke-miterlimit="4" d="M230.089 270.039L230.089 272.039"/>
	<path fill="none" stroke="black" stroke-width="1" stroke-miterlimit="4" d="M240.196 270.039L240.196 272.039"/>
	<path fill="none" stroke="black" stroke-width="1" stroke-miterlimit="4" d="M245.249 270.039L245.249 272.039"/>
	<path fill="none" stroke="black" stroke-width="1" stroke-miterlimit="4" d="M250.302 270.039L250.302 272.039"/>
	<path fill="none" stroke="black" stroke-width="1" stroke-miterlimit="4" d="M255.355 270.039L255.355 272.039"/>
	<path fill="none" stroke="black" stroke-width="1" stroke-miterlimit="4" d="M265.462 270.039L265.462 272.039"/>
	<path fill="none" stroke="black" stroke-width="1" stroke-miterlimit="4" d="M270.515 270.039L270.515 272.039"/>
	<path fill="none" stroke="black" stroke-width="1" stroke-miterlimit="4" d="M275.569 270.039L275.569 272.039"/>
	<path fill="none" stroke="black" stroke-width="1" stroke-miterlimit="4" d="M280.622 270.039L280.622 272.039"/>
	<path fill="none" stroke="black" stroke-width="1" stroke-miterlimit="4" d="M290.729 270.039L290.729 272.039"/>
	<path fill="none" stroke="black" stroke-width="1" stroke-miterlimit="4" d="M295.782 270.039L295.782 272.039"/>
	<path fill="none" stroke="black" stroke-width="1" stroke-miterlimit="4" d="M300.835 270.039L300.835 272.039"/>
	<path fill="none" stroke="black" stroke-width="1" stroke-miterlimit="4" d="M305.888 270.039L305.888 272.039"/>
	<path fill="none" stroke="black" stroke-width="1" stroke-miterlimit="4" d="M315.995 270.039L315.995 272.039"/>
	<path fill="none" stroke="black" stroke-width="1" stroke-miterlimit="4" d="M321.048 270.039L321.048 272.039"/>
	<path fill="none" stroke="black" stroke-width="1" stroke-miterlimit="4" d="M326.102 270.039L326.102 272.039"/>
	<path fill="none" stroke="black" stroke-width="1" stroke-miterlimit="4" d="M331.155 270.039L331.155 272.039"/>
	<path fill="none" stroke="black" stroke-width="1" stroke-miterlimit="4" d="M341.261 270.039L341.261 272.039"/>
	<path fill="none" stroke="black" stroke-width="1" stroke-miterlimit="4" d="M346.315 270.039L346.315 272.039"/>
	<path fill="none" stroke="black" stroke-width="1" stroke-miterlimit="4" d="M351.368 270.039L351.368 272.039"/>
	<path fill="none" stroke="black" stroke-width="1" stroke-miterlimit="4" d="M356.421 270.039L356.421 272.039"/>
	<path fill="none" stroke="black" stroke-width="1" stroke-miterlimit="4" d="M366.528 270.039L366.528 272.039"/>
	<path fill="none" stroke="black" stroke-width="1" stroke-miterlimit="4" d="M371.581 270.039L371.581 272.039"/>
	<path fill="none" stroke="black" stroke-width="1" stroke-miterlimit="4" d="M376.634 270.039L376.634 272.039"/>
	<path fill="none" stroke="black" stroke-width="1" stroke-miterlimit="4" d="M381.688 270.039L381.688 272.039"/>
	<path fill="none" stroke="black" stroke-width="1" stroke-miterlimit="4" d="M391.794 270.039L391.794 272.039"/>
	<path fill="none" stroke="black" stroke-width="1" stroke-miterlimit="4" d="M396.848 270.039L396.848 272.039"/>
	<path fill="none" stroke="black" stroke-width="1" stroke-miterlimit="4" d="M401.901 270.039L401.901 272.039"/>
	<path fill="none" stroke="black" stroke-width="1" stroke-miterlimit="4" d="M406.954 270.039L406.954 272.039"/>
	<path fill="none" stroke="black" stroke-width="1" stroke-miterlimit="4" d="M417.061 270.039L417.061 272.039"/>
	<path fill="none" stroke="black" stroke-width="1" stroke-miterlimit="4" d="M422.114 270.039L422.114 272.039"/>
	<path fill="none" stroke="black" stroke-width="1" stroke-miterlimit="4" d="M427.167 270.039L427.167 272.039"/>
	<path fill="none" stroke="black" stroke-width="1" stroke-miterlimit="4" d="M432.221 270.039L432.221 272.039"/>
	<path fill="none" stroke="black" stroke-width="1" stroke-miterlimit="4" d="M40.3379 270.039L435 270.039"/>
	<path fill="none" stroke="black" stroke-width="1" stroke-miterlimit="4" d="M40.3379 46.3812L435 46.3812"/>
	<path fill="none" stroke="black" stroke-width="1" stroke-miterlimit="4" d="M40.3379 255.446L36.3379 255.446"/>
	<text transform="translate(31.3379 255.446)" font-size="12" font-family="Segoe UI" x="-11.267578, -6.46875, " y="3.046875, ">
			-1
	</text>
	<path fill="none" stroke="black" stroke-width="1" stroke-miterlimit="4" d="M40.3379 206.803L36.3379 206.803"/>
	<text transform="translate(31.3379 206.803)" font-size="12" font-family="Segoe UI" x="-20.337891, -15.539063, -9.0703125, -6.46875, " y="3.046875, ">
			-0.5
	</text>
	<path fill="none" stroke="black" stroke-width="1" stroke-miterlimit="4" d="M40.3379 158.16L36.3379 158.16"/>
	<text transform="translate(31.3379 158.16)" font-size="12" font-family="Segoe UI" x="-6.46875, " y="3.046875, ">
			0
	</text>
	<path fill="none" stroke="black" stroke-width="1" stroke-miterlimit="4" d="M40.3379 109.517L36.3379 109.517"/>
	<text transform="translate(31.3379 109.517)" font-size="12" font-family="Segoe UI" x="-15.539063, -9.0703125, -6.46875, " y="3.046875, ">
			0.5
	</text>
	<path fill="none" stroke="black" stroke-width="1" stroke-miterlimit="4" d="M40.3379 60.8741L36.3379 60.8741"/>
	<text transform="translate(31.3379 60.8741)" font-size="12" font-family="Segoe UI" x="-6.46875, " y="3.046875, ">
			1
	</text>
	<path fill="none" stroke="black" stroke-width="1" stroke-miterlimit="4" d="M40.3379 265.175L38.3379 265.175"/>
	<path fill="none" stroke="black" stroke-width="1" stroke-miterlimit="4" d="M40.3379 245.718L38.3379 245.718"/>
	<path fill="none" stroke="black" stroke-width="1" stroke-miterlimit="4" d="M40.3379 235.989L38.3379 235.989"/>
	<path fill="none" stroke="black" stroke-width="1" stroke-miterlimit="4" d="M40.3379 226.26L38.3379 226.26"/>
	<path fill="none" stroke="black" stroke-width="1" stroke-miterlimit="4" d="M40.3379 216.532L38.3379 216.532"/>
	<path fill="none" stroke="black" stroke-width="1" stroke-miterlimit="4" d="M40.3379 197.075L38.3379 197.075"/>
	<path fill="none" stroke="black" stroke-width="1" stroke-miterlimit="4" d="M40.3379 187.346L38.3379 187.346"/>
	<path fill="none" stroke="black" stroke-width="1" stroke-miterlimit="4" d="M40.3379 177.617L38.3379 177.617"/>
	<path fill="none" stroke="black" stroke-width="1" stroke-miterlimit="4" d="M40.3379 167.889L38.3379 167.889"/>
	<path fill="none" stroke="black" stroke-width="1" stroke-miterlimit="4" d="M40.3379 148.432L38.3379 148.432"/>
	<path fill="none" stroke="black" stroke-width="1" stroke-miterlimit="4" d="M40.3379 138.703L38.3379 138.703"/>
	<path fill="none" stroke="black" stroke-width="1" stroke-miterlimit="4" d="M40.3379 128.974L38.3379 128.974"/>
	<path fill="none" stroke="black" stroke-width="1" stroke-miterlimit="4" d="M40.3379 119.246L38.3379 119.246"/>
	<path fill="none" stroke="black" stroke-width="1" stroke-miterlimit="4" d="M40.3379 99.7886L38.3379 99.7886"/>
	<path fill="none" stroke="black" stroke-width="1" stroke-miterlimit="4" d="M40.3379 90.06L38.3379 90.06"/>
	<path fill="none" stroke="black" stroke-width="1" stroke-miterlimit="4" d="M40.3379 80.3313L38.3379 80.3313"/>
	<path fill="none" stroke="black" stroke-width="1" stroke-miterlimit="4" d="M40.3379 70.6028L38.3379 70.6028"/>
	<path fill="none" stroke="black" stroke-width="1" stroke-miterlimit="4" d="M40.3379 51.1456L38.3379 51.1456"/>
	<path fill="none" stroke="black" stroke-width="1" stroke-miterlimit="4" d="M40.3379 270.039L40.3379 46.2813"/>
	<path fill="none" stroke="black" stroke-width="1" stroke-miterlimit="4" d="M435 270.039L435 46.2813"/>
	<text transform="translate(237.669 31.2813)" font-size="16" font-weight="600" font-family="Segoe UI" x="-71.898438, -61.640625, -57.226563, -50.757813, -46.34375, -34.546875, -25.578125, -10.265625, 0.984375, 6.890625, 16.09375, 25.296875, 29.632813, 34.046875, 43.25, 47.585938, 56.789063, 65.992188, " y="-6.890625, ">
			B - DSMA(10, 0.50)
	</text>
</svg>
