<?xml version="1.0" encoding="utf-8" ?>
<svg xmlns="http://www.w3.org/2000/svg" xmlns:xlink="http://www.w3.org/1999/xlink" width="450" height="300">
	<rect fill="white" width="450" height="300"/>
	<path fill="none" stroke="#010101" stroke-width="1" stroke-miterlimit="4" stroke-opacity="0.098039217" d="M58.2771 270.039L58.2771 46.2813M83.5435 270.039L83.5435 46.2813M108.81 270.039L108.81 46.2813M134.076 270.039L134.076 46.2813M159.343 270.039L159.343 46.2813M184.609 270.039L184.609 46.2813M209.876 270.039L209.876 46.2813M235.142 270.039L235.142 46.2813M260.409 270.039L260.409 46.2813M285.675 270.039L285.675 46.2813M310.942 270.039L310.942 46.2813M336.208 270.039L336.208 46.2813M361.475 270.039L361.475 46.2813M386.741 270.039L386.741 46.2813M412.008 270.039L412.008 46.2813"/>
	<path fill="none" stroke="#010101" stroke-width="1" stroke-miterlimit="4" stroke-opacity="0.098039217" d="M40.3379 268.389L435 268.389M40.3379 236.379L435 236.379M40.3379 204.369L435 204.369M40.3379 172.359L435 172.359M40.3379 140.35L435 140.35M40.3379 108.34L435 108.34M40.3379 76.33L435 76.33"/>
	<clipPath id="cl_eb">
		<rect x="40.337891" y="46.28125" width="394.66211" height="223.75781"/>
	</clipPath>
	<g clip-path="url(#cl_eb)">
		<path fill="none" stroke="red" stroke-width="2" stroke-miterlimit="4" d="M58.2771 204.369L58.2771 204.369L63.3304 76.33L68.3837 204.369L73.437 76.33L78.4902 204.369L83.5435 76.33L88.5968 135.548L93.6501 204.369L98.7034 215.573L103.757 109.94L108.81 204.369L113.863 177.161L118.917 90.7344L123.97 74.7295L129.023 109.94L134.076 114.742L139.13 220.374L144.183 189.965L149.236 173.96L154.29 100.337L159.343 111.541L164.396 217.173L169.45 156.355L174.503 79.5309L179.556 93.9354L184.609 201.168L189.663 153.154L194.716 173.96L199.769 85.9329L204.823 138.749L209.876 213.972L214.929 95.5359L219.982 217.173L225.036 122.744L230.089 137.149L235.142 199.568L240.196 109.94L245.249 172.359L250.302 124.345L255.355 101.938L260.409 127.546L265.462 175.56L270.515 159.556L275.569 116.342L280.622 82.7319L285.675 209.171L290.729 145.151L295.782 191.565L300.835 68.3275L305.888 220.374L310.942 146.752L315.995 146.752L321.048 153.154L326.102 169.159L331.155 119.543L336.208 193.166L341.261 170.759L346.315 82.7319L351.368 202.769L356.421 108.34L361.475 189.965L366.528 95.5359L371.581 161.156L376.634 151.553L381.688 186.764L386.741 81.1314L391.794 135.548L396.848 180.362L401.901 149.953L406.954 188.364L412.008 153.154L417.061 154.754"/>
		<ellipse fill="red" cx="58.277077" cy="204.36932" rx="0.40212631" ry="0.40213013"/>
		<ellipse fill="red" cx="63.330368" cy="76.329956" rx="0.40212631" ry="0.4021225"/>
		<ellipse fill="red" cx="68.383659" cy="204.36932" rx="0.4021225" ry="0.40213013"/>
		<ellipse fill="red" cx="73.436951" cy="76.329956" rx="0.4021225" ry="0.4021225"/>
		<ellipse fill="red" cx="78.49025" cy="204.36932" rx="0.4021225" ry="0.40213013"/>
		<ellipse fill="red" cx="83.543533" cy="76.329956" rx="0.4021225" ry="0.4021225"/>
		<ellipse fill="red" cx="88.596832" cy="135.54816" rx="0.4021225" ry="0.40213013"/>
		<ellipse fill="red" cx="93.650124" cy="204.36932" rx="0.4021225" ry="0.40213013"/>
		<ellipse fill="red" cx="98.703415" cy="215.57278" rx="0.4021225" ry="0.40213013"/>
		<ellipse fill="red" cx="103.75671" cy="109.94029" rx="0.4021225" ry="0.4021225"/>
		<ellipse fill="red" cx="108.81" cy="204.36932" rx="0.4021225" ry="0.40213013"/>
		<ellipse fill="red" cx="113.86329" cy="177.16096" rx="0.4021225" ry="0.40213013"/>
		<ellipse fill="red" cx="118.91658" cy="90.734375" rx="0.4021225" ry="0.4021225"/>
		<ellipse fill="red" cx="123.96987" cy="74.729462" rx="0.4021225" ry="0.4021225"/>
		<ellipse fill="red" cx="129.02316" cy="109.94029" rx="0.40213013" ry="0.4021225"/>
		<ellipse fill="red" cx="134.07646" cy="114.74176" rx="0.40213013" ry="0.4021225"/>
		<ellipse fill="red" cx="139.12976" cy="220.37425" rx="0.40213013" ry="0.40213013"/>
		<ellipse fill="red" cx="144.18304" cy="189.9649" rx="0.40213013" ry="0.40213013"/>
		<ellipse fill="red" cx="149.23633" cy="173.95998" rx="0.40213013" ry="0.40213013"/>
		<ellipse fill="red" cx="154.28963" cy="100.33733" rx="0.40213013" ry="0.4021225"/>
		<ellipse fill="red" cx="159.34293" cy="111.54077" rx="0.40213013" ry="0.4021225"/>
		<ellipse fill="red" cx="164.39621" cy="217.17326" rx="0.40213013" ry="0.40213013"/>
		<ellipse fill="red" cx="169.44951" cy="156.35455" rx="0.40213013" ry="0.40213013"/>
		<ellipse fill="red" cx="174.50279" cy="79.53093" rx="0.40213013" ry="0.4021225"/>
		<ellipse fill="red" cx="179.55609" cy="93.935364" rx="0.40213013" ry="0.4021225"/>
		<ellipse fill="red" cx="184.60938" cy="201.16833" rx="0.40213013" ry="0.40213013"/>
		<ellipse fill="red" cx="189.66267" cy="153.15358" rx="0.40213013" ry="0.40213013"/>
		<ellipse fill="red" cx="194.71596" cy="173.95998" rx="0.40213013" ry="0.40213013"/>
		<ellipse fill="red" cx="199.76926" cy="85.932907" rx="0.40213013" ry="0.4021225"/>
		<ellipse fill="red" cx="204.82254" cy="138.74915" rx="0.40213013" ry="0.40213013"/>
		<ellipse fill="red" cx="209.87584" cy="213.97229" rx="0.40213013" ry="0.40213013"/>
		<ellipse fill="red" cx="214.92914" cy="95.535858" rx="0.40213013" ry="0.4021225"/>
		<ellipse fill="red" cx="219.98242" cy="217.17326" rx="0.40213013" ry="0.40213013"/>
		<ellipse fill="red" cx="225.03572" cy="122.74422" rx="0.40213013" ry="0.4021225"/>
		<ellipse fill="red" cx="230.089" cy="137.14865" rx="0.40213013" ry="0.40213013"/>
		<ellipse fill="red" cx="235.1423" cy="199.56786" rx="0.40213013" ry="0.40213013"/>
		<ellipse fill="red" cx="240.19559" cy="109.94029" rx="0.40213013" ry="0.4021225"/>
		<ellipse fill="red" cx="245.24889" cy="172.35948" rx="0.40213013" ry="0.40213013"/>
		<ellipse fill="red" cx="250.30217" cy="124.34471" rx="0.40213013" ry="0.4021225"/>
		<ellipse fill="red" cx="255.35547" cy="101.93782" rx="0.40213013" ry="0.4021225"/>
		<ellipse fill="red" cx="260.40875" cy="127.5457" rx="0.40213013" ry="0.4021225"/>
		<ellipse fill="red" cx="265.46204" cy="175.56047" rx="0.40213013" ry="0.40213013"/>
		<ellipse fill="red" cx="270.51535" cy="159.55554" rx="0.40213013" ry="0.40213013"/>
		<ellipse fill="red" cx="275.56863" cy="116.34225" rx="0.40213013" ry="0.4021225"/>
		<ellipse fill="red" cx="280.62195" cy="82.731918" rx="0.40213013" ry="0.4021225"/>
		<ellipse fill="red" cx="285.67523" cy="209.17081" rx="0.40213013" ry="0.40213013"/>
		<ellipse fill="red" cx="290.72852" cy="145.15112" rx="0.40213013" ry="0.40213013"/>
		<ellipse fill="red" cx="295.7818" cy="191.5654" rx="0.40213013" ry="0.40213013"/>
		<ellipse fill="red" cx="300.83508" cy="68.327484" rx="0.40213013" ry="0.4021225"/>
		<ellipse fill="red" cx="305.8884" cy="220.37425" rx="0.40213013" ry="0.40213013"/>
		<ellipse fill="red" cx="310.94168" cy="146.75162" rx="0.40213013" ry="0.40213013"/>
		<ellipse fill="red" cx="315.99496" cy="146.75162" rx="0.40213013" ry="0.40213013"/>
		<ellipse fill="red" cx="321.04828" cy="153.15358" rx="0.40213013" ry="0.40213013"/>
		<ellipse fill="red" cx="326.10156" cy="169.15851" rx="0.40213013" ry="0.40213013"/>
		<ellipse fill="red" cx="331.15485" cy="119.54324" rx="0.40213013" ry="0.4021225"/>
		<ellipse fill="red" cx="336.20813" cy="193.16589" rx="0.40213013" ry="0.40213013"/>
		<ellipse fill="red" cx="341.26144" cy="170.759" rx="0.40213013" ry="0.40213013"/>
		<ellipse fill="red" cx="346.31473" cy="82.731918" rx="0.40213013" ry="0.4021225"/>
		<ellipse fill="red" cx="351.36801" cy="202.76883" rx="0.40213013" ry="0.40213013"/>
		<ellipse fill="red" cx="356.4213" cy="108.3398" rx="0.40213013" ry="0.4021225"/>
		<ellipse fill="red" cx="361.47461" cy="189.9649" rx="0.40213013" ry="0.40213013"/>
		<ellipse fill="red" cx="366.52789" cy="95.535858" rx="0.40213013" ry="0.4021225"/>
		<ellipse fill="red" cx="371.58118" cy="161.15604" rx="0.40213013" ry="0.40213013"/>
		<ellipse fill="red" cx="376.63449" cy="151.55309" rx="0.40213013" ry="0.40213013"/>
		<ellipse fill="red" cx="381.68777" cy="186.76392" rx="0.40213013" ry="0.40213013"/>
		<ellipse fill="red" cx="386.74106" cy="81.131424" rx="0.40213013" ry="0.4021225"/>
		<ellipse fill="red" cx="391.79434" cy="135.54816" rx="0.40213013" ry="0.40213013"/>
		<ellipse fill="red" cx="396.84766" cy="180.36194" rx="0.40213013" ry="0.40213013"/>
		<ellipse fill="red" cx="401.90094" cy="149.95259" rx="0.40213013" ry="0.40213013"/>
		<ellipse fill="red" cx="406.95422" cy="188.36441" rx="0.40213013" ry="0.40213013"/>
		<ellipse fill="red" cx="412.00751" cy="153.15358" rx="0.40213013" ry="0.40213013"/>
		<ellipse fill="red" cx="417.06082" cy="154.75406" rx="0.40213013" ry="0.40213013"/>
	</g>
	<clipPath id="cl_ec">
		<rect x="40.337891" y="46.28125" width="394.66211" height="223.75781"/>
	</clipPath>
	<g clip-path="url(#cl_ec)">
		<path fill="none" stroke="blue" stroke-width="4" stroke-miterlimit="4" d="M58.2771 255.446L58.2771 255.446L63.3304 232.15L68.3837 194.374L73.437 60.8741L78.4902 105.324L83.5435 91.2127L88.5968 106.948L93.6501 166.373L98.7034 201.238L103.757 188.531L108.81 193.224L113.863 190.378L118.917 145.344L123.97 86.3044L129.023 98.2637L134.076 98.5213L139.13 168.622L144.183 184.704L149.236 180.781L154.29 158.518L159.343 129.368L164.396 141.755L169.45 147.312L174.503 144.151L179.556 118.278L184.609 130.368L189.663 140.567L194.716 159.555L199.769 158.438L204.823 147.713L209.876 152.399L214.929 144.893L219.982 158.557L225.036 147.58L230.089 145.511L235.142 154.492L240.196 144.553L245.249 146.941L250.302 146.181L255.355 99.5346L260.409 119.531L265.462 166.764L270.515 160L275.569 153.485L280.622 77.3404L285.675 85.5039L290.729 153.989L295.782 188.598L300.835 182.995L305.888 202.633L310.942 183.698L315.995 166.544L321.048 161.324L326.102 162.467L331.155 155.515L336.208 158.544L341.261 161.5L346.315 139.803L351.368 158.919L356.421 157.34L361.475 160.998L366.528 132.356L371.581 153.883L376.634 153.726L381.688 173.557L386.741 125.639L391.794 136.856L396.848 138.286L401.901 146.968L406.954 179.498L412.008 168.603L417.061 165.144"/>
		<ellipse fill="blue" cx="58.277077" cy="255.44617" rx="0.40212631" ry="0.40213013"/>
		<ellipse fill="blue" cx="63.330368" cy="232.14969" rx="0.40212631" ry="0.40213013"/>
		<ellipse fill="blue" cx="68.383659" cy="194.37418" rx="0.4021225" ry="0.40213013"/>
		<ellipse fill="blue" cx="73.436951" cy="60.874146" rx="0.4021225" ry="0.40212631"/>
		<ellipse fill="blue" cx="78.49025" cy="105.32387" rx="0.4021225" ry="0.4021225"/>
		<ellipse fill="blue" cx="83.543533" cy="91.212738" rx="0.4021225" ry="0.4021225"/>
		<ellipse fill="blue" cx="88.596832" cy="106.948" rx="0.4021225" ry="0.4021225"/>
		<ellipse fill="blue" cx="93.650124" cy="166.3728" rx="0.4021225" ry="0.40213013"/>
		<ellipse fill="blue" cx="98.703415" cy="201.23788" rx="0.4021225" ry="0.40213013"/>
		<ellipse fill="blue" cx="103.75671" cy="188.53085" rx="0.4021225" ry="0.40213013"/>
		<ellipse fill="blue" cx="108.81" cy="193.22394" rx="0.4021225" ry="0.40213013"/>
		<ellipse fill="blue" cx="113.86329" cy="190.37807" rx="0.4021225" ry="0.40213013"/>
		<ellipse fill="blue" cx="118.91658" cy="145.34354" rx="0.4021225" ry="0.40213013"/>
		<ellipse fill="blue" cx="123.96987" cy="86.304428" rx="0.4021225" ry="0.4021225"/>
		<ellipse fill="blue" cx="129.02316" cy="98.263702" rx="0.40213013" ry="0.4021225"/>
		<ellipse fill="blue" cx="134.07646" cy="98.521301" rx="0.40213013" ry="0.4021225"/>
		<ellipse fill="blue" cx="139.12976" cy="168.62161" rx="0.40213013" ry="0.40213013"/>
		<ellipse fill="blue" cx="144.18304" cy="184.70372" rx="0.40213013" ry="0.40213013"/>
		<ellipse fill="blue" cx="149.23633" cy="180.78133" rx="0.40213013" ry="0.40213013"/>
		<ellipse fill="blue" cx="154.28963" cy="158.51843" rx="0.40213013" ry="0.40213013"/>
		<ellipse fill="blue" cx="159.34293" cy="129.36789" rx="0.40213013" ry="0.40213013"/>
		<ellipse fill="blue" cx="164.39621" cy="141.75499" rx="0.40213013" ry="0.40213013"/>
		<ellipse fill="blue" cx="169.44951" cy="147.31219" rx="0.40213013" ry="0.40213013"/>
		<ellipse fill="blue" cx="174.50279" cy="144.15111" rx="0.40213013" ry="0.40213013"/>
		<ellipse fill="blue" cx="179.55609" cy="118.27763" rx="0.40213013" ry="0.4021225"/>
		<ellipse fill="blue" cx="184.60938" cy="130.36751" rx="0.40213013" ry="0.40213013"/>
		<ellipse fill="blue" cx="189.66267" cy="140.56749" rx="0.40213013" ry="0.40213013"/>
		<ellipse fill="blue" cx="194.71596" cy="159.55516" rx="0.40213013" ry="0.40213013"/>
		<ellipse fill="blue" cx="199.76926" cy="158.43799" rx="0.40213013" ry="0.40213013"/>
		<ellipse fill="blue" cx="204.82254" cy="147.7131" rx="0.40213013" ry="0.40213013"/>
		<ellipse fill="blue" cx="209.87584" cy="152.39893" rx="0.40213013" ry="0.40213013"/>
		<ellipse fill="blue" cx="214.92914" cy="144.89316" rx="0.40213013" ry="0.40213013"/>
		<ellipse fill="blue" cx="219.98242" cy="158.55652" rx="0.40213013" ry="0.40213013"/>
		<ellipse fill="blue" cx="225.03572" cy="147.57993" rx="0.40213013" ry="0.40213013"/>
		<ellipse fill="blue" cx="230.089" cy="145.51097" rx="0.40213013" ry="0.40213013"/>
		<ellipse fill="blue" cx="235.1423" cy="154.49231" rx="0.40213013" ry="0.40213013"/>
		<ellipse fill="blue" cx="240.19559" cy="144.55272" rx="0.40213013" ry="0.40213013"/>
		<ellipse fill="blue" cx="245.24889" cy="146.94116" rx="0.40213013" ry="0.40213013"/>
		<ellipse fill="blue" cx="250.30217" cy="146.18069" rx="0.40213013" ry="0.40213013"/>
		<ellipse fill="blue" cx="255.35547" cy="99.534576" rx="0.40213013" ry="0.4021225"/>
		<ellipse fill="blue" cx="260.40875" cy="119.53091" rx="0.40213013" ry="0.4021225"/>
		<ellipse fill="blue" cx="265.46204" cy="166.76419" rx="0.40213013" ry="0.40213013"/>
		<ellipse fill="blue" cx="270.51535" cy="159.99994" rx="0.40213013" ry="0.40213013"/>
		<ellipse fill="blue" cx="275.56863" cy="153.48495" rx="0.40213013" ry="0.40213013"/>
		<ellipse fill="blue" cx="280.62195" cy="77.340439" rx="0.40213013" ry="0.4021225"/>
		<ellipse fill="blue" cx="285.67523" cy="85.503937" rx="0.40213013" ry="0.4021225"/>
		<ellipse fill="blue" cx="290.72852" cy="153.98871" rx="0.40213013" ry="0.40213013"/>
		<ellipse fill="blue" cx="295.7818" cy="188.5979" rx="0.40213013" ry="0.40213013"/>
		<ellipse fill="blue" cx="300.83508" cy="182.99487" rx="0.40213013" ry="0.40213013"/>
		<ellipse fill="blue" cx="305.8884" cy="202.63306" rx="0.40213013" ry="0.40213013"/>
		<ellipse fill="blue" cx="310.94168" cy="183.69838" rx="0.40213013" ry="0.40213013"/>
		<ellipse fill="blue" cx="315.99496" cy="166.54399" rx="0.40213013" ry="0.40213013"/>
		<ellipse fill="blue" cx="321.04828" cy="161.32439" rx="0.40213013" ry="0.40213013"/>
		<ellipse fill="blue" cx="326.10156" cy="162.46725" rx="0.40213013" ry="0.40213013"/>
		<ellipse fill="blue" cx="331.15485" cy="155.51489" rx="0.40213013" ry="0.40213013"/>
		<ellipse fill="blue" cx="336.20813" cy="158.54367" rx="0.40213013" ry="0.40213013"/>
		<ellipse fill="blue" cx="341.26144" cy="161.49994" rx="0.40213013" ry="0.40213013"/>
		<ellipse fill="blue" cx="346.31473" cy="139.80276" rx="0.40213013" ry="0.40213013"/>
		<ellipse fill="blue" cx="351.36801" cy="158.91879" rx="0.40213013" ry="0.40213013"/>
		<ellipse fill="blue" cx="356.4213" cy="157.33981" rx="0.40213013" ry="0.40213013"/>
		<ellipse fill="blue" cx="361.47461" cy="160.99792" rx="0.40213013" ry="0.40213013"/>
		<ellipse fill="blue" cx="366.52789" cy="132.35629" rx="0.40213013" ry="0.40213013"/>
		<ellipse fill="blue" cx="371.58118" cy="153.88263" rx="0.40213013" ry="0.40213013"/>
		<ellipse fill="blue" cx="376.63449" cy="153.72565" rx="0.40213013" ry="0.40213013"/>
		<ellipse fill="blue" cx="381.68777" cy="173.55716" rx="0.40213013" ry="0.40213013"/>
		<ellipse fill="blue" cx="386.74106" cy="125.6385" rx="0.40213013" ry="0.4021225"/>
		<ellipse fill="blue" cx="391.79434" cy="136.85559" rx="0.40213013" ry="0.40213013"/>
		<ellipse fill="blue" cx="396.84766" cy="138.28642" rx="0.40213013" ry="0.40213013"/>
		<ellipse fill="blue" cx="401.90094" cy="146.96771" rx="0.40213013" ry="0.40213013"/>
		<ellipse fill="blue" cx="406.95422" cy="179.49814" rx="0.40213013" ry="0.40213013"/>
		<ellipse fill="blue" cx="412.00751" cy="168.60277" rx="0.40213013" ry="0.40213013"/>
		<ellipse fill="blue" cx="417.06082" cy="165.14438" rx="0.40213013" ry="0.40213013"/>
	</g>
	<path fill="none" stroke="black" stroke-width="1" stroke-miterlimit="4" d="M58.2771 270.039L58.2771 274.039"/>
	<text transform="translate(58.2771 276.039)" font-size="12" font-family="Segoe UI" x="-3.234375, " y="11.027344, ">
			0
	</text>
	<path fill="none" stroke="black" stroke-width="1" stroke-miterlimit="4" d="M83.5435 270.039L83.5435 274.039"/>
	<text transform="translate(83.5435 276.039)" font-size="12" font-family="Segoe UI" x="-3.234375, " y="11.027344, ">
			5
	</text>
	<path fill="none" stroke="black" stroke-width="1" stroke-miterlimit="4" d="M108.81 270.039L108.81 274.039"/>
	<text transform="translate(108.81 276.039)" font-size="12" font-family="Segoe UI" x="-6.46875, 0, " y="11.027344, ">
			10
	</text>
	<path fill="none" stroke="black" stroke-width="1" stroke-miterlimit="4" d="M134.076 270.039L134.076 274.039"/>
	<text transform="translate(134.076 276.039)" font-size="12" font-family="Segoe UI" x="-6.46875, 0, " y="11.027344, ">
			15
	</text>
	<path fill="none" stroke="black" stroke-width="1" stroke-miterlimit="4" d="M159.343 270.039L159.343 274.039"/>
	<text transform="translate(159.343 276.039)" font-size="12" font-family="Segoe UI" x="-6.46875, 0, " y="11.027344, ">
			20
	</text>
	<path fill="none" stroke="black" stroke-width="1" stroke-miterlimit="4" d="M184.609 270.039L184.609 274.039"/>
	<text transform="translate(184.609 276.039)" font-size="12" font-family="Segoe UI" x="-6.46875, 0, " y="11.027344, ">
			25
	</text>
	<path fill="none" stroke="black" stroke-width="1" stroke-miterlimit="4" d="M209.876 270.039L209.876 274.039"/>
	<text transform="translate(209.876 276.039)" font-size="12" font-family="Segoe UI" x="-6.46875, 0, " y="11.027344, ">
			30
	</text>
	<path fill="none" stroke="black" stroke-width="1" stroke-miterlimit="4" d="M235.142 270.039L235.142 274.039"/>
	<text transform="translate(235.142 276.039)" font-size="12" font-family="Segoe UI" x="-6.46875, 0, " y="11.027344, ">
			35
	</text>
	<path fill="none" stroke="black" stroke-width="1" stroke-miterlimit="4" d="M260.409 270.039L260.409 274.039"/>
	<text transform="translate(260.409 276.039)" font-size="12" font-family="Segoe UI" x="-6.46875, 0, " y="11.027344, ">
			40
	</text>
	<path fill="none" stroke="black" stroke-width="1" stroke-miterlimit="4" d="M285.675 270.039L285.675 274.039"/>
	<text transform="translate(285.675 276.039)" font-size="12" font-family="Segoe UI" x="-6.46875, 0, " y="11.027344, ">
			45
	</text>
	<path fill="none" stroke="black" stroke-width="1" stroke-miterlimit="4" d="M310.942 270.039L310.942 274.039"/>
	<text transform="translate(310.942 276.039)" font-size="12" font-family="Segoe UI" x="-6.46875, 0, " y="11.027344, ">
			50
	</text>
	<path fill="none" stroke="black" stroke-width="1" stroke-miterlimit="4" d="M336.208 270.039L336.208 274.039"/>
	<text transform="translate(336.208 276.039)" font-size="12" font-family="Segoe UI" x="-6.46875, 0, " y="11.027344, ">
			55
	</text>
	<path fill="none" stroke="black" stroke-width="1" stroke-miterlimit="4" d="M361.475 270.039L361.475 274.039"/>
	<text transform="translate(361.475 276.039)" font-size="12" font-family="Segoe UI" x="-6.46875, 0, " y="11.027344, ">
			60
	</text>
	<path fill="none" stroke="black" stroke-width="1" stroke-miterlimit="4" d="M386.741 270.039L386.741 274.039"/>
	<text transform="translate(386.741 276.039)" font-size="12" font-family="Segoe UI" x="-6.46875, 0, " y="11.027344, ">
			65
	</text>
	<path fill="none" stroke="black" stroke-width="1" stroke-miterlimit="4" d="M412.008 270.039L412.008 274.039"/>
	<text transform="translate(412.008 276.039)" font-size="12" font-family="Segoe UI" x="-6.46875, 0, " y="11.027344, ">
			70
	</text>
	<path fill="none" stroke="black" stroke-width="1" stroke-miterlimit="4" d="M43.1172 270.039L43.1172 272.039"/>
	<path fill="none" stroke="black" stroke-width="1" stroke-miterlimit="4" d="M48.1705 270.039L48.1705 272.039"/>
	<path fill="none" stroke="black" stroke-width="1" stroke-miterlimit="4" d="M53.2238 270.039L53.2238 272.039"/>
	<path fill="none" stroke="black" stroke-width="1" stroke-miterlimit="4" d="M63.3304 270.039L63.3304 272.039"/>
	<path fill="none" stroke="black" stroke-width="1" stroke-miterlimit="4" d="M68.3837 270.039L68.3837 272.039"/>
	<path fill="none" stroke="black" stroke-width="1" stroke-miterlimit="4" d="M73.437 270.039L73.437 272.039"/>
	<path fill="none" stroke="black" stroke-width="1" stroke-miterlimit="4" d="M78.4902 270.039L78.4902 272.039"/>
	<path fill="none" stroke="black" stroke-width="1" stroke-miterlimit="4" d="M88.5968 270.039L88.5968 272.039"/>
	<path fill="none" stroke="black" stroke-width="1" stroke-miterlimit="4" d="M93.6501 270.039L93.6501 272.039"/>
	<path fill="none" stroke="black" stroke-width="1" stroke-miterlimit="4" d="M98.7034 270.039L98.7034 272.039"/>
	<path fill="none" stroke="black" stroke-width="1" stroke-miterlimit="4" d="M103.757 270.039L103.757 272.039"/>
	<path fill="none" stroke="black" stroke-width="1" stroke-miterlimit="4" d="M113.863 270.039L113.863 272.039"/>
	<path fill="none" stroke="black" stroke-width="1" stroke-miterlimit="4" d="M118.917 270.039L118.917 272.039"/>
	<path fill="none" stroke="black" stroke-width="1" stroke-miterlimit="4" d="M123.97 270.039L123.97 272.039"/>
	<path fill="none" stroke="black" stroke-width="1" stroke-miterlimit="4" d="M129.023 270.039L129.023 272.039"/>
	<path fill="none" stroke="black" stroke-width="1" stroke-miterlimit="4" d="M139.13 270.039L139.13 272.039"/>
	<path fill="none" stroke="black" stroke-width="1" stroke-miterlimit="4" d="M144.183 270.039L144.183 272.039"/>
	<path fill="none" stroke="black" stroke-width="1" stroke-miterlimit="4" d="M149.236 270.039L149.236 272.039"/>
	<path fill="none" stroke="black" stroke-width="1" stroke-miterlimit="4" d="M154.29 270.039L154.29 272.039"/>
	<path fill="none" stroke="black" stroke-width="1" stroke-miterlimit="4" d="M164.396 270.039L164.396 272.039"/>
	<path fill="none" stroke="black" stroke-width="1" stroke-miterlimit="4" d="M169.45 270.039L169.45 272.039"/>
	<path fill="none" stroke="black" stroke-width="1" stroke-miterlimit="4" d="M174.503 270.039L174.503 272.039"/>
	<path fill="none" stroke="black" stroke-width="1" stroke-miterlimit="4" d="M179.556 270.039L179.556 272.039"/>
	<path fill="none" stroke="black" stroke-width="1" stroke-miterlimit="4" d="M189.663 270.039L189.663 272.039"/>
	<path fill="none" stroke="black" stroke-width="1" stroke-miterlimit="4" d="M194.716 270.039L194.716 272.039"/>
	<path fill="none" stroke="black" stroke-width="1" stroke-miterlimit="4" d="M199.769 270.039L199.769 272.039"/>
	<path fill="none" stroke="black" stroke-width="1" stroke-miterlimit="4" d="M204.823 270.039L204.823 272.039"/>
	<path fill="none" stroke="black" stroke-width="1" stroke-miterlimit="4" d="M214.929 270.039L214.929 272.039"/>
	<path fill="none" stroke="black" stroke-width="1" stroke-miterlimit="4" d="M219.982 270.039L219.982 272.039"/>
	<path fill="none" stroke="black" stroke-width="1" stroke-miterlimit="4" d="M225.036 270.039L225.036 272.039"/>
	<path fill="none" stroke="black" stroke-width="1" stroke-miterlimit="4" d="M230.089 270.039L230.089 272.039"/>
	<path fill="none" stroke="black" stroke-width="1" stroke-miterlimit="4" d="M240.196 270.039L240.196 272.039"/>
	<path fill="none" stroke="black" stroke-width="1" stroke-miterlimit="4" d="M245.249 270.039L245.249 272.039"/>
	<path fill="none" stroke="black" stroke-width="1" stroke-miterlimit="4" d="M250.302 270.039L250.302 272.039"/>
	<path fill="none" stroke="black" stroke-width="1" stroke-miterlimit="4" d="M255.355 270.039L255.355 272.039"/>
	<path fill="none" stroke="black" stroke-width="1" stroke-miterlimit="4" d="M265.462 270.039L265.462 272.039"/>
	<path fill="none" stroke="black" stroke-width="1" stroke-miterlimit="4" d="M270.515 270.039L270.515 272.039"/>
	<path fill="none" stroke="black" stroke-width="1" stroke-miterlimit="4" d="M275.569 270.039L275.569 272.039"/>
	<path fill="none" stroke="black" stroke-width="1" stroke-miterlimit="4" d="M280.622 270.039L280.622 272.039"/>
	<path fill="none" stroke="black" stroke-width="1" stroke-miterlimit="4" d="M290.729 270.039L290.729 272.039"/>
	<path fill="none" stroke="black" stroke-width="1" stroke-miterlimit="4" d="M295.782 270.039L295.782 272.039"/>
	<path fill="none" stroke="black" stroke-width="1" stroke-miterlimit="4" d="M300.835 270.039L300.835 272.039"/>
	<path fill="none" stroke="black" stroke-width="1" stroke-miterlimit="4" d="M305.888 270.039L305.888 272.039"/>
	<path fill="none" stroke="black" stroke-width="1" stroke-miterlimit="4" d="M315.995 270.039L315.995 272.039"/>
	<path fill="none" stroke="black" stroke-width="1" stroke-miterlimit="4" d="M321.048 270.039L321.048 272.039"/>
	<path fill="none" stroke="black" stroke-width="1" stroke-miterlimit="4" d="M326.102 270.039L326.102 272.039"/>
	<path fill="none" stroke="black" stroke-width="1" stroke-miterlimit="4" d="M331.155 270.039L331.155 272.039"/>
	<path fill="none" stroke="black" stroke-width="1" stroke-miterlimit="4" d="M341.261 270.039L341.261 272.039"/>
	<path fill="none" stroke="black" stroke-width="1" stroke-miterlimit="4" d="M346.315 270.039L346.315 272.039"/>
	<path fill="none" stroke="black" stroke-width="1" stroke-miterlimit="4" d="M351.368 270.039L351.368 272.039"/>
	<path fill="none" stroke="black" stroke-width="1" stroke-miterlimit="4" d="M356.421 270.039L356.421 272.039"/>
	<path fill="none" stroke="black" stroke-width="1" stroke-miterlimit="4" d="M366.528 270.039L366.528 272.039"/>
	<path fill="none" stroke="black" stroke-width="1" stroke-miterlimit="4" d="M371.581 270.039L371.581 272.039"/>
	<path fill="none" stroke="black" stroke-width="1" stroke-miterlimit="4" d="M376.634 270.039L376.634 272.039"/>
	<path fill="none" stroke="black" stroke-width="1" stroke-miterlimit="4" d="M381.688 270.039L381.688 272.039"/>
	<path fill="none" stroke="black" stroke-width="1" stroke-miterlimit="4" d="M391.794 270.039L391.794 272.039"/>
	<path fill="none" stroke="black" stroke-width="1" stroke-miterlimit="4" d="M396.848 270.039L396.848 272.039"/>
	<path fill="none" stroke="black" stroke-width="1" stroke-miterlimit="4" d="M401.901 270.039L401.901 272.039"/>
	<path fill="none" stroke="black" stroke-width="1" stroke-miterlimit="4" d="M406.954 270.039L406.954 272.039"/>
	<path fill="none" stroke="black" stroke-width="1" stroke-miterlimit="4" d="M417.061 270.039L417.061 272.039"/>
	<path fill="none" stroke="black" stroke-width="1" stroke-miterlimit="4" d="M422.114 270.039L422.114 272.039"/>
	<path fill="none" stroke="black" stroke-width="1" stroke-miterlimit="4" d="M427.167 270.039L427.167 272.039"/>
	<path fill="none" stroke="black" stroke-width="1" stroke-miterlimit="4" d="M432.221 270.039L432.221 272.039"/>
	<path fill="none" stroke="black" stroke-width="1" stroke-miterlimit="4" d="M40.3379 270.039L435 270.039"/>
	<path fill="none" stroke="black" stroke-width="1" stroke-miterlimit="4" d="M40.3379 46.3812L435 46.3812"/>
	<path fill="none" stroke="black" stroke-width="1" stroke-miterlimit="4" d="M40.3379 268.389L36.3379 268.389"/>
	<text transform="translate(31.3379 268.389)" font-size="12" font-family="Segoe UI" x="-20.337891, -15.539063, -9.0703125, -6.46875, " y="3.046875, ">
			-0.8
	</text>
	<path fill="none" stroke="black" stroke-width="1" stroke-miterlimit="4" d="M40.3379 236.379L36.3379 236.379"/>
	<text transform="translate(31.3379 236.379)" font-size="12" font-family="Segoe UI" x="-20.337891, -15.539063, -9.0703125, -6.46875, " y="3.046875, ">
			-0.6
	</text>
	<path fill="none" stroke="black" stroke-width="1" stroke-miterlimit="4" d="M40.3379 204.369L36.3379 204.369"/>
	<text transform="translate(31.3379 204.369)" font-size="12" font-family="Segoe UI" x="-20.337891, -15.539063, -9.0703125, -6.46875, " y="3.046875, ">
			-0.4
	</text>
	<path fill="none" stroke="black" stroke-width="1" stroke-miterlimit="4" d="M40.3379 172.359L36.3379 172.359"/>
	<text transform="translate(31.3379 172.359)" font-size="12" font-family="Segoe UI" x="-20.337891, -15.539063, -9.0703125, -6.46875, " y="3.046875, ">
			-0.2
	</text>
	<path fill="none" stroke="black" stroke-width="1" stroke-miterlimit="4" d="M40.3379 140.35L36.3379 140.35"/>
	<text transform="translate(31.3379 140.35)" font-size="12" font-family="Segoe UI" x="-6.46875, " y="3.046875, ">
			0
	</text>
	<path fill="none" stroke="black" stroke-width="1" stroke-miterlimit="4" d="M40.3379 108.34L36.3379 108.34"/>
	<text transform="translate(31.3379 108.34)" font-size="12" font-family="Segoe UI" x="-15.539063, -9.0703125, -6.46875, " y="3.046875, ">
			0.2
	</text>
	<path fill="none" stroke="black" stroke-width="1" stroke-miterlimit="4" d="M40.3379 76.33L36.3379 76.33"/>
	<text transform="translate(31.3379 76.33)" font-size="12" font-family="Segoe UI" x="-15.539063, -9.0703125, -6.46875, " y="3.046875, ">
			0.4
	</text>
	<path fill="none" stroke="black" stroke-width="1" stroke-miterlimit="4" d="M40.3379 261.987L38.3379 261.987"/>
	<path fill="none" stroke="black" stroke-width="1" stroke-miterlimit="4" d="M40.3379 255.585L38.3379 255.585"/>
	<path fill="none" stroke="black" stroke-width="1" stroke-miterlimit="4" d="M40.3379 249.183L38.3379 249.183"/>
	<path fill="none" stroke="black" stroke-width="1" stroke-miterlimit="4" d="M40.3379 242.781L38.3379 242.781"/>
	<path fill="none" stroke="black" stroke-width="1" stroke-miterlimit="4" d="M40.3379 229.977L38.3379 229.977"/>
	<path fill="none" stroke="black" stroke-width="1" stroke-miterlimit="4" d="M40.3379 223.575L38.3379 223.575"/>
	<path fill="none" stroke="black" stroke-width="1" stroke-miterlimit="4" d="M40.3379 217.173L38.3379 217.173"/>
	<path fill="none" stroke="black" stroke-width="1" stroke-miterlimit="4" d="M40.3379 210.771L38.3379 210.771"/>
	<path fill="none" stroke="black" stroke-width="1" stroke-miterlimit="4" d="M40.3379 197.967L38.3379 197.967"/>
	<path fill="none" stroke="black" stroke-width="1" stroke-miterlimit="4" d="M40.3379 191.565L38.3379 191.565"/>
	<path fill="none" stroke="black" stroke-width="1" stroke-miterlimit="4" d="M40.3379 185.163L38.3379 185.163"/>
	<path fill="none" stroke="black" stroke-width="1" stroke-miterlimit="4" d="M40.3379 178.761L38.3379 178.761"/>
	<path fill="none" stroke="black" stroke-width="1" stroke-miterlimit="4" d="M40.3379 165.958L38.3379 165.958"/>
	<path fill="none" stroke="black" stroke-width="1" stroke-miterlimit="4" d="M40.3379 159.556L38.3379 159.556"/>
	<path fill="none" stroke="black" stroke-width="1" stroke-miterlimit="4" d="M40.3379 153.154L38.3379 153.154"/>
	<path fill="none" stroke="black" stroke-width="1" stroke-miterlimit="4" d="M40.3379 146.752L38.3379 146.752"/>
	<path fill="none" stroke="black" stroke-width="1" stroke-miterlimit="4" d="M40.3379 133.948L38.3379 133.948"/>
	<path fill="none" stroke="black" stroke-width="1" stroke-miterlimit="4" d="M40.3379 127.546L38.3379 127.546"/>
	<path fill="none" stroke="black" stroke-width="1" stroke-miterlimit="4" d="M40.3379 121.144L38.3379 121.144"/>
	<path fill="none" stroke="black" stroke-width="1" stroke-miterlimit="4" d="M40.3379 114.742L38.3379 114.742"/>
	<path fill="none" stroke="black" stroke-width="1" stroke-miterlimit="4" d="M40.3379 101.938L38.3379 101.938"/>
	<path fill="none" stroke="black" stroke-width="1" stroke-miterlimit="4" d="M40.3379 95.5359L38.3379 95.5359"/>
	<path fill="none" stroke="black" stroke-width="1" stroke-miterlimit="4" d="M40.3379 89.1339L38.3379 89.1339"/>
	<path fill="none" stroke="black" stroke-width="1" stroke-miterlimit="4" d="M40.3379 82.7319L38.3379 82.7319"/>
	<path fill="none" stroke="black" stroke-width="1" stroke-miterlimit="4" d="M40.3379 69.928L38.3379 69.928"/>
	<path fill="none" stroke="black" stroke-width="1" stroke-miterlimit="4" d="M40.3379 63.526L38.3379 63.526"/>
	<path fill="none" stroke="black" stroke-width="1" stroke-miterlimit="4" d="M40.3379 57.124L38.3379 57.124"/>
	<path fill="none" stroke="black" stroke-width="1" stroke-miterlimit="4" d="M40.3379 50.7221L38.3379 50.7221"/>
	<path fill="none" stroke="black" stroke-width="1" stroke-miterlimit="4" d="M40.3379 270.039L40.3379 46.2813"/>
	<path fill="none" stroke="black" stroke-width="1" stroke-miterlimit="4" d="M435 270.039L435 46.2813"/>
	<text transform="translate(237.669 31.2813)" font-size="16" font-weight="600" font-family="Segoe UI" x="-68.992188, -52.914063, -43.28125, -38.734375, -32.507813, -23.851563, -19.4375, -12.96875, -8.5546875, 3.2421875, 12.210938, 27.523438, 38.773438, 44.679688, 53.882813, 63.085938, " y="-6.890625, ">
			White - DSMA(10)
	</text>
</svg>
