<?xml version="1.0" encoding="utf-8" ?>
<svg xmlns="http://www.w3.org/2000/svg" xmlns:xlink="http://www.w3.org/1999/xlink" width="450" height="300">
	<rect fill="white" width="450" height="300"/>
	<path fill="none" stroke="#010101" stroke-width="1" stroke-miterlimit="4" stroke-opacity="0.098039217" d="M58.2771 270.039L58.2771 46.2813M83.5435 270.039L83.5435 46.2813M108.81 270.039L108.81 46.2813M134.076 270.039L134.076 46.2813M159.343 270.039L159.343 46.2813M184.609 270.039L184.609 46.2813M209.876 270.039L209.876 46.2813M235.142 270.039L235.142 46.2813M260.409 270.039L260.409 46.2813M285.675 270.039L285.675 46.2813M310.942 270.039L310.942 46.2813M336.208 270.039L336.208 46.2813M361.475 270.039L361.475 46.2813M386.741 270.039L386.741 46.2813M412.008 270.039L412.008 46.2813"/>
	<path fill="none" stroke="#010101" stroke-width="1" stroke-miterlimit="4" stroke-opacity="0.098039217" d="M40.3379 247.913L435 247.913M40.3379 202.882L435 202.882M40.3379 157.852L435 157.852M40.3379 112.822L435 112.822M40.3379 67.7913L435 67.7913"/>
	<clipPath id="cl_1f">
		<rect x="40.337891" y="46.28125" width="394.66211" height="223.75781"/>
	</clipPath>
	<g clip-path="url(#cl_1f)">
		<path fill="none" stroke="red" stroke-width="2" stroke-miterlimit="4" d="M58.2771 157.852L58.2771 157.852L63.3304 156.951L68.3837 157.852L73.437 156.951L78.4902 157.852L83.5435 156.951L88.5968 122.728L93.6501 107.418L98.7034 93.0083L103.757 82.201L108.81 74.0955L113.863 68.6919L118.917 67.7913L123.97 70.4931L129.023 75.8967L134.076 84.9028L139.13 96.6107L144.183 111.02L149.236 128.132L154.29 145.243L159.343 163.256L164.396 181.268L169.45 197.479L174.503 212.789L179.556 226.298L184.609 236.205L189.663 243.41L194.716 247.012L199.769 247.913L204.823 244.31L209.876 237.105L214.929 227.199L219.982 214.59L225.036 199.28L230.089 183.069L235.142 165.057L240.196 147.045L245.249 129.933L250.302 113.722L255.355 98.4119L260.409 86.704L265.462 76.7973L270.515 70.4931L275.569 67.7913L280.622 68.6919L285.675 73.1949L290.729 81.3004L295.782 92.1077L300.835 105.617L305.888 120.927L310.942 138.039L315.995 156.051L321.048 173.162L326.102 191.174L331.155 206.485L336.208 220.894L341.261 232.602L346.315 240.708L351.368 246.111L356.421 247.913L361.475 246.111L366.528 240.708L371.581 231.702L376.634 219.994L381.688 206.485L386.741 190.274L391.794 173.162L396.848 155.15L401.901 137.138L406.954 120.026L412.008 104.716L417.061 91.2071"/>
		<ellipse fill="red" cx="58.277077" cy="157.85199" rx="0.40212631" ry="0.40213013"/>
		<ellipse fill="red" cx="63.330368" cy="156.95139" rx="0.40212631" ry="0.40213013"/>
		<ellipse fill="red" cx="68.383659" cy="157.85199" rx="0.4021225" ry="0.40213013"/>
		<ellipse fill="red" cx="73.436951" cy="156.95139" rx="0.4021225" ry="0.40213013"/>
		<ellipse fill="red" cx="78.49025" cy="157.85199" rx="0.4021225" ry="0.40213013"/>
		<ellipse fill="red" cx="83.543533" cy="156.95139" rx="0.4021225" ry="0.40213013"/>
		<ellipse fill="red" cx="88.596832" cy="122.72832" rx="0.4021225" ry="0.4021225"/>
		<ellipse fill="red" cx="93.650124" cy="107.418" rx="0.4021225" ry="0.4021225"/>
		<ellipse fill="red" cx="98.703415" cy="93.008286" rx="0.4021225" ry="0.4021225"/>
		<ellipse fill="red" cx="103.75671" cy="82.200989" rx="0.4021225" ry="0.4021225"/>
		<ellipse fill="red" cx="108.81" cy="74.095535" rx="0.4021225" ry="0.4021225"/>
		<ellipse fill="red" cx="113.86329" cy="68.691895" rx="0.4021225" ry="0.4021225"/>
		<ellipse fill="red" cx="118.91658" cy="67.791275" rx="0.4021225" ry="0.4021225"/>
		<ellipse fill="red" cx="123.96987" cy="70.493103" rx="0.4021225" ry="0.4021225"/>
		<ellipse fill="red" cx="129.02316" cy="75.896744" rx="0.40213013" ry="0.4021225"/>
		<ellipse fill="red" cx="134.07646" cy="84.902817" rx="0.40213013" ry="0.4021225"/>
		<ellipse fill="red" cx="139.12976" cy="96.610703" rx="0.40213013" ry="0.4021225"/>
		<ellipse fill="red" cx="144.18304" cy="111.02042" rx="0.40213013" ry="0.4021225"/>
		<ellipse fill="red" cx="149.23633" cy="128.13196" rx="0.40213013" ry="0.40212631"/>
		<ellipse fill="red" cx="154.28963" cy="145.2435" rx="0.40213013" ry="0.40213013"/>
		<ellipse fill="red" cx="159.34293" cy="163.25563" rx="0.40213013" ry="0.40213013"/>
		<ellipse fill="red" cx="164.39621" cy="181.26778" rx="0.40213013" ry="0.40213013"/>
		<ellipse fill="red" cx="169.44951" cy="197.4787" rx="0.40213013" ry="0.40213013"/>
		<ellipse fill="red" cx="174.50279" cy="212.78903" rx="0.40213013" ry="0.40213013"/>
		<ellipse fill="red" cx="179.55609" cy="226.29813" rx="0.40213013" ry="0.40213013"/>
		<ellipse fill="red" cx="184.60938" cy="236.2048" rx="0.40213013" ry="0.40213013"/>
		<ellipse fill="red" cx="189.66267" cy="243.40967" rx="0.40213013" ry="0.40213013"/>
		<ellipse fill="red" cx="194.71596" cy="247.0121" rx="0.40213013" ry="0.40213013"/>
		<ellipse fill="red" cx="199.76926" cy="247.9127" rx="0.40213013" ry="0.40213013"/>
		<ellipse fill="red" cx="204.82254" cy="244.31027" rx="0.40213013" ry="0.40213013"/>
		<ellipse fill="red" cx="209.87584" cy="237.10541" rx="0.40213013" ry="0.40213013"/>
		<ellipse fill="red" cx="214.92914" cy="227.19873" rx="0.40213013" ry="0.40213013"/>
		<ellipse fill="red" cx="219.98242" cy="214.59024" rx="0.40213013" ry="0.40213013"/>
		<ellipse fill="red" cx="225.03572" cy="199.27991" rx="0.40213013" ry="0.40213013"/>
		<ellipse fill="red" cx="230.089" cy="183.069" rx="0.40213013" ry="0.40213013"/>
		<ellipse fill="red" cx="235.1423" cy="165.05685" rx="0.40213013" ry="0.40213013"/>
		<ellipse fill="red" cx="240.19559" cy="147.04471" rx="0.40213013" ry="0.40213013"/>
		<ellipse fill="red" cx="245.24889" cy="129.93317" rx="0.40213013" ry="0.40213013"/>
		<ellipse fill="red" cx="250.30217" cy="113.72224" rx="0.40213013" ry="0.4021225"/>
		<ellipse fill="red" cx="255.35547" cy="98.411926" rx="0.40213013" ry="0.4021225"/>
		<ellipse fill="red" cx="260.40875" cy="86.704025" rx="0.40213013" ry="0.4021225"/>
		<ellipse fill="red" cx="265.46204" cy="76.797348" rx="0.40213013" ry="0.4021225"/>
		<ellipse fill="red" cx="270.51535" cy="70.493103" rx="0.40213013" ry="0.4021225"/>
		<ellipse fill="red" cx="275.56863" cy="67.791275" rx="0.40213013" ry="0.4021225"/>
		<ellipse fill="red" cx="280.62195" cy="68.691895" rx="0.40213013" ry="0.4021225"/>
		<ellipse fill="red" cx="285.67523" cy="73.194931" rx="0.40213013" ry="0.4021225"/>
		<ellipse fill="red" cx="290.72852" cy="81.300385" rx="0.40213013" ry="0.4021225"/>
		<ellipse fill="red" cx="295.7818" cy="92.107666" rx="0.40213013" ry="0.4021225"/>
		<ellipse fill="red" cx="300.83508" cy="105.61678" rx="0.40213013" ry="0.4021225"/>
		<ellipse fill="red" cx="305.8884" cy="120.92709" rx="0.40213013" ry="0.4021225"/>
		<ellipse fill="red" cx="310.94168" cy="138.03864" rx="0.40213013" ry="0.40213013"/>
		<ellipse fill="red" cx="315.99496" cy="156.05078" rx="0.40213013" ry="0.40213013"/>
		<ellipse fill="red" cx="321.04828" cy="173.16232" rx="0.40213013" ry="0.40213013"/>
		<ellipse fill="red" cx="326.10156" cy="191.17445" rx="0.40213013" ry="0.40213013"/>
		<ellipse fill="red" cx="331.15485" cy="206.48477" rx="0.40213013" ry="0.40213013"/>
		<ellipse fill="red" cx="336.20813" cy="220.89449" rx="0.40213013" ry="0.40213013"/>
		<ellipse fill="red" cx="341.26144" cy="232.60239" rx="0.40213013" ry="0.40213013"/>
		<ellipse fill="red" cx="346.31473" cy="240.70784" rx="0.40213013" ry="0.40213013"/>
		<ellipse fill="red" cx="351.36801" cy="246.11148" rx="0.40213013" ry="0.40213013"/>
		<ellipse fill="red" cx="356.4213" cy="247.9127" rx="0.40213013" ry="0.40213013"/>
		<ellipse fill="red" cx="361.47461" cy="246.11148" rx="0.40213013" ry="0.40213013"/>
		<ellipse fill="red" cx="366.52789" cy="240.70784" rx="0.40213013" ry="0.40213013"/>
		<ellipse fill="red" cx="371.58118" cy="231.70178" rx="0.40213013" ry="0.40213013"/>
		<ellipse fill="red" cx="376.63449" cy="219.99388" rx="0.40213013" ry="0.40213013"/>
		<ellipse fill="red" cx="381.68777" cy="206.48477" rx="0.40213013" ry="0.40213013"/>
		<ellipse fill="red" cx="386.74106" cy="190.27385" rx="0.40213013" ry="0.40213013"/>
		<ellipse fill="red" cx="391.79434" cy="173.16232" rx="0.40213013" ry="0.40213013"/>
		<ellipse fill="red" cx="396.84766" cy="155.15018" rx="0.40213013" ry="0.40213013"/>
		<ellipse fill="red" cx="401.90094" cy="137.13803" rx="0.40213013" ry="0.40213013"/>
		<ellipse fill="red" cx="406.95422" cy="120.02649" rx="0.40213013" ry="0.4021225"/>
		<ellipse fill="red" cx="412.00751" cy="104.71617" rx="0.40213013" ry="0.4021225"/>
		<ellipse fill="red" cx="417.06082" cy="91.207062" rx="0.40213013" ry="0.4021225"/>
	</g>
	<clipPath id="cl_20">
		<rect x="40.337891" y="46.28125" width="394.66211" height="223.75781"/>
	</clipPath>
	<g clip-path="url(#cl_20)">
		<path fill="none" stroke="blue" stroke-width="4" stroke-miterlimit="4" d="M58.2771 157.486L58.2771 157.486L63.3304 157.314L68.3837 157.486L73.437 157.315L78.4902 157.487L83.5435 157.315L88.5968 145.855L93.6501 132.356L98.7034 117.733L103.757 103.556L108.81 90.6828L113.863 79.7332L118.917 71.743L123.97 67.1589L129.023 65.9884L134.076 68.5108L139.13 74.6126L144.183 84.1886L149.236 97.1431L154.29 112.496L159.343 129.811L164.396 148.462L169.45 167.391L174.503 186.118L179.556 204.001L184.609 219.985L189.663 233.602L194.716 244.233L199.769 251.739L204.823 255.446L209.876 255.178L214.929 251.126L219.982 243.454L225.036 232.303L230.089 218.388L235.142 201.951L240.196 183.773L245.249 164.734L250.302 145.479L255.355 126.478L260.409 108.961L265.462 93.2235L270.515 80.0615L275.569 70.0412L280.622 63.5566L285.675 60.8741L290.729 62.1652L295.782 67.2347L300.835 75.9164L305.888 87.7712L310.942 102.46L315.995 119.423L321.048 137.647L326.102 156.974L331.155 176.104L336.208 194.678L341.261 211.849L346.315 226.709L351.368 238.906L356.421 247.904L361.475 253.333L366.528 254.942L371.581 252.571L376.634 246.424L381.688 236.969L386.741 224.273L391.794 208.994L396.848 191.626L401.901 172.84L406.954 153.427L412.008 134.266L417.061 115.997"/>
		<ellipse fill="blue" cx="58.277077" cy="157.48618" rx="0.40212631" ry="0.40213013"/>
		<ellipse fill="blue" cx="63.330368" cy="157.31433" rx="0.40212631" ry="0.40213013"/>
		<ellipse fill="blue" cx="68.383659" cy="157.48647" rx="0.4021225" ry="0.40213013"/>
		<ellipse fill="blue" cx="73.436951" cy="157.31487" rx="0.4021225" ry="0.40213013"/>
		<ellipse fill="blue" cx="78.49025" cy="157.48666" rx="0.4021225" ry="0.40213013"/>
		<ellipse fill="blue" cx="83.543533" cy="157.31525" rx="0.4021225" ry="0.40213013"/>
		<ellipse fill="blue" cx="88.596832" cy="145.85489" rx="0.4021225" ry="0.40213013"/>
		<ellipse fill="blue" cx="93.650124" cy="132.35634" rx="0.4021225" ry="0.40213013"/>
		<ellipse fill="blue" cx="98.703415" cy="117.73288" rx="0.4021225" ry="0.4021225"/>
		<ellipse fill="blue" cx="103.75671" cy="103.55597" rx="0.4021225" ry="0.4021225"/>
		<ellipse fill="blue" cx="108.81" cy="90.682846" rx="0.4021225" ry="0.4021225"/>
		<ellipse fill="blue" cx="113.86329" cy="79.73317" rx="0.4021225" ry="0.4021225"/>
		<ellipse fill="blue" cx="118.91658" cy="71.743027" rx="0.4021225" ry="0.4021225"/>
		<ellipse fill="blue" cx="123.96987" cy="67.15892" rx="0.4021225" ry="0.4021225"/>
		<ellipse fill="blue" cx="129.02316" cy="65.988373" rx="0.40213013" ry="0.4021225"/>
		<ellipse fill="blue" cx="134.07646" cy="68.510818" rx="0.40213013" ry="0.4021225"/>
		<ellipse fill="blue" cx="139.12976" cy="74.612564" rx="0.40213013" ry="0.4021225"/>
		<ellipse fill="blue" cx="144.18304" cy="84.188568" rx="0.40213013" ry="0.4021225"/>
		<ellipse fill="blue" cx="149.23633" cy="97.143066" rx="0.40213013" ry="0.4021225"/>
		<ellipse fill="blue" cx="154.28963" cy="112.49635" rx="0.40213013" ry="0.4021225"/>
		<ellipse fill="blue" cx="159.34293" cy="129.81117" rx="0.40213013" ry="0.40213013"/>
		<ellipse fill="blue" cx="164.39621" cy="148.46204" rx="0.40213013" ry="0.40213013"/>
		<ellipse fill="blue" cx="169.44951" cy="167.39066" rx="0.40213013" ry="0.40213013"/>
		<ellipse fill="blue" cx="174.50279" cy="186.11761" rx="0.40213013" ry="0.40213013"/>
		<ellipse fill="blue" cx="179.55609" cy="204.00119" rx="0.40213013" ry="0.40213013"/>
		<ellipse fill="blue" cx="184.60938" cy="219.98468" rx="0.40213013" ry="0.40213013"/>
		<ellipse fill="blue" cx="189.66267" cy="233.60219" rx="0.40213013" ry="0.40213013"/>
		<ellipse fill="blue" cx="194.71596" cy="244.233" rx="0.40213013" ry="0.40213013"/>
		<ellipse fill="blue" cx="199.76926" cy="251.73897" rx="0.40213013" ry="0.40213013"/>
		<ellipse fill="blue" cx="204.82254" cy="255.44617" rx="0.40213013" ry="0.40213013"/>
		<ellipse fill="blue" cx="209.87584" cy="255.17786" rx="0.40213013" ry="0.40213013"/>
		<ellipse fill="blue" cx="214.92914" cy="251.12582" rx="0.40213013" ry="0.40213013"/>
		<ellipse fill="blue" cx="219.98242" cy="243.45419" rx="0.40213013" ry="0.40213013"/>
		<ellipse fill="blue" cx="225.03572" cy="232.30318" rx="0.40213013" ry="0.40213013"/>
		<ellipse fill="blue" cx="230.089" cy="218.38777" rx="0.40213013" ry="0.40213013"/>
		<ellipse fill="blue" cx="235.1423" cy="201.9505" rx="0.40213013" ry="0.40213013"/>
		<ellipse fill="blue" cx="240.19559" cy="183.77298" rx="0.40213013" ry="0.40213013"/>
		<ellipse fill="blue" cx="245.24889" cy="164.7337" rx="0.40213013" ry="0.40213013"/>
		<ellipse fill="blue" cx="250.30217" cy="145.479" rx="0.40213013" ry="0.40213013"/>
		<ellipse fill="blue" cx="255.35547" cy="126.47841" rx="0.40213013" ry="0.4021225"/>
		<ellipse fill="blue" cx="260.40875" cy="108.96083" rx="0.40213013" ry="0.4021225"/>
		<ellipse fill="blue" cx="265.46204" cy="93.223495" rx="0.40213013" ry="0.4021225"/>
		<ellipse fill="blue" cx="270.51535" cy="80.061523" rx="0.40213013" ry="0.4021225"/>
		<ellipse fill="blue" cx="275.56863" cy="70.041153" rx="0.40213013" ry="0.4021225"/>
		<ellipse fill="blue" cx="280.62195" cy="63.556641" rx="0.40213013" ry="0.40212631"/>
		<ellipse fill="blue" cx="285.67523" cy="60.874146" rx="0.40213013" ry="0.40212631"/>
		<ellipse fill="blue" cx="290.72852" cy="62.165222" rx="0.40213013" ry="0.40212631"/>
		<ellipse fill="blue" cx="295.7818" cy="67.234726" rx="0.40213013" ry="0.4021225"/>
		<ellipse fill="blue" cx="300.83508" cy="75.916428" rx="0.40213013" ry="0.4021225"/>
		<ellipse fill="blue" cx="305.8884" cy="87.771225" rx="0.40213013" ry="0.4021225"/>
		<ellipse fill="blue" cx="310.94168" cy="102.45987" rx="0.40213013" ry="0.4021225"/>
		<ellipse fill="blue" cx="315.99496" cy="119.42334" rx="0.40213013" ry="0.4021225"/>
		<ellipse fill="blue" cx="321.04828" cy="137.64658" rx="0.40213013" ry="0.40213013"/>
		<ellipse fill="blue" cx="326.10156" cy="156.97411" rx="0.40213013" ry="0.40213013"/>
		<ellipse fill="blue" cx="331.15485" cy="176.10422" rx="0.40213013" ry="0.40213013"/>
		<ellipse fill="blue" cx="336.20813" cy="194.67819" rx="0.40213013" ry="0.40213013"/>
		<ellipse fill="blue" cx="341.26144" cy="211.84903" rx="0.40213013" ry="0.40213013"/>
		<ellipse fill="blue" cx="346.31473" cy="226.70912" rx="0.40213013" ry="0.40213013"/>
		<ellipse fill="blue" cx="351.36801" cy="238.90588" rx="0.40213013" ry="0.40213013"/>
		<ellipse fill="blue" cx="356.4213" cy="247.9043" rx="0.40213013" ry="0.40213013"/>
		<ellipse fill="blue" cx="361.47461" cy="253.33286" rx="0.40213013" ry="0.40213013"/>
		<ellipse fill="blue" cx="366.52789" cy="254.9418" rx="0.40213013" ry="0.40213013"/>
		<ellipse fill="blue" cx="371.58118" cy="252.57112" rx="0.40213013" ry="0.40213013"/>
		<ellipse fill="blue" cx="376.63449" cy="246.42386" rx="0.40213013" ry="0.40213013"/>
		<ellipse fill="blue" cx="381.68777" cy="236.96921" rx="0.40213013" ry="0.40213013"/>
		<ellipse fill="blue" cx="386.74106" cy="224.27332" rx="0.40213013" ry="0.40213013"/>
		<ellipse fill="blue" cx="391.79434" cy="208.99377" rx="0.40213013" ry="0.40213013"/>
		<ellipse fill="blue" cx="396.84766" cy="191.62637" rx="0.40213013" ry="0.40213013"/>
		<ellipse fill="blue" cx="401.90094" cy="172.84001" rx="0.40213013" ry="0.40213013"/>
		<ellipse fill="blue" cx="406.95422" cy="153.42708" rx="0.40213013" ry="0.40213013"/>
		<ellipse fill="blue" cx="412.00751" cy="134.26624" rx="0.40213013" ry="0.40213013"/>
		<ellipse fill="blue" cx="417.06082" cy="115.99687" rx="0.40213013" ry="0.4021225"/>
	</g>
	<path fill="none" stroke="black" stroke-width="1" stroke-miterlimit="4" d="M58.2771 270.039L58.2771 274.039"/>
	<text transform="translate(58.2771 276.039)" font-size="12" font-family="Segoe UI" x="-3.234375, " y="11.027344, ">
			0
	</text>
	<path fill="none" stroke="black" stroke-width="1" stroke-miterlimit="4" d="M83.5435 270.039L83.5435 274.039"/>
	<text transform="translate(83.5435 276.039)" font-size="12" font-family="Segoe UI" x="-3.234375, " y="11.027344, ">
			5
	</text>
	<path fill="none" stroke="black" stroke-width="1" stroke-miterlimit="4" d="M108.81 270.039L108.81 274.039"/>
	<text transform="translate(108.81 276.039)" font-size="12" font-family="Segoe UI" x="-6.46875, 0, " y="11.027344, ">
			10
	</text>
	<path fill="none" stroke="black" stroke-width="1" stroke-miterlimit="4" d="M134.076 270.039L134.076 274.039"/>
	<text transform="translate(134.076 276.039)" font-size="12" font-family="Segoe UI" x="-6.46875, 0, " y="11.027344, ">
			15
	</text>
	<path fill="none" stroke="black" stroke-width="1" stroke-miterlimit="4" d="M159.343 270.039L159.343 274.039"/>
	<text transform="translate(159.343 276.039)" font-size="12" font-family="Segoe UI" x="-6.46875, 0, " y="11.027344, ">
			20
	</text>
	<path fill="none" stroke="black" stroke-width="1" stroke-miterlimit="4" d="M184.609 270.039L184.609 274.039"/>
	<text transform="translate(184.609 276.039)" font-size="12" font-family="Segoe UI" x="-6.46875, 0, " y="11.027344, ">
			25
	</text>
	<path fill="none" stroke="black" stroke-width="1" stroke-miterlimit="4" d="M209.876 270.039L209.876 274.039"/>
	<text transform="translate(209.876 276.039)" font-size="12" font-family="Segoe UI" x="-6.46875, 0, " y="11.027344, ">
			30
	</text>
	<path fill="none" stroke="black" stroke-width="1" stroke-miterlimit="4" d="M235.142 270.039L235.142 274.039"/>
	<text transform="translate(235.142 276.039)" font-size="12" font-family="Segoe UI" x="-6.46875, 0, " y="11.027344, ">
			35
	</text>
	<path fill="none" stroke="black" stroke-width="1" stroke-miterlimit="4" d="M260.409 270.039L260.409 274.039"/>
	<text transform="translate(260.409 276.039)" font-size="12" font-family="Segoe UI" x="-6.46875, 0, " y="11.027344, ">
			40
	</text>
	<path fill="none" stroke="black" stroke-width="1" stroke-miterlimit="4" d="M285.675 270.039L285.675 274.039"/>
	<text transform="translate(285.675 276.039)" font-size="12" font-family="Segoe UI" x="-6.46875, 0, " y="11.027344, ">
			45
	</text>
	<path fill="none" stroke="black" stroke-width="1" stroke-miterlimit="4" d="M310.942 270.039L310.942 274.039"/>
	<text transform="translate(310.942 276.039)" font-size="12" font-family="Segoe UI" x="-6.46875, 0, " y="11.027344, ">
			50
	</text>
	<path fill="none" stroke="black" stroke-width="1" stroke-miterlimit="4" d="M336.208 270.039L336.208 274.039"/>
	<text transform="translate(336.208 276.039)" font-size="12" font-family="Segoe UI" x="-6.46875, 0, " y="11.027344, ">
			55
	</text>
	<path fill="none" stroke="black" stroke-width="1" stroke-miterlimit="4" d="M361.475 270.039L361.475 274.039"/>
	<text transform="translate(361.475 276.039)" font-size="12" font-family="Segoe UI" x="-6.46875, 0, " y="11.027344, ">
			60
	</text>
	<path fill="none" stroke="black" stroke-width="1" stroke-miterlimit="4" d="M386.741 270.039L386.741 274.039"/>
	<text transform="translate(386.741 276.039)" font-size="12" font-family="Segoe UI" x="-6.46875, 0, " y="11.027344, ">
			65
	</text>
	<path fill="none" stroke="black" stroke-width="1" stroke-miterlimit="4" d="M412.008 270.039L412.008 274.039"/>
	<text transform="translate(412.008 276.039)" font-size="12" font-family="Segoe UI" x="-6.46875, 0, " y="11.027344, ">
			70
	</text>
	<path fill="none" stroke="black" stroke-width="1" stroke-miterlimit="4" d="M43.1172 270.039L43.1172 272.039"/>
	<path fill="none" stroke="black" stroke-width="1" stroke-miterlimit="4" d="M48.1705 270.039L48.1705 272.039"/>
	<path fill="none" stroke="black" stroke-width="1" stroke-miterlimit="4" d="M53.2238 270.039L53.2238 272.039"/>
	<path fill="none" stroke="black" stroke-width="1" stroke-miterlimit="4" d="M63.3304 270.039L63.3304 272.039"/>
	<path fill="none" stroke="black" stroke-width="1" stroke-miterlimit="4" d="M68.3837 270.039L68.3837 272.039"/>
	<path fill="none" stroke="black" stroke-width="1" stroke-miterlimit="4" d="M73.437 270.039L73.437 272.039"/>
	<path fill="none" stroke="black" stroke-width="1" stroke-miterlimit="4" d="M78.4902 270.039L78.4902 272.039"/>
	<path fill="none" stroke="black" stroke-width="1" stroke-miterlimit="4" d="M88.5968 270.039L88.5968 272.039"/>
	<path fill="none" stroke="black" stroke-width="1" stroke-miterlimit="4" d="M93.6501 270.039L93.6501 272.039"/>
	<path fill="none" stroke="black" stroke-width="1" stroke-miterlimit="4" d="M98.7034 270.039L98.7034 272.039"/>
	<path fill="none" stroke="black" stroke-width="1" stroke-miterlimit="4" d="M103.757 270.039L103.757 272.039"/>
	<path fill="none" stroke="black" stroke-width="1" stroke-miterlimit="4" d="M113.863 270.039L113.863 272.039"/>
	<path fill="none" stroke="black" stroke-width="1" stroke-miterlimit="4" d="M118.917 270.039L118.917 272.039"/>
	<path fill="none" stroke="black" stroke-width="1" stroke-miterlimit="4" d="M123.97 270.039L123.97 272.039"/>
	<path fill="none" stroke="black" stroke-width="1" stroke-miterlimit="4" d="M129.023 270.039L129.023 272.039"/>
	<path fill="none" stroke="black" stroke-width="1" stroke-miterlimit="4" d="M139.13 270.039L139.13 272.039"/>
	<path fill="none" stroke="black" stroke-width="1" stroke-miterlimit="4" d="M144.183 270.039L144.183 272.039"/>
	<path fill="none" stroke="black" stroke-width="1" stroke-miterlimit="4" d="M149.236 270.039L149.236 272.039"/>
	<path fill="none" stroke="black" stroke-width="1" stroke-miterlimit="4" d="M154.29 270.039L154.29 272.039"/>
	<path fill="none" stroke="black" stroke-width="1" stroke-miterlimit="4" d="M164.396 270.039L164.396 272.039"/>
	<path fill="none" stroke="black" stroke-width="1" stroke-miterlimit="4" d="M169.45 270.039L169.45 272.039"/>
	<path fill="none" stroke="black" stroke-width="1" stroke-miterlimit="4" d="M174.503 270.039L174.503 272.039"/>
	<path fill="none" stroke="black" stroke-width="1" stroke-miterlimit="4" d="M179.556 270.039L179.556 272.039"/>
	<path fill="none" stroke="black" stroke-width="1" stroke-miterlimit="4" d="M189.663 270.039L189.663 272.039"/>
	<path fill="none" stroke="black" stroke-width="1" stroke-miterlimit="4" d="M194.716 270.039L194.716 272.039"/>
	<path fill="none" stroke="black" stroke-width="1" stroke-miterlimit="4" d="M199.769 270.039L199.769 272.039"/>
	<path fill="none" stroke="black" stroke-width="1" stroke-miterlimit="4" d="M204.823 270.039L204.823 272.039"/>
	<path fill="none" stroke="black" stroke-width="1" stroke-miterlimit="4" d="M214.929 270.039L214.929 272.039"/>
	<path fill="none" stroke="black" stroke-width="1" stroke-miterlimit="4" d="M219.982 270.039L219.982 272.039"/>
	<path fill="none" stroke="black" stroke-width="1" stroke-miterlimit="4" d="M225.036 270.039L225.036 272.039"/>
	<path fill="none" stroke="black" stroke-width="1" stroke-miterlimit="4" d="M230.089 270.039L230.089 272.039"/>
	<path fill="none" stroke="black" stroke-width="1" stroke-miterlimit="4" d="M240.196 270.039L240.196 272.039"/>
	<path fill="none" stroke="black" stroke-width="1" stroke-miterlimit="4" d="M245.249 270.039L245.249 272.039"/>
	<path fill="none" stroke="black" stroke-width="1" stroke-miterlimit="4" d="M250.302 270.039L250.302 272.039"/>
	<path fill="none" stroke="black" stroke-width="1" stroke-miterlimit="4" d="M255.355 270.039L255.355 272.039"/>
	<path fill="none" stroke="black" stroke-width="1" stroke-miterlimit="4" d="M265.462 270.039L265.462 272.039"/>
	<path fill="none" stroke="black" stroke-width="1" stroke-miterlimit="4" d="M270.515 270.039L270.515 272.039"/>
	<path fill="none" stroke="black" stroke-width="1" stroke-miterlimit="4" d="M275.569 270.039L275.569 272.039"/>
	<path fill="none" stroke="black" stroke-width="1" stroke-miterlimit="4" d="M280.622 270.039L280.622 272.039"/>
	<path fill="none" stroke="black" stroke-width="1" stroke-miterlimit="4" d="M290.729 270.039L290.729 272.039"/>
	<path fill="none" stroke="black" stroke-width="1" stroke-miterlimit="4" d="M295.782 270.039L295.782 272.039"/>
	<path fill="none" stroke="black" stroke-width="1" stroke-miterlimit="4" d="M300.835 270.039L300.835 272.039"/>
	<path fill="none" stroke="black" stroke-width="1" stroke-miterlimit="4" d="M305.888 270.039L305.888 272.039"/>
	<path fill="none" stroke="black" stroke-width="1" stroke-miterlimit="4" d="M315.995 270.039L315.995 272.039"/>
	<path fill="none" stroke="black" stroke-width="1" stroke-miterlimit="4" d="M321.048 270.039L321.048 272.039"/>
	<path fill="none" stroke="black" stroke-width="1" stroke-miterlimit="4" d="M326.102 270.039L326.102 272.039"/>
	<path fill="none" stroke="black" stroke-width="1" stroke-miterlimit="4" d="M331.155 270.039L331.155 272.039"/>
	<path fill="none" stroke="black" stroke-width="1" stroke-miterlimit="4" d="M341.261 270.039L341.261 272.039"/>
	<path fill="none" stroke="black" stroke-width="1" stroke-miterlimit="4" d="M346.315 270.039L346.315 272.039"/>
	<path fill="none" stroke="black" stroke-width="1" stroke-miterlimit="4" d="M351.368 270.039L351.368 272.039"/>
	<path fill="none" stroke="black" stroke-width="1" stroke-miterlimit="4" d="M356.421 270.039L356.421 272.039"/>
	<path fill="none" stroke="black" stroke-width="1" stroke-miterlimit="4" d="M366.528 270.039L366.528 272.039"/>
	<path fill="none" stroke="black" stroke-width="1" stroke-miterlimit="4" d="M371.581 270.039L371.581 272.039"/>
	<path fill="none" stroke="black" stroke-width="1" stroke-miterlimit="4" d="M376.634 270.039L376.634 272.039"/>
	<path fill="none" stroke="black" stroke-width="1" stroke-miterlimit="4" d="M381.688 270.039L381.688 272.039"/>
	<path fill="none" stroke="black" stroke-width="1" stroke-miterlimit="4" d="M391.794 270.039L391.794 272.039"/>
	<path fill="none" stroke="black" stroke-width="1" stroke-miterlimit="4" d="M396.848 270.039L396.848 272.039"/>
	<path fill="none" stroke="black" stroke-width="1" stroke-miterlimit="4" d="M401.901 270.039L401.901 272.039"/>
	<path fill="none" stroke="black" stroke-width="1" stroke-miterlimit="4" d="M406.954 270.039L406.954 272.039"/>
	<path fill="none" stroke="black" stroke-width="1" stroke-miterlimit="4" d="M417.061 270.039L417.061 272.039"/>
	<path fill="none" stroke="black" stroke-width="1" stroke-miterlimit="4" d="M422.114 270.039L422.114 272.039"/>
	<path fill="none" stroke="black" stroke-width="1" stroke-miterlimit="4" d="M427.167 270.039L427.167 272.039"/>
	<path fill="none" stroke="black" stroke-width="1" stroke-miterlimit="4" d="M432.221 270.039L432.221 272.039"/>
	<path fill="none" stroke="black" stroke-width="1" stroke-miterlimit="4" d="M40.3379 270.039L435 270.039"/>
	<path fill="none" stroke="black" stroke-width="1" stroke-miterlimit="4" d="M40.3379 46.3812L435 46.3812"/>
	<path fill="none" stroke="black" stroke-width="1" stroke-miterlimit="4" d="M40.3379 247.913L36.3379 247.913"/>
	<text transform="translate(31.3379 247.913)" font-size="12" font-family="Segoe UI" x="-11.267578, -6.46875, " y="3.046875, ">
			-1
	</text>
	<path fill="none" stroke="black" stroke-width="1" stroke-miterlimit="4" d="M40.3379 202.882L36.3379 202.882"/>
	<text transform="translate(31.3379 202.882)" font-size="12" font-family="Segoe UI" x="-20.337891, -15.539063, -9.0703125, -6.46875, " y="3.046875, ">
			-0.5
	</text>
	<path fill="none" stroke="black" stroke-width="1" stroke-miterlimit="4" d="M40.3379 157.852L36.3379 157.852"/>
	<text transform="translate(31.3379 157.852)" font-size="12" font-family="Segoe UI" x="-6.46875, " y="3.046875, ">
			0
	</text>
	<path fill="none" stroke="black" stroke-width="1" stroke-miterlimit="4" d="M40.3379 112.822L36.3379 112.822"/>
	<text transform="translate(31.3379 112.822)" font-size="12" font-family="Segoe UI" x="-15.539063, -9.0703125, -6.46875, " y="3.046875, ">
			0.5
	</text>
	<path fill="none" stroke="black" stroke-width="1" stroke-miterlimit="4" d="M40.3379 67.7913L36.3379 67.7913"/>
	<text transform="translate(31.3379 67.7913)" font-size="12" font-family="Segoe UI" x="-6.46875, " y="3.046875, ">
			1
	</text>
	<path fill="none" stroke="black" stroke-width="1" stroke-miterlimit="4" d="M40.3379 265.925L38.3379 265.925"/>
	<path fill="none" stroke="black" stroke-width="1" stroke-miterlimit="4" d="M40.3379 256.919L38.3379 256.919"/>
	<path fill="none" stroke="black" stroke-width="1" stroke-miterlimit="4" d="M40.3379 238.907L38.3379 238.907"/>
	<path fill="none" stroke="black" stroke-width="1" stroke-miterlimit="4" d="M40.3379 229.901L38.3379 229.901"/>
	<path fill="none" stroke="black" stroke-width="1" stroke-miterlimit="4" d="M40.3379 220.894L38.3379 220.894"/>
	<path fill="none" stroke="black" stroke-width="1" stroke-miterlimit="4" d="M40.3379 211.888L38.3379 211.888"/>
	<path fill="none" stroke="black" stroke-width="1" stroke-miterlimit="4" d="M40.3379 193.876L38.3379 193.876"/>
	<path fill="none" stroke="black" stroke-width="1" stroke-miterlimit="4" d="M40.3379 184.87L38.3379 184.87"/>
	<path fill="none" stroke="black" stroke-width="1" stroke-miterlimit="4" d="M40.3379 175.864L38.3379 175.864"/>
	<path fill="none" stroke="black" stroke-width="1" stroke-miterlimit="4" d="M40.3379 166.858L38.3379 166.858"/>
	<path fill="none" stroke="black" stroke-width="1" stroke-miterlimit="4" d="M40.3379 148.846L38.3379 148.846"/>
	<path fill="none" stroke="black" stroke-width="1" stroke-miterlimit="4" d="M40.3379 139.84L38.3379 139.84"/>
	<path fill="none" stroke="black" stroke-width="1" stroke-miterlimit="4" d="M40.3379 130.834L38.3379 130.834"/>
	<path fill="none" stroke="black" stroke-width="1" stroke-miterlimit="4" d="M40.3379 121.828L38.3379 121.828"/>
	<path fill="none" stroke="black" stroke-width="1" stroke-miterlimit="4" d="M40.3379 103.816L38.3379 103.816"/>
	<path fill="none" stroke="black" stroke-width="1" stroke-miterlimit="4" d="M40.3379 94.8095L38.3379 94.8095"/>
	<path fill="none" stroke="black" stroke-width="1" stroke-miterlimit="4" d="M40.3379 85.8034L38.3379 85.8034"/>
	<path fill="none" stroke="black" stroke-width="1" stroke-miterlimit="4" d="M40.3379 76.7973L38.3379 76.7973"/>
	<path fill="none" stroke="black" stroke-width="1" stroke-miterlimit="4" d="M40.3379 58.7852L38.3379 58.7852"/>
	<path fill="none" stroke="black" stroke-width="1" stroke-miterlimit="4" d="M40.3379 49.7791L38.3379 49.7791"/>
	<path fill="none" stroke="black" stroke-width="1" stroke-miterlimit="4" d="M40.3379 270.039L40.3379 46.2813"/>
	<path fill="none" stroke="black" stroke-width="1" stroke-miterlimit="4" d="M435 270.039L435 46.2813"/>
	<text transform="translate(237.669 31.2813)" font-size="16" font-weight="600" font-family="Segoe UI" x="-62.121094, -53.152344, -48.605469, -38.925781, -30.269531, -25.855469, -19.386719, -14.972656, -3.1757813, 5.3398438, 20.652344, 31.902344, 37.808594, 47.011719, 56.214844, " y="-6.890625, ">
			Sine - DEMA(10)
	</text>
</svg>
