<?xml version="1.0" encoding="utf-8" ?>
<svg xmlns="http://www.w3.org/2000/svg" xmlns:xlink="http://www.w3.org/1999/xlink" width="450" height="300">
	<rect fill="white" width="450" height="300"/>
	<path fill="none" stroke="#010101" stroke-width="1" stroke-miterlimit="4" stroke-opacity="0.098039217" d="M53.6964 270.039L53.6964 46.2813M79.2701 270.039L79.2701 46.2813M104.844 270.039L104.844 46.2813M130.417 270.039L130.417 46.2813M155.991 270.039L155.991 46.2813M181.565 270.039L181.565 46.2813M207.138 270.039L207.138 46.2813M232.712 270.039L232.712 46.2813M258.286 270.039L258.286 46.2813M283.86 270.039L283.86 46.2813M309.433 270.039L309.433 46.2813M335.007 270.039L335.007 46.2813M360.581 270.039L360.581 46.2813M386.154 270.039L386.154 46.2813M411.728 270.039L411.728 46.2813"/>
	<path fill="none" stroke="#010101" stroke-width="1" stroke-miterlimit="4" stroke-opacity="0.098039217" d="M35.5391 253.873L435 253.873M35.5391 215.274L435 215.274M35.5391 176.674L435 176.674M35.5391 138.074L435 138.074M35.5391 99.474L435 99.474M35.5391 60.8741L435 60.8741"/>
	<clipPath id="cl_7">
		<rect x="35.539063" y="46.28125" width="399.46094" height="223.75781"/>
	</clipPath>
	<g clip-path="url(#cl_7)">
		<path fill="none" stroke="red" stroke-width="2" stroke-miterlimit="4" d="M53.6964 253.873L53.6964 253.873L58.8111 251.943L63.9258 253.873L69.0406 251.943L74.1553 253.873L79.2701 251.943L84.3848 253.873L89.4995 253.873L94.6143 253.873L99.729 253.873L104.844 253.873L109.958 253.873L115.073 253.873L120.188 253.873L125.303 253.873L130.417 253.873L135.532 253.873L140.647 253.873L145.762 253.873L150.876 253.873L155.991 253.873L161.106 253.873L166.221 253.873L171.335 253.873L176.45 253.873L181.565 253.873L186.68 253.873L191.794 253.873L196.909 253.873L202.024 253.873L207.138 253.873L212.253 253.873L217.368 253.873L222.483 253.873L227.597 253.873L232.712 253.873L237.827 253.873L242.942 253.873L248.056 253.873L253.171 60.8741L258.286 253.873L263.401 253.873L268.515 253.873L273.63 253.873L278.745 253.873L283.86 253.873L288.974 253.873L294.089 253.873L299.204 253.873L304.318 253.873L309.433 253.873L314.548 253.873L319.663 253.873L324.777 253.873L329.892 253.873L335.007 253.873L340.122 253.873L345.236 253.873L350.351 253.873L355.466 253.873L360.581 253.873L365.695 253.873L370.81 253.873L375.925 253.873L381.04 253.873L386.154 253.873L391.269 253.873L396.384 253.873L401.498 253.873L406.613 253.873L411.728 253.873L416.843 253.873"/>
		<ellipse fill="red" cx="53.696381" cy="253.87337" rx="0.4045639" ry="0.40455627"/>
		<ellipse fill="red" cx="58.811115" cy="251.94337" rx="0.4045639" ry="0.40455627"/>
		<ellipse fill="red" cx="63.92585" cy="253.87337" rx="0.4045639" ry="0.40455627"/>
		<ellipse fill="red" cx="69.040588" cy="251.94337" rx="0.4045639" ry="0.40455627"/>
		<ellipse fill="red" cx="74.155319" cy="253.87337" rx="0.4045639" ry="0.40455627"/>
		<ellipse fill="red" cx="79.270065" cy="251.94337" rx="0.4045639" ry="0.40455627"/>
		<ellipse fill="red" cx="84.384796" cy="253.87337" rx="0.4045639" ry="0.40455627"/>
		<ellipse fill="red" cx="89.499535" cy="253.87337" rx="0.4045639" ry="0.40455627"/>
		<ellipse fill="red" cx="94.614273" cy="253.87337" rx="0.4045639" ry="0.40455627"/>
		<ellipse fill="red" cx="99.729012" cy="253.87337" rx="0.4045639" ry="0.40455627"/>
		<ellipse fill="red" cx="104.84374" cy="253.87337" rx="0.4045639" ry="0.40455627"/>
		<ellipse fill="red" cx="109.95848" cy="253.87337" rx="0.4045639" ry="0.40455627"/>
		<ellipse fill="red" cx="115.07322" cy="253.87337" rx="0.4045639" ry="0.40455627"/>
		<ellipse fill="red" cx="120.18796" cy="253.87337" rx="0.4045639" ry="0.40455627"/>
		<ellipse fill="red" cx="125.30269" cy="253.87337" rx="0.4045639" ry="0.40455627"/>
		<ellipse fill="red" cx="130.41742" cy="253.87337" rx="0.40455627" ry="0.40455627"/>
		<ellipse fill="red" cx="135.53217" cy="253.87337" rx="0.40455627" ry="0.40455627"/>
		<ellipse fill="red" cx="140.64691" cy="253.87337" rx="0.40455627" ry="0.40455627"/>
		<ellipse fill="red" cx="145.76164" cy="253.87337" rx="0.40455627" ry="0.40455627"/>
		<ellipse fill="red" cx="150.87637" cy="253.87337" rx="0.40455627" ry="0.40455627"/>
		<ellipse fill="red" cx="155.99112" cy="253.87337" rx="0.40455627" ry="0.40455627"/>
		<ellipse fill="red" cx="161.10585" cy="253.87337" rx="0.40455627" ry="0.40455627"/>
		<ellipse fill="red" cx="166.22058" cy="253.87337" rx="0.40455627" ry="0.40455627"/>
		<ellipse fill="red" cx="171.33533" cy="253.87337" rx="0.40455627" ry="0.40455627"/>
		<ellipse fill="red" cx="176.45006" cy="253.87337" rx="0.40455627" ry="0.40455627"/>
		<ellipse fill="red" cx="181.56479" cy="253.87337" rx="0.40455627" ry="0.40455627"/>
		<ellipse fill="red" cx="186.67953" cy="253.87337" rx="0.40455627" ry="0.40455627"/>
		<ellipse fill="red" cx="191.79427" cy="253.87337" rx="0.40455627" ry="0.40455627"/>
		<ellipse fill="red" cx="196.90901" cy="253.87337" rx="0.40455627" ry="0.40455627"/>
		<ellipse fill="red" cx="202.02374" cy="253.87337" rx="0.40455627" ry="0.40455627"/>
		<ellipse fill="red" cx="207.13847" cy="253.87337" rx="0.40455627" ry="0.40455627"/>
		<ellipse fill="red" cx="212.25322" cy="253.87337" rx="0.40455627" ry="0.40455627"/>
		<ellipse fill="red" cx="217.36795" cy="253.87337" rx="0.40455627" ry="0.40455627"/>
		<ellipse fill="red" cx="222.4827" cy="253.87337" rx="0.40455627" ry="0.40455627"/>
		<ellipse fill="red" cx="227.59743" cy="253.87337" rx="0.40455627" ry="0.40455627"/>
		<ellipse fill="red" cx="232.71216" cy="253.87337" rx="0.40455627" ry="0.40455627"/>
		<ellipse fill="red" cx="237.8269" cy="253.87337" rx="0.40455627" ry="0.40455627"/>
		<ellipse fill="red" cx="242.94164" cy="253.87337" rx="0.40455627" ry="0.40455627"/>
		<ellipse fill="red" cx="248.05637" cy="253.87337" rx="0.40455627" ry="0.40455627"/>
		<ellipse fill="red" cx="253.17111" cy="60.874146" rx="0.40455627" ry="0.4045639"/>
		<ellipse fill="red" cx="258.28583" cy="253.87337" rx="0.40457153" ry="0.40455627"/>
		<ellipse fill="red" cx="263.40057" cy="253.87337" rx="0.40457153" ry="0.40455627"/>
		<ellipse fill="red" cx="268.51532" cy="253.87337" rx="0.40457153" ry="0.40455627"/>
		<ellipse fill="red" cx="273.63007" cy="253.87337" rx="0.40457153" ry="0.40455627"/>
		<ellipse fill="red" cx="278.74481" cy="253.87337" rx="0.40457153" ry="0.40455627"/>
		<ellipse fill="red" cx="283.85953" cy="253.87337" rx="0.40457153" ry="0.40455627"/>
		<ellipse fill="red" cx="288.97427" cy="253.87337" rx="0.40457153" ry="0.40455627"/>
		<ellipse fill="red" cx="294.08899" cy="253.87337" rx="0.40457153" ry="0.40455627"/>
		<ellipse fill="red" cx="299.20374" cy="253.87337" rx="0.40457153" ry="0.40455627"/>
		<ellipse fill="red" cx="304.31848" cy="253.87337" rx="0.40457153" ry="0.40455627"/>
		<ellipse fill="red" cx="309.43323" cy="253.87337" rx="0.40457153" ry="0.40455627"/>
		<ellipse fill="red" cx="314.54794" cy="253.87337" rx="0.40457153" ry="0.40455627"/>
		<ellipse fill="red" cx="319.66269" cy="253.87337" rx="0.40457153" ry="0.40455627"/>
		<ellipse fill="red" cx="324.77744" cy="253.87337" rx="0.40457153" ry="0.40455627"/>
		<ellipse fill="red" cx="329.89215" cy="253.87337" rx="0.40457153" ry="0.40455627"/>
		<ellipse fill="red" cx="335.0069" cy="253.87337" rx="0.40457153" ry="0.40455627"/>
		<ellipse fill="red" cx="340.12164" cy="253.87337" rx="0.40457153" ry="0.40455627"/>
		<ellipse fill="red" cx="345.23636" cy="253.87337" rx="0.40457153" ry="0.40455627"/>
		<ellipse fill="red" cx="350.3511" cy="253.87337" rx="0.40457153" ry="0.40455627"/>
		<ellipse fill="red" cx="355.46585" cy="253.87337" rx="0.40457153" ry="0.40455627"/>
		<ellipse fill="red" cx="360.58057" cy="253.87337" rx="0.40457153" ry="0.40455627"/>
		<ellipse fill="red" cx="365.69531" cy="253.87337" rx="0.40457153" ry="0.40455627"/>
		<ellipse fill="red" cx="370.81006" cy="253.87337" rx="0.40457153" ry="0.40455627"/>
		<ellipse fill="red" cx="375.9248" cy="253.87337" rx="0.40457153" ry="0.40455627"/>
		<ellipse fill="red" cx="381.03952" cy="253.87337" rx="0.40457153" ry="0.40455627"/>
		<ellipse fill="red" cx="386.15427" cy="253.87337" rx="0.40457153" ry="0.40455627"/>
		<ellipse fill="red" cx="391.26901" cy="253.87337" rx="0.40457153" ry="0.40455627"/>
		<ellipse fill="red" cx="396.38373" cy="253.87337" rx="0.40457153" ry="0.40455627"/>
		<ellipse fill="red" cx="401.49847" cy="253.87337" rx="0.40457153" ry="0.40455627"/>
		<ellipse fill="red" cx="406.61322" cy="253.87337" rx="0.40457153" ry="0.40455627"/>
		<ellipse fill="red" cx="411.72794" cy="253.87337" rx="0.40457153" ry="0.40455627"/>
		<ellipse fill="red" cx="416.84268" cy="253.87337" rx="0.40457153" ry="0.40455627"/>
	</g>
	<clipPath id="cl_8">
		<rect x="35.539063" y="46.28125" width="399.46094" height="223.75781"/>
	</clipPath>
	<g clip-path="url(#cl_8)">
		<path fill="none" stroke="blue" stroke-width="4" stroke-miterlimit="4" d="M53.6964 253.089L53.6964 253.089L58.8111 252.721L63.9258 253.09L69.0406 252.722L74.1553 253.09L79.2701 252.723L84.3848 253.091L89.4995 253.363L94.6143 253.561L99.729 253.705L104.844 253.806L109.958 253.876L115.073 253.923L120.188 253.953L125.303 253.97L130.417 253.978L135.532 253.98L140.647 253.978L145.762 253.973L150.876 253.967L155.991 253.959L161.106 253.951L166.221 253.944L171.335 253.936L176.45 253.929L181.565 253.922L186.68 253.916L191.794 253.911L196.909 253.906L202.024 253.902L207.138 253.898L212.253 253.894L217.368 253.891L222.483 253.889L227.597 253.887L232.712 253.885L237.827 253.883L242.942 253.882L248.056 253.88L253.171 190.078L258.286 206.897L263.401 219.71L268.515 229.416L273.63 236.722L278.745 242.18L283.86 246.22L288.974 249.177L294.089 251.312L299.204 252.826L304.318 253.874L309.433 254.576L314.548 255.022L319.663 255.283L324.777 255.411L329.892 255.446L335.007 255.417L340.122 255.347L345.236 255.252L350.351 255.142L355.466 255.027L360.581 254.911L365.695 254.8L370.81 254.694L375.925 254.597L381.04 254.508L386.154 254.427L391.269 254.355L396.384 254.29L401.498 254.233L406.613 254.183L411.728 254.14L416.843 254.102"/>
		<ellipse fill="blue" cx="53.696381" cy="253.08945" rx="0.4045639" ry="0.40455627"/>
		<ellipse fill="blue" cx="58.811115" cy="252.72116" rx="0.4045639" ry="0.40455627"/>
		<ellipse fill="blue" cx="63.92585" cy="253.09004" rx="0.4045639" ry="0.40455627"/>
		<ellipse fill="blue" cx="69.040588" cy="252.72232" rx="0.4045639" ry="0.40455627"/>
		<ellipse fill="blue" cx="74.155319" cy="253.0905" rx="0.4045639" ry="0.40455627"/>
		<ellipse fill="blue" cx="79.270065" cy="252.72313" rx="0.4045639" ry="0.40455627"/>
		<ellipse fill="blue" cx="84.384796" cy="253.09084" rx="0.4045639" ry="0.40455627"/>
		<ellipse fill="blue" cx="89.499535" cy="253.36264" rx="0.4045639" ry="0.40455627"/>
		<ellipse fill="blue" cx="94.614273" cy="253.56136" rx="0.4045639" ry="0.40455627"/>
		<ellipse fill="blue" cx="99.729012" cy="253.70462" rx="0.4045639" ry="0.40455627"/>
		<ellipse fill="blue" cx="104.84374" cy="253.80605" rx="0.4045639" ry="0.40455627"/>
		<ellipse fill="blue" cx="109.95848" cy="253.87613" rx="0.4045639" ry="0.40455627"/>
		<ellipse fill="blue" cx="115.07322" cy="253.92294" rx="0.4045639" ry="0.40455627"/>
		<ellipse fill="blue" cx="120.18796" cy="253.95262" rx="0.4045639" ry="0.40455627"/>
		<ellipse fill="blue" cx="125.30269" cy="253.96986" rx="0.4045639" ry="0.40455627"/>
		<ellipse fill="blue" cx="130.41742" cy="253.97821" rx="0.40455627" ry="0.40455627"/>
		<ellipse fill="blue" cx="135.53217" cy="253.98033" rx="0.40455627" ry="0.40455627"/>
		<ellipse fill="blue" cx="140.64691" cy="253.97821" rx="0.40455627" ry="0.40455627"/>
		<ellipse fill="blue" cx="145.76164" cy="253.97333" rx="0.40455627" ry="0.40455627"/>
		<ellipse fill="blue" cx="150.87637" cy="253.96675" rx="0.40455627" ry="0.40455627"/>
		<ellipse fill="blue" cx="155.99112" cy="253.95926" rx="0.40455627" ry="0.40455627"/>
		<ellipse fill="blue" cx="161.10585" cy="253.95142" rx="0.40455627" ry="0.40455627"/>
		<ellipse fill="blue" cx="166.22058" cy="253.94357" rx="0.40455627" ry="0.40455627"/>
		<ellipse fill="blue" cx="171.33533" cy="253.936" rx="0.40455627" ry="0.40455627"/>
		<ellipse fill="blue" cx="176.45006" cy="253.92886" rx="0.40455627" ry="0.40455627"/>
		<ellipse fill="blue" cx="181.56479" cy="253.92226" rx="0.40455627" ry="0.40455627"/>
		<ellipse fill="blue" cx="186.67953" cy="253.91621" rx="0.40455627" ry="0.40455627"/>
		<ellipse fill="blue" cx="191.79427" cy="253.91075" rx="0.40455627" ry="0.40455627"/>
		<ellipse fill="blue" cx="196.90901" cy="253.90587" rx="0.40455627" ry="0.40455627"/>
		<ellipse fill="blue" cx="202.02374" cy="253.90152" rx="0.40455627" ry="0.40455627"/>
		<ellipse fill="blue" cx="207.13847" cy="253.89767" rx="0.40455627" ry="0.40455627"/>
		<ellipse fill="blue" cx="212.25322" cy="253.8943" rx="0.40455627" ry="0.40455627"/>
		<ellipse fill="blue" cx="217.36795" cy="253.89134" rx="0.40455627" ry="0.40455627"/>
		<ellipse fill="blue" cx="222.4827" cy="253.88878" rx="0.40455627" ry="0.40455627"/>
		<ellipse fill="blue" cx="227.59743" cy="253.88655" rx="0.40455627" ry="0.40455627"/>
		<ellipse fill="blue" cx="232.71216" cy="253.88461" rx="0.40455627" ry="0.40455627"/>
		<ellipse fill="blue" cx="237.8269" cy="253.88295" rx="0.40455627" ry="0.40455627"/>
		<ellipse fill="blue" cx="242.94164" cy="253.88153" rx="0.40455627" ry="0.40455627"/>
		<ellipse fill="blue" cx="248.05637" cy="253.88029" rx="0.40455627" ry="0.40455627"/>
		<ellipse fill="blue" cx="253.17111" cy="190.0777" rx="0.40455627" ry="0.40455627"/>
		<ellipse fill="blue" cx="258.28583" cy="206.89725" rx="0.40457153" ry="0.40455627"/>
		<ellipse fill="blue" cx="263.40057" cy="219.70953" rx="0.40457153" ry="0.40455627"/>
		<ellipse fill="blue" cx="268.51532" cy="229.41573" rx="0.40457153" ry="0.40455627"/>
		<ellipse fill="blue" cx="273.63007" cy="236.72177" rx="0.40457153" ry="0.40455627"/>
		<ellipse fill="blue" cx="278.74481" cy="242.1796" rx="0.40457153" ry="0.40455627"/>
		<ellipse fill="blue" cx="283.85953" cy="246.21976" rx="0.40457153" ry="0.40455627"/>
		<ellipse fill="blue" cx="288.97427" cy="249.17732" rx="0.40457153" ry="0.40455627"/>
		<ellipse fill="blue" cx="294.08899" cy="251.31242" rx="0.40457153" ry="0.40455627"/>
		<ellipse fill="blue" cx="299.20374" cy="252.82637" rx="0.40457153" ry="0.40455627"/>
		<ellipse fill="blue" cx="304.31848" cy="253.87445" rx="0.40457153" ry="0.40455627"/>
		<ellipse fill="blue" cx="309.43323" cy="254.57602" rx="0.40457153" ry="0.40455627"/>
		<ellipse fill="blue" cx="314.54794" cy="255.02245" rx="0.40457153" ry="0.40455627"/>
		<ellipse fill="blue" cx="319.66269" cy="255.28329" rx="0.40457153" ry="0.40455627"/>
		<ellipse fill="blue" cx="324.77744" cy="255.41132" rx="0.40457153" ry="0.40455627"/>
		<ellipse fill="blue" cx="329.89215" cy="255.44617" rx="0.40457153" ry="0.40455627"/>
		<ellipse fill="blue" cx="335.0069" cy="255.4175" rx="0.40457153" ry="0.40455627"/>
		<ellipse fill="blue" cx="340.12164" cy="255.34727" rx="0.40457153" ry="0.40455627"/>
		<ellipse fill="blue" cx="345.23636" cy="255.25153" rx="0.40457153" ry="0.40455627"/>
		<ellipse fill="blue" cx="350.3511" cy="255.14188" rx="0.40457153" ry="0.40455627"/>
		<ellipse fill="blue" cx="355.46585" cy="255.02655" rx="0.40457153" ry="0.40455627"/>
		<ellipse fill="blue" cx="360.58057" cy="254.91121" rx="0.40457153" ry="0.40455627"/>
		<ellipse fill="blue" cx="365.69531" cy="254.7997" rx="0.40457153" ry="0.40455627"/>
		<ellipse fill="blue" cx="370.81006" cy="254.69443" rx="0.40457153" ry="0.40455627"/>
		<ellipse fill="blue" cx="375.9248" cy="254.59682" rx="0.40457153" ry="0.40455627"/>
		<ellipse fill="blue" cx="381.03952" cy="254.50755" rx="0.40457153" ry="0.40455627"/>
		<ellipse fill="blue" cx="386.15427" cy="254.42683" rx="0.40457153" ry="0.40455627"/>
		<ellipse fill="blue" cx="391.26901" cy="254.35451" rx="0.40457153" ry="0.40455627"/>
		<ellipse fill="blue" cx="396.38373" cy="254.29018" rx="0.40457153" ry="0.40455627"/>
		<ellipse fill="blue" cx="401.49847" cy="254.23334" rx="0.40457153" ry="0.40455627"/>
		<ellipse fill="blue" cx="406.61322" cy="254.1834" rx="0.40457153" ry="0.40455627"/>
		<ellipse fill="blue" cx="411.72794" cy="254.13971" rx="0.40457153" ry="0.40455627"/>
		<ellipse fill="blue" cx="416.84268" cy="254.10165" rx="0.40457153" ry="0.40455627"/>
	</g>
	<path fill="none" stroke="black" stroke-width="1" stroke-miterlimit="4" d="M53.6964 270.039L53.6964 274.039"/>
	<text transform="translate(53.6964 276.039)" font-size="12" font-family="Segoe UI" x="-3.234375, " y="11.027344, ">
			0
	</text>
	<path fill="none" stroke="black" stroke-width="1" stroke-miterlimit="4" d="M79.2701 270.039L79.2701 274.039"/>
	<text transform="translate(79.2701 276.039)" font-size="12" font-family="Segoe UI" x="-3.234375, " y="11.027344, ">
			5
	</text>
	<path fill="none" stroke="black" stroke-width="1" stroke-miterlimit="4" d="M104.844 270.039L104.844 274.039"/>
	<text transform="translate(104.844 276.039)" font-size="12" font-family="Segoe UI" x="-6.46875, 0, " y="11.027344, ">
			10
	</text>
	<path fill="none" stroke="black" stroke-width="1" stroke-miterlimit="4" d="M130.417 270.039L130.417 274.039"/>
	<text transform="translate(130.417 276.039)" font-size="12" font-family="Segoe UI" x="-6.46875, 0, " y="11.027344, ">
			15
	</text>
	<path fill="none" stroke="black" stroke-width="1" stroke-miterlimit="4" d="M155.991 270.039L155.991 274.039"/>
	<text transform="translate(155.991 276.039)" font-size="12" font-family="Segoe UI" x="-6.46875, 0, " y="11.027344, ">
			20
	</text>
	<path fill="none" stroke="black" stroke-width="1" stroke-miterlimit="4" d="M181.565 270.039L181.565 274.039"/>
	<text transform="translate(181.565 276.039)" font-size="12" font-family="Segoe UI" x="-6.46875, 0, " y="11.027344, ">
			25
	</text>
	<path fill="none" stroke="black" stroke-width="1" stroke-miterlimit="4" d="M207.138 270.039L207.138 274.039"/>
	<text transform="translate(207.138 276.039)" font-size="12" font-family="Segoe UI" x="-6.46875, 0, " y="11.027344, ">
			30
	</text>
	<path fill="none" stroke="black" stroke-width="1" stroke-miterlimit="4" d="M232.712 270.039L232.712 274.039"/>
	<text transform="translate(232.712 276.039)" font-size="12" font-family="Segoe UI" x="-6.46875, 0, " y="11.027344, ">
			35
	</text>
	<path fill="none" stroke="black" stroke-width="1" stroke-miterlimit="4" d="M258.286 270.039L258.286 274.039"/>
	<text transform="translate(258.286 276.039)" font-size="12" font-family="Segoe UI" x="-6.46875, 0, " y="11.027344, ">
			40
	</text>
	<path fill="none" stroke="black" stroke-width="1" stroke-miterlimit="4" d="M283.86 270.039L283.86 274.039"/>
	<text transform="translate(283.86 276.039)" font-size="12" font-family="Segoe UI" x="-6.46875, 0, " y="11.027344, ">
			45
	</text>
	<path fill="none" stroke="black" stroke-width="1" stroke-miterlimit="4" d="M309.433 270.039L309.433 274.039"/>
	<text transform="translate(309.433 276.039)" font-size="12" font-family="Segoe UI" x="-6.46875, 0, " y="11.027344, ">
			50
	</text>
	<path fill="none" stroke="black" stroke-width="1" stroke-miterlimit="4" d="M335.007 270.039L335.007 274.039"/>
	<text transform="translate(335.007 276.039)" font-size="12" font-family="Segoe UI" x="-6.46875, 0, " y="11.027344, ">
			55
	</text>
	<path fill="none" stroke="black" stroke-width="1" stroke-miterlimit="4" d="M360.581 270.039L360.581 274.039"/>
	<text transform="translate(360.581 276.039)" font-size="12" font-family="Segoe UI" x="-6.46875, 0, " y="11.027344, ">
			60
	</text>
	<path fill="none" stroke="black" stroke-width="1" stroke-miterlimit="4" d="M386.154 270.039L386.154 274.039"/>
	<text transform="translate(386.154 276.039)" font-size="12" font-family="Segoe UI" x="-6.46875, 0, " y="11.027344, ">
			65
	</text>
	<path fill="none" stroke="black" stroke-width="1" stroke-miterlimit="4" d="M411.728 270.039L411.728 274.039"/>
	<text transform="translate(411.728 276.039)" font-size="12" font-family="Segoe UI" x="-6.46875, 0, " y="11.027344, ">
			70
	</text>
	<path fill="none" stroke="black" stroke-width="1" stroke-miterlimit="4" d="M38.3522 270.039L38.3522 272.039"/>
	<path fill="none" stroke="black" stroke-width="1" stroke-miterlimit="4" d="M43.4669 270.039L43.4669 272.039"/>
	<path fill="none" stroke="black" stroke-width="1" stroke-miterlimit="4" d="M48.5816 270.039L48.5816 272.039"/>
	<path fill="none" stroke="black" stroke-width="1" stroke-miterlimit="4" d="M58.8111 270.039L58.8111 272.039"/>
	<path fill="none" stroke="black" stroke-width="1" stroke-miterlimit="4" d="M63.9258 270.039L63.9258 272.039"/>
	<path fill="none" stroke="black" stroke-width="1" stroke-miterlimit="4" d="M69.0406 270.039L69.0406 272.039"/>
	<path fill="none" stroke="black" stroke-width="1" stroke-miterlimit="4" d="M74.1553 270.039L74.1553 272.039"/>
	<path fill="none" stroke="black" stroke-width="1" stroke-miterlimit="4" d="M84.3848 270.039L84.3848 272.039"/>
	<path fill="none" stroke="black" stroke-width="1" stroke-miterlimit="4" d="M89.4995 270.039L89.4995 272.039"/>
	<path fill="none" stroke="black" stroke-width="1" stroke-miterlimit="4" d="M94.6143 270.039L94.6143 272.039"/>
	<path fill="none" stroke="black" stroke-width="1" stroke-miterlimit="4" d="M99.729 270.039L99.729 272.039"/>
	<path fill="none" stroke="black" stroke-width="1" stroke-miterlimit="4" d="M109.958 270.039L109.958 272.039"/>
	<path fill="none" stroke="black" stroke-width="1" stroke-miterlimit="4" d="M115.073 270.039L115.073 272.039"/>
	<path fill="none" stroke="black" stroke-width="1" stroke-miterlimit="4" d="M120.188 270.039L120.188 272.039"/>
	<path fill="none" stroke="black" stroke-width="1" stroke-miterlimit="4" d="M125.303 270.039L125.303 272.039"/>
	<path fill="none" stroke="black" stroke-width="1" stroke-miterlimit="4" d="M135.532 270.039L135.532 272.039"/>
	<path fill="none" stroke="black" stroke-width="1" stroke-miterlimit="4" d="M140.647 270.039L140.647 272.039"/>
	<path fill="none" stroke="black" stroke-width="1" stroke-miterlimit="4" d="M145.762 270.039L145.762 272.039"/>
	<path fill="none" stroke="black" stroke-width="1" stroke-miterlimit="4" d="M150.876 270.039L150.876 272.039"/>
	<path fill="none" stroke="black" stroke-width="1" stroke-miterlimit="4" d="M161.106 270.039L161.106 272.039"/>
	<path fill="none" stroke="black" stroke-width="1" stroke-miterlimit="4" d="M166.221 270.039L166.221 272.039"/>
	<path fill="none" stroke="black" stroke-width="1" stroke-miterlimit="4" d="M171.335 270.039L171.335 272.039"/>
	<path fill="none" stroke="black" stroke-width="1" stroke-miterlimit="4" d="M176.45 270.039L176.45 272.039"/>
	<path fill="none" stroke="black" stroke-width="1" stroke-miterlimit="4" d="M186.68 270.039L186.68 272.039"/>
	<path fill="none" stroke="black" stroke-width="1" stroke-miterlimit="4" d="M191.794 270.039L191.794 272.039"/>
	<path fill="none" stroke="black" stroke-width="1" stroke-miterlimit="4" d="M196.909 270.039L196.909 272.039"/>
	<path fill="none" stroke="black" stroke-width="1" stroke-miterlimit="4" d="M202.024 270.039L202.024 272.039"/>
	<path fill="none" stroke="black" stroke-width="1" stroke-miterlimit="4" d="M212.253 270.039L212.253 272.039"/>
	<path fill="none" stroke="black" stroke-width="1" stroke-miterlimit="4" d="M217.368 270.039L217.368 272.039"/>
	<path fill="none" stroke="black" stroke-width="1" stroke-miterlimit="4" d="M222.483 270.039L222.483 272.039"/>
	<path fill="none" stroke="black" stroke-width="1" stroke-miterlimit="4" d="M227.597 270.039L227.597 272.039"/>
	<path fill="none" stroke="black" stroke-width="1" stroke-miterlimit="4" d="M237.827 270.039L237.827 272.039"/>
	<path fill="none" stroke="black" stroke-width="1" stroke-miterlimit="4" d="M242.942 270.039L242.942 272.039"/>
	<path fill="none" stroke="black" stroke-width="1" stroke-miterlimit="4" d="M248.056 270.039L248.056 272.039"/>
	<path fill="none" stroke="black" stroke-width="1" stroke-miterlimit="4" d="M253.171 270.039L253.171 272.039"/>
	<path fill="none" stroke="black" stroke-width="1" stroke-miterlimit="4" d="M263.401 270.039L263.401 272.039"/>
	<path fill="none" stroke="black" stroke-width="1" stroke-miterlimit="4" d="M268.515 270.039L268.515 272.039"/>
	<path fill="none" stroke="black" stroke-width="1" stroke-miterlimit="4" d="M273.63 270.039L273.63 272.039"/>
	<path fill="none" stroke="black" stroke-width="1" stroke-miterlimit="4" d="M278.745 270.039L278.745 272.039"/>
	<path fill="none" stroke="black" stroke-width="1" stroke-miterlimit="4" d="M288.974 270.039L288.974 272.039"/>
	<path fill="none" stroke="black" stroke-width="1" stroke-miterlimit="4" d="M294.089 270.039L294.089 272.039"/>
	<path fill="none" stroke="black" stroke-width="1" stroke-miterlimit="4" d="M299.204 270.039L299.204 272.039"/>
	<path fill="none" stroke="black" stroke-width="1" stroke-miterlimit="4" d="M304.318 270.039L304.318 272.039"/>
	<path fill="none" stroke="black" stroke-width="1" stroke-miterlimit="4" d="M314.548 270.039L314.548 272.039"/>
	<path fill="none" stroke="black" stroke-width="1" stroke-miterlimit="4" d="M319.663 270.039L319.663 272.039"/>
	<path fill="none" stroke="black" stroke-width="1" stroke-miterlimit="4" d="M324.777 270.039L324.777 272.039"/>
	<path fill="none" stroke="black" stroke-width="1" stroke-miterlimit="4" d="M329.892 270.039L329.892 272.039"/>
	<path fill="none" stroke="black" stroke-width="1" stroke-miterlimit="4" d="M340.122 270.039L340.122 272.039"/>
	<path fill="none" stroke="black" stroke-width="1" stroke-miterlimit="4" d="M345.236 270.039L345.236 272.039"/>
	<path fill="none" stroke="black" stroke-width="1" stroke-miterlimit="4" d="M350.351 270.039L350.351 272.039"/>
	<path fill="none" stroke="black" stroke-width="1" stroke-miterlimit="4" d="M355.466 270.039L355.466 272.039"/>
	<path fill="none" stroke="black" stroke-width="1" stroke-miterlimit="4" d="M365.695 270.039L365.695 272.039"/>
	<path fill="none" stroke="black" stroke-width="1" stroke-miterlimit="4" d="M370.81 270.039L370.81 272.039"/>
	<path fill="none" stroke="black" stroke-width="1" stroke-miterlimit="4" d="M375.925 270.039L375.925 272.039"/>
	<path fill="none" stroke="black" stroke-width="1" stroke-miterlimit="4" d="M381.04 270.039L381.04 272.039"/>
	<path fill="none" stroke="black" stroke-width="1" stroke-miterlimit="4" d="M391.269 270.039L391.269 272.039"/>
	<path fill="none" stroke="black" stroke-width="1" stroke-miterlimit="4" d="M396.384 270.039L396.384 272.039"/>
	<path fill="none" stroke="black" stroke-width="1" stroke-miterlimit="4" d="M401.498 270.039L401.498 272.039"/>
	<path fill="none" stroke="black" stroke-width="1" stroke-miterlimit="4" d="M406.613 270.039L406.613 272.039"/>
	<path fill="none" stroke="black" stroke-width="1" stroke-miterlimit="4" d="M416.843 270.039L416.843 272.039"/>
	<path fill="none" stroke="black" stroke-width="1" stroke-miterlimit="4" d="M421.957 270.039L421.957 272.039"/>
	<path fill="none" stroke="black" stroke-width="1" stroke-miterlimit="4" d="M427.072 270.039L427.072 272.039"/>
	<path fill="none" stroke="black" stroke-width="1" stroke-miterlimit="4" d="M432.187 270.039L432.187 272.039"/>
	<path fill="none" stroke="black" stroke-width="1" stroke-miterlimit="4" d="M35.5391 270.039L435 270.039"/>
	<path fill="none" stroke="black" stroke-width="1" stroke-miterlimit="4" d="M35.5391 46.3812L435 46.3812"/>
	<path fill="none" stroke="black" stroke-width="1" stroke-miterlimit="4" d="M35.5391 253.873L31.5391 253.873"/>
	<text transform="translate(26.5391 253.873)" font-size="12" font-family="Segoe UI" x="-6.46875, " y="3.046875, ">
			0
	</text>
	<path fill="none" stroke="black" stroke-width="1" stroke-miterlimit="4" d="M35.5391 215.274L31.5391 215.274"/>
	<text transform="translate(26.5391 215.274)" font-size="12" font-family="Segoe UI" x="-15.539063, -9.0703125, -6.46875, " y="3.046875, ">
			0.2
	</text>
	<path fill="none" stroke="black" stroke-width="1" stroke-miterlimit="4" d="M35.5391 176.674L31.5391 176.674"/>
	<text transform="translate(26.5391 176.674)" font-size="12" font-family="Segoe UI" x="-15.539063, -9.0703125, -6.46875, " y="3.046875, ">
			0.4
	</text>
	<path fill="none" stroke="black" stroke-width="1" stroke-miterlimit="4" d="M35.5391 138.074L31.5391 138.074"/>
	<text transform="translate(26.5391 138.074)" font-size="12" font-family="Segoe UI" x="-15.539063, -9.0703125, -6.46875, " y="3.046875, ">
			0.6
	</text>
	<path fill="none" stroke="black" stroke-width="1" stroke-miterlimit="4" d="M35.5391 99.474L31.5391 99.474"/>
	<text transform="translate(26.5391 99.474)" font-size="12" font-family="Segoe UI" x="-15.539063, -9.0703125, -6.46875, " y="3.046875, ">
			0.8
	</text>
	<path fill="none" stroke="black" stroke-width="1" stroke-miterlimit="4" d="M35.5391 60.8741L31.5391 60.8741"/>
	<text transform="translate(26.5391 60.8741)" font-size="12" font-family="Segoe UI" x="-6.46875, " y="3.046875, ">
			1
	</text>
	<path fill="none" stroke="black" stroke-width="1" stroke-miterlimit="4" d="M35.5391 269.313L33.5391 269.313"/>
	<path fill="none" stroke="black" stroke-width="1" stroke-miterlimit="4" d="M35.5391 261.593L33.5391 261.593"/>
	<path fill="none" stroke="black" stroke-width="1" stroke-miterlimit="4" d="M35.5391 246.153L33.5391 246.153"/>
	<path fill="none" stroke="black" stroke-width="1" stroke-miterlimit="4" d="M35.5391 238.433L33.5391 238.433"/>
	<path fill="none" stroke="black" stroke-width="1" stroke-miterlimit="4" d="M35.5391 230.713L33.5391 230.713"/>
	<path fill="none" stroke="black" stroke-width="1" stroke-miterlimit="4" d="M35.5391 222.993L33.5391 222.993"/>
	<path fill="none" stroke="black" stroke-width="1" stroke-miterlimit="4" d="M35.5391 207.554L33.5391 207.554"/>
	<path fill="none" stroke="black" stroke-width="1" stroke-miterlimit="4" d="M35.5391 199.834L33.5391 199.834"/>
	<path fill="none" stroke="black" stroke-width="1" stroke-miterlimit="4" d="M35.5391 192.114L33.5391 192.114"/>
	<path fill="none" stroke="black" stroke-width="1" stroke-miterlimit="4" d="M35.5391 184.394L33.5391 184.394"/>
	<path fill="none" stroke="black" stroke-width="1" stroke-miterlimit="4" d="M35.5391 168.954L33.5391 168.954"/>
	<path fill="none" stroke="black" stroke-width="1" stroke-miterlimit="4" d="M35.5391 161.234L33.5391 161.234"/>
	<path fill="none" stroke="black" stroke-width="1" stroke-miterlimit="4" d="M35.5391 153.514L33.5391 153.514"/>
	<path fill="none" stroke="black" stroke-width="1" stroke-miterlimit="4" d="M35.5391 145.794L33.5391 145.794"/>
	<path fill="none" stroke="black" stroke-width="1" stroke-miterlimit="4" d="M35.5391 130.354L33.5391 130.354"/>
	<path fill="none" stroke="black" stroke-width="1" stroke-miterlimit="4" d="M35.5391 122.634L33.5391 122.634"/>
	<path fill="none" stroke="black" stroke-width="1" stroke-miterlimit="4" d="M35.5391 114.914L33.5391 114.914"/>
	<path fill="none" stroke="black" stroke-width="1" stroke-miterlimit="4" d="M35.5391 107.194L33.5391 107.194"/>
	<path fill="none" stroke="black" stroke-width="1" stroke-miterlimit="4" d="M35.5391 91.754L33.5391 91.754"/>
	<path fill="none" stroke="black" stroke-width="1" stroke-miterlimit="4" d="M35.5391 84.0341L33.5391 84.0341"/>
	<path fill="none" stroke="black" stroke-width="1" stroke-miterlimit="4" d="M35.5391 76.3141L33.5391 76.3141"/>
	<path fill="none" stroke="black" stroke-width="1" stroke-miterlimit="4" d="M35.5391 68.5941L33.5391 68.5941"/>
	<path fill="none" stroke="black" stroke-width="1" stroke-miterlimit="4" d="M35.5391 53.1542L33.5391 53.1542"/>
	<path fill="none" stroke="black" stroke-width="1" stroke-miterlimit="4" d="M35.5391 270.039L35.5391 46.2813"/>
	<path fill="none" stroke="black" stroke-width="1" stroke-miterlimit="4" d="M435 270.039L435 46.2813"/>
	<text transform="translate(235.27 31.2813)" font-size="16" font-weight="600" font-family="Segoe UI" x="-66.714844, -57.746094, -47.824219, -43.277344, -34.332031, -25.675781, -21.261719, -14.792969, -10.378906, 1.4179688, 9.9335938, 25.246094, 36.496094, 42.402344, 51.605469, 60.808594, " y="-6.890625, ">
			Spike - DEMA(10)
	</text>
</svg>
