<?xml version="1.0" encoding="utf-8" ?>
<svg xmlns="http://www.w3.org/2000/svg" xmlns:xlink="http://www.w3.org/1999/xlink" width="450" height="300">
	<rect fill="white" width="450" height="300"/>
	<path fill="none" stroke="#010101" stroke-width="1" stroke-miterlimit="4" stroke-opacity="0.098039217" d="M51.2131 270.039L51.2131 46.2813M76.9533 270.039L76.9533 46.2813M102.694 270.039L102.694 46.2813M128.434 270.039L128.434 46.2813M154.174 270.039L154.174 46.2813M179.914 270.039L179.914 46.2813M205.654 270.039L205.654 46.2813M231.395 270.039L231.395 46.2813M257.135 270.039L257.135 46.2813M282.875 270.039L282.875 46.2813M308.615 270.039L308.615 46.2813M334.356 270.039L334.356 46.2813M360.096 270.039L360.096 46.2813M385.836 270.039L385.836 46.2813M411.576 270.039L411.576 46.2813"/>
	<path fill="none" stroke="#010101" stroke-width="1" stroke-miterlimit="4" stroke-opacity="0.098039217" d="M32.9375 255.446L435 255.446M32.9375 227.094L435 227.094M32.9375 198.741L435 198.741M32.9375 170.389L435 170.389M32.9375 142.037L435 142.037M32.9375 113.684L435 113.684M32.9375 85.332L435 85.332M32.9375 56.9796L435 56.9796"/>
	<clipPath id="cl_13">
		<rect x="32.9375" y="46.28125" width="402.0625" height="223.75781"/>
	</clipPath>
	<g clip-path="url(#cl_13)">
		<path fill="none" stroke="red" stroke-width="2" stroke-miterlimit="4" d="M51.2131 255.446L51.2131 255.446L56.3611 255.389L61.5092 255.446L66.6572 255.389L71.8053 255.446L76.9533 255.389L82.1013 249.776L87.2494 244.105L92.3974 238.435L97.5455 232.764L102.694 227.094L107.842 221.423L112.99 215.753L118.138 210.082L123.286 204.412L128.434 198.741L133.582 193.071L138.73 187.4L143.878 181.73L149.026 176.06L154.174 170.389L159.322 164.719L164.47 159.048L169.618 153.378L174.766 147.707L179.914 142.037L185.062 136.366L190.21 130.696L195.358 125.025L200.506 119.355L205.654 113.684L210.803 108.014L215.951 102.343L221.099 96.6729L226.247 91.0025L231.395 85.332L236.543 79.6615L241.691 73.991L246.839 68.3206L251.987 62.6501L257.135 68.3206L262.283 73.991L267.431 79.6615L272.579 85.332L277.727 91.0025L282.875 96.6729L288.023 102.343L293.171 108.014L298.319 113.684L303.467 119.355L308.615 125.025L313.763 130.696L318.912 136.366L324.06 142.037L329.208 147.707L334.356 153.378L339.504 159.048L344.652 164.719L349.8 170.389L354.948 176.06L360.096 181.73L365.244 187.4L370.392 193.071L375.54 198.741L380.688 204.412L385.836 210.082L390.984 215.753L396.132 221.423L401.28 227.094L406.428 232.764L411.576 238.435L416.724 244.105"/>
		<ellipse fill="red" cx="51.213066" cy="255.44617" rx="0.40587997" ry="0.40588379"/>
		<ellipse fill="red" cx="56.361115" cy="255.38945" rx="0.40587997" ry="0.40588379"/>
		<ellipse fill="red" cx="61.509163" cy="255.44617" rx="0.40587997" ry="0.40588379"/>
		<ellipse fill="red" cx="66.657211" cy="255.38945" rx="0.40587616" ry="0.40588379"/>
		<ellipse fill="red" cx="71.805252" cy="255.44617" rx="0.40587616" ry="0.40588379"/>
		<ellipse fill="red" cx="76.953308" cy="255.38945" rx="0.40587616" ry="0.40588379"/>
		<ellipse fill="red" cx="82.101349" cy="249.7757" rx="0.40587616" ry="0.40588379"/>
		<ellipse fill="red" cx="87.249405" cy="244.10522" rx="0.40587616" ry="0.40588379"/>
		<ellipse fill="red" cx="92.397446" cy="238.43474" rx="0.40587616" ry="0.40588379"/>
		<ellipse fill="red" cx="97.545494" cy="232.76427" rx="0.40587616" ry="0.40588379"/>
		<ellipse fill="red" cx="102.69354" cy="227.0938" rx="0.40587616" ry="0.40588379"/>
		<ellipse fill="red" cx="107.84159" cy="221.42332" rx="0.40587616" ry="0.40588379"/>
		<ellipse fill="red" cx="112.98964" cy="215.75285" rx="0.40587616" ry="0.40588379"/>
		<ellipse fill="red" cx="118.13769" cy="210.08238" rx="0.40587616" ry="0.40588379"/>
		<ellipse fill="red" cx="123.28573" cy="204.41191" rx="0.40587616" ry="0.40588379"/>
		<ellipse fill="red" cx="128.43378" cy="198.74142" rx="0.40588379" ry="0.40588379"/>
		<ellipse fill="red" cx="133.58182" cy="193.07095" rx="0.40588379" ry="0.40588379"/>
		<ellipse fill="red" cx="138.72987" cy="187.40048" rx="0.40588379" ry="0.40588379"/>
		<ellipse fill="red" cx="143.87793" cy="181.73001" rx="0.40588379" ry="0.40588379"/>
		<ellipse fill="red" cx="149.02597" cy="176.05954" rx="0.40588379" ry="0.40588379"/>
		<ellipse fill="red" cx="154.17401" cy="170.38907" rx="0.40588379" ry="0.40588379"/>
		<ellipse fill="red" cx="159.32205" cy="164.7186" rx="0.40588379" ry="0.40588379"/>
		<ellipse fill="red" cx="164.47011" cy="159.04813" rx="0.40588379" ry="0.40588379"/>
		<ellipse fill="red" cx="169.61816" cy="153.37766" rx="0.40588379" ry="0.40588379"/>
		<ellipse fill="red" cx="174.7662" cy="147.70718" rx="0.40588379" ry="0.40588379"/>
		<ellipse fill="red" cx="179.91425" cy="142.03671" rx="0.40588379" ry="0.40588379"/>
		<ellipse fill="red" cx="185.0623" cy="136.36624" rx="0.40588379" ry="0.40588379"/>
		<ellipse fill="red" cx="190.21034" cy="130.69576" rx="0.40588379" ry="0.40588379"/>
		<ellipse fill="red" cx="195.3584" cy="125.02528" rx="0.40588379" ry="0.40587616"/>
		<ellipse fill="red" cx="200.50644" cy="119.35481" rx="0.40588379" ry="0.40587616"/>
		<ellipse fill="red" cx="205.6545" cy="113.68434" rx="0.40588379" ry="0.40587616"/>
		<ellipse fill="red" cx="210.80254" cy="108.01387" rx="0.40588379" ry="0.40587616"/>
		<ellipse fill="red" cx="215.95058" cy="102.3434" rx="0.40588379" ry="0.40587616"/>
		<ellipse fill="red" cx="221.09863" cy="96.672928" rx="0.40588379" ry="0.40587616"/>
		<ellipse fill="red" cx="226.24667" cy="91.002457" rx="0.40588379" ry="0.40587616"/>
		<ellipse fill="red" cx="231.39473" cy="85.331985" rx="0.40588379" ry="0.40587616"/>
		<ellipse fill="red" cx="236.54277" cy="79.661514" rx="0.40588379" ry="0.40587616"/>
		<ellipse fill="red" cx="241.69083" cy="73.991028" rx="0.40588379" ry="0.40587616"/>
		<ellipse fill="red" cx="246.83887" cy="68.320557" rx="0.40588379" ry="0.40587616"/>
		<ellipse fill="red" cx="251.98692" cy="62.650085" rx="0.40588379" ry="0.40587997"/>
		<ellipse fill="red" cx="257.13495" cy="68.320557" rx="0.40588379" ry="0.40587616"/>
		<ellipse fill="red" cx="262.28302" cy="73.991028" rx="0.40588379" ry="0.40587616"/>
		<ellipse fill="red" cx="267.43106" cy="79.661514" rx="0.40588379" ry="0.40587616"/>
		<ellipse fill="red" cx="272.5791" cy="85.331985" rx="0.40588379" ry="0.40587616"/>
		<ellipse fill="red" cx="277.72717" cy="91.002457" rx="0.40588379" ry="0.40587616"/>
		<ellipse fill="red" cx="282.87518" cy="96.672928" rx="0.40588379" ry="0.40587616"/>
		<ellipse fill="red" cx="288.02325" cy="102.3434" rx="0.40588379" ry="0.40587616"/>
		<ellipse fill="red" cx="293.1713" cy="108.01387" rx="0.40588379" ry="0.40587616"/>
		<ellipse fill="red" cx="298.31934" cy="113.68434" rx="0.40588379" ry="0.40587616"/>
		<ellipse fill="red" cx="303.46738" cy="119.35481" rx="0.40588379" ry="0.40587616"/>
		<ellipse fill="red" cx="308.61545" cy="125.02528" rx="0.40588379" ry="0.40587616"/>
		<ellipse fill="red" cx="313.76349" cy="130.69576" rx="0.40588379" ry="0.40588379"/>
		<ellipse fill="red" cx="318.91153" cy="136.36624" rx="0.40588379" ry="0.40588379"/>
		<ellipse fill="red" cx="324.05957" cy="142.03671" rx="0.40588379" ry="0.40588379"/>
		<ellipse fill="red" cx="329.20764" cy="147.70718" rx="0.40588379" ry="0.40588379"/>
		<ellipse fill="red" cx="334.35568" cy="153.37766" rx="0.40588379" ry="0.40588379"/>
		<ellipse fill="red" cx="339.50372" cy="159.04813" rx="0.40588379" ry="0.40588379"/>
		<ellipse fill="red" cx="344.65176" cy="164.7186" rx="0.40588379" ry="0.40588379"/>
		<ellipse fill="red" cx="349.7998" cy="170.38907" rx="0.40588379" ry="0.40588379"/>
		<ellipse fill="red" cx="354.94788" cy="176.05954" rx="0.40588379" ry="0.40588379"/>
		<ellipse fill="red" cx="360.09592" cy="181.73001" rx="0.40588379" ry="0.40588379"/>
		<ellipse fill="red" cx="365.24396" cy="187.40048" rx="0.40588379" ry="0.40588379"/>
		<ellipse fill="red" cx="370.392" cy="193.07095" rx="0.40588379" ry="0.40588379"/>
		<ellipse fill="red" cx="375.54004" cy="198.74142" rx="0.40588379" ry="0.40588379"/>
		<ellipse fill="red" cx="380.68811" cy="204.41191" rx="0.40588379" ry="0.40588379"/>
		<ellipse fill="red" cx="385.83615" cy="210.08238" rx="0.40588379" ry="0.40588379"/>
		<ellipse fill="red" cx="390.98419" cy="215.75285" rx="0.40588379" ry="0.40588379"/>
		<ellipse fill="red" cx="396.13223" cy="221.42332" rx="0.40588379" ry="0.40588379"/>
		<ellipse fill="red" cx="401.2803" cy="227.0938" rx="0.40588379" ry="0.40588379"/>
		<ellipse fill="red" cx="406.42834" cy="232.76427" rx="0.40588379" ry="0.40588379"/>
		<ellipse fill="red" cx="411.57639" cy="238.43474" rx="0.40588379" ry="0.40588379"/>
		<ellipse fill="red" cx="416.72443" cy="244.10522" rx="0.40588379" ry="0.40588379"/>
	</g>
	<clipPath id="cl_14">
		<rect x="32.9375" y="46.28125" width="402.0625" height="223.75781"/>
	</clipPath>
	<g clip-path="url(#cl_14)">
		<path fill="none" stroke="blue" stroke-width="4" stroke-miterlimit="4" d="M51.2131 255.423L51.2131 255.423L56.3611 255.412L61.5092 255.423L66.6572 255.412L71.8053 255.423L76.9533 255.412L82.1013 253.545L87.2494 250.295L92.3974 246.039L97.5455 241.063L102.694 235.584L107.842 229.761L112.99 223.714L118.138 217.528L123.286 211.266L128.434 204.974L133.582 198.682L138.73 192.409L143.878 186.171L149.026 179.973L154.174 173.821L159.322 167.714L164.47 161.653L169.618 155.635L174.766 149.657L179.914 143.716L185.062 137.81L190.21 131.933L195.358 126.084L200.506 120.259L205.654 114.455L210.803 108.67L215.951 102.901L221.099 97.1461L226.247 91.4036L231.395 85.6716L236.543 79.9487L241.691 74.2336L246.839 68.5253L251.987 62.8227L257.135 60.8741L262.283 61.6904L267.431 64.518L272.579 68.786L277.727 74.0647L282.875 80.0327L288.023 86.4525L293.171 93.1499L298.319 99.9992L303.467 106.911L308.615 113.824L313.763 120.697L318.912 127.502L324.06 134.226L329.208 140.859L334.356 147.401L339.504 153.852L344.652 160.217L349.8 166.501L354.948 172.711L360.096 178.853L365.244 184.934L370.392 190.961L375.54 196.94L380.688 202.877L385.836 208.776L390.984 214.643L396.132 220.482L401.28 226.296L406.428 232.089L411.576 237.864L416.724 243.623"/>
		<ellipse fill="blue" cx="51.213066" cy="255.42313" rx="0.40587997" ry="0.40588379"/>
		<ellipse fill="blue" cx="56.361115" cy="255.41231" rx="0.40587997" ry="0.40588379"/>
		<ellipse fill="blue" cx="61.509163" cy="255.42314" rx="0.40587997" ry="0.40588379"/>
		<ellipse fill="blue" cx="66.657211" cy="255.41234" rx="0.40587616" ry="0.40588379"/>
		<ellipse fill="blue" cx="71.805252" cy="255.42316" rx="0.40587616" ry="0.40588379"/>
		<ellipse fill="blue" cx="76.953308" cy="255.41237" rx="0.40587616" ry="0.40588379"/>
		<ellipse fill="blue" cx="82.101349" cy="253.54527" rx="0.40587616" ry="0.40588379"/>
		<ellipse fill="blue" cx="87.249405" cy="250.29456" rx="0.40587616" ry="0.40588379"/>
		<ellipse fill="blue" cx="92.397446" cy="246.03859" rx="0.40587616" ry="0.40588379"/>
		<ellipse fill="blue" cx="97.545494" cy="241.06349" rx="0.40587616" ry="0.40588379"/>
		<ellipse fill="blue" cx="102.69354" cy="235.58429" rx="0.40587616" ry="0.40588379"/>
		<ellipse fill="blue" cx="107.84159" cy="229.76147" rx="0.40587616" ry="0.40588379"/>
		<ellipse fill="blue" cx="112.98964" cy="223.71368" rx="0.40587616" ry="0.40588379"/>
		<ellipse fill="blue" cx="118.13769" cy="217.5278" rx="0.40587616" ry="0.40588379"/>
		<ellipse fill="blue" cx="123.28573" cy="211.26649" rx="0.40587616" ry="0.40588379"/>
		<ellipse fill="blue" cx="128.43378" cy="204.97418" rx="0.40588379" ry="0.40588379"/>
		<ellipse fill="blue" cx="133.58182" cy="198.68164" rx="0.40588379" ry="0.40588379"/>
		<ellipse fill="blue" cx="138.72987" cy="192.40948" rx="0.40588379" ry="0.40588379"/>
		<ellipse fill="blue" cx="143.87793" cy="186.17081" rx="0.40588379" ry="0.40588379"/>
		<ellipse fill="blue" cx="149.02597" cy="179.97333" rx="0.40588379" ry="0.40588379"/>
		<ellipse fill="blue" cx="154.17401" cy="173.82079" rx="0.40588379" ry="0.40588379"/>
		<ellipse fill="blue" cx="159.32205" cy="167.71426" rx="0.40588379" ry="0.40588379"/>
		<ellipse fill="blue" cx="164.47011" cy="161.65295" rx="0.40588379" ry="0.40588379"/>
		<ellipse fill="blue" cx="169.61816" cy="155.6348" rx="0.40588379" ry="0.40588379"/>
		<ellipse fill="blue" cx="174.7662" cy="149.65703" rx="0.40588379" ry="0.40588379"/>
		<ellipse fill="blue" cx="179.91425" cy="143.71643" rx="0.40588379" ry="0.40588379"/>
		<ellipse fill="blue" cx="185.0623" cy="137.80963" rx="0.40588379" ry="0.40588379"/>
		<ellipse fill="blue" cx="190.21034" cy="131.93327" rx="0.40588379" ry="0.40588379"/>
		<ellipse fill="blue" cx="195.3584" cy="126.08411" rx="0.40588379" ry="0.40587616"/>
		<ellipse fill="blue" cx="200.50644" cy="120.25902" rx="0.40588379" ry="0.40587616"/>
		<ellipse fill="blue" cx="205.6545" cy="114.45517" rx="0.40588379" ry="0.40587616"/>
		<ellipse fill="blue" cx="210.80254" cy="108.66994" rx="0.40588379" ry="0.40587616"/>
		<ellipse fill="blue" cx="215.95058" cy="102.90097" rx="0.40588379" ry="0.40587616"/>
		<ellipse fill="blue" cx="221.09863" cy="97.146149" rx="0.40588379" ry="0.40587616"/>
		<ellipse fill="blue" cx="226.24667" cy="91.403564" rx="0.40588379" ry="0.40587616"/>
		<ellipse fill="blue" cx="231.39473" cy="85.67157" rx="0.40588379" ry="0.40587616"/>
		<ellipse fill="blue" cx="236.54277" cy="79.948685" rx="0.40588379" ry="0.40587616"/>
		<ellipse fill="blue" cx="241.69083" cy="74.233643" rx="0.40588379" ry="0.40587616"/>
		<ellipse fill="blue" cx="246.83887" cy="68.525314" rx="0.40588379" ry="0.40587616"/>
		<ellipse fill="blue" cx="251.98692" cy="62.822739" rx="0.40588379" ry="0.40587997"/>
		<ellipse fill="blue" cx="257.13495" cy="60.874146" rx="0.40588379" ry="0.40587997"/>
		<ellipse fill="blue" cx="262.28302" cy="61.69043" rx="0.40588379" ry="0.40587997"/>
		<ellipse fill="blue" cx="267.43106" cy="64.518036" rx="0.40588379" ry="0.40587616"/>
		<ellipse fill="blue" cx="272.5791" cy="68.786041" rx="0.40588379" ry="0.40587616"/>
		<ellipse fill="blue" cx="277.72717" cy="74.064651" rx="0.40588379" ry="0.40587616"/>
		<ellipse fill="blue" cx="282.87518" cy="80.032715" rx="0.40588379" ry="0.40587616"/>
		<ellipse fill="blue" cx="288.02325" cy="86.452499" rx="0.40588379" ry="0.40587616"/>
		<ellipse fill="blue" cx="293.1713" cy="93.149902" rx="0.40588379" ry="0.40587616"/>
		<ellipse fill="blue" cx="298.31934" cy="99.999191" rx="0.40588379" ry="0.40587616"/>
		<ellipse fill="blue" cx="303.46738" cy="106.91119" rx="0.40588379" ry="0.40587616"/>
		<ellipse fill="blue" cx="308.61545" cy="113.82413" rx="0.40588379" ry="0.40587616"/>
		<ellipse fill="blue" cx="313.76349" cy="120.69661" rx="0.40588379" ry="0.40587616"/>
		<ellipse fill="blue" cx="318.91153" cy="127.50229" rx="0.40588379" ry="0.40587616"/>
		<ellipse fill="blue" cx="324.05957" cy="134.22572" rx="0.40588379" ry="0.40588379"/>
		<ellipse fill="blue" cx="329.20764" cy="140.85928" rx="0.40588379" ry="0.40588379"/>
		<ellipse fill="blue" cx="334.35568" cy="147.40085" rx="0.40588379" ry="0.40588379"/>
		<ellipse fill="blue" cx="339.50372" cy="153.85202" rx="0.40588379" ry="0.40588379"/>
		<ellipse fill="blue" cx="344.65176" cy="160.21689" rx="0.40588379" ry="0.40588379"/>
		<ellipse fill="blue" cx="349.7998" cy="166.50101" rx="0.40588379" ry="0.40588379"/>
		<ellipse fill="blue" cx="354.94788" cy="172.71082" rx="0.40588379" ry="0.40588379"/>
		<ellipse fill="blue" cx="360.09592" cy="178.85303" rx="0.40588379" ry="0.40588379"/>
		<ellipse fill="blue" cx="365.24396" cy="184.93439" rx="0.40588379" ry="0.40588379"/>
		<ellipse fill="blue" cx="370.392" cy="190.96146" rx="0.40588379" ry="0.40588379"/>
		<ellipse fill="blue" cx="375.54004" cy="196.94037" rx="0.40588379" ry="0.40588379"/>
		<ellipse fill="blue" cx="380.68811" cy="202.87686" rx="0.40588379" ry="0.40588379"/>
		<ellipse fill="blue" cx="385.83615" cy="208.77615" rx="0.40588379" ry="0.40588379"/>
		<ellipse fill="blue" cx="390.98419" cy="214.64299" rx="0.40588379" ry="0.40588379"/>
		<ellipse fill="blue" cx="396.13223" cy="220.4816" rx="0.40588379" ry="0.40588379"/>
		<ellipse fill="blue" cx="401.2803" cy="226.29576" rx="0.40588379" ry="0.40588379"/>
		<ellipse fill="blue" cx="406.42834" cy="232.08881" rx="0.40588379" ry="0.40588379"/>
		<ellipse fill="blue" cx="411.57639" cy="237.86365" rx="0.40588379" ry="0.40588379"/>
		<ellipse fill="blue" cx="416.72443" cy="243.62288" rx="0.40588379" ry="0.40588379"/>
	</g>
	<path fill="none" stroke="black" stroke-width="1" stroke-miterlimit="4" d="M51.2131 270.039L51.2131 274.039"/>
	<text transform="translate(51.2131 276.039)" font-size="12" font-family="Segoe UI" x="-3.234375, " y="11.027344, ">
			0
	</text>
	<path fill="none" stroke="black" stroke-width="1" stroke-miterlimit="4" d="M76.9533 270.039L76.9533 274.039"/>
	<text transform="translate(76.9533 276.039)" font-size="12" font-family="Segoe UI" x="-3.234375, " y="11.027344, ">
			5
	</text>
	<path fill="none" stroke="black" stroke-width="1" stroke-miterlimit="4" d="M102.694 270.039L102.694 274.039"/>
	<text transform="translate(102.694 276.039)" font-size="12" font-family="Segoe UI" x="-6.46875, 0, " y="11.027344, ">
			10
	</text>
	<path fill="none" stroke="black" stroke-width="1" stroke-miterlimit="4" d="M128.434 270.039L128.434 274.039"/>
	<text transform="translate(128.434 276.039)" font-size="12" font-family="Segoe UI" x="-6.46875, 0, " y="11.027344, ">
			15
	</text>
	<path fill="none" stroke="black" stroke-width="1" stroke-miterlimit="4" d="M154.174 270.039L154.174 274.039"/>
	<text transform="translate(154.174 276.039)" font-size="12" font-family="Segoe UI" x="-6.46875, 0, " y="11.027344, ">
			20
	</text>
	<path fill="none" stroke="black" stroke-width="1" stroke-miterlimit="4" d="M179.914 270.039L179.914 274.039"/>
	<text transform="translate(179.914 276.039)" font-size="12" font-family="Segoe UI" x="-6.46875, 0, " y="11.027344, ">
			25
	</text>
	<path fill="none" stroke="black" stroke-width="1" stroke-miterlimit="4" d="M205.654 270.039L205.654 274.039"/>
	<text transform="translate(205.654 276.039)" font-size="12" font-family="Segoe UI" x="-6.46875, 0, " y="11.027344, ">
			30
	</text>
	<path fill="none" stroke="black" stroke-width="1" stroke-miterlimit="4" d="M231.395 270.039L231.395 274.039"/>
	<text transform="translate(231.395 276.039)" font-size="12" font-family="Segoe UI" x="-6.46875, 0, " y="11.027344, ">
			35
	</text>
	<path fill="none" stroke="black" stroke-width="1" stroke-miterlimit="4" d="M257.135 270.039L257.135 274.039"/>
	<text transform="translate(257.135 276.039)" font-size="12" font-family="Segoe UI" x="-6.46875, 0, " y="11.027344, ">
			40
	</text>
	<path fill="none" stroke="black" stroke-width="1" stroke-miterlimit="4" d="M282.875 270.039L282.875 274.039"/>
	<text transform="translate(282.875 276.039)" font-size="12" font-family="Segoe UI" x="-6.46875, 0, " y="11.027344, ">
			45
	</text>
	<path fill="none" stroke="black" stroke-width="1" stroke-miterlimit="4" d="M308.615 270.039L308.615 274.039"/>
	<text transform="translate(308.615 276.039)" font-size="12" font-family="Segoe UI" x="-6.46875, 0, " y="11.027344, ">
			50
	</text>
	<path fill="none" stroke="black" stroke-width="1" stroke-miterlimit="4" d="M334.356 270.039L334.356 274.039"/>
	<text transform="translate(334.356 276.039)" font-size="12" font-family="Segoe UI" x="-6.46875, 0, " y="11.027344, ">
			55
	</text>
	<path fill="none" stroke="black" stroke-width="1" stroke-miterlimit="4" d="M360.096 270.039L360.096 274.039"/>
	<text transform="translate(360.096 276.039)" font-size="12" font-family="Segoe UI" x="-6.46875, 0, " y="11.027344, ">
			60
	</text>
	<path fill="none" stroke="black" stroke-width="1" stroke-miterlimit="4" d="M385.836 270.039L385.836 274.039"/>
	<text transform="translate(385.836 276.039)" font-size="12" font-family="Segoe UI" x="-6.46875, 0, " y="11.027344, ">
			65
	</text>
	<path fill="none" stroke="black" stroke-width="1" stroke-miterlimit="4" d="M411.576 270.039L411.576 274.039"/>
	<text transform="translate(411.576 276.039)" font-size="12" font-family="Segoe UI" x="-6.46875, 0, " y="11.027344, ">
			70
	</text>
	<path fill="none" stroke="black" stroke-width="1" stroke-miterlimit="4" d="M35.7689 270.039L35.7689 272.039"/>
	<path fill="none" stroke="black" stroke-width="1" stroke-miterlimit="4" d="M40.917 270.039L40.917 272.039"/>
	<path fill="none" stroke="black" stroke-width="1" stroke-miterlimit="4" d="M46.065 270.039L46.065 272.039"/>
	<path fill="none" stroke="black" stroke-width="1" stroke-miterlimit="4" d="M56.3611 270.039L56.3611 272.039"/>
	<path fill="none" stroke="black" stroke-width="1" stroke-miterlimit="4" d="M61.5092 270.039L61.5092 272.039"/>
	<path fill="none" stroke="black" stroke-width="1" stroke-miterlimit="4" d="M66.6572 270.039L66.6572 272.039"/>
	<path fill="none" stroke="black" stroke-width="1" stroke-miterlimit="4" d="M71.8053 270.039L71.8053 272.039"/>
	<path fill="none" stroke="black" stroke-width="1" stroke-miterlimit="4" d="M82.1013 270.039L82.1013 272.039"/>
	<path fill="none" stroke="black" stroke-width="1" stroke-miterlimit="4" d="M87.2494 270.039L87.2494 272.039"/>
	<path fill="none" stroke="black" stroke-width="1" stroke-miterlimit="4" d="M92.3974 270.039L92.3974 272.039"/>
	<path fill="none" stroke="black" stroke-width="1" stroke-miterlimit="4" d="M97.5455 270.039L97.5455 272.039"/>
	<path fill="none" stroke="black" stroke-width="1" stroke-miterlimit="4" d="M107.842 270.039L107.842 272.039"/>
	<path fill="none" stroke="black" stroke-width="1" stroke-miterlimit="4" d="M112.99 270.039L112.99 272.039"/>
	<path fill="none" stroke="black" stroke-width="1" stroke-miterlimit="4" d="M118.138 270.039L118.138 272.039"/>
	<path fill="none" stroke="black" stroke-width="1" stroke-miterlimit="4" d="M123.286 270.039L123.286 272.039"/>
	<path fill="none" stroke="black" stroke-width="1" stroke-miterlimit="4" d="M133.582 270.039L133.582 272.039"/>
	<path fill="none" stroke="black" stroke-width="1" stroke-miterlimit="4" d="M138.73 270.039L138.73 272.039"/>
	<path fill="none" stroke="black" stroke-width="1" stroke-miterlimit="4" d="M143.878 270.039L143.878 272.039"/>
	<path fill="none" stroke="black" stroke-width="1" stroke-miterlimit="4" d="M149.026 270.039L149.026 272.039"/>
	<path fill="none" stroke="black" stroke-width="1" stroke-miterlimit="4" d="M159.322 270.039L159.322 272.039"/>
	<path fill="none" stroke="black" stroke-width="1" stroke-miterlimit="4" d="M164.47 270.039L164.47 272.039"/>
	<path fill="none" stroke="black" stroke-width="1" stroke-miterlimit="4" d="M169.618 270.039L169.618 272.039"/>
	<path fill="none" stroke="black" stroke-width="1" stroke-miterlimit="4" d="M174.766 270.039L174.766 272.039"/>
	<path fill="none" stroke="black" stroke-width="1" stroke-miterlimit="4" d="M185.062 270.039L185.062 272.039"/>
	<path fill="none" stroke="black" stroke-width="1" stroke-miterlimit="4" d="M190.21 270.039L190.21 272.039"/>
	<path fill="none" stroke="black" stroke-width="1" stroke-miterlimit="4" d="M195.358 270.039L195.358 272.039"/>
	<path fill="none" stroke="black" stroke-width="1" stroke-miterlimit="4" d="M200.506 270.039L200.506 272.039"/>
	<path fill="none" stroke="black" stroke-width="1" stroke-miterlimit="4" d="M210.803 270.039L210.803 272.039"/>
	<path fill="none" stroke="black" stroke-width="1" stroke-miterlimit="4" d="M215.951 270.039L215.951 272.039"/>
	<path fill="none" stroke="black" stroke-width="1" stroke-miterlimit="4" d="M221.099 270.039L221.099 272.039"/>
	<path fill="none" stroke="black" stroke-width="1" stroke-miterlimit="4" d="M226.247 270.039L226.247 272.039"/>
	<path fill="none" stroke="black" stroke-width="1" stroke-miterlimit="4" d="M236.543 270.039L236.543 272.039"/>
	<path fill="none" stroke="black" stroke-width="1" stroke-miterlimit="4" d="M241.691 270.039L241.691 272.039"/>
	<path fill="none" stroke="black" stroke-width="1" stroke-miterlimit="4" d="M246.839 270.039L246.839 272.039"/>
	<path fill="none" stroke="black" stroke-width="1" stroke-miterlimit="4" d="M251.987 270.039L251.987 272.039"/>
	<path fill="none" stroke="black" stroke-width="1" stroke-miterlimit="4" d="M262.283 270.039L262.283 272.039"/>
	<path fill="none" stroke="black" stroke-width="1" stroke-miterlimit="4" d="M267.431 270.039L267.431 272.039"/>
	<path fill="none" stroke="black" stroke-width="1" stroke-miterlimit="4" d="M272.579 270.039L272.579 272.039"/>
	<path fill="none" stroke="black" stroke-width="1" stroke-miterlimit="4" d="M277.727 270.039L277.727 272.039"/>
	<path fill="none" stroke="black" stroke-width="1" stroke-miterlimit="4" d="M288.023 270.039L288.023 272.039"/>
	<path fill="none" stroke="black" stroke-width="1" stroke-miterlimit="4" d="M293.171 270.039L293.171 272.039"/>
	<path fill="none" stroke="black" stroke-width="1" stroke-miterlimit="4" d="M298.319 270.039L298.319 272.039"/>
	<path fill="none" stroke="black" stroke-width="1" stroke-miterlimit="4" d="M303.467 270.039L303.467 272.039"/>
	<path fill="none" stroke="black" stroke-width="1" stroke-miterlimit="4" d="M313.763 270.039L313.763 272.039"/>
	<path fill="none" stroke="black" stroke-width="1" stroke-miterlimit="4" d="M318.912 270.039L318.912 272.039"/>
	<path fill="none" stroke="black" stroke-width="1" stroke-miterlimit="4" d="M324.06 270.039L324.06 272.039"/>
	<path fill="none" stroke="black" stroke-width="1" stroke-miterlimit="4" d="M329.208 270.039L329.208 272.039"/>
	<path fill="none" stroke="black" stroke-width="1" stroke-miterlimit="4" d="M339.504 270.039L339.504 272.039"/>
	<path fill="none" stroke="black" stroke-width="1" stroke-miterlimit="4" d="M344.652 270.039L344.652 272.039"/>
	<path fill="none" stroke="black" stroke-width="1" stroke-miterlimit="4" d="M349.8 270.039L349.8 272.039"/>
	<path fill="none" stroke="black" stroke-width="1" stroke-miterlimit="4" d="M354.948 270.039L354.948 272.039"/>
	<path fill="none" stroke="black" stroke-width="1" stroke-miterlimit="4" d="M365.244 270.039L365.244 272.039"/>
	<path fill="none" stroke="black" stroke-width="1" stroke-miterlimit="4" d="M370.392 270.039L370.392 272.039"/>
	<path fill="none" stroke="black" stroke-width="1" stroke-miterlimit="4" d="M375.54 270.039L375.54 272.039"/>
	<path fill="none" stroke="black" stroke-width="1" stroke-miterlimit="4" d="M380.688 270.039L380.688 272.039"/>
	<path fill="none" stroke="black" stroke-width="1" stroke-miterlimit="4" d="M390.984 270.039L390.984 272.039"/>
	<path fill="none" stroke="black" stroke-width="1" stroke-miterlimit="4" d="M396.132 270.039L396.132 272.039"/>
	<path fill="none" stroke="black" stroke-width="1" stroke-miterlimit="4" d="M401.28 270.039L401.28 272.039"/>
	<path fill="none" stroke="black" stroke-width="1" stroke-miterlimit="4" d="M406.428 270.039L406.428 272.039"/>
	<path fill="none" stroke="black" stroke-width="1" stroke-miterlimit="4" d="M416.724 270.039L416.724 272.039"/>
	<path fill="none" stroke="black" stroke-width="1" stroke-miterlimit="4" d="M421.872 270.039L421.872 272.039"/>
	<path fill="none" stroke="black" stroke-width="1" stroke-miterlimit="4" d="M427.021 270.039L427.021 272.039"/>
	<path fill="none" stroke="black" stroke-width="1" stroke-miterlimit="4" d="M432.169 270.039L432.169 272.039"/>
	<path fill="none" stroke="black" stroke-width="1" stroke-miterlimit="4" d="M32.9375 270.039L435 270.039"/>
	<path fill="none" stroke="black" stroke-width="1" stroke-miterlimit="4" d="M32.9375 46.3812L435 46.3812"/>
	<path fill="none" stroke="black" stroke-width="1" stroke-miterlimit="4" d="M32.9375 255.446L28.9375 255.446"/>
	<text transform="translate(23.9375 255.446)" font-size="12" font-family="Segoe UI" x="-6.46875, " y="3.046875, ">
			0
	</text>
	<path fill="none" stroke="black" stroke-width="1" stroke-miterlimit="4" d="M32.9375 227.094L28.9375 227.094"/>
	<text transform="translate(23.9375 227.094)" font-size="12" font-family="Segoe UI" x="-6.46875, " y="3.046875, ">
			5
	</text>
	<path fill="none" stroke="black" stroke-width="1" stroke-miterlimit="4" d="M32.9375 198.741L28.9375 198.741"/>
	<text transform="translate(23.9375 198.741)" font-size="12" font-family="Segoe UI" x="-12.9375, -6.46875, " y="3.046875, ">
			10
	</text>
	<path fill="none" stroke="black" stroke-width="1" stroke-miterlimit="4" d="M32.9375 170.389L28.9375 170.389"/>
	<text transform="translate(23.9375 170.389)" font-size="12" font-family="Segoe UI" x="-12.9375, -6.46875, " y="3.046875, ">
			15
	</text>
	<path fill="none" stroke="black" stroke-width="1" stroke-miterlimit="4" d="M32.9375 142.037L28.9375 142.037"/>
	<text transform="translate(23.9375 142.037)" font-size="12" font-family="Segoe UI" x="-12.9375, -6.46875, " y="3.046875, ">
			20
	</text>
	<path fill="none" stroke="black" stroke-width="1" stroke-miterlimit="4" d="M32.9375 113.684L28.9375 113.684"/>
	<text transform="translate(23.9375 113.684)" font-size="12" font-family="Segoe UI" x="-12.9375, -6.46875, " y="3.046875, ">
			25
	</text>
	<path fill="none" stroke="black" stroke-width="1" stroke-miterlimit="4" d="M32.9375 85.332L28.9375 85.332"/>
	<text transform="translate(23.9375 85.332)" font-size="12" font-family="Segoe UI" x="-12.9375, -6.46875, " y="3.046875, ">
			30
	</text>
	<path fill="none" stroke="black" stroke-width="1" stroke-miterlimit="4" d="M32.9375 56.9796L28.9375 56.9796"/>
	<text transform="translate(23.9375 56.9796)" font-size="12" font-family="Segoe UI" x="-12.9375, -6.46875, " y="3.046875, ">
			35
	</text>
	<path fill="none" stroke="black" stroke-width="1" stroke-miterlimit="4" d="M32.9375 266.787L30.9375 266.787"/>
	<path fill="none" stroke="black" stroke-width="1" stroke-miterlimit="4" d="M32.9375 261.117L30.9375 261.117"/>
	<path fill="none" stroke="black" stroke-width="1" stroke-miterlimit="4" d="M32.9375 249.776L30.9375 249.776"/>
	<path fill="none" stroke="black" stroke-width="1" stroke-miterlimit="4" d="M32.9375 244.105L30.9375 244.105"/>
	<path fill="none" stroke="black" stroke-width="1" stroke-miterlimit="4" d="M32.9375 238.435L30.9375 238.435"/>
	<path fill="none" stroke="black" stroke-width="1" stroke-miterlimit="4" d="M32.9375 232.764L30.9375 232.764"/>
	<path fill="none" stroke="black" stroke-width="1" stroke-miterlimit="4" d="M32.9375 221.423L30.9375 221.423"/>
	<path fill="none" stroke="black" stroke-width="1" stroke-miterlimit="4" d="M32.9375 215.753L30.9375 215.753"/>
	<path fill="none" stroke="black" stroke-width="1" stroke-miterlimit="4" d="M32.9375 210.082L30.9375 210.082"/>
	<path fill="none" stroke="black" stroke-width="1" stroke-miterlimit="4" d="M32.9375 204.412L30.9375 204.412"/>
	<path fill="none" stroke="black" stroke-width="1" stroke-miterlimit="4" d="M32.9375 193.071L30.9375 193.071"/>
	<path fill="none" stroke="black" stroke-width="1" stroke-miterlimit="4" d="M32.9375 187.4L30.9375 187.4"/>
	<path fill="none" stroke="black" stroke-width="1" stroke-miterlimit="4" d="M32.9375 181.73L30.9375 181.73"/>
	<path fill="none" stroke="black" stroke-width="1" stroke-miterlimit="4" d="M32.9375 176.06L30.9375 176.06"/>
	<path fill="none" stroke="black" stroke-width="1" stroke-miterlimit="4" d="M32.9375 164.719L30.9375 164.719"/>
	<path fill="none" stroke="black" stroke-width="1" stroke-miterlimit="4" d="M32.9375 159.048L30.9375 159.048"/>
	<path fill="none" stroke="black" stroke-width="1" stroke-miterlimit="4" d="M32.9375 153.378L30.9375 153.378"/>
	<path fill="none" stroke="black" stroke-width="1" stroke-miterlimit="4" d="M32.9375 147.707L30.9375 147.707"/>
	<path fill="none" stroke="black" stroke-width="1" stroke-miterlimit="4" d="M32.9375 136.366L30.9375 136.366"/>
	<path fill="none" stroke="black" stroke-width="1" stroke-miterlimit="4" d="M32.9375 130.696L30.9375 130.696"/>
	<path fill="none" stroke="black" stroke-width="1" stroke-miterlimit="4" d="M32.9375 125.025L30.9375 125.025"/>
	<path fill="none" stroke="black" stroke-width="1" stroke-miterlimit="4" d="M32.9375 119.355L30.9375 119.355"/>
	<path fill="none" stroke="black" stroke-width="1" stroke-miterlimit="4" d="M32.9375 108.014L30.9375 108.014"/>
	<path fill="none" stroke="black" stroke-width="1" stroke-miterlimit="4" d="M32.9375 102.343L30.9375 102.343"/>
	<path fill="none" stroke="black" stroke-width="1" stroke-miterlimit="4" d="M32.9375 96.6729L30.9375 96.6729"/>
	<path fill="none" stroke="black" stroke-width="1" stroke-miterlimit="4" d="M32.9375 91.0025L30.9375 91.0025"/>
	<path fill="none" stroke="black" stroke-width="1" stroke-miterlimit="4" d="M32.9375 79.6615L30.9375 79.6615"/>
	<path fill="none" stroke="black" stroke-width="1" stroke-miterlimit="4" d="M32.9375 73.991L30.9375 73.991"/>
	<path fill="none" stroke="black" stroke-width="1" stroke-miterlimit="4" d="M32.9375 68.3206L30.9375 68.3206"/>
	<path fill="none" stroke="black" stroke-width="1" stroke-miterlimit="4" d="M32.9375 62.6501L30.9375 62.6501"/>
	<path fill="none" stroke="black" stroke-width="1" stroke-miterlimit="4" d="M32.9375 51.3091L30.9375 51.3091"/>
	<path fill="none" stroke="black" stroke-width="1" stroke-miterlimit="4" d="M32.9375 270.039L32.9375 46.2813"/>
	<path fill="none" stroke="black" stroke-width="1" stroke-miterlimit="4" d="M435 270.039L435 46.2813"/>
	<text transform="translate(233.969 31.2813)" font-size="16" font-weight="600" font-family="Segoe UI" x="-77.039063, -67.664063, -61.296875, -56.75, -48.140625, -38.460938, -28.554688, -24.007813, -15.351563, -10.9375, -4.46875, -0.0546875, 11.742188, 20.257813, 35.570313, 46.820313, 52.726563, 61.929688, 71.132813, " y="-6.890625, ">
			Triangle - DEMA(10)
	</text>
</svg>
