<?xml version="1.0" encoding="utf-8" ?>
<svg xmlns="http://www.w3.org/2000/svg" xmlns:xlink="http://www.w3.org/1999/xlink" width="450" height="300">
	<rect fill="white" width="450" height="300"/>
	<path fill="none" stroke="#010101" stroke-width="1" stroke-miterlimit="4" stroke-opacity="0.098039217" d="M51.2131 270.039L51.2131 46.2813M76.9533 270.039L76.9533 46.2813M102.694 270.039L102.694 46.2813M128.434 270.039L128.434 46.2813M154.174 270.039L154.174 46.2813M179.914 270.039L179.914 46.2813M205.654 270.039L205.654 46.2813M231.395 270.039L231.395 46.2813M257.135 270.039L257.135 46.2813M282.875 270.039L282.875 46.2813M308.615 270.039L308.615 46.2813M334.356 270.039L334.356 46.2813M360.096 270.039L360.096 46.2813M385.836 270.039L385.836 46.2813M411.576 270.039L411.576 46.2813"/>
	<path fill="none" stroke="#010101" stroke-width="1" stroke-miterlimit="4" stroke-opacity="0.098039217" d="M32.9375 266.669L435 266.669M32.9375 240.495L435 240.495M32.9375 214.321L435 214.321M32.9375 188.147L435 188.147M32.9375 161.974L435 161.974M32.9375 135.8L435 135.8M32.9375 109.626L435 109.626M32.9375 83.4526L435 83.4526M32.9375 57.2789L435 57.2789"/>
	<clipPath id="cl_19">
		<rect x="32.9375" y="46.28125" width="402.0625" height="223.75781"/>
	</clipPath>
	<g clip-path="url(#cl_19)">
		<path fill="none" stroke="red" stroke-width="2" stroke-miterlimit="4" d="M51.2131 240.495L51.2131 240.495L56.3611 240.443L61.5092 240.495L66.6572 240.443L71.8053 240.495L76.9533 240.443L82.1013 235.26L87.2494 230.025L92.3974 224.791L97.5455 219.556L102.694 214.321L107.842 209.086L112.99 203.852L118.138 198.617L123.286 193.382L128.434 188.147L133.582 182.913L138.73 177.678L143.878 172.443L149.026 167.209L154.174 161.974L159.322 156.739L164.47 151.504L169.618 146.27L174.766 141.035L179.914 135.8L185.062 130.565L190.21 125.331L195.358 120.096L200.506 114.861L205.654 109.626L210.803 104.392L215.951 99.1568L221.099 93.9221L226.247 88.6873L231.395 83.4526L236.543 78.2178L241.691 72.9831L246.839 67.7484L251.987 62.5136L257.135 67.7484L262.283 240.495L267.431 240.495L272.579 240.495L277.727 240.495L282.875 240.495L288.023 240.495L293.171 240.495L298.319 240.495L303.467 240.495L308.615 240.495L313.763 240.495L318.912 240.495L324.06 240.495L329.208 240.495L334.356 240.495L339.504 240.495L344.652 240.495L349.8 240.495L354.948 240.495L360.096 240.495L365.244 240.495L370.392 240.495L375.54 240.495L380.688 240.495L385.836 240.495L390.984 240.495L396.132 240.495L401.28 240.495L406.428 240.495L411.576 240.495L416.724 240.495"/>
		<ellipse fill="red" cx="51.213066" cy="240.49493" rx="0.40587997" ry="0.40588379"/>
		<ellipse fill="red" cx="56.361115" cy="240.44258" rx="0.40587997" ry="0.40588379"/>
		<ellipse fill="red" cx="61.509163" cy="240.49493" rx="0.40587997" ry="0.40588379"/>
		<ellipse fill="red" cx="66.657211" cy="240.44258" rx="0.40587616" ry="0.40588379"/>
		<ellipse fill="red" cx="71.805252" cy="240.49493" rx="0.40587616" ry="0.40588379"/>
		<ellipse fill="red" cx="76.953308" cy="240.44258" rx="0.40587616" ry="0.40588379"/>
		<ellipse fill="red" cx="82.101349" cy="235.26019" rx="0.40587616" ry="0.40588379"/>
		<ellipse fill="red" cx="87.249405" cy="230.02545" rx="0.40587616" ry="0.40588379"/>
		<ellipse fill="red" cx="92.397446" cy="224.7907" rx="0.40587616" ry="0.40588379"/>
		<ellipse fill="red" cx="97.545494" cy="219.55595" rx="0.40587616" ry="0.40588379"/>
		<ellipse fill="red" cx="102.69354" cy="214.32121" rx="0.40587616" ry="0.40588379"/>
		<ellipse fill="red" cx="107.84159" cy="209.08647" rx="0.40587616" ry="0.40588379"/>
		<ellipse fill="red" cx="112.98964" cy="203.85172" rx="0.40587616" ry="0.40588379"/>
		<ellipse fill="red" cx="118.13769" cy="198.61697" rx="0.40587616" ry="0.40588379"/>
		<ellipse fill="red" cx="123.28573" cy="193.38223" rx="0.40587616" ry="0.40588379"/>
		<ellipse fill="red" cx="128.43378" cy="188.14749" rx="0.40588379" ry="0.40588379"/>
		<ellipse fill="red" cx="133.58182" cy="182.91275" rx="0.40588379" ry="0.40588379"/>
		<ellipse fill="red" cx="138.72987" cy="177.67801" rx="0.40588379" ry="0.40588379"/>
		<ellipse fill="red" cx="143.87793" cy="172.44325" rx="0.40588379" ry="0.40588379"/>
		<ellipse fill="red" cx="149.02597" cy="167.20851" rx="0.40588379" ry="0.40588379"/>
		<ellipse fill="red" cx="154.17401" cy="161.97377" rx="0.40588379" ry="0.40588379"/>
		<ellipse fill="red" cx="159.32205" cy="156.73901" rx="0.40588379" ry="0.40588379"/>
		<ellipse fill="red" cx="164.47011" cy="151.50427" rx="0.40588379" ry="0.40588379"/>
		<ellipse fill="red" cx="169.61816" cy="146.26953" rx="0.40588379" ry="0.40588379"/>
		<ellipse fill="red" cx="174.7662" cy="141.03479" rx="0.40588379" ry="0.40588379"/>
		<ellipse fill="red" cx="179.91425" cy="135.80005" rx="0.40588379" ry="0.40588379"/>
		<ellipse fill="red" cx="185.0623" cy="130.56531" rx="0.40588379" ry="0.40588379"/>
		<ellipse fill="red" cx="190.21034" cy="125.33055" rx="0.40588379" ry="0.40587616"/>
		<ellipse fill="red" cx="195.3584" cy="120.09581" rx="0.40588379" ry="0.40587616"/>
		<ellipse fill="red" cx="200.50644" cy="114.86107" rx="0.40588379" ry="0.40587616"/>
		<ellipse fill="red" cx="205.6545" cy="109.62633" rx="0.40588379" ry="0.40587616"/>
		<ellipse fill="red" cx="210.80254" cy="104.39157" rx="0.40588379" ry="0.40587616"/>
		<ellipse fill="red" cx="215.95058" cy="99.15683" rx="0.40588379" ry="0.40587616"/>
		<ellipse fill="red" cx="221.09863" cy="93.922089" rx="0.40588379" ry="0.40587616"/>
		<ellipse fill="red" cx="226.24667" cy="88.687347" rx="0.40588379" ry="0.40587616"/>
		<ellipse fill="red" cx="231.39473" cy="83.452606" rx="0.40588379" ry="0.40587616"/>
		<ellipse fill="red" cx="236.54277" cy="78.21785" rx="0.40588379" ry="0.40587616"/>
		<ellipse fill="red" cx="241.69083" cy="72.983109" rx="0.40588379" ry="0.40587616"/>
		<ellipse fill="red" cx="246.83887" cy="67.748367" rx="0.40588379" ry="0.40587616"/>
		<ellipse fill="red" cx="251.98692" cy="62.513626" rx="0.40588379" ry="0.40587997"/>
		<ellipse fill="red" cx="257.13495" cy="67.748367" rx="0.40588379" ry="0.40587616"/>
		<ellipse fill="red" cx="262.28302" cy="240.49493" rx="0.40588379" ry="0.40588379"/>
		<ellipse fill="red" cx="267.43106" cy="240.49493" rx="0.40588379" ry="0.40588379"/>
		<ellipse fill="red" cx="272.5791" cy="240.49493" rx="0.40588379" ry="0.40588379"/>
		<ellipse fill="red" cx="277.72717" cy="240.49493" rx="0.40588379" ry="0.40588379"/>
		<ellipse fill="red" cx="282.87518" cy="240.49493" rx="0.40588379" ry="0.40588379"/>
		<ellipse fill="red" cx="288.02325" cy="240.49493" rx="0.40588379" ry="0.40588379"/>
		<ellipse fill="red" cx="293.1713" cy="240.49493" rx="0.40588379" ry="0.40588379"/>
		<ellipse fill="red" cx="298.31934" cy="240.49493" rx="0.40588379" ry="0.40588379"/>
		<ellipse fill="red" cx="303.46738" cy="240.49493" rx="0.40588379" ry="0.40588379"/>
		<ellipse fill="red" cx="308.61545" cy="240.49493" rx="0.40588379" ry="0.40588379"/>
		<ellipse fill="red" cx="313.76349" cy="240.49493" rx="0.40588379" ry="0.40588379"/>
		<ellipse fill="red" cx="318.91153" cy="240.49493" rx="0.40588379" ry="0.40588379"/>
		<ellipse fill="red" cx="324.05957" cy="240.49493" rx="0.40588379" ry="0.40588379"/>
		<ellipse fill="red" cx="329.20764" cy="240.49493" rx="0.40588379" ry="0.40588379"/>
		<ellipse fill="red" cx="334.35568" cy="240.49493" rx="0.40588379" ry="0.40588379"/>
		<ellipse fill="red" cx="339.50372" cy="240.49493" rx="0.40588379" ry="0.40588379"/>
		<ellipse fill="red" cx="344.65176" cy="240.49493" rx="0.40588379" ry="0.40588379"/>
		<ellipse fill="red" cx="349.7998" cy="240.49493" rx="0.40588379" ry="0.40588379"/>
		<ellipse fill="red" cx="354.94788" cy="240.49493" rx="0.40588379" ry="0.40588379"/>
		<ellipse fill="red" cx="360.09592" cy="240.49493" rx="0.40588379" ry="0.40588379"/>
		<ellipse fill="red" cx="365.24396" cy="240.49493" rx="0.40588379" ry="0.40588379"/>
		<ellipse fill="red" cx="370.392" cy="240.49493" rx="0.40588379" ry="0.40588379"/>
		<ellipse fill="red" cx="375.54004" cy="240.49493" rx="0.40588379" ry="0.40588379"/>
		<ellipse fill="red" cx="380.68811" cy="240.49493" rx="0.40588379" ry="0.40588379"/>
		<ellipse fill="red" cx="385.83615" cy="240.49493" rx="0.40588379" ry="0.40588379"/>
		<ellipse fill="red" cx="390.98419" cy="240.49493" rx="0.40588379" ry="0.40588379"/>
		<ellipse fill="red" cx="396.13223" cy="240.49493" rx="0.40588379" ry="0.40588379"/>
		<ellipse fill="red" cx="401.2803" cy="240.49493" rx="0.40588379" ry="0.40588379"/>
		<ellipse fill="red" cx="406.42834" cy="240.49493" rx="0.40588379" ry="0.40588379"/>
		<ellipse fill="red" cx="411.57639" cy="240.49493" rx="0.40588379" ry="0.40588379"/>
		<ellipse fill="red" cx="416.72443" cy="240.49493" rx="0.40588379" ry="0.40588379"/>
	</g>
	<clipPath id="cl_1a">
		<rect x="32.9375" y="46.28125" width="402.0625" height="223.75781"/>
	</clipPath>
	<g clip-path="url(#cl_1a)">
		<path fill="none" stroke="blue" stroke-width="4" stroke-miterlimit="4" d="M51.2131 240.474L51.2131 240.474L56.3611 240.464L61.5092 240.474L66.6572 240.464L71.8053 240.474L76.9533 240.464L82.1013 238.74L87.2494 235.739L92.3974 231.81L97.5455 227.217L102.694 222.159L107.842 216.784L112.99 211.201L118.138 205.49L123.286 199.71L128.434 193.901L133.582 188.092L138.73 182.302L143.878 176.543L149.026 170.822L154.174 165.142L159.322 159.505L164.47 153.909L169.618 148.353L174.766 142.835L179.914 137.351L185.062 131.898L190.21 126.473L195.358 121.073L200.506 115.696L205.654 110.338L210.803 104.997L215.951 99.6716L221.099 94.3589L226.247 89.0576L231.395 83.7661L236.543 78.483L241.691 73.2071L246.839 67.9374L251.987 62.673L257.135 60.8741L262.283 117.004L267.431 158.66L272.579 189.251L277.727 211.424L282.875 227.227L288.023 238.245L293.171 245.695L298.319 250.51L303.467 253.403L308.615 254.912L313.763 255.446L318.912 255.309L324.06 254.728L329.208 253.868L334.356 252.851L339.504 251.761L344.652 250.659L349.8 249.586L354.948 248.566L360.096 247.617L365.244 246.746L370.392 245.957L375.54 245.248L380.688 244.616L385.836 244.057L390.984 243.565L396.132 243.134L401.28 242.758L406.428 242.432L411.576 242.149L416.724 241.906"/>
		<ellipse fill="blue" cx="51.213066" cy="240.47366" rx="0.40587997" ry="0.40588379"/>
		<ellipse fill="blue" cx="56.361115" cy="240.46368" rx="0.40587997" ry="0.40588379"/>
		<ellipse fill="blue" cx="61.509163" cy="240.47369" rx="0.40587997" ry="0.40588379"/>
		<ellipse fill="blue" cx="66.657211" cy="240.46371" rx="0.40587616" ry="0.40588379"/>
		<ellipse fill="blue" cx="71.805252" cy="240.47369" rx="0.40587616" ry="0.40588379"/>
		<ellipse fill="blue" cx="76.953308" cy="240.46373" rx="0.40587616" ry="0.40588379"/>
		<ellipse fill="blue" cx="82.101349" cy="238.74011" rx="0.40587616" ry="0.40588379"/>
		<ellipse fill="blue" cx="87.249405" cy="235.73918" rx="0.40587616" ry="0.40588379"/>
		<ellipse fill="blue" cx="92.397446" cy="231.81026" rx="0.40587616" ry="0.40588379"/>
		<ellipse fill="blue" cx="97.545494" cy="227.21745" rx="0.40587616" ry="0.40588379"/>
		<ellipse fill="blue" cx="102.69354" cy="222.15929" rx="0.40587616" ry="0.40588379"/>
		<ellipse fill="blue" cx="107.84159" cy="216.78389" rx="0.40587616" ry="0.40588379"/>
		<ellipse fill="blue" cx="112.98964" cy="211.20084" rx="0.40587616" ry="0.40588379"/>
		<ellipse fill="blue" cx="118.13769" cy="205.4903" rx="0.40587616" ry="0.40588379"/>
		<ellipse fill="blue" cx="123.28573" cy="199.71011" rx="0.40587616" ry="0.40588379"/>
		<ellipse fill="blue" cx="128.43378" cy="193.90131" rx="0.40588379" ry="0.40588379"/>
		<ellipse fill="blue" cx="133.58182" cy="188.09229" rx="0.40588379" ry="0.40588379"/>
		<ellipse fill="blue" cx="138.72987" cy="182.30209" rx="0.40588379" ry="0.40588379"/>
		<ellipse fill="blue" cx="143.87793" cy="176.54282" rx="0.40588379" ry="0.40588379"/>
		<ellipse fill="blue" cx="149.02597" cy="170.82153" rx="0.40588379" ry="0.40588379"/>
		<ellipse fill="blue" cx="154.17401" cy="165.14178" rx="0.40588379" ry="0.40588379"/>
		<ellipse fill="blue" cx="159.32205" cy="159.50452" rx="0.40588379" ry="0.40588379"/>
		<ellipse fill="blue" cx="164.47011" cy="153.90895" rx="0.40588379" ry="0.40588379"/>
		<ellipse fill="blue" cx="169.61816" cy="148.35324" rx="0.40588379" ry="0.40588379"/>
		<ellipse fill="blue" cx="174.7662" cy="142.83481" rx="0.40588379" ry="0.40588379"/>
		<ellipse fill="blue" cx="179.91425" cy="137.35069" rx="0.40588379" ry="0.40588379"/>
		<ellipse fill="blue" cx="185.0623" cy="131.89778" rx="0.40588379" ry="0.40588379"/>
		<ellipse fill="blue" cx="190.21034" cy="126.47298" rx="0.40588379" ry="0.40587616"/>
		<ellipse fill="blue" cx="195.3584" cy="121.07326" rx="0.40588379" ry="0.40587616"/>
		<ellipse fill="blue" cx="200.50644" cy="115.69579" rx="0.40588379" ry="0.40587616"/>
		<ellipse fill="blue" cx="205.6545" cy="110.33792" rx="0.40588379" ry="0.40587616"/>
		<ellipse fill="blue" cx="210.80254" cy="104.99724" rx="0.40588379" ry="0.40587616"/>
		<ellipse fill="blue" cx="215.95058" cy="99.67157" rx="0.40588379" ry="0.40587616"/>
		<ellipse fill="blue" cx="221.09863" cy="94.358948" rx="0.40588379" ry="0.40587616"/>
		<ellipse fill="blue" cx="226.24667" cy="89.057632" rx="0.40588379" ry="0.40587616"/>
		<ellipse fill="blue" cx="231.39473" cy="83.766098" rx="0.40588379" ry="0.40587616"/>
		<ellipse fill="blue" cx="236.54277" cy="78.482971" rx="0.40588379" ry="0.40587616"/>
		<ellipse fill="blue" cx="241.69083" cy="73.207077" rx="0.40588379" ry="0.40587616"/>
		<ellipse fill="blue" cx="246.83887" cy="67.937393" rx="0.40588379" ry="0.40587616"/>
		<ellipse fill="blue" cx="251.98692" cy="62.673004" rx="0.40588379" ry="0.40587997"/>
		<ellipse fill="blue" cx="257.13495" cy="60.874146" rx="0.40588379" ry="0.40587997"/>
		<ellipse fill="blue" cx="262.28302" cy="117.0036" rx="0.40588379" ry="0.40587616"/>
		<ellipse fill="blue" cx="267.43106" cy="158.66019" rx="0.40588379" ry="0.40588379"/>
		<ellipse fill="blue" cx="272.5791" cy="189.25127" rx="0.40588379" ry="0.40588379"/>
		<ellipse fill="blue" cx="277.72717" cy="211.42358" rx="0.40588379" ry="0.40588379"/>
		<ellipse fill="blue" cx="282.87518" cy="227.22725" rx="0.40588379" ry="0.40588379"/>
		<ellipse fill="blue" cx="288.02325" cy="238.24515" rx="0.40588379" ry="0.40588379"/>
		<ellipse fill="blue" cx="293.1713" cy="245.69514" rx="0.40588379" ry="0.40588379"/>
		<ellipse fill="blue" cx="298.31934" cy="250.51042" rx="0.40588379" ry="0.40588379"/>
		<ellipse fill="blue" cx="303.46738" cy="253.40277" rx="0.40588379" ry="0.40588379"/>
		<ellipse fill="blue" cx="308.61545" cy="254.91228" rx="0.40588379" ry="0.40588379"/>
		<ellipse fill="blue" cx="313.76349" cy="255.44617" rx="0.40588379" ry="0.40588379"/>
		<ellipse fill="blue" cx="318.91153" cy="255.3093" rx="0.40588379" ry="0.40588379"/>
		<ellipse fill="blue" cx="324.05957" cy="254.72795" rx="0.40588379" ry="0.40588379"/>
		<ellipse fill="blue" cx="329.20764" cy="253.86827" rx="0.40588379" ry="0.40588379"/>
		<ellipse fill="blue" cx="334.35568" cy="252.85069" rx="0.40588379" ry="0.40588379"/>
		<ellipse fill="blue" cx="339.50372" cy="251.76105" rx="0.40588379" ry="0.40588379"/>
		<ellipse fill="blue" cx="344.65176" cy="250.65918" rx="0.40588379" ry="0.40588379"/>
		<ellipse fill="blue" cx="349.7998" cy="249.58556" rx="0.40588379" ry="0.40588379"/>
		<ellipse fill="blue" cx="354.94788" cy="248.56633" rx="0.40588379" ry="0.40588379"/>
		<ellipse fill="blue" cx="360.09592" cy="247.61722" rx="0.40588379" ry="0.40588379"/>
		<ellipse fill="blue" cx="365.24396" cy="246.74641" rx="0.40588379" ry="0.40588379"/>
		<ellipse fill="blue" cx="370.392" cy="245.95682" rx="0.40588379" ry="0.40588379"/>
		<ellipse fill="blue" cx="375.54004" cy="245.2477" rx="0.40588379" ry="0.40588379"/>
		<ellipse fill="blue" cx="380.68811" cy="244.61588" rx="0.40588379" ry="0.40588379"/>
		<ellipse fill="blue" cx="385.83615" cy="244.05669" rx="0.40588379" ry="0.40588379"/>
		<ellipse fill="blue" cx="390.98419" cy="243.56461" rx="0.40588379" ry="0.40588379"/>
		<ellipse fill="blue" cx="396.13223" cy="243.13373" rx="0.40588379" ry="0.40588379"/>
		<ellipse fill="blue" cx="401.2803" cy="242.75806" rx="0.40588379" ry="0.40588379"/>
		<ellipse fill="blue" cx="406.42834" cy="242.43176" rx="0.40588379" ry="0.40588379"/>
		<ellipse fill="blue" cx="411.57639" cy="242.14929" rx="0.40588379" ry="0.40588379"/>
		<ellipse fill="blue" cx="416.72443" cy="241.90552" rx="0.40588379" ry="0.40588379"/>
	</g>
	<path fill="none" stroke="black" stroke-width="1" stroke-miterlimit="4" d="M51.2131 270.039L51.2131 274.039"/>
	<text transform="translate(51.2131 276.039)" font-size="12" font-family="Segoe UI" x="-3.234375, " y="11.027344, ">
			0
	</text>
	<path fill="none" stroke="black" stroke-width="1" stroke-miterlimit="4" d="M76.9533 270.039L76.9533 274.039"/>
	<text transform="translate(76.9533 276.039)" font-size="12" font-family="Segoe UI" x="-3.234375, " y="11.027344, ">
			5
	</text>
	<path fill="none" stroke="black" stroke-width="1" stroke-miterlimit="4" d="M102.694 270.039L102.694 274.039"/>
	<text transform="translate(102.694 276.039)" font-size="12" font-family="Segoe UI" x="-6.46875, 0, " y="11.027344, ">
			10
	</text>
	<path fill="none" stroke="black" stroke-width="1" stroke-miterlimit="4" d="M128.434 270.039L128.434 274.039"/>
	<text transform="translate(128.434 276.039)" font-size="12" font-family="Segoe UI" x="-6.46875, 0, " y="11.027344, ">
			15
	</text>
	<path fill="none" stroke="black" stroke-width="1" stroke-miterlimit="4" d="M154.174 270.039L154.174 274.039"/>
	<text transform="translate(154.174 276.039)" font-size="12" font-family="Segoe UI" x="-6.46875, 0, " y="11.027344, ">
			20
	</text>
	<path fill="none" stroke="black" stroke-width="1" stroke-miterlimit="4" d="M179.914 270.039L179.914 274.039"/>
	<text transform="translate(179.914 276.039)" font-size="12" font-family="Segoe UI" x="-6.46875, 0, " y="11.027344, ">
			25
	</text>
	<path fill="none" stroke="black" stroke-width="1" stroke-miterlimit="4" d="M205.654 270.039L205.654 274.039"/>
	<text transform="translate(205.654 276.039)" font-size="12" font-family="Segoe UI" x="-6.46875, 0, " y="11.027344, ">
			30
	</text>
	<path fill="none" stroke="black" stroke-width="1" stroke-miterlimit="4" d="M231.395 270.039L231.395 274.039"/>
	<text transform="translate(231.395 276.039)" font-size="12" font-family="Segoe UI" x="-6.46875, 0, " y="11.027344, ">
			35
	</text>
	<path fill="none" stroke="black" stroke-width="1" stroke-miterlimit="4" d="M257.135 270.039L257.135 274.039"/>
	<text transform="translate(257.135 276.039)" font-size="12" font-family="Segoe UI" x="-6.46875, 0, " y="11.027344, ">
			40
	</text>
	<path fill="none" stroke="black" stroke-width="1" stroke-miterlimit="4" d="M282.875 270.039L282.875 274.039"/>
	<text transform="translate(282.875 276.039)" font-size="12" font-family="Segoe UI" x="-6.46875, 0, " y="11.027344, ">
			45
	</text>
	<path fill="none" stroke="black" stroke-width="1" stroke-miterlimit="4" d="M308.615 270.039L308.615 274.039"/>
	<text transform="translate(308.615 276.039)" font-size="12" font-family="Segoe UI" x="-6.46875, 0, " y="11.027344, ">
			50
	</text>
	<path fill="none" stroke="black" stroke-width="1" stroke-miterlimit="4" d="M334.356 270.039L334.356 274.039"/>
	<text transform="translate(334.356 276.039)" font-size="12" font-family="Segoe UI" x="-6.46875, 0, " y="11.027344, ">
			55
	</text>
	<path fill="none" stroke="black" stroke-width="1" stroke-miterlimit="4" d="M360.096 270.039L360.096 274.039"/>
	<text transform="translate(360.096 276.039)" font-size="12" font-family="Segoe UI" x="-6.46875, 0, " y="11.027344, ">
			60
	</text>
	<path fill="none" stroke="black" stroke-width="1" stroke-miterlimit="4" d="M385.836 270.039L385.836 274.039"/>
	<text transform="translate(385.836 276.039)" font-size="12" font-family="Segoe UI" x="-6.46875, 0, " y="11.027344, ">
			65
	</text>
	<path fill="none" stroke="black" stroke-width="1" stroke-miterlimit="4" d="M411.576 270.039L411.576 274.039"/>
	<text transform="translate(411.576 276.039)" font-size="12" font-family="Segoe UI" x="-6.46875, 0, " y="11.027344, ">
			70
	</text>
	<path fill="none" stroke="black" stroke-width="1" stroke-miterlimit="4" d="M35.7689 270.039L35.7689 272.039"/>
	<path fill="none" stroke="black" stroke-width="1" stroke-miterlimit="4" d="M40.917 270.039L40.917 272.039"/>
	<path fill="none" stroke="black" stroke-width="1" stroke-miterlimit="4" d="M46.065 270.039L46.065 272.039"/>
	<path fill="none" stroke="black" stroke-width="1" stroke-miterlimit="4" d="M56.3611 270.039L56.3611 272.039"/>
	<path fill="none" stroke="black" stroke-width="1" stroke-miterlimit="4" d="M61.5092 270.039L61.5092 272.039"/>
	<path fill="none" stroke="black" stroke-width="1" stroke-miterlimit="4" d="M66.6572 270.039L66.6572 272.039"/>
	<path fill="none" stroke="black" stroke-width="1" stroke-miterlimit="4" d="M71.8053 270.039L71.8053 272.039"/>
	<path fill="none" stroke="black" stroke-width="1" stroke-miterlimit="4" d="M82.1013 270.039L82.1013 272.039"/>
	<path fill="none" stroke="black" stroke-width="1" stroke-miterlimit="4" d="M87.2494 270.039L87.2494 272.039"/>
	<path fill="none" stroke="black" stroke-width="1" stroke-miterlimit="4" d="M92.3974 270.039L92.3974 272.039"/>
	<path fill="none" stroke="black" stroke-width="1" stroke-miterlimit="4" d="M97.5455 270.039L97.5455 272.039"/>
	<path fill="none" stroke="black" stroke-width="1" stroke-miterlimit="4" d="M107.842 270.039L107.842 272.039"/>
	<path fill="none" stroke="black" stroke-width="1" stroke-miterlimit="4" d="M112.99 270.039L112.99 272.039"/>
	<path fill="none" stroke="black" stroke-width="1" stroke-miterlimit="4" d="M118.138 270.039L118.138 272.039"/>
	<path fill="none" stroke="black" stroke-width="1" stroke-miterlimit="4" d="M123.286 270.039L123.286 272.039"/>
	<path fill="none" stroke="black" stroke-width="1" stroke-miterlimit="4" d="M133.582 270.039L133.582 272.039"/>
	<path fill="none" stroke="black" stroke-width="1" stroke-miterlimit="4" d="M138.73 270.039L138.73 272.039"/>
	<path fill="none" stroke="black" stroke-width="1" stroke-miterlimit="4" d="M143.878 270.039L143.878 272.039"/>
	<path fill="none" stroke="black" stroke-width="1" stroke-miterlimit="4" d="M149.026 270.039L149.026 272.039"/>
	<path fill="none" stroke="black" stroke-width="1" stroke-miterlimit="4" d="M159.322 270.039L159.322 272.039"/>
	<path fill="none" stroke="black" stroke-width="1" stroke-miterlimit="4" d="M164.47 270.039L164.47 272.039"/>
	<path fill="none" stroke="black" stroke-width="1" stroke-miterlimit="4" d="M169.618 270.039L169.618 272.039"/>
	<path fill="none" stroke="black" stroke-width="1" stroke-miterlimit="4" d="M174.766 270.039L174.766 272.039"/>
	<path fill="none" stroke="black" stroke-width="1" stroke-miterlimit="4" d="M185.062 270.039L185.062 272.039"/>
	<path fill="none" stroke="black" stroke-width="1" stroke-miterlimit="4" d="M190.21 270.039L190.21 272.039"/>
	<path fill="none" stroke="black" stroke-width="1" stroke-miterlimit="4" d="M195.358 270.039L195.358 272.039"/>
	<path fill="none" stroke="black" stroke-width="1" stroke-miterlimit="4" d="M200.506 270.039L200.506 272.039"/>
	<path fill="none" stroke="black" stroke-width="1" stroke-miterlimit="4" d="M210.803 270.039L210.803 272.039"/>
	<path fill="none" stroke="black" stroke-width="1" stroke-miterlimit="4" d="M215.951 270.039L215.951 272.039"/>
	<path fill="none" stroke="black" stroke-width="1" stroke-miterlimit="4" d="M221.099 270.039L221.099 272.039"/>
	<path fill="none" stroke="black" stroke-width="1" stroke-miterlimit="4" d="M226.247 270.039L226.247 272.039"/>
	<path fill="none" stroke="black" stroke-width="1" stroke-miterlimit="4" d="M236.543 270.039L236.543 272.039"/>
	<path fill="none" stroke="black" stroke-width="1" stroke-miterlimit="4" d="M241.691 270.039L241.691 272.039"/>
	<path fill="none" stroke="black" stroke-width="1" stroke-miterlimit="4" d="M246.839 270.039L246.839 272.039"/>
	<path fill="none" stroke="black" stroke-width="1" stroke-miterlimit="4" d="M251.987 270.039L251.987 272.039"/>
	<path fill="none" stroke="black" stroke-width="1" stroke-miterlimit="4" d="M262.283 270.039L262.283 272.039"/>
	<path fill="none" stroke="black" stroke-width="1" stroke-miterlimit="4" d="M267.431 270.039L267.431 272.039"/>
	<path fill="none" stroke="black" stroke-width="1" stroke-miterlimit="4" d="M272.579 270.039L272.579 272.039"/>
	<path fill="none" stroke="black" stroke-width="1" stroke-miterlimit="4" d="M277.727 270.039L277.727 272.039"/>
	<path fill="none" stroke="black" stroke-width="1" stroke-miterlimit="4" d="M288.023 270.039L288.023 272.039"/>
	<path fill="none" stroke="black" stroke-width="1" stroke-miterlimit="4" d="M293.171 270.039L293.171 272.039"/>
	<path fill="none" stroke="black" stroke-width="1" stroke-miterlimit="4" d="M298.319 270.039L298.319 272.039"/>
	<path fill="none" stroke="black" stroke-width="1" stroke-miterlimit="4" d="M303.467 270.039L303.467 272.039"/>
	<path fill="none" stroke="black" stroke-width="1" stroke-miterlimit="4" d="M313.763 270.039L313.763 272.039"/>
	<path fill="none" stroke="black" stroke-width="1" stroke-miterlimit="4" d="M318.912 270.039L318.912 272.039"/>
	<path fill="none" stroke="black" stroke-width="1" stroke-miterlimit="4" d="M324.06 270.039L324.06 272.039"/>
	<path fill="none" stroke="black" stroke-width="1" stroke-miterlimit="4" d="M329.208 270.039L329.208 272.039"/>
	<path fill="none" stroke="black" stroke-width="1" stroke-miterlimit="4" d="M339.504 270.039L339.504 272.039"/>
	<path fill="none" stroke="black" stroke-width="1" stroke-miterlimit="4" d="M344.652 270.039L344.652 272.039"/>
	<path fill="none" stroke="black" stroke-width="1" stroke-miterlimit="4" d="M349.8 270.039L349.8 272.039"/>
	<path fill="none" stroke="black" stroke-width="1" stroke-miterlimit="4" d="M354.948 270.039L354.948 272.039"/>
	<path fill="none" stroke="black" stroke-width="1" stroke-miterlimit="4" d="M365.244 270.039L365.244 272.039"/>
	<path fill="none" stroke="black" stroke-width="1" stroke-miterlimit="4" d="M370.392 270.039L370.392 272.039"/>
	<path fill="none" stroke="black" stroke-width="1" stroke-miterlimit="4" d="M375.54 270.039L375.54 272.039"/>
	<path fill="none" stroke="black" stroke-width="1" stroke-miterlimit="4" d="M380.688 270.039L380.688 272.039"/>
	<path fill="none" stroke="black" stroke-width="1" stroke-miterlimit="4" d="M390.984 270.039L390.984 272.039"/>
	<path fill="none" stroke="black" stroke-width="1" stroke-miterlimit="4" d="M396.132 270.039L396.132 272.039"/>
	<path fill="none" stroke="black" stroke-width="1" stroke-miterlimit="4" d="M401.28 270.039L401.28 272.039"/>
	<path fill="none" stroke="black" stroke-width="1" stroke-miterlimit="4" d="M406.428 270.039L406.428 272.039"/>
	<path fill="none" stroke="black" stroke-width="1" stroke-miterlimit="4" d="M416.724 270.039L416.724 272.039"/>
	<path fill="none" stroke="black" stroke-width="1" stroke-miterlimit="4" d="M421.872 270.039L421.872 272.039"/>
	<path fill="none" stroke="black" stroke-width="1" stroke-miterlimit="4" d="M427.021 270.039L427.021 272.039"/>
	<path fill="none" stroke="black" stroke-width="1" stroke-miterlimit="4" d="M432.169 270.039L432.169 272.039"/>
	<path fill="none" stroke="black" stroke-width="1" stroke-miterlimit="4" d="M32.9375 270.039L435 270.039"/>
	<path fill="none" stroke="black" stroke-width="1" stroke-miterlimit="4" d="M32.9375 46.3812L435 46.3812"/>
	<path fill="none" stroke="black" stroke-width="1" stroke-miterlimit="4" d="M32.9375 266.669L28.9375 266.669"/>
	<text transform="translate(23.9375 266.669)" font-size="12" font-family="Segoe UI" x="-11.267578, -6.46875, " y="3.046875, ">
			-5
	</text>
	<path fill="none" stroke="black" stroke-width="1" stroke-miterlimit="4" d="M32.9375 240.495L28.9375 240.495"/>
	<text transform="translate(23.9375 240.495)" font-size="12" font-family="Segoe UI" x="-6.46875, " y="3.046875, ">
			0
	</text>
	<path fill="none" stroke="black" stroke-width="1" stroke-miterlimit="4" d="M32.9375 214.321L28.9375 214.321"/>
	<text transform="translate(23.9375 214.321)" font-size="12" font-family="Segoe UI" x="-6.46875, " y="3.046875, ">
			5
	</text>
	<path fill="none" stroke="black" stroke-width="1" stroke-miterlimit="4" d="M32.9375 188.147L28.9375 188.147"/>
	<text transform="translate(23.9375 188.147)" font-size="12" font-family="Segoe UI" x="-12.9375, -6.46875, " y="3.046875, ">
			10
	</text>
	<path fill="none" stroke="black" stroke-width="1" stroke-miterlimit="4" d="M32.9375 161.974L28.9375 161.974"/>
	<text transform="translate(23.9375 161.974)" font-size="12" font-family="Segoe UI" x="-12.9375, -6.46875, " y="3.046875, ">
			15
	</text>
	<path fill="none" stroke="black" stroke-width="1" stroke-miterlimit="4" d="M32.9375 135.8L28.9375 135.8"/>
	<text transform="translate(23.9375 135.8)" font-size="12" font-family="Segoe UI" x="-12.9375, -6.46875, " y="3.046875, ">
			20
	</text>
	<path fill="none" stroke="black" stroke-width="1" stroke-miterlimit="4" d="M32.9375 109.626L28.9375 109.626"/>
	<text transform="translate(23.9375 109.626)" font-size="12" font-family="Segoe UI" x="-12.9375, -6.46875, " y="3.046875, ">
			25
	</text>
	<path fill="none" stroke="black" stroke-width="1" stroke-miterlimit="4" d="M32.9375 83.4526L28.9375 83.4526"/>
	<text transform="translate(23.9375 83.4526)" font-size="12" font-family="Segoe UI" x="-12.9375, -6.46875, " y="3.046875, ">
			30
	</text>
	<path fill="none" stroke="black" stroke-width="1" stroke-miterlimit="4" d="M32.9375 57.2789L28.9375 57.2789"/>
	<text transform="translate(23.9375 57.2789)" font-size="12" font-family="Segoe UI" x="-12.9375, -6.46875, " y="3.046875, ">
			35
	</text>
	<path fill="none" stroke="black" stroke-width="1" stroke-miterlimit="4" d="M32.9375 261.434L30.9375 261.434"/>
	<path fill="none" stroke="black" stroke-width="1" stroke-miterlimit="4" d="M32.9375 256.199L30.9375 256.199"/>
	<path fill="none" stroke="black" stroke-width="1" stroke-miterlimit="4" d="M32.9375 250.964L30.9375 250.964"/>
	<path fill="none" stroke="black" stroke-width="1" stroke-miterlimit="4" d="M32.9375 245.73L30.9375 245.73"/>
	<path fill="none" stroke="black" stroke-width="1" stroke-miterlimit="4" d="M32.9375 235.26L30.9375 235.26"/>
	<path fill="none" stroke="black" stroke-width="1" stroke-miterlimit="4" d="M32.9375 230.025L30.9375 230.025"/>
	<path fill="none" stroke="black" stroke-width="1" stroke-miterlimit="4" d="M32.9375 224.791L30.9375 224.791"/>
	<path fill="none" stroke="black" stroke-width="1" stroke-miterlimit="4" d="M32.9375 219.556L30.9375 219.556"/>
	<path fill="none" stroke="black" stroke-width="1" stroke-miterlimit="4" d="M32.9375 209.086L30.9375 209.086"/>
	<path fill="none" stroke="black" stroke-width="1" stroke-miterlimit="4" d="M32.9375 203.852L30.9375 203.852"/>
	<path fill="none" stroke="black" stroke-width="1" stroke-miterlimit="4" d="M32.9375 198.617L30.9375 198.617"/>
	<path fill="none" stroke="black" stroke-width="1" stroke-miterlimit="4" d="M32.9375 193.382L30.9375 193.382"/>
	<path fill="none" stroke="black" stroke-width="1" stroke-miterlimit="4" d="M32.9375 182.913L30.9375 182.913"/>
	<path fill="none" stroke="black" stroke-width="1" stroke-miterlimit="4" d="M32.9375 177.678L30.9375 177.678"/>
	<path fill="none" stroke="black" stroke-width="1" stroke-miterlimit="4" d="M32.9375 172.443L30.9375 172.443"/>
	<path fill="none" stroke="black" stroke-width="1" stroke-miterlimit="4" d="M32.9375 167.209L30.9375 167.209"/>
	<path fill="none" stroke="black" stroke-width="1" stroke-miterlimit="4" d="M32.9375 156.739L30.9375 156.739"/>
	<path fill="none" stroke="black" stroke-width="1" stroke-miterlimit="4" d="M32.9375 151.504L30.9375 151.504"/>
	<path fill="none" stroke="black" stroke-width="1" stroke-miterlimit="4" d="M32.9375 146.27L30.9375 146.27"/>
	<path fill="none" stroke="black" stroke-width="1" stroke-miterlimit="4" d="M32.9375 141.035L30.9375 141.035"/>
	<path fill="none" stroke="black" stroke-width="1" stroke-miterlimit="4" d="M32.9375 130.565L30.9375 130.565"/>
	<path fill="none" stroke="black" stroke-width="1" stroke-miterlimit="4" d="M32.9375 125.331L30.9375 125.331"/>
	<path fill="none" stroke="black" stroke-width="1" stroke-miterlimit="4" d="M32.9375 120.096L30.9375 120.096"/>
	<path fill="none" stroke="black" stroke-width="1" stroke-miterlimit="4" d="M32.9375 114.861L30.9375 114.861"/>
	<path fill="none" stroke="black" stroke-width="1" stroke-miterlimit="4" d="M32.9375 104.392L30.9375 104.392"/>
	<path fill="none" stroke="black" stroke-width="1" stroke-miterlimit="4" d="M32.9375 99.1568L30.9375 99.1568"/>
	<path fill="none" stroke="black" stroke-width="1" stroke-miterlimit="4" d="M32.9375 93.9221L30.9375 93.9221"/>
	<path fill="none" stroke="black" stroke-width="1" stroke-miterlimit="4" d="M32.9375 88.6873L30.9375 88.6873"/>
	<path fill="none" stroke="black" stroke-width="1" stroke-miterlimit="4" d="M32.9375 78.2178L30.9375 78.2178"/>
	<path fill="none" stroke="black" stroke-width="1" stroke-miterlimit="4" d="M32.9375 72.9831L30.9375 72.9831"/>
	<path fill="none" stroke="black" stroke-width="1" stroke-miterlimit="4" d="M32.9375 67.7484L30.9375 67.7484"/>
	<path fill="none" stroke="black" stroke-width="1" stroke-miterlimit="4" d="M32.9375 62.5136L30.9375 62.5136"/>
	<path fill="none" stroke="black" stroke-width="1" stroke-miterlimit="4" d="M32.9375 52.0441L30.9375 52.0441"/>
	<path fill="none" stroke="black" stroke-width="1" stroke-miterlimit="4" d="M32.9375 46.8094L30.9375 46.8094"/>
	<path fill="none" stroke="black" stroke-width="1" stroke-miterlimit="4" d="M32.9375 270.039L32.9375 46.2813"/>
	<path fill="none" stroke="black" stroke-width="1" stroke-miterlimit="4" d="M435 270.039L435 46.2813"/>
	<text transform="translate(233.969 31.2813)" font-size="16" font-weight="600" font-family="Segoe UI" x="-82.1875, -73.21875, -64.609375, -51.851563, -45.625, -35.84375, -26.0625, -19.835938, -10.203125, -5.7890625, 0.6796875, 5.09375, 16.890625, 25.40625, 40.71875, 51.96875, 57.875, 67.078125, 76.28125, " y="-6.890625, ">
			Sawtooth - DEMA(10)
	</text>
</svg>
