<?xml version="1.0" encoding="utf-8" ?>
<svg xmlns="http://www.w3.org/2000/svg" xmlns:xlink="http://www.w3.org/1999/xlink" width="450" height="300">
	<rect fill="white" width="450" height="300"/>
	<path fill="none" stroke="#010101" stroke-width="1" stroke-miterlimit="4" stroke-opacity="0.098039217" d="M51.2131 270.039L51.2131 46.2813M76.9533 270.039L76.9533 46.2813M102.694 270.039L102.694 46.2813M128.434 270.039L128.434 46.2813M154.174 270.039L154.174 46.2813M179.914 270.039L179.914 46.2813M205.654 270.039L205.654 46.2813M231.395 270.039L231.395 46.2813M257.135 270.039L257.135 46.2813M282.875 270.039L282.875 46.2813M308.615 270.039L308.615 46.2813M334.356 270.039L334.356 46.2813M360.096 270.039L360.096 46.2813M385.836 270.039L385.836 46.2813M411.576 270.039L411.576 46.2813"/>
	<path fill="none" stroke="#010101" stroke-width="1" stroke-miterlimit="4" stroke-opacity="0.098039217" d="M32.9375 251.972L435 251.972M32.9375 224.176L435 224.176M32.9375 196.38L435 196.38M32.9375 168.584L435 168.584M32.9375 140.788L435 140.788M32.9375 112.992L435 112.992M32.9375 85.1956L435 85.1956M32.9375 57.3997L435 57.3997"/>
	<clipPath id="cl_61">
		<rect x="32.9375" y="46.28125" width="402.0625" height="223.75781"/>
	</clipPath>
	<g clip-path="url(#cl_61)">
		<path fill="none" stroke="red" stroke-width="2" stroke-miterlimit="4" d="M51.2131 185.956L51.2131 185.956L56.3611 192.905L61.5092 185.956L66.6572 192.905L71.8053 185.956L76.9533 192.905L82.1013 185.956L87.2494 192.905L92.3974 199.854L97.5455 199.854L102.694 130.364L107.842 102.568L112.99 137.313L118.138 151.211L123.286 144.262L128.434 130.364L133.582 60.8741L138.73 85.1956L143.878 85.1956L149.026 85.1956L154.174 102.568L159.322 92.1447L164.47 102.568L169.618 116.466L174.766 112.992L179.914 102.568L185.062 137.313L190.21 133.839L195.358 137.313L200.506 106.043L205.654 102.568L210.803 88.6702L215.951 88.6702L221.099 88.6702L226.247 109.517L231.395 116.466L236.543 102.568L241.691 140.788L246.839 144.262L251.987 133.839L257.135 137.313L262.283 154.686L267.431 140.788L272.579 144.262L277.727 144.262L282.875 123.415L288.023 133.839L293.171 116.466L298.319 112.992L303.467 74.7722L308.615 88.6702L313.763 99.0937L318.912 88.6702L324.06 106.043L329.208 109.517L334.356 119.941L339.504 144.262L344.652 161.635L349.8 182.482L354.948 161.635L360.096 168.584L365.244 185.956L370.392 206.803L375.54 189.431L380.688 158.16L385.836 168.584L390.984 161.635L396.132 192.905L401.28 192.905L406.428 192.905L411.576 255.446L416.724 248.497"/>
		<ellipse fill="red" cx="51.213066" cy="185.95616" rx="0.40587997" ry="0.40588379"/>
		<ellipse fill="red" cx="56.361115" cy="192.90515" rx="0.40587997" ry="0.40588379"/>
		<ellipse fill="red" cx="61.509163" cy="185.95616" rx="0.40587997" ry="0.40588379"/>
		<ellipse fill="red" cx="66.657211" cy="192.90515" rx="0.40587616" ry="0.40588379"/>
		<ellipse fill="red" cx="71.805252" cy="185.95616" rx="0.40587616" ry="0.40588379"/>
		<ellipse fill="red" cx="76.953308" cy="192.90515" rx="0.40587616" ry="0.40588379"/>
		<ellipse fill="red" cx="82.101349" cy="185.95616" rx="0.40587616" ry="0.40588379"/>
		<ellipse fill="red" cx="87.249405" cy="192.90515" rx="0.40587616" ry="0.40588379"/>
		<ellipse fill="red" cx="92.397446" cy="199.85416" rx="0.40587616" ry="0.40588379"/>
		<ellipse fill="red" cx="97.545494" cy="199.85416" rx="0.40587616" ry="0.40588379"/>
		<ellipse fill="red" cx="102.69354" cy="130.36415" rx="0.40587616" ry="0.40588379"/>
		<ellipse fill="red" cx="107.84159" cy="102.56815" rx="0.40587616" ry="0.40587616"/>
		<ellipse fill="red" cx="112.98964" cy="137.31316" rx="0.40587616" ry="0.40588379"/>
		<ellipse fill="red" cx="118.13769" cy="151.21115" rx="0.40587616" ry="0.40588379"/>
		<ellipse fill="red" cx="123.28573" cy="144.26215" rx="0.40587616" ry="0.40588379"/>
		<ellipse fill="red" cx="128.43378" cy="130.36415" rx="0.40588379" ry="0.40588379"/>
		<ellipse fill="red" cx="133.58182" cy="60.874146" rx="0.40588379" ry="0.40587997"/>
		<ellipse fill="red" cx="138.72987" cy="85.195648" rx="0.40588379" ry="0.40587616"/>
		<ellipse fill="red" cx="143.87793" cy="85.195648" rx="0.40588379" ry="0.40587616"/>
		<ellipse fill="red" cx="149.02597" cy="85.195648" rx="0.40588379" ry="0.40587616"/>
		<ellipse fill="red" cx="154.17401" cy="102.56815" rx="0.40588379" ry="0.40587616"/>
		<ellipse fill="red" cx="159.32205" cy="92.144653" rx="0.40588379" ry="0.40587616"/>
		<ellipse fill="red" cx="164.47011" cy="102.56815" rx="0.40588379" ry="0.40587616"/>
		<ellipse fill="red" cx="169.61816" cy="116.46616" rx="0.40588379" ry="0.40587616"/>
		<ellipse fill="red" cx="174.7662" cy="112.99165" rx="0.40588379" ry="0.40587616"/>
		<ellipse fill="red" cx="179.91425" cy="102.56815" rx="0.40588379" ry="0.40587616"/>
		<ellipse fill="red" cx="185.0623" cy="137.31316" rx="0.40588379" ry="0.40588379"/>
		<ellipse fill="red" cx="190.21034" cy="133.83865" rx="0.40588379" ry="0.40588379"/>
		<ellipse fill="red" cx="195.3584" cy="137.31316" rx="0.40588379" ry="0.40588379"/>
		<ellipse fill="red" cx="200.50644" cy="106.04265" rx="0.40588379" ry="0.40587616"/>
		<ellipse fill="red" cx="205.6545" cy="102.56815" rx="0.40588379" ry="0.40587616"/>
		<ellipse fill="red" cx="210.80254" cy="88.670151" rx="0.40588379" ry="0.40587616"/>
		<ellipse fill="red" cx="215.95058" cy="88.670151" rx="0.40588379" ry="0.40587616"/>
		<ellipse fill="red" cx="221.09863" cy="88.670151" rx="0.40588379" ry="0.40587616"/>
		<ellipse fill="red" cx="226.24667" cy="109.51715" rx="0.40588379" ry="0.40587616"/>
		<ellipse fill="red" cx="231.39473" cy="116.46616" rx="0.40588379" ry="0.40587616"/>
		<ellipse fill="red" cx="236.54277" cy="102.56815" rx="0.40588379" ry="0.40587616"/>
		<ellipse fill="red" cx="241.69083" cy="140.78766" rx="0.40588379" ry="0.40588379"/>
		<ellipse fill="red" cx="246.83887" cy="144.26215" rx="0.40588379" ry="0.40588379"/>
		<ellipse fill="red" cx="251.98692" cy="133.83865" rx="0.40588379" ry="0.40588379"/>
		<ellipse fill="red" cx="257.13495" cy="137.31316" rx="0.40588379" ry="0.40588379"/>
		<ellipse fill="red" cx="262.28302" cy="154.68565" rx="0.40588379" ry="0.40588379"/>
		<ellipse fill="red" cx="267.43106" cy="140.78766" rx="0.40588379" ry="0.40588379"/>
		<ellipse fill="red" cx="272.5791" cy="144.26215" rx="0.40588379" ry="0.40588379"/>
		<ellipse fill="red" cx="277.72717" cy="144.26215" rx="0.40588379" ry="0.40588379"/>
		<ellipse fill="red" cx="282.87518" cy="123.41516" rx="0.40588379" ry="0.40587616"/>
		<ellipse fill="red" cx="288.02325" cy="133.83865" rx="0.40588379" ry="0.40588379"/>
		<ellipse fill="red" cx="293.1713" cy="116.46616" rx="0.40588379" ry="0.40587616"/>
		<ellipse fill="red" cx="298.31934" cy="112.99165" rx="0.40588379" ry="0.40587616"/>
		<ellipse fill="red" cx="303.46738" cy="74.772156" rx="0.40588379" ry="0.40587616"/>
		<ellipse fill="red" cx="308.61545" cy="88.670151" rx="0.40588379" ry="0.40587616"/>
		<ellipse fill="red" cx="313.76349" cy="99.093658" rx="0.40588379" ry="0.40587616"/>
		<ellipse fill="red" cx="318.91153" cy="88.670151" rx="0.40588379" ry="0.40587616"/>
		<ellipse fill="red" cx="324.05957" cy="106.04265" rx="0.40588379" ry="0.40587616"/>
		<ellipse fill="red" cx="329.20764" cy="109.51715" rx="0.40588379" ry="0.40587616"/>
		<ellipse fill="red" cx="334.35568" cy="119.94066" rx="0.40588379" ry="0.40587616"/>
		<ellipse fill="red" cx="339.50372" cy="144.26215" rx="0.40588379" ry="0.40588379"/>
		<ellipse fill="red" cx="344.65176" cy="161.63466" rx="0.40588379" ry="0.40588379"/>
		<ellipse fill="red" cx="349.7998" cy="182.48166" rx="0.40588379" ry="0.40588379"/>
		<ellipse fill="red" cx="354.94788" cy="161.63466" rx="0.40588379" ry="0.40588379"/>
		<ellipse fill="red" cx="360.09592" cy="168.58365" rx="0.40588379" ry="0.40588379"/>
		<ellipse fill="red" cx="365.24396" cy="185.95616" rx="0.40588379" ry="0.40588379"/>
		<ellipse fill="red" cx="370.392" cy="206.80316" rx="0.40588379" ry="0.40588379"/>
		<ellipse fill="red" cx="375.54004" cy="189.43066" rx="0.40588379" ry="0.40588379"/>
		<ellipse fill="red" cx="380.68811" cy="158.16016" rx="0.40588379" ry="0.40588379"/>
		<ellipse fill="red" cx="385.83615" cy="168.58365" rx="0.40588379" ry="0.40588379"/>
		<ellipse fill="red" cx="390.98419" cy="161.63466" rx="0.40588379" ry="0.40588379"/>
		<ellipse fill="red" cx="396.13223" cy="192.90515" rx="0.40588379" ry="0.40588379"/>
		<ellipse fill="red" cx="401.2803" cy="192.90515" rx="0.40588379" ry="0.40588379"/>
		<ellipse fill="red" cx="406.42834" cy="192.90515" rx="0.40588379" ry="0.40588379"/>
		<ellipse fill="red" cx="411.57639" cy="255.44617" rx="0.40588379" ry="0.40588379"/>
		<ellipse fill="red" cx="416.72443" cy="248.49716" rx="0.40588379" ry="0.40588379"/>
	</g>
	<clipPath id="cl_62">
		<rect x="32.9375" y="46.28125" width="402.0625" height="223.75781"/>
	</clipPath>
	<g clip-path="url(#cl_62)">
		<path fill="none" stroke="blue" stroke-width="4" stroke-miterlimit="4" d="M51.2131 189.402L51.2131 189.402L56.3611 189.459L61.5092 189.402L66.6572 189.459L71.8053 189.402L76.9533 189.459L82.1013 189.402L87.2494 189.459L92.3974 189.861L97.5455 190.516L102.694 189.085L107.842 185.023L112.99 180.066L118.138 174.953L123.286 169.671L128.434 163.967L133.582 155.872L138.73 146.911L143.878 137.649L149.026 128.661L154.174 121.055L159.322 114.404L164.47 108.867L169.618 104.902L174.766 102.399L179.914 100.998L185.062 101.811L190.21 104.011L195.358 107.249L200.506 110.057L205.654 112.149L210.803 113.074L215.951 112.877L221.099 111.67L226.247 110.354L231.395 109.215L236.543 107.74L241.691 107.477L246.839 108.512L251.987 110.458L257.135 113.234L262.283 117.176L267.431 121.39L272.579 125.672L277.727 129.701L282.875 132.634L288.023 134.855L293.171 135.67L298.319 135.23L303.467 132.575L308.615 128.64L313.763 124.146L318.912 119.142L324.06 114.537L329.208 110.649L334.356 107.975L339.504 107.241L344.652 108.848L349.8 113.074L354.948 118.684L360.096 125.277L365.244 132.892L370.392 141.68L375.54 150.368L380.688 157.51L385.836 163.308L390.984 167.418L396.132 170.982L401.28 174.02L406.428 176.685L411.576 181.039L416.724 186.463"/>
		<ellipse fill="blue" cx="51.213066" cy="189.40195" rx="0.40587997" ry="0.40588379"/>
		<ellipse fill="blue" cx="56.361115" cy="189.45938" rx="0.40587997" ry="0.40588379"/>
		<ellipse fill="blue" cx="61.509163" cy="189.40195" rx="0.40587997" ry="0.40588379"/>
		<ellipse fill="blue" cx="66.657211" cy="189.45938" rx="0.40587616" ry="0.40588379"/>
		<ellipse fill="blue" cx="71.805252" cy="189.40195" rx="0.40587616" ry="0.40588379"/>
		<ellipse fill="blue" cx="76.953308" cy="189.45938" rx="0.40587616" ry="0.40588379"/>
		<ellipse fill="blue" cx="82.101349" cy="189.40195" rx="0.40587616" ry="0.40588379"/>
		<ellipse fill="blue" cx="87.249405" cy="189.45938" rx="0.40587616" ry="0.40588379"/>
		<ellipse fill="blue" cx="92.397446" cy="189.86139" rx="0.40587616" ry="0.40588379"/>
		<ellipse fill="blue" cx="97.545494" cy="190.51608" rx="0.40587616" ry="0.40588379"/>
		<ellipse fill="blue" cx="102.69354" cy="189.08493" rx="0.40587616" ry="0.40588379"/>
		<ellipse fill="blue" cx="107.84159" cy="185.0235" rx="0.40587616" ry="0.40588379"/>
		<ellipse fill="blue" cx="112.98964" cy="180.06616" rx="0.40587616" ry="0.40588379"/>
		<ellipse fill="blue" cx="118.13769" cy="174.95261" rx="0.40587616" ry="0.40588379"/>
		<ellipse fill="blue" cx="123.28573" cy="169.67139" rx="0.40587616" ry="0.40588379"/>
		<ellipse fill="blue" cx="128.43378" cy="163.96745" rx="0.40588379" ry="0.40588379"/>
		<ellipse fill="blue" cx="133.58182" cy="155.87216" rx="0.40588379" ry="0.40588379"/>
		<ellipse fill="blue" cx="138.72987" cy="146.91081" rx="0.40588379" ry="0.40588379"/>
		<ellipse fill="blue" cx="143.87793" cy="137.64854" rx="0.40588379" ry="0.40588379"/>
		<ellipse fill="blue" cx="149.02597" cy="128.66078" rx="0.40588379" ry="0.40588379"/>
		<ellipse fill="blue" cx="154.17401" cy="121.05479" rx="0.40588379" ry="0.40587616"/>
		<ellipse fill="blue" cx="159.32205" cy="114.40442" rx="0.40588379" ry="0.40587616"/>
		<ellipse fill="blue" cx="164.47011" cy="108.86705" rx="0.40588379" ry="0.40587616"/>
		<ellipse fill="blue" cx="169.61816" cy="104.9021" rx="0.40588379" ry="0.40587616"/>
		<ellipse fill="blue" cx="174.7662" cy="102.39931" rx="0.40588379" ry="0.40587616"/>
		<ellipse fill="blue" cx="179.91425" cy="100.99802" rx="0.40588379" ry="0.40587616"/>
		<ellipse fill="blue" cx="185.0623" cy="101.81123" rx="0.40588379" ry="0.40587616"/>
		<ellipse fill="blue" cx="190.21034" cy="104.01079" rx="0.40588379" ry="0.40587616"/>
		<ellipse fill="blue" cx="195.3584" cy="107.24867" rx="0.40588379" ry="0.40587616"/>
		<ellipse fill="blue" cx="200.50644" cy="110.05699" rx="0.40588379" ry="0.40587616"/>
		<ellipse fill="blue" cx="205.6545" cy="112.14859" rx="0.40588379" ry="0.40587616"/>
		<ellipse fill="blue" cx="210.80254" cy="113.07436" rx="0.40588379" ry="0.40587616"/>
		<ellipse fill="blue" cx="215.95058" cy="112.8768" rx="0.40588379" ry="0.40587616"/>
		<ellipse fill="blue" cx="221.09863" cy="111.66962" rx="0.40588379" ry="0.40587616"/>
		<ellipse fill="blue" cx="226.24667" cy="110.35448" rx="0.40588379" ry="0.40587616"/>
		<ellipse fill="blue" cx="231.39473" cy="109.21507" rx="0.40588379" ry="0.40587616"/>
		<ellipse fill="blue" cx="236.54277" cy="107.74028" rx="0.40588379" ry="0.40587616"/>
		<ellipse fill="blue" cx="241.69083" cy="107.47725" rx="0.40588379" ry="0.40587616"/>
		<ellipse fill="blue" cx="246.83887" cy="108.51213" rx="0.40588379" ry="0.40587616"/>
		<ellipse fill="blue" cx="251.98692" cy="110.45786" rx="0.40588379" ry="0.40587616"/>
		<ellipse fill="blue" cx="257.13495" cy="113.23401" rx="0.40588379" ry="0.40587616"/>
		<ellipse fill="blue" cx="262.28302" cy="117.17598" rx="0.40588379" ry="0.40587616"/>
		<ellipse fill="blue" cx="267.43106" cy="121.39018" rx="0.40588379" ry="0.40587616"/>
		<ellipse fill="blue" cx="272.5791" cy="125.67215" rx="0.40588379" ry="0.40587616"/>
		<ellipse fill="blue" cx="277.72717" cy="129.70142" rx="0.40588379" ry="0.40588379"/>
		<ellipse fill="blue" cx="282.87518" cy="132.63377" rx="0.40588379" ry="0.40588379"/>
		<ellipse fill="blue" cx="288.02325" cy="134.85516" rx="0.40588379" ry="0.40588379"/>
		<ellipse fill="blue" cx="293.1713" cy="135.66951" rx="0.40588379" ry="0.40588379"/>
		<ellipse fill="blue" cx="298.31934" cy="135.2296" rx="0.40588379" ry="0.40588379"/>
		<ellipse fill="blue" cx="303.46738" cy="132.5752" rx="0.40588379" ry="0.40588379"/>
		<ellipse fill="blue" cx="308.61545" cy="128.64011" rx="0.40588379" ry="0.40588379"/>
		<ellipse fill="blue" cx="313.76349" cy="124.14566" rx="0.40588379" ry="0.40587616"/>
		<ellipse fill="blue" cx="318.91153" cy="119.14238" rx="0.40588379" ry="0.40587616"/>
		<ellipse fill="blue" cx="324.05957" cy="114.53651" rx="0.40588379" ry="0.40587616"/>
		<ellipse fill="blue" cx="329.20764" cy="110.64851" rx="0.40588379" ry="0.40587616"/>
		<ellipse fill="blue" cx="334.35568" cy="107.97459" rx="0.40588379" ry="0.40587616"/>
		<ellipse fill="blue" cx="339.50372" cy="107.24063" rx="0.40588379" ry="0.40587616"/>
		<ellipse fill="blue" cx="344.65176" cy="108.84752" rx="0.40588379" ry="0.40587616"/>
		<ellipse fill="blue" cx="349.7998" cy="113.07436" rx="0.40588379" ry="0.40587616"/>
		<ellipse fill="blue" cx="354.94788" cy="118.6841" rx="0.40588379" ry="0.40587616"/>
		<ellipse fill="blue" cx="360.09592" cy="125.27702" rx="0.40588379" ry="0.40587616"/>
		<ellipse fill="blue" cx="365.24396" cy="132.89221" rx="0.40588379" ry="0.40588379"/>
		<ellipse fill="blue" cx="370.392" cy="141.68011" rx="0.40588379" ry="0.40588379"/>
		<ellipse fill="blue" cx="375.54004" cy="150.36809" rx="0.40588379" ry="0.40588379"/>
		<ellipse fill="blue" cx="380.68811" cy="157.51004" rx="0.40588379" ry="0.40588379"/>
		<ellipse fill="blue" cx="385.83615" cy="163.30817" rx="0.40588379" ry="0.40588379"/>
		<ellipse fill="blue" cx="390.98419" cy="167.41783" rx="0.40588379" ry="0.40588379"/>
		<ellipse fill="blue" cx="396.13223" cy="170.98193" rx="0.40588379" ry="0.40588379"/>
		<ellipse fill="blue" cx="401.2803" cy="174.01996" rx="0.40588379" ry="0.40588379"/>
		<ellipse fill="blue" cx="406.42834" cy="176.68469" rx="0.40588379" ry="0.40588379"/>
		<ellipse fill="blue" cx="411.57639" cy="181.03903" rx="0.40588379" ry="0.40588379"/>
		<ellipse fill="blue" cx="416.72443" cy="186.46268" rx="0.40588379" ry="0.40588379"/>
	</g>
	<path fill="none" stroke="black" stroke-width="1" stroke-miterlimit="4" d="M51.2131 270.039L51.2131 274.039"/>
	<text transform="translate(51.2131 276.039)" font-size="12" font-family="Segoe UI" x="-3.234375, " y="11.027344, ">
			0
	</text>
	<path fill="none" stroke="black" stroke-width="1" stroke-miterlimit="4" d="M76.9533 270.039L76.9533 274.039"/>
	<text transform="translate(76.9533 276.039)" font-size="12" font-family="Segoe UI" x="-3.234375, " y="11.027344, ">
			5
	</text>
	<path fill="none" stroke="black" stroke-width="1" stroke-miterlimit="4" d="M102.694 270.039L102.694 274.039"/>
	<text transform="translate(102.694 276.039)" font-size="12" font-family="Segoe UI" x="-6.46875, 0, " y="11.027344, ">
			10
	</text>
	<path fill="none" stroke="black" stroke-width="1" stroke-miterlimit="4" d="M128.434 270.039L128.434 274.039"/>
	<text transform="translate(128.434 276.039)" font-size="12" font-family="Segoe UI" x="-6.46875, 0, " y="11.027344, ">
			15
	</text>
	<path fill="none" stroke="black" stroke-width="1" stroke-miterlimit="4" d="M154.174 270.039L154.174 274.039"/>
	<text transform="translate(154.174 276.039)" font-size="12" font-family="Segoe UI" x="-6.46875, 0, " y="11.027344, ">
			20
	</text>
	<path fill="none" stroke="black" stroke-width="1" stroke-miterlimit="4" d="M179.914 270.039L179.914 274.039"/>
	<text transform="translate(179.914 276.039)" font-size="12" font-family="Segoe UI" x="-6.46875, 0, " y="11.027344, ">
			25
	</text>
	<path fill="none" stroke="black" stroke-width="1" stroke-miterlimit="4" d="M205.654 270.039L205.654 274.039"/>
	<text transform="translate(205.654 276.039)" font-size="12" font-family="Segoe UI" x="-6.46875, 0, " y="11.027344, ">
			30
	</text>
	<path fill="none" stroke="black" stroke-width="1" stroke-miterlimit="4" d="M231.395 270.039L231.395 274.039"/>
	<text transform="translate(231.395 276.039)" font-size="12" font-family="Segoe UI" x="-6.46875, 0, " y="11.027344, ">
			35
	</text>
	<path fill="none" stroke="black" stroke-width="1" stroke-miterlimit="4" d="M257.135 270.039L257.135 274.039"/>
	<text transform="translate(257.135 276.039)" font-size="12" font-family="Segoe UI" x="-6.46875, 0, " y="11.027344, ">
			40
	</text>
	<path fill="none" stroke="black" stroke-width="1" stroke-miterlimit="4" d="M282.875 270.039L282.875 274.039"/>
	<text transform="translate(282.875 276.039)" font-size="12" font-family="Segoe UI" x="-6.46875, 0, " y="11.027344, ">
			45
	</text>
	<path fill="none" stroke="black" stroke-width="1" stroke-miterlimit="4" d="M308.615 270.039L308.615 274.039"/>
	<text transform="translate(308.615 276.039)" font-size="12" font-family="Segoe UI" x="-6.46875, 0, " y="11.027344, ">
			50
	</text>
	<path fill="none" stroke="black" stroke-width="1" stroke-miterlimit="4" d="M334.356 270.039L334.356 274.039"/>
	<text transform="translate(334.356 276.039)" font-size="12" font-family="Segoe UI" x="-6.46875, 0, " y="11.027344, ">
			55
	</text>
	<path fill="none" stroke="black" stroke-width="1" stroke-miterlimit="4" d="M360.096 270.039L360.096 274.039"/>
	<text transform="translate(360.096 276.039)" font-size="12" font-family="Segoe UI" x="-6.46875, 0, " y="11.027344, ">
			60
	</text>
	<path fill="none" stroke="black" stroke-width="1" stroke-miterlimit="4" d="M385.836 270.039L385.836 274.039"/>
	<text transform="translate(385.836 276.039)" font-size="12" font-family="Segoe UI" x="-6.46875, 0, " y="11.027344, ">
			65
	</text>
	<path fill="none" stroke="black" stroke-width="1" stroke-miterlimit="4" d="M411.576 270.039L411.576 274.039"/>
	<text transform="translate(411.576 276.039)" font-size="12" font-family="Segoe UI" x="-6.46875, 0, " y="11.027344, ">
			70
	</text>
	<path fill="none" stroke="black" stroke-width="1" stroke-miterlimit="4" d="M35.7689 270.039L35.7689 272.039"/>
	<path fill="none" stroke="black" stroke-width="1" stroke-miterlimit="4" d="M40.917 270.039L40.917 272.039"/>
	<path fill="none" stroke="black" stroke-width="1" stroke-miterlimit="4" d="M46.065 270.039L46.065 272.039"/>
	<path fill="none" stroke="black" stroke-width="1" stroke-miterlimit="4" d="M56.3611 270.039L56.3611 272.039"/>
	<path fill="none" stroke="black" stroke-width="1" stroke-miterlimit="4" d="M61.5092 270.039L61.5092 272.039"/>
	<path fill="none" stroke="black" stroke-width="1" stroke-miterlimit="4" d="M66.6572 270.039L66.6572 272.039"/>
	<path fill="none" stroke="black" stroke-width="1" stroke-miterlimit="4" d="M71.8053 270.039L71.8053 272.039"/>
	<path fill="none" stroke="black" stroke-width="1" stroke-miterlimit="4" d="M82.1013 270.039L82.1013 272.039"/>
	<path fill="none" stroke="black" stroke-width="1" stroke-miterlimit="4" d="M87.2494 270.039L87.2494 272.039"/>
	<path fill="none" stroke="black" stroke-width="1" stroke-miterlimit="4" d="M92.3974 270.039L92.3974 272.039"/>
	<path fill="none" stroke="black" stroke-width="1" stroke-miterlimit="4" d="M97.5455 270.039L97.5455 272.039"/>
	<path fill="none" stroke="black" stroke-width="1" stroke-miterlimit="4" d="M107.842 270.039L107.842 272.039"/>
	<path fill="none" stroke="black" stroke-width="1" stroke-miterlimit="4" d="M112.99 270.039L112.99 272.039"/>
	<path fill="none" stroke="black" stroke-width="1" stroke-miterlimit="4" d="M118.138 270.039L118.138 272.039"/>
	<path fill="none" stroke="black" stroke-width="1" stroke-miterlimit="4" d="M123.286 270.039L123.286 272.039"/>
	<path fill="none" stroke="black" stroke-width="1" stroke-miterlimit="4" d="M133.582 270.039L133.582 272.039"/>
	<path fill="none" stroke="black" stroke-width="1" stroke-miterlimit="4" d="M138.73 270.039L138.73 272.039"/>
	<path fill="none" stroke="black" stroke-width="1" stroke-miterlimit="4" d="M143.878 270.039L143.878 272.039"/>
	<path fill="none" stroke="black" stroke-width="1" stroke-miterlimit="4" d="M149.026 270.039L149.026 272.039"/>
	<path fill="none" stroke="black" stroke-width="1" stroke-miterlimit="4" d="M159.322 270.039L159.322 272.039"/>
	<path fill="none" stroke="black" stroke-width="1" stroke-miterlimit="4" d="M164.47 270.039L164.47 272.039"/>
	<path fill="none" stroke="black" stroke-width="1" stroke-miterlimit="4" d="M169.618 270.039L169.618 272.039"/>
	<path fill="none" stroke="black" stroke-width="1" stroke-miterlimit="4" d="M174.766 270.039L174.766 272.039"/>
	<path fill="none" stroke="black" stroke-width="1" stroke-miterlimit="4" d="M185.062 270.039L185.062 272.039"/>
	<path fill="none" stroke="black" stroke-width="1" stroke-miterlimit="4" d="M190.21 270.039L190.21 272.039"/>
	<path fill="none" stroke="black" stroke-width="1" stroke-miterlimit="4" d="M195.358 270.039L195.358 272.039"/>
	<path fill="none" stroke="black" stroke-width="1" stroke-miterlimit="4" d="M200.506 270.039L200.506 272.039"/>
	<path fill="none" stroke="black" stroke-width="1" stroke-miterlimit="4" d="M210.803 270.039L210.803 272.039"/>
	<path fill="none" stroke="black" stroke-width="1" stroke-miterlimit="4" d="M215.951 270.039L215.951 272.039"/>
	<path fill="none" stroke="black" stroke-width="1" stroke-miterlimit="4" d="M221.099 270.039L221.099 272.039"/>
	<path fill="none" stroke="black" stroke-width="1" stroke-miterlimit="4" d="M226.247 270.039L226.247 272.039"/>
	<path fill="none" stroke="black" stroke-width="1" stroke-miterlimit="4" d="M236.543 270.039L236.543 272.039"/>
	<path fill="none" stroke="black" stroke-width="1" stroke-miterlimit="4" d="M241.691 270.039L241.691 272.039"/>
	<path fill="none" stroke="black" stroke-width="1" stroke-miterlimit="4" d="M246.839 270.039L246.839 272.039"/>
	<path fill="none" stroke="black" stroke-width="1" stroke-miterlimit="4" d="M251.987 270.039L251.987 272.039"/>
	<path fill="none" stroke="black" stroke-width="1" stroke-miterlimit="4" d="M262.283 270.039L262.283 272.039"/>
	<path fill="none" stroke="black" stroke-width="1" stroke-miterlimit="4" d="M267.431 270.039L267.431 272.039"/>
	<path fill="none" stroke="black" stroke-width="1" stroke-miterlimit="4" d="M272.579 270.039L272.579 272.039"/>
	<path fill="none" stroke="black" stroke-width="1" stroke-miterlimit="4" d="M277.727 270.039L277.727 272.039"/>
	<path fill="none" stroke="black" stroke-width="1" stroke-miterlimit="4" d="M288.023 270.039L288.023 272.039"/>
	<path fill="none" stroke="black" stroke-width="1" stroke-miterlimit="4" d="M293.171 270.039L293.171 272.039"/>
	<path fill="none" stroke="black" stroke-width="1" stroke-miterlimit="4" d="M298.319 270.039L298.319 272.039"/>
	<path fill="none" stroke="black" stroke-width="1" stroke-miterlimit="4" d="M303.467 270.039L303.467 272.039"/>
	<path fill="none" stroke="black" stroke-width="1" stroke-miterlimit="4" d="M313.763 270.039L313.763 272.039"/>
	<path fill="none" stroke="black" stroke-width="1" stroke-miterlimit="4" d="M318.912 270.039L318.912 272.039"/>
	<path fill="none" stroke="black" stroke-width="1" stroke-miterlimit="4" d="M324.06 270.039L324.06 272.039"/>
	<path fill="none" stroke="black" stroke-width="1" stroke-miterlimit="4" d="M329.208 270.039L329.208 272.039"/>
	<path fill="none" stroke="black" stroke-width="1" stroke-miterlimit="4" d="M339.504 270.039L339.504 272.039"/>
	<path fill="none" stroke="black" stroke-width="1" stroke-miterlimit="4" d="M344.652 270.039L344.652 272.039"/>
	<path fill="none" stroke="black" stroke-width="1" stroke-miterlimit="4" d="M349.8 270.039L349.8 272.039"/>
	<path fill="none" stroke="black" stroke-width="1" stroke-miterlimit="4" d="M354.948 270.039L354.948 272.039"/>
	<path fill="none" stroke="black" stroke-width="1" stroke-miterlimit="4" d="M365.244 270.039L365.244 272.039"/>
	<path fill="none" stroke="black" stroke-width="1" stroke-miterlimit="4" d="M370.392 270.039L370.392 272.039"/>
	<path fill="none" stroke="black" stroke-width="1" stroke-miterlimit="4" d="M375.54 270.039L375.54 272.039"/>
	<path fill="none" stroke="black" stroke-width="1" stroke-miterlimit="4" d="M380.688 270.039L380.688 272.039"/>
	<path fill="none" stroke="black" stroke-width="1" stroke-miterlimit="4" d="M390.984 270.039L390.984 272.039"/>
	<path fill="none" stroke="black" stroke-width="1" stroke-miterlimit="4" d="M396.132 270.039L396.132 272.039"/>
	<path fill="none" stroke="black" stroke-width="1" stroke-miterlimit="4" d="M401.28 270.039L401.28 272.039"/>
	<path fill="none" stroke="black" stroke-width="1" stroke-miterlimit="4" d="M406.428 270.039L406.428 272.039"/>
	<path fill="none" stroke="black" stroke-width="1" stroke-miterlimit="4" d="M416.724 270.039L416.724 272.039"/>
	<path fill="none" stroke="black" stroke-width="1" stroke-miterlimit="4" d="M421.872 270.039L421.872 272.039"/>
	<path fill="none" stroke="black" stroke-width="1" stroke-miterlimit="4" d="M427.021 270.039L427.021 272.039"/>
	<path fill="none" stroke="black" stroke-width="1" stroke-miterlimit="4" d="M432.169 270.039L432.169 272.039"/>
	<path fill="none" stroke="black" stroke-width="1" stroke-miterlimit="4" d="M32.9375 270.039L435 270.039"/>
	<path fill="none" stroke="black" stroke-width="1" stroke-miterlimit="4" d="M32.9375 46.3812L435 46.3812"/>
	<path fill="none" stroke="black" stroke-width="1" stroke-miterlimit="4" d="M32.9375 251.972L28.9375 251.972"/>
	<text transform="translate(23.9375 251.972)" font-size="12" font-family="Segoe UI" x="-12.9375, -6.46875, " y="3.046875, ">
			64
	</text>
	<path fill="none" stroke="black" stroke-width="1" stroke-miterlimit="4" d="M32.9375 224.176L28.9375 224.176"/>
	<text transform="translate(23.9375 224.176)" font-size="12" font-family="Segoe UI" x="-12.9375, -6.46875, " y="3.046875, ">
			66
	</text>
	<path fill="none" stroke="black" stroke-width="1" stroke-miterlimit="4" d="M32.9375 196.38L28.9375 196.38"/>
	<text transform="translate(23.9375 196.38)" font-size="12" font-family="Segoe UI" x="-12.9375, -6.46875, " y="3.046875, ">
			68
	</text>
	<path fill="none" stroke="black" stroke-width="1" stroke-miterlimit="4" d="M32.9375 168.584L28.9375 168.584"/>
	<text transform="translate(23.9375 168.584)" font-size="12" font-family="Segoe UI" x="-12.9375, -6.46875, " y="3.046875, ">
			70
	</text>
	<path fill="none" stroke="black" stroke-width="1" stroke-miterlimit="4" d="M32.9375 140.788L28.9375 140.788"/>
	<text transform="translate(23.9375 140.788)" font-size="12" font-family="Segoe UI" x="-12.9375, -6.46875, " y="3.046875, ">
			72
	</text>
	<path fill="none" stroke="black" stroke-width="1" stroke-miterlimit="4" d="M32.9375 112.992L28.9375 112.992"/>
	<text transform="translate(23.9375 112.992)" font-size="12" font-family="Segoe UI" x="-12.9375, -6.46875, " y="3.046875, ">
			74
	</text>
	<path fill="none" stroke="black" stroke-width="1" stroke-miterlimit="4" d="M32.9375 85.1956L28.9375 85.1956"/>
	<text transform="translate(23.9375 85.1956)" font-size="12" font-family="Segoe UI" x="-12.9375, -6.46875, " y="3.046875, ">
			76
	</text>
	<path fill="none" stroke="black" stroke-width="1" stroke-miterlimit="4" d="M32.9375 57.3997L28.9375 57.3997"/>
	<text transform="translate(23.9375 57.3997)" font-size="12" font-family="Segoe UI" x="-12.9375, -6.46875, " y="3.046875, ">
			78
	</text>
	<path fill="none" stroke="black" stroke-width="1" stroke-miterlimit="4" d="M32.9375 268.649L30.9375 268.649"/>
	<path fill="none" stroke="black" stroke-width="1" stroke-miterlimit="4" d="M32.9375 263.09L30.9375 263.09"/>
	<path fill="none" stroke="black" stroke-width="1" stroke-miterlimit="4" d="M32.9375 257.531L30.9375 257.531"/>
	<path fill="none" stroke="black" stroke-width="1" stroke-miterlimit="4" d="M32.9375 246.412L30.9375 246.412"/>
	<path fill="none" stroke="black" stroke-width="1" stroke-miterlimit="4" d="M32.9375 240.853L30.9375 240.853"/>
	<path fill="none" stroke="black" stroke-width="1" stroke-miterlimit="4" d="M32.9375 235.294L30.9375 235.294"/>
	<path fill="none" stroke="black" stroke-width="1" stroke-miterlimit="4" d="M32.9375 229.735L30.9375 229.735"/>
	<path fill="none" stroke="black" stroke-width="1" stroke-miterlimit="4" d="M32.9375 218.616L30.9375 218.616"/>
	<path fill="none" stroke="black" stroke-width="1" stroke-miterlimit="4" d="M32.9375 213.057L30.9375 213.057"/>
	<path fill="none" stroke="black" stroke-width="1" stroke-miterlimit="4" d="M32.9375 207.498L30.9375 207.498"/>
	<path fill="none" stroke="black" stroke-width="1" stroke-miterlimit="4" d="M32.9375 201.939L30.9375 201.939"/>
	<path fill="none" stroke="black" stroke-width="1" stroke-miterlimit="4" d="M32.9375 190.82L30.9375 190.82"/>
	<path fill="none" stroke="black" stroke-width="1" stroke-miterlimit="4" d="M32.9375 185.261L30.9375 185.261"/>
	<path fill="none" stroke="black" stroke-width="1" stroke-miterlimit="4" d="M32.9375 179.702L30.9375 179.702"/>
	<path fill="none" stroke="black" stroke-width="1" stroke-miterlimit="4" d="M32.9375 174.143L30.9375 174.143"/>
	<path fill="none" stroke="black" stroke-width="1" stroke-miterlimit="4" d="M32.9375 163.024L30.9375 163.024"/>
	<path fill="none" stroke="black" stroke-width="1" stroke-miterlimit="4" d="M32.9375 157.465L30.9375 157.465"/>
	<path fill="none" stroke="black" stroke-width="1" stroke-miterlimit="4" d="M32.9375 151.906L30.9375 151.906"/>
	<path fill="none" stroke="black" stroke-width="1" stroke-miterlimit="4" d="M32.9375 146.347L30.9375 146.347"/>
	<path fill="none" stroke="black" stroke-width="1" stroke-miterlimit="4" d="M32.9375 135.228L30.9375 135.228"/>
	<path fill="none" stroke="black" stroke-width="1" stroke-miterlimit="4" d="M32.9375 129.669L30.9375 129.669"/>
	<path fill="none" stroke="black" stroke-width="1" stroke-miterlimit="4" d="M32.9375 124.11L30.9375 124.11"/>
	<path fill="none" stroke="black" stroke-width="1" stroke-miterlimit="4" d="M32.9375 118.551L30.9375 118.551"/>
	<path fill="none" stroke="black" stroke-width="1" stroke-miterlimit="4" d="M32.9375 107.432L30.9375 107.432"/>
	<path fill="none" stroke="black" stroke-width="1" stroke-miterlimit="4" d="M32.9375 101.873L30.9375 101.873"/>
	<path fill="none" stroke="black" stroke-width="1" stroke-miterlimit="4" d="M32.9375 96.3141L30.9375 96.3141"/>
	<path fill="none" stroke="black" stroke-width="1" stroke-miterlimit="4" d="M32.9375 90.7549L30.9375 90.7549"/>
	<path fill="none" stroke="black" stroke-width="1" stroke-miterlimit="4" d="M32.9375 79.6365L30.9375 79.6365"/>
	<path fill="none" stroke="black" stroke-width="1" stroke-miterlimit="4" d="M32.9375 74.0773L30.9375 74.0773"/>
	<path fill="none" stroke="black" stroke-width="1" stroke-miterlimit="4" d="M32.9375 68.5181L30.9375 68.5181"/>
	<path fill="none" stroke="black" stroke-width="1" stroke-miterlimit="4" d="M32.9375 62.9588L30.9375 62.9588"/>
	<path fill="none" stroke="black" stroke-width="1" stroke-miterlimit="4" d="M32.9375 51.8405L30.9375 51.8405"/>
	<path fill="none" stroke="black" stroke-width="1" stroke-miterlimit="4" d="M32.9375 46.2813L30.9375 46.2813"/>
	<path fill="none" stroke="black" stroke-width="1" stroke-miterlimit="4" d="M32.9375 270.039L32.9375 46.2813"/>
	<path fill="none" stroke="black" stroke-width="1" stroke-miterlimit="4" d="M435 270.039L435 46.2813"/>
	<text transform="translate(233.969 31.2813)" font-size="16" font-weight="600" font-family="Segoe UI" x="-77.035156, -61.722656, -53.113281, -46.746094, -37.800781, -29.144531, -22.917969, -18.503906, -12.035156, -7.6210938, 4.1757813, 20.253906, 35.566406, 46.816406, 52.722656, 61.925781, 71.128906, " y="-6.890625, ">
			Market - DWMA(10)
	</text>
</svg>
