<?xml version="1.0" encoding="utf-8" ?>
<svg xmlns="http://www.w3.org/2000/svg" xmlns:xlink="http://www.w3.org/1999/xlink" width="450" height="300">
	<rect fill="white" width="450" height="300"/>
	<path fill="none" stroke="#010101" stroke-width="1" stroke-miterlimit="4" stroke-opacity="0.098039217" d="M58.2771 270.039L58.2771 46.2813M83.5435 270.039L83.5435 46.2813M108.81 270.039L108.81 46.2813M134.076 270.039L134.076 46.2813M159.343 270.039L159.343 46.2813M184.609 270.039L184.609 46.2813M209.876 270.039L209.876 46.2813M235.142 270.039L235.142 46.2813M260.409 270.039L260.409 46.2813M285.675 270.039L285.675 46.2813M310.942 270.039L310.942 46.2813M336.208 270.039L336.208 46.2813M361.475 270.039L361.475 46.2813M386.741 270.039L386.741 46.2813M412.008 270.039L412.008 46.2813"/>
	<path fill="none" stroke="#010101" stroke-width="1" stroke-miterlimit="4" stroke-opacity="0.098039217" d="M40.3379 255.446L435 255.446M40.3379 206.803L435 206.803M40.3379 158.16L435 158.16M40.3379 109.517L435 109.517M40.3379 60.8741L435 60.8741"/>
	<clipPath id="cl_25">
		<rect x="40.337891" y="46.28125" width="394.66211" height="223.75781"/>
	</clipPath>
	<g clip-path="url(#cl_25)">
		<path fill="none" stroke="red" stroke-width="2" stroke-miterlimit="4" d="M58.2771 158.16L58.2771 158.16L63.3304 157.187L68.3837 158.16L73.437 157.187L78.4902 158.16L83.5435 157.187L88.5968 67.6842L93.6501 131.893L98.7034 215.559L103.757 255.446L108.81 227.233L113.863 153.296L118.917 85.1956L123.97 60.8741L129.023 92.9785L134.076 158.16L139.13 223.342L144.183 254.473L149.236 240.853L154.29 191.237L159.343 128.001L164.396 79.3585L169.45 60.8741L174.503 78.3856L179.556 124.11L184.609 179.563L189.663 227.233L194.716 253.5L199.769 250.582L204.823 222.369L209.876 177.617L214.929 128.001L219.982 88.1142L225.036 64.7656L230.089 62.8199L235.142 82.2771L240.196 116.327L245.249 159.133L250.302 199.993L255.355 233.07L260.409 251.555L265.462 254.473L270.515 240.853L275.569 214.586L280.622 180.536L285.675 142.594L290.729 108.544L295.782 81.3042L300.835 65.7384L305.888 60.8741L310.942 68.657L315.995 87.1414L321.048 112.436L326.102 143.567L331.155 174.699L336.208 203.885L341.261 228.206L346.315 245.718L351.368 254.473L356.421 254.473L361.475 245.718L366.528 230.152L371.581 208.749L376.634 183.455L381.688 157.187L386.741 130.92L391.794 106.599L396.848 87.1414L401.901 72.5485L406.954 63.7927L412.008 60.8741L417.061 63.7927"/>
		<ellipse fill="red" cx="58.277077" cy="158.16016" rx="0.40212631" ry="0.40213013"/>
		<ellipse fill="red" cx="63.330368" cy="157.18729" rx="0.40212631" ry="0.40213013"/>
		<ellipse fill="red" cx="68.383659" cy="158.16016" rx="0.4021225" ry="0.40213013"/>
		<ellipse fill="red" cx="73.436951" cy="157.18729" rx="0.4021225" ry="0.40213013"/>
		<ellipse fill="red" cx="78.49025" cy="158.16016" rx="0.4021225" ry="0.40213013"/>
		<ellipse fill="red" cx="83.543533" cy="157.18729" rx="0.4021225" ry="0.40213013"/>
		<ellipse fill="red" cx="88.596832" cy="67.684174" rx="0.4021225" ry="0.4021225"/>
		<ellipse fill="red" cx="93.650124" cy="131.89293" rx="0.4021225" ry="0.40213013"/>
		<ellipse fill="red" cx="98.703415" cy="215.5589" rx="0.4021225" ry="0.40213013"/>
		<ellipse fill="red" cx="103.75671" cy="255.44617" rx="0.4021225" ry="0.40213013"/>
		<ellipse fill="red" cx="108.81" cy="227.23322" rx="0.4021225" ry="0.40213013"/>
		<ellipse fill="red" cx="113.86329" cy="153.29585" rx="0.4021225" ry="0.40213013"/>
		<ellipse fill="red" cx="118.91658" cy="85.195648" rx="0.4021225" ry="0.4021225"/>
		<ellipse fill="red" cx="123.96987" cy="60.874146" rx="0.4021225" ry="0.40212631"/>
		<ellipse fill="red" cx="129.02316" cy="92.978531" rx="0.40213013" ry="0.4021225"/>
		<ellipse fill="red" cx="134.07646" cy="158.16016" rx="0.40213013" ry="0.40213013"/>
		<ellipse fill="red" cx="139.12976" cy="223.34178" rx="0.40213013" ry="0.40213013"/>
		<ellipse fill="red" cx="144.18304" cy="254.4733" rx="0.40213013" ry="0.40213013"/>
		<ellipse fill="red" cx="149.23633" cy="240.85326" rx="0.40213013" ry="0.40213013"/>
		<ellipse fill="red" cx="154.28963" cy="191.2374" rx="0.40213013" ry="0.40213013"/>
		<ellipse fill="red" cx="159.34293" cy="128.0015" rx="0.40213013" ry="0.40212631"/>
		<ellipse fill="red" cx="164.39621" cy="79.35849" rx="0.40213013" ry="0.4021225"/>
		<ellipse fill="red" cx="169.44951" cy="60.874146" rx="0.40213013" ry="0.40212631"/>
		<ellipse fill="red" cx="174.50279" cy="78.385635" rx="0.40213013" ry="0.4021225"/>
		<ellipse fill="red" cx="179.55609" cy="124.11006" rx="0.40213013" ry="0.4021225"/>
		<ellipse fill="red" cx="184.60938" cy="179.56308" rx="0.40213013" ry="0.40213013"/>
		<ellipse fill="red" cx="189.66267" cy="227.23322" rx="0.40213013" ry="0.40213013"/>
		<ellipse fill="red" cx="194.71596" cy="253.50044" rx="0.40213013" ry="0.40213013"/>
		<ellipse fill="red" cx="199.76926" cy="250.58186" rx="0.40213013" ry="0.40213013"/>
		<ellipse fill="red" cx="204.82254" cy="222.36893" rx="0.40213013" ry="0.40213013"/>
		<ellipse fill="red" cx="209.87584" cy="177.61736" rx="0.40213013" ry="0.40213013"/>
		<ellipse fill="red" cx="214.92914" cy="128.0015" rx="0.40213013" ry="0.40212631"/>
		<ellipse fill="red" cx="219.98242" cy="88.114227" rx="0.40213013" ry="0.4021225"/>
		<ellipse fill="red" cx="225.03572" cy="64.765594" rx="0.40213013" ry="0.4021225"/>
		<ellipse fill="red" cx="230.089" cy="62.81987" rx="0.40213013" ry="0.40212631"/>
		<ellipse fill="red" cx="235.1423" cy="82.277069" rx="0.40213013" ry="0.4021225"/>
		<ellipse fill="red" cx="240.19559" cy="116.32718" rx="0.40213013" ry="0.4021225"/>
		<ellipse fill="red" cx="245.24889" cy="159.13303" rx="0.40213013" ry="0.40213013"/>
		<ellipse fill="red" cx="250.30217" cy="199.99313" rx="0.40213013" ry="0.40213013"/>
		<ellipse fill="red" cx="255.35547" cy="233.07037" rx="0.40213013" ry="0.40213013"/>
		<ellipse fill="red" cx="260.40875" cy="251.55472" rx="0.40213013" ry="0.40213013"/>
		<ellipse fill="red" cx="265.46204" cy="254.4733" rx="0.40213013" ry="0.40213013"/>
		<ellipse fill="red" cx="270.51535" cy="240.85326" rx="0.40213013" ry="0.40213013"/>
		<ellipse fill="red" cx="275.56863" cy="214.58604" rx="0.40213013" ry="0.40213013"/>
		<ellipse fill="red" cx="280.62195" cy="180.53593" rx="0.40213013" ry="0.40213013"/>
		<ellipse fill="red" cx="285.67523" cy="142.59439" rx="0.40213013" ry="0.40213013"/>
		<ellipse fill="red" cx="290.72852" cy="108.5443" rx="0.40213013" ry="0.4021225"/>
		<ellipse fill="red" cx="295.7818" cy="81.304214" rx="0.40213013" ry="0.4021225"/>
		<ellipse fill="red" cx="300.83508" cy="65.738449" rx="0.40213013" ry="0.4021225"/>
		<ellipse fill="red" cx="305.8884" cy="60.874146" rx="0.40213013" ry="0.40212631"/>
		<ellipse fill="red" cx="310.94168" cy="68.657028" rx="0.40213013" ry="0.4021225"/>
		<ellipse fill="red" cx="315.99496" cy="87.141373" rx="0.40213013" ry="0.4021225"/>
		<ellipse fill="red" cx="321.04828" cy="112.43573" rx="0.40213013" ry="0.4021225"/>
		<ellipse fill="red" cx="326.10156" cy="143.56726" rx="0.40213013" ry="0.40213013"/>
		<ellipse fill="red" cx="331.15485" cy="174.69878" rx="0.40213013" ry="0.40213013"/>
		<ellipse fill="red" cx="336.20813" cy="203.88458" rx="0.40213013" ry="0.40213013"/>
		<ellipse fill="red" cx="341.26144" cy="228.20609" rx="0.40213013" ry="0.40213013"/>
		<ellipse fill="red" cx="346.31473" cy="245.71756" rx="0.40213013" ry="0.40213013"/>
		<ellipse fill="red" cx="351.36801" cy="254.4733" rx="0.40213013" ry="0.40213013"/>
		<ellipse fill="red" cx="356.4213" cy="254.4733" rx="0.40213013" ry="0.40213013"/>
		<ellipse fill="red" cx="361.47461" cy="245.71756" rx="0.40213013" ry="0.40213013"/>
		<ellipse fill="red" cx="366.52789" cy="230.15179" rx="0.40213013" ry="0.40213013"/>
		<ellipse fill="red" cx="371.58118" cy="208.74887" rx="0.40213013" ry="0.40213013"/>
		<ellipse fill="red" cx="376.63449" cy="183.45453" rx="0.40213013" ry="0.40213013"/>
		<ellipse fill="red" cx="381.68777" cy="157.18729" rx="0.40213013" ry="0.40213013"/>
		<ellipse fill="red" cx="386.74106" cy="130.92007" rx="0.40213013" ry="0.40213013"/>
		<ellipse fill="red" cx="391.79434" cy="106.59857" rx="0.40213013" ry="0.4021225"/>
		<ellipse fill="red" cx="396.84766" cy="87.141373" rx="0.40213013" ry="0.4021225"/>
		<ellipse fill="red" cx="401.90094" cy="72.548477" rx="0.40213013" ry="0.4021225"/>
		<ellipse fill="red" cx="406.95422" cy="63.792725" rx="0.40213013" ry="0.4021244"/>
		<ellipse fill="red" cx="412.00751" cy="60.874146" rx="0.40213013" ry="0.40212631"/>
		<ellipse fill="red" cx="417.06082" cy="63.792725" rx="0.40213013" ry="0.4021244"/>
	</g>
	<clipPath id="cl_26">
		<rect x="40.337891" y="46.28125" width="394.66211" height="223.75781"/>
	</clipPath>
	<g clip-path="url(#cl_26)">
		<path fill="none" stroke="blue" stroke-width="4" stroke-miterlimit="4" d="M58.2771 157.678L58.2771 157.678L63.3304 157.67L68.3837 157.678L73.437 157.67L78.4902 157.678L83.5435 157.67L88.5968 154.687L93.6501 151.45L98.7034 150.862L103.757 153.824L108.81 158.734L113.863 162.705L118.917 163.547L123.97 160.973L129.023 156.692L134.076 153.269L139.13 152.808L144.183 155.268L149.236 159.427L154.29 163.565L159.343 166.093L164.396 166.083L169.45 163.38L174.503 158.67L179.556 153.308L184.609 148.92L189.663 146.97L194.716 148.34L199.769 152.924L204.823 159.672L209.876 166.84L214.929 172.432L219.982 174.829L225.036 173.141L230.089 167.473L235.142 158.943L240.196 149.357L245.249 140.863L250.302 135.397L255.355 134.316L260.409 138.072L265.462 146.175L270.515 157.251L275.569 169.358L280.622 180.36L285.675 188.257L290.729 191.615L295.782 189.731L300.835 182.782L305.888 171.679L310.942 157.973L315.995 143.581L321.048 130.455L326.102 120.388L331.155 114.698L336.208 114.136L341.261 118.808L346.315 128.208L351.368 141.289L356.421 156.631L361.475 172.602L366.528 187.572L371.581 200.065L376.634 208.886L381.688 213.256L386.741 212.811L391.794 207.617L396.848 198.175L401.901 185.312L406.954 170.096L412.008 153.725L417.061 137.42"/>
		<ellipse fill="blue" cx="58.277077" cy="157.67775" rx="0.40212631" ry="0.40213013"/>
		<ellipse fill="blue" cx="63.330368" cy="157.66971" rx="0.40212631" ry="0.40213013"/>
		<ellipse fill="blue" cx="68.383659" cy="157.67775" rx="0.4021225" ry="0.40213013"/>
		<ellipse fill="blue" cx="73.436951" cy="157.66971" rx="0.4021225" ry="0.40213013"/>
		<ellipse fill="blue" cx="78.49025" cy="157.67775" rx="0.4021225" ry="0.40213013"/>
		<ellipse fill="blue" cx="83.543533" cy="157.66971" rx="0.4021225" ry="0.40213013"/>
		<ellipse fill="blue" cx="88.596832" cy="154.6868" rx="0.4021225" ry="0.40213013"/>
		<ellipse fill="blue" cx="93.650124" cy="151.44983" rx="0.4021225" ry="0.40213013"/>
		<ellipse fill="blue" cx="98.703415" cy="150.86194" rx="0.4021225" ry="0.40213013"/>
		<ellipse fill="blue" cx="103.75671" cy="153.82394" rx="0.4021225" ry="0.40213013"/>
		<ellipse fill="blue" cx="108.81" cy="158.73422" rx="0.4021225" ry="0.40213013"/>
		<ellipse fill="blue" cx="113.86329" cy="162.70511" rx="0.4021225" ry="0.40213013"/>
		<ellipse fill="blue" cx="118.91658" cy="163.54706" rx="0.4021225" ry="0.40213013"/>
		<ellipse fill="blue" cx="123.96987" cy="160.97325" rx="0.4021225" ry="0.40213013"/>
		<ellipse fill="blue" cx="129.02316" cy="156.69235" rx="0.40213013" ry="0.40213013"/>
		<ellipse fill="blue" cx="134.07646" cy="153.26884" rx="0.40213013" ry="0.40213013"/>
		<ellipse fill="blue" cx="139.12976" cy="152.8083" rx="0.40213013" ry="0.40213013"/>
		<ellipse fill="blue" cx="144.18304" cy="155.26828" rx="0.40213013" ry="0.40213013"/>
		<ellipse fill="blue" cx="149.23633" cy="159.42697" rx="0.40213013" ry="0.40213013"/>
		<ellipse fill="blue" cx="154.28963" cy="163.56476" rx="0.40213013" ry="0.40213013"/>
		<ellipse fill="blue" cx="159.34293" cy="166.0929" rx="0.40213013" ry="0.40213013"/>
		<ellipse fill="blue" cx="164.39621" cy="166.08295" rx="0.40213013" ry="0.40213013"/>
		<ellipse fill="blue" cx="169.44951" cy="163.38048" rx="0.40213013" ry="0.40213013"/>
		<ellipse fill="blue" cx="174.50279" cy="158.66989" rx="0.40213013" ry="0.40213013"/>
		<ellipse fill="blue" cx="179.55609" cy="153.30775" rx="0.40213013" ry="0.40213013"/>
		<ellipse fill="blue" cx="184.60938" cy="148.91975" rx="0.40213013" ry="0.40213013"/>
		<ellipse fill="blue" cx="189.66267" cy="146.97049" rx="0.40213013" ry="0.40213013"/>
		<ellipse fill="blue" cx="194.71596" cy="148.33957" rx="0.40213013" ry="0.40213013"/>
		<ellipse fill="blue" cx="199.76926" cy="152.92377" rx="0.40213013" ry="0.40213013"/>
		<ellipse fill="blue" cx="204.82254" cy="159.67203" rx="0.40213013" ry="0.40213013"/>
		<ellipse fill="blue" cx="209.87584" cy="166.84" rx="0.40213013" ry="0.40213013"/>
		<ellipse fill="blue" cx="214.92914" cy="172.43176" rx="0.40213013" ry="0.40213013"/>
		<ellipse fill="blue" cx="219.98242" cy="174.8287" rx="0.40213013" ry="0.40213013"/>
		<ellipse fill="blue" cx="225.03572" cy="173.14091" rx="0.40213013" ry="0.40213013"/>
		<ellipse fill="blue" cx="230.089" cy="167.47324" rx="0.40213013" ry="0.40213013"/>
		<ellipse fill="blue" cx="235.1423" cy="158.94295" rx="0.40213013" ry="0.40213013"/>
		<ellipse fill="blue" cx="240.19559" cy="149.35715" rx="0.40213013" ry="0.40213013"/>
		<ellipse fill="blue" cx="245.24889" cy="140.86319" rx="0.40213013" ry="0.40213013"/>
		<ellipse fill="blue" cx="250.30217" cy="135.39684" rx="0.40213013" ry="0.40213013"/>
		<ellipse fill="blue" cx="255.35547" cy="134.31624" rx="0.40213013" ry="0.40213013"/>
		<ellipse fill="blue" cx="260.40875" cy="138.07196" rx="0.40213013" ry="0.40213013"/>
		<ellipse fill="blue" cx="265.46204" cy="146.17517" rx="0.40213013" ry="0.40213013"/>
		<ellipse fill="blue" cx="270.51535" cy="157.25098" rx="0.40213013" ry="0.40213013"/>
		<ellipse fill="blue" cx="275.56863" cy="169.35849" rx="0.40213013" ry="0.40213013"/>
		<ellipse fill="blue" cx="280.62195" cy="180.36035" rx="0.40213013" ry="0.40213013"/>
		<ellipse fill="blue" cx="285.67523" cy="188.25674" rx="0.40213013" ry="0.40213013"/>
		<ellipse fill="blue" cx="290.72852" cy="191.6153" rx="0.40213013" ry="0.40213013"/>
		<ellipse fill="blue" cx="295.7818" cy="189.73099" rx="0.40213013" ry="0.40213013"/>
		<ellipse fill="blue" cx="300.83508" cy="182.78204" rx="0.40213013" ry="0.40213013"/>
		<ellipse fill="blue" cx="305.8884" cy="171.67889" rx="0.40213013" ry="0.40213013"/>
		<ellipse fill="blue" cx="310.94168" cy="157.9733" rx="0.40213013" ry="0.40213013"/>
		<ellipse fill="blue" cx="315.99496" cy="143.58109" rx="0.40213013" ry="0.40213013"/>
		<ellipse fill="blue" cx="321.04828" cy="130.45535" rx="0.40213013" ry="0.40213013"/>
		<ellipse fill="blue" cx="326.10156" cy="120.38777" rx="0.40213013" ry="0.4021225"/>
		<ellipse fill="blue" cx="331.15485" cy="114.69759" rx="0.40213013" ry="0.4021225"/>
		<ellipse fill="blue" cx="336.20813" cy="114.13574" rx="0.40213013" ry="0.4021225"/>
		<ellipse fill="blue" cx="341.26144" cy="118.80772" rx="0.40213013" ry="0.4021225"/>
		<ellipse fill="blue" cx="346.31473" cy="128.20828" rx="0.40213013" ry="0.40212631"/>
		<ellipse fill="blue" cx="351.36801" cy="141.289" rx="0.40213013" ry="0.40213013"/>
		<ellipse fill="blue" cx="356.4213" cy="156.63124" rx="0.40213013" ry="0.40213013"/>
		<ellipse fill="blue" cx="361.47461" cy="172.60158" rx="0.40213013" ry="0.40213013"/>
		<ellipse fill="blue" cx="366.52789" cy="187.57172" rx="0.40213013" ry="0.40213013"/>
		<ellipse fill="blue" cx="371.58118" cy="200.06454" rx="0.40213013" ry="0.40213013"/>
		<ellipse fill="blue" cx="376.63449" cy="208.88556" rx="0.40213013" ry="0.40213013"/>
		<ellipse fill="blue" cx="381.68777" cy="213.25555" rx="0.40213013" ry="0.40213013"/>
		<ellipse fill="blue" cx="386.74106" cy="212.81142" rx="0.40213013" ry="0.40213013"/>
		<ellipse fill="blue" cx="391.79434" cy="207.61714" rx="0.40213013" ry="0.40213013"/>
		<ellipse fill="blue" cx="396.84766" cy="198.17477" rx="0.40213013" ry="0.40213013"/>
		<ellipse fill="blue" cx="401.90094" cy="185.3118" rx="0.40213013" ry="0.40213013"/>
		<ellipse fill="blue" cx="406.95422" cy="170.09627" rx="0.40213013" ry="0.40213013"/>
		<ellipse fill="blue" cx="412.00751" cy="153.72455" rx="0.40213013" ry="0.40213013"/>
		<ellipse fill="blue" cx="417.06082" cy="137.42039" rx="0.40213013" ry="0.40213013"/>
	</g>
	<path fill="none" stroke="black" stroke-width="1" stroke-miterlimit="4" d="M58.2771 270.039L58.2771 274.039"/>
	<text transform="translate(58.2771 276.039)" font-size="12" font-family="Segoe UI" x="-3.234375, " y="11.027344, ">
			0
	</text>
	<path fill="none" stroke="black" stroke-width="1" stroke-miterlimit="4" d="M83.5435 270.039L83.5435 274.039"/>
	<text transform="translate(83.5435 276.039)" font-size="12" font-family="Segoe UI" x="-3.234375, " y="11.027344, ">
			5
	</text>
	<path fill="none" stroke="black" stroke-width="1" stroke-miterlimit="4" d="M108.81 270.039L108.81 274.039"/>
	<text transform="translate(108.81 276.039)" font-size="12" font-family="Segoe UI" x="-6.46875, 0, " y="11.027344, ">
			10
	</text>
	<path fill="none" stroke="black" stroke-width="1" stroke-miterlimit="4" d="M134.076 270.039L134.076 274.039"/>
	<text transform="translate(134.076 276.039)" font-size="12" font-family="Segoe UI" x="-6.46875, 0, " y="11.027344, ">
			15
	</text>
	<path fill="none" stroke="black" stroke-width="1" stroke-miterlimit="4" d="M159.343 270.039L159.343 274.039"/>
	<text transform="translate(159.343 276.039)" font-size="12" font-family="Segoe UI" x="-6.46875, 0, " y="11.027344, ">
			20
	</text>
	<path fill="none" stroke="black" stroke-width="1" stroke-miterlimit="4" d="M184.609 270.039L184.609 274.039"/>
	<text transform="translate(184.609 276.039)" font-size="12" font-family="Segoe UI" x="-6.46875, 0, " y="11.027344, ">
			25
	</text>
	<path fill="none" stroke="black" stroke-width="1" stroke-miterlimit="4" d="M209.876 270.039L209.876 274.039"/>
	<text transform="translate(209.876 276.039)" font-size="12" font-family="Segoe UI" x="-6.46875, 0, " y="11.027344, ">
			30
	</text>
	<path fill="none" stroke="black" stroke-width="1" stroke-miterlimit="4" d="M235.142 270.039L235.142 274.039"/>
	<text transform="translate(235.142 276.039)" font-size="12" font-family="Segoe UI" x="-6.46875, 0, " y="11.027344, ">
			35
	</text>
	<path fill="none" stroke="black" stroke-width="1" stroke-miterlimit="4" d="M260.409 270.039L260.409 274.039"/>
	<text transform="translate(260.409 276.039)" font-size="12" font-family="Segoe UI" x="-6.46875, 0, " y="11.027344, ">
			40
	</text>
	<path fill="none" stroke="black" stroke-width="1" stroke-miterlimit="4" d="M285.675 270.039L285.675 274.039"/>
	<text transform="translate(285.675 276.039)" font-size="12" font-family="Segoe UI" x="-6.46875, 0, " y="11.027344, ">
			45
	</text>
	<path fill="none" stroke="black" stroke-width="1" stroke-miterlimit="4" d="M310.942 270.039L310.942 274.039"/>
	<text transform="translate(310.942 276.039)" font-size="12" font-family="Segoe UI" x="-6.46875, 0, " y="11.027344, ">
			50
	</text>
	<path fill="none" stroke="black" stroke-width="1" stroke-miterlimit="4" d="M336.208 270.039L336.208 274.039"/>
	<text transform="translate(336.208 276.039)" font-size="12" font-family="Segoe UI" x="-6.46875, 0, " y="11.027344, ">
			55
	</text>
	<path fill="none" stroke="black" stroke-width="1" stroke-miterlimit="4" d="M361.475 270.039L361.475 274.039"/>
	<text transform="translate(361.475 276.039)" font-size="12" font-family="Segoe UI" x="-6.46875, 0, " y="11.027344, ">
			60
	</text>
	<path fill="none" stroke="black" stroke-width="1" stroke-miterlimit="4" d="M386.741 270.039L386.741 274.039"/>
	<text transform="translate(386.741 276.039)" font-size="12" font-family="Segoe UI" x="-6.46875, 0, " y="11.027344, ">
			65
	</text>
	<path fill="none" stroke="black" stroke-width="1" stroke-miterlimit="4" d="M412.008 270.039L412.008 274.039"/>
	<text transform="translate(412.008 276.039)" font-size="12" font-family="Segoe UI" x="-6.46875, 0, " y="11.027344, ">
			70
	</text>
	<path fill="none" stroke="black" stroke-width="1" stroke-miterlimit="4" d="M43.1172 270.039L43.1172 272.039"/>
	<path fill="none" stroke="black" stroke-width="1" stroke-miterlimit="4" d="M48.1705 270.039L48.1705 272.039"/>
	<path fill="none" stroke="black" stroke-width="1" stroke-miterlimit="4" d="M53.2238 270.039L53.2238 272.039"/>
	<path fill="none" stroke="black" stroke-width="1" stroke-miterlimit="4" d="M63.3304 270.039L63.3304 272.039"/>
	<path fill="none" stroke="black" stroke-width="1" stroke-miterlimit="4" d="M68.3837 270.039L68.3837 272.039"/>
	<path fill="none" stroke="black" stroke-width="1" stroke-miterlimit="4" d="M73.437 270.039L73.437 272.039"/>
	<path fill="none" stroke="black" stroke-width="1" stroke-miterlimit="4" d="M78.4902 270.039L78.4902 272.039"/>
	<path fill="none" stroke="black" stroke-width="1" stroke-miterlimit="4" d="M88.5968 270.039L88.5968 272.039"/>
	<path fill="none" stroke="black" stroke-width="1" stroke-miterlimit="4" d="M93.6501 270.039L93.6501 272.039"/>
	<path fill="none" stroke="black" stroke-width="1" stroke-miterlimit="4" d="M98.7034 270.039L98.7034 272.039"/>
	<path fill="none" stroke="black" stroke-width="1" stroke-miterlimit="4" d="M103.757 270.039L103.757 272.039"/>
	<path fill="none" stroke="black" stroke-width="1" stroke-miterlimit="4" d="M113.863 270.039L113.863 272.039"/>
	<path fill="none" stroke="black" stroke-width="1" stroke-miterlimit="4" d="M118.917 270.039L118.917 272.039"/>
	<path fill="none" stroke="black" stroke-width="1" stroke-miterlimit="4" d="M123.97 270.039L123.97 272.039"/>
	<path fill="none" stroke="black" stroke-width="1" stroke-miterlimit="4" d="M129.023 270.039L129.023 272.039"/>
	<path fill="none" stroke="black" stroke-width="1" stroke-miterlimit="4" d="M139.13 270.039L139.13 272.039"/>
	<path fill="none" stroke="black" stroke-width="1" stroke-miterlimit="4" d="M144.183 270.039L144.183 272.039"/>
	<path fill="none" stroke="black" stroke-width="1" stroke-miterlimit="4" d="M149.236 270.039L149.236 272.039"/>
	<path fill="none" stroke="black" stroke-width="1" stroke-miterlimit="4" d="M154.29 270.039L154.29 272.039"/>
	<path fill="none" stroke="black" stroke-width="1" stroke-miterlimit="4" d="M164.396 270.039L164.396 272.039"/>
	<path fill="none" stroke="black" stroke-width="1" stroke-miterlimit="4" d="M169.45 270.039L169.45 272.039"/>
	<path fill="none" stroke="black" stroke-width="1" stroke-miterlimit="4" d="M174.503 270.039L174.503 272.039"/>
	<path fill="none" stroke="black" stroke-width="1" stroke-miterlimit="4" d="M179.556 270.039L179.556 272.039"/>
	<path fill="none" stroke="black" stroke-width="1" stroke-miterlimit="4" d="M189.663 270.039L189.663 272.039"/>
	<path fill="none" stroke="black" stroke-width="1" stroke-miterlimit="4" d="M194.716 270.039L194.716 272.039"/>
	<path fill="none" stroke="black" stroke-width="1" stroke-miterlimit="4" d="M199.769 270.039L199.769 272.039"/>
	<path fill="none" stroke="black" stroke-width="1" stroke-miterlimit="4" d="M204.823 270.039L204.823 272.039"/>
	<path fill="none" stroke="black" stroke-width="1" stroke-miterlimit="4" d="M214.929 270.039L214.929 272.039"/>
	<path fill="none" stroke="black" stroke-width="1" stroke-miterlimit="4" d="M219.982 270.039L219.982 272.039"/>
	<path fill="none" stroke="black" stroke-width="1" stroke-miterlimit="4" d="M225.036 270.039L225.036 272.039"/>
	<path fill="none" stroke="black" stroke-width="1" stroke-miterlimit="4" d="M230.089 270.039L230.089 272.039"/>
	<path fill="none" stroke="black" stroke-width="1" stroke-miterlimit="4" d="M240.196 270.039L240.196 272.039"/>
	<path fill="none" stroke="black" stroke-width="1" stroke-miterlimit="4" d="M245.249 270.039L245.249 272.039"/>
	<path fill="none" stroke="black" stroke-width="1" stroke-miterlimit="4" d="M250.302 270.039L250.302 272.039"/>
	<path fill="none" stroke="black" stroke-width="1" stroke-miterlimit="4" d="M255.355 270.039L255.355 272.039"/>
	<path fill="none" stroke="black" stroke-width="1" stroke-miterlimit="4" d="M265.462 270.039L265.462 272.039"/>
	<path fill="none" stroke="black" stroke-width="1" stroke-miterlimit="4" d="M270.515 270.039L270.515 272.039"/>
	<path fill="none" stroke="black" stroke-width="1" stroke-miterlimit="4" d="M275.569 270.039L275.569 272.039"/>
	<path fill="none" stroke="black" stroke-width="1" stroke-miterlimit="4" d="M280.622 270.039L280.622 272.039"/>
	<path fill="none" stroke="black" stroke-width="1" stroke-miterlimit="4" d="M290.729 270.039L290.729 272.039"/>
	<path fill="none" stroke="black" stroke-width="1" stroke-miterlimit="4" d="M295.782 270.039L295.782 272.039"/>
	<path fill="none" stroke="black" stroke-width="1" stroke-miterlimit="4" d="M300.835 270.039L300.835 272.039"/>
	<path fill="none" stroke="black" stroke-width="1" stroke-miterlimit="4" d="M305.888 270.039L305.888 272.039"/>
	<path fill="none" stroke="black" stroke-width="1" stroke-miterlimit="4" d="M315.995 270.039L315.995 272.039"/>
	<path fill="none" stroke="black" stroke-width="1" stroke-miterlimit="4" d="M321.048 270.039L321.048 272.039"/>
	<path fill="none" stroke="black" stroke-width="1" stroke-miterlimit="4" d="M326.102 270.039L326.102 272.039"/>
	<path fill="none" stroke="black" stroke-width="1" stroke-miterlimit="4" d="M331.155 270.039L331.155 272.039"/>
	<path fill="none" stroke="black" stroke-width="1" stroke-miterlimit="4" d="M341.261 270.039L341.261 272.039"/>
	<path fill="none" stroke="black" stroke-width="1" stroke-miterlimit="4" d="M346.315 270.039L346.315 272.039"/>
	<path fill="none" stroke="black" stroke-width="1" stroke-miterlimit="4" d="M351.368 270.039L351.368 272.039"/>
	<path fill="none" stroke="black" stroke-width="1" stroke-miterlimit="4" d="M356.421 270.039L356.421 272.039"/>
	<path fill="none" stroke="black" stroke-width="1" stroke-miterlimit="4" d="M366.528 270.039L366.528 272.039"/>
	<path fill="none" stroke="black" stroke-width="1" stroke-miterlimit="4" d="M371.581 270.039L371.581 272.039"/>
	<path fill="none" stroke="black" stroke-width="1" stroke-miterlimit="4" d="M376.634 270.039L376.634 272.039"/>
	<path fill="none" stroke="black" stroke-width="1" stroke-miterlimit="4" d="M381.688 270.039L381.688 272.039"/>
	<path fill="none" stroke="black" stroke-width="1" stroke-miterlimit="4" d="M391.794 270.039L391.794 272.039"/>
	<path fill="none" stroke="black" stroke-width="1" stroke-miterlimit="4" d="M396.848 270.039L396.848 272.039"/>
	<path fill="none" stroke="black" stroke-width="1" stroke-miterlimit="4" d="M401.901 270.039L401.901 272.039"/>
	<path fill="none" stroke="black" stroke-width="1" stroke-miterlimit="4" d="M406.954 270.039L406.954 272.039"/>
	<path fill="none" stroke="black" stroke-width="1" stroke-miterlimit="4" d="M417.061 270.039L417.061 272.039"/>
	<path fill="none" stroke="black" stroke-width="1" stroke-miterlimit="4" d="M422.114 270.039L422.114 272.039"/>
	<path fill="none" stroke="black" stroke-width="1" stroke-miterlimit="4" d="M427.167 270.039L427.167 272.039"/>
	<path fill="none" stroke="black" stroke-width="1" stroke-miterlimit="4" d="M432.221 270.039L432.221 272.039"/>
	<path fill="none" stroke="black" stroke-width="1" stroke-miterlimit="4" d="M40.3379 270.039L435 270.039"/>
	<path fill="none" stroke="black" stroke-width="1" stroke-miterlimit="4" d="M40.3379 46.3812L435 46.3812"/>
	<path fill="none" stroke="black" stroke-width="1" stroke-miterlimit="4" d="M40.3379 255.446L36.3379 255.446"/>
	<text transform="translate(31.3379 255.446)" font-size="12" font-family="Segoe UI" x="-11.267578, -6.46875, " y="3.046875, ">
			-1
	</text>
	<path fill="none" stroke="black" stroke-width="1" stroke-miterlimit="4" d="M40.3379 206.803L36.3379 206.803"/>
	<text transform="translate(31.3379 206.803)" font-size="12" font-family="Segoe UI" x="-20.337891, -15.539063, -9.0703125, -6.46875, " y="3.046875, ">
			-0.5
	</text>
	<path fill="none" stroke="black" stroke-width="1" stroke-miterlimit="4" d="M40.3379 158.16L36.3379 158.16"/>
	<text transform="translate(31.3379 158.16)" font-size="12" font-family="Segoe UI" x="-6.46875, " y="3.046875, ">
			0
	</text>
	<path fill="none" stroke="black" stroke-width="1" stroke-miterlimit="4" d="M40.3379 109.517L36.3379 109.517"/>
	<text transform="translate(31.3379 109.517)" font-size="12" font-family="Segoe UI" x="-15.539063, -9.0703125, -6.46875, " y="3.046875, ">
			0.5
	</text>
	<path fill="none" stroke="black" stroke-width="1" stroke-miterlimit="4" d="M40.3379 60.8741L36.3379 60.8741"/>
	<text transform="translate(31.3379 60.8741)" font-size="12" font-family="Segoe UI" x="-6.46875, " y="3.046875, ">
			1
	</text>
	<path fill="none" stroke="black" stroke-width="1" stroke-miterlimit="4" d="M40.3379 265.175L38.3379 265.175"/>
	<path fill="none" stroke="black" stroke-width="1" stroke-miterlimit="4" d="M40.3379 245.718L38.3379 245.718"/>
	<path fill="none" stroke="black" stroke-width="1" stroke-miterlimit="4" d="M40.3379 235.989L38.3379 235.989"/>
	<path fill="none" stroke="black" stroke-width="1" stroke-miterlimit="4" d="M40.3379 226.26L38.3379 226.26"/>
	<path fill="none" stroke="black" stroke-width="1" stroke-miterlimit="4" d="M40.3379 216.532L38.3379 216.532"/>
	<path fill="none" stroke="black" stroke-width="1" stroke-miterlimit="4" d="M40.3379 197.075L38.3379 197.075"/>
	<path fill="none" stroke="black" stroke-width="1" stroke-miterlimit="4" d="M40.3379 187.346L38.3379 187.346"/>
	<path fill="none" stroke="black" stroke-width="1" stroke-miterlimit="4" d="M40.3379 177.617L38.3379 177.617"/>
	<path fill="none" stroke="black" stroke-width="1" stroke-miterlimit="4" d="M40.3379 167.889L38.3379 167.889"/>
	<path fill="none" stroke="black" stroke-width="1" stroke-miterlimit="4" d="M40.3379 148.432L38.3379 148.432"/>
	<path fill="none" stroke="black" stroke-width="1" stroke-miterlimit="4" d="M40.3379 138.703L38.3379 138.703"/>
	<path fill="none" stroke="black" stroke-width="1" stroke-miterlimit="4" d="M40.3379 128.974L38.3379 128.974"/>
	<path fill="none" stroke="black" stroke-width="1" stroke-miterlimit="4" d="M40.3379 119.246L38.3379 119.246"/>
	<path fill="none" stroke="black" stroke-width="1" stroke-miterlimit="4" d="M40.3379 99.7886L38.3379 99.7886"/>
	<path fill="none" stroke="black" stroke-width="1" stroke-miterlimit="4" d="M40.3379 90.06L38.3379 90.06"/>
	<path fill="none" stroke="black" stroke-width="1" stroke-miterlimit="4" d="M40.3379 80.3313L38.3379 80.3313"/>
	<path fill="none" stroke="black" stroke-width="1" stroke-miterlimit="4" d="M40.3379 70.6028L38.3379 70.6028"/>
	<path fill="none" stroke="black" stroke-width="1" stroke-miterlimit="4" d="M40.3379 51.1456L38.3379 51.1456"/>
	<path fill="none" stroke="black" stroke-width="1" stroke-miterlimit="4" d="M40.3379 270.039L40.3379 46.2813"/>
	<path fill="none" stroke="black" stroke-width="1" stroke-miterlimit="4" d="M435 270.039L435 46.2813"/>
	<text transform="translate(237.669 31.2813)" font-size="16" font-weight="600" font-family="Segoe UI" x="-70.203125, -60.21875, -50.585938, -46.039063, -39.671875, -29.75, -25.335938, -18.867188, -14.453125, -2.65625, 13.421875, 28.734375, 39.984375, 45.890625, 55.09375, 64.296875, " y="-6.890625, ">
			Chirp - DWMA(10)
	</text>
</svg>
