<?xml version="1.0" encoding="utf-8" ?>
<svg xmlns="http://www.w3.org/2000/svg" xmlns:xlink="http://www.w3.org/1999/xlink" width="450" height="300">
	<rect fill="white" width="450" height="300"/>
	<path fill="none" stroke="#010101" stroke-width="1" stroke-miterlimit="4" stroke-opacity="0.098039217" d="M58.2771 270.039L58.2771 46.2813M83.5435 270.039L83.5435 46.2813M108.81 270.039L108.81 46.2813M134.076 270.039L134.076 46.2813M159.343 270.039L159.343 46.2813M184.609 270.039L184.609 46.2813M209.876 270.039L209.876 46.2813M235.142 270.039L235.142 46.2813M260.409 270.039L260.409 46.2813M285.675 270.039L285.675 46.2813M310.942 270.039L310.942 46.2813M336.208 270.039L336.208 46.2813M361.475 270.039L361.475 46.2813M386.741 270.039L386.741 46.2813M412.008 270.039L412.008 46.2813"/>
	<path fill="none" stroke="#010101" stroke-width="1" stroke-miterlimit="4" stroke-opacity="0.098039217" d="M40.3379 255.446L435 255.446M40.3379 206.803L435 206.803M40.3379 158.16L435 158.16M40.3379 109.517L435 109.517M40.3379 60.8741L435 60.8741"/>
	<clipPath id="cl_1f">
		<rect x="40.337891" y="46.28125" width="394.66211" height="223.75781"/>
	</clipPath>
	<g clip-path="url(#cl_1f)">
		<path fill="none" stroke="red" stroke-width="2" stroke-miterlimit="4" d="M58.2771 158.16L58.2771 158.16L63.3304 157.187L68.3837 158.16L73.437 157.187L78.4902 158.16L83.5435 157.187L88.5968 120.219L93.6501 103.68L98.7034 88.1142L103.757 76.4399L108.81 67.6842L113.863 61.847L118.917 60.8741L123.97 63.7927L129.023 69.6299L134.076 79.3585L139.13 92.0057L144.183 107.571L149.236 126.056L154.29 144.54L159.343 163.997L164.396 183.455L169.45 200.966L174.503 217.505L179.556 232.098L184.609 242.799L189.663 250.582L194.716 254.473L199.769 255.446L204.823 251.555L209.876 243.772L214.929 233.07L219.982 219.45L225.036 202.912L230.089 185.4L235.142 165.943L240.196 146.486L245.249 128.001L250.302 110.49L255.355 93.9514L260.409 81.3042L265.462 70.6028L270.515 63.7927L275.569 60.8741L280.622 61.847L285.675 66.7113L290.729 75.4671L295.782 87.1414L300.835 101.734L305.888 118.273L310.942 136.757L315.995 156.214L321.048 174.699L326.102 194.156L331.155 210.695L336.208 226.26L341.261 238.908L346.315 247.663L351.368 253.5L356.421 255.446L361.475 253.5L366.528 247.663L371.581 237.935L376.634 225.288L381.688 210.695L386.741 193.183L391.794 174.699L396.848 155.242L401.901 135.784L406.954 117.3L412.008 100.761L417.061 86.1685"/>
		<ellipse fill="red" cx="58.277077" cy="158.16016" rx="0.40212631" ry="0.40213013"/>
		<ellipse fill="red" cx="63.330368" cy="157.18729" rx="0.40212631" ry="0.40213013"/>
		<ellipse fill="red" cx="68.383659" cy="158.16016" rx="0.4021225" ry="0.40213013"/>
		<ellipse fill="red" cx="73.436951" cy="157.18729" rx="0.4021225" ry="0.40213013"/>
		<ellipse fill="red" cx="78.49025" cy="158.16016" rx="0.4021225" ry="0.40213013"/>
		<ellipse fill="red" cx="83.543533" cy="157.18729" rx="0.4021225" ry="0.40213013"/>
		<ellipse fill="red" cx="88.596832" cy="120.21861" rx="0.4021225" ry="0.4021225"/>
		<ellipse fill="red" cx="93.650124" cy="103.67999" rx="0.4021225" ry="0.4021225"/>
		<ellipse fill="red" cx="98.703415" cy="88.114227" rx="0.4021225" ry="0.4021225"/>
		<ellipse fill="red" cx="103.75671" cy="76.439911" rx="0.4021225" ry="0.4021225"/>
		<ellipse fill="red" cx="108.81" cy="67.684174" rx="0.4021225" ry="0.4021225"/>
		<ellipse fill="red" cx="113.86329" cy="61.847015" rx="0.4021225" ry="0.40212631"/>
		<ellipse fill="red" cx="118.91658" cy="60.874146" rx="0.4021225" ry="0.40212631"/>
		<ellipse fill="red" cx="123.96987" cy="63.792725" rx="0.4021225" ry="0.4021244"/>
		<ellipse fill="red" cx="129.02316" cy="69.629898" rx="0.40213013" ry="0.4021225"/>
		<ellipse fill="red" cx="134.07646" cy="79.35849" rx="0.40213013" ry="0.4021225"/>
		<ellipse fill="red" cx="139.12976" cy="92.005676" rx="0.40213013" ry="0.4021225"/>
		<ellipse fill="red" cx="144.18304" cy="107.57143" rx="0.40213013" ry="0.4021225"/>
		<ellipse fill="red" cx="149.23633" cy="126.05577" rx="0.40213013" ry="0.4021225"/>
		<ellipse fill="red" cx="154.28963" cy="144.54012" rx="0.40213013" ry="0.40213013"/>
		<ellipse fill="red" cx="159.34293" cy="163.99731" rx="0.40213013" ry="0.40213013"/>
		<ellipse fill="red" cx="164.39621" cy="183.45453" rx="0.40213013" ry="0.40213013"/>
		<ellipse fill="red" cx="169.44951" cy="200.966" rx="0.40213013" ry="0.40213013"/>
		<ellipse fill="red" cx="174.50279" cy="217.50462" rx="0.40213013" ry="0.40213013"/>
		<ellipse fill="red" cx="179.55609" cy="232.09752" rx="0.40213013" ry="0.40213013"/>
		<ellipse fill="red" cx="184.60938" cy="242.79898" rx="0.40213013" ry="0.40213013"/>
		<ellipse fill="red" cx="189.66267" cy="250.58186" rx="0.40213013" ry="0.40213013"/>
		<ellipse fill="red" cx="194.71596" cy="254.4733" rx="0.40213013" ry="0.40213013"/>
		<ellipse fill="red" cx="199.76926" cy="255.44617" rx="0.40213013" ry="0.40213013"/>
		<ellipse fill="red" cx="204.82254" cy="251.55472" rx="0.40213013" ry="0.40213013"/>
		<ellipse fill="red" cx="209.87584" cy="243.77184" rx="0.40213013" ry="0.40213013"/>
		<ellipse fill="red" cx="214.92914" cy="233.07037" rx="0.40213013" ry="0.40213013"/>
		<ellipse fill="red" cx="219.98242" cy="219.45035" rx="0.40213013" ry="0.40213013"/>
		<ellipse fill="red" cx="225.03572" cy="202.91171" rx="0.40213013" ry="0.40213013"/>
		<ellipse fill="red" cx="230.089" cy="185.40024" rx="0.40213013" ry="0.40213013"/>
		<ellipse fill="red" cx="235.1423" cy="165.94304" rx="0.40213013" ry="0.40213013"/>
		<ellipse fill="red" cx="240.19559" cy="146.48584" rx="0.40213013" ry="0.40213013"/>
		<ellipse fill="red" cx="245.24889" cy="128.0015" rx="0.40213013" ry="0.40212631"/>
		<ellipse fill="red" cx="250.30217" cy="110.49002" rx="0.40213013" ry="0.4021225"/>
		<ellipse fill="red" cx="255.35547" cy="93.951385" rx="0.40213013" ry="0.4021225"/>
		<ellipse fill="red" cx="260.40875" cy="81.304214" rx="0.40213013" ry="0.4021225"/>
		<ellipse fill="red" cx="265.46204" cy="70.602753" rx="0.40213013" ry="0.4021225"/>
		<ellipse fill="red" cx="270.51535" cy="63.792725" rx="0.40213013" ry="0.4021244"/>
		<ellipse fill="red" cx="275.56863" cy="60.874146" rx="0.40213013" ry="0.40212631"/>
		<ellipse fill="red" cx="280.62195" cy="61.847015" rx="0.40213013" ry="0.40212631"/>
		<ellipse fill="red" cx="285.67523" cy="66.711304" rx="0.40213013" ry="0.4021225"/>
		<ellipse fill="red" cx="290.72852" cy="75.467056" rx="0.40213013" ry="0.4021225"/>
		<ellipse fill="red" cx="295.7818" cy="87.141373" rx="0.40213013" ry="0.4021225"/>
		<ellipse fill="red" cx="300.83508" cy="101.73427" rx="0.40213013" ry="0.4021225"/>
		<ellipse fill="red" cx="305.8884" cy="118.27289" rx="0.40213013" ry="0.4021225"/>
		<ellipse fill="red" cx="310.94168" cy="136.75723" rx="0.40213013" ry="0.40213013"/>
		<ellipse fill="red" cx="315.99496" cy="156.21445" rx="0.40213013" ry="0.40213013"/>
		<ellipse fill="red" cx="321.04828" cy="174.69878" rx="0.40213013" ry="0.40213013"/>
		<ellipse fill="red" cx="326.10156" cy="194.15598" rx="0.40213013" ry="0.40213013"/>
		<ellipse fill="red" cx="331.15485" cy="210.6946" rx="0.40213013" ry="0.40213013"/>
		<ellipse fill="red" cx="336.20813" cy="226.26036" rx="0.40213013" ry="0.40213013"/>
		<ellipse fill="red" cx="341.26144" cy="238.90755" rx="0.40213013" ry="0.40213013"/>
		<ellipse fill="red" cx="346.31473" cy="247.66328" rx="0.40213013" ry="0.40213013"/>
		<ellipse fill="red" cx="351.36801" cy="253.50044" rx="0.40213013" ry="0.40213013"/>
		<ellipse fill="red" cx="356.4213" cy="255.44617" rx="0.40213013" ry="0.40213013"/>
		<ellipse fill="red" cx="361.47461" cy="253.50044" rx="0.40213013" ry="0.40213013"/>
		<ellipse fill="red" cx="366.52789" cy="247.66328" rx="0.40213013" ry="0.40213013"/>
		<ellipse fill="red" cx="371.58118" cy="237.93468" rx="0.40213013" ry="0.40213013"/>
		<ellipse fill="red" cx="376.63449" cy="225.28751" rx="0.40213013" ry="0.40213013"/>
		<ellipse fill="red" cx="381.68777" cy="210.6946" rx="0.40213013" ry="0.40213013"/>
		<ellipse fill="red" cx="386.74106" cy="193.18312" rx="0.40213013" ry="0.40213013"/>
		<ellipse fill="red" cx="391.79434" cy="174.69878" rx="0.40213013" ry="0.40213013"/>
		<ellipse fill="red" cx="396.84766" cy="155.24158" rx="0.40213013" ry="0.40213013"/>
		<ellipse fill="red" cx="401.90094" cy="135.78438" rx="0.40213013" ry="0.40213013"/>
		<ellipse fill="red" cx="406.95422" cy="117.30003" rx="0.40213013" ry="0.4021225"/>
		<ellipse fill="red" cx="412.00751" cy="100.76141" rx="0.40213013" ry="0.4021225"/>
		<ellipse fill="red" cx="417.06082" cy="86.168518" rx="0.40213013" ry="0.4021225"/>
	</g>
	<clipPath id="cl_20">
		<rect x="40.337891" y="46.28125" width="394.66211" height="223.75781"/>
	</clipPath>
	<g clip-path="url(#cl_20)">
		<path fill="none" stroke="blue" stroke-width="4" stroke-miterlimit="4" d="M58.2771 157.709L58.2771 157.709L63.3304 157.638L68.3837 157.709L73.437 157.638L78.4902 157.709L83.5435 157.638L88.5968 150.191L93.6501 136.826L98.7034 119.759L103.757 102.755L108.81 88.2308L113.863 76.9045L118.917 69.1101L123.97 65.0412L129.023 64.6737L134.076 67.9986L139.13 74.8199L144.183 84.932L149.236 98.162L154.29 113.815L159.343 131.241L164.396 149.745L169.45 168.432L174.503 186.658L179.556 203.836L184.609 219.171L189.663 232.075L194.716 241.979L199.769 248.671L204.823 251.772L209.876 251.057L214.929 246.586L219.982 238.595L225.036 227.365L230.089 213.477L235.142 197.351L240.196 179.636L245.249 161.133L250.302 142.589L255.355 124.553L260.409 107.904L265.462 93.1642L270.515 80.9728L275.569 71.8566L280.622 66.2116L285.675 64.2876L290.729 66.2035L295.782 71.8069L300.835 80.8454L305.888 92.8798L310.942 107.485L315.995 124.143L321.048 142.02L326.102 160.649L331.155 179.096L336.208 196.787L341.261 213.019L346.315 227.014L351.368 238.269L356.421 246.339L361.475 250.924L366.528 251.825L371.581 248.917L376.634 242.336L381.688 232.517L386.741 219.771L391.794 204.634L396.848 187.621L401.901 169.357L406.954 150.577L412.008 132.119L417.061 114.699"/>
		<ellipse fill="blue" cx="58.277077" cy="157.70924" rx="0.40212631" ry="0.40213013"/>
		<ellipse fill="blue" cx="63.330368" cy="157.63821" rx="0.40212631" ry="0.40213013"/>
		<ellipse fill="blue" cx="68.383659" cy="157.70924" rx="0.4021225" ry="0.40213013"/>
		<ellipse fill="blue" cx="73.436951" cy="157.63821" rx="0.4021225" ry="0.40213013"/>
		<ellipse fill="blue" cx="78.49025" cy="157.70924" rx="0.4021225" ry="0.40213013"/>
		<ellipse fill="blue" cx="83.543533" cy="157.63821" rx="0.4021225" ry="0.40213013"/>
		<ellipse fill="blue" cx="88.596832" cy="150.19113" rx="0.4021225" ry="0.40213013"/>
		<ellipse fill="blue" cx="93.650124" cy="136.82626" rx="0.4021225" ry="0.40213013"/>
		<ellipse fill="blue" cx="98.703415" cy="119.7589" rx="0.4021225" ry="0.4021225"/>
		<ellipse fill="blue" cx="103.75671" cy="102.75505" rx="0.4021225" ry="0.4021225"/>
		<ellipse fill="blue" cx="108.81" cy="88.230804" rx="0.4021225" ry="0.4021225"/>
		<ellipse fill="blue" cx="113.86329" cy="76.904526" rx="0.4021225" ry="0.4021225"/>
		<ellipse fill="blue" cx="118.91658" cy="69.110138" rx="0.4021225" ry="0.4021225"/>
		<ellipse fill="blue" cx="123.96987" cy="65.041229" rx="0.4021225" ry="0.4021225"/>
		<ellipse fill="blue" cx="129.02316" cy="64.673737" rx="0.40213013" ry="0.4021225"/>
		<ellipse fill="blue" cx="134.07646" cy="67.998642" rx="0.40213013" ry="0.4021225"/>
		<ellipse fill="blue" cx="139.12976" cy="74.81987" rx="0.40213013" ry="0.4021225"/>
		<ellipse fill="blue" cx="144.18304" cy="84.932022" rx="0.40213013" ry="0.4021225"/>
		<ellipse fill="blue" cx="149.23633" cy="98.161957" rx="0.40213013" ry="0.4021225"/>
		<ellipse fill="blue" cx="154.28963" cy="113.81491" rx="0.40213013" ry="0.4021225"/>
		<ellipse fill="blue" cx="159.34293" cy="131.24094" rx="0.40213013" ry="0.40213013"/>
		<ellipse fill="blue" cx="164.39621" cy="149.74518" rx="0.40213013" ry="0.40213013"/>
		<ellipse fill="blue" cx="169.44951" cy="168.43179" rx="0.40213013" ry="0.40213013"/>
		<ellipse fill="blue" cx="174.50279" cy="186.65833" rx="0.40213013" ry="0.40213013"/>
		<ellipse fill="blue" cx="179.55609" cy="203.83633" rx="0.40213013" ry="0.40213013"/>
		<ellipse fill="blue" cx="184.60938" cy="219.17101" rx="0.40213013" ry="0.40213013"/>
		<ellipse fill="blue" cx="189.66267" cy="232.0748" rx="0.40213013" ry="0.40213013"/>
		<ellipse fill="blue" cx="194.71596" cy="241.97882" rx="0.40213013" ry="0.40213013"/>
		<ellipse fill="blue" cx="199.76926" cy="248.67122" rx="0.40213013" ry="0.40213013"/>
		<ellipse fill="blue" cx="204.82254" cy="251.77226" rx="0.40213013" ry="0.40213013"/>
		<ellipse fill="blue" cx="209.87584" cy="251.05742" rx="0.40213013" ry="0.40213013"/>
		<ellipse fill="blue" cx="214.92914" cy="246.58617" rx="0.40213013" ry="0.40213013"/>
		<ellipse fill="blue" cx="219.98242" cy="238.59535" rx="0.40213013" ry="0.40213013"/>
		<ellipse fill="blue" cx="225.03572" cy="227.36526" rx="0.40213013" ry="0.40213013"/>
		<ellipse fill="blue" cx="230.089" cy="213.47702" rx="0.40213013" ry="0.40213013"/>
		<ellipse fill="blue" cx="235.1423" cy="197.3512" rx="0.40213013" ry="0.40213013"/>
		<ellipse fill="blue" cx="240.19559" cy="179.63574" rx="0.40213013" ry="0.40213013"/>
		<ellipse fill="blue" cx="245.24889" cy="161.13301" rx="0.40213013" ry="0.40213013"/>
		<ellipse fill="blue" cx="250.30217" cy="142.58902" rx="0.40213013" ry="0.40213013"/>
		<ellipse fill="blue" cx="255.35547" cy="124.5528" rx="0.40213013" ry="0.4021225"/>
		<ellipse fill="blue" cx="260.40875" cy="107.90443" rx="0.40213013" ry="0.4021225"/>
		<ellipse fill="blue" cx="265.46204" cy="93.16423" rx="0.40213013" ry="0.4021225"/>
		<ellipse fill="blue" cx="270.51535" cy="80.972809" rx="0.40213013" ry="0.4021225"/>
		<ellipse fill="blue" cx="275.56863" cy="71.856598" rx="0.40213013" ry="0.4021225"/>
		<ellipse fill="blue" cx="280.62195" cy="66.211609" rx="0.40213013" ry="0.4021225"/>
		<ellipse fill="blue" cx="285.67523" cy="64.287598" rx="0.40213013" ry="0.4021244"/>
		<ellipse fill="blue" cx="290.72852" cy="66.203506" rx="0.40213013" ry="0.4021225"/>
		<ellipse fill="blue" cx="295.7818" cy="71.806854" rx="0.40213013" ry="0.4021225"/>
		<ellipse fill="blue" cx="300.83508" cy="80.845367" rx="0.40213013" ry="0.4021225"/>
		<ellipse fill="blue" cx="305.8884" cy="92.879791" rx="0.40213013" ry="0.4021225"/>
		<ellipse fill="blue" cx="310.94168" cy="107.48456" rx="0.40213013" ry="0.4021225"/>
		<ellipse fill="blue" cx="315.99496" cy="124.14331" rx="0.40213013" ry="0.4021225"/>
		<ellipse fill="blue" cx="321.04828" cy="142.02045" rx="0.40213013" ry="0.40213013"/>
		<ellipse fill="blue" cx="326.10156" cy="160.64886" rx="0.40213013" ry="0.40213013"/>
		<ellipse fill="blue" cx="331.15485" cy="179.09586" rx="0.40213013" ry="0.40213013"/>
		<ellipse fill="blue" cx="336.20813" cy="196.7869" rx="0.40213013" ry="0.40213013"/>
		<ellipse fill="blue" cx="341.26144" cy="213.01935" rx="0.40213013" ry="0.40213013"/>
		<ellipse fill="blue" cx="346.31473" cy="227.01418" rx="0.40213013" ry="0.40213013"/>
		<ellipse fill="blue" cx="351.36801" cy="238.26868" rx="0.40213013" ry="0.40213013"/>
		<ellipse fill="blue" cx="356.4213" cy="246.33899" rx="0.40213013" ry="0.40213013"/>
		<ellipse fill="blue" cx="361.47461" cy="250.9245" rx="0.40213013" ry="0.40213013"/>
		<ellipse fill="blue" cx="366.52789" cy="251.82455" rx="0.40213013" ry="0.40213013"/>
		<ellipse fill="blue" cx="371.58118" cy="248.91693" rx="0.40213013" ry="0.40213013"/>
		<ellipse fill="blue" cx="376.63449" cy="242.33612" rx="0.40213013" ry="0.40213013"/>
		<ellipse fill="blue" cx="381.68777" cy="232.51675" rx="0.40213013" ry="0.40213013"/>
		<ellipse fill="blue" cx="386.74106" cy="219.77118" rx="0.40213013" ry="0.40213013"/>
		<ellipse fill="blue" cx="391.79434" cy="204.63432" rx="0.40213013" ry="0.40213013"/>
		<ellipse fill="blue" cx="396.84766" cy="187.62122" rx="0.40213013" ry="0.40213013"/>
		<ellipse fill="blue" cx="401.90094" cy="169.35663" rx="0.40213013" ry="0.40213013"/>
		<ellipse fill="blue" cx="406.95422" cy="150.57718" rx="0.40213013" ry="0.40213013"/>
		<ellipse fill="blue" cx="412.00751" cy="132.11865" rx="0.40213013" ry="0.40213013"/>
		<ellipse fill="blue" cx="417.06082" cy="114.69891" rx="0.40213013" ry="0.4021225"/>
	</g>
	<path fill="none" stroke="black" stroke-width="1" stroke-miterlimit="4" d="M58.2771 270.039L58.2771 274.039"/>
	<text transform="translate(58.2771 276.039)" font-size="12" font-family="Segoe UI" x="-3.234375, " y="11.027344, ">
			0
	</text>
	<path fill="none" stroke="black" stroke-width="1" stroke-miterlimit="4" d="M83.5435 270.039L83.5435 274.039"/>
	<text transform="translate(83.5435 276.039)" font-size="12" font-family="Segoe UI" x="-3.234375, " y="11.027344, ">
			5
	</text>
	<path fill="none" stroke="black" stroke-width="1" stroke-miterlimit="4" d="M108.81 270.039L108.81 274.039"/>
	<text transform="translate(108.81 276.039)" font-size="12" font-family="Segoe UI" x="-6.46875, 0, " y="11.027344, ">
			10
	</text>
	<path fill="none" stroke="black" stroke-width="1" stroke-miterlimit="4" d="M134.076 270.039L134.076 274.039"/>
	<text transform="translate(134.076 276.039)" font-size="12" font-family="Segoe UI" x="-6.46875, 0, " y="11.027344, ">
			15
	</text>
	<path fill="none" stroke="black" stroke-width="1" stroke-miterlimit="4" d="M159.343 270.039L159.343 274.039"/>
	<text transform="translate(159.343 276.039)" font-size="12" font-family="Segoe UI" x="-6.46875, 0, " y="11.027344, ">
			20
	</text>
	<path fill="none" stroke="black" stroke-width="1" stroke-miterlimit="4" d="M184.609 270.039L184.609 274.039"/>
	<text transform="translate(184.609 276.039)" font-size="12" font-family="Segoe UI" x="-6.46875, 0, " y="11.027344, ">
			25
	</text>
	<path fill="none" stroke="black" stroke-width="1" stroke-miterlimit="4" d="M209.876 270.039L209.876 274.039"/>
	<text transform="translate(209.876 276.039)" font-size="12" font-family="Segoe UI" x="-6.46875, 0, " y="11.027344, ">
			30
	</text>
	<path fill="none" stroke="black" stroke-width="1" stroke-miterlimit="4" d="M235.142 270.039L235.142 274.039"/>
	<text transform="translate(235.142 276.039)" font-size="12" font-family="Segoe UI" x="-6.46875, 0, " y="11.027344, ">
			35
	</text>
	<path fill="none" stroke="black" stroke-width="1" stroke-miterlimit="4" d="M260.409 270.039L260.409 274.039"/>
	<text transform="translate(260.409 276.039)" font-size="12" font-family="Segoe UI" x="-6.46875, 0, " y="11.027344, ">
			40
	</text>
	<path fill="none" stroke="black" stroke-width="1" stroke-miterlimit="4" d="M285.675 270.039L285.675 274.039"/>
	<text transform="translate(285.675 276.039)" font-size="12" font-family="Segoe UI" x="-6.46875, 0, " y="11.027344, ">
			45
	</text>
	<path fill="none" stroke="black" stroke-width="1" stroke-miterlimit="4" d="M310.942 270.039L310.942 274.039"/>
	<text transform="translate(310.942 276.039)" font-size="12" font-family="Segoe UI" x="-6.46875, 0, " y="11.027344, ">
			50
	</text>
	<path fill="none" stroke="black" stroke-width="1" stroke-miterlimit="4" d="M336.208 270.039L336.208 274.039"/>
	<text transform="translate(336.208 276.039)" font-size="12" font-family="Segoe UI" x="-6.46875, 0, " y="11.027344, ">
			55
	</text>
	<path fill="none" stroke="black" stroke-width="1" stroke-miterlimit="4" d="M361.475 270.039L361.475 274.039"/>
	<text transform="translate(361.475 276.039)" font-size="12" font-family="Segoe UI" x="-6.46875, 0, " y="11.027344, ">
			60
	</text>
	<path fill="none" stroke="black" stroke-width="1" stroke-miterlimit="4" d="M386.741 270.039L386.741 274.039"/>
	<text transform="translate(386.741 276.039)" font-size="12" font-family="Segoe UI" x="-6.46875, 0, " y="11.027344, ">
			65
	</text>
	<path fill="none" stroke="black" stroke-width="1" stroke-miterlimit="4" d="M412.008 270.039L412.008 274.039"/>
	<text transform="translate(412.008 276.039)" font-size="12" font-family="Segoe UI" x="-6.46875, 0, " y="11.027344, ">
			70
	</text>
	<path fill="none" stroke="black" stroke-width="1" stroke-miterlimit="4" d="M43.1172 270.039L43.1172 272.039"/>
	<path fill="none" stroke="black" stroke-width="1" stroke-miterlimit="4" d="M48.1705 270.039L48.1705 272.039"/>
	<path fill="none" stroke="black" stroke-width="1" stroke-miterlimit="4" d="M53.2238 270.039L53.2238 272.039"/>
	<path fill="none" stroke="black" stroke-width="1" stroke-miterlimit="4" d="M63.3304 270.039L63.3304 272.039"/>
	<path fill="none" stroke="black" stroke-width="1" stroke-miterlimit="4" d="M68.3837 270.039L68.3837 272.039"/>
	<path fill="none" stroke="black" stroke-width="1" stroke-miterlimit="4" d="M73.437 270.039L73.437 272.039"/>
	<path fill="none" stroke="black" stroke-width="1" stroke-miterlimit="4" d="M78.4902 270.039L78.4902 272.039"/>
	<path fill="none" stroke="black" stroke-width="1" stroke-miterlimit="4" d="M88.5968 270.039L88.5968 272.039"/>
	<path fill="none" stroke="black" stroke-width="1" stroke-miterlimit="4" d="M93.6501 270.039L93.6501 272.039"/>
	<path fill="none" stroke="black" stroke-width="1" stroke-miterlimit="4" d="M98.7034 270.039L98.7034 272.039"/>
	<path fill="none" stroke="black" stroke-width="1" stroke-miterlimit="4" d="M103.757 270.039L103.757 272.039"/>
	<path fill="none" stroke="black" stroke-width="1" stroke-miterlimit="4" d="M113.863 270.039L113.863 272.039"/>
	<path fill="none" stroke="black" stroke-width="1" stroke-miterlimit="4" d="M118.917 270.039L118.917 272.039"/>
	<path fill="none" stroke="black" stroke-width="1" stroke-miterlimit="4" d="M123.97 270.039L123.97 272.039"/>
	<path fill="none" stroke="black" stroke-width="1" stroke-miterlimit="4" d="M129.023 270.039L129.023 272.039"/>
	<path fill="none" stroke="black" stroke-width="1" stroke-miterlimit="4" d="M139.13 270.039L139.13 272.039"/>
	<path fill="none" stroke="black" stroke-width="1" stroke-miterlimit="4" d="M144.183 270.039L144.183 272.039"/>
	<path fill="none" stroke="black" stroke-width="1" stroke-miterlimit="4" d="M149.236 270.039L149.236 272.039"/>
	<path fill="none" stroke="black" stroke-width="1" stroke-miterlimit="4" d="M154.29 270.039L154.29 272.039"/>
	<path fill="none" stroke="black" stroke-width="1" stroke-miterlimit="4" d="M164.396 270.039L164.396 272.039"/>
	<path fill="none" stroke="black" stroke-width="1" stroke-miterlimit="4" d="M169.45 270.039L169.45 272.039"/>
	<path fill="none" stroke="black" stroke-width="1" stroke-miterlimit="4" d="M174.503 270.039L174.503 272.039"/>
	<path fill="none" stroke="black" stroke-width="1" stroke-miterlimit="4" d="M179.556 270.039L179.556 272.039"/>
	<path fill="none" stroke="black" stroke-width="1" stroke-miterlimit="4" d="M189.663 270.039L189.663 272.039"/>
	<path fill="none" stroke="black" stroke-width="1" stroke-miterlimit="4" d="M194.716 270.039L194.716 272.039"/>
	<path fill="none" stroke="black" stroke-width="1" stroke-miterlimit="4" d="M199.769 270.039L199.769 272.039"/>
	<path fill="none" stroke="black" stroke-width="1" stroke-miterlimit="4" d="M204.823 270.039L204.823 272.039"/>
	<path fill="none" stroke="black" stroke-width="1" stroke-miterlimit="4" d="M214.929 270.039L214.929 272.039"/>
	<path fill="none" stroke="black" stroke-width="1" stroke-miterlimit="4" d="M219.982 270.039L219.982 272.039"/>
	<path fill="none" stroke="black" stroke-width="1" stroke-miterlimit="4" d="M225.036 270.039L225.036 272.039"/>
	<path fill="none" stroke="black" stroke-width="1" stroke-miterlimit="4" d="M230.089 270.039L230.089 272.039"/>
	<path fill="none" stroke="black" stroke-width="1" stroke-miterlimit="4" d="M240.196 270.039L240.196 272.039"/>
	<path fill="none" stroke="black" stroke-width="1" stroke-miterlimit="4" d="M245.249 270.039L245.249 272.039"/>
	<path fill="none" stroke="black" stroke-width="1" stroke-miterlimit="4" d="M250.302 270.039L250.302 272.039"/>
	<path fill="none" stroke="black" stroke-width="1" stroke-miterlimit="4" d="M255.355 270.039L255.355 272.039"/>
	<path fill="none" stroke="black" stroke-width="1" stroke-miterlimit="4" d="M265.462 270.039L265.462 272.039"/>
	<path fill="none" stroke="black" stroke-width="1" stroke-miterlimit="4" d="M270.515 270.039L270.515 272.039"/>
	<path fill="none" stroke="black" stroke-width="1" stroke-miterlimit="4" d="M275.569 270.039L275.569 272.039"/>
	<path fill="none" stroke="black" stroke-width="1" stroke-miterlimit="4" d="M280.622 270.039L280.622 272.039"/>
	<path fill="none" stroke="black" stroke-width="1" stroke-miterlimit="4" d="M290.729 270.039L290.729 272.039"/>
	<path fill="none" stroke="black" stroke-width="1" stroke-miterlimit="4" d="M295.782 270.039L295.782 272.039"/>
	<path fill="none" stroke="black" stroke-width="1" stroke-miterlimit="4" d="M300.835 270.039L300.835 272.039"/>
	<path fill="none" stroke="black" stroke-width="1" stroke-miterlimit="4" d="M305.888 270.039L305.888 272.039"/>
	<path fill="none" stroke="black" stroke-width="1" stroke-miterlimit="4" d="M315.995 270.039L315.995 272.039"/>
	<path fill="none" stroke="black" stroke-width="1" stroke-miterlimit="4" d="M321.048 270.039L321.048 272.039"/>
	<path fill="none" stroke="black" stroke-width="1" stroke-miterlimit="4" d="M326.102 270.039L326.102 272.039"/>
	<path fill="none" stroke="black" stroke-width="1" stroke-miterlimit="4" d="M331.155 270.039L331.155 272.039"/>
	<path fill="none" stroke="black" stroke-width="1" stroke-miterlimit="4" d="M341.261 270.039L341.261 272.039"/>
	<path fill="none" stroke="black" stroke-width="1" stroke-miterlimit="4" d="M346.315 270.039L346.315 272.039"/>
	<path fill="none" stroke="black" stroke-width="1" stroke-miterlimit="4" d="M351.368 270.039L351.368 272.039"/>
	<path fill="none" stroke="black" stroke-width="1" stroke-miterlimit="4" d="M356.421 270.039L356.421 272.039"/>
	<path fill="none" stroke="black" stroke-width="1" stroke-miterlimit="4" d="M366.528 270.039L366.528 272.039"/>
	<path fill="none" stroke="black" stroke-width="1" stroke-miterlimit="4" d="M371.581 270.039L371.581 272.039"/>
	<path fill="none" stroke="black" stroke-width="1" stroke-miterlimit="4" d="M376.634 270.039L376.634 272.039"/>
	<path fill="none" stroke="black" stroke-width="1" stroke-miterlimit="4" d="M381.688 270.039L381.688 272.039"/>
	<path fill="none" stroke="black" stroke-width="1" stroke-miterlimit="4" d="M391.794 270.039L391.794 272.039"/>
	<path fill="none" stroke="black" stroke-width="1" stroke-miterlimit="4" d="M396.848 270.039L396.848 272.039"/>
	<path fill="none" stroke="black" stroke-width="1" stroke-miterlimit="4" d="M401.901 270.039L401.901 272.039"/>
	<path fill="none" stroke="black" stroke-width="1" stroke-miterlimit="4" d="M406.954 270.039L406.954 272.039"/>
	<path fill="none" stroke="black" stroke-width="1" stroke-miterlimit="4" d="M417.061 270.039L417.061 272.039"/>
	<path fill="none" stroke="black" stroke-width="1" stroke-miterlimit="4" d="M422.114 270.039L422.114 272.039"/>
	<path fill="none" stroke="black" stroke-width="1" stroke-miterlimit="4" d="M427.167 270.039L427.167 272.039"/>
	<path fill="none" stroke="black" stroke-width="1" stroke-miterlimit="4" d="M432.221 270.039L432.221 272.039"/>
	<path fill="none" stroke="black" stroke-width="1" stroke-miterlimit="4" d="M40.3379 270.039L435 270.039"/>
	<path fill="none" stroke="black" stroke-width="1" stroke-miterlimit="4" d="M40.3379 46.3812L435 46.3812"/>
	<path fill="none" stroke="black" stroke-width="1" stroke-miterlimit="4" d="M40.3379 255.446L36.3379 255.446"/>
	<text transform="translate(31.3379 255.446)" font-size="12" font-family="Segoe UI" x="-11.267578, -6.46875, " y="3.046875, ">
			-1
	</text>
	<path fill="none" stroke="black" stroke-width="1" stroke-miterlimit="4" d="M40.3379 206.803L36.3379 206.803"/>
	<text transform="translate(31.3379 206.803)" font-size="12" font-family="Segoe UI" x="-20.337891, -15.539063, -9.0703125, -6.46875, " y="3.046875, ">
			-0.5
	</text>
	<path fill="none" stroke="black" stroke-width="1" stroke-miterlimit="4" d="M40.3379 158.16L36.3379 158.16"/>
	<text transform="translate(31.3379 158.16)" font-size="12" font-family="Segoe UI" x="-6.46875, " y="3.046875, ">
			0
	</text>
	<path fill="none" stroke="black" stroke-width="1" stroke-miterlimit="4" d="M40.3379 109.517L36.3379 109.517"/>
	<text transform="translate(31.3379 109.517)" font-size="12" font-family="Segoe UI" x="-15.539063, -9.0703125, -6.46875, " y="3.046875, ">
			0.5
	</text>
	<path fill="none" stroke="black" stroke-width="1" stroke-miterlimit="4" d="M40.3379 60.8741L36.3379 60.8741"/>
	<text transform="translate(31.3379 60.8741)" font-size="12" font-family="Segoe UI" x="-6.46875, " y="3.046875, ">
			1
	</text>
	<path fill="none" stroke="black" stroke-width="1" stroke-miterlimit="4" d="M40.3379 265.175L38.3379 265.175"/>
	<path fill="none" stroke="black" stroke-width="1" stroke-miterlimit="4" d="M40.3379 245.718L38.3379 245.718"/>
	<path fill="none" stroke="black" stroke-width="1" stroke-miterlimit="4" d="M40.3379 235.989L38.3379 235.989"/>
	<path fill="none" stroke="black" stroke-width="1" stroke-miterlimit="4" d="M40.3379 226.26L38.3379 226.26"/>
	<path fill="none" stroke="black" stroke-width="1" stroke-miterlimit="4" d="M40.3379 216.532L38.3379 216.532"/>
	<path fill="none" stroke="black" stroke-width="1" stroke-miterlimit="4" d="M40.3379 197.075L38.3379 197.075"/>
	<path fill="none" stroke="black" stroke-width="1" stroke-miterlimit="4" d="M40.3379 187.346L38.3379 187.346"/>
	<path fill="none" stroke="black" stroke-width="1" stroke-miterlimit="4" d="M40.3379 177.617L38.3379 177.617"/>
	<path fill="none" stroke="black" stroke-width="1" stroke-miterlimit="4" d="M40.3379 167.889L38.3379 167.889"/>
	<path fill="none" stroke="black" stroke-width="1" stroke-miterlimit="4" d="M40.3379 148.432L38.3379 148.432"/>
	<path fill="none" stroke="black" stroke-width="1" stroke-miterlimit="4" d="M40.3379 138.703L38.3379 138.703"/>
	<path fill="none" stroke="black" stroke-width="1" stroke-miterlimit="4" d="M40.3379 128.974L38.3379 128.974"/>
	<path fill="none" stroke="black" stroke-width="1" stroke-miterlimit="4" d="M40.3379 119.246L38.3379 119.246"/>
	<path fill="none" stroke="black" stroke-width="1" stroke-miterlimit="4" d="M40.3379 99.7886L38.3379 99.7886"/>
	<path fill="none" stroke="black" stroke-width="1" stroke-miterlimit="4" d="M40.3379 90.06L38.3379 90.06"/>
	<path fill="none" stroke="black" stroke-width="1" stroke-miterlimit="4" d="M40.3379 80.3313L38.3379 80.3313"/>
	<path fill="none" stroke="black" stroke-width="1" stroke-miterlimit="4" d="M40.3379 70.6028L38.3379 70.6028"/>
	<path fill="none" stroke="black" stroke-width="1" stroke-miterlimit="4" d="M40.3379 51.1456L38.3379 51.1456"/>
	<path fill="none" stroke="black" stroke-width="1" stroke-miterlimit="4" d="M40.3379 270.039L40.3379 46.2813"/>
	<path fill="none" stroke="black" stroke-width="1" stroke-miterlimit="4" d="M435 270.039L435 46.2813"/>
	<text transform="translate(237.669 31.2813)" font-size="16" font-weight="600" font-family="Segoe UI" x="-61.679688, -52.710938, -48.164063, -38.484375, -29.828125, -25.414063, -18.945313, -14.53125, -3.28125, 4.8984375, 20.210938, 31.460938, 37.367188, 46.570313, 55.773438, " y="-6.890625, ">
			Sine - ALMA(10)
	</text>
</svg>
