<?xml version="1.0" encoding="UTF-8" standalone="no"?><!DOCTYPE svg PUBLIC "-//W3C//DTD SVG 1.1//EN" "http://www.w3.org/Graphics/SVG/1.1/DTD/svg11.dtd"><svg width="100%" height="100%" viewBox="0 0 96 24" version="1.1" xmlns="http://www.w3.org/2000/svg" xmlns:xlink="http://www.w3.org/1999/xlink" xml:space="preserve" xmlns:serif="http://www.serif.com/" style="fill-rule:evenodd;clip-rule:evenodd;stroke-linecap:round;stroke-miterlimit:1;"><g id="pandas-ta"><g transform="matrix(0.732166,0,0,1,-4.21259,-3.55271e-15)"><g transform="matrix(21.0163,0,0,21.0163,134.752,20.2035)"></g><text x="37.089px" y="20.204px" style="font-family:'Lato-Bold', 'Lato', sans-serif;font-weight:700;font-size:21.016px;fill:#fff;stroke:#000;stroke-width:0.54px;">P<tspan x="49.699px " y="20.204px ">a</tspan>ndas T<tspan x="119.83px " y="20.204px ">A</tspan></text></g></g><g id="logo"><rect id="bg" x="0.96" y="1.92" width="20.16" height="20.16" style="fill:#fff;"/><path d="M21.12,1.92l0,20.16l-20.16,0l-0,-20.16l20.16,0Zm-0.504,0.504l-19.152,-0l-0,19.152l19.152,0l0,-19.152Z"/><g id="bars"><rect id="_1" serif:id="1" x="2.88" y="12.48" width="3.436" height="2.88" style="fill:#ef5552;"/><rect id="_2" serif:id="2" x="7.175" y="15.36" width="3.436" height="4.8" style="fill:#ef5552;"/><rect id="_3" serif:id="3" x="11.469" y="11.52" width="3.436" height="2.88" style="fill:#4cae4f;"/><rect id="_4" serif:id="4" x="15.764" y="3.84" width="3.436" height="6.72" style="fill:#4cae4f;"/></g><path d="M2.88,14.016c0,-0 3.474,6.213 8.589,3.744c6.51,-3.142 7.731,-9.12 7.731,-9.12" style="fill:none;stroke:#0d28f2;stroke-width:0.45px;stroke-linecap:butt;stroke-linejoin:round;stroke-miterlimit:1.5;"/></g></svg>